<?xml version="1.0" encoding="UTF-8" standalone="no"?>
<svg
   width="16"
   height="16"
   viewBox="0 0 16 16"
   fill="none"
   version="1.1"
   id="svg2"
   sodipodi:docname="folder-projects-symbolic.svg"
   inkscape:version="1.4.4 (dcaf3e7d9e, 2026-05-05)"
   xmlns:inkscape="http://www.inkscape.org/namespaces/inkscape"
   xmlns:sodipodi="http://sodipodi.sourceforge.net/DTD/sodipodi-0.dtd"
   xmlns="http://www.w3.org/2000/svg"
   xmlns:svg="http://www.w3.org/2000/svg">
  <sodipodi:namedview
     id="namedview1"
     pagecolor="#ffffff"
     bordercolor="#000000"
     borderopacity="0.25"
     inkscape:showpageshadow="2"
     inkscape:pageopacity="0.0"
     inkscape:pagecheckerboard="0"
     inkscape:deskcolor="#d1d1d1"
     inkscape:zoom="24.521788"
     inkscape:cx="8.3395222"
     inkscape:cy="6.9530002"
     inkscape:window-width="1463"
     inkscape:window-height="844"
     inkscape:window-x="0"
     inkscape:window-y="0"
     inkscape:window-maximized="1"
     inkscape:current-layer="g1" />
  <g
     clip-path="url(#clip0_451_818)"
     id="g1"
     transform="matrix(0.48758476,-0.45468014,0.45468014,0.48758476,-15.935017,6.1450794)"
     style="stroke-width:1.49995">
    <path
       fill-rule="evenodd"
       clip-rule="evenodd"
       d="m 36.74036,22.927566 c -0.01962,6.86e-4 -0.03924,0.0019 -0.05881,0.0036 l -16.128327,1.433395 c -0.391384,0.03484 -0.734194,0.276342 -0.898513,0.633325 -0.164324,0.356978 -0.117401,0.769792 0.06868,1.096869 0.186081,0.327079 0.318197,0.730824 0.336685,1.217695 0.01848,0.486869 -0.03815,0.761712 -0.214784,1.086968 -0.176631,0.325258 -0.231713,0.791191 -0.02819,1.157039 0.20338,0.365729 0.597397,0.583799 1.015584,0.561702 l 16.139717,-0.853472 c 0.83644,-0.03218 1.626461,-0.393572 2.197589,-1.006029 0.573369,-0.614865 0.879131,-1.432577 0.849717,-2.273023 l -1.104658,0.03864 1.104684,-0.03867 C 39.990295,25.14519 39.628359,24.350937 39.013355,23.777442 38.398353,23.203949 37.580786,22.898297 36.740346,22.92757 Z m 1.088929,3.134637 v 0 c 0,0 -0.120889,-0.504812 -0.310697,-0.681818 -0.184072,-0.17165 -0.426813,-0.265655 -0.677814,-0.262962 l -14.623272,1.299601 c 0.05495,0.267266 0.08658,0.536509 0.09668,0.79991 0.0078,0.205587 0.0026,0.4168 -0.01732,0.628919 l 14.568743,-0.770314 c 0.0065,-5.36e-4 0.01285,-7.58e-4 0.0196,-8.93e-4 0.259437,-0.009 0.504687,-0.120748 0.681818,-0.310697 0.177005,-0.189815 0.263205,-0.442103 0.262255,-0.701697 z M 17.578943,24.638936 c -1.574307,-1.468067 -4.02728,-1.345537 -5.489916,0.222946 -0.179745,0.192753 -0.375862,0.250619 -0.572392,0.243167 -0.230664,-0.0085 -0.423974,-0.108414 -0.505952,-0.184861 -0.30285,-0.282411 -0.739044,-0.370006 -1.1274059,-0.226441 -0.3884714,0.143712 -0.6626521,0.493896 -0.7089791,0.905467 -0.1972667,1.754505 0.4859595,3.620829 1.761931,4.810693 1.945259,1.813981 4.989389,1.666323 6.803295,-0.278853 1.462634,-1.568483 1.413716,-4.024065 -0.160581,-5.492118 z m -3.886967,1.71772 c 0.659444,-0.707167 1.726879,-0.73519 2.392196,-0.114768 0.66529,0.620393 0.711849,1.687233 0.0524,2.3944 -1.01059,1.083725 -2.669203,1.137109 -3.705574,0.170675 -0.420694,-0.392304 -0.74281,-0.927435 -0.926269,-1.50933 0.743259,0.01657 1.533903,-0.240353 2.187243,-0.940973 z"
       fill="url(#paint0_linear_451_818)"
       id="path1"
       style="fill:url(#paint0_linear_451_818);stroke-width:1.49995"
       sodipodi:nodetypes="sccsssscccsccccsccsccccccsscsscsccssssssscss" />
  </g>
  <defs
     id="defs2">
    <linearGradient
       id="paint0_linear_451_818"
       x1="24"
       y1="44.25"
       x2="24"
       y2="3.75"
       gradientUnits="userSpaceOnUse"
       gradientTransform="matrix(0.8014734,0.74738603,-0.74738603,0.8014734,25.15198,-12.950155)">
      <stop
         stop-color="#02AA93"
         id="stop1" />
      <stop
         offset="1"
         stop-color="#67FF80"
         id="stop2" />
    </linearGradient>
  </defs>
</svg>
