<?xml version="1.0" encoding="UTF-8" standalone="no"?>
<svg
   width="16"
   height="16"
   viewBox="0 0 16 16"
   fill="none"
   version="2"
   id="svg1"
   sodipodi:docname="folder-install.svg"
   inkscape:version="1.4.2 (ebf0e940d0, 2025-05-08)"
   xml:space="preserve"
   xmlns:inkscape="http://www.inkscape.org/namespaces/inkscape"
   xmlns:sodipodi="http://sodipodi.sourceforge.net/DTD/sodipodi-0.dtd"
   xmlns="http://www.w3.org/2000/svg"
   xmlns:svg="http://www.w3.org/2000/svg"
   xmlns:rdf="http://www.w3.org/1999/02/22-rdf-syntax-ns#"
   xmlns:cc="http://creativecommons.org/ns#"
   xmlns:dc="http://purl.org/dc/elements/1.1/"><title
     id="title1">folder-</title><sodipodi:namedview
     id="namedview1"
     pagecolor="#3f4354"
     bordercolor="#000000"
     borderopacity="0.5"
     inkscape:showpageshadow="1"
     inkscape:pageopacity="0"
     inkscape:pagecheckerboard="1"
     inkscape:deskcolor="#2b2f40"
     showgrid="false"
     inkscape:zoom="52.3125"
     inkscape:cx="8"
     inkscape:cy="8"
     inkscape:window-width="1920"
     inkscape:window-height="1048"
     inkscape:window-x="0"
     inkscape:window-y="0"
     inkscape:window-maximized="1"
     inkscape:current-layer="g1" /><g
     id="g1"><g
       id="g11"
       transform="matrix(0.74999965,0,0,0.74999965,3.7743922e-7,1.908614e-5)"
       style="fill:url(#linearGradient3)" /><g
       style="fill:none"
       id="g2"
       transform="matrix(0.71354358,0,0,0.71354358,0.5879123,0.23294058)"><path
         d="m 9.32885,1.375 c -0.30376,0 -0.55,0.24625 -0.55,0.55 V 2.55794 C 8.77885,2.81891 8.5948,3.0418 8.34287,3.10992 7.72009,3.27832 7.12218,3.52771 6.56371,3.85103 6.33736,3.98207 6.04882,3.95491 5.86388,3.76998 L 5.41377,3.31987 c -0.21479,-0.21479 -0.56303,-0.21479 -0.77782,0 L 3.31987,4.63595 c -0.21479,0.21479 -0.21479,0.56303 0,0.77782 L 3.7704,5.86429 C 3.95515,6.04905 3.98245,6.33722 3.85191,6.56356 3.52995,7.12181 3.2823,7.71948 3.11514,8.34201 3.04738,8.59437 2.8243,8.77885 2.56303,8.77885 H 1.925 c -0.30375,0 -0.55,0.24624 -0.55,0.55 v 1.86155 c 0,0.3037 0.24625,0.55 0.55,0.55 h 0.63294 c 0.26097,0 0.48386,0.184 0.55198,0.436 0.1684,0.6227 0.41779,1.2207 0.74111,1.7792 0.13104,0.2263 0.10388,0.5148 -0.08105,0.6997 l -0.45011,0.4502 c -0.21479,0.2147 -0.21479,0.563 0,0.7778 l 1.31608,1.316 c 0.21479,0.2148 0.56303,0.2148 0.77782,0 l 0.45052,-0.4504 c 0.18476,-0.1848 0.47293,-0.212 0.69927,-0.0816 0.55825,0.3219 1.15592,0.5697 1.77845,0.7368 0.25236,0.0678 0.43684,0.2908 0.43684,0.5522 v 0.638 c 0,0.3037 0.24624,0.55 0.55,0.55 h 0.38077 c 0.30378,0 0.54998,-0.2463 0.54998,-0.55 v -1.8617 c 0,-0.3037 -0.2468,-0.5472 -0.54924,-0.5754 -1.39862,-0.1303 -2.71255,-0.755 -3.69929,-1.7706 -1.07354,-1.1061 -1.67453,-2.5855 -1.67453,-4.127 0,-1.6007 0.64841,-3.1335 1.79602,-4.24853 1.10613,-1.07354 2.58557,-1.67453 4.12704,-1.67453 1.6007,0 3.1335,0.64841 4.2486,1.79602 0.9453,0.97399 1.5242,2.23744 1.649,3.57781 0.0282,0.30243 0.2717,0.54923 0.5754,0.54923 h 1.8617 c 0.3037,0 0.55,-0.2462 0.55,-0.54998 V 9.32885 c 0,-0.30376 -0.2463,-0.55 -0.55,-0.55 h -0.6329 c -0.261,0 -0.4839,-0.18405 -0.5521,-0.43598 C 17.2408,7.72009 16.9916,7.12218 16.6682,6.56371 16.5371,6.33736 16.5644,6.04882 16.7493,5.86388 l 0.45,-0.45011 c 0.2148,-0.21479 0.2148,-0.56303 0,-0.77782 l -1.316,-1.31608 c -0.2148,-0.21479 -0.5631,-0.21479 -0.7778,0 L 14.6549,3.7704 C 14.4702,3.95515 14.182,3.98245 13.9557,3.85191 13.3974,3.52995 12.7998,3.2823 12.1772,3.11514 11.9249,3.04738 11.7404,2.8243 11.7404,2.56303 V 1.925 c 0,-0.30375 -0.2463,-0.55 -0.55,-0.55 z M 9.63394,7.86814 C 9.26842,7.62446 8.77885,7.88648 8.77885,8.32576 v 3.86774 c 0,0.4393 0.48957,0.7013 0.85509,0.4576 l 2.90076,-1.9339 c 0.3266,-0.2177 0.3266,-0.6975 0,-0.91521 z m 5.61796,3.87226 c -0.3037,0 -0.55,0.2462 -0.55,0.55 v 4.1725 c 0,0.49 -0.5923,0.7353 -0.9388,0.389 l -1.0727,-1.0727 c -0.2148,-0.2149 -0.5631,-0.2149 -0.7779,0 l -0.2691,0.2691 c -0.2148,0.2148 -0.2148,0.5631 0,0.7778 l 3.41,3.4101 c 0.2147,0.2147 0.563,0.2147 0.7778,0 l 2.3933,-2.3934 1.0167,-1.0167 c 0.2148,-0.2147 0.2148,-0.563 0,-0.7778 l -0.2691,-0.2691 c -0.2148,-0.2149 -0.5631,-0.2149 -0.7778,0 l -1.0727,1.0727 c -0.3465,0.3463 -0.9389,0.101 -0.9389,-0.389 v -4.1725 c 0,-0.3038 -0.2463,-0.55 -0.5501,-0.55 z"
         fill="url(#paint0_linear_451_2502)"
         stroke="url(#paint1_linear_451_2502)"
         stroke-width="0.6"
         id="path1"
         style="fill:url(#paint0_linear_451_2502);stroke:url(#paint0_linear_451_2502)" /></g></g><defs
     id="defs1"><linearGradient
       id="paint0_linear_451_2502"
       x1="4.68373"
       y1="18.3524"
       x2="21.8945"
       y2="4.11176"
       gradientUnits="userSpaceOnUse"><stop
         stop-color="#FE0844"
         id="stop1" /><stop
         offset="1"
         stop-color="#FEB302"
         id="stop2" /></linearGradient></defs><metadata
     id="metadata1"><rdf:RDF><cc:Work
         rdf:about=""><dc:title>folder-</dc:title><dc:date>26-07-2025</dc:date><dc:description>Beautyline style * folder icon</dc:description><cc:license
           rdf:resource="http://creativecommons.org/licenses/by-nc-sa/4.0/" /></cc:Work><cc:License
         rdf:about="http://creativecommons.org/licenses/by-nc-sa/4.0/"><cc:permits
           rdf:resource="http://creativecommons.org/ns#Reproduction" /><cc:permits
           rdf:resource="http://creativecommons.org/ns#Distribution" /><cc:requires
           rdf:resource="http://creativecommons.org/ns#Notice" /><cc:requires
           rdf:resource="http://creativecommons.org/ns#Attribution" /><cc:prohibits
           rdf:resource="http://creativecommons.org/ns#CommercialUse" /><cc:permits
           rdf:resource="http://creativecommons.org/ns#DerivativeWorks" /><cc:requires
           rdf:resource="http://creativecommons.org/ns#ShareAlike" /></cc:License></rdf:RDF></metadata></svg>
