<?xml version="1.0" encoding="UTF-8" standalone="no"?>
<svg
   width="16"
   height="16"
   viewBox="0 0 16 16"
   fill="none"
   version="2"
   id="svg1"
   sodipodi:docname="folder-table_office-alt.svg"
   inkscape:version="1.4.2 (ebf0e940d0, 2025-05-08)"
   xml:space="preserve"
   xmlns:inkscape="http://www.inkscape.org/namespaces/inkscape"
   xmlns:sodipodi="http://sodipodi.sourceforge.net/DTD/sodipodi-0.dtd"
   xmlns="http://www.w3.org/2000/svg"
   xmlns:svg="http://www.w3.org/2000/svg"
   xmlns:rdf="http://www.w3.org/1999/02/22-rdf-syntax-ns#"
   xmlns:cc="http://creativecommons.org/ns#"
   xmlns:dc="http://purl.org/dc/elements/1.1/"><title
     id="title1">folder-</title><sodipodi:namedview
     id="namedview1"
     pagecolor="#3f4354"
     bordercolor="#000000"
     borderopacity="0.5"
     inkscape:showpageshadow="1"
     inkscape:pageopacity="0"
     inkscape:pagecheckerboard="1"
     inkscape:deskcolor="#2b2f40"
     showgrid="false"
     inkscape:zoom="12.660461"
     inkscape:cx="22.313564"
     inkscape:cy="26.341853"
     inkscape:window-width="1920"
     inkscape:window-height="1048"
     inkscape:window-x="0"
     inkscape:window-y="0"
     inkscape:window-maximized="1"
     inkscape:current-layer="g1" /><g
     id="g1"><g
       style="fill:none"
       id="g2"
       transform="matrix(0.05686634,0,0,0.05686634,0.74954165,0.88844707)"><path
         d="m 221,61.2412 c 0,-0.9855 -0.323,-2.0786 -0.859,-2.9121 -0.58,-0.9017 -1.24,-1.9293 -1.241,-1.9306 L 171,9.17432 C 169.555,7.80488 158.291,1.96167 156.269,1.96167 H 41.1923 C 37.2202,1.96167 34,5.19101 34,9.17432 V 240.94 c 0,3.984 3.2202,7.213 7.1923,7.213 H 213.808 c 3.972,0 7.192,-3.229 7.192,-7.213 V 66.8754 c 0,-1.6627 0,-2.4259 0,-5.6342 z M 163.462,33.804 c 0,-2.6373 3.264,-3.9429 5.144,-2.0576 l 22.852,22.9164 c 1.858,1.8629 0.512,5 -2.145,5 h -22.851 c -1.657,0 -3,-1.3174 -3,-2.9425 z M 55,230.988 c -1.6569,0 -3,-1.317 -3,-2.942 V 22.069 c 0,-1.6252 1.3431,-2.9426 3,-2.9426 h 86.5 c 1.657,0 3,1.3174 3,2.9426 v 37.5938 c 0,3.9833 14.989,17.8238 18.962,17.8238 H 200 c 1.657,0 3,1.3173 3,2.9425 V 228.046 c 0,1.625 -1.343,2.942 -3,2.942 z"
         fill="url(#paint0_linear)"
         id="path1"
         style="fill:url(#paint0_linear-5)" /><path
         d="M 128,113.092 H 87 c -3.3137,0 -6,2.762 -6,6.169 v 26.388 m 47,-32.557 v 32.557 m 0,-32.557 h 41 c 3.314,0 6,2.762 6,6.169 v 26.388 m -47,0 H 81 m 47,0 v 32.557 m 0,-32.557 h 47 m -94,0 v 32.557 m 47,0 h 47 m -47,0 v 32.557 m 0,-32.557 H 81 m 94,0 v 26.388 c 0,3.407 -2.686,6.169 -6,6.169 h -41 m 47,-32.557 v -32.557 m -47,65.114 H 87 c -3.3137,0 -6,-2.762 -6,-6.169 v -26.388"
         stroke="url(#paint1_linear)"
         stroke-width="12"
         id="path2"
         style="stroke:url(#paint1_linear)" /></g></g><defs
     id="defs1"><linearGradient
       id="paint0_linear"
       x1="94.0831"
       y1="102.397"
       x2="94.0831"
       y2="5"
       gradientUnits="userSpaceOnUse"
       gradientTransform="matrix(1.0455138,0,0,1.0223426,-7.6008048,-2.552391)"><stop
         stop-color="#FD2E00"
         id="stop14" /><stop
         offset="1"
         stop-color="#FF9900"
         id="stop16" /></linearGradient><linearGradient
       id="paint0_linear-5"
       x1="34"
       y1="125.057"
       x2="221"
       y2="125.057"
       gradientUnits="userSpaceOnUse"><stop
         stop-color="#02AA93"
         id="stop2" /><stop
         offset="1"
         stop-color="#67FF80"
         id="stop3" /></linearGradient><linearGradient
       id="paint1_linear"
       x1="81"
       y1="161.928"
       x2="175"
       y2="161.928"
       gradientUnits="userSpaceOnUse"><stop
         stop-color="#02AA93"
         id="stop4" /><stop
         offset="1"
         stop-color="#67FF80"
         id="stop5" /></linearGradient></defs><metadata
     id="metadata1"><rdf:RDF><cc:Work
         rdf:about=""><dc:title>folder-</dc:title><dc:date>26-07-2025</dc:date><dc:description>Beautyline style * folder icon</dc:description><cc:license
           rdf:resource="http://creativecommons.org/licenses/by-nc-sa/4.0/" /></cc:Work><cc:License
         rdf:about="http://creativecommons.org/licenses/by-nc-sa/4.0/"><cc:permits
           rdf:resource="http://creativecommons.org/ns#Reproduction" /><cc:permits
           rdf:resource="http://creativecommons.org/ns#Distribution" /><cc:requires
           rdf:resource="http://creativecommons.org/ns#Notice" /><cc:requires
           rdf:resource="http://creativecommons.org/ns#Attribution" /><cc:prohibits
           rdf:resource="http://creativecommons.org/ns#CommercialUse" /><cc:permits
           rdf:resource="http://creativecommons.org/ns#DerivativeWorks" /><cc:requires
           rdf:resource="http://creativecommons.org/ns#ShareAlike" /></cc:License></rdf:RDF></metadata></svg>
