<?xml version="1.0" encoding="UTF-8" standalone="no"?>
<svg
   width="16"
   height="16"
   viewBox="0 0 16 16"
   fill="none"
   version="1.1"
   id="svg5"
   sodipodi:docname="folder-presentation_alt0.svg"
   inkscape:version="1.4.2 (ebf0e940d0, 2025-05-08)"
   xmlns:inkscape="http://www.inkscape.org/namespaces/inkscape"
   xmlns:sodipodi="http://sodipodi.sourceforge.net/DTD/sodipodi-0.dtd"
   xmlns:xlink="http://www.w3.org/1999/xlink"
   xmlns="http://www.w3.org/2000/svg"
   xmlns:svg="http://www.w3.org/2000/svg">
  <sodipodi:namedview
     id="namedview5"
     pagecolor="#505050"
     bordercolor="#ffffff"
     borderopacity="1"
     inkscape:showpageshadow="0"
     inkscape:pageopacity="0"
     inkscape:pagecheckerboard="1"
     inkscape:deskcolor="#d1d1d1"
     inkscape:zoom="38.59091"
     inkscape:cx="8.7455829"
     inkscape:cy="5.9988221"
     inkscape:window-width="1920"
     inkscape:window-height="1048"
     inkscape:window-x="0"
     inkscape:window-y="0"
     inkscape:window-maximized="1"
     inkscape:current-layer="svg5" />
  <defs
     id="defs5">
    <linearGradient
       inkscape:collect="always"
       xlink:href="#paint0_linear_667_183-6"
       id="linearGradient7"
       gradientUnits="userSpaceOnUse"
       x1="37"
       y1="114.5"
       x2="185"
       y2="197.5" />
    <linearGradient
       id="paint0_linear_667_183-6"
       x1="37"
       y1="114.5"
       x2="185"
       y2="197.5"
       gradientUnits="userSpaceOnUse">
      <stop
         stop-color="#FD5900"
         id="stop2-8" />
      <stop
         offset="1"
         stop-color="#FFDE00"
         id="stop3-8" />
    </linearGradient>
    <linearGradient
       inkscape:collect="always"
       xlink:href="#paint1_linear_667_183-4"
       id="linearGradient8"
       gradientUnits="userSpaceOnUse"
       x1="58.5"
       y1="87"
       x2="200.715"
       y2="167.19901" />
    <linearGradient
       id="paint1_linear_667_183-4"
       x1="58.5"
       y1="87"
       x2="200.715"
       y2="167.19901"
       gradientUnits="userSpaceOnUse">
      <stop
         stop-color="#FD5900"
         id="stop4-3" />
      <stop
         offset="1"
         stop-color="#FFDE00"
         id="stop5-1" />
    </linearGradient>
    <linearGradient
       inkscape:collect="always"
       xlink:href="#paint1_linear_667_183-4"
       id="linearGradient4"
       x1="10.278278"
       y1="25.718863"
       x2="30.264254"
       y2="38.302029"
       gradientUnits="userSpaceOnUse" />
  </defs>
  <g
     id="g12"
     transform="matrix(0.15587719,0,0,0.15587719,2.2155774,2.6949315)">
    <path
       d="m 23.316485,24.91453 c -0.05667,-0.01842 -0.117229,-0.02727 -0.179562,-0.02727 v 0 h -9.218604 c -1.051875,0 -1.905417,0.853896 -1.905417,1.905417 v 7.809021 0 c 0,0.446604 0.321584,0.809271 0.717542,0.809271 v 0 c 0.395958,0 0.717542,-0.362667 0.717542,-0.809271 v 0 0 0 -6.951938 c 0,-0.631125 0.512479,-1.143604 1.143604,-1.143604 h 8.545333 v 0 c 0.06233,0 0.122896,-0.0089 0.179562,-0.02692 0.05667,0.01806 0.116875,0.02692 0.179209,0.02692 v 0 h 1.009729 c 0.631125,0 1.143604,0.512479 1.143604,1.143604 v 1.285271 0 c 0,0.446604 0.321583,0.809271 0.717542,0.809271 v 0 c 0.395958,0 0.717541,-0.362667 0.717541,-0.809271 v 0 -2.142354 c 0,-1.051521 -0.853541,-1.905417 -1.905416,-1.905417 h -1.683 v 0 c -0.06233,0 -0.122542,0.0088 -0.179209,0.02727 z m -7.715166,15.353833 v 0 c 0.395958,0 0.717541,0.362667 0.717541,0.809271 v 0 c 0,0.446958 -0.321583,0.809625 -0.717541,0.809625 v 0 h -1.683 c -1.051875,0 -1.905417,-0.853896 -1.905417,-1.905417 v -2.142354 0 c 0,-0.446604 0.321584,-0.80927 0.717542,-0.80927 v 0 c 0.395958,0 0.717542,0.362666 0.717542,0.80927 v 0 1.285271 c 0,0.631125 0.512479,1.143604 1.143604,1.143604 z m 10.047708,-7.690729 v 0 c 0,-0.446604 0.321583,-0.80927 0.717542,-0.80927 v 0 c 0.395958,0 0.717541,0.362666 0.717541,0.80927 v 0 7.404208 c 0,1.051521 -0.853541,1.905417 -1.905416,1.905417 h -6.347729 v 0 c -0.396313,0 -0.717896,-0.362667 -0.717896,-0.809625 v 0 c 0,-0.446604 0.321583,-0.809271 0.717896,-0.809271 v 0 h 5.674458 c 0.631125,0 1.143604,-0.512479 1.143604,-1.143604 z"
       fill-rule="evenodd"
       fill="url(#_lgradient_12)"
       id="path2-9"
       style="isolation:isolate;fill:url(#linearGradient4);fill-opacity:1;stroke:url(#linearGradient1823);stroke-width:0.354167;stroke-dasharray:none"
       transform="matrix(5.2831941,0,0,5.2831941,-66.169706,-142.35773)" />
  </g>
  <g
     style="fill:none"
     id="g2"
     transform="matrix(0.06084752,0,0,0.06084752,0.21151744,-1.2568093)">
    <path
       d="m 149.094,177.52 h 14.062 c 1.944,0 3.516,-1.622 3.516,-3.627 v -43.524 c 0,-2.005 -1.572,-3.627 -3.516,-3.627 h -14.062 c -1.944,0 -3.516,1.622 -3.516,3.627 v 43.524 c 0,2.005 1.572,3.627 3.516,3.627 z m 35.39,-79.7946 h -52.968 v -3.8689 c 0,-2.0048 -1.573,-3.627 -3.516,-3.627 -1.943,0 -3.516,1.6222 -3.516,3.627 v 3.8689 H 71.5156 C 69.5724,97.7254 68,99.3474 68,101.352 v 14.509 c 0,2.005 1.5724,3.627 3.5156,3.627 h 3.5156 v 69.155 c 0,2.005 1.5724,3.627 3.5157,3.627 h 30.5151 l -4.688,14.509 h -4.499 c -1.9432,0 -3.5156,1.622 -3.5156,3.627 0,2.005 1.5724,3.627 3.5156,3.627 h 7.031 c 1.293,0 2.772,-0.97 3.276,-2.399 0.335,-0.951 6.105,-18.71 6.291,-19.364 h 8.011 v 18.136 c 0,2.005 1.573,3.627 3.516,3.627 1.943,0 3.516,-1.622 3.516,-3.627 V 192.27 h 8.014 c 0.643,1.98 -2.327,-7.173 6.288,19.364 0.501,1.421 1.978,2.399 3.276,2.399 h 7.031 c 1.943,0 3.516,-1.622 3.516,-3.627 0,-2.005 -1.573,-3.627 -3.516,-3.627 h -4.499 l -4.688,-14.509 h 30.515 c 1.944,0 3.516,-1.622 3.516,-3.627 v -69.155 h 3.515 c 1.944,0 3.516,-1.622 3.516,-3.627 v -14.509 c 0,-2.0046 -1.572,-3.6266 -3.516,-3.6266 z M 173.938,185.016 H 82.0625 v -65.528 h 91.8755 z m -52.969,-7.496 h 14.062 c 1.944,0 3.516,-1.622 3.516,-3.627 v -29.016 c 0,-2.005 -1.572,-3.627 -3.516,-3.627 h -14.062 c -1.944,0 -3.516,1.622 -3.516,3.627 v 29.016 c 0,2.005 1.572,3.627 3.516,3.627 z m -28.1252,0 h 14.0622 c 1.944,0 3.516,-1.622 3.516,-3.627 v -14.508 c 0,-2.005 -1.572,-3.627 -3.516,-3.627 H 92.8438 c -1.9433,0 -3.5157,1.622 -3.5157,3.627 v 14.508 c 0,2.005 1.5724,3.627 3.5157,3.627 z"
       fill="url(#paint0_linear_667_183)"
       id="path1-4"
       style="fill:url(#linearGradient7)" />
    <path
       fill-rule="evenodd"
       clip-rule="evenodd"
       d="m 128,88.2295 c -3.106,0 -5.516,2.5765 -5.516,5.627 v 1.8689 H 71.5156 C 68.4097,95.7254 66,98.3019 66,101.352 v 14.509 c 0,3.05 2.4096,5.627 5.5156,5.627 h 1.5156 v 67.155 c 0,3.05 2.4096,5.627 5.5157,5.627 h 27.7671 l -3.396,10.509 h -3.043 c -3.106,0 -5.5156,2.577 -5.5156,5.627 0,3.05 2.4096,5.627 5.5156,5.627 h 7.031 c 2.143,0 4.377,-1.507 5.162,-3.734 v -0.001 c 0.101,-0.286 0.675,-2.034 1.439,-4.376 l 8.977,-5.249 v 7.733 c 0,3.051 2.411,5.627 5.516,5.627 3.105,0 5.516,-2.576 5.516,-5.627 v -14.183 l 3.34,-1.953 h 1.222 c 0.664,2.044 2.241,6.903 5.838,17.982 l 0.007,0.023 0.009,0.024 c 0.781,2.215 3.01,3.734 5.162,3.734 h 7.031 c 3.105,0 5.516,-2.576 5.516,-5.627 0,-3.051 -2.411,-5.627 -5.516,-5.627 h -3.043 l -3.396,-10.509 h 27.767 c 3.107,0 5.516,-2.577 5.516,-5.627 v -67.155 h 1.515 c 3.107,0 5.516,-2.577 5.516,-5.627 v -14.509 c 0,-3.0502 -2.409,-5.6266 -5.516,-5.6266 h -50.968 v -1.8689 c 0,-3.0505 -2.41,-5.627 -5.516,-5.627 z m 8.856,106.0405 v 0 l 4.56,-2.667 0.006,0.017 0.003,0.009 0.003,0.009 0.003,0.008 0.004,0.013 v 0.002 l 0.002,0.003 0.15,0.461 c 0.414,1.276 1.824,5.617 6.124,18.862 0.228,0.617 0.943,1.046 1.383,1.046 h 7.031 c 0.781,0 1.516,-0.668 1.516,-1.627 0,-0.959 -0.735,-1.627 -1.516,-1.627 h -4.499 -1.456 l -0.447,-1.385 -4.688,-14.509 -0.845,-2.615 h 2.748 30.515 c 0.781,0 1.516,-0.667 1.516,-1.627 v -69.155 -2 h 2 3.515 c 0.781,0 1.516,-0.667 1.516,-1.627 v -14.509 c 0,-0.959 -0.735,-1.6266 -1.516,-1.6266 h -52.968 -2 v -2 -3.8689 c 0,-0.9591 -0.736,-1.627 -1.516,-1.627 -0.78,0 -1.516,0.6679 -1.516,1.627 v 3.8689 2 h -2 -52.9684 C 70.7351,99.7254 70,100.393 70,101.352 v 14.509 c 0,0.96 0.7352,1.627 1.5156,1.627 h 3.5156 2 v 2 69.155 c 0,0.96 0.7352,1.627 1.5157,1.627 h 30.5151 2.748 l -0.845,2.615 -4.688,14.509 -0.447,1.385 h -1.456 -4.499 c -0.7804,0 -1.5156,0.667 -1.5156,1.627 0,0.96 0.7352,1.627 1.5156,1.627 h 7.031 c 0.168,0 0.465,-0.074 0.778,-0.296 0.304,-0.215 0.515,-0.494 0.612,-0.768 l 5.211,-3.047 v 0 l 8.977,-5.249 v 0 l 4,-2.338 v 10.071 c 0,0.959 0.735,1.627 1.516,1.627 0.781,0 1.516,-0.668 1.516,-1.627 v -11.844 l 4,-2.339 v 0 z m -7.34,4.291 v 0.001 l -3.032,1.773 v -0.001 z m 0,0 v -6.291 -2 h 2 8.014 1.453 l 0.433,1.333 -4.56,2.667 h -3.34 v 1.953 z m -3.032,1.773 v -8.064 -2 h -2 -8.011 -1.511 l -0.413,1.452 c 10e-4,-0.001 10e-4,0 0,0.003 -0.002,0.006 -0.008,0.025 -0.02,0.063 -0.015,0.048 -0.035,0.112 -0.061,0.194 -0.051,0.163 -0.122,0.384 -0.21,0.659 -0.175,0.547 -0.417,1.297 -0.702,2.182 -0.572,1.77 -1.321,4.08 -2.075,6.4 -1.514,4.661 -3.027,9.297 -3.185,9.746 l 5.211,-3.047 c 1.424,-4.363 3.509,-10.786 4.429,-13.652 h 4.548 v 8.403 z M 82.0625,117.488 h -2 v 2 65.528 2 h 2 91.8755 2 v -2 -65.528 -2 h -2 z m 89.8755,4 H 84.0625 v 61.528 h 87.8755 z m -22.844,3.254 c -3.107,0 -5.516,2.577 -5.516,5.627 v 43.524 c 0,3.05 2.409,5.627 5.516,5.627 h 14.062 c 3.107,0 5.516,-2.577 5.516,-5.627 v -43.524 c 0,-3.05 -2.409,-5.627 -5.516,-5.627 z m -1.516,5.627 c 0,-0.96 0.735,-1.627 1.516,-1.627 h 14.062 c 0.781,0 1.516,0.667 1.516,1.627 v 43.524 c 0,0.96 -0.735,1.627 -1.516,1.627 h -14.062 c -0.781,0 -1.516,-0.667 -1.516,-1.627 z m -26.609,8.881 c -3.107,0 -5.516,2.577 -5.516,5.627 v 29.016 c 0,3.05 2.409,5.627 5.516,5.627 h 14.062 c 3.107,0 5.516,-2.577 5.516,-5.627 v -29.016 c 0,-3.05 -2.409,-5.627 -5.516,-5.627 z m -1.516,5.627 c 0,-0.96 0.735,-1.627 1.516,-1.627 h 14.062 c 0.781,0 1.516,0.667 1.516,1.627 v 29.016 c 0,0.96 -0.735,1.627 -1.516,1.627 h -14.062 c -0.781,0 -1.516,-0.667 -1.516,-1.627 z m -26.6092,8.881 c -3.1061,0 -5.5157,2.577 -5.5157,5.627 v 14.508 c 0,3.05 2.4096,5.627 5.5157,5.627 h 14.0622 c 3.107,0 5.516,-2.577 5.516,-5.627 v -14.508 c 0,-3.05 -2.409,-5.627 -5.516,-5.627 z m -1.5157,5.627 c 0,-0.96 0.7352,-1.627 1.5157,-1.627 h 14.0622 c 0.781,0 1.516,0.667 1.516,1.627 v 14.508 c 0,0.96 -0.735,1.627 -1.516,1.627 H 92.8438 c -0.7805,0 -1.5157,-0.667 -1.5157,-1.627 z"
       fill="url(#paint1_linear_667_183)"
       id="path2-92"
       style="fill:url(#linearGradient8)"
       sodipodi:nodetypes="sscsssscssccssssccccsssccccccssssccsscsssscssccccccccccccssssccccccsscccsssscccssscccsssscccssccccccsssscccccccssscccccccccccccccccccccccccccsccsccccccccccccccccccccccccccssssssssssssssssssssssssssssssssssssssssssssssssssssss" />
  </g>
</svg>
