<?xml version="1.0" encoding="UTF-8" standalone="no"?>
<svg
   width="16"
   height="16"
   viewBox="0 0 16 16"
   fill="none"
   version="2"
   id="svg1"
   sodipodi:docname="folder-presentation_libreoffice-impress-alt.svg"
   inkscape:version="1.4.2 (ebf0e940d0, 2025-05-08)"
   xml:space="preserve"
   xmlns:inkscape="http://www.inkscape.org/namespaces/inkscape"
   xmlns:sodipodi="http://sodipodi.sourceforge.net/DTD/sodipodi-0.dtd"
   xmlns:xlink="http://www.w3.org/1999/xlink"
   xmlns="http://www.w3.org/2000/svg"
   xmlns:svg="http://www.w3.org/2000/svg"
   xmlns:rdf="http://www.w3.org/1999/02/22-rdf-syntax-ns#"
   xmlns:cc="http://creativecommons.org/ns#"
   xmlns:dc="http://purl.org/dc/elements/1.1/"><title
     id="title1">folder-</title><sodipodi:namedview
     id="namedview1"
     pagecolor="#3f4354"
     bordercolor="#000000"
     borderopacity="0.5"
     inkscape:showpageshadow="1"
     inkscape:pageopacity="0"
     inkscape:pagecheckerboard="1"
     inkscape:deskcolor="#2b2f40"
     showgrid="false"
     inkscape:zoom="53.0625"
     inkscape:cx="8"
     inkscape:cy="8"
     inkscape:window-width="1920"
     inkscape:window-height="1048"
     inkscape:window-x="0"
     inkscape:window-y="0"
     inkscape:window-maximized="1"
     inkscape:current-layer="g1" /><g
     id="g1"><g
       style="fill:none"
       id="g2"
       transform="matrix(0.13220676,0,0,0.13220676,8.8892792,10.339522)"><path
         d="m 37.351948,-13.860294 c -1.37841,11.4817434 -7.03484,21.1668674 -15.9042,28.4736 -10.4481,8.1299 -25.0044997,10.4599 -37.5095,6.1649 -8.790893,-2.975788 -14.986609,-8.470414 -18.3859,-12.9287996 5.7064,-0.0872 8.4185,0.0755 14.1248,-0.0756 3.905,-0.0872 7.2928,-2.58 9.3731,-5.7528 0.4997,-1.2726 1.1447003,-1.1448 1.3190503,-11.8427 0,0 0,-12.6874134 -0.17435,-23.7086004 -0.03203,-2.023808 -2.5165563,-8.071084 -8.6291003,-9.3846 -1.66691,-0.310233 -8.1163,-0.310233 -8.1163,-0.310233 l -7.8157,-0.02565 c 7.2927,-9.1929 19.8099,-14.784117 31.4840003,-15.074717 -0.079119,14.048536 0.135226,28.094997 0.2061,42.1427 0.0226,1 1.636,2.1308 3.0248,2.2702 12.3342167,0.064 37.0031997,0.0523 37.0031997,0.0523 z m -85.5597,-22.0524 c 2.812097,-0.811669 22.656868,-0.579477 28.6637,-0.1104 1.4236,0.4474 2.3534,1.7374 2.8183,3.103 0.215,9.71 0.058,19.4317 0.0813,29.1476004 0.1975,2.3941 -1.7491,4.7301 -4.213,4.6487 -9.7274,0.0988 -16.4666,0.0523 -26.1941,0.0291 -1.598,-0.2731 -2.8995,-1.4527 -3.562,-2.8939 -0.2963,-9.5124004 -0.0348,-19.0424004 -0.1452,-28.5607004 -0.1569,-2.0745 0.4648,-4.4744 2.551,-5.3634 z m 52.2581003,12.9584 c 0,0 1.0252,2.0365 2.184,2.0861 0.599048,0.0256 5.7072497,0.0281 7.3075997,0.0205 9.094983,-0.008 18.18998,0.001 27.285,0.0144 1.546,-0.0698 3.039,1.0518 3.376,2.5684 0.20372,7.154408 -1.18972,18.7102854 -9.965,29.932 -5.5789,6.9151 -12.9646,12.4061 -21.3672,15.3701 -10.2910997,3.713 -21.8489997,3.643 -32.1343,-0.064 -9.6868,-3.585 -18.2463,-10.3145 -23.7202,-19.1121996 -3.1495,0.0116 -6.623429,0.216421 -9.2974,-1.691 -1.526494,-1.088893 -2.766,-2.2895 -3.8411,-3.7132 -1.112352,-1.5515 -1.5225,-4.4454 -1.5515,-6.8511 0.0348,-9.2916004 -0.0291,-18.5833004 0.029,-27.8750004 0.0233,-5.4274 4.5674,-10.4248 10.0006,-10.8316 0,0 2.937774,-0.21786 4.716713,-0.15544 7.97758,-13.29686 23.431387,-21.74006 39.0104873,-21.92026 7.3508,-0.122 14.6725997,1.5516 21.3144997,4.6836 4.2536,2.1558 8.2631,4.8172 11.7322,8.1004 5.84679,5.435367 9.56138,11.655338 11.9052,17.47 0.626,1.5614 1.357,3.3827 0.286,4.9021 -1.284,2.1791 -4.928,2.0222 -5.927,-0.3312 -1.354,-3.3238 -2.737,-6.6709 -4.811,-9.6345 -1.5985,-2.5045 -3.5161,-4.794 -5.6487,-6.8569 -3.5272,-3.3936 -7.6413,-6.1654 -12.1332,-8.112 -3.1087997,-1.354 -5.4035997,-2.2198 -8.7390997,-2.8125 -0.0141,11.604451 -0.0116,34.8133 -0.0116,34.8133 z"
         stroke="url(#paint6_linear_614_153)"
         stroke-width="4"
         id="path7"
         style="fill:url(#linearGradient19);fill-rule:evenodd;stroke:url(#linearGradient20)"
         sodipodi:nodetypes="cccccccscccccccccccccccccsccccccccccccccccsccccccc" /><path
         d="m -35.991152,-21.675394 c 0,-2.405642 0,-3.9569 3.9906,-3.9569 3.917943,0 3.9179,1.680097 3.9179,3.9569 0,3.192614 -1e-6,5.444412 -3.9179,5.461313 -3.9906,0.01721 -3.9906,-2.19578 -3.9906,-5.461313 z m 0.822251,15.9607234 c 0.104138,-4.7924614 0.09525,-4.7982614 1.6783,-4.7924614 2.9733,0.0163 4.71319,0.391685 8.227882,-1.010315 3.524496,-1.6562 3.493232,-4.995547 3.604616,-9.597054 0.0017,-4.385093 -1.620597,-10.21515 -6.235858,-10.21515 0,0 -4.106591,0 -11.08598,0 -2.798744,0 -3.722909,2.090522 -3.765809,4.007822 0.02924,6.81821 0.02456,14.788584 0,21.6071584 0,3.059287 1.686853,3.059287 3.765809,3.059287 2.009807,0 3.744555,3.67e-4 3.81104,-3.059287 z"
         fill="url(#paint7_linear_614_153)"
         id="path13"
         style="fill:url(#linearGradient9);stroke-width:2.00078;stroke-dasharray:none"
         sodipodi:nodetypes="sssssscccssccss" /></g></g><defs
     id="defs1"><linearGradient
       id="paint6_linear_614_153"
       x1="31.4873"
       y1="100.759"
       x2="100.975"
       y2="27.8596"
       gradientUnits="userSpaceOnUse"><stop
         offset="0.184158"
         stop-color="#FF5C00"
         id="stop22" /><stop
         offset="1"
         stop-color="#FEE502"
         id="stop23" /></linearGradient><linearGradient
       id="paint7_linear_614_153"
       x1="32.394"
       y1="75.3498"
       x2="54.3121"
       y2="61.7912"
       gradientUnits="userSpaceOnUse"><stop
         stop-color="#FE0844"
         id="stop24" /><stop
         offset="1"
         stop-color="#FEB302"
         id="stop25" /></linearGradient><linearGradient
       inkscape:collect="always"
       xlink:href="#paint7_linear_614_153"
       id="linearGradient9"
       gradientUnits="userSpaceOnUse"
       x1="32.394"
       y1="75.3498"
       x2="54.3121"
       y2="61.7912"
       gradientTransform="translate(-70.676052,-82.182794)" /><linearGradient
       inkscape:collect="always"
       xlink:href="#paint6_linear_614_153"
       id="linearGradient19"
       x1="31.487301"
       y1="100.759"
       x2="100.975"
       y2="27.8596"
       gradientUnits="userSpaceOnUse"
       gradientTransform="translate(-70.676052,-82.182794)" /><linearGradient
       inkscape:collect="always"
       xlink:href="#paint6_linear_614_153"
       id="linearGradient20"
       gradientUnits="userSpaceOnUse"
       x1="31.487301"
       y1="100.759"
       x2="100.975"
       y2="27.8596"
       gradientTransform="translate(-70.676052,-82.182794)" /></defs><metadata
     id="metadata1"><rdf:RDF><cc:Work
         rdf:about=""><dc:title>folder-</dc:title><dc:date>26-07-2025</dc:date><dc:description>Beautyline style * folder icon</dc:description><cc:license
           rdf:resource="http://creativecommons.org/licenses/by-nc-sa/4.0/" /></cc:Work><cc:License
         rdf:about="http://creativecommons.org/licenses/by-nc-sa/4.0/"><cc:permits
           rdf:resource="http://creativecommons.org/ns#Reproduction" /><cc:permits
           rdf:resource="http://creativecommons.org/ns#Distribution" /><cc:requires
           rdf:resource="http://creativecommons.org/ns#Notice" /><cc:requires
           rdf:resource="http://creativecommons.org/ns#Attribution" /><cc:prohibits
           rdf:resource="http://creativecommons.org/ns#CommercialUse" /><cc:permits
           rdf:resource="http://creativecommons.org/ns#DerivativeWorks" /><cc:requires
           rdf:resource="http://creativecommons.org/ns#ShareAlike" /></cc:License></rdf:RDF></metadata></svg>
