<?xml version="1.0" encoding="UTF-8" standalone="no"?>
<svg
   width="16"
   height="16"
   viewBox="0 0 16 16"
   fill="none"
   version="1.1"
   id="svg16"
   sodipodi:docname="folder-software.svg"
   inkscape:version="1.2.2 (b0a8486541, 2022-12-01)"
   xmlns:inkscape="http://www.inkscape.org/namespaces/inkscape"
   xmlns:sodipodi="http://sodipodi.sourceforge.net/DTD/sodipodi-0.dtd"
   xmlns="http://www.w3.org/2000/svg"
   xmlns:svg="http://www.w3.org/2000/svg">
  <sodipodi:namedview
     id="namedview18"
     pagecolor="#ffffff"
     bordercolor="#000000"
     borderopacity="0.25"
     inkscape:showpageshadow="2"
     inkscape:pageopacity="0.0"
     inkscape:pagecheckerboard="0"
     inkscape:deskcolor="#d1d1d1"
     showgrid="false"
     inkscape:zoom="12.546875"
     inkscape:cx="27.217933"
     inkscape:cy="31.960149"
     inkscape:window-width="1920"
     inkscape:window-height="1053"
     inkscape:window-x="0"
     inkscape:window-y="27"
     inkscape:window-maximized="1"
     inkscape:current-layer="svg16" />
  <path
     fill-rule="evenodd"
     clip-rule="evenodd"
     d="m 2.0060689,12.957812 c -0.0029,0.0331 -0.003,0.06658 0.0045,0.09893 0.0095,0.04118 0.02284,0.0756 0.03691,0.09925 0.01201,0.02018 0.01968,0.02488 0.02299,0.02683 0.0023,0.0014 0.03617,0.02198 0.133866,0.02198 H 13.795776 c 0.0977,0 0.131707,-0.02063 0.133982,-0.02203 0.0033,-0.002 0.01088,-0.0066 0.02288,-0.02678 0.01407,-0.02365 0.02745,-0.05808 0.03693,-0.09925 0.0074,-0.03238 0.0074,-0.06583 0.0044,-0.0989 L 13.185425,3.70817 C 13.140245,3.19157 12.707727,2.795201 12.189178,2.795201 H 3.8108519 c -0.518549,0 -0.95107,0.396369 -0.996247,0.912969 z M 1.4186359,2.441377 c 0.05399,-0.647896 0.5956,-1.146247 1.245737,-1.146247 H 13.335657 c 0.650131,0 1.191757,0.498351 1.245735,1.146247 L 15.49606,12.91721 c 0.0026,0.03153 0.0056,0.08045 0.0028,0.139082 -0.0055,0.115055 -0.03548,0.494323 -0.257263,0.866941 -0.253662,0.426145 -0.726134,0.781637 -1.445894,0.781637 H 2.2042879 c -0.719744,0 -1.192224,-0.355492 -1.44587699,-0.781637 -0.221783,-0.372618 -0.251797,-0.751886 -0.257274,-0.866941 -0.0028,-0.05863 2.17e-4,-0.107556 0.0028,-0.139082 z m 3.558497,1.331171 c -0.295364,0 -0.578628,0.117331 -0.787488,0.326191 -0.20886,0.20886 -0.32619,0.492123 -0.32619,0.787487 0,0.295364 0.11733,0.578653 0.32619,0.787513 0.135632,0.135606 0.302615,0.232636 0.483924,0.284013 0.082,0.353967 0.200759,0.767037 0.370917,1.183357 0.227386,0.556377 0.547826,1.129979 1.027074,1.583601 0.479223,0.453621 1.13683,0.775362 1.927967,0.775362 0.791138,0 1.448745,-0.321741 1.927992,-0.775362 0.4792231,-0.453622 0.7996641,-1.027224 1.0270501,-1.583601 0.170083,-0.41622 0.288838,-0.829165 0.370842,-1.183057 0.181709,-0.05128 0.349092,-0.148432 0.484973,-0.284313 0.20886,-0.20886 0.326191,-0.492149 0.326191,-0.787513 0,-0.295364 -0.117331,-0.578627 -0.326191,-0.787487 -0.20886,-0.20886 -0.492123,-0.326191 -0.787487,-0.326191 -0.295389,0 -0.578653,0.117331 -0.787513,0.326191 -0.20886,0.20886 -0.3261901,0.492123 -0.3261901,0.787487 0,0.295364 0.1173301,0.578653 0.3261901,0.787513 0.04563,0.04563 0.0948,0.08688 0.146857,0.123481 -0.07163,0.300564 -0.172083,0.644006 -0.31119,0.984422 -0.1941341,0.474947 -0.4623471,0.932719 -0.8002881,1.25261 -0.337941,0.31989 -0.72626,0.513799 -1.271236,0.513799 -0.544976,0 -0.933294,-0.193909 -1.271235,-0.513799 C 6.3903509,7.714361 6.1221379,7.256589 5.9280279,6.781642 5.7889719,6.441451 5.6885669,6.098234 5.6169389,5.79782 c 0.0524,-0.03675 0.101854,-0.0782 0.147707,-0.124081 0.20886,-0.20886 0.32619,-0.492149 0.32619,-0.787513 0,-0.295364 -0.11733,-0.578627 -0.32619,-0.787487 -0.20886,-0.20886 -0.492124,-0.326191 -0.787513,-0.326191 z"
     fill="url(#paint0_linear_677_24)"
     stroke="url(#paint1_linear_677_24)"
     id="path2"
     style="fill:url(#paint0_linear_677_24);stroke:url(#paint1_linear_677_24);stroke-width:0.250012" />
  <defs
     id="defs14">
    <linearGradient
       id="paint0_linear_677_24"
       x1="31.998501"
       y1="58.636398"
       x2="31.998501"
       y2="5"
       gradientUnits="userSpaceOnUse"
       gradientTransform="matrix(0.25001194,0,0,0.25001194,-5.0923102e-6,0.04507)">
      <stop
         stop-color="#00FFDC"
         id="stop4" />
      <stop
         offset="1"
         stop-color="#00BAE3"
         id="stop6" />
    </linearGradient>
    <linearGradient
       id="paint1_linear_677_24"
       x1="31.998501"
       y1="58.636398"
       x2="31.998501"
       y2="5"
       gradientUnits="userSpaceOnUse"
       gradientTransform="matrix(0.25001194,0,0,0.25001194,-5.0923102e-6,0.04507)">
      <stop
         stop-color="#00FFDC"
         id="stop9" />
      <stop
         offset="1"
         stop-color="#00BAE3"
         id="stop11" />
    </linearGradient>
  </defs>
</svg>
