<?xml version="1.0" encoding="UTF-8" standalone="no"?>
<svg
   width="16"
   height="16"
   viewBox="0 0 16 16"
   fill="none"
   version="1.1"
   id="svg2"
   sodipodi:docname="folder-podcast_accessories-podcast-alt.svg"
   inkscape:version="1.4.2 (ebf0e940d0, 2025-05-08)"
   xmlns:inkscape="http://www.inkscape.org/namespaces/inkscape"
   xmlns:sodipodi="http://sodipodi.sourceforge.net/DTD/sodipodi-0.dtd"
   xmlns="http://www.w3.org/2000/svg"
   xmlns:svg="http://www.w3.org/2000/svg">
  <sodipodi:namedview
     id="namedview2"
     pagecolor="#505050"
     bordercolor="#ffffff"
     borderopacity="1"
     inkscape:showpageshadow="0"
     inkscape:pageopacity="0"
     inkscape:pagecheckerboard="1"
     inkscape:deskcolor="#d1d1d1"
     inkscape:zoom="53.0625"
     inkscape:cx="8"
     inkscape:cy="8"
     inkscape:window-width="1920"
     inkscape:window-height="1048"
     inkscape:window-x="0"
     inkscape:window-y="0"
     inkscape:window-maximized="1"
     inkscape:current-layer="svg2" />
  <path
     fill-rule="evenodd"
     clip-rule="evenodd"
     d="M 11.770983,2.2388145 C 10.673093,1.4302384 9.3444773,0.99594664 7.9809663,1.0000289 6.6174868,1.0041111 5.2914227,1.4463476 4.1984315,2.2614867 3.1054325,3.0766336 2.303388,4.2215086 1.9106362,5.5272008 1.5178845,6.8329007 1.5552135,8.230263 2.017128,9.5131416 2.4790425,10.795989 3.3410725,11.896391 4.4760402,12.652 4.8008539,12.868281 5.2394682,12.780277 5.4557176,12.455424 5.6719591,12.130649 5.5839552,11.692043 5.2591415,11.475762 4.3763941,10.888075 3.7059237,10.032215 3.3466542,9.0344192 2.9873926,8.036623 2.9583537,6.9497866 3.2638316,5.9342483 3.5693017,4.9187021 4.1931167,4.0282455 5.0432218,3.3942484 5.893327,2.7602435 6.9247075,2.4162825 7.9851977,2.4131109 c 1.0604902,-0.00318 2.0939273,0.3346032 2.9478243,0.9634975 0.853897,0.6289021 1.482956,1.5156062 1.794542,2.5292996 0.311586,1.0136935 0.289055,2.1006869 -0.0643,3.1005635 -0.353271,0.9999155 -1.0186,1.8598575 -1.897775,2.4528045 -0.323518,0.218165 -0.408932,0.657321 -0.190688,0.980839 0.218165,0.323519 0.657321,0.408853 0.98076,0.190688 1.13047,-0.76236 1.985858,-1.867943 2.440087,-3.1535381 0.454229,-1.2856106 0.483197,-2.6831691 0.08267,-3.9864904 -0.40061,-1.3033212 -1.209445,-2.4433761 -2.307335,-3.25196 z m -3.9264581,5.121301 c 0,-0.086709 0.070301,-0.1570096 0.1570097,-0.1570096 0.086716,0 0.1570096,0.070301 0.1570096,0.1570096 0,0.086716 -0.070293,0.1570097 -0.1570096,0.1570097 -0.086709,0 -0.1570097,-0.070293 -0.1570097,-0.1570097 z M 8.0015346,6.2610481 c -0.6069993,0 -1.0990675,0.4920682 -1.0990675,1.0990674 0,0.6069993 0.4920682,1.0990989 1.0990675,1.0990989 0.6070385,0 1.0991067,-0.4920996 1.0991067,-1.0990989 0,-0.6069992 -0.4920682,-1.0990674 -1.0991067,-1.0990674 z M 7.9045811,3.5097604 C 8.6202703,3.4918064 9.3267352,3.6739061 9.9444896,4.03557 10.562323,4.3972417 11.066951,4.9241346 11.401618,5.5569698 11.736284,6.1897971 11.887719,6.9034687 11.838889,7.6176742 11.790059,8.3318796 11.542848,9.0183257 11.125202,9.5997324 10.897538,9.9165779 10.456027,9.9889593 10.139103,9.7612953 9.8222576,9.5336314 9.7498762,9.0921203 9.9775401,8.7751963 10.241787,8.4074013 10.398169,7.9731361 10.4291,7.5212859 10.459952,7.0694436 10.364176,6.6179388 10.152449,6.2175722 9.9407214,5.8172133 9.6214423,5.483874 9.2305668,5.255056 8.8397698,5.0262458 8.3927634,4.91104 7.9400261,4.9224075 7.4872652,4.9337672 7.0466648,5.0712448 6.667777,5.319375 6.288897,5.5674973 5.9867634,5.9164277 5.7953844,6.3269137 5.6040053,6.7373918 5.5309644,7.1931279 5.5844812,7.6428585 5.6379979,8.092589 5.8159448,8.5184856 6.0983109,8.8725423 6.3415973,9.1776905 6.2914877,9.6221848 5.9863944,9.8654712 5.681309,10.108758 5.2367676,10.058672 4.9934812,9.7536019 4.5471656,9.1938625 4.2658828,8.5206837 4.1812939,7.8098382 4.0967049,7.0989771 4.2121541,6.3786091 4.5146568,5.7297903 4.8171672,5.0809637 5.2947199,4.5294281 5.8936017,4.1372259 6.4924836,3.7450237 7.1889234,3.5277223 7.9045811,3.5097604 Z m -1.1607094,7.7233436 6.202e-4,0.0041 0.3195617,2.876024 c 0.012796,0.230019 0.1098125,0.448027 0.27355,0.611788 C 7.5136821,14.901006 7.7525016,15 8.0015189,15 8.250544,15 8.4893243,14.90101 8.6654106,14.724998 8.8291717,14.561237 8.9262036,14.343308 8.9389999,14.113367 L 9.2614977,11.217089 C 9.2855987,11.041238 9.2727239,10.862247 9.2235014,10.691656 9.1727872,10.515805 9.0847048,10.352986 8.965299,10.214347 8.8459717,10.075629 8.6979901,9.9643873 8.5317169,9.8880806 8.3653652,9.8117739 8.1845136,9.772286 8.0015189,9.772286 c -0.1829869,0 -0.3638227,0.039488 -0.5301666,0.1157946 -0.166336,0.076307 -0.3142469,0.1875484 -0.4336371,0.3262664 -0.1193979,0.138639 -0.2074568,0.301458 -0.2581631,0.477309 -0.050714,0.175851 -0.062882,0.360494 -0.03568,0.541448 z"
     fill="url(#paint0_linear)"
     id="path1"
     style="fill:url(#paint0_linear);stroke-width:0.0785048" />
  <defs
     id="defs2">
    <linearGradient
       id="paint0_linear"
       x1="96"
       y1="182.333"
       x2="96"
       y2="10"
       gradientUnits="userSpaceOnUse"
       gradientTransform="matrix(0.07850482,0,0,0.07850482,0.46354109,0.45046674)">
      <stop
         stop-color="#8200E7"
         id="stop1" />
      <stop
         offset="1"
         stop-color="#FF81FF"
         id="stop2" />
    </linearGradient>
  </defs>
</svg>
