<?xml version="1.0" encoding="UTF-8" standalone="no"?>
<svg
   width="16"
   height="16"
   viewBox="0 0 16 16"
   fill="none"
   version="1.1"
   id="svg10"
   sodipodi:docname="folder-torrent.svg"
   inkscape:version="1.4.2 (ebf0e940d0, 2025-05-08)"
   xmlns:inkscape="http://www.inkscape.org/namespaces/inkscape"
   xmlns:sodipodi="http://sodipodi.sourceforge.net/DTD/sodipodi-0.dtd"
   xmlns="http://www.w3.org/2000/svg"
   xmlns:svg="http://www.w3.org/2000/svg">
  <sodipodi:namedview
     id="namedview10"
     pagecolor="#505050"
     bordercolor="#ffffff"
     borderopacity="1"
     inkscape:showpageshadow="0"
     inkscape:pageopacity="0"
     inkscape:pagecheckerboard="1"
     inkscape:deskcolor="#d1d1d1"
     inkscape:zoom="13.265625"
     inkscape:cx="32"
     inkscape:cy="32"
     inkscape:current-layer="svg10" />
  <path
     fill-rule="evenodd"
     clip-rule="evenodd"
     d="m 12.644684,3.0967951 c -1.462597,-1.418435 -3.5978187,-2.082199 -5.6094397,-1.783858 -1.369915,0.195951 -2.678042,0.823525 -3.676382,1.783858 -0.214497,0.19683 -0.178293,0.577263 0.05385,0.745853 0.213604,0.170353 0.533141,0.110326 0.709673,-0.08474 1.033651,-0.954148 2.428281,-1.504933 3.83527,-1.505816 1.398154,-0.01854 2.7963317,0.498714 3.8387687,1.431694 0.156233,0.142982 0.341622,0.3045 0.57287,0.250653 0.380433,-0.04236 0.557833,-0.579025 0.275392,-0.837643 z m -7.1612437,0.905634 c -0.219783,-0.01147 -0.444007,0.12797 -0.50401,0.345122 -0.113005,0.289512 0.126208,0.639075 0.432519,0.65317 0.321034,0.01405 0.64255,0.01108 0.963922,0.0081 0.325403,-0.003 0.650708,-0.006 0.975314,0.0087 0.112933,0.06029 0.111123,0.177665 0.109385,0.289391 -4.83e-4,0.03061 -9.41e-4,0.0608 9.41e-4,0.08928 -0.0024,0.87013 -0.0022,1.740018 -0.0019,2.609906 2.17e-4,0.696398 4.34e-4,1.39282 -7.48e-4,2.0893869 -0.104413,0.0019 -0.208826,4.83e-4 -0.31319,-8.93e-4 -0.194754,-0.0026 -0.389387,-0.0051 -0.583634,0.01325 -0.132387,0.05737 -0.05206,0.211842 -8.45e-4,0.297453 0.174166,0.312248 0.346932,0.625462 0.519746,0.938748 0.23704,0.429695 0.474153,0.859558 0.715104,1.287322 0.06355,0.158912 0.266558,0.15184 0.330133,-0.0035 0.22181,-0.375992 0.44029,-0.754131 0.658745,-1.13232 0.200571,-0.347173 0.401142,-0.694346 0.604344,-1.039926 0.0094,-0.02052 0.02254,-0.0432 0.03642,-0.0671 0.05414,-0.09316 0.118749,-0.204432 0.0077,-0.275392 -0.205591,-0.02542 -0.413016,-0.02189 -0.620393,-0.01839 -0.116674,0.002 -0.233348,0.0039 -0.349659,7.48e-4 -0.0012,-0.6957939 -9.66e-4,-1.3916129 -7.49e-4,-2.0874319 2.66e-4,-0.870902 5.56e-4,-1.741828 -0.0019,-2.612754 0.0014,-0.02655 0.0011,-0.05435 7.72e-4,-0.08252 -0.0013,-0.112329 -0.0027,-0.230137 0.10603,-0.294363 0.347583,-0.01564 0.695674,-0.01296 1.043861,-0.01026 0.299963,0.0023 0.5999737,0.0046 0.8997917,-0.0048 0.295716,0.01147 0.542869,-0.28775 0.488128,-0.577262 -0.03618,-0.268345 -0.307179,-0.447507 -0.567559,-0.424554 -0.5070267,0 -1.0141497,-3.38e-4 -1.5213207,-6.76e-4 -1.142143,-7.48e-4 -2.284552,-0.0015 -3.426984,0.0015 z"
     fill="url(#paint0_linear_1012_841)"
     id="path1"
     style="fill:url(#paint0_linear_1012_841);stroke-width:0.241361" />
  <path
     d="m 7.0325093,1.3129271 0.03418,0.238933 0.0012,-1.83e-4 z m 5.6094397,1.783868 -0.168011,0.173273 0.0025,0.0024 0.0025,0.0023 z m -9.2858217,0 0.163208,0.177835 0.0021,-0.0019 0.0021,-0.002 z m 0.05385,0.745853 0.150488,-0.188695 -0.0042,-0.0034 -0.0044,-0.0032 z m 0.709673,-0.08474 -0.163715,-0.177352 -0.008,0.0074 -0.0073,0.008 z m 3.835269,-1.505826 1.45e-4,0.24138 0.003,-4.1e-5 z m 3.8387697,1.431704 0.162967,-0.178076 -0.002,-0.0018 z m 0.57287,0.250653 -0.02672,-0.239864 -0.01414,0.0016 -0.01388,0.0032 z m -7.3898617,0.413113 0.224852,0.08776 0.0045,-0.01154 0.0033,-0.01192 z m 0.50401,-0.345122 -0.01257,0.241047 0.0066,3.38e-4 0.0066,-2.4e-5 z m -0.07149,0.998292 -0.0111,0.241095 5.55e-4,2.4e-5 z m 1.939236,0.01677 0.113657,-0.212929 -0.0482,-0.02573 -0.05457,-0.0025 z m 0.110326,0.37867 0.241361,6.76e-4 2.4e-5,-0.0084 -5.55e-4,-0.0084 z m -0.0026,4.6992929 0.0043,0.241337 0.236678,-0.0042 4.1e-4,-0.236726 z m -0.896824,0.01236 -0.02274,-0.2402989 -0.03811,0.0036 -0.03512,0.01521 z m -8.45e-4,0.297453 0.21078,-0.117567 -0.0018,-0.0032 -0.0019,-0.0031 z m 1.234849,2.22607 0.224128,-0.08962 -0.006,-0.01487 -0.0079,-0.01395 z m 0.330134,-0.0035 -0.207884,-0.122659 -0.0089,0.01506 -0.0066,0.0162 z m 1.263088,-2.172246 0.208053,0.122345 0.0063,-0.01079 0.0052,-0.01139 z m 0.04414,-0.342491 0.129997,-0.2033709 -0.0461,-0.02945 -0.05428,-0.0067 z m -0.970053,-0.01764 -0.24136,4.11e-4 3.86e-4,0.234458 0.234361,0.0064 z m -0.0027,-4.7001859 -0.241023,-0.01289 -3.62e-4,0.0068 2.4e-5,0.0068 z m 0.106802,-0.376884 -0.01084,-0.24112 -0.06012,0.0027 -0.0518,0.0306 z m 1.9436527,-0.01501 0.0094,-0.241192 -0.0084,-3.13e-4 -0.0085,2.65e-4 z m 0.488128,-0.577262 -0.239188,0.03227 8.44e-4,0.0063 0.0012,0.0063 z m -0.56756,-0.424554 v 0.241361 h 0.0106 l 0.01057,-9.41e-4 z M 7.0678993,1.5516821 c 1.939212,-0.287601 3.9986947,0.353557 5.4060207,1.718391 l 0.336047,-0.346545 C 11.292073,1.4514731 9.0811373,0.76510212 6.9970843,1.0741831 Z m -3.544455,1.719067 c 0.961026,-0.924457 2.222257,-1.529932 3.543224,-1.718884 l -0.06835,-0.47786 c -1.418839,0.20295 -2.773887,0.852618 -3.809517,1.848847 z m 0.02836,0.376619 c -0.05098,-0.03702 -0.08918,-0.105233 -0.09565,-0.186282 -0.0064,-0.08035 0.02006,-0.146892 0.06316,-0.186451 l -0.326392,-0.355669 c -0.17139,0.157271 -0.234047,0.379371 -0.217973,0.580593 0.01603,0.200498 0.111992,0.406789 0.293181,0.538379 z m 0.388881,-0.05141 c -0.108951,0.12039 -0.285916,0.133231 -0.38024,0.058 l -0.300977,0.377391 c 0.332885,0.265497 0.794994,0.158284 1.03913,-0.111484 z m 4.014045,-1.585233 c -1.468173,9.22e-4 -2.921043,0.574938 -3.998815,1.569834 l 0.327429,0.354703 c 0.989507,-0.913405 2.325897,-1.440952 3.6717,-1.441797 z m 3.9999017,1.493202 C 10.866596,2.5301051 9.4096473,1.9914141 7.9517073,2.0107421 l 0.0064,0.482678 c 1.338418,-0.01774 2.6778007,0.478061 3.6746207,1.370203 z m 0.357166,0.195454 c -0.04221,0.0098 -0.08539,0.0036 -0.144551,-0.0285 -0.06531,-0.0355 -0.130576,-0.09191 -0.210611,-0.165163 l -0.32591,0.356103 c 0.0762,0.06975 0.181721,0.165622 0.305973,0.233155 0.130383,0.07089 0.295522,0.118556 0.484556,0.07456 z m 0.167142,-0.424578 c 0.0546,0.04999 0.07929,0.141244 0.04465,0.246381 -0.03468,0.105233 -0.109409,0.165115 -0.183772,0.173394 l 0.05341,0.479752 c 0.30607,-0.03408 0.510285,-0.263735 0.588824,-0.502078 0.07856,-0.238441 0.05073,-0.544824 -0.177111,-0.753456 z m -7.2696147,1.13705 c 0.02583,-0.09348 0.13632,-0.174769 0.258787,-0.168373 l 0.02517,-0.48207 c -0.317124,-0.01656 -0.655077,0.181045 -0.749256,0.52187 z m 0.210973,0.347753 c -0.06314,-0.0029 -0.134607,-0.04267 -0.184086,-0.116529 -0.04914,-0.07335 -0.05701,-0.150609 -0.03468,-0.207763 l -0.449679,-0.175518 c -0.0907,0.232358 -0.03546,0.474636 0.08332,0.651964 0.11846,0.17682 0.319755,0.318861 0.562926,0.33006 z m 0.950599,0.0079 c -0.322458,0.003 -0.637554,0.0058 -0.951154,-0.0079 l -0.02109,0.482262 c 0.328492,0.01439 0.656381,0.0113 0.97669,0.0084 z m 0.988421,0.0089 c -0.332257,-0.01499 -0.664128,-0.01187 -0.988421,-0.0089 l 0.0044,0.482698 c 0.326513,-0.003 0.64523,-0.0059 0.962209,0.0084 z m 0.339836,0.534252 c 7.48e-4,-0.0481 0.0038,-0.140423 -0.01967,-0.229437 -0.02752,-0.104003 -0.09186,-0.209622 -0.217394,-0.276624 l -0.227313,0.425857 c -0.002,-0.0011 -0.0089,-0.0056 -0.01547,-0.01458 -0.006,-0.0081 -0.0071,-0.01364 -0.0065,-0.01125 8.69e-4,0.0033 0.0026,0.01212 0.0035,0.03017 9.17e-4,0.01858 6.76e-4,0.03903 2.17e-4,0.06835 z m 4.34e-4,0.06946 c -0.0011,-0.01677 -9.41e-4,-0.03673 -4.34e-4,-0.06946 l -0.482674,-0.0075 c -4.34e-4,0.02851 -0.0012,0.06893 0.0015,0.109095 z m -0.0014,2.625908 c -2.89e-4,-0.869961 -5.55e-4,-1.739463 0.0019,-2.609158 l -0.482672,-0.0014 c -0.0024,0.870564 -0.0022,1.740814 -0.0019,2.610654 z m -7.48e-4,2.0898699 c 0.0012,-0.6968569 9.66e-4,-1.3935199 7.48e-4,-2.0898699 l -0.482721,1.45e-4 c 2.17e-4,0.696446 4.34e-4,1.392603 -7.48e-4,2.0889039 z m -0.557736,0.240033 c 0.103761,0.0014 0.21189,0.0028 0.320648,8.93e-4 l -0.0085,-0.4826489 c -0.100068,0.0018 -0.200739,4.59e-4 -0.305731,-9.17e-4 z m -0.557712,0.01219 c 0.179186,-0.01694 0.36081,-0.0148 0.557712,-0.01219 l 0.0064,-0.4826729 c -0.192606,-0.0025 -0.400225,-0.0055 -0.609557,0.01429 z m 0.183555,-0.06669 c -0.01098,-0.01837 -0.02066,-0.0357 -0.02812,-0.05185 -0.0036,-0.0079 -0.0062,-0.01424 -0.0078,-0.01914 -0.0017,-0.005 -0.002,-0.007 -0.0019,-0.0063 1.21e-4,6.52e-4 0.0011,0.0063 4.83e-4,0.01588 -6.52e-4,0.0099 -0.0031,0.02479 -0.01043,0.0419 -0.0076,0.01769 -0.0188,0.03365 -0.03217,0.04639 -0.01296,0.01236 -0.02457,0.01846 -0.03034,0.02095 L 6.4633163,9.8863381 c -0.08119,0.03519 -0.150923,0.09645 -0.188889,0.1846399 -0.03522,0.0818 -0.03196,0.16094 -0.02213,0.216767 0.01846,0.104943 0.07369,0.199098 0.09898,0.241384 z m 0.523945,0.946013 c -0.172766,-0.31319 -0.345797,-0.626886 -0.520301,-0.939714 l -0.421585,0.235158 c 0.173852,0.311669 0.346353,0.624376 0.519215,0.937735 z m 0.714066,1.285487 c -0.240323,-0.426701 -0.476929,-0.855624 -0.714066,-1.285487 l -0.422671,0.233179 c 0.236944,0.429549 0.474588,0.86033 0.716142,1.289204 z m -0.103544,0.02353 c 0.0041,-0.01006 0.02247,-0.02971 0.05351,-0.03032 0.01429,-2.9e-4 0.02954,0.0037 0.04282,0.01257 0.014,0.0093 0.01977,0.01984 0.02105,0.02303 l -0.448231,0.179234 c 0.06886,0.172187 0.2263,0.271121 0.393949,0.26779 0.164342,-0.0033 0.315989,-0.104099 0.383667,-0.269504 z m 0.673155,-1.161645 c -0.218576,0.378333 -0.436501,0.755531 -0.657659,1.130389 l 0.415768,0.245294 c 0.222462,-0.377102 0.441472,-0.756207 0.659856,-1.134226 z m 0.605261,-1.041544 c -0.203757,0.346497 -0.404787,0.694515 -0.605261,1.041544 l 0.417965,0.241457 c 0.200643,-0.347294 0.400755,-0.693671 0.603401,-1.03831 z m 0.03577,-0.06599 c -0.01212,0.0209 -0.032,0.05464 -0.04731,0.08817 l 0.439205,0.200329 c 0.0034,-0.0075 0.0099,-0.01914 0.02551,-0.04603 z m 0.08646,0.04921 c -0.0066,-0.0042 -0.02771,-0.02078 -0.04101,-0.05419 -0.01262,-0.03171 -0.0096,-0.05691 -0.0082,-0.0642 10e-4,-0.0056 0.0013,-0.0025 -0.0061,0.01284 -0.0073,0.01508 -0.01678,0.03164 -0.03114,0.05633 l 0.417409,0.242471 c 0.02093,-0.03601 0.0761,-0.125363 0.09435,-0.222873 0.0104,-0.05561 0.01219,-0.127752 -0.01786,-0.203201 -0.0307,-0.07712 -0.08537,-0.1342209 -0.147472,-0.1739249 z m -0.486342,0.01955 c 0.210249,-0.0035 0.400683,-0.0064 0.586723,0.01663 l 0.05921,-0.4790759 c -0.225189,-0.02783 -0.449582,-0.02365 -0.654087,-0.0202 z m -0.360352,7.24e-4 c 0.122563,0.0033 0.244571,0.0012 0.360352,-7.24e-4 l -0.0082,-0.4826489 c -0.117567,0.002 -0.228907,0.0038 -0.338991,8.2e-4 z M 8.2184713,8.0079711 c -2.18e-4,0.69577 -4.35e-4,1.39183 7.48e-4,2.0879149 l 0.482697,-8.21e-4 c -0.0012,-0.6955049 -9.41e-4,-1.3910819 -7.24e-4,-2.0869249 z m -0.0019,-2.612006 c 0.0025,0.870492 0.0022,1.741032 0.0019,2.612006 l 0.482721,1.69e-4 c 2.65e-4,-0.870854 5.55e-4,-1.742166 -0.0019,-2.613526 z m 7.96e-4,-0.08042 c 3.38e-4,0.02976 4.59e-4,0.04955 -4.58e-4,0.06686 l 0.482045,0.02578 c 0.0019,-0.03577 0.0014,-0.07161 0.0011,-0.09819 z m 0.224611,-0.504951 c -0.120198,0.07103 -0.179814,0.176652 -0.205447,0.277541 -0.02228,0.08778 -0.01974,0.178438 -0.01916,0.22741 l 0.482673,-0.0056 c -3.37e-4,-0.0294 -5.06e-4,-0.05035 4.59e-4,-0.06954 9.41e-4,-0.01868 0.0027,-0.0287 0.0039,-0.0335 0.001,-0.004 6.76e-4,-3.62e-4 -0.0039,0.0063 -0.0052,0.0075 -0.01089,0.01178 -0.01296,0.01299 z m 1.168499,-0.04381 c -0.347125,-0.0027 -0.701587,-0.0055 -1.05658,0.0105 l 0.0217,0.482239 c 0.340174,-0.01533 0.681892,-0.01272 1.031141,-0.01004 z m 0.8903557,-0.0046 c -0.29434,0.0092 -0.5896197,0.007 -0.8903557,0.0046 l -0.0037,0.482697 c 0.299167,0.0023 0.6038847,0.0047 0.9092297,-0.0049 z m 0.258521,-0.291178 c 0.02723,0.143924 -0.107743,0.296416 -0.241602,0.291226 l -0.01873,0.48236 c 0.457548,0.01776 0.81691,-0.42815 0.734654,-0.863275 z m -0.309231,-0.228978 c 0.154857,-0.01364 0.291177,0.09751 0.307204,0.216404 l 0.478401,-0.06454 c -0.05636,-0.417772 -0.462037,-0.664949 -0.827964,-0.632727 z m -1.5426567,2.65e-4 c 0.507171,3.38e-4 1.014366,6.76e-4 1.5214887,6.76e-4 v -0.482722 c -0.5069537,0 -1.0139797,-3.37e-4 -1.5211747,-6.75e-4 z m -3.426164,0.0015 c 1.14195,-0.0031 2.283973,-0.0023 3.426164,-0.0015 l 3.14e-4,-0.482721 c -1.142047,-7.49e-4 -2.28489,-0.0015 -3.427781,0.0015 z"
     fill="url(#paint1_linear_1012_841)"
     id="path2"
     style="fill:url(#paint1_linear_1012_841);stroke-width:0.241361" />
  <path
     d="m 1.7424423,5.7227521 c 0.324826,-0.244523 0.851787,0.05559 0.779407,0.462519 -0.09268,0.41572 -0.218023,0.825261 -0.247151,1.252493 -0.139463,1.393714 0.247151,2.8351199 1.083046,3.9613809 0.876502,1.202194 2.234059,2.042491 3.705515,2.277287 1.421107,0.238319 2.930481,-0.07856 4.1247567,-0.887966 1.241922,-0.822654 2.136984,-2.145745 2.437961,-3.6047949 0.21008,-0.961219 0.144768,-1.969214 -0.132387,-2.910158 -0.101516,-0.29656 0.145638,-0.63992 0.459865,-0.635503 0.239213,-0.0203 0.460758,0.161518 0.512843,0.391897 0.477532,1.555256 0.365445,3.282627 -0.308941,4.7619749 -0.622301,1.376069 -1.719478,2.528832 -3.062916,3.218207 -1.1218687,0.580786 -2.4114827,0.833201 -3.6701787,0.721113 -1.719454,-0.133279 -3.362131,-0.977125 -4.495512,-2.272845 -1.434342,-1.603794 -2.01161596,-3.9146299 -1.507604,-6.0056339 0.07679,-0.250701 0.08915,-0.564929 0.321296,-0.729971 z"
     fill="url(#paint2_linear_1012_841)"
     stroke="url(#paint3_linear_1012_841)"
     stroke-width="0.482721"
     id="path3"
     style="fill:url(#paint2_linear_1012_841);stroke:url(#paint3_linear_1012_841)" />
  <defs
     id="defs10">
    <linearGradient
       id="paint0_linear_1012_841"
       x1="31.9884"
       y1="51.666"
       x2="31.9884"
       y2="4"
       gradientUnits="userSpaceOnUse"
       gradientTransform="matrix(0.24136071,0,0,0.24136071,0.27926934,0.27731612)">
      <stop
         stop-color="#A93AFF"
         id="stop3" />
      <stop
         offset="1"
         stop-color="#FF81FF"
         id="stop4" />
    </linearGradient>
    <linearGradient
       id="paint1_linear_1012_841"
       x1="31.9877"
       y1="52.666"
       x2="31.9877"
       y2="3"
       gradientUnits="userSpaceOnUse"
       gradientTransform="matrix(0.24136071,0,0,0.24136071,0.27655834,0.27731612)">
      <stop
         stop-color="#A93AFF"
         id="stop5" />
      <stop
         offset="1"
         stop-color="#FF81FF"
         id="stop6" />
    </linearGradient>
    <linearGradient
       id="paint2_linear_1012_841"
       x1="32"
       y1="59.9926"
       x2="32"
       y2="22.1963"
       gradientUnits="userSpaceOnUse"
       gradientTransform="matrix(0.24136071,0,0,0.24136071,0.27655834,0.27731612)">
      <stop
         stop-color="#A93AFF"
         id="stop7" />
      <stop
         offset="1"
         stop-color="#FF81FF"
         id="stop8" />
    </linearGradient>
    <linearGradient
       id="paint3_linear_1012_841"
       x1="32"
       y1="59.9927"
       x2="32"
       y2="22.1964"
       gradientUnits="userSpaceOnUse"
       gradientTransform="matrix(0.24136071,0,0,0.24136071,0.27655834,0.27731612)">
      <stop
         stop-color="#A93AFF"
         id="stop9" />
      <stop
         offset="1"
         stop-color="#FF81FF"
         id="stop10" />
    </linearGradient>
  </defs>
</svg>
