<?xml version="1.0" encoding="UTF-8" standalone="no"?>
<svg
   width="16"
   height="16"
   viewBox="0 0 16 16"
   fill="none"
   version="1.1"
   id="svg4"
   sodipodi:docname="folder-presentation_view-presentation-alt.svg"
   inkscape:version="1.4.2 (ebf0e940d0, 2025-05-08)"
   xmlns:inkscape="http://www.inkscape.org/namespaces/inkscape"
   xmlns:sodipodi="http://sodipodi.sourceforge.net/DTD/sodipodi-0.dtd"
   xmlns="http://www.w3.org/2000/svg"
   xmlns:svg="http://www.w3.org/2000/svg">
  <sodipodi:namedview
     id="namedview4"
     pagecolor="#505050"
     bordercolor="#ffffff"
     borderopacity="1"
     inkscape:showpageshadow="0"
     inkscape:pageopacity="0"
     inkscape:pagecheckerboard="1"
     inkscape:deskcolor="#d1d1d1"
     inkscape:zoom="53.0625"
     inkscape:cx="8"
     inkscape:cy="8"
     inkscape:window-width="1920"
     inkscape:window-height="1048"
     inkscape:window-x="0"
     inkscape:window-y="0"
     inkscape:window-maximized="1"
     inkscape:current-layer="svg4" />
  <path
     d="m 1.6964735,1.2115868 c -0.2677914,0 -0.4848867,0.2170953 -0.4848867,0.4848867 V 10.90932 c 0,0.267728 0.2170953,0.484887 0.4848867,0.484887 h 3.5558379 c 0.2677914,0 0.4848867,0.217159 0.4848867,0.484886 v 1.293008 c 0,0.267869 -0.2170953,0.484887 -0.4848867,0.484887 H 5.0906802 c -0.2677915,0 -0.4848867,0.217088 -0.4848867,0.484886 v 0.161653 c 0,0.267728 0.2170952,0.484886 0.4848867,0.484886 H 10.90932 c 0.267728,0 0.484887,-0.217158 0.484887,-0.484886 v -0.161653 c 0,-0.267798 -0.217159,-0.484886 -0.484887,-0.484886 h -0.161653 c -0.267798,0 -0.484886,-0.217018 -0.484886,-0.484887 v -1.293008 c 0,-0.267727 0.217088,-0.484886 0.484886,-0.484886 h 3.55586 c 0.267728,0 0.484886,-0.217159 0.484886,-0.484887 V 1.6964735 c 0,-0.2677914 -0.217158,-0.4848867 -0.484886,-0.4848867 z m 0.6465179,1.6162913 c 0,-0.2677985 0.2170882,-0.4848867 0.4848867,-0.4848867 H 13.172101 c 0.267869,0 0.484887,0.2170882 0.484887,0.4848867 v 6.9500161 c 0,0.2678688 -0.217018,0.4848868 -0.484887,0.4848868 H 2.8278781 c -0.2677985,0 -0.4848867,-0.217018 -0.4848867,-0.4848868 z M 7.6639292,4.1371426 C 7.3481012,3.8739637 6.8685956,4.0985421 6.8685956,4.5096413 v 3.5864899 c 0,0.411113 0.4795056,0.635678 0.7953336,0.372534 l 2.15191,-1.7932696 c 0.2326038,-0.1938559 0.2326038,-0.5511416 0,-0.7449975 z M 6.8685956,11.879093 c 0,-0.267727 0.2170956,-0.484886 0.4848656,-0.484886 h 1.293078 c 0.267798,0 0.484887,0.217159 0.484887,0.484886 v 1.293008 c 0,0.267869 -0.217089,0.484887 -0.484887,0.484887 h -1.293078 c -0.26777,0 -0.4848656,-0.217018 -0.4848656,-0.484887 z"
     fill="url(#paint0_linear_451_2239)"
     stroke="url(#paint1_linear_451_2239)"
     stroke-width="0.423174"
     id="path1"
     style="fill:url(#paint0_linear_451_2239);stroke:url(#paint1_linear_451_2239)" />
  <defs
     id="defs4">
    <linearGradient
       id="paint0_linear_451_2239"
       x1="4.86406"
       y1="18.3524"
       x2="22.223"
       y2="3.20644"
       gradientUnits="userSpaceOnUse"
       gradientTransform="matrix(0.70528967,0,0,0.70528967,0.2418135,0.2418135)">
      <stop
         stop-color="#FE0844"
         id="stop1" />
      <stop
         offset="1"
         stop-color="#FEB302"
         id="stop2" />
    </linearGradient>
    <linearGradient
       id="paint1_linear_451_2239"
       x1="4.86406"
       y1="18.3524"
       x2="22.223"
       y2="3.20644"
       gradientUnits="userSpaceOnUse"
       gradientTransform="matrix(0.70528967,0,0,0.70528967,0.2418135,0.2418135)">
      <stop
         stop-color="#FE0844"
         id="stop3" />
      <stop
         offset="1"
         stop-color="#FEB302"
         id="stop4" />
    </linearGradient>
  </defs>
</svg>
