<?xml version="1.0" encoding="UTF-8" standalone="no"?>
<!-- Created with Inkscape (http://www.inkscape.org/) -->

<svg
   width="16"
   height="16"
   viewBox="0 0 4.2333333 4.2333333"
   version="1.1"
   id="svg1"
   inkscape:version="1.4.2 (ebf0e940d0, 2025-05-08)"
   sodipodi:docname="folder-debug_alt1.svg"
   xmlns:inkscape="http://www.inkscape.org/namespaces/inkscape"
   xmlns:sodipodi="http://sodipodi.sourceforge.net/DTD/sodipodi-0.dtd"
   xmlns="http://www.w3.org/2000/svg"
   xmlns:svg="http://www.w3.org/2000/svg">
  <sodipodi:namedview
     pagecolor="#505050"
     bordercolor="#ffffff"
     inkscape:deskcolor="#d1d1d1"
     inkscape:pagecheckerboard="1"
     inkscape:zoom="53.0625"
     inkscape:cx="8"
     inkscape:cy="8"
     inkscape:current-layer="svg1"
     id="namedview1"
     borderopacity="1"
     inkscape:showpageshadow="0"
     inkscape:pageopacity="0" />
  <defs
     id="defs1">
    <linearGradient
       id="linearGradient1"
       x1="2.1330826"
       y1="0.3992953"
       x2="2.1330826"
       y2="3.833257"
       gradientUnits="userSpaceOnUse">
      <stop
         stop-color="#9000FF"
         id="stop375-9"
         offset="0"
         style="stop-color:#dc3282;stop-opacity:1;" />
      <stop
         offset="1"
         stop-color="#FF37FF"
         id="stop376-7"
         style="stop-color:#fe7970;stop-opacity:1;" />
    </linearGradient>
    <linearGradient
       id="linearGradient2"
       x1="2.1330826"
       y1="0.3992953"
       x2="2.1330826"
       y2="3.8332567"
       gradientUnits="userSpaceOnUse">
      <stop
         stop-color="#9000FF"
         id="stop353"
         offset="0"
         style="stop-color:#b4044b;stop-opacity:1;" />
      <stop
         offset="1"
         stop-color="#FF37FF"
         id="stop354"
         style="stop-color:#d63989;stop-opacity:1;" />
    </linearGradient>
  </defs>
  <g
     id="g1">
    <path
       id="path1"
       style="fill:none;fill-rule:evenodd;stroke:url(#linearGradient1);stroke-width:0.215749;stroke-linecap:round;stroke-linejoin:round"
       d="M 2.4004061,1.0349485 C 2.3968237,0.89698339 2.670642,0.52394732 2.9255108,0.50716979 M 1.8628992,1.0349485 C 1.8664802,0.89698339 1.5926633,0.52394732 1.3377946,0.50716979 M 1.2465717,2.9894712 0.89463017,3.2246546 0.77428818,3.7253821 M 1.1813251,2.4474835 0.7379729,2.453093 0.44588006,2.7082784 M 0.7953794,1.2321852 0.87841901,1.6598698 1.337819,1.9212858 M 2.1330931,0.95394003 c -0.307164,3.806e-5 -0.5561306,0.28791817 -0.5560547,0.64296577 6.6e-6,0.029957 0.00183,0.059879 0.00543,0.089544 -0.00477,0.00434 -0.00952,0.00874 -0.014222,0.01317 0.1637403,-0.1379349 0.3615843,-0.2125342 0.5648364,-0.2129754 0.201385,1.874e-4 0.3975795,0.073183 0.5606197,0.2085864 -0.00331,-0.00296 -0.00666,-0.00587 -0.010009,-0.00878 0.00362,-0.029665 0.00543,-0.059585 0.00543,-0.089544 V 1.5967301 C 2.6891391,1.2417514 2.4401974,0.95397877 2.1330931,0.95394003 Z m 0,0.53270297 c -0.203252,4.416e-4 -0.401096,0.075041 -0.5648337,0.2129757 -0.019051,0.016407 -0.037556,0.033627 -0.055483,0.05162 -0.014525,0.013682 -0.028693,0.027851 -0.04249,0.042489 -0.017807,0.02029 -0.03491,0.041377 -0.051269,0.063208 -0.011759,0.01445 -0.023179,0.029265 -0.034238,0.044422 -0.0044,0.00662 -0.00874,0.013288 -0.012994,0.020015 h 0.758496 0.1207977 c 0.1271416,-0.086465 0.2805928,-0.1371264 0.4456163,-0.1371264 0.032874,0 0.065257,0.00207 0.097095,0.00597 -0.02607,-0.028198 -0.053503,-0.054692 -0.082171,-0.079361 -0.00591,-0.00528 -0.011886,-0.010498 -0.01791,-0.015626 C 2.5306729,1.5598278 2.3344786,1.4868308 2.1330931,1.486643 Z m -0.00281,0.5356878 V 1.9213735 h -0.75851 c -0.01091,0.016974 -0.021391,0.034305 -0.031428,0.05197 -0.00999,0.016203 -0.019591,0.032713 -0.028794,0.049512 -0.013072,0.026104 -0.025194,0.052815 -0.036345,0.080063 -0.00751,0.016411 -0.01465,0.033038 -0.021422,0.049864 -0.011609,0.03231 -0.021864,0.065241 -0.030725,0.098675 -0.00401,0.01291 -0.00783,0.025904 -0.011412,0.03898 -0.00866,0.03742 -0.015569,0.07534 -0.020718,0.1135987 -0.00194,0.010269 -0.00376,0.020571 -0.00543,0.030899 -0.00581,0.048763 -0.00875,0.097917 -0.00878,0.1471342 2.97e-5,0.1922625 0.044235,0.3811304 0.1281718,0.547627 0.1052683,0.208869 0.2677692,0.3721106 0.4622964,0.4644029 0.077186,0.036654 0.1582315,0.061564 0.2410682,0.074094 0.040461,0.00607 0.081219,0.00919 0.1220265,0.00931 V 3.1347916 C 1.9894234,2.9913895 1.9023718,2.7949837 1.9023718,2.5785613 c 0,-0.2164272 0.087046,-0.4128273 0.2278999,-0.5562305 z m 0,1.1124608 v 0.5427106 c 9.515e-4,1.6e-6 0.00186,1.6e-6 0.00281,0 0.082255,-2.6e-6 0.1641637,-0.01216 0.2437018,-0.036169 h 1.756e-4 c 0.079523,-0.024054 0.1560023,-0.059758 0.2275488,-0.1062244 0.071566,-0.046449 0.1376015,-0.1032777 0.1964715,-0.169081 -0.034152,0.00453 -0.068916,0.00685 -0.1042932,0.00685 -0.221591,0 -0.4222022,-0.091258 -0.5664139,-0.2380836 z m 0.6708834,0.231236 h -7e-7 m 0.6683034,0.2660988 0.022414,0.093256 m 0.03631,-1.2722759 0.2920922,0.2551853 M 3.4707865,1.2321852 3.387747,1.6598698 3.0356041,1.8602522" />
    <path
       d="m 1.8231028,2.5798787 c 9.871e-4,0.4721514 0.3858657,0.8554249 0.8580178,0.8544378 0.210452,-4.399e-4 0.4029477,-0.077489 0.5519288,-0.2042059 l 0.1605317,0.1598615 -0.050343,0.050555 c -0.02781,0.027938 -0.027716,0.073088 2.109e-4,0.1008978 l 0.4516927,0.4498907 c 0.013402,0.013351 0.031538,0.020844 0.050518,0.020805 0.018917,-3.96e-5 0.037062,-0.0076 0.050387,-0.021015 L 4.0974144,3.7888903 c 0.013912,-0.013969 0.020844,-0.032245 0.020806,-0.050492 -3.82e-5,-0.018249 -0.00705,-0.036494 -0.021017,-0.050405 L 3.6455036,3.2380981 c -0.027935,-0.02781 -0.073098,-0.027704 -0.1008966,2.11e-4 L 3.4942695,3.2888646 3.3337378,3.129003 C 3.459788,2.9795034 3.5360006,2.7867172 3.5355607,2.5762986 3.5345736,2.1041424 3.1496952,1.7208713 2.6775409,1.7218584 2.2053888,1.7228455 1.8221163,2.1077226 1.8231028,2.5798787 Z M 3.9459725,3.7387542 3.8452988,3.839863 3.4946903,3.4906614 3.595376,3.3895527 Z M 3.3928549,2.576597 C 3.3936773,2.9700089 3.0742366,3.2907905 2.6808223,3.2916131 2.28741,3.2924355 1.9666286,2.9729924 1.9658061,2.5795804 1.9649836,2.1861768 2.2844266,1.8653891 2.6778389,1.8645667 3.0712531,1.8637441 3.3920324,2.1831934 3.3928549,2.576597 Z M 2.1085114,2.579277 C 2.1091695,2.894025 2.3657801,3.1495652 2.6805239,3.1489072 2.9952697,3.1482492 3.2508077,2.8916383 3.2501496,2.5768954 3.2494917,2.2621488 2.9928829,2.0066157 2.6781372,2.0072737 2.3633935,2.0079317 2.1078535,2.2645355 2.1085114,2.5792817 Z M 3.1074442,2.577198 C 3.1079378,2.8132688 2.9163005,3.0057091 2.6802255,3.0062026 2.4441505,3.0066962 2.2517103,2.8150588 2.2512167,2.5789837 2.2507231,2.3429086 2.4423604,2.1504743 2.6784355,2.1499808 2.9145105,2.1494872 3.1069508,2.3411185 3.1074442,2.5771937 Z"
       id="path2"
       style="fill:url(#linearGradient2);stroke:url(#linearGradient2);stroke-width:0.0840151" />
  </g>
</svg>
