<?xml version="1.0" encoding="UTF-8" standalone="no"?>
<svg
   width="16"
   height="16"
   viewBox="0 0 16 16"
   fill="none"
   version="2"
   id="svg1"
   sodipodi:docname="folder-list.svg"
   inkscape:version="1.4.2 (ebf0e940d0, 2025-05-08)"
   xml:space="preserve"
   xmlns:inkscape="http://www.inkscape.org/namespaces/inkscape"
   xmlns:sodipodi="http://sodipodi.sourceforge.net/DTD/sodipodi-0.dtd"
   xmlns="http://www.w3.org/2000/svg"
   xmlns:svg="http://www.w3.org/2000/svg"
   xmlns:rdf="http://www.w3.org/1999/02/22-rdf-syntax-ns#"
   xmlns:cc="http://creativecommons.org/ns#"
   xmlns:dc="http://purl.org/dc/elements/1.1/"><title
     id="title1">folder-</title><sodipodi:namedview
     id="namedview1"
     pagecolor="#3f4354"
     bordercolor="#000000"
     borderopacity="0.5"
     inkscape:showpageshadow="1"
     inkscape:pageopacity="0"
     inkscape:pagecheckerboard="1"
     inkscape:deskcolor="#2b2f40"
     showgrid="false"
     inkscape:zoom="32.045218"
     inkscape:cx="4.868121"
     inkscape:cy="11.624199"
     inkscape:window-width="1920"
     inkscape:window-height="1048"
     inkscape:window-x="0"
     inkscape:window-y="0"
     inkscape:window-maximized="1"
     inkscape:current-layer="g2" /><g
     id="g1"><g
       style="fill:none"
       id="g2"
       transform="matrix(0.65115676,0,0,0.65115676,0.34884269,0.22040235)"><path
         d="M 2.83385,2.72838 C 3.30022,2.26201 3.93276,2 4.59231,2 H 19.5134 c 0.6595,0 1.2921,0.26201 1.7584,0.72838 0.4664,0.46637 0.7284,1.09891 0.7284,1.75846 V 19.4079 c 0,0.6595 -0.262,1.2921 -0.7284,1.7585 -0.4663,0.4663 -1.0989,0.7283 -1.7584,0.7283 H 4.59231 c -0.65955,0 -1.29209,-0.262 -1.75846,-0.7283 C 2.36747,20.7 2.10547,20.0674 2.10547,19.4079 v -0.329 c 0,-0.2761 0.22386,-0.5 0.5,-0.5 h 0.65789 c 0.27615,0 0.5,0.2239 0.5,0.5 v 0.329 c 0,0.2198 0.08734,0.4307 0.2428,0.5862 0.15545,0.1554 0.3663,0.2427 0.58615,0.2427 H 19.5134 c 0.2198,0 0.4307,-0.0873 0.5861,-0.2427 0.1555,-0.1555 0.2428,-0.3664 0.2428,-0.5862 V 4.48684 c 0,-0.21985 -0.0873,-0.43069 -0.2428,-0.58615 -0.1554,-0.15546 -0.3663,-0.2428 -0.5861,-0.2428 H 4.59231 c -0.21985,0 -0.4307,0.08734 -0.58615,0.2428 -0.15546,0.15546 -0.2428,0.3663 -0.2428,0.58615 v 5.550079 c 0,0.27614 -0.22385,0.5 -0.5,0.5 H 2.60547 c -0.27614,0 -0.5,-0.22386 -0.5,-0.5 V 4.48684 c 0,-0.65955 0.262,-1.29209 0.72838,-1.75846 z M 2.5991388,12.932198 h 0.65789 c 0.256812,0 0.5,0.329338 0.5,0.58615 v 2.478622 c 0,0.27614 -0.22385,0.5 -0.5,0.5 h -0.65789 c -0.27614,0 -0.5,-0.22386 -0.5,-0.5 v -2.478622 c 0,-0.256812 0.2431879,-0.58615 0.5,-0.58615 z"
         fill="url(#paint0_linear)"
         stroke="url(#paint1_linear)"
         id="path1"
         style="fill:url(#paint0_linear-3);stroke:url(#paint0_linear-3)"
         sodipodi:nodetypes="csscssssscsssssscssssscsscsssssscsssssssss" /></g><g
       style="fill:none"
       id="g7"
       transform="matrix(0.43487084,0,0,0.43487084,3.5,3.2164208)"><path
         d="m 8.25,1.375 c -0.37969,0 -0.6875,0.30781 -0.6875,0.6875 v 0.22917 c 0,0.37969 0.30781,0.6875 0.6875,0.6875 h 2.5208 8.9375 c 0.3798,0 0.6875,-0.30781 0.6875,-0.6875 V 2.0625 c 0,-0.37969 -0.3077,-0.6875 -0.6875,-0.6875 h -8.9375 z m 0,3.20833 c -0.37969,0 -0.6875,0.30781 -0.6875,0.6875 V 5.5 c 0,0.37969 0.30781,0.6875 0.6875,0.6875 H 10.7708 16.5 c 0.3796,0 0.6875,-0.30781 0.6875,-0.6875 V 5.27083 c 0,-0.37969 -0.3079,-0.6875 -0.6875,-0.6875 H 10.7708 Z M 8.25,11 c -0.37969,0 -0.6875,0.3078 -0.6875,0.6875 v 0.2292 c 0,0.3797 0.30781,0.6875 0.6875,0.6875 h 2.5208 8.9375 c 0.3798,0 0.6875,-0.3078 0.6875,-0.6875 V 11.6875 C 20.3958,11.3078 20.0881,11 19.7083,11 h -8.9375 z m 0,3.2083 c -0.37969,0 -0.6875,0.3078 -0.6875,0.6875 v 0.2292 c 0,0.3796 0.30781,0.6875 0.6875,0.6875 h 2.5208 2.5209 c 0.3797,0 0.6875,-0.3079 0.6875,-0.6875 v -0.2292 c 0,-0.3797 -0.3078,-0.6875 -0.6875,-0.6875 h -2.5209 z m 8.0208,0 c -0.3797,0 -0.6875,0.3078 -0.6875,0.6875 v 0.2292 c 0,0.3796 0.3078,0.6875 0.6875,0.6875 h 2.3203 0.2006 0.9166 c 0.3798,0 0.6875,-0.3079 0.6875,-0.6875 v -0.2292 c 0,-0.3797 -0.3077,-0.6875 -0.6875,-0.6875 h -0.9166 -0.2006 z m 1.6042,4.8125 c -0.3796,0 -0.6875,0.3078 -0.6875,0.6875 v 0.2292 c 0,0.3796 0.3079,0.6875 0.6875,0.6875 h 1.8333 c 0.3798,0 0.6875,-0.3079 0.6875,-0.6875 v -0.2292 c 0,-0.3797 -0.3077,-0.6875 -0.6875,-0.6875 z"
         fill="url(#paint0_linear_451_2258)"
         stroke="url(#paint1_linear_451_2258)"
         stroke-width="0.6"
         id="path1-5"
         style="fill:url(#paint0_linear_451_2258);stroke:url(#paint0_linear_451_2258)" /><path
         d="M 0.805461,2.18046 C 1.32118,1.66474 2.02066,1.375 2.75001,1.375 3.47936,1.375 4.17882,1.66474 4.69454,2.18046 5.21029,2.69618 5.5,3.39566 5.5,4.12501 5.5,4.85436 5.21029,5.55382 4.69454,6.06954 4.17882,6.58529 3.47936,6.875 2.75001,6.875 2.02066,6.875 1.32118,6.58529 0.805461,6.06954 0.28974,5.55382 0,4.85436 0,4.12501 0,3.39566 0.28974,2.69618 0.805461,2.18046 Z"
         fill="url(#paint2_linear_451_2258)"
         id="path2-3"
         style="fill:url(#paint2_linear_451_2258)" /><path
         d="M 0.805471,11.8055 C 1.3212,11.2897 2.02069,11 2.75004,11 c 0.72937,0 1.42883,0.2897 1.94457,0.8055 0.51575,0.5157 0.80546,1.2152 0.80546,1.9445 0,0.7294 -0.28971,1.4289 -0.80546,1.9447 C 4.17887,16.2103 3.47941,16.5 2.75004,16.5 2.02069,16.5 1.3212,16.2103 0.805471,15.6947 0.289744,15.1789 0,14.4794 0,13.75 0,13.0207 0.289744,12.3212 0.805471,11.8055 Z"
         fill="url(#paint3_linear_451_2258)"
         id="path3-5"
         style="fill:url(#paint3_linear_451_2258)" /></g></g><defs
     id="defs1"><linearGradient
       id="paint0_linear"
       x1="94.083099"
       y1="102.397"
       x2="94.083099"
       y2="5"
       gradientUnits="userSpaceOnUse"
       gradientTransform="matrix(1.0455138,0,0,1.0223426,-7.6008048,-2.552391)"><stop
         stop-color="#FD2E00"
         id="stop14" /><stop
         offset="1"
         stop-color="#FF9900"
         id="stop16" /></linearGradient><linearGradient
       id="paint0_linear-3"
       x1="2.1083801"
       y1="11.6526"
       x2="22.0035"
       y2="11.6526"
       gradientUnits="userSpaceOnUse"><stop
         stop-color="#A93AFF"
         id="stop5" /><stop
         offset="1"
         stop-color="#FF81FF"
         id="stop6" /></linearGradient><linearGradient
       id="paint2_linear"
       x1="9.0686102"
       y1="16.9459"
       x2="9.0686102"
       y2="7"
       gradientUnits="userSpaceOnUse"><stop
         stop-color="#5570FF"
         id="stop9" /><stop
         offset="1"
         stop-color="#4DD3FF"
         id="stop10" /></linearGradient><linearGradient
       id="paint0_linear_451_2258"
       x1="7.5625"
       y1="20.625"
       x2="24.5546"
       y2="15.6875"
       gradientUnits="userSpaceOnUse"><stop
         stop-color="#0357D1"
         id="stop3" /><stop
         offset="1"
         stop-color="#27CDFC"
         id="stop4" /></linearGradient><linearGradient
       id="paint2_linear_451_2258"
       x1="1.17857"
       y1="20.2322"
       x2="3.07843"
       y2="3.67965"
       gradientUnits="userSpaceOnUse"><stop
         stop-color="#8D01A2"
         id="stop7" /><stop
         offset="1"
         stop-color="#FF00D2"
         id="stop8" /></linearGradient><linearGradient
       id="paint3_linear_451_2258"
       x1="1.17859"
       y1="13.3572"
       x2="3.07847"
       y2="-3.19556"
       gradientUnits="userSpaceOnUse"><stop
         stop-color="#8D01A2"
         id="stop9-9" /><stop
         offset="1"
         stop-color="#FF00D2"
         id="stop10-1" /></linearGradient></defs><metadata
     id="metadata1"><rdf:RDF><cc:Work
         rdf:about=""><dc:title>folder-</dc:title><dc:date>26-07-2025</dc:date><dc:description>Beautyline style * folder icon</dc:description><cc:license
           rdf:resource="http://creativecommons.org/licenses/by-nc-sa/4.0/" /></cc:Work><cc:License
         rdf:about="http://creativecommons.org/licenses/by-nc-sa/4.0/"><cc:permits
           rdf:resource="http://creativecommons.org/ns#Reproduction" /><cc:permits
           rdf:resource="http://creativecommons.org/ns#Distribution" /><cc:requires
           rdf:resource="http://creativecommons.org/ns#Notice" /><cc:requires
           rdf:resource="http://creativecommons.org/ns#Attribution" /><cc:prohibits
           rdf:resource="http://creativecommons.org/ns#CommercialUse" /><cc:permits
           rdf:resource="http://creativecommons.org/ns#DerivativeWorks" /><cc:requires
           rdf:resource="http://creativecommons.org/ns#ShareAlike" /></cc:License></rdf:RDF></metadata></svg>
