<?xml version="1.0" encoding="UTF-8" standalone="no"?>
<svg
   width="16"
   height="16"
   viewBox="0 0 16 16"
   fill="none"
   version="1.1"
   id="svg3291"
   sodipodi:docname="folder-backup.svg"
   inkscape:version="1.2.2 (b0a8486541, 2022-12-01)"
   xmlns:inkscape="http://www.inkscape.org/namespaces/inkscape"
   xmlns:sodipodi="http://sodipodi.sourceforge.net/DTD/sodipodi-0.dtd"
   xmlns="http://www.w3.org/2000/svg"
   xmlns:svg="http://www.w3.org/2000/svg">
  <sodipodi:namedview
     id="namedview3293"
     pagecolor="#505050"
     bordercolor="#ffffff"
     borderopacity="1"
     inkscape:showpageshadow="0"
     inkscape:pageopacity="0"
     inkscape:pagecheckerboard="1"
     inkscape:deskcolor="#505050"
     showgrid="false"
     inkscape:zoom="18.774639"
     inkscape:cx="7.4834994"
     inkscape:cy="8.2824495"
     inkscape:window-width="1920"
     inkscape:window-height="1052"
     inkscape:window-x="0"
     inkscape:window-y="28"
     inkscape:window-maximized="1"
     inkscape:current-layer="g3269" />
  <g
     clip-path="url(#clip0)"
     id="g3269">
    <g
       id="g11190"
       transform="matrix(0.67808878,0,0,0.67808878,-8.2758364,-9.8368267)">
      <path
         d="m 23.954953,15.391536 c -2.669443,0.0078 -5.243982,0.991082 -7.239039,2.764659 l -1.212281,-1.212266 c -0.127187,-0.127148 -0.289214,-0.213731 -0.4656,-0.248804 -0.176386,-0.03508 -0.35921,-0.01707 -0.525365,0.05175 -0.166151,0.06881 -0.308168,0.18535 -0.4081,0.33487 -0.09993,0.149516 -0.15329,0.325309 -0.153329,0.505148 v 4.170639 c 0,0.241178 0.09581,0.472495 0.266364,0.64305 0.170552,0.170555 0.401869,0.266356 0.643062,0.266356 h 4.170642 c 0.179831,-3.9e-5 0.355609,-0.05339 0.505156,-0.153328 0.149509,-0.09993 0.266045,-0.241919 0.334835,-0.40807 0.06883,-0.166189 0.08684,-0.348982 0.05176,-0.525383 -0.03508,-0.176402 -0.121641,-0.338421 -0.248778,-0.465597 l -1.032216,-1.032217 c 1.204525,-1.028981 2.681798,-1.686257 4.252572,-1.892162 1.570774,-0.205866 3.167545,0.04853 4.596566,0.732342 1.429022,0.683779 2.628909,1.767598 3.454051,3.119956 0.825141,1.352319 1.240109,2.915103 1.194547,4.498621 -0.0585,2.046115 -0.881577,3.996 -2.306818,5.465166 -1.425281,1.469205 -3.349325,2.351017 -5.392672,2.471566 -2.043386,0.12055 -4.057736,-0.52893 -5.645893,-1.820331 -1.588118,-1.291401 -2.634716,-3.131025 -2.933382,-5.156015 -0.04264,-0.329262 -0.203138,-0.631942 -0.451764,-0.851957 -0.248626,-0.220053 -0.568553,-0.342551 -0.900554,-0.344851 v 0 c -0.192647,-0.0025 -0.383609,0.03613 -0.560127,0.113339 -0.176518,0.07721 -0.334531,0.191212 -0.46348,0.334368 -0.128946,0.143156 -0.225865,0.312151 -0.284273,0.495763 -0.05841,0.183612 -0.07697,0.377552 -0.05444,0.56888 0.378514,2.679148 1.737358,5.122652 3.81358,6.857706 2.076242,1.735016 4.722261,2.638263 7.426041,2.534862 2.735311,-0.131774 5.323491,-1.277564 7.25989,-3.213963 1.9364,-1.9364 3.082189,-4.524579 3.213964,-7.25989 0.0564,-1.467919 -0.183845,-2.932097 -0.706345,-4.304995 -0.522462,-1.372935 -1.316462,-2.626375 -2.334453,-3.685406 -1.018029,-1.059004 -2.239157,-1.901844 -3.590384,-2.478103 -1.351228,-0.576258 -2.804765,-0.874094 -4.273736,-0.875704 z"
         fill="url(#paint0_linear_906_20)"
         id="path2"
         style="fill:url(#paint0_linear_906_20-7);stroke-width:0.389751" />
      <path
         d="m 23.500542,21.757143 c -0.361806,0 -0.708762,0.14374 -0.964595,0.399573 -0.255832,0.255793 -0.399572,0.602789 -0.399572,0.964555 v 3.904174 c 1.17e-4,0.482355 0.191835,0.944912 0.532946,1.285944 l 1.6306,1.630601 c 0.257275,0.248466 0.601854,0.38597 0.959528,0.382852 0.357675,-0.0031 0.699837,-0.146546 0.952746,-0.399494 0.252909,-0.25291 0.396377,-0.595033 0.399495,-0.952707 0.0032,-0.357675 -0.134386,-0.702254 -0.382891,-0.959567 L 24.86467,26.648946 v -3.527675 c 0,-0.361766 -0.14374,-0.708762 -0.399534,-0.964555 -0.255832,-0.255833 -0.602827,-0.399573 -0.964594,-0.399573 z"
         fill="url(#paint1_linear_906_20)"
         id="path4"
         style="fill:url(#paint1_linear_906_20-5);stroke-width:0.389751" />
    </g>
  </g>
  <defs
     id="defs3289">
    <linearGradient
       id="paint0_linear"
       x1="32"
       y1="59"
       x2="32"
       y2="5"
       gradientUnits="userSpaceOnUse"
       gradientTransform="matrix(0.74999965,0,0,0.74999965,-2.2560796e-8,1.908614e-5)">
      <stop
         stop-color="#FDA700"
         id="stop3271" />
      <stop
         offset="1"
         stop-color="#FFDE00"
         id="stop3273" />
    </linearGradient>
    <linearGradient
       id="paint1_linear"
       x1="32.0033"
       y1="48.837502"
       x2="32.0033"
       y2="21.307899"
       gradientUnits="userSpaceOnUse">
      <stop
         stop-color="#FDA700"
         id="stop3276" />
      <stop
         offset="1"
         stop-color="#FFDE00"
         id="stop3278" />
    </linearGradient>
    <linearGradient
       id="paint2_linear"
       x1="29.4149"
       y1="40.232201"
       x2="29.4149"
       y2="27.852501"
       gradientUnits="userSpaceOnUse">
      <stop
         stop-color="#FDA700"
         id="stop3281" />
      <stop
         offset="1"
         stop-color="#FFDE00"
         id="stop3283" />
    </linearGradient>
    <clipPath
       id="clip0">
      <rect
         width="64"
         height="64"
         fill="#ffffff"
         id="rect3286"
         x="0"
         y="0" />
    </clipPath>
    <linearGradient
       id="paint0_linear_906_20"
       x1="31.8778"
       y1="60"
       x2="31.8778"
       y2="4"
       gradientUnits="userSpaceOnUse">
      <stop
         stop-color="#FDA700"
         id="stop6" />
      <stop
         offset="1"
         stop-color="#FFDE00"
         id="stop8" />
    </linearGradient>
    <linearGradient
       id="paint1_linear_906_20"
       x1="32.8311"
       y1="42.315201"
       x2="32.8311"
       y2="20.3325"
       gradientUnits="userSpaceOnUse">
      <stop
         stop-color="#FDA700"
         id="stop11" />
      <stop
         offset="1"
         stop-color="#FFDE00"
         id="stop13" />
    </linearGradient>
    <linearGradient
       id="paint0_linear_906_20-7"
       x1="31.8778"
       y1="60"
       x2="31.8778"
       y2="4"
       gradientUnits="userSpaceOnUse"
       gradientTransform="matrix(0.38975091,0,0,0.38975091,11.578101,13.832533)">
      <stop
         stop-color="#FDA700"
         id="stop6-5" />
      <stop
         offset="1"
         stop-color="#FFDE00"
         id="stop8-3" />
    </linearGradient>
    <linearGradient
       id="paint1_linear_906_20-5"
       x1="32.8311"
       y1="42.315201"
       x2="32.8311"
       y2="20.3325"
       gradientUnits="userSpaceOnUse"
       gradientTransform="matrix(0.38975091,0,0,0.38975091,11.578101,13.832533)">
      <stop
         stop-color="#FDA700"
         id="stop11-6" />
      <stop
         offset="1"
         stop-color="#FFDE00"
         id="stop13-2" />
    </linearGradient>
  </defs>
</svg>
