<?xml version="1.0" encoding="UTF-8" standalone="no"?>
<svg
   width="16"
   height="16"
   viewBox="0 0 16 16"
   fill="none"
   version="1.1"
   id="svg11"
   sodipodi:docname="folder-electro_alt_altc.svg"
   inkscape:version="1.2.2 (b0a8486541, 2022-12-01)"
   xmlns:inkscape="http://www.inkscape.org/namespaces/inkscape"
   xmlns:sodipodi="http://sodipodi.sourceforge.net/DTD/sodipodi-0.dtd"
   xmlns="http://www.w3.org/2000/svg"
   xmlns:svg="http://www.w3.org/2000/svg">
  <sodipodi:namedview
     id="namedview13"
     pagecolor="#505050"
     bordercolor="#ffffff"
     borderopacity="1"
     inkscape:showpageshadow="0"
     inkscape:pageopacity="0"
     inkscape:pagecheckerboard="1"
     inkscape:deskcolor="#505050"
     showgrid="false"
     inkscape:zoom="36.234379"
     inkscape:cx="8.6934014"
     inkscape:cy="5.6162133"
     inkscape:window-width="1920"
     inkscape:window-height="1052"
     inkscape:window-x="0"
     inkscape:window-y="28"
     inkscape:window-maximized="1"
     inkscape:current-layer="svg11" />
  <path
     d="m 6.242187,10.197266 h 3.515625 c 0.242696,0 0.439454,-0.196758 0.439454,-0.439454 V 6.242187 c 0,-0.242695 -0.196758,-0.439453 -0.439454,-0.439453 H 6.242187 c -0.242695,0 -0.439453,0.196758 -0.439453,0.439453 v 3.515625 c 0,0.242696 0.196758,0.439454 0.439453,0.439454 z M 6.681641,6.681641 H 9.318359 V 9.318359 H 6.681641 Z m 6.621093,0.878906 h 1.757813 C 15.303242,7.560547 15.5,7.363789 15.5,7.121094 V 5.363281 c 0,-0.242695 -0.196758,-0.439453 -0.439453,-0.439453 h -1.757813 c -0.242695,0 -0.439453,0.196758 -0.439453,0.439453 V 5.802734 H 11.955078 V 4.484375 c 0,-0.242695 -0.196758,-0.439453 -0.439453,-0.439453 H 10.197266 V 3.136719 h 0.439453 c 0.242695,0 0.439453,-0.196758 0.439453,-0.439453 V 0.939453 C 11.076172,0.696758 10.879414,0.5 10.636719,0.5 H 8.878906 C 8.636211,0.5 8.439453,0.696758 8.439453,0.939453 v 1.757813 c 0,0.242695 0.196758,0.439453 0.439453,0.439453 H 9.318359 V 4.044922 H 6.681641 V 3.136719 h 0.439453 c 0.242695,0 0.439453,-0.196758 0.439453,-0.439453 V 0.939453 C 7.560547,0.696758 7.363789,0.5 7.121094,0.5 H 5.363281 C 5.120586,0.5 4.923828,0.696758 4.923828,0.939453 v 1.757813 c 0,0.242695 0.196758,0.439453 0.439453,0.439453 H 5.802734 V 4.044922 H 4.484375 c -0.242695,0 -0.439453,0.196758 -0.439453,0.439453 V 5.802734 H 3.136719 V 5.363281 c 0,-0.242695 -0.196758,-0.439453 -0.439453,-0.439453 H 0.939453 C 0.696758,4.923828 0.5,5.120586 0.5,5.363281 v 1.757813 c 0,0.242695 0.196758,0.439453 0.439453,0.439453 h 1.757813 c 0.242695,0 0.439453,-0.196758 0.439453,-0.439453 V 6.681641 H 4.044922 V 9.318359 H 3.136719 V 8.878906 c 0,-0.242695 -0.196758,-0.439453 -0.439453,-0.439453 H 0.939453 C 0.696758,8.439453 0.5,8.636211 0.5,8.878906 v 1.757813 c 0,0.242695 0.196758,0.439453 0.439453,0.439453 h 1.757813 c 0.242695,0 0.439453,-0.196758 0.439453,-0.439453 v -0.439453 h 0.908203 v 1.318359 c 0,0.242695 0.196758,0.439453 0.439453,0.439453 h 1.318359 v 0.908203 H 5.363281 c -0.242695,0 -0.439453,0.196758 -0.439453,0.439453 v 1.757813 c 0,0.242695 0.196758,0.439453 0.439453,0.439453 h 1.757813 c 0.242695,0 0.439453,-0.196758 0.439453,-0.439453 v -1.757813 c 0,-0.242695 -0.196758,-0.439453 -0.439453,-0.439453 H 6.681641 v -0.908203 h 2.636718 v 0.908203 H 8.878906 c -0.242695,0 -0.439453,0.196758 -0.439453,0.439453 v 1.757813 c 0,0.242695 0.196758,0.439453 0.439453,0.439453 h 1.757813 c 0.242695,0 0.439453,-0.196758 0.439453,-0.439453 v -1.757813 c 0,-0.242695 -0.196758,-0.439453 -0.439453,-0.439453 h -0.439453 v -0.908203 h 1.318359 c 0.242695,0 0.439453,-0.196758 0.439453,-0.439453 v -1.318359 h 0.908203 v 0.439453 c 0,0.242695 0.196758,0.439453 0.439453,0.439453 h 1.757813 c 0.242695,0 0.439453,-0.196758 0.439453,-0.439453 V 8.878906 c 0,-0.242695 -0.196758,-0.439453 -0.439453,-0.439453 h -1.757813 c -0.242695,0 -0.439453,0.196758 -0.439453,0.439453 V 9.318359 H 11.955078 V 6.681641 h 0.908203 v 0.439453 c 0,0.242695 0.196758,0.439453 0.439453,0.439453 z m 0.439453,-1.757813 h 0.878907 V 6.681641 H 13.742187 Z M 2.257812,6.681641 H 1.378906 V 5.802734 h 0.878906 z m 0,3.515625 H 1.378906 V 9.318359 h 0.878906 z m 7.060547,-8.81836 h 0.878907 V 2.257812 H 9.318359 Z m -3.515625,0 H 6.681641 V 2.257812 H 5.802734 Z M 6.681641,14.621094 H 5.802734 v -0.878907 h 0.878907 z m 3.515625,0 H 9.318359 v -0.878907 h 0.878907 z m 0.878906,-3.544922 H 4.923828 V 4.923828 h 6.152344 z m 2.666015,-1.757813 h 0.878907 v 0.878907 h -0.878907 z"
     fill="url(#paint0_linear)"
     id="path2"
     style="fill:url(#paint0_linear);stroke-width:0.117188" />
  <defs
     id="defs9">
    <linearGradient
       id="paint0_linear"
       x1="23.200001"
       y1="112.889"
       x2="138.625"
       y2="12.178"
       gradientUnits="userSpaceOnUse"
       gradientTransform="matrix(0.1171875,0,0,0.1171875,0.5,0.5)">
      <stop
         stop-color="#FE0844"
         id="stop4"
         offset="0"
         style="stop-color:#8d01a2;stop-opacity:1;" />
      <stop
         offset="1"
         stop-color="#FEB302"
         id="stop6"
         style="stop-color:#ff00d2;stop-opacity:1;" />
    </linearGradient>
  </defs>
</svg>
