<?xml version="1.0" encoding="UTF-8" standalone="no"?>
<svg
   width="16"
   height="16"
   viewBox="0 0 16 16"
   fill="none"
   version="1.1"
   id="svg5"
   sodipodi:docname="folder-presentation.svg"
   inkscape:version="1.4.2 (ebf0e940d0, 2025-05-08)"
   xmlns:inkscape="http://www.inkscape.org/namespaces/inkscape"
   xmlns:sodipodi="http://sodipodi.sourceforge.net/DTD/sodipodi-0.dtd"
   xmlns="http://www.w3.org/2000/svg"
   xmlns:svg="http://www.w3.org/2000/svg">
  <sodipodi:namedview
     id="namedview5"
     pagecolor="#505050"
     bordercolor="#ffffff"
     borderopacity="1"
     inkscape:showpageshadow="0"
     inkscape:pageopacity="0"
     inkscape:pagecheckerboard="1"
     inkscape:deskcolor="#d1d1d1"
     inkscape:zoom="53.0625"
     inkscape:cx="8"
     inkscape:cy="8"
     inkscape:window-width="1920"
     inkscape:window-height="1048"
     inkscape:window-x="0"
     inkscape:window-y="0"
     inkscape:window-maximized="1"
     inkscape:current-layer="svg5" />
  <path
     d="m 9.2044462,10.78996 h 0.7843347 c 0.1084301,0 0.1961111,-0.09047 0.1961111,-0.202303 V 8.1600239 c 0,-0.1118327 -0.08768,-0.2023028 -0.1961111,-0.2023028 H 9.2044462 c -0.1084303,0 -0.1961115,0.09047 -0.1961115,0.2023028 v 2.4276331 c 0,0.111833 0.087681,0.202303 0.1961115,0.202303 z M 11.17839,6.3392653 H 8.224 V 6.1234701 c 0,-0.1118215 -0.087737,-0.2023028 -0.1961116,-0.2023028 -0.1083745,0 -0.1961115,0.090481 -0.1961115,0.2023028 V 6.3392653 H 4.8773641 c -0.1083856,0 -0.1960892,0.09047 -0.1960892,0.2022805 v 0.8092669 c 0,0.1118327 0.087704,0.2023028 0.1960892,0.2023028 h 0.1960893 v 3.8572515 c 0,0.111832 0.087704,0.202302 0.1960948,0.202302 H 6.9715857 L 6.7101036,12.421936 H 6.4591633 c -0.1083856,0 -0.1960892,0.09047 -0.1960892,0.202303 0,0.111833 0.087704,0.202303 0.1960892,0.202303 h 0.3921674 c 0.07212,0 0.1546135,-0.0541 0.1827251,-0.133809 0.018685,-0.05304 0.3405179,-1.043586 0.3508924,-1.080064 h 0.4468287 v 1.01157 c 0,0.111833 0.087737,0.202303 0.1961115,0.202303 0.1083745,0 0.1961116,-0.09047 0.1961116,-0.202303 v -1.01157 h 0.446996 c 0.035865,0.110439 -0.1297928,-0.400087 0.3507251,1.080064 0.027944,0.07926 0.1103267,0.133809 0.1827251,0.133809 h 0.3921673 c 0.1083745,0 0.1961116,-0.09047 0.1961116,-0.202303 0,-0.111833 -0.087737,-0.202303 -0.1961116,-0.202303 H 9.3456733 L 9.0841912,11.612669 h 1.7020318 c 0.10843,0 0.196112,-0.09047 0.196112,-0.202302 V 7.5531155 h 0.196055 c 0.108431,0 0.196112,-0.09047 0.196112,-0.2023028 V 6.5415458 c 0,-0.1118103 -0.08768,-0.2022805 -0.196112,-0.2022805 z M 10.590167,11.208064 H 5.4656375 V 7.5531155 H 10.590167 Z M 7.6357211,10.78996 h 0.7843347 c 0.1084303,0 0.1961115,-0.09047 0.1961115,-0.202303 V 8.9692351 c 0,-0.1118327 -0.087681,-0.2023028 -0.1961115,-0.2023028 H 7.6357211 c -0.1084303,0 -0.1961115,0.09047 -0.1961115,0.2023028 v 1.6184219 c 0,0.111833 0.087681,0.202303 0.1961115,0.202303 z m -1.5687362,0 h 0.7843458 c 0.1084303,0 0.1961115,-0.09047 0.1961115,-0.202303 V 9.7784462 c 0,-0.1118327 -0.087681,-0.2023028 -0.1961115,-0.2023028 H 6.0669849 c -0.1083913,0 -0.1960949,0.09047 -0.1960949,0.2023028 v 0.8092108 c 0,0.111833 0.087704,0.202303 0.1960949,0.202303 z"
     fill="url(#paint0_linear_667_183)"
     id="path1"
     style="fill:url(#paint0_linear_667_183);stroke-width:0.0557769" />
  <path
     fill-rule="evenodd"
     clip-rule="evenodd"
     d="m 13.167227,4.2054088 c 0.0299,0.047394 0.04791,0.1095569 0.04791,0.165596 V 4.691404 14.589817 C 13.215139,14.816382 13.035538,15 12.813992,15 H 3.1860247 C 2.9644733,15 2.7848606,14.816382 2.7848606,14.589817 V 1.4101565 C 2.7848606,1.1836404 2.9644733,1 3.1860247,1 h 6.4186207 c 0.1127809,0 0.7410516,0.3322814 0.8216496,0.4101565 l 2.671713,2.685461 c 0,0 0.0094,0.014881 0.02281,0.03621 0.01322,0.020967 0.0304,0.048163 0.04641,0.073581 z M 10.292765,2.693749 C 10.187904,2.5865347 10.005849,2.660779 10.005849,2.8107522 v 1.3031657 c 0,0.092417 0.07491,0.1673307 0.16733,0.1673307 h 1.274558 c 0.148199,0 0.223275,-0.1783968 0.119641,-0.2843339 z M 3.7888446,13.856574 c 0,0.09242 0.074914,0.16733 0.1673307,0.16733 h 8.0876497 c 0.09242,0 0.16733,-0.07491 0.16733,-0.16733 V 5.4621514 c 0,-0.092417 -0.07491,-0.1673307 -0.16733,-0.1673307 h -2.037976 c -0.221602,0 -1.0576418,-0.7870566 -1.0576418,-1.0135721 V 2.1434263 c 0,-0.092417 -0.074908,-0.1673307 -0.1673307,-0.1673307 H 3.9561753 c -0.092417,0 -0.1673307,0.074914 -0.1673307,0.1673307 z M 8.0278884,5.8096135 c -0.173243,0 -0.3076653,0.1437092 -0.3076653,0.3138566 v 0.1042415 h -2.842859 c -0.1732374,0 -0.307643,0.1437091 -0.307643,0.3138342 v 0.8092669 c 0,0.1701196 0.1344,0.3138566 0.307643,0.3138566 h 0.084535 v 3.7456977 c 0,0.170119 0.1344,0.313856 0.3076486,0.313856 H 6.8183108 L 6.6288924,12.310382 H 6.4591633 c -0.173243,0 -0.307643,0.143738 -0.307643,0.313857 0,0.17012 0.1344,0.313857 0.307643,0.313857 h 0.3921674 c 0.1195299,0 0.2441354,-0.08406 0.2879203,-0.208271 v -5.6e-5 c 0.00563,-0.01595 0.037649,-0.11345 0.080263,-0.24408 l 0.5007092,-0.292773 v 0.431323 c 0,0.170175 0.1344781,0.313857 0.3076653,0.313857 0.1731873,0 0.3076654,-0.143682 0.3076654,-0.313857 v -0.791084 l 0.1862948,-0.108932 h 0.068159 c 0.037036,0.114008 0.124996,0.385028 0.3256255,1.00298 l 3.904e-4,0.0013 5.02e-4,0.0013 c 0.043562,0.123546 0.1678884,0.208271 0.2879203,0.208271 h 0.3921673 c 0.1731873,0 0.3076654,-0.143682 0.3076654,-0.313857 0,-0.170175 -0.1344781,-0.313857 -0.3076654,-0.313857 H 9.4268845 L 9.2374661,11.724223 h 1.5487569 c 0.173299,0 0.307665,-0.143737 0.307665,-0.313856 V 7.6646693 h 0.0845 c 0.173299,0 0.307666,-0.143737 0.307666,-0.3138566 V 6.5415458 c 0,-0.1701307 -0.134367,-0.3138342 -0.307666,-0.3138342 H 8.3355538 V 6.1234701 c 0,-0.1701474 -0.1344223,-0.3138566 -0.3076654,-0.3138566 z m 0.4939602,5.9146095 v 0 l 0.2543426,-0.148757 3.347e-4,9.48e-4 1.673e-4,5.02e-4 1.674e-4,5.02e-4 1.673e-4,4.47e-4 2.231e-4,7.25e-4 v 1.11e-4 l 1.115e-4,1.68e-4 0.00837,0.02571 c 0.023092,0.07117 0.101737,0.313298 0.3415777,1.052063 0.012717,0.03442 0.052598,0.05834 0.077139,0.05834 h 0.3921673 c 0.043562,0 0.084558,-0.03726 0.084558,-0.09075 0,-0.05349 -0.040996,-0.09075 -0.084558,-0.09075 H 9.3456733 9.2644622 l -0.024932,-0.07725 -0.2614821,-0.809267 -0.047132,-0.145856 h 0.1532749 1.702032 c 0.04356,0 0.08456,-0.0372 0.08456,-0.09075 V 7.5531155 7.4415618 h 0.111554 0.196055 c 0.04356,0 0.08456,-0.037203 0.08456,-0.090749 v -0.809267 c 0,-0.05349 -0.041,-0.090727 -0.08456,-0.090727 H 8.224 8.1124462 V 6.3392653 6.1234701 c 0,-0.053496 -0.041052,-0.090749 -0.084558,-0.090749 -0.043506,0 -0.084558,0.037253 -0.084558,0.090749 V 6.3392653 6.4508191 H 7.8317769 4.8773641 c -0.043534,0 -0.084535,0.037237 -0.084535,0.090727 V 7.350813 c 0,0.053546 0.041007,0.090749 0.084535,0.090749 h 0.1960893 0.1115538 v 0.1115537 3.8572513 c 0,0.05354 0.041007,0.09075 0.084541,0.09075 h 1.7020375 0.1532749 l -0.047131,0.145856 -0.2614821,0.809267 -0.024932,0.07725 H 6.7101036 6.4591633 c -0.043528,0 -0.084535,0.0372 -0.084535,0.09075 0,0.05355 0.041007,0.09075 0.084535,0.09075 h 0.3921674 c 0.00937,0 0.025936,-0.0041 0.043394,-0.01651 0.016956,-0.01199 0.028725,-0.02755 0.034136,-0.04284 L 7.219514,12.485688 c 0,0 0,0 0,0 l 0.5007092,-0.292773 v 0 L 7.9433307,12.06251 v 0.561729 c 0,0.05349 0.040996,0.09075 0.084558,0.09075 0.043562,0 0.084558,-0.03726 0.084558,-0.09075 v -0.660621 l 0.2231076,-0.130463 v 0 z m -0.4094024,0.239339 v 5.6e-5 l -0.1691155,0.09889 v -5.6e-5 z m 0,0 V 11.612669 11.501116 H 8.224 8.670996 8.7520398 l 0.024151,0.07435 -0.2543426,0.148757 H 8.3355538 v 0.108932 z m -0.1691155,0.09889 V 11.612669 11.501116 H 7.8317769 7.3849482 7.3006693 l -0.023036,0.08099 c 5.57e-5,-5.6e-5 5.57e-5,0 0,1.67e-4 -1.116e-4,3.35e-4 -4.462e-4,0.0014 -0.00112,0.0035 -8.366e-4,0.0027 -0.00195,0.0062 -0.0034,0.01082 -0.00284,0.0091 -0.0068,0.02142 -0.011713,0.03676 -0.00976,0.03051 -0.023259,0.07234 -0.039155,0.121705 -0.031904,0.09872 -0.073681,0.227569 -0.115737,0.356972 -0.084446,0.259976 -0.1688367,0.518558 -0.1776494,0.543601 l 0.2906533,-0.169952 c 0.079426,-0.243354 0.1957212,-0.601609 0.2470359,-0.761466 h 0.2536733 v 0.468693 z M 5.4656375,7.4415618 H 5.3540837 v 0.1115537 3.6549485 0.111554 h 0.1115538 5.1245295 0.111554 V 11.208064 7.5531155 7.4415618 H 10.590167 Z M 10.478614,7.6646693 H 5.5771912 V 11.09651 h 4.9014228 z m -1.2741678,0.181498 c -0.1732988,0 -0.3076653,0.1437371 -0.3076653,0.3138566 v 2.4276331 c 0,0.17012 0.1343665,0.313857 0.3076653,0.313857 h 0.7843347 c 0.1732991,0 0.3076651,-0.143737 0.3076651,-0.313857 V 8.1600239 c 0,-0.1701195 -0.134366,-0.3138566 -0.3076651,-0.3138566 z m -0.084558,0.3138566 c 0,-0.053546 0.040996,-0.090749 0.084558,-0.090749 h 0.7843347 c 0.043562,0 0.084558,0.037203 0.084558,0.090749 v 2.4276331 c 0,0.05355 -0.041,0.09075 -0.084558,0.09075 H 9.2044462 c -0.043562,0 -0.084558,-0.0372 -0.084558,-0.09075 z M 7.6357211,8.6553785 c -0.1732988,0 -0.3076653,0.143737 -0.3076653,0.3138566 v 1.6184219 c 0,0.17012 0.1343665,0.313857 0.3076653,0.313857 h 0.7843347 c 0.1732988,0 0.3076653,-0.143737 0.3076653,-0.313857 V 8.9692351 c 0,-0.1701196 -0.1343665,-0.3138566 -0.3076653,-0.3138566 z m -0.084558,0.3138566 c 0,-0.053546 0.040996,-0.090749 0.084558,-0.090749 h 0.7843347 c 0.043562,0 0.084558,0.037203 0.084558,0.090749 v 1.6184219 c 0,0.05355 -0.040996,0.09075 -0.084558,0.09075 H 7.6357211 c -0.043562,0 -0.084558,-0.0372 -0.084558,-0.09075 z M 6.0669849,9.4645896 c -0.1732486,0 -0.3076486,0.1437371 -0.3076486,0.3138566 v 0.8092108 c 0,0.17012 0.1344,0.313857 0.3076486,0.313857 h 0.7843458 c 0.1732988,0 0.3076653,-0.143737 0.3076653,-0.313857 V 9.7784462 c 0,-0.1701195 -0.1343665,-0.3138566 -0.3076653,-0.3138566 z m -0.084541,0.3138566 c 0,-0.053546 0.041007,-0.090749 0.084541,-0.090749 h 0.7843458 c 0.043562,0 0.084558,0.037203 0.084558,0.090749 v 0.8092108 c 0,0.05355 -0.040996,0.09075 -0.084558,0.09075 H 6.0669849 c -0.043534,0 -0.084541,-0.0372 -0.084541,-0.09075 z"
     fill="url(#paint1_linear_667_183)"
     id="path2"
     style="fill:url(#paint1_linear_667_183);stroke-width:0.0557769" />
  <defs
     id="defs5">
    <linearGradient
       id="paint0_linear_667_183"
       x1="37"
       y1="114.5"
       x2="185"
       y2="197.5"
       gradientUnits="userSpaceOnUse"
       gradientTransform="matrix(0.05577689,0,0,0.05577689,0.88844654,0.88844654)">
      <stop
         stop-color="#FD5900"
         id="stop2" />
      <stop
         offset="1"
         stop-color="#FFDE00"
         id="stop3" />
    </linearGradient>
    <linearGradient
       id="paint1_linear_667_183"
       x1="58.5"
       y1="87"
       x2="200.715"
       y2="167.199"
       gradientUnits="userSpaceOnUse"
       gradientTransform="matrix(0.05577689,0,0,0.05577689,0.88844654,0.88844654)">
      <stop
         stop-color="#FD5900"
         id="stop4" />
      <stop
         offset="1"
         stop-color="#FFDE00"
         id="stop5" />
    </linearGradient>
  </defs>
</svg>
