<?xml version="1.0" encoding="UTF-8" standalone="no"?>
<svg
   width="16"
   height="16"
   viewBox="0 0 16 16"
   fill="none"
   version="2"
   id="svg1"
   sodipodi:docname="folder-windows.alt7.svg"
   inkscape:version="1.4.2 (ebf0e940d0, 2025-05-08)"
   xml:space="preserve"
   xmlns:inkscape="http://www.inkscape.org/namespaces/inkscape"
   xmlns:sodipodi="http://sodipodi.sourceforge.net/DTD/sodipodi-0.dtd"
   xmlns:xlink="http://www.w3.org/1999/xlink"
   xmlns="http://www.w3.org/2000/svg"
   xmlns:svg="http://www.w3.org/2000/svg"
   xmlns:rdf="http://www.w3.org/1999/02/22-rdf-syntax-ns#"
   xmlns:cc="http://creativecommons.org/ns#"
   xmlns:dc="http://purl.org/dc/elements/1.1/"><title
     id="title1">folder-mac</title><sodipodi:namedview
     id="namedview1"
     pagecolor="#3f4354"
     bordercolor="#000000"
     borderopacity="0.5"
     inkscape:showpageshadow="1"
     inkscape:pageopacity="0"
     inkscape:pagecheckerboard="1"
     inkscape:deskcolor="#2b2f40"
     showgrid="false"
     inkscape:zoom="53"
     inkscape:cx="8"
     inkscape:cy="7.990566"
     inkscape:window-width="1920"
     inkscape:window-height="1048"
     inkscape:window-x="0"
     inkscape:window-y="0"
     inkscape:window-maximized="1"
     inkscape:current-layer="g12" /><g
     id="g1"><g
       id="g12"
       style="isolation:isolate;fill:#ffffff;fill-opacity:1;stroke:#ffffff;stroke-width:107.2;stroke-dasharray:none;stroke-opacity:1;image-rendering:optimizeQuality;shape-rendering:geometricPrecision;text-rendering:geometricPrecision"
       transform="matrix(0.00392111,0,0,0.00392111,6.256927,7.7926037)"><g
         id="g3"
         transform="matrix(1.1333339,0,0,1.1333339,-59.271663,-7.0523304)"><path
           d="m -736.85103,-833.1487 c 0,-54.3673 44.0806,-98.44771 98.44771,-98.44771 54.36893,0 98.45097,44.08041 98.45097,98.44771 0,54.36873 -44.08204,98.44933 -98.45097,98.44933 -54.36711,0 -98.44771,-44.0806 -98.44771,-98.44933 z m 393.79592,0 c 0,-54.3673 44.0806,-98.44771 98.44913,-98.44771 54.3673,0 98.44791,44.08041 98.44791,98.44771 0,54.36873 -44.08061,98.44933 -98.44791,98.44933 -54.36853,0 -98.44913,-44.0806 -98.44913,-98.44933 z m 393.794082,0 c 0,-54.3673 44.080802,-98.44771 98.449338,-98.44771 54.36893,0 98.44933,44.08041 98.44933,98.44771 0,54.36873 -44.08061,98.44933 -98.44933,98.44933 -54.368742,0 -98.449338,-44.0806 -98.449338,-98.44933 z M 2019.7181,-291.67888 V 1037.3811 c 0,217.4748 -176.3225,393.7957 -393.796,393.7957 H -736.85103 c -217.47492,0 -393.79587,-176.3209 -393.79587,-393.7957 V -45.555444 c 0,-54.368733 44.0808,-98.450966 98.4493,-98.450966 54.36893,0 98.4479,44.082233 98.4479,98.450966 V 1037.3811 c 0,108.7375 88.15958,196.897 196.89704,196.897 H 158.78055 1625.9192 c 108.7373,0 196.9002,-88.1595 196.9002,-196.897 V -242.45411 c 0,-54.36874 -44.082,-98.44934 -98.4479,-98.44934 h -2608.895 c -135.9479,0 -246.1234,-110.17558 -246.1234,-246.12181 v -344.57115 c 0,-217.47349 176.32238,-393.79589 393.79587,-393.79589 H 1625.9221 c 217.4735,0 393.796,176.3224 393.796,393.79589 v 98.44771 c 0,54.36873 -44.0806,98.45097 -98.4493,98.45097 -54.3688,0 -98.4479,-44.08224 -98.4479,-98.45097 v -98.44771 c 0,-108.73599 -88.1626,-196.89719 -196.8988,-196.89719 H -736.85103 c -108.73746,0 -196.89724,88.1612 -196.89724,196.89719 v 295.34638 c 0,54.36873 44.07917,98.44934 98.44791,98.44934 H 1773.5946 c 135.9465,0 246.1235,110.17557 246.1235,246.12181 z"
           id="path121"
           fill="url(#paint0_linear)"
           fill-rule="evenodd"
           clip-rule="evenodd"
           style="fill:url(#linearGradient5);stroke:none;stroke-width:21889.1" /></g></g><g
       style="isolation:isolate;fill:none;fill-opacity:1;stroke:none;stroke-width:107.2;stroke-dasharray:none;stroke-opacity:1;image-rendering:optimizeQuality;shape-rendering:geometricPrecision;text-rendering:geometricPrecision"
       id="g4"
       transform="matrix(0.03933574,0,0,0.03933574,5.3761907,7.3622768)"><path
         d="m 3,56.6771 c 0,1.1046 0.89543,2 2,2 h 46.3844 c 1.1046,0 2,-0.8954 2,-2 V 17.6106 c 0,-1.2351 -1.1084,-2.175 -2.3269,-1.9731 L 4.67308,23.3227 C 3.70784,23.4827 3,24.3174 3,25.2958 Z m 9.8928,-23.0176 c 0,-0.9784 0.7078,-1.8132 1.6731,-1.9731 l 26.6145,-4.4086 c 1.2185,-0.2019 2.3268,0.738 2.3268,1.9731 v 17.549 c 0,1.1046 -0.8954,2 -2,2 H 14.8928 c -1.1046,0 -2,-0.8954 -2,-2 z"
         fill="url(#paint0_linear_641_68)"
         id="path1-3"
         style="fill:url(#paint0_linear_641_68);stroke:none" /><path
         d="m 3,71.4141 c 0,-1.1046 0.89543,-2 2,-2 h 46.3844 c 1.1046,0 2,0.8954 2,2 v 39.0669 c 0,1.235 -1.1084,2.175 -2.3269,1.973 L 4.67308,104.768 C 3.70784,104.608 3,103.774 3,102.795 Z m 9.8928,23.0176 c 0,0.9784 0.7078,1.8132 1.6731,1.9731 l 26.6145,4.4082 c 1.2185,0.202 2.3268,-0.738 2.3268,-1.9727 V 81.2912 c 0,-1.1046 -0.8954,-2 -2,-2 H 14.8928 c -1.1046,0 -2,0.8954 -2,2 z"
         fill="url(#paint1_linear_641_68)"
         id="path2-5"
         style="fill:url(#paint1_linear_641_68);stroke:none" /><path
         fill-rule="evenodd"
         clip-rule="evenodd"
         d="m 66.5695,12.2417 c -0.9652,0.16 -1.673,0.9947 -1.673,1.9731 v 41.3677 c 0,1.1046 0.8954,2 2,2 h 55.6065 c 1.104,0 2,-0.8954 2,-2 V 5.00049 c 0,-1.23512 -1.109,-2.17501 -2.327,-1.97309 z M 114.627,47.7053 H 76.8059 c -1.1046,0 -2,-0.8955 -2,-2 V 22.5784 c 0,-0.9784 0.7078,-1.8132 1.673,-1.9731 l 35.8361,-5.9376 c 1.219,-0.2019 2.327,0.7379 2.327,1.9731 v 31.0489 c 0,0.0086 -0.007,0.0156 -0.015,0.0156 z"
         fill="url(#paint2_linear_641_68)"
         id="path3-6"
         style="fill:url(#paint2_linear_641_68);stroke:none" /><path
         fill-rule="evenodd"
         clip-rule="evenodd"
         d="m 67.0676,115.755 c -0.9652,-0.16 -1.6731,-0.995 -1.6731,-1.973 V 72.4141 c 0,-1.1046 0.8955,-2 2,-2 h 55.6065 c 1.104,0 2,0.8954 2,2 v 50.5819 c 0,1.235 -1.109,2.175 -2.327,1.973 z M 77.3039,80.2913 c -1.1046,0 -2,0.8954 -2,2 v 23.1267 c 0,0.979 0.7079,1.813 1.6731,1.973 l 35.836,5.938 c 1.219,0.202 2.327,-0.738 2.327,-1.973 V 82.2913 c 0,-1.1046 -0.895,-2 -2,-2 z"
         fill="url(#paint3_linear_641_68)"
         id="path4-2"
         style="fill:url(#paint3_linear_641_68);stroke:none" /></g></g><defs
     id="defs1"><linearGradient
       id="paint0_linear"
       x1="-4.01979e-07"
       y1="45.6052"
       x2="55.9035"
       y2="18.6289"
       gradientUnits="userSpaceOnUse"><stop
         stop-color="#FD2E00"
         id="stop14"
         offset="0"
         style="stop-color:#0357d1;stop-opacity:1;" /><stop
         offset="1"
         stop-color="#FF9900"
         id="stop16"
         style="stop-color:#27cdfc;stop-opacity:1;" /></linearGradient><linearGradient
       inkscape:collect="always"
       xlink:href="#paint0_linear"
       id="linearGradient5"
       gradientUnits="userSpaceOnUse"
       x1="27.387098"
       y1="39.611279"
       x2="41.394066"
       y2="32.352921"
       gradientTransform="matrix(204.19031,0,0,204.19031,-6722.8273,-7283.8446)" /><linearGradient
       id="paint0_linear_448_599"
       x1="7.24324"
       y1="1.18469"
       x2="4.72295"
       y2="7.51311"
       gradientUnits="userSpaceOnUse"><stop
         stop-color="#FE0F7C"
         id="stop4" /><stop
         offset="1"
         stop-color="#DF0066"
         id="stop5" /></linearGradient><linearGradient
       id="paint1_linear_448_599"
       x1="11.7689"
       y1="7.46154"
       x2="11.7689"
       y2="1"
       gradientUnits="userSpaceOnUse"><stop
         stop-color="#02AA93"
         id="stop6" /><stop
         offset="1"
         stop-color="#67FF80"
         id="stop7" /></linearGradient><linearGradient
       id="paint2_linear_448_599"
       x1="9.70924"
       y1="14.2368"
       x2="15.536"
       y2="9.15284"
       gradientUnits="userSpaceOnUse"><stop
         stop-color="#FE0844"
         id="stop8" /><stop
         offset="1"
         stop-color="#FEB302"
         id="stop9" /></linearGradient><linearGradient
       id="paint3_linear_448_599"
       x1="1"
       y1="14.9996"
       x2="8.7967"
       y2="11.6014"
       gradientUnits="userSpaceOnUse"><stop
         stop-color="#0357D1"
         id="stop10" /><stop
         offset="1"
         stop-color="#27CDFC"
         id="stop11" /></linearGradient><linearGradient
       id="paint0_linear_641_68"
       x1="53"
       y1="39.5"
       x2="3"
       y2="41.5"
       gradientUnits="userSpaceOnUse"><stop
         stop-color="#FF2424"
         id="stop4-9" /><stop
         offset="1"
         stop-color="#FF8D8D"
         id="stop5-1" /></linearGradient><linearGradient
       id="paint1_linear_641_68"
       x1="53"
       y1="91"
       x2="3"
       y2="87.5"
       gradientUnits="userSpaceOnUse"><stop
         stop-color="#5558FF"
         id="stop6-2" /><stop
         offset="1"
         stop-color="#00C0FF"
         id="stop7-7" /></linearGradient><linearGradient
       id="paint2_linear_641_68"
       x1="123"
       y1="32"
       x2="65"
       y2="35.5"
       gradientUnits="userSpaceOnUse"><stop
         stop-color="#02AA93"
         id="stop8-0" /><stop
         offset="1"
         stop-color="#67FF80"
         id="stop9-9" /></linearGradient><linearGradient
       id="paint3_linear_641_68"
       x1="125"
       y1="98"
       x2="65"
       y2="93"
       gradientUnits="userSpaceOnUse"><stop
         stop-color="#FD5900"
         id="stop10-3" /><stop
         offset="1"
         stop-color="#FFDE00"
         id="stop11-6" /></linearGradient></defs><metadata
     id="metadata1"><rdf:RDF><cc:Work
         rdf:about=""><dc:title>folder-mac</dc:title><dc:date>26-07-2025</dc:date><dc:description>Beautyline style mac folder icon. Candy folder-mac style based</dc:description><cc:license
           rdf:resource="http://creativecommons.org/licenses/by-nc-sa/4.0/" /></cc:Work><cc:License
         rdf:about="http://creativecommons.org/licenses/by-nc-sa/4.0/"><cc:permits
           rdf:resource="http://creativecommons.org/ns#Reproduction" /><cc:permits
           rdf:resource="http://creativecommons.org/ns#Distribution" /><cc:requires
           rdf:resource="http://creativecommons.org/ns#Notice" /><cc:requires
           rdf:resource="http://creativecommons.org/ns#Attribution" /><cc:prohibits
           rdf:resource="http://creativecommons.org/ns#CommercialUse" /><cc:permits
           rdf:resource="http://creativecommons.org/ns#DerivativeWorks" /><cc:requires
           rdf:resource="http://creativecommons.org/ns#ShareAlike" /></cc:License></rdf:RDF></metadata></svg>
