<?xml version="1.0" encoding="UTF-8" standalone="no"?>
<svg
   width="16"
   height="16"
   viewBox="0 0 16 16"
   fill="none"
   version="2"
   id="svg1"
   sodipodi:docname="folder-table_office-Candy-alt.svg"
   inkscape:version="1.4.2 (ebf0e940d0, 2025-05-08)"
   xml:space="preserve"
   xmlns:inkscape="http://www.inkscape.org/namespaces/inkscape"
   xmlns:sodipodi="http://sodipodi.sourceforge.net/DTD/sodipodi-0.dtd"
   xmlns:xlink="http://www.w3.org/1999/xlink"
   xmlns="http://www.w3.org/2000/svg"
   xmlns:svg="http://www.w3.org/2000/svg"
   xmlns:rdf="http://www.w3.org/1999/02/22-rdf-syntax-ns#"
   xmlns:cc="http://creativecommons.org/ns#"
   xmlns:dc="http://purl.org/dc/elements/1.1/"><title
     id="title1">folder-</title><sodipodi:namedview
     id="namedview1"
     pagecolor="#3f4354"
     bordercolor="#000000"
     borderopacity="0.5"
     inkscape:showpageshadow="1"
     inkscape:pageopacity="0"
     inkscape:pagecheckerboard="1"
     inkscape:deskcolor="#2b2f40"
     showgrid="false"
     inkscape:zoom="7.4196795"
     inkscape:cx="-1.1456021"
     inkscape:cy="15.027603"
     inkscape:window-width="1920"
     inkscape:window-height="1048"
     inkscape:window-x="0"
     inkscape:window-y="0"
     inkscape:window-maximized="1"
     inkscape:current-layer="g1" /><g
     id="g1"><g
       style="isolation:isolate;fill:url(#linearGradient4)"
       id="g2"
       transform="matrix(0.77777778,0,0,0.77777778,-7.7578447,-12.187481)"><path
         d="m 16.591533,25.108566 v -1.975021 0 h 2.824468 v 0 1.975021 z m 0,1.693532 v 1.975021 h 2.824468 v -1.975021 z m 7.337106,-1.693532 V 23.133545 H 21.10915 v 0 1.975021 z m 0,1.693532 v 1.975021 H 21.10915 v -1.975021 z m -5.487702,-7.560567 h -4.119778 c -0.675885,0 -1.224429,0.511237 -1.224429,1.141154 v 7.062432 c 0,0.443758 -0.557254,0.808087 -0.918322,0.808087 -0.361068,0 -0.918322,-0.364329 -0.918322,-0.808087 v -7.633009 c 0,-1.259834 1.097089,-2.282308 2.448859,-2.282308 h 8.083056 c 0.422808,0 0.765957,0.473011 0.765957,0.855865 0,0.382854 -0.343149,0.855866 -0.765957,0.855866 z m 8.013422,0 c 0.619504,0 1.12229,0.511237 1.12229,1.141154 v 3.259872 c 0,0.334771 0.489035,0.777539 0.82379,0.78086 0.344625,0.0034 0.859647,-0.436217 0.859647,-0.78086 v -3.830449 c 0,-1.259834 -0.75418,-2.282308 -1.683437,-2.282308 H 25.23881 c -0.422809,0 -0.765958,0.473011 -0.765958,0.855865 0,0.382855 0.343149,0.855866 0.765958,0.855866 z m -10.427337,2.198865 h 8.466128 c 0.622723,0 1.128638,0.505532 1.128638,1.128638 v 6.772596 c 0,0.623106 -0.505915,1.128638 -1.128638,1.128638 h -8.466128 c -0.622723,0 -1.128638,-0.505532 -1.128638,-1.128638 v -6.772596 c 0,-0.623106 0.505915,-1.128638 1.128638,-1.128638 z m 11.549627,7.21069 c 0,-0.339691 0.459006,-0.780861 0.841721,-0.78086 0.382714,1e-6 0.841716,0.441171 0.841716,0.78086 v 3.495152 c 0,1.233513 -0.75418,2.234626 -1.683437,2.234626 H 13.708945 c -1.35177,0 -2.448859,-1.001113 -2.448859,-2.234626 v -0.837985 c 0,-0.414398 0.503924,-0.837985 0.918322,-0.837985 0.414398,0 0.918322,0.423587 0.918322,0.837985 v 0.279328 c 0,0.616757 0.548544,1.117313 1.224429,1.117313 h 12.1332 c 0.619504,0 1.12229,-0.500556 1.12229,-1.117313 z"
         fill-rule="evenodd"
         fill="url(#_lgradient_45)"
         id="path2"
         style="fill:url(#linearGradient5);stroke-width:0.382979"
         sodipodi:nodetypes="ccccccccccccccccccccccccsssssssssscsssssssssssssssssssssasssssssssssss" /></g></g><defs
     id="defs1"><linearGradient
       id="linearGradient2"
       inkscape:collect="always"><stop
         style="stop-color:#43e97b;stop-opacity:1;"
         offset="0"
         id="stop2" /><stop
         style="stop-color:#38f9d7;stop-opacity:1;"
         offset="1"
         id="stop3" /></linearGradient><linearGradient
       inkscape:collect="always"
       xlink:href="#linearGradient2"
       id="linearGradient5"
       gradientUnits="userSpaceOnUse"
       x1="0.5"
       y1="24"
       x2="47.5"
       y2="24"
       gradientTransform="matrix(0.38297873,0,0,0.38297873,11.068596,16.763842)" /></defs><metadata
     id="metadata1"><rdf:RDF><cc:Work
         rdf:about=""><dc:title>folder-</dc:title><dc:date>26-07-2025</dc:date><dc:description>Beautyline style * folder icon</dc:description><cc:license
           rdf:resource="http://creativecommons.org/licenses/by-nc-sa/4.0/" /></cc:Work><cc:License
         rdf:about="http://creativecommons.org/licenses/by-nc-sa/4.0/"><cc:permits
           rdf:resource="http://creativecommons.org/ns#Reproduction" /><cc:permits
           rdf:resource="http://creativecommons.org/ns#Distribution" /><cc:requires
           rdf:resource="http://creativecommons.org/ns#Notice" /><cc:requires
           rdf:resource="http://creativecommons.org/ns#Attribution" /><cc:prohibits
           rdf:resource="http://creativecommons.org/ns#CommercialUse" /><cc:permits
           rdf:resource="http://creativecommons.org/ns#DerivativeWorks" /><cc:requires
           rdf:resource="http://creativecommons.org/ns#ShareAlike" /></cc:License></rdf:RDF></metadata></svg>
