<?xml version="1.0" encoding="UTF-8" standalone="no"?>
<svg
   width="16"
   height="16"
   viewBox="0 0 16 16"
   fill="none"
   version="1.1"
   id="svg2"
   sodipodi:docname="folder-podcast_podcast-alt.svg"
   inkscape:version="1.4.2 (ebf0e940d0, 2025-05-08)"
   xmlns:inkscape="http://www.inkscape.org/namespaces/inkscape"
   xmlns:sodipodi="http://sodipodi.sourceforge.net/DTD/sodipodi-0.dtd"
   xmlns="http://www.w3.org/2000/svg"
   xmlns:svg="http://www.w3.org/2000/svg">
  <sodipodi:namedview
     id="namedview2"
     pagecolor="#505050"
     bordercolor="#ffffff"
     borderopacity="1"
     inkscape:showpageshadow="0"
     inkscape:pageopacity="0"
     inkscape:pagecheckerboard="1"
     inkscape:deskcolor="#d1d1d1"
     inkscape:zoom="53.0625"
     inkscape:cx="8"
     inkscape:cy="8"
     inkscape:window-width="1920"
     inkscape:window-height="1048"
     inkscape:window-x="0"
     inkscape:window-y="0"
     inkscape:window-maximized="1"
     inkscape:current-layer="svg2" />
  <path
     fill-rule="evenodd"
     clip-rule="evenodd"
     d="M 8.0002597,1 C 7.2179131,1.0007362 6.4579786,1.258924 5.8396976,1.7340345 5.3521114,2.1087276 4.9744131,2.6016 4.740589,3.1614431 4.6451235,3.3900293 4.8261459,3.625 5.0738493,3.625 h 1.6651431 c 0.2089862,0 0.3783862,0.1694 0.3783862,0.3783741 V 4.9966259 C 7.1173786,5.2056 6.9479786,5.375 6.7389924,5.375 H 4.8471097 c -0.2089621,0 -0.3783862,0.1694 -0.3783862,0.3783741 V 6.7466259 C 4.4687235,6.9556 4.6381476,7.125 4.8471097,7.125 h 1.8918827 c 0.2089862,0 0.3783862,0.1694 0.3783862,0.3783741 V 8.4966259 C 7.1173786,8.7056 6.9479786,8.875 6.7389924,8.875 H 5.0755631 C 4.8278597,8.875 4.6468493,9.1099707 4.7423148,9.3385569 4.9760183,9.8981345 5.3534631,10.390802 5.8407476,10.765434 6.4586545,11.240505 7.2182148,11.49889 8.0002597,11.5 8.7825941,11.499264 9.5425528,11.241072 10.160822,10.765966 10.64842,10.391272 11.026118,9.8984 11.25993,9.3385569 11.355396,9.1099707 11.174386,8.875 10.926682,8.875 H 9.2615269 C 9.0525528,8.875 8.8831528,8.7056 8.8831528,8.4966259 V 7.5033741 C 8.8831528,7.2944 9.0525528,7.125 9.2615269,7.125 h 1.8918951 c 0.208962,0 0.378374,-0.1694 0.378374,-0.3783741 V 5.7533741 C 11.531796,5.5444 11.362384,5.375 11.153422,5.375 H 9.2615269 C 9.0525528,5.375 8.8831528,5.2056 8.8831528,4.9966259 V 4.0033741 C 8.8831528,3.7944 9.0525528,3.625 9.2615269,3.625 h 1.6634291 c 0.247704,0 0.428726,-0.2349707 0.333261,-0.4635569 C 11.024513,2.6018655 10.647056,2.1091983 10.159784,1.7345655 9.5418648,1.2594924 8.7823166,1.0011164 8.0002597,1 Z M 3.0813838,8.875 c -0.2089983,0 -0.3804379,0.1698948 -0.3586052,0.3777345 0.094271,0.8978225 0.52255,1.7531625 1.2317345,2.4461015 0.79905,0.780802 1.90365,1.305561 3.12165,1.483698 0.023595,0.0035 0.041216,0.02366 0.041216,0.04755 0,0.01279 -0.00509,0.02498 -0.014157,0.03391 L 6.0045838,14.352862 C 5.7645562,14.590741 5.9330148,15 6.2709217,15 h 3.458688 c 0.3379073,0 0.5063533,-0.409259 0.2663379,-0.647138 L 8.8984804,13.265207 c -0.00982,-0.0098 -0.015328,-0.02293 -0.015328,-0.03681 0,-0.02583 0.019093,-0.04767 0.044643,-0.05141 1.2155866,-0.178621 2.3180506,-0.702293 3.1162196,-1.481309 0.708871,-0.691805 1.13756,-1.545769 1.233146,-2.4424326 C 13.299368,9.0452328 13.127748,8.875 12.918592,8.875 h -0.125517 c -0.209034,0 -0.375827,0.1701724 -0.404069,0.3772276 C 12.281049,10.041767 11.836658,10.783031 11.121729,11.349874 10.293858,12.006257 9.1710459,12.375 8.0002597,12.375 6.8294855,12.375 5.7066614,12.006257 4.8787907,11.349874 4.1638614,10.783031 3.7194821,10.041767 3.6115493,9.2522276 3.5832476,9.0451724 3.4164304,8.875 3.2074804,8.875 Z"
     fill="url(#paint0_linear_1005_314)"
     id="path1"
     style="fill:url(#paint0_linear_1005_314);stroke-width:0.12069" />
  <defs
     id="defs2">
    <linearGradient
       id="paint0_linear_1005_314"
       x1="64.0026"
       y1="122"
       x2="64.0026"
       y2="63.2648"
       gradientUnits="userSpaceOnUse"
       gradientTransform="matrix(0.12068966,0,0,0.12068966,0.27586802,0.27586184)">
      <stop
         stop-color="#A93AFF"
         id="stop1" />
      <stop
         offset="1"
         stop-color="#FF81FF"
         id="stop2" />
    </linearGradient>
  </defs>
</svg>
