<?xml version="1.0" encoding="UTF-8" standalone="no"?>
<!-- Created with Inkscape (http://www.inkscape.org/) -->

<svg
   width="16"
   height="16"
   viewBox="0 0 4.2333333 4.2333333"
   version="1.1"
   id="svg1"
   inkscape:version="1.4.2 (ebf0e940d0, 2025-05-08)"
   sodipodi:docname="folder-debug_alt3.svg"
   xmlns:inkscape="http://www.inkscape.org/namespaces/inkscape"
   xmlns:sodipodi="http://sodipodi.sourceforge.net/DTD/sodipodi-0.dtd"
   xmlns="http://www.w3.org/2000/svg"
   xmlns:svg="http://www.w3.org/2000/svg">
  <sodipodi:namedview
     pagecolor="#505050"
     bordercolor="#ffffff"
     inkscape:deskcolor="#d1d1d1"
     inkscape:pagecheckerboard="1"
     inkscape:zoom="53.0625"
     inkscape:cx="8"
     inkscape:cy="8"
     inkscape:current-layer="g12"
     id="namedview1"
     borderopacity="1"
     inkscape:showpageshadow="0"
     inkscape:pageopacity="0" />
  <defs
     id="defs1">
    <linearGradient
       id="linearGradient1"
       x1="0.19915949"
       y1="3.4989285"
       x2="4.0347276"
       y2="0.77723265"
       gradientUnits="userSpaceOnUse">
      <stop
         stop-color="#5558FF"
         id="stop1-0" />
      <stop
         offset="1"
         stop-color="#00C0FF"
         id="stop2-2" />
    </linearGradient>
    <linearGradient
       id="linearGradient2"
       x1="2.1053779"
       y1="3.5514889"
       x2="2.1053779"
       y2="0.48909518"
       gradientUnits="userSpaceOnUse"
       gradientTransform="matrix(0.84738605,0,0,0.84738605,0.68073094,0.65195152)">
      <stop
         stop-color="#9000FF"
         id="stop375"
         offset="0"
         style="stop-color:#dc3282;stop-opacity:1;" />
      <stop
         offset="1"
         stop-color="#FF37FF"
         id="stop376"
         style="stop-color:#fe7970;stop-opacity:1;" />
    </linearGradient>
  </defs>
  <g
     id="g12">
    <path
       d="m 1.7576127,0.268515 c 0.2054361,-0.01261 0.411418,0.002048 0.617406,-0.00231 0.1254923,-0.015704 0.2338063,0.0875155 0.2651749,0.19484587 0.042011,0.11402721 0.042309,0.23911854 0.0892,0.3513437 0.081585,0.0640933 0.1770682,0.11067904 0.2687619,0.16112737 C 3.118726,0.93388524 3.2354877,0.88317474 3.3596253,0.85357811 3.4652093,0.82655091 3.5926149,0.86361771 3.647997,0.95627797 3.738291,1.0965582 3.8209808,1.2414708 3.9011953,1.387413 c 0.043365,0.091633 0.1031125,0.2053994 0.032443,0.2988342 -0.085935,0.1176312 -0.2253365,0.1881558 -0.3221904,0.29652 -0.022384,0.082104 -0.014207,0.1698802 -0.013645,0.2542957 0.082389,0.1464539 0.2755378,0.2100341 0.3481189,0.3647316 0.040117,0.070016 0.027281,0.1567651 -0.0169,0.2221335 C 3.8294149,2.9876465 3.7309475,3.1521205 3.6242675,3.3116857 3.5533221,3.4159375 3.4000062,3.4306004 3.290058,3.375779 3.1948361,3.33048 3.0704432,3.3230298 3.0054948,3.2342147 c -0.070646,-0.08879 0.015847,-0.232684 0.1328862,-0.2211001 0.090571,0.0085 0.1704904,0.054817 0.2539732,0.085458 C 3.4804824,2.9688523 3.5582624,2.8332085 3.6417455,2.700902 3.5115887,2.5781127 3.3203506,2.4795439 3.2905971,2.2926776 3.2813182,2.1675787 3.2829615,2.0409386 3.2971712,1.9166174 3.3487494,1.7521419 3.5211527,1.6692616 3.6395507,1.5526641 3.5642758,1.4175315 3.4821516,1.2862592 3.4084939,1.1503583 3.2243305,1.1946232 3.0330942,1.331817 2.8421148,1.2327237 2.6923284,1.1374874 2.4893318,1.0764851 2.4244032,0.90120126 2.3938544,0.79129281 2.3725641,0.67881378 2.3425758,0.56864739 2.1884211,0.56970018 2.0342781,0.57019706 1.8801324,0.56838713 1.8645836,0.68961999 1.8405771,0.81342604 1.7789146,0.92230511 1.7191706,1.0291239 1.6021275,1.0872941 1.4979082,1.1495837 1.4236961,1.1915394 1.348945,1.2437859 1.2591877,1.2479093 1.1066765,1.2574778 0.97381419,1.1673413 0.83167341,1.1364572 0.74819355,1.2654118 0.671526,1.3979681 0.58694916,1.5261499 c 0.089491,0.077987 0.18552088,0.1498042 0.26764035,0.2347445 0.0823973,0.08597 0.0971254,0.2066873 0.090573,0.3178811 -0.006282,0.1135043 0.0141891,0.2416975 -0.0662964,0.3377038 -0.0802137,0.099879 -0.19233826,0.1716664 -0.29001021,0.2555911 0.075024,0.1384662 0.16041996,0.2718058 0.23490093,0.4108068 0.15932739,-0.042979 0.31047267,-0.1492939 0.48371507,-0.115079 0.1023082,0.024977 0.1849747,0.091379 0.2755524,0.1392596 0.098489,0.050188 0.1931572,0.1230275 0.2245316,0.2288285 0.028376,0.1070729 0.055657,0.2146615 0.075304,0.3238014 0.155781,0.00127 0.3118369,0 0.4678867,5.263e-4 0.021823,-0.092405 0.00493,-0.2195509 0.1047664,-0.2743874 0.097672,-0.060238 0.2439114,0.024716 0.2305391,0.1343528 0,0.1727189 -0.049104,0.3999976 -0.2561871,0.4473645 -0.229442,0.00746 -0.4594284,-0.00463 -0.6891459,0.00155 C 1.698708,3.9395159 1.644685,3.9153108 1.6244963,3.8661565 1.5674774,3.7199433 1.5451046,3.564987 1.5069091,3.4138851 1.4166065,3.3580347 1.3260281,3.3019245 1.2308129,3.2537819 1.1080412,3.2965204 0.98772611,3.3467088 0.86059269,3.3776048 0.75228125,3.4028159 0.62978415,3.3554671 0.57630997,3.2622659 0.48791083,3.121218 0.40470439,2.9770889 0.32503878,2.8314114 0.27866001,2.7369387 0.23473628,2.6180212 0.3089371,2.5251147 0.40415956,2.4170089 0.53401617,2.3410904 0.6319605,2.2347727 0.6292408,2.1488033 0.64314041,2.0623151 0.63032283,1.9771179 0.52692598,1.8350363 0.32639832,1.7634813 0.27265333,1.5892263 0.24182442,1.5014498 0.29310943,1.4157421 0.33867957,1.3418694 0.4281612,1.2021054 0.51001132,1.0579648 0.60386501,0.92077273 0.6638899,0.83403045 0.78474605,0.79670992 0.88759914,0.83351831 c 0.11376686,0.04298 0.22780866,0.0841724 0.34294046,0.12329222 0.084301,-0.0519954 0.1751508,-0.0952366 0.2526332,-0.15649719 0.081846,-0.0890517 0.058111,-0.21775319 0.096585,-0.323543 0.029466,-0.0844233 0.070114,-0.19433177 0.1778805,-0.20823165 z"
       style="fill:url(#linearGradient1);stroke:url(#linearGradient1);stroke-width:0;stroke-dasharray:none"
       id="path1" />
    <path
       d="M 2.5311094,1.9299166 H 2.1151756 m -0.4159411,0 h 0.4159411 l -9.1e-6,0.9185338 M 2.2564829,1.4663458 C 2.2546048,1.3941877 2.3978211,1.1990827 2.5311222,1.1903077 M 1.9753565,1.4663458 C 1.9772294,1.3941873 1.8340182,1.1990827 1.7007172,1.1903077 m 0.8796113,1.2982897 0.184072,0.1230053 0.062939,0.2618895 M 2.6144539,2.2051277 2.8463341,2.2080647 2.999104,2.3415313 M 2.8163096,1.569504 2.7728792,1.7931912 2.5326046,1.9299166 M 1.6530059,2.4885974 1.4689339,2.6116027 1.405993,2.8734922 m 0.2128876,-0.6683645 -0.2318813,0.00293 -0.15277,0.1334665 m 0.1827946,-0.7720198 0.043431,0.223687 0.2402745,0.1367255 m 0.9161588,0.3456045 c -4e-7,0.3164351 -0.2239524,0.5729568 -0.5002122,0.572959 -0.27626,2.3e-6 -0.5002153,-0.2565161 -0.5002194,-0.5729515 -4.4e-6,-0.3164355 0.2239446,-0.5729619 0.5002049,-0.5729688 0.2762602,-7e-6 0.5002188,0.2565077 0.5002268,0.5729432 M 2.1166728,1.4239769 C 1.9560203,1.4239968 1.825806,1.5745634 1.8258456,1.76026 c 3.6e-6,0.015669 9.578e-4,0.031318 0.00285,0.046833 C 1.6956482,1.9144041 1.6164865,2.0891348 1.6164744,2.2755206 1.616489,2.591939 1.8404296,2.8484407 2.1166748,2.8484504 2.3929202,2.848441 2.6168608,2.5919392 2.6168754,2.2755206 2.6168633,2.0891347 2.5377014,1.9144037 2.404655,1.8070934 c 0.00188,-0.015516 0.00285,-0.031164 0.00285,-0.046833 v -9.21e-5 c 0,-0.1856598 -0.1302047,-0.3361703 -0.2908264,-0.3361914 z"
       style="fill:none;fill-rule:evenodd;stroke:url(#linearGradient2);stroke-width:0.143241;stroke-linecap:round;stroke-linejoin:round;stroke-dasharray:none;stroke-opacity:1;paint-order:stroke fill markers"
       id="path2"
       sodipodi:nodetypes="ccccccccccccccccccccccccccccsssccscccccssc" />
  </g>
</svg>
