<?xml version="1.0" encoding="UTF-8" standalone="no"?>
<svg
   width="16"
   height="16"
   viewBox="0 0 16 16"
   fill="none"
   version="1.1"
   id="svg12"
   sodipodi:docname="folder-saved-search.svg"
   inkscape:version="1.4.2 (ebf0e940d0, 2025-05-08)"
   xmlns:inkscape="http://www.inkscape.org/namespaces/inkscape"
   xmlns:sodipodi="http://sodipodi.sourceforge.net/DTD/sodipodi-0.dtd"
   xmlns="http://www.w3.org/2000/svg"
   xmlns:svg="http://www.w3.org/2000/svg">
  <sodipodi:namedview
     id="namedview12"
     pagecolor="#505050"
     bordercolor="#ffffff"
     borderopacity="1"
     inkscape:showpageshadow="0"
     inkscape:pageopacity="0"
     inkscape:pagecheckerboard="1"
     inkscape:deskcolor="#d1d1d1"
     inkscape:zoom="38.822325"
     inkscape:cx="7.5085662"
     inkscape:cy="6.2206475"
     inkscape:current-layer="g3" />
  <g
     clip-path="url(#clip0_451_784)"
     id="g3">
    <path
       d="m 3.7469079,4.2473293 c 0,-0.265594 0.215249,-0.480907 0.480843,-0.480907 h 0.262347 c 0.265593,0 0.480843,0.215313 0.480843,0.480907 v 0.874363 c 0,0.265657 0.215313,0.480906 0.480906,0.480906 h 5.1587321 c 0.265657,0 0.480906,-0.215249 0.480906,-0.480906 v -0.874363 c 0,-0.265594 0.215314,-0.480907 0.480907,-0.480907 h 0.262284 c 0.265592,0 0.480906,0.215313 0.480906,0.480907 v 2.098459 c 0,0.265594 0.215377,0.480907 0.480906,0.480907 h 0.262347 c 0.265594,0 0.480843,-0.215313 0.480843,-0.480907 v -3.322556 c 0,-0.265593 -0.215249,-0.480843 -0.480843,-0.480843 h -2.964296 c -0.2024557,0 -0.3781814,-0.130282 -0.4800784,-0.305244 -0.3189927,-0.547417 -0.9069498,-0.918916 -1.5832482,-0.918916 -0.6762975,0 -1.2641925,0.371499 -1.5832475,0.918916 -0.101833,0.174962 -0.277622,0.305244 -0.480079,0.305244 h -2.964232 c -0.265657,0 -0.480906,0.21525 -0.480906,0.480843 V 13.078351 c 0,0.265657 0.215249,0.48097 0.480906,0.48097 h 3.322556 c 0.265657,0 0.480907,-0.215313 0.480907,-0.48097 v -0.26222 c 0,-0.265594 -0.21525,-0.480907 -0.480907,-0.480907 h -2.098459 c -0.265594,0 -0.480843,-0.215313 -0.480843,-0.480906 z m 4.2843045,-1.70494 c 0.3366217,0 0.6120804,0.275395 0.6120804,0.612016 0,0.336622 -0.2754587,0.612017 -0.6120804,0.612017 -0.3366845,0 -0.6120155,-0.275395 -0.6120155,-0.612017 0,-0.336621 0.275331,-0.612016 0.6120155,-0.612016 z"
       fill="url(#paint1_linear_451_784)"
       stroke="url(#paint2_linear_451_784)"
       id="path2"
       style="fill:url(#paint1_linear_451_784);stroke:url(#paint2_linear_451_784);stroke-width:0.636457" />
    <path
       d="m 13.111216,12.273934 c 0.244845,-0.428463 0.428399,-0.918089 0.428399,-1.468941 0,-1.5301047 -1.224097,-2.7542657 -2.754201,-2.7542657 -1.5301701,0 -2.7542656,1.224161 -2.7542656,2.7542657 0,1.530104 1.2240955,2.754201 2.7542656,2.754201 0.550852,0 1.040478,-0.183554 1.468941,-0.428399 l 1.482497,1.482498 c 0.09388,0.09394 0.246182,0.09394 0.339995,0 l 0.516867,-0.516803 c 0.09394,-0.09388 0.09394,-0.246118 0,-0.340059 z m -2.325802,0.06116 c -0.8569257,0 -1.5301701,-0.673243 -1.5301701,-1.530104 0,-0.8568617 0.6732444,-1.5301047 1.5301701,-1.5301047 0.856861,0 1.530104,0.673243 1.530104,1.5301047 0,0.856861 -0.673243,1.530104 -1.530104,1.530104 z"
       fill="url(#paint3_linear_451_784)"
       stroke="url(#paint4_linear_451_784)"
       id="path3"
       style="fill:url(#paint3_linear_451_784);stroke:url(#paint4_linear_451_784);stroke-width:0.636457" />
  </g>
  <defs
     id="defs12">
    <linearGradient
       id="paint0_linear_451_784"
       x1="39.3135"
       y1="3.75"
       x2="7.66515"
       y2="49.5472"
       gradientUnits="userSpaceOnUse">
      <stop
         stop-color="#DE00C0"
         id="stop3" />
      <stop
         offset="1"
         stop-color="#8720FF"
         id="stop4" />
    </linearGradient>
    <linearGradient
       id="paint1_linear_451_784"
       x1="29.1773"
       y1="15.75"
       x2="13.1809"
       y2="33.3278"
       gradientUnits="userSpaceOnUse"
       gradientTransform="matrix(0.63645632,0,0,0.63645632,-7.0240966,-8.7059576)">
      <stop
         stop-color="#DE00C0"
         id="stop5" />
      <stop
         offset="1"
         stop-color="#8720FF"
         id="stop6" />
    </linearGradient>
    <linearGradient
       id="paint2_linear_451_784"
       x1="29.1773"
       y1="15.75"
       x2="13.1809"
       y2="33.3278"
       gradientUnits="userSpaceOnUse"
       gradientTransform="matrix(0.63645632,0,0,0.63645632,-7.0240966,-8.7059576)">
      <stop
         stop-color="#DE00C0"
         id="stop7" />
      <stop
         offset="1"
         stop-color="#8720FF"
         id="stop8" />
    </linearGradient>
    <linearGradient
       id="paint3_linear_451_784"
       x1="32.1905"
       y1="26.3281"
       x2="23.6548"
       y2="36.75"
       gradientUnits="userSpaceOnUse"
       gradientTransform="matrix(0.63645632,0,0,0.63645632,-7.0240966,-8.7059576)">
      <stop
         stop-color="#DE00C0"
         id="stop9" />
      <stop
         offset="1"
         stop-color="#8720FF"
         id="stop10" />
    </linearGradient>
    <linearGradient
       id="paint4_linear_451_784"
       x1="32.1905"
       y1="26.3281"
       x2="23.6548"
       y2="36.75"
       gradientUnits="userSpaceOnUse"
       gradientTransform="matrix(0.63645632,0,0,0.63645632,-7.0240966,-8.7059576)">
      <stop
         stop-color="#DE00C0"
         id="stop11" />
      <stop
         offset="1"
         stop-color="#8720FF"
         id="stop12" />
    </linearGradient>
    <clipPath
       id="clip0_451_784">
      <rect
         width="48"
         height="48"
         fill="white"
         id="rect12" />
    </clipPath>
  </defs>
</svg>
