<?xml version="1.0" encoding="UTF-8" standalone="no"?>
<svg
   width="16"
   height="16"
   viewBox="0 0 16 16"
   fill="none"
   version="2"
   id="svg1"
   sodipodi:docname="application-text-template.svg"
   inkscape:version="1.4.2 (ebf0e940d0, 2025-05-08)"
   xml:space="preserve"
   xmlns:inkscape="http://www.inkscape.org/namespaces/inkscape"
   xmlns:sodipodi="http://sodipodi.sourceforge.net/DTD/sodipodi-0.dtd"
   xmlns:xlink="http://www.w3.org/1999/xlink"
   xmlns="http://www.w3.org/2000/svg"
   xmlns:svg="http://www.w3.org/2000/svg"
   xmlns:rdf="http://www.w3.org/1999/02/22-rdf-syntax-ns#"
   xmlns:cc="http://creativecommons.org/ns#"
   xmlns:dc="http://purl.org/dc/elements/1.1/"><title
     id="title1">folder-</title><sodipodi:namedview
     id="namedview1"
     pagecolor="#3f4354"
     bordercolor="#000000"
     borderopacity="0.5"
     inkscape:showpageshadow="1"
     inkscape:pageopacity="0"
     inkscape:pagecheckerboard="1"
     inkscape:deskcolor="#2b2f40"
     showgrid="false"
     inkscape:zoom="10.933098"
     inkscape:cx="21.951693"
     inkscape:cy="25.838972"
     inkscape:window-width="1920"
     inkscape:window-height="1048"
     inkscape:window-x="0"
     inkscape:window-y="0"
     inkscape:window-maximized="1"
     inkscape:current-layer="svg1" /><g
     id="g1"><g
       id="g22"
       transform="matrix(0.26064328,0,0,0.26064328,11.39293,2.1953552)"><path
         style="fill:url(#linearGradient22)"
         d="m -19.89204,34.747102 c 1.875633,-6.72393 2.201378,-7.047291 3.685061,-8.520108 L 3.061452,7.0996603 C 4.076247,6.0922978 6.343731,6.1006306 7.351094,7.1154213 l 3.297475,3.3217977 c 1.007362,1.014793 0.999029,3.282279 -0.01576,4.289642 L -8.635626,33.854193 c -1.487269,1.476378 -1.809428,1.796179 -8.566314,3.602847 -2.463643,0.658734 -3.365457,-0.288852 -2.690097,-2.709941 z m 8.621801,-3.91377 L 6.620956,13.298078 C 7.278089,12.654071 5.333103,10.694734 4.676337,11.339112 L -13.20556,28.883734 c -0.898792,0.881783 -1.565105,3.437842 -1.565105,3.437842 0,0 2.594933,-0.600763 3.500426,-1.488244 z"
         id="path20"
         sodipodi:nodetypes="ssssssssssssscs" /><path
         style="opacity:1;fill:url(#linearGradient15);fill-opacity:0.913201;fill-rule:evenodd;stroke:none;stroke-width:0.453;stroke-linejoin:round;paint-order:fill markers stroke"
         d="m 1.659296,-4.5861734 c 1.622436,0 3.43883,1.8221439 3.43883,3.4445797 v 3.0872345 c 0,2.3536502 -3.864654,2.3536502 -3.864654,0 V 0 c 0,-0.29409217 -0.307277,-0.64557506 -0.601369,-0.64557506 h -32.466477 c -0.781208,0 -1.562294,0.96573414 -1.562294,1.74694166 V 42.394377 c 0,0.99731 0.794731,2.39588 1.792041,2.39588 h 23.397478 c 1.365104,0 0.778933,0.01176 5.109777,-4.726765 4.330844,-4.738521 4.330844,-5.036425 4.330844,-6.069392 v -6.23742 c 0,-2.254427 3.864654,-2.252358 3.864654,0 v 6.653776 c 0,2.652566 -2.0075812,4.651213 -4.67235617,8.019472 -2.74204603,3.465928 -4.70950583,6.697158 -7.80020683,6.697158 h -24.23019 c -2.959624,0 -5.829445,-3.737534 -5.829445,-6.697158 V 1.1013666 c 0,-2.6605081 2.93919,-5.68754 5.599698,-5.68754 z"
         id="path4"
         sodipodi:nodetypes="ssssssssssszsssssssssss" /><path
         style="fill:url(#linearGradient18);fill-rule:nonzero;stroke:none"
         d="M -27.547085,4.8918635 H -7.09955 c 2.76084,0 2.76084,3.9546373 0,3.9546373 h -20.447535 c -2.355473,0 -2.355473,-3.9546373 0,-3.9546373 z"
         id="path15"
         sodipodi:nodetypes="sssss" /><path
         style="fill:url(#linearGradient19);fill-rule:nonzero;stroke:none"
         d="m -27.547085,14.152801 h 13.205169 c 2.76084,0 2.76084,3.954638 0,3.954638 h -13.205169 c -2.355473,0 -2.355473,-3.954638 0,-3.954638 z"
         id="path18"
         sodipodi:nodetypes="sssss" /><path
         style="fill:url(#linearGradient20);fill-rule:nonzero;stroke:none"
         d="m -27.547085,23.618579 h 7.06271 c 2.76084,0 2.76084,3.954638 0,3.954638 h -7.06271 c -2.355473,0 -2.355473,-3.954638 0,-3.954638 z"
         id="path19"
         sodipodi:nodetypes="sssss" /></g></g><defs
     id="defs1"><linearGradient
       id="linearGradient21"
       inkscape:collect="always"><stop
         style="stop-color:#ff4975;stop-opacity:1;"
         offset="0"
         id="stop21" /><stop
         style="stop-color:#ff4b89;stop-opacity:1;"
         offset="1"
         id="stop22" /></linearGradient><linearGradient
       id="linearGradient13"
       inkscape:collect="always"><stop
         style="stop-color:#a751ec;stop-opacity:1;"
         offset="0"
         id="stop13" /><stop
         style="stop-color:#d960f2;stop-opacity:1;"
         offset="1"
         id="stop15" /></linearGradient><linearGradient
       inkscape:collect="always"
       xlink:href="#linearGradient13"
       id="linearGradient15"
       x1="8.3953733"
       y1="44.790257"
       x2="40.632103"
       y2="-0.64557505"
       gradientUnits="userSpaceOnUse"
       gradientTransform="translate(-40)" /><linearGradient
       inkscape:collect="always"
       xlink:href="#linearGradient13"
       id="linearGradient18"
       x1="-51.604626"
       y1="44.790257"
       x2="-19.367897"
       y2="-0.64557505"
       gradientUnits="userSpaceOnUse"
       gradientTransform="translate(20)" /><linearGradient
       inkscape:collect="always"
       xlink:href="#linearGradient13"
       id="linearGradient19"
       gradientUnits="userSpaceOnUse"
       x1="-51.604626"
       y1="35.52932"
       x2="-19.367897"
       y2="-9.9065123"
       gradientTransform="translate(20,9.2609374)" /><linearGradient
       inkscape:collect="always"
       xlink:href="#linearGradient13"
       id="linearGradient20"
       gradientUnits="userSpaceOnUse"
       gradientTransform="translate(20,18.726715)"
       x1="-51.604626"
       y1="26.063541"
       x2="-19.367897"
       y2="-19.37229" /><linearGradient
       inkscape:collect="always"
       xlink:href="#linearGradient21"
       id="linearGradient22"
       x1="-18.533745"
       y1="36.396461"
       x2="8.9998312"
       y2="8.7763205"
       gradientUnits="userSpaceOnUse" /></defs><metadata
     id="metadata1"><rdf:RDF><cc:Work
         rdf:about=""><dc:title>folder-</dc:title><dc:date>26-07-2025</dc:date><dc:description>Beautyline style * folder icon</dc:description><cc:license
           rdf:resource="http://creativecommons.org/licenses/by-nc-sa/4.0/" /></cc:Work><cc:License
         rdf:about="http://creativecommons.org/licenses/by-nc-sa/4.0/"><cc:permits
           rdf:resource="http://creativecommons.org/ns#Reproduction" /><cc:permits
           rdf:resource="http://creativecommons.org/ns#Distribution" /><cc:requires
           rdf:resource="http://creativecommons.org/ns#Notice" /><cc:requires
           rdf:resource="http://creativecommons.org/ns#Attribution" /><cc:prohibits
           rdf:resource="http://creativecommons.org/ns#CommercialUse" /><cc:permits
           rdf:resource="http://creativecommons.org/ns#DerivativeWorks" /><cc:requires
           rdf:resource="http://creativecommons.org/ns#ShareAlike" /></cc:License></rdf:RDF></metadata></svg>
