<?xml version="1.0" encoding="UTF-8" standalone="no"?>
<svg
   width="16"
   height="16"
   viewBox="0 0 16 16"
   fill="none"
   version="1.1"
   id="svg12"
   sodipodi:docname="krita.svg"
   inkscape:version="1.4.2 (ebf0e940d0, 2025-05-08)"
   xmlns:inkscape="http://www.inkscape.org/namespaces/inkscape"
   xmlns:sodipodi="http://sodipodi.sourceforge.net/DTD/sodipodi-0.dtd"
   xmlns="http://www.w3.org/2000/svg"
   xmlns:svg="http://www.w3.org/2000/svg">
  <sodipodi:namedview
     id="namedview12"
     pagecolor="#505050"
     bordercolor="#ffffff"
     borderopacity="1"
     inkscape:showpageshadow="0"
     inkscape:pageopacity="0"
     inkscape:pagecheckerboard="1"
     inkscape:deskcolor="#d1d1d1"
     inkscape:zoom="53.0625"
     inkscape:cx="8"
     inkscape:cy="8"
     inkscape:window-width="1920"
     inkscape:window-height="1048"
     inkscape:window-x="0"
     inkscape:window-y="0"
     inkscape:window-maximized="1"
     inkscape:current-layer="svg12" />
  <path
     fill-rule="evenodd"
     clip-rule="evenodd"
     d="m 14.731273,2.0961051 c -0.233557,-0.648322 -1.000806,-1.025623 -1.662925,-0.823687 -0.270926,0.07351 -0.508031,0.238248 -0.691565,0.447264 -0.986698,1.077283 -1.974165,2.153773 -2.9616898,3.230334 l -10e-4,0.0011 c -0.812091,0.885328 -1.624243,1.770692 -2.436039,2.6566 -0.540043,0.542916 -0.48568,1.527805 0.1221,1.998987 0.527567,0.4552399 1.402689,0.4038699 1.873232,-0.108063 1.8286738,-1.988356 3.6538698,-3.97936 5.4789248,-5.970376 0.359146,-0.373762 0.465222,-0.952108 0.278968,-1.432147 z m -4.628885,3.610931 c 1.042634,-1.140124 2.08535,-2.280331 3.142399,-3.406347 0.15326,-0.120444 0.399234,-0.06996 0.499043,0.09566 0.12476,0.162969 0.03749,0.381732 -0.09981,0.507498 -0.719119,0.782599 -1.437303,1.566203 -2.155476,2.349819 l -3.07e-4,3.43e-4 -2.96e-4,3.31e-4 c -1.080262,1.178711 -2.1605718,2.357505 -3.2444298,3.533094 -0.162189,0.201935 -0.53381,0.13285 -0.601536,-0.119569 -0.08116,-0.197181 0.06846,-0.358377 0.194923,-0.494632 0.01101,-0.01185 0.02184,-0.02352 0.03232,-0.035 0.747749,-0.806877 1.490389,-1.618957 2.2330758,-2.431096 z m -0.2481018,-4.22738 c -0.943712,-0.274562 -1.949792,-0.319732 -2.920229,-0.177137 -2.436347,0.352501 -4.585745,2.13626 -5.375286,4.452316 -0.448238,1.26919 -0.499033,2.669443 -0.163968,3.970514 0.04901,0.26039 0.331503,0.4437229 0.590816,0.3843929 0.286051,-0.04075 0.480323,-0.3578199 0.392991,-0.6306149 -0.29764,-1.174407 -0.23882,-2.441822 0.210307,-3.57018 0.568543,-1.464916 1.770669,-2.670329 3.237465,-3.252223 1.130841,-0.459675 2.409609,-0.543815 3.593027,-0.245335 0.203177,0.06023 0.4518,0.06731 0.6059708,-0.100081 0.261099,-0.232055 0.163963,-0.7236 -0.1710938,-0.831652 z m 4.0838388,4.719812 c 0.270926,-0.144367 0.65325,0.02125 0.717345,0.323267 0.335139,1.470237 0.160474,3.052062 -0.498097,4.4115869 -1.08193,2.296521 -3.554865,3.905875 -6.1214248,3.847456 -0.368937,0.02566 -0.635393,-0.415435 -0.453597,-0.730707 0.110499,-0.240061 0.395675,-0.286063 0.632721,-0.280742 1.7957028,-0.02046 3.5227938,-0.992055 4.5404868,-2.450738 0.910694,-1.279809 1.249381,-2.9369159 0.930325,-4.4709169 -0.07308,-0.242675 0.009,-0.536732 0.252241,-0.649206 z M 7.2352682,10.787306 c -0.3413,-0.9636259 -1.436499,-1.5800629 -2.443478,-1.3559779 -0.847462,0.160308 -1.554129,0.8759389 -1.686907,1.7244179 -0.07753,0.555321 -0.225456,1.136375 -0.614875,1.560562 -0.310117,0.333011 -0.753898,0.481778 -1.178962,0.605829 -0.108718,0.01951 -0.137234,0.187791 -0.07575,0.262175 0.340411,0.45517 0.89736,0.723612 1.460557,0.761691 1.362541,0.07616 2.791909,-0.256026 3.855911,-1.138102 0.720928,-0.550012 1.012324,-1.578312 0.6835,-2.420595 z m -3.141227,0.630603 c 0.03118,-0.343642 0.231688,-0.663372 0.526656,-0.84317 0.451799,-0.294045 1.100543,-0.198399 1.446302,0.212567 0.39655,0.421585 0.372496,1.142524 -0.0499,1.537573 -0.733393,0.668623 -1.733241,0.976918 -2.713482,1.014996 0.4518,-0.542916 0.69419,-1.230247 0.790428,-1.921966 z"
     fill="url(#paint0_linear_641_139)"
     stroke="url(#paint1_linear_641_139)"
     stroke-width="0.35477"
     id="path1"
     style="fill:url(#paint0_linear_641_139);stroke:url(#paint1_linear_641_139)" />
  <defs
     id="defs12">
    <linearGradient
       id="paint0_linear_641_139"
       x1="112.5"
       y1="9"
       x2="11.5"
       y2="117.5"
       gradientUnits="userSpaceOnUse"
       gradientTransform="matrix(0.11825664,0,0,0.11825664,0.46798517,0.39006411)">
      <stop
         stop-color="#FFC700"
         id="stop1" />
      <stop
         offset="0.1987"
         stop-color="#FF49AB"
         id="stop2" />
      <stop
         offset="0.37955"
         stop-color="#BA49FF"
         id="stop3" />
      <stop
         offset="0.53125"
         stop-color="#5849FF"
         id="stop4" />
      <stop
         offset="0.84375"
         stop-color="#1EFFD6"
         id="stop5" />
      <stop
         offset="0.9999"
         stop-color="#00FFFF"
         id="stop6" />
    </linearGradient>
    <linearGradient
       id="paint1_linear_641_139"
       x1="112.5"
       y1="9"
       x2="11.5"
       y2="117.5"
       gradientUnits="userSpaceOnUse"
       gradientTransform="matrix(0.11825664,0,0,0.11825664,0.46798517,0.39006411)">
      <stop
         stop-color="#FFC700"
         id="stop7" />
      <stop
         offset="0.1987"
         stop-color="#FF49AB"
         id="stop8" />
      <stop
         offset="0.37955"
         stop-color="#BA49FF"
         id="stop9" />
      <stop
         offset="0.53125"
         stop-color="#5849FF"
         id="stop10" />
      <stop
         offset="0.84375"
         stop-color="#1EFFD6"
         id="stop11" />
      <stop
         offset="0.9999"
         stop-color="#00FFFF"
         id="stop12" />
    </linearGradient>
  </defs>
</svg>
