<?xml version="1.0" encoding="UTF-8" standalone="no"?>
<!-- Created with Inkscape (http://www.inkscape.org/) -->

<svg
   width="16"
   height="16"
   viewBox="0 0 4.2333333 4.2333333"
   version="1.1"
   id="svg1"
   inkscape:version="1.4.2 (ebf0e940d0, 2025-05-08)"
   sodipodi:docname="folder-debug.svg"
   xmlns:inkscape="http://www.inkscape.org/namespaces/inkscape"
   xmlns:sodipodi="http://sodipodi.sourceforge.net/DTD/sodipodi-0.dtd"
   xmlns="http://www.w3.org/2000/svg"
   xmlns:svg="http://www.w3.org/2000/svg">
  <sodipodi:namedview
     pagecolor="#505050"
     bordercolor="#ffffff"
     inkscape:deskcolor="#d1d1d1"
     inkscape:pagecheckerboard="1"
     inkscape:zoom="53.0625"
     inkscape:cx="8"
     inkscape:cy="8"
     inkscape:current-layer="g1"
     id="namedview1"
     borderopacity="1"
     inkscape:showpageshadow="0"
     inkscape:pageopacity="0" />
  <defs
     id="defs1">
    <linearGradient
       id="linearGradient1"
       x1="2.116667"
       y1="0.46661016"
       x2="2.116667"
       y2="3.7667234"
       gradientUnits="userSpaceOnUse">
      <stop
         stop-color="#9000FF"
         id="stop375"
         offset="0"
         style="stop-color:#dc3282;stop-opacity:1;" />
      <stop
         offset="1"
         stop-color="#FF37FF"
         id="stop376"
         style="stop-color:#fe7970;stop-opacity:1;" />
    </linearGradient>
    <linearGradient
       id="linearGradient2"
       x1="1.7345124"
       y1="3.7635689"
       x2="2.7993906"
       y2="1.633813"
       gradientUnits="userSpaceOnUse">
      <stop
         stop-color="#5558FF"
         id="stop1-0" />
      <stop
         offset="1"
         stop-color="#00C0FF"
         id="stop2-2" />
    </linearGradient>
  </defs>
  <g
     id="g1">
    <path
       id="path1"
       style="fill:none;stroke:url(#linearGradient1);stroke-width:0.243887;stroke-linecap:round;stroke-linejoin:round"
       d="m 1.2982332,1.9167138 h 0.8155086 m -1.29e-5,1.2783468 -4.9e-6,0.5225645 M 2.3907939,1.0078204 C 2.3871239,0.86634379 2.6679071,0.48381459 2.9292619,0.46661009 M 1.8396076,1.0078204 C 1.8432776,0.86634379 1.5624945,0.48381459 1.3011396,0.46661009 m 1.9989289,2.70007481 0.086954,0.087017 0.1230181,0.5130213 m 0.03724,-1.3046681 0.2995261,0.2616795 M 3.4884126,1.2100761 3.4032597,1.6486454 3.1777653,1.7769601 M 1.2075952,3.0120835 0.84669706,3.2532522 0.72329252,3.7667231 M 1.1406879,2.4563027 0.68605302,2.4620527 0.38652665,2.7237322 m 0.3583938,-1.5136584 0.0851529,0.4385693 0.47109135,0.2680684 m 1.4822157,1.501491 C 2.6084083,3.6040566 2.3741309,3.7176805 2.1166845,3.7176827 1.575039,3.7176873 1.1359439,3.2147478 1.1359359,2.5943329 1.1359279,1.9739181 1.5750097,1.4709642 2.1166556,1.47095 c 0.2213162,-6e-6 0.4249875,0.083855 0.5886979,0.2249578 m -0.024051,-0.020009 c 0.00444,-0.036301 0.00559,-0.068037 0.00559,-0.091823 v -1.801e-4 c 0,-0.146956 -0.041607,-0.2826799 -0.111948,-0.392292 C 2.4710497,1.0297045 2.3044698,0.92477035 2.1166864,0.92474709 h -3.5e-6 c -0.3149857,3.87e-5 -0.5702883,0.29524511 -0.5702106,0.65932841 6.9e-6,0.030719 0.00188,0.061403 0.00558,0.091823 -0.2608556,0.2103963 -0.416063,0.5529805 -0.4160867,0.9184152 2.82e-5,0.6203816 0.4390943,1.1232884 0.9807109,1.1233076"
       sodipodi:nodetypes="ccccccccccccccccccccccccccsssccsssccsccc" />
    <path
       d="M 3.8292858,3.5606303 3.4271221,3.1596399 C 3.5568824,2.9943553 3.6272805,2.7902124 3.6270249,2.5800636 3.6270249,2.3929162 3.5715196,2.2099659 3.4675488,2.0543571 3.363578,1.8987459 3.2157884,1.7774625 3.0428832,1.7058435 2.8699781,1.6342233 2.6797173,1.6154841 2.4961606,1.6519947 2.3126063,1.6885065 2.1439993,1.7786288 2.0116637,1.9109645 1.879328,2.0433002 1.7892057,2.2119071 1.7526939,2.3954615 1.7161833,2.5790181 1.7349225,2.7692789 1.8065427,2.9421841 1.8781617,3.1150892 1.9994451,3.2628788 2.1550563,3.3668496 2.3106651,3.4708204 2.4936154,3.5263257 2.6807628,3.5263257 2.8909116,3.5265813 3.0950545,3.4561832 3.260339,3.326423 l 0.4009904,0.4021637 c 0.01099,0.011071 0.024082,0.019876 0.038475,0.025882 0.014428,0.00601 0.029879,0.0091 0.045492,0.0091 0.015625,0 0.031075,-0.00309 0.045492,-0.0091 0.014416,-0.00601 0.027497,-0.014811 0.038498,-0.025882 0.011071,-0.011001 0.019877,-0.024082 0.025882,-0.038498 0.00601,-0.014416 0.0091,-0.029867 0.0091,-0.045492 0,-0.015613 -0.00309,-0.031063 -0.0091,-0.045491 -0.00601,-0.014393 -0.014811,-0.027486 -0.025883,-0.038475 z M 1.9710756,2.5800636 c 0,-0.1403594 0.041623,-0.2775706 0.1196059,-0.3942793 0.077979,-0.1167087 0.1888191,-0.2076709 0.318498,-0.2613849 0.1296789,-0.053716 0.2723849,-0.067769 0.4100445,-0.040387 0.1376597,0.027384 0.2641207,0.094976 0.3633635,0.194228 0.099254,0.099252 0.1668528,0.2257072 0.1942337,0.3633738 0.027381,0.1376481 0.013324,0.2803611 -0.04038,0.4100516 C 3.2827247,2.9813445 3.1917416,3.0921692 3.0750503,3.1701531 2.9583358,3.2481254 2.8211408,3.2897486 2.6807628,3.2897486 2.4925431,3.2897486 2.3120324,3.2149941 2.1789393,3.0818883 2.0458451,2.9487941 1.9710756,2.7682798 1.9710756,2.5800636 Z"
       id="path2"
       style="fill:url(#linearGradient2)"
       sodipodi:nodetypes="ccccccscccccccsscssccscccccccscs" />
  </g>
</svg>
