<?xml version="1.0" encoding="UTF-8" standalone="no"?>
<svg
   width="16"
   height="16"
   viewBox="0 0 16 16"
   fill="none"
   version="2"
   id="svg1"
   sodipodi:docname="folder-python.svg"
   inkscape:version="1.4.2 (ebf0e940d0, 2025-05-08)"
   xml:space="preserve"
   xmlns:inkscape="http://www.inkscape.org/namespaces/inkscape"
   xmlns:sodipodi="http://sodipodi.sourceforge.net/DTD/sodipodi-0.dtd"
   xmlns="http://www.w3.org/2000/svg"
   xmlns:svg="http://www.w3.org/2000/svg"
   xmlns:rdf="http://www.w3.org/1999/02/22-rdf-syntax-ns#"
   xmlns:cc="http://creativecommons.org/ns#"
   xmlns:dc="http://purl.org/dc/elements/1.1/"><title
     id="title1">folder-</title><sodipodi:namedview
     id="namedview1"
     pagecolor="#3f4354"
     bordercolor="#000000"
     borderopacity="0.5"
     inkscape:showpageshadow="1"
     inkscape:pageopacity="0"
     inkscape:pagecheckerboard="1"
     inkscape:deskcolor="#2b2f40"
     showgrid="false"
     inkscape:zoom="35.682514"
     inkscape:cx="9.234215"
     inkscape:cy="7.188395"
     inkscape:window-width="1920"
     inkscape:window-height="1048"
     inkscape:window-x="0"
     inkscape:window-y="0"
     inkscape:window-maximized="1"
     inkscape:current-layer="g2" /><g
     id="g1"><g
       style="fill:none"
       id="g2"
       transform="matrix(0.23333333,0,0,0.23333333,0.53333344,0.53333344)"><path
         d="M 32,23 H 11 C 9.4087,23 7.88258,23.6321 6.75736,24.7574 5.63214,25.8826 5,27.4087 5,29 v 12 c 0,1.5913 0.63214,3.1174 1.75736,4.2426 C 7.88258,46.3679 9.4087,47 11,47 h 8 m 13,-6 h 21 c 1.5913,0 3.1174,-0.6321 4.2426,-1.7574 C 58.3679,38.1174 59,36.5913 59,35 V 23 C 59,21.4087 58.3679,19.8826 57.2426,18.7574 56.1174,17.6321 54.5913,17 53,17 h -9"
         stroke="url(#paint0_linear_695_33)"
         stroke-width="6"
         stroke-linecap="round"
         stroke-linejoin="round"
         id="path1"
         style="stroke:url(#paint0_linear_695_33)" /><path
         d="M 20,20 V 11 C 20,9.4087 20.6321,7.88258 21.7574,6.75736 22.8826,5.63214 24.4087,5 26,5 h 12 c 1.5913,0 3.1174,0.63214 4.2426,1.75736 C 43.3679,7.88258 44,9.4087 44,11 v 15 c 0,1.5913 -0.6321,3.1174 -1.7574,4.2426 C 41.1174,31.3679 39.5913,32 38,32 H 26 c -1.5913,0 -3.1174,0.6321 -4.2426,1.7574 C 20.6321,34.8826 20,36.4087 20,38 v 15 c 0,1.5913 0.6321,3.1174 1.7574,4.2426 C 22.8826,58.3679 24.4087,59 26,59 h 12 c 1.5913,0 3.1174,-0.6321 4.2426,-1.7574 C 43.3679,56.1174 44,54.5913 44,53 v -9"
         stroke="url(#paint1_linear_695_33)"
         stroke-width="6"
         stroke-linejoin="round"
         id="path2"
         style="stroke:url(#paint1_linear_695_33)" /></g></g><defs
     id="defs1"><linearGradient
       id="paint0_linear_695_33"
       x1="45.5"
       y1="41"
       x2="45.5"
       y2="17"
       gradientUnits="userSpaceOnUse"><stop
         stop-color="#FD5900"
         id="stop2" /><stop
         offset="1"
         stop-color="#FFDE00"
         id="stop3" /></linearGradient><linearGradient
       id="paint1_linear_695_33"
       x1="32"
       y1="59"
       x2="32"
       y2="5"
       gradientUnits="userSpaceOnUse"><stop
         stop-color="#5570FF"
         id="stop4" /><stop
         offset="1"
         stop-color="#4DD3FF"
         id="stop5" /></linearGradient></defs><metadata
     id="metadata1"><rdf:RDF><cc:Work
         rdf:about=""><dc:title>folder-</dc:title><dc:date>26-07-2025</dc:date><dc:description>Beautyline style * folder icon</dc:description><cc:license
           rdf:resource="http://creativecommons.org/licenses/by-nc-sa/4.0/" /></cc:Work><cc:License
         rdf:about="http://creativecommons.org/licenses/by-nc-sa/4.0/"><cc:permits
           rdf:resource="http://creativecommons.org/ns#Reproduction" /><cc:permits
           rdf:resource="http://creativecommons.org/ns#Distribution" /><cc:requires
           rdf:resource="http://creativecommons.org/ns#Notice" /><cc:requires
           rdf:resource="http://creativecommons.org/ns#Attribution" /><cc:prohibits
           rdf:resource="http://creativecommons.org/ns#CommercialUse" /><cc:permits
           rdf:resource="http://creativecommons.org/ns#DerivativeWorks" /><cc:requires
           rdf:resource="http://creativecommons.org/ns#ShareAlike" /></cc:License></rdf:RDF></metadata></svg>
