<?xml version="1.0" encoding="UTF-8" standalone="no"?>
<svg
   width="16"
   height="16"
   viewBox="0 0 16 16"
   fill="none"
   version="1.1"
   id="svg7390"
   sodipodi:docname="folder-iso-images.svg"
   inkscape:version="1.2.2 (b0a8486541, 2022-12-01)"
   xmlns:inkscape="http://www.inkscape.org/namespaces/inkscape"
   xmlns:sodipodi="http://sodipodi.sourceforge.net/DTD/sodipodi-0.dtd"
   xmlns="http://www.w3.org/2000/svg"
   xmlns:svg="http://www.w3.org/2000/svg">
  <sodipodi:namedview
     id="namedview7392"
     pagecolor="#ffffff"
     bordercolor="#000000"
     borderopacity="0.25"
     inkscape:showpageshadow="2"
     inkscape:pageopacity="0.0"
     inkscape:pagecheckerboard="0"
     inkscape:deskcolor="#d1d1d1"
     showgrid="false"
     inkscape:zoom="50.1875"
     inkscape:cx="4.1145704"
     inkscape:cy="7.9501868"
     inkscape:window-width="1920"
     inkscape:window-height="1053"
     inkscape:window-x="0"
     inkscape:window-y="27"
     inkscape:window-maximized="1"
     inkscape:current-layer="svg7390" />
  <g
     id="g1042"
     transform="matrix(0.73,0,0,0.73,-15.762179,-18.345392)">
    <path
       d="m 32.551493,26.482702 c -5.28609,0 -9.62406,4.338045 -9.62406,9.62406 0,5.286015 4.33797,9.62406 9.62406,9.62406 5.286015,0 9.62406,-4.338045 9.62406,-9.62406 0,-5.286015 -4.338045,-9.62406 -9.62406,-9.62406 z m 0,18.1203 c -4.664376,0 -8.49624,-3.831879 -8.49624,-8.49624 0,-4.664361 3.831864,-8.49624 8.49624,-8.49624 4.664361,0 8.49624,3.831879 8.49624,8.49624 0,4.664361 -3.831879,8.49624 -8.49624,8.49624 z m -2.192331,-3.301053 c -0.670676,-0.28421 -1.274285,-0.691127 -1.792933,-1.209923 -0.518826,-0.518648 -0.925788,-1.122257 -1.209953,-1.792933 -0.121163,-0.287519 -0.454903,-0.421354 -0.739023,-0.299549 -0.286932,0.12105 -0.420707,0.45203 -0.299595,0.738947 0.340858,0.805113 0.828783,1.528722 1.451099,2.150977 0.622285,0.622406 1.345894,1.110226 2.151007,1.451129 0.286465,0.12135 0.617894,-0.0125 0.738947,-0.2997 0.1212,-0.286766 -0.01262,-0.617744 -0.299549,-0.738948 z m 8.426166,-7.826916 C 38.444425,32.66992 37.956605,31.946311 37.334199,31.323905 36.711944,30.70165 35.988335,30.21383 35.183222,29.872927 c -0.285263,-0.1206 -0.617894,0.01162 -0.738947,0.299549 -0.1212,0.286917 0.01262,0.617895 0.299549,0.738947 0.670676,0.284212 1.274285,0.691279 1.792933,1.209925 0.518796,0.518798 0.925713,1.122407 1.209923,1.793083 0.1215,0.28782 0.453384,0.420451 0.739099,0.299549 0.286916,-0.12105 0.420751,-0.45203 0.299549,-0.738947 z m -6.233835,-1.31564 c -2.176391,0 -3.947369,1.770978 -3.947369,3.947369 0,2.176391 1.770978,3.947369 3.947369,3.947369 2.176391,0 3.947369,-1.770978 3.947369,-3.947369 0,-2.176391 -1.770978,-3.947369 -3.947369,-3.947369 z m 0,6.766918 c -1.554586,0 -2.819549,-1.264963 -2.819549,-2.819549 0,-1.554586 1.264963,-2.819549 2.819549,-2.819549 1.554586,0 2.819549,1.264963 2.819549,2.819549 0,1.554586 -1.264963,2.819549 -2.819549,2.819549 z m 0,-4.511278 c -0.932932,0 -1.691729,0.758797 -1.691729,1.691729 0,0.932932 0.758797,1.691729 1.691729,1.691729 0.932932,0 1.691729,-0.758797 1.691729,-1.691729 0,-0.932932 -0.758797,-1.691729 -1.691729,-1.691729 z m 0,2.255639 c -0.311127,0 -0.56391,-0.252783 -0.56391,-0.56391 0,-0.311127 0.252783,-0.56391 0.56391,-0.56391 0.311127,0 0.56391,0.252783 0.56391,0.56391 0,0.311127 -0.252783,0.56391 -0.56391,0.56391 z"
       fill="url(#paint1_linear)"
       stroke="url(#paint2_linear)"
       stroke-width="0.75188"
       id="path4-6"
       style="fill:url(#paint1_linear);stroke:url(#paint1_linear)" />
  </g>
  <defs
     id="defs7388">
    <linearGradient
       id="paint0_linear_647_17"
       x1="1"
       y1="1.38889"
       x2="15.5559"
       y2="11.1133"
       gradientUnits="userSpaceOnUse">
      <stop
         stop-color="#37CE90"
         id="stop7370" />
      <stop
         offset="1"
         stop-color="#9FF66A"
         id="stop7372" />
    </linearGradient>
    <linearGradient
       id="paint1_linear_647_17"
       x1="1"
       y1="1.38889"
       x2="15.5559"
       y2="11.1133"
       gradientUnits="userSpaceOnUse">
      <stop
         stop-color="#37CE90"
         id="stop7375" />
      <stop
         offset="1"
         stop-color="#9FF66A"
         id="stop7377" />
    </linearGradient>
    <linearGradient
       id="paint2_linear_647_17"
       x1="5"
       y1="4.22222"
       x2="12.2119"
       y2="7.83577"
       gradientUnits="userSpaceOnUse">
      <stop
         stop-color="#37CE90"
         id="stop7380" />
      <stop
         offset="1"
         stop-color="#9FF66A"
         id="stop7382" />
    </linearGradient>
    <clipPath
       id="clip0_647_17">
      <rect
         width="16"
         height="16"
         fill="white"
         id="rect7385" />
    </clipPath>
    <linearGradient
       id="paint1_linear"
       x1="-394.95786"
       y1="-595.82025"
       x2="-1279.4076"
       y2="288.62952"
       gradientUnits="userSpaceOnUse"
       gradientTransform="matrix(0.02261293,0,0,0.02261293,51.482647,39.580003)">
      <stop
         stop-color="#FE7970"
         id="stop11" />
      <stop
         offset="1"
         stop-color="#DC3282"
         id="stop13-3" />
    </linearGradient>
  </defs>
</svg>
