<?xml version="1.0" encoding="UTF-8" standalone="no"?>
<svg
   width="16"
   height="16"
   viewBox="0 0 16 16"
   fill="none"
   version="2"
   id="svg1"
   sodipodi:docname="folder-test_alt1.svg"
   inkscape:version="1.4.2 (ebf0e940d0, 2025-05-08)"
   xml:space="preserve"
   xmlns:inkscape="http://www.inkscape.org/namespaces/inkscape"
   xmlns:sodipodi="http://sodipodi.sourceforge.net/DTD/sodipodi-0.dtd"
   xmlns="http://www.w3.org/2000/svg"
   xmlns:svg="http://www.w3.org/2000/svg"
   xmlns:rdf="http://www.w3.org/1999/02/22-rdf-syntax-ns#"
   xmlns:cc="http://creativecommons.org/ns#"
   xmlns:dc="http://purl.org/dc/elements/1.1/"><title
     id="title1">folder-</title><sodipodi:namedview
     id="namedview1"
     pagecolor="#3f4354"
     bordercolor="#000000"
     borderopacity="0.5"
     inkscape:showpageshadow="1"
     inkscape:pageopacity="0"
     inkscape:pagecheckerboard="1"
     inkscape:deskcolor="#2b2f40"
     showgrid="false"
     inkscape:zoom="17.6875"
     inkscape:cx="7.9717314"
     inkscape:cy="16.706714"
     inkscape:window-width="1920"
     inkscape:window-height="1048"
     inkscape:window-x="0"
     inkscape:window-y="0"
     inkscape:window-maximized="1"
     inkscape:current-layer="g1" /><g
     id="g1"><g
       id="g11"
       transform="matrix(0.74999965,0,0,0.74999965,3.7743922e-7,1.908614e-5)"
       style="fill:url(#linearGradient3)" /><g
       style="fill:none"
       id="g2"
       transform="matrix(0.70217944,0,0,0.70217944,0.27587625,0.27617843)"><path
         d="M 15.928,4.59635 C 15.656,4.59154 15.3937,4.6962 15.2018,4.88607 l -0.4575,0.4529 0.0089,0.00873 -4.1197,4.05629 c -0.2926,0.2881 -0.2926,0.75521 0,1.04321 l 2.1958,2.1621 c 0.2926,0.2881 0.7669,0.2881 1.0595,0 l 4.131,-4.06747 8e-4,7.8e-4 2.7202,-2.60368 C 21.2184,5.48177 20.898,4.68415 20.232,4.6724 Z"
         fill="url(#paint0_linear_451_3032)"
         id="path1"
         style="fill:url(#paint0_linear_451_3032)" /><path
         d="M 6.07245,9.17448 C 6.34442,9.16967 6.6067,9.27425 6.79855,9.4642 L 7.25611,9.91706 7.24725,9.92579 11.3669,13.9821 c 0.2926,0.2881 0.2926,0.7552 0,1.0433 l -2.19575,2.1619 c -0.29257,0.2881 -0.76698,0.2881 -1.05958,0 L 3.98062,13.1199 3.9798,13.1207 1.25963,10.5171 C 0.782021,10.0599 1.10244,9.26227 1.7684,9.25053 Z"
         fill="url(#paint1_linear_451_3032)"
         id="path2"
         style="fill:url(#paint1_linear_451_3032)" /></g></g><defs
     id="defs1"><linearGradient
       id="paint0_linear_451_3032"
       x1="13.3523"
       y1="13.0948"
       x2="3.69727"
       y2="3.70258"
       gradientUnits="userSpaceOnUse"><stop
         stop-color="#2AD454"
         id="stop2" /><stop
         offset="1"
         stop-color="#B3FF5A"
         id="stop3" /></linearGradient><linearGradient
       id="paint1_linear_451_3032"
       x1="13.3518"
       y1="13.0948"
       x2="3.69684"
       y2="3.70247"
       gradientUnits="userSpaceOnUse"><stop
         stop-color="#2AD454"
         id="stop4" /><stop
         offset="1"
         stop-color="#B3FF5A"
         id="stop5" /></linearGradient></defs><metadata
     id="metadata1"><rdf:RDF><cc:Work
         rdf:about=""><dc:title>folder-</dc:title><dc:date>26-07-2025</dc:date><dc:description>Beautyline style * folder icon</dc:description><cc:license
           rdf:resource="http://creativecommons.org/licenses/by-nc-sa/4.0/" /></cc:Work><cc:License
         rdf:about="http://creativecommons.org/licenses/by-nc-sa/4.0/"><cc:permits
           rdf:resource="http://creativecommons.org/ns#Reproduction" /><cc:permits
           rdf:resource="http://creativecommons.org/ns#Distribution" /><cc:requires
           rdf:resource="http://creativecommons.org/ns#Notice" /><cc:requires
           rdf:resource="http://creativecommons.org/ns#Attribution" /><cc:prohibits
           rdf:resource="http://creativecommons.org/ns#CommercialUse" /><cc:permits
           rdf:resource="http://creativecommons.org/ns#DerivativeWorks" /><cc:requires
           rdf:resource="http://creativecommons.org/ns#ShareAlike" /></cc:License></rdf:RDF></metadata></svg>
