<?xml version="1.0" encoding="UTF-8" standalone="no"?>
<svg
   width="16"
   height="16"
   viewBox="0 0 16 16"
   fill="none"
   version="2"
   id="svg1"
   sodipodi:docname="folder-cmake.svg"
   inkscape:version="1.4.2 (ebf0e940d0, 2025-05-08)"
   xml:space="preserve"
   xmlns:inkscape="http://www.inkscape.org/namespaces/inkscape"
   xmlns:sodipodi="http://sodipodi.sourceforge.net/DTD/sodipodi-0.dtd"
   xmlns:xlink="http://www.w3.org/1999/xlink"
   xmlns="http://www.w3.org/2000/svg"
   xmlns:svg="http://www.w3.org/2000/svg"
   xmlns:rdf="http://www.w3.org/1999/02/22-rdf-syntax-ns#"
   xmlns:cc="http://creativecommons.org/ns#"
   xmlns:dc="http://purl.org/dc/elements/1.1/"><title
     id="title1">folder-</title><sodipodi:namedview
     id="namedview1"
     pagecolor="#3f4354"
     bordercolor="#000000"
     borderopacity="0.5"
     inkscape:showpageshadow="1"
     inkscape:pageopacity="0"
     inkscape:pagecheckerboard="1"
     inkscape:deskcolor="#2b2f40"
     showgrid="false"
     inkscape:zoom="53.0625"
     inkscape:cx="8"
     inkscape:cy="8"
     inkscape:window-width="1920"
     inkscape:window-height="1048"
     inkscape:window-x="0"
     inkscape:window-y="0"
     inkscape:window-maximized="1"
     inkscape:current-layer="g1" /><g
     id="g1"><g
       id="g11"
       transform="matrix(0.74999965,0,0,0.74999965,3.7743922e-7,1.908614e-5)"
       style="fill:url(#linearGradient3)" /><g
       style="fill:none"
       id="g2"
       transform="matrix(0.11120045,0,0,0.11120045,0.90912725,0.88315005)"><path
         d="m 85.3581,114.237 c 2.3156,0 4.195,1.954 4.195,4.362 0,2.408 -1.8794,4.362 -4.195,4.362 H 9.76382 c -7.71605,0 -9.24024,-4.257 -3.40077,-9.503 L 65.1381,60.6775 c 3.5042,-3.1463 6.9693,-1.8465 7.73,2.9021 l 2.6457,16.4903 c 0.3859,2.3757 -1.1551,4.6293 -3.44,5.0306 -2.282,0.4013 -4.4523,-1.2009 -4.8382,-3.5766 L 65.6695,71.7244 18.3216,114.237 Z"
         fill="url(#paint0_linear)"
         stroke="url(#paint1_linear)"
         stroke-width="4"
         id="path1"
         style="fill:url(#paint0_linear-3);stroke:url(#paint0_linear-3)" /><path
         d="m 24.758,89.0205 c -1.1646,2.0958 -3.747,2.8138 -5.7668,1.6054 -2.017,-1.2084 -2.7118,-3.888 -1.5472,-5.9838 l 33.7004,-61.1809 7.961,-14.39034 4.1914,10.62494 -4.7259,7.9103 z"
         fill="url(#paint2_linear)"
         stroke="url(#paint3_linear)"
         stroke-width="4"
         id="path2"
         style="fill:url(#paint2_linear);stroke:url(#paint2_linear)" /><path
         d="M 59.5137,12.8797 59.0666,8.99793 60.2487,7.04829 c 1.6461,-2.726 4.234,-2.67055 5.7711,0.12258 L 66.9477,8.852 123.736,116.211 c 2.236,4.232 0.523,6.325 -3.826,4.673 L 56.2159,96.7028 c -2.1743,-0.8201 -3.3005,-3.3301 -2.5152,-5.6038 0.7881,-2.2707 3.1916,-3.4469 5.3659,-2.6267 l 51.3944,19.5257 z"
         fill="url(#paint4_linear)"
         stroke="url(#paint5_linear)"
         stroke-width="4"
         id="path3"
         style="fill:url(#paint4_linear);stroke:url(#paint4_linear)" /></g></g><defs
     id="defs1"><linearGradient
       id="paint0_linear"
       x1="94.0831"
       y1="102.397"
       x2="94.0831"
       y2="5"
       gradientUnits="userSpaceOnUse"
       gradientTransform="matrix(1.0455138,0,0,1.0223426,-7.6008048,-2.552391)"><stop
         stop-color="#FD2E00"
         id="stop14" /><stop
         offset="1"
         stop-color="#FF9900"
         id="stop16" /></linearGradient><linearGradient
       inkscape:collect="always"
       xlink:href="#paint0_linear"
       id="linearGradient3"
       x1="32.000015"
       y1="58.999977"
       x2="32.000015"
       y2="5.000001"
       gradientUnits="userSpaceOnUse" /><linearGradient
       id="paint0_linear-3"
       x1="46.1832"
       y1="122.961"
       x2="46.1832"
       y2="58.9606"
       gradientUnits="userSpaceOnUse"><stop
         stop-color="#00B59C"
         id="stop3" /><stop
         offset="1"
         stop-color="#9CFFAC"
         id="stop4" /></linearGradient><linearGradient
       id="paint2_linear"
       x1="16.8792"
       y1="91.2126"
       x2="79.7163"
       y2="75.7359"
       gradientUnits="userSpaceOnUse"><stop
         stop-color="#0357D1"
         id="stop7" /><stop
         offset="1"
         stop-color="#27CDFC"
         id="stop8" /></linearGradient><linearGradient
       id="paint4_linear"
       x1="89.0842"
       y1="121.449"
       x2="89.0842"
       y2="5.03937"
       gradientUnits="userSpaceOnUse"><stop
         stop-color="#FD2E00"
         id="stop11" /><stop
         offset="1"
         stop-color="#FF9900"
         id="stop12" /></linearGradient></defs><metadata
     id="metadata1"><rdf:RDF><cc:Work
         rdf:about=""><dc:title>folder-</dc:title><dc:date>26-07-2025</dc:date><dc:description>Beautyline style * folder icon</dc:description><cc:license
           rdf:resource="http://creativecommons.org/licenses/by-nc-sa/4.0/" /></cc:Work><cc:License
         rdf:about="http://creativecommons.org/licenses/by-nc-sa/4.0/"><cc:permits
           rdf:resource="http://creativecommons.org/ns#Reproduction" /><cc:permits
           rdf:resource="http://creativecommons.org/ns#Distribution" /><cc:requires
           rdf:resource="http://creativecommons.org/ns#Notice" /><cc:requires
           rdf:resource="http://creativecommons.org/ns#Attribution" /><cc:prohibits
           rdf:resource="http://creativecommons.org/ns#CommercialUse" /><cc:permits
           rdf:resource="http://creativecommons.org/ns#DerivativeWorks" /><cc:requires
           rdf:resource="http://creativecommons.org/ns#ShareAlike" /></cc:License></rdf:RDF></metadata></svg>
