<svg version="1.1" viewBox="0 0 16 16" xmlns="http://www.w3.org/2000/svg">
 <defs>
  <linearGradient id="c" x1="64.03" x2="64.03" y1="89.413" y2="5.9365" gradientTransform="matrix(.10806 0 0 .10806 1.1074 1.0985)" gradientUnits="userSpaceOnUse">
   <stop stop-color="#5570FF" offset="0"/>
   <stop stop-color="#4DD3FF" offset="1"/>
  </linearGradient>
  <linearGradient id="b" x1="62.265" x2="62.265" y1="122.28" y2="54.678" gradientTransform="matrix(.10806 0 0 .10806 1.1074 1.0985)" gradientUnits="userSpaceOnUse">
   <stop stop-color="#02AA93" offset="0"/>
   <stop stop-color="#67FF80" offset="1"/>
  </linearGradient>
  <linearGradient id="a" x1="87.031" x2="87.031" y1="52.432" y2="26.18" gradientTransform="matrix(.10806 0 0 .10806 1.1074 1.0985)" gradientUnits="userSpaceOnUse">
   <stop stop-color="#FD5900" offset="0"/>
   <stop stop-color="#FFDE00" offset="1"/>
  </linearGradient>
 </defs>
 <g stroke-width=".10806">
  <path d="m9.8722 1.5833c-0.53028 0.00344-1.0739 0.00702-1.678 0.00549h-0.016885c-0.00149-5e-6 -0.00295 5e-6 -0.00443 0-1.2953-0.00438-2.5906-0.0027-3.8859-0.00106-0.3253 4.157e-4 -0.65058 7.372e-4 -0.9759 0.00106h-4.178e-4c-1.1434-6.607e-4 -2.1855 0.90133-2.25 1.9799l-2.111e-4 0.00359v0.0038c-0.0089 0.64282-0.00735 1.2855-0.0057 1.9265 7.059e-4 0.27408 0.00138 0.54788 0.00127 0.82162-8e-7 0.00197 9e-7 0.00394 0 0.00591v0.059729c-0.0026 1.4495-0.00257 2.8997-8.442e-4 4.3492l4.22e-4 0.39614 0.27732-0.28281c0.10248-0.10451 0.20853-0.20676 0.31636-0.31089 0.22646-0.21867 0.46149-0.44561 0.66587-0.69858 0.00386-0.00158 0.00781-0.00321 0.01182-0.00485l0.00295-0.00105 2.161e-4 -2.161e-4h2.161e-4l2.161e-4 -2.159e-4 0.00211-6.344e-4v-2.161e-4h4.221e-4l2.162e-4 -2.161e-4h4.331e-4c0.021061-0.00863 0.043074-0.017782 0.05804-0.02406l0.19688-0.082508-0.13254-0.16758-0.058673-0.07408c-0.00602-1.3893-0.00503-2.7788-0.00401-4.1687 3.784e-4 -0.52819 6.365e-4 -1.0563 6.365e-4 -1.5846v-0.0019c-0.0035603-0.32393 0.21421-0.65665 0.54811-0.79061l0.0038-0.00148 0.00359-0.00169c0.12952-0.059712 0.28359-0.077697 0.45861-0.089698 0.55285-2.69e-4 1.1057 3.457e-4 1.6585 8.422e-4h6.563e-4c1.0357 9.297e-4 2.0716 0.00179 3.1076-0.00232h0.011819c3.062e-4 4e-7 7.437e-4 -6e-7 0.00105 0 1.5231 0.00238 3.0452 0.00391 4.5676 0.00232 0.33351 0.034958 0.6342 0.20665 0.78912 0.46305 0.06278 0.12673 0.10542 0.24287 0.10996 0.3571 2e-6 9.187e-4 -2e-6 0.00184 0 0.00274 0.0016 0.77585 0.0011 1.5517 6.56e-4 2.3279-6.56e-4 0.84823-0.0013 1.6967 0.0011 2.5453 0 1.405e-4 1e-6 2.844e-4 0 4.157e-4 1e-6 1.621e-4 0 4.593e-4 0 6.343e-4 -0.0017 0.57328-0.0017 1.1465 0 1.719-4.1e-5 0.0011 3.6e-5 0.0021 0 0.0032-0.01001 0.30245 0.21936 0.5634 0.50695 0.63527l0.0017 4.39e-4c0.20845 0.04977 0.4213-0.0071 0.57744-0.12178 0.15313-0.11261 0.26773-0.2946 0.25664-0.50885-1e-4 -0.0019 1.08e-4 -0.0038 0-0.0057 5.47e-4 -0.64092 0.0012-1.2819 0.0011-1.9229v-2.161e-4c0-0.32156-0.0011-0.64325-0.0011-0.96493v-2.161e-4c8.4e-5 -0.11838-6.9e-5 -0.23682 0-0.3552 6.56e-4 -1.0974 7.65e-4 -2.195 0-3.2924v-0.00168c0.0026-0.29684-0.07393-0.58172-0.18299-0.84315l-0.0025-0.00549c-0.05786-0.12565-0.12944-0.24539-0.2115-0.35734l0.0053-0.0038-0.11375-0.13275-2.16e-4 -2.161e-4c-0.38033-0.44358-0.95421-0.73154-1.5567-0.7887l-0.03968-0.0038h-6.56e-4l-0.04221-0.00401-0.0027 0.00317-0.34063-0.0057c-0.97226-0.016201-1.7879-0.010991-2.6383-0.00548z" fill="url(#c)"/>
  <path d="m10.536 3.9279c-0.18961-0.00312-0.37979 0.025402-0.55823 0.08822-0.61252 0.20101-1.0398 0.79054-1.0008 1.3895 0.016424 0.57591 0.45595 1.1064 1.0451 1.2883 0.01998 0.00441 0.0498 0.010686 0.07978 0.017095 0.02973 0.00635 0.05954 0.012729 0.07936 0.017095 0.70768 0.15874 1.4933-0.22165 1.7553-0.8478 0.1757-0.39245 0.14451-0.85588-0.0821-1.226-0.10555-0.17946-0.26227-0.32628-0.43097-0.4563-0.25684-0.17149-0.57145-0.26496-0.88748-0.27015z" fill="url(#a)" fill-rule="evenodd"/>
  <path d="m5.2637 6.8951c-0.020038 1.405e-4 -0.039991 0.00107-0.059939 0.00296-0.15711 0.014829-0.30898 0.08361-0.41831 0.19924-0.00103 9.844e-4 -0.00212 0.00197-0.00317 0.00296-0.8252 0.77995-1.6494 1.5598-2.4745 2.3389l-0.00274 0.00253-0.00253 0.00274c-0.00783 0.00849-0.039648 0.036584-0.071124 0.063316s-0.062665 0.05221-0.089064 0.0802c-0.00204 0.00217-0.00367 0.00393-0.00528 0.0057-0.00311 0.00282-0.00575 0.00504-0.012241 0.010975-0.01258 0.011495-0.032394 0.029866-0.064371 0.059727l-0.00148 0.00127-0.00127 0.00127c-0.37578 0.3758-0.68758 0.6518-1.0255 0.99637l-0.031025 0.03145v0.0439c-8.65e-4 0.55985-0.002643 1.121 0.00169 1.6817v0.0017l2.11e-4 0.0017c0.028573 0.75556 0.53745 1.4559 1.2635 1.7823l0.00317 0.0013 0.053819 0.02005 0.00485 0.0019 2.161e-4 -4.37e-4c0.69582 0.29788 1.4526 0.15409 2.1333 0.18509l0.00485-0.10785v0.10806c0.70061 0 1.4014 7.66e-4 2.1023 0h2.161e-4c0.6919 0 1.3832 7.66e-4 2.0753 0h2.161e-4c0.77495 0 1.5511 7.66e-4 2.3262 0h2.16e-4c0.55341 0 1.1073 0.0019 1.6614-8.75e-4h6.56e-4c0.85161-0.0083 1.6686-0.50472 2.004-1.2382l0.0019-4e-3 0.0017-0.0044c0.07641-0.21372-0.0091-0.40688-0.12621-0.54663-0.1171-0.13974-0.2658-0.25188-0.35837-0.35436l-0.0025-0.0027-0.0027-0.0025c-0.4206-0.40525-0.84179-0.80892-1.2621-1.2139l-2.17e-4 2.16e-4c-0.45918-0.44651-0.9223-0.88914-1.3883-1.3284-5.25e-4 -5.25e-4 -0.0012-9.406e-4 -0.0017-0.00149-0.3966-0.3902-0.79777-0.77554-1.1997-1.1589l-4.16e-4 4.156e-4c-0.10822-0.1305-0.25275-0.26241-0.42759-0.33916-0.17924-0.078688-0.39878-0.092782-0.59875 0.030602l-0.00549 0.00338-0.00506 0.00401c-0.41921 0.33324-0.80434 0.69726-1.2024 1.0396-0.0034387 0.0029554-0.0081244 0.0071554-0.013296 0.011607-0.096679-0.082011-0.19151-0.16575-0.28492-0.25073-0.26896-0.2447-0.52624-0.50012-0.78216-0.75663-0.33296-0.33372-0.66383-0.66929-1.0156-0.98604-0.0977-0.0953-0.1964-0.19052-0.298-0.28365l-0.00296-0.00274-0.00317-0.00253c-0.11458-0.090001-0.25524-0.13203-0.39551-0.13107zm-0.0057 1.455c0.028493 0.02629 0.057384 0.052176 0.085265 0.079144l0.029336 0.030814 0.00127 0.00127c0.47464 0.46556 0.95492 0.92681 1.4322 1.39l0.075346-0.077667-0.069858 0.082521c0.3153 0.26719 0.57025 0.6563 1.0012 0.87523l0.015407 8e-3 0.017307 0.0025c0.20746 0.03159 0.44257-0.0024 0.60994-0.15872 0.38322-0.32944 0.75409-0.66653 1.1369-0.98856 0.041982 0.041296 0.083962 0.082493 0.12579 0.12409l8.531e-4 6.343e-4 6.344e-4 6.344e-4c0.33614 0.32186 0.67101 0.64566 1.0086 0.9681l4.15e-4 4.16e-4c0.44641 0.43074 0.89434 0.86059 1.3423 1.2903v-2.16e-4c0.37249 0.3588 0.74609 0.71615 1.1162 1.0753-0.18768 0.13274-0.40408 0.19559-0.65405 0.20768-0.29099 0.01407-0.60874-0.01999-0.91217-0.0017v-2.16e-4c-0.7545-0.0016-1.509-7.66e-4 -2.2642 0h-4.15e-4c-0.69112-6.99e-4 -1.3823-8.08e-4 -2.0734-8.08e-4h-2.161e-4c-0.71873-8.75e-4 -1.4374-1.08e-4 -2.1559 8.75e-4 -0.0012 1e-6 -0.00239-1e-6 -0.00359 0-0.7268-0.02295-1.4494 0.04105-2.1487-0.03567-0.10037-0.037-0.19556-0.06901-0.26931-0.1148l-0.00253-0.0017-0.00274-0.0013c-0.30785-0.16808-0.48201-0.50822-0.46896-0.83234v-0.0027c0.0059-0.36699-0.00793-0.72858 0.0076-1.0835 1.0225-0.93353 2.0096-1.8974 3.0193-2.8377zm-3.0524 1.2117c-3.7e-6 6e-7 0.00698 0.087654 0.00802 0.10046-0.00401-0.010039-0.036443-0.09101-0.037356-0.093285 0.00538-0.0019 0.011192-0.00401 0.011186-0.00401-4.8e-6 1.3e-6 0.018155-0.00317 0.018151-0.00317zm0.00823 0.10785c-0.00526 0.00452-0.023055 0.020738-0.077034 0.071124l-0.00485-0.00485s0.077869-0.063024 0.081888-0.06627z" fill="url(#b)"/>
 </g>
</svg>
