<?xml version="1.0" encoding="UTF-8" standalone="no"?>
<svg
   width="16"
   height="16"
   viewBox="0 0 16 16"
   fill="none"
   version="2"
   id="svg1"
   sodipodi:docname="folder-table.svg"
   inkscape:version="1.4.2 (ebf0e940d0, 2025-05-08)"
   xml:space="preserve"
   xmlns:inkscape="http://www.inkscape.org/namespaces/inkscape"
   xmlns:sodipodi="http://sodipodi.sourceforge.net/DTD/sodipodi-0.dtd"
   xmlns="http://www.w3.org/2000/svg"
   xmlns:svg="http://www.w3.org/2000/svg"
   xmlns:rdf="http://www.w3.org/1999/02/22-rdf-syntax-ns#"
   xmlns:cc="http://creativecommons.org/ns#"
   xmlns:dc="http://purl.org/dc/elements/1.1/"><title
     id="title1">folder-</title><sodipodi:namedview
     id="namedview1"
     pagecolor="#3f4354"
     bordercolor="#000000"
     borderopacity="0.5"
     inkscape:showpageshadow="1"
     inkscape:pageopacity="0"
     inkscape:pagecheckerboard="1"
     inkscape:deskcolor="#2b2f40"
     showgrid="false"
     inkscape:zoom="17.3125"
     inkscape:cx="17.99278"
     inkscape:cy="19.379061"
     inkscape:window-width="1920"
     inkscape:window-height="1048"
     inkscape:window-x="0"
     inkscape:window-y="0"
     inkscape:window-maximized="1"
     inkscape:current-layer="g1" /><g
     id="g1"><g
       id="g11"
       transform="matrix(0.74999965,0,0,0.74999965,3.7743922e-7,1.908614e-5)"
       style="fill:url(#linearGradient3)" /><g
       style="fill:none"
       id="g3"
       transform="matrix(0.625,0,0,0.625,0.50000003,0.50000003)"><g
         clip-path="url(#clip0_1005_174)"
         id="g2"><path
           d="M 6.33333,20 C 5.97971,20 5.64057,19.8595 5.39052,19.6095 5.14048,19.3594 5,19.0203 5,18.6667 V 13.3333 C 5,12.9797 5.14048,12.6406 5.39052,12.3905 5.64057,12.1405 5.97971,12 6.33333,12 c 0.35363,0 0.69276,0.1405 0.94281,0.3905 0.25005,0.2501 0.39053,0.5892 0.39053,0.9428 v 5.3334 c 0,0.3536 -0.14048,0.6927 -0.39053,0.9428 C 7.02609,19.8595 6.68696,20 6.33333,20 Z M 12,20 c -0.3536,0 -0.6928,-0.1405 -0.9428,-0.3905 -0.2501,-0.2501 -0.3905,-0.5892 -0.3905,-0.9428 V 5.33333 c 0,-0.35362 0.1404,-0.69276 0.3905,-0.94281 C 11.3072,4.14048 11.6464,4 12,4 c 0.3536,0 0.6928,0.14048 0.9428,0.39052 0.2501,0.25005 0.3905,0.58919 0.3905,0.94281 V 18.6667 c 0,0.3536 -0.1404,0.6927 -0.3905,0.9428 C 12.6928,19.8595 12.3536,20 12,20 Z m 5.6667,0 c -0.3537,0 -0.6928,-0.1405 -0.9428,-0.3905 -0.2501,-0.2501 -0.3906,-0.5892 -0.3906,-0.9428 v -8 c 0,-0.3537 0.1405,-0.69279 0.3906,-0.94284 0.25,-0.25005 0.5891,-0.39053 0.9428,-0.39053 0.3536,0 0.6927,0.14048 0.9428,0.39053 C 18.8595,9.97391 19,10.313 19,10.6667 v 8 c 0,0.3536 -0.1405,0.6927 -0.3905,0.9428 C 18.3594,19.8595 18.0203,20 17.6667,20 Z"
           fill="url(#paint0_linear_1005_174)"
           id="path1"
           style="fill:url(#paint0_linear_1005_174)" /><path
           d="M 19,2 H 5 C 4.20435,2 3.44129,2.31607 2.87868,2.87868 2.31607,3.44129 2,4.20435 2,5 v 14 c 0,0.7956 0.31607,1.5587 0.87868,2.1214 C 3.44129,21.6839 4.20435,22 5,22 h 14 c 0.7956,0 1.5587,-0.3161 2.1214,-0.8786 C 21.6839,20.5587 22,19.7956 22,19 V 5 C 22,4.20435 21.6839,3.44129 21.1214,2.87868 20.5587,2.31607 19.7956,2 19,2 Z"
           stroke="url(#paint1_linear_1005_174)"
           stroke-width="2.4"
           id="path2"
           style="stroke:url(#paint1_linear_1005_174)" /></g></g></g><defs
     id="defs1"><linearGradient
       id="paint0_linear_1005_174"
       x1="12"
       y1="20"
       x2="12"
       y2="4"
       gradientUnits="userSpaceOnUse"><stop
         stop-color="#FD4C00"
         id="stop2" /><stop
         offset="1"
         stop-color="#FFB800"
         id="stop3" /></linearGradient><linearGradient
       id="paint1_linear_1005_174"
       x1="12"
       y1="22"
       x2="12"
       y2="2"
       gradientUnits="userSpaceOnUse"><stop
         stop-color="#FD5900"
         id="stop4" /><stop
         offset="1"
         stop-color="#FFDE00"
         id="stop5" /></linearGradient><clipPath
       id="clip0_1005_174"><rect
         width="24"
         height="24"
         fill="white"
         id="rect5" /></clipPath></defs><metadata
     id="metadata1"><rdf:RDF><cc:Work
         rdf:about=""><dc:title>folder-</dc:title><dc:date>26-07-2025</dc:date><dc:description>Beautyline style * folder icon</dc:description><cc:license
           rdf:resource="http://creativecommons.org/licenses/by-nc-sa/4.0/" /></cc:Work><cc:License
         rdf:about="http://creativecommons.org/licenses/by-nc-sa/4.0/"><cc:permits
           rdf:resource="http://creativecommons.org/ns#Reproduction" /><cc:permits
           rdf:resource="http://creativecommons.org/ns#Distribution" /><cc:requires
           rdf:resource="http://creativecommons.org/ns#Notice" /><cc:requires
           rdf:resource="http://creativecommons.org/ns#Attribution" /><cc:prohibits
           rdf:resource="http://creativecommons.org/ns#CommercialUse" /><cc:permits
           rdf:resource="http://creativecommons.org/ns#DerivativeWorks" /><cc:requires
           rdf:resource="http://creativecommons.org/ns#ShareAlike" /></cc:License></rdf:RDF></metadata></svg>
