<?xml version="1.0" encoding="UTF-8" standalone="no"?>
<svg
   width="16"
   height="16"
   viewBox="0 0 16 16"
   fill="none"
   version="1.1"
   id="svg14"
   sodipodi:docname="folder-podcast.svg"
   inkscape:version="1.4.2 (ebf0e940d0, 2025-05-08)"
   xmlns:inkscape="http://www.inkscape.org/namespaces/inkscape"
   xmlns:sodipodi="http://sodipodi.sourceforge.net/DTD/sodipodi-0.dtd"
   xmlns="http://www.w3.org/2000/svg"
   xmlns:svg="http://www.w3.org/2000/svg">
  <sodipodi:namedview
     id="namedview14"
     pagecolor="#505050"
     bordercolor="#ffffff"
     borderopacity="1"
     inkscape:showpageshadow="0"
     inkscape:pageopacity="0"
     inkscape:pagecheckerboard="1"
     inkscape:deskcolor="#d1d1d1"
     inkscape:zoom="53.0625"
     inkscape:cx="8"
     inkscape:cy="8"
     inkscape:window-width="1920"
     inkscape:window-height="1048"
     inkscape:window-x="0"
     inkscape:window-y="0"
     inkscape:window-maximized="1"
     inkscape:current-layer="svg14" />
  <g
     id="g14"
     transform="matrix(0.1147541,0,0,0.1147541,0.6557376,0.68605578)">
    <path
       d="m 85.0938,53.1885 c -13.5699,0 -24.6094,11.0393 -24.6094,24.6094 0,13.5698 11.0395,24.6091 24.6094,24.6091 13.5698,0 24.6092,-11.0393 24.6092,-24.6091 0,-13.5701 -11.0394,-24.6094 -24.6092,-24.6094 z m 0,42.1875 c -9.6926,0 -17.5782,-7.8856 -17.5782,-17.5781 0,-9.6929 7.8856,-17.5782 17.5782,-17.5782 9.6925,0 17.5782,7.8853 17.5782,17.5782 0,9.6925 -7.8857,17.5781 -17.5782,17.5781 z"
       fill="url(#paint0_linear)"
       stroke="url(#paint1_linear)"
       id="path1"
       style="fill:url(#paint0_linear);stroke:url(#paint1_linear)" />
    <path
       d="m 85.0938,67.251 c -5.8154,0 -10.5469,4.7313 -10.5469,10.5469 0,5.8153 4.7315,10.5468 10.5469,10.5468 5.8153,0 10.5468,-4.7315 10.5468,-10.5468 0,-5.8156 -4.7315,-10.5469 -10.5468,-10.5469 z m 0,14.0625 c -1.9383,0 -3.5157,-1.5776 -3.5157,-3.5156 0,-1.9383 1.5774,-3.5157 3.5157,-3.5157 1.9382,0 3.5156,1.5774 3.5156,3.5157 0,1.938 -1.5774,3.5156 -3.5156,3.5156 z"
       fill="url(#paint2_linear)"
       stroke="url(#paint3_linear)"
       id="path2"
       style="fill:url(#paint2_linear);stroke:url(#paint3_linear)" />
    <path
       fill-rule="evenodd"
       clip-rule="evenodd"
       d="m 39.1562,39.1262 h 74.2968 c 5.815,0 10.547,4.7313 10.547,10.5469 v 56.2499 c 0,5.815 -4.732,10.547 -10.547,10.547 H 14.5469 C 8.73145,116.47 4,111.738 4,105.923 V 49.6731 C 4,43.8575 8.73145,39.1262 14.5469,39.1262 h 3.5156 v -3.5156 c 0,-5.8155 4.7314,-10.5469 10.5469,-10.5469 3.5861,0 6.7575,1.7999 8.6636,4.5429 l 67.992,-18.4827 c 1.874,-0.5091 3.806,0.5969 4.316,2.471 0.508,1.8732 -0.597,3.8049 -2.471,4.3139 L 39.1562,36.3805 Z M 28.6094,32.095 c -1.9382,0 -3.5156,1.5773 -3.5156,3.5156 v 3.5156 h 7.0312 v -3.5156 c 0,-1.9383 -1.5773,-3.5156 -3.5156,-3.5156 z m 84.8436,77.344 c 1.938,0 3.516,-1.578 3.516,-3.516 V 49.6731 c 0,-1.9383 -1.578,-3.5156 -3.516,-3.5156 H 14.5469 c -1.9382,0 -3.5157,1.5773 -3.5157,3.5156 v 56.2499 c 0,1.938 1.5775,3.516 3.5157,3.516 z M 21.5781,60.22 h 28.125 c 1.9418,0 3.5157,1.5738 3.5157,3.5156 v 14.0625 c 0,1.9418 -1.5739,3.5156 -3.5157,3.5156 h -28.125 c -1.9418,0 -3.5156,-1.5738 -3.5156,-3.5156 V 63.7356 c 0,-1.9418 1.5738,-3.5156 3.5156,-3.5156 z m 3.5157,14.0625 H 46.1875 V 67.2512 H 25.0938 Z M 21.5781,88.345 c -1.9418,0 -3.5156,1.5738 -3.5156,3.5156 0,1.9418 1.5738,3.5156 3.5156,3.5156 h 7.0313 c 1.9418,0 3.5156,-1.5738 3.5156,-3.5156 0,-1.9418 -1.5738,-3.5156 -3.5156,-3.5156 z m 17.5781,3.5156 c 0,-1.9418 1.5739,-3.5156 3.5157,-3.5156 h 7.0312 c 1.9418,0 3.5157,1.5738 3.5157,3.5156 0,1.9418 -1.5739,3.5156 -3.5157,3.5156 h -7.0312 c -1.9418,0 -3.5157,-1.5738 -3.5157,-3.5156 z"
       fill="url(#paint4_linear)"
       stroke="url(#paint5_linear)"
       stroke-width="2"
       id="path3"
       style="fill:url(#paint4_linear);stroke:url(#paint5_linear)" />
  </g>
  <defs
     id="defs14">
    <linearGradient
       id="paint0_linear"
       x1="69.4052"
       y1="96.5966"
       x2="113.789"
       y2="57.8711"
       gradientUnits="userSpaceOnUse">
      <stop
         stop-color="#FE0844"
         id="stop3" />
      <stop
         offset="1"
         stop-color="#FEB302"
         id="stop4" />
    </linearGradient>
    <linearGradient
       id="paint1_linear"
       x1="69.405"
       y1="96.5967"
       x2="113.789"
       y2="57.8714"
       gradientUnits="userSpaceOnUse">
      <stop
         stop-color="#FE0844"
         id="stop5" />
      <stop
         offset="1"
         stop-color="#FEB302"
         id="stop6" />
    </linearGradient>
    <linearGradient
       id="paint2_linear"
       x1="78.37"
       y1="85.8545"
       x2="97.3916"
       y2="69.2579"
       gradientUnits="userSpaceOnUse">
      <stop
         stop-color="#FE0844"
         id="stop7" />
      <stop
         offset="1"
         stop-color="#FEB302"
         id="stop8" />
    </linearGradient>
    <linearGradient
       id="paint3_linear"
       x1="78.37"
       y1="85.8545"
       x2="97.3916"
       y2="69.2579"
       gradientUnits="userSpaceOnUse">
      <stop
         stop-color="#FE0844"
         id="stop9" />
      <stop
         offset="1"
         stop-color="#FEB302"
         id="stop10" />
    </linearGradient>
    <linearGradient
       id="paint4_linear"
       x1="12.5714"
       y1="63.7349"
       x2="109.609"
       y2="51.5343"
       gradientUnits="userSpaceOnUse">
      <stop
         stop-color="#8D01A2"
         id="stop11" />
      <stop
         offset="1"
         stop-color="#FF00D2"
         id="stop12" />
    </linearGradient>
    <linearGradient
       id="paint5_linear"
       x1="12.5714"
       y1="63.7349"
       x2="109.609"
       y2="51.5343"
       gradientUnits="userSpaceOnUse">
      <stop
         stop-color="#8D01A2"
         id="stop13" />
      <stop
         offset="1"
         stop-color="#FF00D2"
         id="stop14" />
    </linearGradient>
  </defs>
</svg>
