<?xml version="1.0" encoding="UTF-8" standalone="no"?>
<svg
   width="16"
   height="16"
   viewBox="0 0 16 16"
   fill="none"
   version="2"
   id="svg1"
   sodipodi:docname="folder-trash.svg"
   inkscape:version="1.4.2 (ebf0e940d0, 2025-05-08)"
   xml:space="preserve"
   xmlns:inkscape="http://www.inkscape.org/namespaces/inkscape"
   xmlns:sodipodi="http://sodipodi.sourceforge.net/DTD/sodipodi-0.dtd"
   xmlns="http://www.w3.org/2000/svg"
   xmlns:svg="http://www.w3.org/2000/svg"
   xmlns:rdf="http://www.w3.org/1999/02/22-rdf-syntax-ns#"
   xmlns:cc="http://creativecommons.org/ns#"
   xmlns:dc="http://purl.org/dc/elements/1.1/"><title
     id="title1">folder-trash</title><sodipodi:namedview
     id="namedview1"
     pagecolor="#3f4354"
     bordercolor="#000000"
     borderopacity="0.5"
     inkscape:showpageshadow="1"
     inkscape:pageopacity="0"
     inkscape:pagecheckerboard="1"
     inkscape:deskcolor="#2b2f40"
     showgrid="false"
     inkscape:zoom="43.404981"
     inkscape:cx="5.3219698"
     inkscape:cy="6.5545472"
     inkscape:window-width="1920"
     inkscape:window-height="1048"
     inkscape:window-x="0"
     inkscape:window-y="0"
     inkscape:window-maximized="1"
     inkscape:current-layer="g1" /><g
     id="g1"><path
       d="m 3.223515,11.696064 c -0.1492109,0.268047 -0.268065,0.671638 -0.268065,0.925808 0,0.05902 0,0.134085 0.014642,0.238123 L 1.1041891,9.6514573 C 1.0444034,9.5474253 1,9.3978873 1,9.2634413 1,9.1286323 1.0445666,8.9648553 1.1042009,8.8604573 L 1.9999266,7.2931803 1,6.7263023 4.25395,6.6660823 5.835915,9.5168903 4.8211541,8.9349283 3.2233575,11.696429 Z M 4.6565316,2.6507333 c 0.2833834,-0.493138 0.7465909,-0.761792 1.3133459,-0.761792 0.6117767,0 1.0901917,0.283861 1.4331917,0.865346 l 0.5077391,0.850739 -1.7617075,3.045484 -2.8508317,-1.65683 z M 4.8649684,14.277856 c -0.85071,0 -1.5520459,-0.701569 -1.5520459,-1.552314 0,-0.23884 0.1048075,-0.642069 0.2540125,-0.895638 l 0.4770734,-0.850739 h 3.5380449 v 3.298808 H 4.8647234 Z M 7.7012925,2.5608183 C 7.4776542,2.1732873 7.1790692,1.9039033 6.8207392,1.7544943 h 3.6722288 c 0.328516,0 0.581963,0.134686 0.73174,0.388739 l 0.910361,1.552192 0.98483,-0.582569 -1.582606,2.836569 -3.238947,-0.04562 0.999915,-0.566761 -1.5972077,-2.776707 z m 5.6569685,8.4471927 c 0.447271,0 0.820808,-0.119485 1.134,-0.357846 L 12.641,13.873904 c -0.14917,0.253569 -0.417468,0.402984 -0.730777,0.402984 h -1.746861 v 1.149085 L 8.491808,12.635149 10.163362,9.8432333 v 1.1647777 h 3.195016 z M 14.790362,8.3210953 C 14.925053,8.5600633 15,8.8135103 15,9.0822873 c 0,0.53743 -0.343723,1.1047927 -0.820808,1.3730857 -0.224245,0.120085 -0.53816,0.195031 -0.850745,0.195031 h -0.986032 l -1.760622,-3.0456017 2.85093,-1.627138 1.357639,2.343431"
       id="path1"
       style="fill:url(#linearGradient1);stroke-width:0.12069"
       inkscape:transform-center-x="287.77769"
       inkscape:transform-center-y="173.60501"
       sodipodi:nodetypes="csccscccccccccsccccccsccccccccscccccccccccsccccccccscscccc" /></g><defs
     id="defs1"><linearGradient
       id="linearGradient1"
       x1="12"
       y1="24"
       x2="36"
       y2="24"
       gradientUnits="userSpaceOnUse"
       gradientTransform="matrix(0.58333334,0,0,0.58333334,-6,-5.6189397)"><stop
         stop-color="#02AA93"
         id="stop1" /><stop
         offset="1"
         stop-color="#67FF80"
         id="stop2" /></linearGradient></defs><metadata
     id="metadata1"><rdf:RDF><cc:Work
         rdf:about=""><dc:title>folder-trash</dc:title><dc:date>28-07-2025</dc:date><dc:description>Beautyline style trash folder icon</dc:description><cc:license
           rdf:resource="http://creativecommons.org/licenses/by-nc-sa/4.0/" /></cc:Work><cc:License
         rdf:about="http://creativecommons.org/licenses/by-nc-sa/4.0/"><cc:permits
           rdf:resource="http://creativecommons.org/ns#Reproduction" /><cc:permits
           rdf:resource="http://creativecommons.org/ns#Distribution" /><cc:requires
           rdf:resource="http://creativecommons.org/ns#Notice" /><cc:requires
           rdf:resource="http://creativecommons.org/ns#Attribution" /><cc:prohibits
           rdf:resource="http://creativecommons.org/ns#CommercialUse" /><cc:permits
           rdf:resource="http://creativecommons.org/ns#DerivativeWorks" /><cc:requires
           rdf:resource="http://creativecommons.org/ns#ShareAlike" /></cc:License></rdf:RDF></metadata></svg>
