<?xml version="1.0" encoding="UTF-8" standalone="no"?>
<svg
   width="16"
   height="16"
   viewBox="0 0 16 16"
   fill="none"
   version="1.1"
   id="svg53"
   sodipodi:docname="folder-text_gedit-alt.svg"
   inkscape:version="1.4.2 (ebf0e940d0, 2025-05-08)"
   xmlns:inkscape="http://www.inkscape.org/namespaces/inkscape"
   xmlns:sodipodi="http://sodipodi.sourceforge.net/DTD/sodipodi-0.dtd"
   xmlns="http://www.w3.org/2000/svg"
   xmlns:svg="http://www.w3.org/2000/svg">
  <sodipodi:namedview
     id="namedview53"
     pagecolor="#505050"
     bordercolor="#ffffff"
     borderopacity="1"
     inkscape:showpageshadow="0"
     inkscape:pageopacity="0"
     inkscape:pagecheckerboard="1"
     inkscape:deskcolor="#d1d1d1"
     inkscape:zoom="53.0625"
     inkscape:cx="8"
     inkscape:cy="8"
     inkscape:current-layer="svg53" />
  <path
     d="m 1.3249916,2.4182884 c 0.304662,-0.700835 1.013626,-1.224543 1.791586,-1.215938 0.897713,-0.0019 1.796363,-0.0067 2.695027,0.0029 0.306575,-0.01627 0.571962,0.277652 0.53939,0.580207 -0.0096,0.28627 -0.278795,0.521795 -0.563344,0.506473 -0.888118,0.0096 -1.776263,-0.01053 -2.664369,0.0067 -0.504906,-0.0057 -0.864178,0.475841 -0.846929,0.953608 -0.279759,-0.321705 -0.663948,-0.522758 -0.951361,-0.833931 z"
     fill="url(#paint0_linear_714_48)"
     id="path1"
     style="fill:url(#paint0_linear_714_48);stroke-width:0.128436" />
  <path
     d="m 9.5845266,1.7701124 c -0.01918,-0.28532 0.22227,-0.566799 0.5144744,-0.562971 0.927407,-0.01436 1.855778,-0.0048 2.783185,-0.0048 0.881453,-0.01148 1.676597,0.65967 1.885433,1.503171 0.07282,0.812855 0.01914,1.630514 0.03545,2.445271 -0.102492,-0.01436 -0.204983,-0.02872 -0.306576,-0.04308 -0.01631,-0.0967 -0.03249,-0.194362 -0.04881,-0.291061 -0.176342,-0.129257 -0.351657,-0.260429 -0.519265,-0.400192 -0.05369,-0.141703 -0.118803,-0.279579 -0.205112,-0.404046 -0.02967,-0.364795 0.02877,-0.737232 -0.04778,-1.096261 -0.09209,-0.34851 -0.428332,-0.611803 -0.789493,-0.617544 -0.924569,-0.01819 -1.849086,0.0057 -2.772679,-0.0086 -0.2787954,0.0029 -0.5230924,-0.244143 -0.5288334,-0.519881 z"
     fill="url(#paint1_linear_714_48)"
     id="path2"
     style="fill:url(#paint1_linear_714_48);stroke-width:0.128436" />
  <path
     d="m 1.2358316,2.7122254 c 0.02588,-0.09958 0.05945,-0.196275 0.08916,-0.293937 0.287413,0.311173 0.671602,0.512226 0.951361,0.833931 0.02778,1.272424 -10e-4,2.545811 0.01527,3.819185 -0.178205,-0.134035 -0.376522,-0.238402 -0.559504,-0.365746 -0.200244,-0.205844 -0.341073,-0.461469 -0.530773,-0.676894 0.01534,-1.104866 -0.04694,-2.214549 0.03449,-3.316539 z"
     fill="url(#paint2_linear_714_48)"
     id="path3"
     style="fill:url(#paint2_linear_714_48);stroke-width:0.128436" />
  <path
     d="m 9.4616516,3.2359344 c 0.224172,-0.216376 0.6083744,-0.232648 0.8497944,-0.03351 0.331505,0.274788 0.630413,0.585949 0.95041,0.873182 0.19544,0.189571 0.43112,0.357128 0.539391,0.61563 0.02394,0.218276 0.01436,0.458604 -0.14562,0.628062 -0.359286,0.415528 -0.75113,0.803287 -1.119984,1.21116 -0.03738,-0.07181 -0.07475,-0.143616 -0.112098,-0.215438 -0.07952,0.0048 -0.159029,0.0086 -0.238557,0.01341 -0.09197,-0.227857 -0.2184434,-0.440418 -0.3678904,-0.635717 0.2375934,-0.254688 0.4751984,-0.509363 0.7060874,-0.769791 -0.180131,-0.208708 -0.383226,-0.397329 -0.6035834,-0.562972 -0.22227,0.220229 -0.434009,0.448086 -0.645748,0.677883 -0.293154,-0.214487 -0.740572,-0.333188 -0.826804,-0.732442 0.346828,-0.34851 0.662034,-0.727652 1.014602,-1.069457 z"
     fill="url(#paint3_linear_714_48)"
     id="path4"
     style="fill:url(#paint3_linear_714_48);stroke-width:0.128436" />
  <path
     d="m 13.72331,4.0124164 c 0.08631,0.124467 0.151426,0.262343 0.205112,0.404046 0.167608,0.139763 0.342923,0.270935 0.519265,0.400192 0.01631,0.0967 0.03249,0.194362 0.04881,0.291061 0.101593,0.01436 0.204084,0.02872 0.306576,0.04308 0,1.016798 0,2.032621 0,3.049419 -0.409196,-0.275751 -0.708065,-0.673079 -1.085537,-0.98519 -0.0028,-1.067531 -0.01233,-2.135074 0.0058,-3.202605 z"
     fill="url(#paint4_linear_714_48)"
     id="path5"
     style="fill:url(#paint4_linear_714_48);stroke-width:0.128436" />
  <path
     d="m 6.8290066,6.0469384 c 0.537464,-0.582096 1.084394,-1.155599 1.618043,-1.741547 0.08623,0.399254 0.53365,0.517955 0.826804,0.732442 -0.545132,0.584985 -1.092062,1.169007 -1.637193,1.754943 -0.107308,-0.05266 -0.214616,-0.105317 -0.321911,-0.158926 -0.04792,0.0182 -0.09485,0.03735 -0.142756,0.05553 -0.09773,-0.223079 -0.211726,-0.437554 -0.342987,-0.642447 z"
     fill="url(#paint5_linear_714_48)"
     id="path6"
     style="fill:url(#paint5_linear_714_48);stroke-width:0.128436" />
  <path
     d="m 8.1568366,7.4706594 c 0.553776,-0.591716 1.105535,-1.186269 1.660261,-1.777946 0.149447,0.195299 0.2759184,0.40786 0.3678904,0.635717 0.07953,-0.0048 0.159042,-0.0086 0.238557,-0.01341 0.03735,0.07182 0.07472,0.14363 0.112098,0.215438 -0.528859,0.564885 -1.0546224,1.131684 -1.5834814,1.696569 -0.255805,-0.261392 -0.520357,-0.514153 -0.795325,-0.756368 z"
     fill="url(#paint6_linear_714_48)"
     id="path7"
     style="fill:url(#paint6_linear_714_48);stroke-width:0.128436" />
  <path
     d="m 1.2013466,6.0287644 c 0.1897,0.215425 0.330529,0.47105 0.530773,0.676894 0.182982,0.127344 0.381299,0.231711 0.559504,0.365746 -0.0096,1.141239 -9.38e-4,2.282518 -0.0048,3.4237566 -0.441677,-0.261366 -0.785615,-0.6462616 -1.088363,-1.0541216 9.63e-4,-1.137425 -0.0029,-2.27485 0.0029,-3.412275 z"
     fill="url(#paint7_linear_714_48)"
     id="path8"
     style="fill:url(#paint7_linear_714_48);stroke-width:0.128436" />
  <path
     d="m 5.5786606,13.712189 c 1.007885,0.0028 2.01577,-0.0087 3.024593,0.0057 0.250064,0.322758 0.7061,0.401232 0.90443,0.774594 0.12358,0.09954 0.245389,0.200103 0.365155,0.303493 -1.14874,0.0058 -2.297455,0.0039 -3.446169,0.001 -0.08144,-0.234652 -0.263576,-0.400205 -0.466697,-0.530439 -0.02108,-0.09671 -0.04215,-0.193424 -0.06322,-0.289108 -0.06229,0.03057 -0.123606,0.06126 -0.185871,0.09286 -0.04407,-0.119702 -0.08813,-0.239404 -0.132225,-0.358078 z"
     fill="url(#paint8_linear_714_48)"
     id="path9"
     style="fill:url(#paint8_linear_714_48);stroke-width:0.128436" />
  <path
     d="m 5.3153676,7.6688354 c 0.503956,-0.540945 1.00777,-1.081903 1.513639,-1.621897 0.131261,0.204893 0.24526,0.419368 0.342987,0.642447 0.04791,-0.01819 0.09484,-0.03734 0.142756,-0.05553 0.107295,0.05361 0.214603,0.106267 0.321911,0.158926 -0.51066,0.544798 -1.017364,1.09341 -1.528974,1.638169 -0.166696,-0.343719 -0.425366,-0.629025 -0.792319,-0.76211 z"
     fill="url(#paint9_linear_714_48)"
     id="path10"
     style="fill:url(#paint9_linear_714_48);stroke-width:0.128436" />
  <path
     d="m 6.7333986,8.9958434 c 0.475186,-0.507436 0.948471,-1.016798 1.42367,-1.525184 0.27498,0.242216 0.539288,0.494977 0.795093,0.756369 -0.471359,0.504546 -0.940804,1.011032 -1.413138,1.514653 -0.246211,-0.27096 -0.511495,-0.525635 -0.805625,-0.745838 z"
     fill="url(#paint10_linear_714_48)"
     id="path11"
     style="fill:url(#paint10_linear_714_48);stroke-width:0.128436" />
  <path
     d="m 13.717531,7.2150214 c 0.377472,0.312111 0.676341,0.709439 1.085537,0.98519 0,1.010081 0,2.0211376 0,3.0321826 -0.169664,-0.07371 -0.348703,-0.133085 -0.49345,-0.249897 -0.157076,-0.258502 -0.197277,-0.684561 -0.594913,-0.65393 0,-1.0378486 -0.0048,-2.0756976 0.0028,-3.1135456 z"
     fill="url(#paint11_linear_714_48)"
     id="path12"
     style="fill:url(#paint11_linear_714_48);stroke-width:0.128436" />
  <path
     d="m 4.5220726,8.7746644 c 0.02587,-0.49115 0.526959,-0.74201 0.793295,-1.105829 0.366953,0.133085 0.625623,0.418391 0.792319,0.76211 -0.161906,0.178076 -0.34684,0.339905 -0.480015,0.542872 -0.06419,0.198176 -0.07091,0.409786 -0.09964,0.61563 0.242396,-0.02394 0.483817,-0.05076 0.726213,-0.07948 0.160005,-0.171385 0.3201,-0.342769 0.479154,-0.514128 0.29413,0.220203 0.559414,0.474878 0.805625,0.745838 -0.270177,0.2585016 -0.481916,0.5916896 -0.796146,0.7965826 -0.796159,0.114873 -1.597109,0.235525 -2.40091,0.272849 -0.03928,-0.134973 -0.04983,-0.270935 -0.02973,-0.408811 0.0709,-0.5428706 0.14467,-1.0847656 0.209838,-1.6276376 z"
     fill="url(#paint12_linear_714_48)"
     id="path13"
     style="fill:url(#paint12_linear_714_48);stroke-width:0.128436" />
  <path
     d="m 4.2998156,12.18694 c -0.08908,-0.346584 0.15235,-0.757321 0.5346,-0.741998 2.076134,-0.01436 4.153232,0 6.2303174,-0.0077 0.235679,-0.0077 0.513524,0.01341 0.653416,0.234575 0.177228,0.232635 0.09387,0.556254 -0.08528,0.763074 -0.212689,0.07657 -0.438787,0.109131 -0.664898,0.10244 -2.0435514,-0.01148 -4.0871014,0.0076 -6.1306524,-0.0086 -0.239532,0.01532 -0.405278,-0.169471 -0.537502,-0.341805 z"
     fill="url(#paint13_linear_714_48)"
     id="path14"
     style="fill:url(#paint13_linear_714_48);stroke-width:0.128436" />
  <path
     d="m 1.1984956,9.4410394 c 0.302748,0.40786 0.646686,0.7927556 1.088363,1.0541216 0.0057,0.794682 -0.0075,1.589338 0.0059,2.383995 0.0029,0.439506 0.38898,0.825326 0.82778,0.827253 0.819136,0.01439 1.639248,8.99e-4 2.458384,0.0058 0.04409,0.118674 0.08816,0.238376 0.132224,0.358078 0.06227,-0.03159 0.123581,-0.06229 0.185872,-0.09286 0.02108,0.09568 0.04214,0.192396 0.06322,0.289108 0.203121,0.130234 0.384999,0.295787 0.46644,0.530439 -1.137233,-0.001 -2.274465,0.01143 -3.411685,-0.0039 -0.980091,-0.03352 -1.828947,-0.927818 -1.814575,-1.907268 -0.0057,-1.147931 0,-2.296838 -0.0019,-3.4447946 z"
     fill="url(#paint14_linear_714_48)"
     id="path15"
     style="fill:url(#paint14_linear_714_48);stroke-width:0.128436" />
  <path
     d="m 13.714705,10.328567 c 0.397636,-0.03063 0.437837,0.395428 0.594913,0.65393 0.144747,0.116812 0.323786,0.176188 0.49345,0.249897 -0.0058,0.584985 0.01053,1.169983 -0.0067,1.755033 -0.01631,0.477652 -0.250064,0.924864 -0.576804,1.265604 -0.204983,-0.206782 -0.410095,-0.414462 -0.610326,-0.626124 -0.02492,0.01528 -0.07565,0.04688 -0.100565,0.06319 -0.03172,-0.03545 -0.09389,-0.106217 -0.124582,-0.140766 0.170562,-0.185718 0.325712,-0.406883 0.324813,-0.669149 0.01439,-0.850243 -8.99e-4,-1.701398 0.0058,-2.551616 z"
     fill="url(#paint15_linear_714_48)"
     id="path16"
     style="fill:url(#paint15_linear_714_48);stroke-width:0.128436" />
  <path
     d="m 12.79318,13.711161 c 0.209735,0.0096 0.404058,-0.07757 0.590932,-0.161829 0.0307,0.03455 0.09286,0.105317 0.124582,0.140766 0.02492,-0.01631 0.07565,-0.04791 0.100565,-0.06319 0.200231,0.211662 0.405343,0.419342 0.610326,0.626124 -0.361161,0.329437 -0.83162,0.549575 -1.326867,0.544823 -1.006036,0.0039 -2.01297,0.0019 -3.0198794,-0.0019 -0.119766,-0.10339 -0.241343,-0.203955 -0.364937,-0.303493 -0.198317,-0.373362 -0.654584,-0.451836 -0.904648,-0.774594 1.395927,-0.01528 2.7929974,0 4.1899264,-0.0067 z"
     fill="url(#paint16_linear_714_48)"
     id="path17"
     style="fill:url(#paint16_linear_714_48);stroke-width:0.128436" />
  <path
     d="m 1.3249916,2.4182884 c 0.304662,-0.700835 1.013626,-1.224543 1.791586,-1.215938 0.897713,-0.0019 1.796363,-0.0067 2.695027,0.0029 0.306575,-0.01627 0.571962,0.277652 0.53939,0.580207 -0.0096,0.28627 -0.278795,0.521795 -0.563344,0.506473 -0.888118,0.0096 -1.776263,-0.01053 -2.664369,0.0067 -0.504906,-0.0057 -0.864178,0.475841 -0.846929,0.953608 m -0.951361,-0.833931 c 0.287413,0.311173 0.671602,0.512226 0.951361,0.833931 m -0.951361,-0.833931 c -0.02971,0.09766 -0.06328,0.194361 -0.08916,0.293937 -0.08143,1.10199 -0.01915,2.211673 -0.03449,3.316539 m 1.075006,-2.776545 c 0.02778,1.272424 -10e-4,2.545811 0.01527,3.819185 M 14.803068,5.1507924 c -0.01631,-0.814757 0.03737,-1.632416 -0.03545,-2.445271 -0.208836,-0.843501 -1.00398,-1.514653 -1.885433,-1.503171 -0.927407,0 -1.855778,-0.0096 -2.783185,0.0048 -0.2922044,-0.0038 -0.5336504,0.277651 -0.5144744,0.562971 0.0057,0.275738 0.250038,0.522758 0.5288334,0.519881 0.923593,0.01436 1.84811,-0.0096 2.772679,0.0086 0.361161,0.0057 0.697405,0.269034 0.789493,0.617544 0.07655,0.359029 0.01811,0.731466 0.04778,1.096261 m 1.079758,1.138376 c -0.102492,-0.01436 -0.204983,-0.02872 -0.306576,-0.04308 -0.01631,-0.0967 -0.03249,-0.194362 -0.04881,-0.291061 -0.176342,-0.129257 -0.351657,-0.260429 -0.519265,-0.400192 -0.05369,-0.141703 -0.118803,-0.279579 -0.205112,-0.404046 m 1.079758,1.138376 c 0,1.016798 0,2.032621 0,3.049419 m -1.079758,-4.187795 c -0.01811,1.067531 -0.0086,2.135074 -0.0058,3.202605 M 2.2916236,7.0714044 c -0.178205,-0.134035 -0.376522,-0.238402 -0.559504,-0.365746 -0.200244,-0.205844 -0.341073,-0.461469 -0.530773,-0.676894 m 1.090277,1.04264 c -0.0096,1.141239 -9.38e-4,2.282518 -0.0048,3.4237566 M 1.2013116,6.0287644 c -0.0057,1.137425 -0.0019,2.27485 -0.0029,3.412275 m 9.3371474,-2.91058 c 0.368854,-0.407873 0.760698,-0.795632 1.119984,-1.21116 0.159979,-0.169458 0.16956,-0.409786 0.14562,-0.628062 -0.108271,-0.258502 -0.343951,-0.426059 -0.539391,-0.61563 -0.319997,-0.287233 -0.618905,-0.598394 -0.95041,-0.873182 -0.24142,-0.199139 -0.6256224,-0.182867 -0.8497944,0.03351 -0.352568,0.341805 -0.667774,0.720947 -1.014602,1.069457 m 2.0885934,2.225068 c -0.03738,-0.07181 -0.07475,-0.143616 -0.112098,-0.215438 -0.07952,0.0048 -0.159029,0.0086 -0.238557,0.01341 -0.09197,-0.227857 -0.2184434,-0.440418 -0.3678904,-0.635717 m 0.7185454,0.837746 C 10.0067,7.0953464 9.4809366,7.6621454 8.9520776,8.2270304 m 0.864936,-2.534315 c 0.2375934,-0.254688 0.4751984,-0.509363 0.7060874,-0.769791 -0.180131,-0.208708 -0.383226,-0.397329 -0.6035834,-0.562972 -0.22227,0.220229 -0.434009,0.448086 -0.645748,0.677883 m 0.543244,0.65488 c -0.554726,0.591677 -1.106485,1.18623 -1.660261,1.777946 0.274968,0.242216 0.53952,0.494977 0.795325,0.756369 m 0.321692,-3.189195 c -0.293154,-0.214487 -0.740572,-0.333188 -0.826804,-0.732442 m 0.826804,0.732442 c -0.545132,0.584985 -1.092062,1.169007 -1.637193,1.754943 m 0.810389,-2.487385 c -0.533649,0.585948 -1.080579,1.159451 -1.618043,1.741547 m 7.9740614,2.153273 c -0.409196,-0.275751 -0.708065,-0.673079 -1.085537,-0.98519 m 1.085537,0.98519 c 0,1.010081 0,2.0211376 0,3.0321826 M 13.717447,7.2150234 c -0.0076,1.037848 -0.0028,2.075697 -0.0028,3.1135456 M 6.8289486,6.0469404 c 0.131261,0.204893 0.24526,0.419368 0.342987,0.642447 0.04791,-0.01819 0.09484,-0.03734 0.142756,-0.05553 0.107295,0.05361 0.214603,0.106267 0.321911,0.158926 m -0.807654,-0.745838 c -0.505869,0.539994 -1.009683,1.080952 -1.513639,1.621897 m 2.321293,-0.876059 c -0.51066,0.544798 -1.017364,1.09341 -1.528974,1.638169 m 2.844475,-0.203917 c -0.255805,-0.261392 -0.520113,-0.514153 -0.795093,-0.756369 -0.475199,0.508386 -0.948484,1.017748 -1.42367,1.525184 m 2.218763,-0.768815 c -0.471359,0.504546 -0.940804,1.011032 -1.413138,1.514653 M 2.2868006,10.495168 C 1.8451816,10.233795 1.5012436,9.8488994 1.1984956,9.4410394 m 1.088363,1.0541216 c 0.0057,0.794682 -0.0075,1.589338 0.0059,2.383995 0.0029,0.439506 0.38898,0.825326 0.82778,0.827253 0.819136,0.01439 1.639248,8.99e-4 2.458384,0.0058 0.04409,0.118674 0.08816,0.238376 0.132224,0.358078 0.06227,-0.03159 0.123581,-0.06229 0.185872,-0.09286 0.02108,0.09568 0.04214,0.192396 0.06322,0.289108 0.203121,0.130234 0.384999,0.295787 0.46644,0.530439 M 1.1985046,9.4410584 c 0.0019,1.1479566 -0.0038,2.2968636 0.0019,3.4447946 -0.01437,0.97945 0.834484,1.873746 1.814575,1.907268 1.13722,0.01528 2.274452,0.0028 3.411685,0.0039 m 2.176584,-1.079115 c -1.008823,-0.01439 -2.016708,-0.0028 -3.024593,-0.0057 0.04409,0.118674 0.08816,0.238376 0.132225,0.358078 0.06226,-0.03159 0.12358,-0.06229 0.185871,-0.09286 0.02106,0.09568 0.04214,0.192396 0.06322,0.289108 0.203121,0.130234 0.385256,0.295787 0.466697,0.530439 m 2.176584,-1.079115 c 0.250064,0.322758 0.7061,0.401232 0.90443,0.774594 0.12358,0.09954 0.245389,0.200103 0.365155,0.303493 M 8.6032536,13.71784 c 0.250064,0.322758 0.706331,0.401232 0.904648,0.774594 0.123594,0.09954 0.245171,0.200103 0.364937,0.303493 M 8.6032536,13.71784 c 1.395927,-0.01528 2.7929974,0 4.1899264,-0.0067 0.209735,0.0096 0.404058,-0.07757 0.590932,-0.161829 m -3.5112734,1.246595 c -1.14874,0.0058 -2.297455,0.0039 -3.446169,10e-4 m 3.446169,-10e-4 c 1.0069094,0.0039 2.0138434,0.0058 3.0198794,0.0019 0.495247,0.0048 0.965706,-0.215386 1.326867,-0.544823 M 5.3153676,7.6687874 c 0.366953,0.133085 0.625623,0.418391 0.792319,0.76211 m -0.792319,-0.76211 c -0.266336,0.363819 -0.767428,0.614679 -0.793295,1.105829 -0.06517,0.542872 -0.138941,1.084767 -0.209838,1.6276376 -0.0201,0.137876 -0.0095,0.273838 0.02973,0.408811 0.803801,-0.03732 1.604751,-0.157976 2.40091,-0.272849 0.31423,-0.204893 0.525969,-0.538081 0.796146,-0.7965826 m -1.431337,-1.310736 c -0.161906,0.178076 -0.34684,0.339905 -0.480015,0.542872 -0.06419,0.198176 -0.07091,0.409786 -0.09964,0.61563 0.242396,-0.02394 0.483817,-0.05076 0.726213,-0.07948 0.160005,-0.171385 0.3201,-0.342769 0.479154,-0.514128 m 0,0 c 0.29413,0.220203 0.559414,0.474878 0.805625,0.745838 m 7.2640444,1.4907126 c -0.169664,-0.07371 -0.348703,-0.133085 -0.49345,-0.249897 -0.157076,-0.258502 -0.197277,-0.684561 -0.594913,-0.65393 m 1.088363,0.903827 c -0.0058,0.584985 0.01053,1.169983 -0.0067,1.755033 -0.01631,0.477652 -0.250064,0.924864 -0.576804,1.265604 m -0.50488,-3.924464 c -0.0067,0.850218 0.0086,1.701373 -0.0058,2.551616 8.99e-4,0.262266 -0.154251,0.483431 -0.324813,0.669149 m 0.835473,0.703699 c -0.204983,-0.206782 -0.410095,-0.414462 -0.610326,-0.626124 -0.02492,0.01528 -0.07565,0.04688 -0.100565,0.06319 -0.03172,-0.03545 -0.09389,-0.106217 -0.124582,-0.140766 M 4.2997716,12.186887 c -0.08908,-0.346584 0.15235,-0.757321 0.5346,-0.741998 2.076134,-0.01436 4.153232,0 6.2303174,-0.0077 0.235679,-0.0077 0.513524,0.01341 0.653416,0.234575 0.177228,0.232635 0.09387,0.556254 -0.08528,0.763074 -0.212689,0.07657 -0.438787,0.109131 -0.664898,0.10244 -2.0435514,-0.01148 -4.0871014,0.0076 -6.1306524,-0.0086 -0.239532,0.01532 -0.405278,-0.169471 -0.537502,-0.341805 z"
     stroke="url(#paint17_linear_714_48)"
     stroke-width="0.385307"
     id="path18"
     style="stroke:url(#paint17_linear_714_48)" />
  <defs
     id="defs53">
    <linearGradient
       id="paint0_linear_714_48"
       x1="64"
       y1="116.902"
       x2="64"
       y2="11"
       gradientUnits="userSpaceOnUse"
       gradientTransform="matrix(0.12843553,0,0,0.12843553,-0.21990743,-0.21356165)">
      <stop
         stop-color="#5570FF"
         id="stop18" />
      <stop
         offset="1"
         stop-color="#4DD3FF"
         id="stop19" />
    </linearGradient>
    <linearGradient
       id="paint1_linear_714_48"
       x1="64"
       y1="116.902"
       x2="64"
       y2="11"
       gradientUnits="userSpaceOnUse"
       gradientTransform="matrix(0.12843553,0,0,0.12843553,-0.21990743,-0.21356165)">
      <stop
         stop-color="#5570FF"
         id="stop20" />
      <stop
         offset="1"
         stop-color="#4DD3FF"
         id="stop21" />
    </linearGradient>
    <linearGradient
       id="paint2_linear_714_48"
       x1="64"
       y1="116.902"
       x2="64"
       y2="11"
       gradientUnits="userSpaceOnUse"
       gradientTransform="matrix(0.12843553,0,0,0.12843553,-0.21990743,-0.21356165)">
      <stop
         stop-color="#5570FF"
         id="stop22" />
      <stop
         offset="1"
         stop-color="#4DD3FF"
         id="stop23" />
    </linearGradient>
    <linearGradient
       id="paint3_linear_714_48"
       x1="64"
       y1="116.902"
       x2="64"
       y2="11"
       gradientUnits="userSpaceOnUse"
       gradientTransform="matrix(0.12843553,0,0,0.12843553,-0.21990743,-0.21356165)">
      <stop
         stop-color="#5570FF"
         id="stop24" />
      <stop
         offset="1"
         stop-color="#4DD3FF"
         id="stop25" />
    </linearGradient>
    <linearGradient
       id="paint4_linear_714_48"
       x1="64"
       y1="116.902"
       x2="64"
       y2="11"
       gradientUnits="userSpaceOnUse"
       gradientTransform="matrix(0.12843553,0,0,0.12843553,-0.21990743,-0.21356165)">
      <stop
         stop-color="#5570FF"
         id="stop26" />
      <stop
         offset="1"
         stop-color="#4DD3FF"
         id="stop27" />
    </linearGradient>
    <linearGradient
       id="paint5_linear_714_48"
       x1="64"
       y1="116.902"
       x2="64"
       y2="11"
       gradientUnits="userSpaceOnUse"
       gradientTransform="matrix(0.12843553,0,0,0.12843553,-0.21990743,-0.21356165)">
      <stop
         stop-color="#5570FF"
         id="stop28" />
      <stop
         offset="1"
         stop-color="#4DD3FF"
         id="stop29" />
    </linearGradient>
    <linearGradient
       id="paint6_linear_714_48"
       x1="64"
       y1="116.902"
       x2="64"
       y2="11"
       gradientUnits="userSpaceOnUse"
       gradientTransform="matrix(0.12843553,0,0,0.12843553,-0.21990743,-0.21356165)">
      <stop
         stop-color="#5570FF"
         id="stop30" />
      <stop
         offset="1"
         stop-color="#4DD3FF"
         id="stop31" />
    </linearGradient>
    <linearGradient
       id="paint7_linear_714_48"
       x1="64"
       y1="116.902"
       x2="64"
       y2="11"
       gradientUnits="userSpaceOnUse"
       gradientTransform="matrix(0.12843553,0,0,0.12843553,-0.21990743,-0.21356165)">
      <stop
         stop-color="#5570FF"
         id="stop32" />
      <stop
         offset="1"
         stop-color="#4DD3FF"
         id="stop33" />
    </linearGradient>
    <linearGradient
       id="paint8_linear_714_48"
       x1="64"
       y1="116.902"
       x2="64"
       y2="11"
       gradientUnits="userSpaceOnUse"
       gradientTransform="matrix(0.12843553,0,0,0.12843553,-0.21990743,-0.21356165)">
      <stop
         stop-color="#5570FF"
         id="stop34" />
      <stop
         offset="1"
         stop-color="#4DD3FF"
         id="stop35" />
    </linearGradient>
    <linearGradient
       id="paint9_linear_714_48"
       x1="64"
       y1="116.902"
       x2="64"
       y2="11"
       gradientUnits="userSpaceOnUse"
       gradientTransform="matrix(0.12843553,0,0,0.12843553,-0.21990743,-0.21356165)">
      <stop
         stop-color="#5570FF"
         id="stop36" />
      <stop
         offset="1"
         stop-color="#4DD3FF"
         id="stop37" />
    </linearGradient>
    <linearGradient
       id="paint10_linear_714_48"
       x1="64"
       y1="116.902"
       x2="64"
       y2="11"
       gradientUnits="userSpaceOnUse"
       gradientTransform="matrix(0.12843553,0,0,0.12843553,-0.21990743,-0.21356165)">
      <stop
         stop-color="#5570FF"
         id="stop38" />
      <stop
         offset="1"
         stop-color="#4DD3FF"
         id="stop39" />
    </linearGradient>
    <linearGradient
       id="paint11_linear_714_48"
       x1="64"
       y1="116.902"
       x2="64"
       y2="11"
       gradientUnits="userSpaceOnUse"
       gradientTransform="matrix(0.12843553,0,0,0.12843553,-0.21990743,-0.21356165)">
      <stop
         stop-color="#5570FF"
         id="stop40" />
      <stop
         offset="1"
         stop-color="#4DD3FF"
         id="stop41" />
    </linearGradient>
    <linearGradient
       id="paint12_linear_714_48"
       x1="64"
       y1="116.902"
       x2="64"
       y2="11"
       gradientUnits="userSpaceOnUse"
       gradientTransform="matrix(0.12843553,0,0,0.12843553,-0.21990743,-0.21356165)">
      <stop
         stop-color="#5570FF"
         id="stop42" />
      <stop
         offset="1"
         stop-color="#4DD3FF"
         id="stop43" />
    </linearGradient>
    <linearGradient
       id="paint13_linear_714_48"
       x1="64"
       y1="116.902"
       x2="64"
       y2="11"
       gradientUnits="userSpaceOnUse"
       gradientTransform="matrix(0.12843553,0,0,0.12843553,-0.21990743,-0.21356165)">
      <stop
         stop-color="#5570FF"
         id="stop44" />
      <stop
         offset="1"
         stop-color="#4DD3FF"
         id="stop45" />
    </linearGradient>
    <linearGradient
       id="paint14_linear_714_48"
       x1="64"
       y1="116.902"
       x2="64"
       y2="11"
       gradientUnits="userSpaceOnUse"
       gradientTransform="matrix(0.12843553,0,0,0.12843553,-0.21990743,-0.21356165)">
      <stop
         stop-color="#5570FF"
         id="stop46" />
      <stop
         offset="1"
         stop-color="#4DD3FF"
         id="stop47" />
    </linearGradient>
    <linearGradient
       id="paint15_linear_714_48"
       x1="64"
       y1="116.902"
       x2="64"
       y2="11"
       gradientUnits="userSpaceOnUse"
       gradientTransform="matrix(0.12843553,0,0,0.12843553,-0.21990743,-0.21356165)">
      <stop
         stop-color="#5570FF"
         id="stop48" />
      <stop
         offset="1"
         stop-color="#4DD3FF"
         id="stop49" />
    </linearGradient>
    <linearGradient
       id="paint16_linear_714_48"
       x1="64"
       y1="116.902"
       x2="64"
       y2="11"
       gradientUnits="userSpaceOnUse"
       gradientTransform="matrix(0.12843553,0,0,0.12843553,-0.21990743,-0.21356165)">
      <stop
         stop-color="#5570FF"
         id="stop50" />
      <stop
         offset="1"
         stop-color="#4DD3FF"
         id="stop51" />
    </linearGradient>
    <linearGradient
       id="paint17_linear_714_48"
       x1="64"
       y1="116.902"
       x2="64"
       y2="11"
       gradientUnits="userSpaceOnUse"
       gradientTransform="matrix(0.12843553,0,0,0.12843553,-0.21990743,-0.21356165)">
      <stop
         stop-color="#5570FF"
         id="stop52" />
      <stop
         offset="1"
         stop-color="#4DD3FF"
         id="stop53" />
    </linearGradient>
  </defs>
</svg>
