<?xml version="1.0" encoding="UTF-8" standalone="no"?>
<!-- Created with Inkscape (http://www.inkscape.org/) -->

<svg
   width="16"
   height="16"
   viewBox="0 0 4.2333333 4.2333333"
   version="1.1"
   id="svg11654"
   inkscape:version="1.2.2 (b0a8486541, 2022-12-01)"
   sodipodi:docname="folder-electro_altc.svg"
   xmlns:inkscape="http://www.inkscape.org/namespaces/inkscape"
   xmlns:sodipodi="http://sodipodi.sourceforge.net/DTD/sodipodi-0.dtd"
   xmlns:xlink="http://www.w3.org/1999/xlink"
   xmlns="http://www.w3.org/2000/svg"
   xmlns:svg="http://www.w3.org/2000/svg">
  <sodipodi:namedview
     id="namedview11656"
     pagecolor="#505050"
     bordercolor="#ffffff"
     borderopacity="1"
     inkscape:showpageshadow="0"
     inkscape:pageopacity="0"
     inkscape:pagecheckerboard="1"
     inkscape:deskcolor="#505050"
     inkscape:document-units="mm"
     showgrid="false"
     inkscape:zoom="39.590891"
     inkscape:cx="5.1653295"
     inkscape:cy="9.8381215"
     inkscape:window-width="1920"
     inkscape:window-height="1052"
     inkscape:window-x="0"
     inkscape:window-y="28"
     inkscape:window-maximized="1"
     inkscape:current-layer="g50988" />
  <defs
     id="defs11651">
    <linearGradient
       inkscape:collect="always"
       id="linearGradient51939">
      <stop
         style="stop-color:#8d01a2;stop-opacity:1;"
         offset="0"
         id="stop51935" />
      <stop
         style="stop-color:#ff00d2;stop-opacity:1;"
         offset="1"
         id="stop51937" />
    </linearGradient>
    <linearGradient
       inkscape:collect="always"
       id="linearGradient38443">
      <stop
         style="stop-color:#8d01a2;stop-opacity:1;"
         offset="0"
         id="stop38439" />
      <stop
         style="stop-color:#ff00d2;stop-opacity:1;"
         offset="1"
         id="stop38441" />
    </linearGradient>
    <linearGradient
       inkscape:collect="always"
       xlink:href="#linearGradient38443"
       id="linearGradient38453"
       x1="3.1750019"
       y1="9.0427818"
       x2="8.9688091"
       y2="4.3029132"
       gradientUnits="userSpaceOnUse" />
    <linearGradient
       inkscape:collect="always"
       xlink:href="#linearGradient51939"
       id="linearGradient38461"
       x1="5.3371129"
       y1="8.5472088"
       x2="8.2749109"
       y2="6.075902"
       gradientUnits="userSpaceOnUse" />
  </defs>
  <g
     inkscape:label="Calque 1"
     inkscape:groupmode="layer"
     id="layer1">
    <g
       id="g34833">
      <g
         id="g50988"
         transform="matrix(0.62499996,0,0,0.62499996,-1.8520843,-2.3998589)">
        <path
           d="m 5.9637999,7.7091916 h 0.7724033 c 0.053319,0 0.09655,-0.043229 0.09655,-0.09655 V 6.8402372 c 0,-0.053322 -0.04323,-0.09655 -0.09655,-0.09655 H 5.9637999 c -0.053319,0 -0.09655,0.043229 -0.09655,0.09655 v 0.7724039 c 0,0.05332 0.04323,0.09655 0.09655,0.09655 z m 0.096551,-0.7724038 h 0.5793022 v 0.579303 H 6.0603504 Z M 7.5150443,7.1298887 H 7.901246 c 0.053319,0 0.09655,-0.04323 0.09655,-0.096551 V 6.6471365 c 0,-0.053322 -0.04323,-0.09655 -0.09655,-0.09655 H 7.5150443 c -0.053319,0 -0.09655,0.04323 -0.09655,0.09655 v 0.09655 H 7.2189556 v -0.289651 c 0,-0.053322 -0.04323,-0.09655 -0.09655,-0.09655 h -0.289652 v -0.199538 h 0.09655 c 0.053319,0 0.09655,-0.04323 0.09655,-0.096551 V 5.6751952 c 0,-0.053322 -0.04323,-0.096551 -0.09655,-0.096551 H 6.5431021 c -0.053319,0 -0.09655,0.04323 -0.09655,0.096551 v 0.3862019 c 0,0.053322 0.04323,0.096551 0.09655,0.096551 h 0.09655 v 0.199537 H 6.0603504 V 6.1579475 h 0.09655 c 0.053319,0 0.09655,-0.04323 0.09655,-0.096551 V 5.6751952 c 0,-0.053322 -0.04323,-0.096551 -0.09655,-0.096551 H 5.770699 c -0.053319,0 -0.09655,0.04323 -0.09655,0.096551 v 0.3862019 c 0,0.053322 0.04323,0.096551 0.09655,0.096551 h 0.09655 V 6.3574859 H 5.5775977 c -0.053319,0 -0.09655,0.04323 -0.09655,0.09655 v 0.289651 H 5.2815093 v -0.09655 c 0,-0.053322 -0.04323,-0.09655 -0.09655,-0.09655 H 4.7987568 c -0.053319,0 -0.09655,0.04323 -0.09655,0.09655 v 0.3862017 c 0,0.053322 0.04323,0.096551 0.09655,0.096551 h 0.386202 c 0.053319,0 0.09655,-0.043229 0.09655,-0.096551 v -0.096551 h 0.1995388 v 0.579303 H 5.2815093 v -0.096551 c 0,-0.053322 -0.04323,-0.096551 -0.09655,-0.096551 H 4.7987568 c -0.053319,0 -0.09655,0.043229 -0.09655,0.096551 v 0.3862017 c 0,0.05332 0.04323,0.09655 0.09655,0.09655 h 0.386202 c 0.053319,0 0.09655,-0.04323 0.09655,-0.09655 V 7.7091903 H 5.481047 v 0.2896516 c 0,0.05332 0.04323,0.09655 0.09655,0.09655 h 0.2896521 v 0.1995386 h -0.09655 c -0.053319,0 -0.09655,0.04323 -0.09655,0.096551 v 0.3862018 c 0,0.05332 0.04323,0.09655 0.09655,0.09655 h 0.386202 c 0.053319,0 0.09655,-0.04323 0.09655,-0.09655 v -0.386202 c 0,-0.05332 -0.04323,-0.096551 -0.09655,-0.096551 h -0.09655 V 8.0953934 h 0.5793022 v 0.1995372 h -0.09655 c -0.053319,0 -0.09655,0.04323 -0.09655,0.096551 v 0.3862018 c 0,0.05332 0.04323,0.09655 0.09655,0.09655 h 0.3862021 c 0.053319,0 0.09655,-0.04323 0.09655,-0.09655 V 8.3914813 c 0,-0.05332 -0.04323,-0.096551 -0.09655,-0.096551 H 6.8327536 V 8.0953934 H 7.122405 c 0.053319,0 0.09655,-0.043229 0.09655,-0.09655 V 7.7091916 h 0.199538 v 0.096551 c 0,0.05332 0.04323,0.09655 0.09655,0.09655 h 0.3862018 c 0.053319,0 0.09655,-0.04323 0.09655,-0.09655 v -0.386202 c 0,-0.053322 -0.04323,-0.096551 -0.09655,-0.096551 H 7.5150443 c -0.053319,0 -0.09655,0.04323 -0.09655,0.096551 v 0.096551 H 7.2189556 v -0.579304 h 0.1995381 v 0.09655 c 0,0.053322 0.04323,0.096551 0.096551,0.096551 z m 0.09655,-0.3862018 H 7.8046954 V 6.9367878 H 7.6115939 Z M 5.0884083,6.9367878 H 4.8953074 V 6.7436869 h 0.1931009 z m 0,0.7724038 H 4.8953074 V 7.5160908 H 5.0884083 Z M 6.6396526,5.7717457 h 0.193101 v 0.1931008 h -0.193101 z m -0.7724032,0 h 0.193101 v 0.1931008 h -0.193101 z m 0.193101,2.909387 H 5.8672494 V 8.4880318 h 0.193101 z m 0.7724032,0 H 6.6396526 V 8.4880318 h 0.193101 z M 7.0258547,7.9022926 H 5.6741485 V 6.5505859 H 7.0258547 Z M 7.6115939,7.5160908 H 7.8046954 V 7.7091916 H 7.6115939 Z"
           id="path2-3"
           style="fill:url(#linearGradient38461);fill-opacity:1" />
        <path
           d="m 5.7349269,4.0604274 c 0.3519267,-0.021604 0.7047892,0.00352 1.0576621,-0.00398 0.2149781,-0.026898 0.4005281,0.149918 0.4542642,0.3337855 0.071966,0.1953358 0.072478,0.4096282 0.15281,0.6018777 0.1397679,0.1097918 0.3033323,0.1896017 0.4604094,0.276024 0.2065462,-0.067904 0.4065713,-0.1547678 0.6192283,-0.2054728 0.1808719,-0.0463 0.3991288,0.0172 0.494003,0.1759318 0.154688,0.2403092 0.2963337,0.488556 0.4337469,0.7385658 0.074288,0.1569698 0.1766379,0.3518644 0.05558,0.5119252 -0.1472097,0.2015107 -0.3860189,0.3223239 -0.5519384,0.5079601 -0.03834,0.1406559 -0.02434,0.2910169 -0.023384,0.4356288 0.141134,0.2508844 0.4720173,0.3598018 0.5963546,0.6248118 0.068724,0.1199458 0.046738,0.2685491 -0.02895,0.38053 C 9.2840796,8.7184873 9.1153949,9.0002429 8.9326447,9.2735915 8.811107,9.4521822 8.548469,9.4773012 8.3601197,9.3833939 8.1969998,9.3057905 7.983899,9.2930267 7.8726372,9.1408828 7.7516117,8.9887725 7.8997791,8.7422789 8.1002814,8.7621222 8.2554473,8.7766623 8.3923477,8.8560302 8.5353597,8.9085141 8.6863256,8.6862885 8.8195735,8.45392 8.962585,8.2272694 8.739618,8.0169228 8.4120122,7.848067 8.3610415,7.5279515 8.3451658,7.3136464 8.3479642,7.0967033 8.372273,6.8837324 8.4606271,6.6019732 8.7559708,6.4599925 8.9587953,6.2602514 8.8298492,6.0287612 8.6891591,5.8038808 8.5629782,5.5710732 8.2474924,5.6469104 7.9198864,5.8819267 7.5927246,5.7121691 7.3361296,5.5490207 6.9883815,5.4445214 6.8771539,5.1442463 6.8248176,4.9559654 6.7883561,4.7632805 6.736976,4.5745568 6.4728975,4.5763133 6.2088396,4.5771968 5.944775,4.574125 5.918135,4.7818069 5.877007,4.9938963 5.7713831,5.1804141 5.6690311,5.3634019 5.4685322,5.4630514 5.2899978,5.5697596 5.1628719,5.6416316 5.0348129,5.7311415 4.8810505,5.7381975 4.6197889,5.7545174 4.3921854,5.6001856 4.1486866,5.5472717 4.0056707,5.76818 3.8743423,5.9952592 3.7294565,6.2148434 3.8827545,6.3484472 4.0472674,6.4714702 4.187944,6.6169802 4.329088,6.7642501 4.354328,6.9710506 4.34311,7.1615336 4.33237,7.3559755 4.3674179,7.5755794 4.22954,7.7400449 4.092138,7.9111467 3.9000497,8.034122 3.7327303,8.1778928 c 0.128526,0.237202 0.274812,0.465622 0.4024027,0.7037429 0.2729411,-0.073622 0.5318642,-0.2557518 0.8286419,-0.1971397 0.17526,0.042784 0.3168755,0.1565338 0.4720407,0.238563 0.16872,0.085976 0.3308937,0.2107551 0.3846401,0.3920006 0.048604,0.1834238 0.095342,0.3677318 0.128994,0.554696 0.2668643,0.00222 0.5341996,0 0.8015245,8.926e-4 0.037384,-0.1583058 0.00844,-0.3761058 0.179472,-0.4700472 0.1673199,-0.1031999 0.4178374,0.042342 0.3949296,0.2301566 0,0.2958807 -0.084119,0.6852264 -0.4388672,0.7663694 -0.3930521,0.01276 -0.7870356,-0.0079 -1.1805584,0.0027 C 5.6339762,10.349066 5.5414368,10.307609 5.5068534,10.223403 5.4091725,9.9729609 5.3708504,9.7075088 5.3054182,9.4486602 5.1507201,9.3529829 4.9955548,9.2568633 4.832445,9.1743925 4.6221267,9.2476054 4.4160177,9.3335819 4.1982296,9.3865093 4.0126831,9.4297018 3.8028357,9.3485923 3.7112318,9.1889262 3.5598048,8.9472999 3.4172575,8.7003975 3.2807857,8.4508406 3.2013357,8.288996 3.1260878,8.0852862 3.2532107,7.9261307 3.4163245,7.7409371 3.6387865,7.610883 3.8065733,7.4287528 3.8019006,7.2814757 3.8257356,7.1333207 3.8037719,6.9873717 3.6266441,6.7439751 3.2831267,6.6213954 3.1910563,6.3228833 3.1382446,6.1725228 3.2261095,6.025692 3.3041585,5.8991435 3.4574541,5.6597156 3.5976628,5.4127932 3.7584412,5.177773 3.8612599,5.0291792 4.0683041,4.9652447 4.2445,5.0282976 4.43939,5.1019335 4.6347523,5.1724834 4.8319812,5.2395055 4.9763971,5.1504377 5.1320291,5.0763598 5.2647617,4.9714157 5.4049696,4.8188558 5.3643136,4.5983868 5.4302096,4.4171622 5.4806816,4.2725363 5.5503196,4.0842564 5.7349317,4.0604454 Z"
           id="path2"
           style="fill:url(#linearGradient38453);fill-opacity:1" />
      </g>
    </g>
  </g>
</svg>
