<?xml version="1.0" encoding="UTF-8" standalone="no"?>
<svg
   width="48"
   height="48"
   viewBox="0 0 48 48"
   fill="none"
   version="2"
   id="svg1"
   sodipodi:docname="folder-crash.svg"
   inkscape:version="1.4.2 (ebf0e940d0, 2025-05-08)"
   xml:space="preserve"
   xmlns:inkscape="http://www.inkscape.org/namespaces/inkscape"
   xmlns:sodipodi="http://sodipodi.sourceforge.net/DTD/sodipodi-0.dtd"
   xmlns:xlink="http://www.w3.org/1999/xlink"
   xmlns="http://www.w3.org/2000/svg"
   xmlns:svg="http://www.w3.org/2000/svg"
   xmlns:rdf="http://www.w3.org/1999/02/22-rdf-syntax-ns#"
   xmlns:cc="http://creativecommons.org/ns#"
   xmlns:dc="http://purl.org/dc/elements/1.1/"><title
     id="title1">folder-crash</title><sodipodi:namedview
     id="namedview1"
     pagecolor="#3f4354"
     bordercolor="#000000"
     borderopacity="0.5"
     inkscape:showpageshadow="1"
     inkscape:pageopacity="0"
     inkscape:pagecheckerboard="1"
     inkscape:deskcolor="#2b2f40"
     showgrid="false"
     inkscape:zoom="10.59806"
     inkscape:cx="21.749264"
     inkscape:cy="26.278394"
     inkscape:window-width="1920"
     inkscape:window-height="1048"
     inkscape:window-x="0"
     inkscape:window-y="0"
     inkscape:window-maximized="1"
     inkscape:current-layer="g1" /><g
     id="g1"><g
       id="g12"
       transform="matrix(0.55063105,0,0,0.55063105,2.5066582,-84.630889)"><path
         fill-rule="evenodd"
         clip-rule="evenodd"
         d="M 69.630331,240.11487 H 23.73743 c -1.687235,0 -3.056432,-1.37287 -3.056432,-3.05929 0,-1.6911 1.369197,-3.06087 3.056432,-3.06087 h 45.892901 c 3.378899,0 6.118627,-2.73967 6.118627,-6.11876 v -61.1864 c 0,-3.37899 -2.739728,-6.11705 -6.118627,-6.11705 H 8.4424146 c -3.3783302,0 -6.1195791,2.73806 -6.1195791,6.11705 v 58.12721 c 0,1.6907 -1.36824362,3.05919 -3.05928822,3.05919 -1.68809178,0 -3.06004908,-1.36849 -3.06004908,-3.05919 v -58.12721 c 0,-6.75802 5.4814951,-12.23572 12.2389164,-12.23572 H 69.630286 c 6.756559,0 12.23425,5.4777 12.23425,12.23572 v 61.1864 c 0,6.75804 -5.477691,12.23892 -12.234205,12.23892 z m -58.127913,-6.12016 c 1.687185,0 3.059289,1.36977 3.059289,3.06087 0,1.68642 -1.372104,3.05929 -3.059289,3.05929 -1.6910442,0 -3.0600034,-1.37287 -3.0600034,-3.05929 0,-1.6911 1.3689088,-3.06087 3.0600034,-3.06087 z"
         id="path2-0-1-4"
         style="isolation:isolate;fill:url(#linearGradient3);fill-opacity:1;stroke:url(#linearGradient7);stroke-width:1.51167;stroke-dasharray:none;stroke-opacity:1" /><path
         style="fill:url(#linearGradient10);stroke-width:11.8872"
         d="m 15.259643,176.48178 v 11.88718 h 11.887183 v -11.88718 z m 35.661563,0 v 11.88718 h 11.88718 v -11.88718 z m -23.77438,23.77435 v 5.94359 h 23.77438 v -5.94359 z m 23.77438,5.94359 v 5.94359 h 5.94358 v -5.94359 z m 5.94358,5.94359 v 5.9436 h 5.9436 v -5.9436 z m -29.71796,-5.94359 h -5.94358 v 5.94359 h 5.94358 z m -5.94358,5.94359 h -5.943603 v 5.9436 h 5.943603 z"
         id="path1"
         sodipodi:nodetypes="ccccccccccccccccccccccccccccccccccc" /></g><g
       id="g11"
       transform="matrix(0.74999965,0,0,0.74999965,3.7743922e-7,1.908614e-5)" /><rect
       style="fill:none;fill-opacity:1;fill-rule:evenodd;stroke:#000000;stroke-width:3.9;stroke-linejoin:round;stroke-dasharray:none;stroke-opacity:0;paint-order:fill markers stroke"
       id="rect1"
       width="44.075188"
       height="31.645638"
       x="1.9758538"
       y="10.78429" /></g><defs
     id="defs1"><linearGradient
       id="linearGradient11"
       inkscape:collect="always"
       inkscape:label="1"><stop
         style="stop-color:#dc3282;stop-opacity:1;"
         offset="0"
         id="stop10" /><stop
         style="stop-color:#fe7970;stop-opacity:1;"
         offset="1"
         id="stop11" /></linearGradient><linearGradient
       id="paint1_linear"
       x1="4.5768099"
       y1="45.678902"
       x2="42.3731"
       y2="4.1876402"
       gradientUnits="userSpaceOnUse"
       gradientTransform="matrix(1.4285714,0,0,1.4285714,-8.757358,-11.86756)"><stop
         stop-color="#FF5508"
         id="stop4-7" /><stop
         offset="1"
         stop-color="#FFA208"
         id="stop5-8" /></linearGradient><linearGradient
       id="paint0_linear"
       x1="4.5768099"
       y1="45.678799"
       x2="42.3731"
       y2="4.1875501"
       gradientUnits="userSpaceOnUse"
       gradientTransform="matrix(1.4285714,0,0,1.4285714,-8.757358,-11.86756)"><stop
         stop-color="#FF5508"
         id="stop2-4" /><stop
         offset="1"
         stop-color="#FFA208"
         id="stop3-5" /></linearGradient><style
       type="text/css"
       id="current-color-scheme">.ColorScheme-Text { color: #fcfcfc; } </style><linearGradient
       inkscape:collect="always"
       xlink:href="#linearGradient11"
       id="linearGradient3"
       x1="-4.5523367"
       y1="240.87071"
       x2="62.808388"
       y2="188.36896"
       gradientUnits="userSpaceOnUse" /><linearGradient
       inkscape:collect="always"
       xlink:href="#linearGradient11"
       id="linearGradient7"
       x1="-4.5523367"
       y1="240.87071"
       x2="62.808388"
       y2="188.36896"
       gradientUnits="userSpaceOnUse" /><linearGradient
       inkscape:collect="always"
       xlink:href="#linearGradient11"
       id="linearGradient10"
       x1="15.259643"
       y1="218.08691"
       x2="50.921207"
       y2="188.36896"
       gradientUnits="userSpaceOnUse" /></defs><metadata
     id="metadata1"><rdf:RDF><cc:Work
         rdf:about=""><dc:title>folder-crash</dc:title><dc:date>22-07-2025</dc:date><dc:description>Beautyline style crash folder icon. Colors inspired by the dialog-error icon of Beautyline</dc:description><cc:license
           rdf:resource="http://creativecommons.org/licenses/by-nc-sa/4.0/" /></cc:Work><cc:License
         rdf:about="http://creativecommons.org/licenses/by-nc-sa/4.0/"><cc:permits
           rdf:resource="http://creativecommons.org/ns#Reproduction" /><cc:permits
           rdf:resource="http://creativecommons.org/ns#Distribution" /><cc:requires
           rdf:resource="http://creativecommons.org/ns#Notice" /><cc:requires
           rdf:resource="http://creativecommons.org/ns#Attribution" /><cc:prohibits
           rdf:resource="http://creativecommons.org/ns#CommercialUse" /><cc:permits
           rdf:resource="http://creativecommons.org/ns#DerivativeWorks" /><cc:requires
           rdf:resource="http://creativecommons.org/ns#ShareAlike" /></cc:License></rdf:RDF></metadata></svg>
