<?xml version="1.0" encoding="UTF-8" standalone="no"?>
<!-- Created with Inkscape (http://www.inkscape.org/) -->

<svg
   width="16"
   height="16"
   viewBox="0 0 4.2333333 4.2333333"
   version="1.1"
   id="svg11654"
   inkscape:version="1.2.2 (b0a8486541, 2022-12-01)"
   sodipodi:docname="folder-build.svg"
   xmlns:inkscape="http://www.inkscape.org/namespaces/inkscape"
   xmlns:sodipodi="http://sodipodi.sourceforge.net/DTD/sodipodi-0.dtd"
   xmlns:xlink="http://www.w3.org/1999/xlink"
   xmlns="http://www.w3.org/2000/svg"
   xmlns:svg="http://www.w3.org/2000/svg">
  <sodipodi:namedview
     id="namedview11656"
     pagecolor="#505050"
     bordercolor="#ffffff"
     borderopacity="1"
     inkscape:showpageshadow="0"
     inkscape:pageopacity="0"
     inkscape:pagecheckerboard="1"
     inkscape:deskcolor="#505050"
     inkscape:document-units="mm"
     showgrid="false"
     inkscape:zoom="48.017013"
     inkscape:cx="8.9447463"
     inkscape:cy="9.3716783"
     inkscape:window-width="1920"
     inkscape:window-height="1053"
     inkscape:window-x="0"
     inkscape:window-y="27"
     inkscape:window-maximized="1"
     inkscape:current-layer="layer1" />
  <defs
     id="defs11651">
    <linearGradient
       inkscape:collect="always"
       id="linearGradient33414">
      <stop
         style="stop-color:#8d01a2;stop-opacity:1;"
         offset="0"
         id="stop33410" />
      <stop
         style="stop-color:#ff00d2;stop-opacity:1;"
         offset="1"
         id="stop33412" />
    </linearGradient>
    <linearGradient
       inkscape:collect="always"
       xlink:href="#paint1_linear_582_251"
       id="linearGradient3221"
       gradientUnits="userSpaceOnUse"
       gradientTransform="matrix(0.0201076,0,0,0.0201076,-5.1052615,0.18069017)"
       x1="70.714302"
       y1="96.5"
       x2="135.65503"
       y2="89.412201" />
    <linearGradient
       inkscape:collect="always"
       xlink:href="#linearGradient33414"
       id="linearGradient33416"
       x1="0.19915949"
       y1="3.4989285"
       x2="4.0347276"
       y2="0.77723265"
       gradientUnits="userSpaceOnUse" />
    <linearGradient
       inkscape:collect="always"
       xlink:href="#linearGradient33414"
       id="linearGradient33424"
       x1="0.19915949"
       y1="3.4989285"
       x2="4.0347276"
       y2="0.77723265"
       gradientUnits="userSpaceOnUse" />
  </defs>
  <g
     inkscape:label="Calque 1"
     inkscape:groupmode="layer"
     id="layer1">
    <g
       id="g28344"
       style="stroke:url(#linearGradient33416);stroke-width:0.127;stroke-dasharray:none;fill-opacity:1;fill:url(#linearGradient33424)">
      <path
         d="m 1.757545,0.26741919 c 0.2055379,-0.0126189 0.4116223,0.00206 0.6177127,-0.00232 0.1255551,-0.0157113 0.233923,0.0875666 0.2653067,0.19496437 0.042031,0.11409628 0.04233,0.2392641 0.089246,0.35155712 0.08163,0.0641298 0.177157,0.11074629 0.2688957,0.16122593 0.1206304,-0.0396625 0.2374523,-0.0904003 0.3616516,-0.12001678 0.1056362,-0.0270443 0.2331056,0.0100439 0.2885155,0.10276211 0.090343,0.14036476 0.1730696,0.28536586 0.2533238,0.43139676 0.043387,0.091687 0.1031636,0.2055244 0.03246,0.299016 -0.085976,0.1177033 -0.225449,0.1882704 -0.3223521,0.2967006 -0.022391,0.082158 -0.014216,0.1699833 -0.013657,0.2544511 0.082427,0.1465418 0.2756751,0.2101606 0.3482925,0.364953 0.040137,0.07006 0.027296,0.1568599 -0.016908,0.222268 C 3.8303774,2.9881957 3.7318598,3.1527694 3.625127,3.3124325 3.554145,3.4167475 3.4007546,3.4314195 3.2907518,3.3765685 3.1954838,3.3312405 3.0710254,3.3237845 3.0060446,3.2349175 2.9353616,3.1460695 3.0218966,3.0020927 3.138997,3.0136833 3.229619,3.0221733 3.3095742,3.0685343 3.3930983,3.0991903 3.4812682,2.9693883 3.5590897,2.8336616 3.6426136,2.7012749 3.5123929,2.5784113 3.3210593,2.4797824 3.2912906,2.2928028 3.2820186,2.1676269 3.283653,2.0409104 3.2978502,1.9165139 3.3494521,1.7519382 3.5219434,1.6690071 3.6404003,1.5523382 3.5650911,1.4171245 3.482923,1.2857718 3.4092289,1.1497887 3.2249737,1.1940852 3.0336401,1.3313584 2.8425657,1.2322028 2.692705,1.1369077 2.4896077,1.0758697 2.4246468,0.90047869 2.3940804,0.79050369 2.3727856,0.67795623 2.3427778,0.56772271 2.1885464,0.56874865 2.0343271,0.56927001 1.8801039,0.56747049 1.8645454,0.68877757 1.8405251,0.81265916 1.7788363,0.92160434 1.7190595,1.0284878 1.6019604,1.086693 1.49769,1.1490214 1.4234437,1.1910019 1.3486528,1.2432847 1.2588501,1.2474059 1.1062638,1.2569351 0.97333514,1.166793 0.83112312,1.1358862 0.74759707,1.2649189 0.67089614,1.397556 0.5862776,1.5258154 c 0.0895315,0.078038 0.18561308,0.1498958 0.26777321,0.2348883 0.0824334,0.086021 0.0971742,0.2068128 0.0906223,0.3180741 -0.006276,0.1135734 0.0141972,0.2418445 -0.0663287,0.3379088 -0.0802481,0.099941 -0.19243418,0.1717707 -0.29015476,0.2557475 0.075064,0.1385497 0.16050009,0.2719701 0.23501764,0.4110567 C 0.9826147,3.0404888 1.1338352,2.9341059 1.307164,2.9683409 c 0.1023582,0.02499 0.1850667,0.091432 0.2756888,0.1393448 0.098538,0.050219 0.1932538,0.1231023 0.2246437,0.2289679 0.028387,0.1071379 0.055683,0.2147925 0.075337,0.3239984 0.1558583,0.0013 0.3119918,0 0.4681192,5.214e-4 0.021833,-0.092466 0.00493,-0.2196838 0.1048186,-0.274555 0.097721,-0.060279 0.244032,0.024732 0.2306531,0.1344347 0,0.1728241 -0.049129,0.4002408 -0.2563143,0.4476373 -0.2295565,0.00746 -0.4596572,-0.00464 -0.6894887,0.00153 C 1.6985862,3.9406183 1.6445399,3.9164032 1.6243418,3.867218 1.5672927,3.7209346 1.5449113,3.5658838 1.5066965,3.4146902 1.4163472,3.358805 1.3257251,3.3026616 1.2304631,3.2544902 1.1076296,3.297254 0.98725453,3.3474729 0.86005846,3.3783878 0.75169259,3.4036166 0.62913416,3.3562404 0.57563415,3.2629794 0.48719537,3.1218452 0.40394256,2.9776293 0.32423822,2.8318629 0.27783655,2.7373294 0.23388903,2.6183424 0.30813334,2.5253795 0.40339768,2.4172078 0.53332361,2.3412431 0.6313171,2.2348607 0.62858795,2.1488361 0.64250854,2.0622986 0.62968095,1.9770496 0.52623195,1.8348816 0.32560534,1.7632827 0.27183299,1.5889215 0.24098897,1.5010958 0.29230527,1.4153319 0.33788876,1.3414147 0.42741889,1.2015648 0.50930579,1.0573372 0.60320612,0.92006175 0.66325597,0.83326796 0.78417729,0.79592368 0.88708198,0.83275302 1.0009051,0.87576335 1.1150034,0.91697224 1.2301922,0.9561198 1.3145352,0.9040954 1.4054311,0.8608268 1.4829516,0.79952819 c 0.081887,-0.08911 0.058142,-0.21788637 0.096628,-0.32373988 0.029478,-0.0844763 0.070149,-0.19445058 0.1779686,-0.2083585 z"
         id="path2"
         style="stroke:url(#linearGradient33416);stroke-width:0.127;stroke-dasharray:none;fill-opacity:1.0;fill:url(#linearGradient33424)" />
      <path
         d="m 1.5785846,2.9035401 c 0.025877,0.018157 0.055579,0.028955 0.086341,0.031368 0.030763,0.00241 0.06159,-0.00362 0.089622,-0.017534 L 2.9933841,2.303067 c 0.032374,-0.015804 0.059841,-0.041381 0.079103,-0.073674 0.019264,-0.032273 0.029519,-0.069892 0.029519,-0.1083216 0,-0.03843 -0.010257,-0.076045 -0.029519,-0.1083256 -0.019262,-0.032283 -0.04673,-0.05786 -0.079103,-0.073662 L 1.7545479,1.3247761 c -0.028407,-0.014047 -0.059642,-0.020061 -0.090779,-0.017475 -0.031138,0.00258 -0.061161,0.013681 -0.087254,0.032253 -0.026093,0.018569 -0.047404,0.044006 -0.061933,0.073922 -0.014527,0.029918 -0.021805,0.063337 -0.02114,0.097128 v 1.2286183 c 5.103e-4,0.032876 0.00851,0.065129 0.023367,0.093822 0.014867,0.028673 0.036095,0.052903 0.061777,0.070497 z M 1.7204888,1.5827848 2.814587,2.1249096 1.7204888,2.6639581 Z"
         id="path28330"
         style="stroke:url(#linearGradient33416);stroke-width:0.127;stroke-dasharray:none;fill-opacity:1.0;fill:url(#linearGradient33424)" />
    </g>
  </g>
</svg>
