<?xml version="1.0" encoding="UTF-8" standalone="no"?>
<svg
   width="16"
   height="16"
   viewBox="0 0 16 16"
   fill="none"
   version="1.1"
   id="svg4"
   sodipodi:docname="folder-presentation_libreoffice-draw-alt.svg"
   inkscape:version="1.4.2 (ebf0e940d0, 2025-05-08)"
   xmlns:inkscape="http://www.inkscape.org/namespaces/inkscape"
   xmlns:sodipodi="http://sodipodi.sourceforge.net/DTD/sodipodi-0.dtd"
   xmlns="http://www.w3.org/2000/svg"
   xmlns:svg="http://www.w3.org/2000/svg">
  <sodipodi:namedview
     id="namedview4"
     pagecolor="#505050"
     bordercolor="#ffffff"
     borderopacity="1"
     inkscape:showpageshadow="0"
     inkscape:pageopacity="0"
     inkscape:pagecheckerboard="1"
     inkscape:deskcolor="#d1d1d1"
     inkscape:zoom="53.0625"
     inkscape:cx="8"
     inkscape:cy="8"
     inkscape:window-width="1920"
     inkscape:window-height="1048"
     inkscape:window-x="0"
     inkscape:window-y="0"
     inkscape:window-maximized="1"
     inkscape:current-layer="svg4" />
  <path
     d="m 10.417763,10.82073 h 1.611842 c 0.22276,0 0.402991,-0.180232 0.402991,-0.402967 V 5.582237 c 0,-0.222735 -0.180231,-0.402967 -0.402991,-0.402967 h -1.611842 c -0.222735,0 -0.402967,0.180232 -0.402967,0.402967 v 4.835526 c 0,0.222735 0.180232,0.402967 0.402967,0.402967 z M 10.82073,5.985204 h 0.805909 v 4.029592 H 10.82073 Z M 14.474263,1.955586 H 8.402954 V 1.525761 C 8.402954,1.303037 8.222735,1.122807 8,1.122807 c -0.222735,0 -0.402954,0.18023 -0.402954,0.402954 V 1.955586 H 1.525761 c -0.222724,0 -0.402954,0.180232 -0.402954,0.402967 v 1.611842 c 0,0.222735 0.18023,0.402966 0.402954,0.402966 h 0.402967 v 7.683102 c 0,0.22276 0.180232,0.402905 0.402967,0.402905 H 5.829226 L 5.291982,14.071333 H 4.776316 c -0.222735,0 -0.402955,0.180158 -0.402955,0.40293 0,0.222772 0.18022,0.40293 0.402955,0.40293 h 0.805921 c 0.148154,0 0.317763,-0.107825 0.375445,-0.266491 0.03843,-0.105614 0.69973,-2.078632 0.721086,-2.151334 h 0.918278 v 2.014895 c 0,0.222772 0.180219,0.40293 0.402954,0.40293 0.222735,0 0.402954,-0.180158 0.402954,-0.40293 v -2.014895 h 0.918621 c 0.07368,0.220071 -0.266712,-0.796882 0.72073,2.151334 0.05739,0.157807 0.226776,0.266491 0.375458,0.266491 h 0.805921 c 0.222735,0 0.402955,-0.180158 0.402955,-0.40293 0,-0.222772 -0.18022,-0.40293 -0.402955,-0.40293 H 10.70803 l -0.537256,-1.611965 h 3.497507 c 0.222772,0 0.403052,-0.180145 0.403052,-0.402905 V 4.373361 h 0.40293 c 0.222772,0 0.40293,-0.180231 0.40293,-0.402966 V 2.358553 c 0,-0.222735 -0.180158,-0.402967 -0.40293,-0.402967 z m -1.208912,9.697923 H 2.734649 V 4.373361 H 13.265351 Z M 14.071333,3.567428 H 1.928728 V 2.761519 H 14.071333 Z M 7.194079,10.82073 h 1.611842 c 0.222735,0 0.402967,-0.180232 0.402967,-0.402967 V 7.194079 c 0,-0.222735 -0.180232,-0.402967 -0.402967,-0.402967 H 7.194079 c -0.222735,0 -0.402967,0.180232 -0.402967,0.402967 v 3.223684 c 0,0.222735 0.180232,0.402967 0.402967,0.402967 z M 7.597046,7.597046 h 0.805908 v 2.41775 H 7.597046 Z M 3.970395,10.82073 h 1.611842 c 0.222735,0 0.402967,-0.180232 0.402967,-0.402967 V 8.805921 c 0,-0.222735 -0.180232,-0.402967 -0.402967,-0.402967 H 3.970395 c -0.222735,0 -0.402967,0.180232 -0.402967,0.402967 v 1.611842 c 0,0.222735 0.180232,0.402967 0.402967,0.402967 z M 4.373361,9.208888 H 5.17927 v 0.805908 H 4.373361 Z"
     fill="url(#paint0_linear_618_150)"
     stroke="url(#paint1_linear_618_150)"
     stroke-width="0.245614"
     id="path1"
     style="fill:url(#paint0_linear_618_150);stroke:url(#paint1_linear_618_150)" />
  <defs
     id="defs4">
    <linearGradient
       id="paint0_linear_618_150"
       x1="64"
       y1="120"
       x2="64"
       y2="8"
       gradientUnits="userSpaceOnUse"
       gradientTransform="matrix(0.12280702,0,0,0.12280702,0.140351,0.140351)">
      <stop
         stop-color="#FF00B8"
         id="stop1" />
      <stop
         offset="1"
         stop-color="#FAFF00"
         id="stop2" />
    </linearGradient>
    <linearGradient
       id="paint1_linear_618_150"
       x1="64"
       y1="120"
       x2="64"
       y2="8"
       gradientUnits="userSpaceOnUse"
       gradientTransform="matrix(0.12280702,0,0,0.12280702,0.140351,0.140351)">
      <stop
         stop-color="#FF00B8"
         id="stop3" />
      <stop
         offset="1"
         stop-color="#FAFF00"
         id="stop4" />
    </linearGradient>
  </defs>
</svg>
