<?xml version="1.0" encoding="UTF-8" standalone="no"?>
<!-- Created with Inkscape (http://www.inkscape.org/) -->

<svg
   width="16"
   height="16"
   viewBox="0 0 4.2333333 4.2333333"
   version="1.1"
   id="svg1"
   inkscape:version="1.4.2 (ebf0e940d0, 2025-05-08)"
   sodipodi:docname="align-horizontal-baseline.svg"
   xmlns:inkscape="http://www.inkscape.org/namespaces/inkscape"
   xmlns:sodipodi="http://sodipodi.sourceforge.net/DTD/sodipodi-0.dtd"
   xmlns:xlink="http://www.w3.org/1999/xlink"
   xmlns="http://www.w3.org/2000/svg"
   xmlns:svg="http://www.w3.org/2000/svg">
  <sodipodi:namedview
     id="namedview1"
     pagecolor="#505050"
     bordercolor="#ffffff"
     borderopacity="1"
     inkscape:showpageshadow="0"
     inkscape:pageopacity="0"
     inkscape:pagecheckerboard="1"
     inkscape:deskcolor="#d1d1d1"
     inkscape:document-units="mm"
     inkscape:zoom="53.0625"
     inkscape:cx="8"
     inkscape:cy="8"
     inkscape:current-layer="layer1" />
  <defs
     id="defs1">
    <linearGradient
       inkscape:collect="always"
       xlink:href="#paint0_linear_451_2933"
       id="linearGradient51"
       x1="7.625"
       y1="11.002052"
       x2="14.375"
       y2="11.002052"
       gradientUnits="userSpaceOnUse" />
    <linearGradient
       id="paint0_linear_451_2933"
       x1="2.75"
       y1="10.3125"
       x2="18.371799"
       y2="8.5861902"
       gradientUnits="userSpaceOnUse"
       inkscape:label="1">
      <stop
         stop-color="#8D01A2"
         id="stop1" />
      <stop
         offset="1"
         stop-color="#FF00D2"
         id="stop2" />
    </linearGradient>
    <inkscape:path-effect
       effect="fillet_chamfer"
       id="path-effect50"
       is_visible="true"
       lpeversion="1"
       nodesatellites_param="F,0,0,1,0,0.4,0,1 @ F,0,0,1,0,0.4,0,1 @ F,0,0,1,0,0.4,0,1 @ F,0,0,1,0,0.4,0,1 @ F,0,0,1,0,0,0,1 @ F,0,0,1,0,0.4,0,1 @ F,0,0,1,0,0.4,0,1 @ F,0,0,1,0,0,0,1 | F,0,0,1,0,0,0,1 @ F,0,0,1,0,0.4,0,1 @ F,0,0,1,0,0.4,0,1 @ F,0,0,1,0,0,0,1 @ F,0,0,1,0,0,0,1 @ F,0,0,1,0,0,0,1 @ F,0,0,1,0,0,0,1 @ F,0,0,1,0,0,0,1 @ F,0,0,1,0,0,0,1 @ F,0,0,1,0,0,0,1 @ F,0,0,1,0,0,0,1 @ F,0,0,1,0,0.4,0,1 @ F,0,0,1,0,0.4,0,1 @ F,0,0,1,0,0,0,1 @ F,0,0,1,0,0,0,1 | F,0,0,1,0,0,0,1 @ F,0,0,1,0,0,0,1 @ F,0,0,1,0,0,0,1 @ F,0,0,1,0,0,0,1 @ F,0,0,1,0,0,0,1 | F,0,0,1,0,0.4,0,1 @ F,0,0,1,0,0.4,0,1 @ F,0,0,1,0,0.4,0,1 @ F,0,0,1,0,0.4,0,1"
       radius="0"
       unit="px"
       method="auto"
       mode="F"
       chamfer_steps="1"
       flexible="false"
       use_knot_distance="true"
       apply_no_radius="true"
       apply_with_radius="true"
       only_selected="false"
       hide_knots="false" />
  </defs>
  <g
     inkscape:label="Calque 1"
     inkscape:groupmode="layer"
     id="layer1">
    <path
       style="color:#fcfcfc;fill:url(#linearGradient51);stroke:none"
       d="m 7.706826,16.391541 0.045332,0.216918 c 0.045191,0.216242 0.2592052,0.365958 0.4757822,0.32252 C 10.28479,16.518454 14.09572,14.989675 14.360444,11.399582 14.376683,11.17935 14.195914,11 13.975,11 h -0.307422 c -0.220914,0 -0.400369,0.179797 -0.429402,0.39864 -0.09577,0.721896 -0.421591,1.718215 -0.919817,2.146282 -0.534985,-0.506978 -1.166129,-1.256707 -1.43517,-2.140449 -0.06428,-0.211138 -0.271232,-0.391983 -0.492112,-0.395849 l -0.0927,-0.0016 c -0.22088,-0.0039 -0.402404,0.172967 -0.373761,0.391858 0.162885,1.244778 1.052948,2.272415 1.737494,2.927313 -0.986908,1.005909 -2.3204681,1.319437 -3.6461507,1.593433 -0.2158756,0.04462 -0.3543236,0.255694 -0.3091323,0.471936 z M 12.257812,5 c -0.660791,0.013862 -1.204498,0.096586 -1.640099,0.2237598 -0.211954,0.06188 -0.32578,0.3031705 -0.262006,0.514679 l 0.04054,0.1344506 c 0.06377,0.2115085 0.28648,0.3295197 0.499966,0.2727767 0.368983,-0.098073 0.889465,-0.2159786 1.240507,-0.2159786 h 0.07031 c 0.716266,0.0273 0.765625,0.2628086 0.765625,0.8183594 v 0.21875 l -0.373047,0.054687 C 10.864424,7.2491747 9.9374999,7.4403864 9.9375,8.6425781 9.9375,9.4804693 10.61323,10 11.591797,10 c 0.675912,0 1.120254,-0.255482 1.574218,-0.6015625 l 0.03425,0.1241686 a 0.52528577,0.52528577 37.288919 0 0 0.506372,0.385597 H 13.975 a 0.4,0.4 135 0 0 0.4,-0.4 V 6.5390625 C 14.375,5.5099211 13.589501,5 12.378906,5 Z m 0.714844,2.6777344 V 8.796875 c -0.373258,0.2276903 -0.654434,0.3925781 -1.138672,0.3925781 -0.433793,0 -0.646484,-0.2457164 -0.646484,-0.5917969 0,-0.6557408 0.635308,-0.7650542 1.412109,-0.8652343 z M 7.8828358,5.4041045 V 16.604104 a 0.4,0.4 45 0 0 0.4,0.4 h 0.2 a 0.4,0.4 135 0 0 0.4,-0.4 l 0,-11.1999995 a 0.4,0.4 45 0 0 -0.4,-0.4 h -0.2 a 0.4,0.4 135 0 0 -0.4,0.4 z"
       class="ColorScheme-Text"
       id="path1-7"
       sodipodi:nodetypes="ccccccccccccscsccsscccsscccssccccccc"
       inkscape:path-effect="#path-effect50"
       inkscape:original-d="m 7.625,16 0.2089843,1 C 9.8147383,16.707394 14.375,15.131742 14.375,11 h -1.107422 c 0,0.69264 -0.349859,2.029962 -0.949219,2.544922 -0.61184,-0.57981 -1.349453,-1.477127 -1.527343,-2.529297 L 9.8984374,11 c 0,1.42386 1.0072916,2.602552 1.7636716,3.326172 C 10.578044,15.431109 9.0757131,15.70063 7.625,16 Z M 12.257812,5 c -0.867587,0.0182 -1.53334,0.1551085 -2.017578,0.3554688 l 0.271485,0.9003906 c 0.232028,-0.0729 1.1105,-0.3261719 1.625,-0.3261719 h 0.07031 c 0.716266,0.0273 0.765625,0.2628086 0.765625,0.8183594 v 0.21875 l -0.373047,0.054687 C 10.864424,7.2491747 9.9374999,7.4403864 9.9375,8.6425781 9.9375,9.4804693 10.61323,10 11.591797,10 12.267709,10 12.712051,9.744518 13.166015,9.3984375 L 13.30664,9.9082031 H 14.375 V 6.5390625 C 14.375,5.5099211 13.589501,5 12.378906,5 Z m 0.714844,2.6777344 V 8.796875 c -0.373258,0.2276903 -0.654434,0.3925781 -1.138672,0.3925781 -0.433793,0 -0.646484,-0.2457164 -0.646484,-0.5917969 0,-0.6557408 0.635308,-0.7650542 1.412109,-0.8652343 z M 7.8828358,5.0041045 V 17.004104 h 1 V 5.0041045 Z"
       transform="matrix(0.26458333,0,0,0.26458333,-0.80344377,-0.79429289)" />
  </g>
</svg>
