<?xml version="1.0" encoding="UTF-8" standalone="no"?>
<!-- Created with Inkscape (http://www.inkscape.org/) -->

<svg
   width="16"
   height="16"
   viewBox="0 0 4.2333333 4.2333333"
   version="1.1"
   id="svg1"
   inkscape:version="1.4.2 (ebf0e940d0, 2025-05-08)"
   sodipodi:docname="align-​vertical-​node.svg"
   xmlns:inkscape="http://www.inkscape.org/namespaces/inkscape"
   xmlns:sodipodi="http://sodipodi.sourceforge.net/DTD/sodipodi-0.dtd"
   xmlns:xlink="http://www.w3.org/1999/xlink"
   xmlns="http://www.w3.org/2000/svg"
   xmlns:svg="http://www.w3.org/2000/svg">
  <sodipodi:namedview
     id="namedview1"
     pagecolor="#505050"
     bordercolor="#ffffff"
     borderopacity="1"
     inkscape:showpageshadow="0"
     inkscape:pageopacity="0"
     inkscape:pagecheckerboard="1"
     inkscape:deskcolor="#d1d1d1"
     inkscape:document-units="mm"
     inkscape:zoom="53.0625"
     inkscape:cx="7.9905771"
     inkscape:cy="8"
     inkscape:current-layer="svg1" />
  <defs
     id="defs1">
    <linearGradient
       id="paint0_linear_651_140"
       x1="3.5374999"
       y1="13.3472"
       x2="16.162201"
       y2="2.33196"
       gradientUnits="userSpaceOnUse"
       inkscape:label="Beautyline_yellow_gradient"
       spreadMethod="pad">
      <stop
         stop-color="#FE0844"
         id="stop4012" />
      <stop
         offset="1"
         stop-color="#FEB302"
         id="stop4014" />
    </linearGradient>
    <linearGradient
       id="paint0_linear_451_2933-7"
       x1="2.75"
       y1="10.3125"
       x2="18.371799"
       y2="8.5861902"
       gradientUnits="userSpaceOnUse"
       inkscape:label="Beautyline_purple_gradient"
       inkscape:swatch="gradient">
      <stop
         stop-color="#8D01A2"
         id="stop1-5" />
      <stop
         offset="1"
         stop-color="#FF00D2"
         id="stop2-3" />
    </linearGradient>
    <linearGradient
       inkscape:collect="always"
       xlink:href="#paint0_linear_651_140"
       id="linearGradient150"
       gradientUnits="userSpaceOnUse"
       x1="3"
       y1="11"
       x2="20"
       y2="11" />
    <linearGradient
       inkscape:collect="always"
       xlink:href="#paint0_linear_451_2933-7"
       id="linearGradient152"
       gradientUnits="userSpaceOnUse"
       x1="8"
       y1="11"
       x2="15"
       y2="11" />
  </defs>
  <g
     id="g135"
     transform="matrix(0,-0.23345588,0.23345588,0,-0.45134809,4.8014094)"
     description="align-​vertical-​node">
    <path
       id="path134"
       class="ColorScheme-Text"
       d="M 3,3.4 V 6.6 A 0.4,0.4 45 0 0 3.4,7 H 6.6 A 0.4,0.4 135 0 0 7,6.6 V 3.4 A 0.4,0.4 45 0 0 6.6,3 H 3.4 A 0.4,0.4 135 0 0 3,3.4 Z M 11,3.2 V 3.8 A 0.2,0.2 45 0 0 11.2,4 h 0.6 A 0.2,0.2 135 0 0 12,3.8 L 12,3.2 A 0.2,0.2 45 0 0 11.8,3 L 11.2,3 A 0.2,0.2 135 0 0 11,3.2 Z M 4.2,4 H 5.8 A 0.2,0.2 45 0 1 6,4.2 V 5.8 A 0.2,0.2 135 0 1 5.8,6 H 4.2 A 0.2,0.2 45 0 1 4,5.8 V 4.2 A 0.2,0.2 135 0 1 4.2,4 Z M 11,6.2 V 6.8 A 0.2,0.2 45 0 0 11.2,7 l 0.6,0 A 0.2,0.2 135 0 0 12,6.8 L 12,6.2 A 0.2,0.2 45 0 0 11.8,6 L 11.2,6 A 0.2,0.2 135 0 0 11,6.2 Z m 0,3 v 0.6 a 0.2,0.2 45 0 0 0.2,0.2 h 0.6 A 0.2,0.2 135 0 0 12,9.8 L 12,9.2 A 0.2,0.2 45 0 0 11.8,9 H 11.2 A 0.2,0.2 135 0 0 11,9.2 Z m 5,0.2 v 3.2 a 0.4,0.4 45 0 0 0.4,0.4 l 3.2,0 A 0.4,0.4 135 0 0 20,12.6 V 9.4 A 0.4,0.4 45 0 0 19.6,9 H 16.4 A 0.4,0.4 135 0 0 16,9.4 Z m 1.2,0.6 h 1.6 a 0.2,0.2 45 0 1 0.2,0.2 v 1.6 A 0.2,0.2 135 0 1 18.8,12 H 17.2 A 0.2,0.2 45 0 1 17,11.8 V 10.2 A 0.2,0.2 135 0 1 17.2,10 Z M 11,12.2 v 0.6 a 0.2,0.2 45 0 0 0.2,0.2 h 0.6 A 0.2,0.2 135 0 0 12,12.8 l 0,-0.6 A 0.2,0.2 45 0 0 11.8,12 l -0.6,0 A 0.2,0.2 135 0 0 11,12.2 Z m -8,3.2 v 3.2 A 0.4,0.4 45 0 0 3.4,19 H 6.6 A 0.4,0.4 135 0 0 7,18.6 V 15.4 A 0.4,0.4 45 0 0 6.6,15 H 3.4 A 0.4,0.4 135 0 0 3,15.4 Z m 8,-0.2 v 0.6 a 0.2,0.2 45 0 0 0.2,0.2 h 0.6 A 0.2,0.2 135 0 0 12,15.8 l 0,-0.6 A 0.2,0.2 45 0 0 11.8,15 H 11.2 A 0.2,0.2 135 0 0 11,15.2 Z M 4.2,16 H 5.8 A 0.2,0.2 45 0 1 6,16.2 v 1.6 A 0.2,0.2 135 0 1 5.8,18 H 4.2 A 0.2,0.2 45 0 1 4,17.8 V 16.2 A 0.2,0.2 135 0 1 4.2,16 Z m 6.8,2.2 v 0.6 a 0.2,0.2 45 0 0 0.2,0.2 h 0.6 A 0.2,0.2 135 0 0 12,18.8 l 0,-0.6 A 0.2,0.2 45 0 0 11.8,18 H 11.2 A 0.2,0.2 135 0 0 11,18.2 Z"
       fill="currentColor"
       style="color:#fcfcfc;fill:url(#linearGradient150)"
       inkscape:path-effect="#path-effect150" />
    <path
       id="path135"
       class="ColorScheme-Accent"
       d="m 8,3 v 4 l 3,-2 z m 7,6 -3,2 3,2 z m -7,6 v 4 l 3,-2 z"
       fill="currentColor"
       style="color:#3daee9;fill:url(#linearGradient152)" />
  </g>
</svg>
