<?xml version="1.0" encoding="UTF-8" standalone="no"?>
<svg
   width="256"
   height="256"
   viewBox="0 0 256 256"
   fill="none"
   version="1.1"
   id="svg13518"
   sodipodi:docname="dialog-objects.svg"
   inkscape:version="1.2.2 (b0a8486541, 2022-12-01)"
   xmlns:inkscape="http://www.inkscape.org/namespaces/inkscape"
   xmlns:sodipodi="http://sodipodi.sourceforge.net/DTD/sodipodi-0.dtd"
   xmlns="http://www.w3.org/2000/svg"
   xmlns:svg="http://www.w3.org/2000/svg">
  <sodipodi:namedview
     id="namedview13520"
     pagecolor="#505050"
     bordercolor="#ffffff"
     borderopacity="1"
     inkscape:showpageshadow="0"
     inkscape:pageopacity="0"
     inkscape:pagecheckerboard="1"
     inkscape:deskcolor="#505050"
     showgrid="false"
     inkscape:zoom="2.2179951"
     inkscape:cx="139.08958"
     inkscape:cy="119.47727"
     inkscape:window-width="1920"
     inkscape:window-height="1053"
     inkscape:window-x="0"
     inkscape:window-y="27"
     inkscape:window-maximized="1"
     inkscape:current-layer="svg13518" />
  <g
     id="g13665"
     transform="matrix(0.95319693,0,0,0.95319693,0.23692854,5.990793)">
    <path
       d="M 148.85364,74 H 3.953639 c -3.7278,0 -5.478739,-3.839078 -3.15,-6.75 l 32.4,-40.5 c 2.328738,-2.910922 6.6222,-6.75 10.35,-6.75 H 192.05364 c 3.7278,0 5.62662,3.963805 3.15,6.75 l -36,40.5 c -2.47662,2.786195 -6.6222,6.75 -10.35,6.75 z"
       fill="url(#paint0_linear_89_1693)"
       id="path13495"
       sodipodi:nodetypes="sssssssss"
       style="fill:url(#paint0_linear_89_1693);stroke-width:0.9" />
    <path
       d="M 184.85364,155 H 36.353639 c -3.7278,0 -5.626616,-3.96381 -3.15,-6.75 l 36,-40.5 c 2.476615,-2.78619 6.6222,-6.75 10.35,-6.75 H 228.05364 c 3.7278,0 5.62662,3.96381 3.15,6.75 l -36,40.5 c -2.47662,2.78619 -6.6222,6.75 -10.35,6.75 z"
       fill="url(#paint1_linear_89_1693)"
       id="path13497"
       sodipodi:nodetypes="sssssssss"
       style="fill:url(#paint1_linear_89_1693);stroke-width:0.9" />
    <path
       d="M 220.85364,236 H 72.353639 c -3.7278,0 -5.626616,-3.96381 -3.15,-6.75 l 36.000001,-40.5 c 2.47662,-2.78619 6.6222,-6.75 10.35,-6.75 h 148.5 c 3.7278,0 5.62662,3.96381 3.15,6.75 l -36,40.5 c -2.47662,2.78619 -6.6222,6.75 -10.35,6.75 z"
       fill="url(#paint2_linear_89_1693)"
       id="path13499"
       sodipodi:nodetypes="sssssssss"
       style="fill:url(#paint2_linear_89_1693);stroke-width:0.9" />
  </g>
  <defs
     id="defs13516">
    <linearGradient
       id="paint0_linear_89_1693"
       x1="128"
       y1="68"
       x2="128"
       y2="8"
       gradientUnits="userSpaceOnUse"
       gradientTransform="matrix(0.9,0,0,0.9,-0.996361,12.8)">
      <stop
         stop-color="#FD5900"
         id="stop13501" />
      <stop
         offset="1"
         stop-color="#FFDE00"
         id="stop13503" />
    </linearGradient>
    <linearGradient
       id="paint1_linear_89_1693"
       x1="128"
       y1="158"
       x2="128"
       y2="98"
       gradientUnits="userSpaceOnUse"
       gradientTransform="matrix(0.9,0,0,0.9,-0.996361,12.8)">
      <stop
         stop-color="#FD3A84"
         id="stop13506" />
      <stop
         offset="1"
         stop-color="#FFA68D"
         id="stop13508" />
    </linearGradient>
    <linearGradient
       id="paint2_linear_89_1693"
       x1="128"
       y1="248"
       x2="128"
       y2="188"
       gradientUnits="userSpaceOnUse"
       gradientTransform="matrix(0.9,0,0,0.9,-0.996361,12.8)">
      <stop
         stop-color="#A93AFF"
         id="stop13511" />
      <stop
         offset="1"
         stop-color="#FF81FF"
         id="stop13513" />
    </linearGradient>
  </defs>
</svg>
