<?xml version="1.0" encoding="UTF-8" standalone="no"?>
<svg
   width="64"
   height="64"
   viewBox="0 0 64 64"
   fill="none"
   version="1.1"
   id="svg1393"
   sodipodi:docname="dialog-tile-clones_alt.svg"
   inkscape:version="1.2.2 (b0a8486541, 2022-12-01)"
   xmlns:inkscape="http://www.inkscape.org/namespaces/inkscape"
   xmlns:sodipodi="http://sodipodi.sourceforge.net/DTD/sodipodi-0.dtd"
   xmlns:xlink="http://www.w3.org/1999/xlink"
   xmlns="http://www.w3.org/2000/svg"
   xmlns:svg="http://www.w3.org/2000/svg">
  <sodipodi:namedview
     id="namedview1395"
     pagecolor="#505050"
     bordercolor="#ffffff"
     borderopacity="1"
     inkscape:showpageshadow="0"
     inkscape:pageopacity="0"
     inkscape:pagecheckerboard="1"
     inkscape:deskcolor="#505050"
     showgrid="true"
     inkscape:zoom="8"
     inkscape:cx="13.0625"
     inkscape:cy="10.75"
     inkscape:window-width="1920"
     inkscape:window-height="1053"
     inkscape:window-x="0"
     inkscape:window-y="27"
     inkscape:window-maximized="1"
     inkscape:current-layer="g2302">
    <inkscape:grid
       type="xygrid"
       id="grid2647"
       spacingx="0.25"
       spacingy="0.25" />
  </sodipodi:namedview>
  <defs
     id="defs1391">
    <linearGradient
       id="paint0_linear"
       x1="32"
       y1="61"
       x2="32"
       y2="3"
       gradientUnits="userSpaceOnUse">
      <stop
         stop-color="#5570FF"
         id="stop1366" />
      <stop
         offset="1"
         stop-color="#4DD3FF"
         id="stop1368" />
    </linearGradient>
    <linearGradient
       id="paint1_linear"
       x1="21.5636"
       y1="33.0361"
       x2="21.5636"
       y2="18"
       gradientUnits="userSpaceOnUse">
      <stop
         stop-color="#FD3A84"
         id="stop1371" />
      <stop
         offset="1"
         stop-color="#FFA68D"
         id="stop1373" />
    </linearGradient>
    <linearGradient
       id="paint2_linear"
       x1="42.690701"
       y1="33.036098"
       x2="42.690701"
       y2="18"
       gradientUnits="userSpaceOnUse"
       spreadMethod="pad">
      <stop
         stop-color="#02AA93"
         id="stop1376" />
      <stop
         offset="1"
         stop-color="#67FF80"
         id="stop1378" />
    </linearGradient>
    <linearGradient
       id="paint3_linear"
       x1="42.6908"
       y1="54.0723"
       x2="42.6908"
       y2="39.0361"
       gradientUnits="userSpaceOnUse">
      <stop
         stop-color="#5570FF"
         id="stop1381" />
      <stop
         offset="1"
         stop-color="#4DD3FF"
         id="stop1383" />
    </linearGradient>
    <linearGradient
       id="paint4_linear"
       x1="21.5636"
       y1="54.0722"
       x2="21.5636"
       y2="39.0361"
       gradientUnits="userSpaceOnUse">
      <stop
         stop-color="#FDA700"
         id="stop1386" />
      <stop
         offset="1"
         stop-color="#FFDE00"
         id="stop1388" />
    </linearGradient>
    <linearGradient
       inkscape:collect="always"
       xlink:href="#linearGradient22025"
       id="linearGradient22035"
       x1="47.25"
       y1="24.174898"
       x2="47.25"
       y2="50.841564"
       gradientUnits="userSpaceOnUse"
       gradientTransform="matrix(0.39703244,0,0,0.39703244,20.664696,31.770194)" />
    <linearGradient
       inkscape:collect="always"
       id="linearGradient22025">
      <stop
         style="stop-color:#9cffac;stop-opacity:1;"
         offset="0"
         id="stop22021" />
      <stop
         style="stop-color:#00b59c;stop-opacity:1;"
         offset="1"
         id="stop22023" />
    </linearGradient>
    <linearGradient
       inkscape:collect="always"
       xlink:href="#paint3_linear"
       id="linearGradient2304"
       gradientUnits="userSpaceOnUse"
       x1="42.6908"
       y1="54.0723"
       x2="42.6908"
       y2="39.0361" />
    <linearGradient
       inkscape:collect="always"
       xlink:href="#paint2_linear"
       id="linearGradient4165"
       x1="33.280758"
       y1="40.485508"
       x2="20.921303"
       y2="21.534344"
       gradientUnits="userSpaceOnUse" />
  </defs>
  <g
     id="g2302"
     transform="matrix(1.5170571,0,0,1.5170571,-16.738811,-22.668828)">
    <path
       d="m 14.0085,19.7932 c -0.1064,-0.9662 0.8044,-1.8866 1.7821,-1.7856 3.8602,0.0023 7.7227,0.0023 11.5828,0 0.8691,-0.0826 1.8145,0.6633 1.7498,1.563 -0.0046,2.4534 0.0023,4.9091 -0.0046,7.3625 0.0809,0.56 -0.4207,0.9318 -0.8506,1.1774 -0.7906,0.3351 -1.7729,-0.3603 -1.7429,-1.2049 -0.0069,-2.0908 -0.0116,-4.1816 0.0069,-6.2724 -3.2984,-0.0092 -6.5969,-0.0069 -9.8954,0 0.0139,3.2704 0.0162,6.5432 -0.0023,9.816 2.0988,0.0206 4.2,-0.0184 6.2988,0.0161 0.8344,-0.0092 1.5186,0.957 1.1788,1.7281 -0.2427,0.4017 -0.5894,0.8882 -1.1257,0.8332 -2.4732,0.0183 -4.9465,0.0045 -7.4198,0.0045 -0.9038,0.0643 -1.6411,-0.8836 -1.5556,-1.7373 0.0069,-3.8351 0.0069,-7.6678 -0.0023,-11.5006 z"
       fill="url(#paint1_linear)"
       id="path1358"
       style="fill:url(#paint1_linear)" />
    <path
       d="m 36.1234,18.108 c 0.3287,-0.1264 0.6922,-0.0942 1.0372,-0.108 3.8714,0.0184 7.7406,-0.0092 11.6097,0.0161 0.8126,-0.0023 1.5049,0.749 1.4748,1.5463 0.0092,3.9864 0.0162,7.9729 -0.0023,11.9593 0.0115,0.88 -0.8521,1.6061 -1.725,1.505 -3.9339,-0.0023 -7.8678,0.0115 -11.8017,-0.0046 -0.822,0.0436 -1.579,-0.6847 -1.5722,-1.5004 -0.0209,-3.9152 0,-7.8304 -0.0092,-11.7456 -0.0671,-0.6962 0.3194,-1.4108 0.9887,-1.6681 z m 1.637,2.5021 c 0.0115,3.2719 -0.0115,6.5438 0.0115,9.8156 3.2834,-0.0023 6.5689,0.0046 9.8544,-0.0023 0.0024,-3.2718 0.0024,-6.5437 0.0024,-9.8156 -3.2903,-0.0046 -6.5805,-0.0046 -9.8683,0.0023 z"
       fill="url(#paint3_linear)"
       id="path1360"
       style="fill:url(#linearGradient2304);fill-opacity:1" />
    <path
       d="m 14.9506,39.1784 c 0.3381,-0.1423 0.7157,-0.1332 1.0746,-0.1423 3.7844,0.0091 7.5687,-0.0046 11.3531,0.0068 0.9241,-0.0872 1.8042,0.6958 1.7416,1.6258 0.007,3.9056 0.0023,7.8112 0.0023,11.7145 0.0718,0.8542 -0.6415,1.6876 -1.5216,1.6785 -4.009,0.0159 -8.0203,0.0114 -12.0293,0.0021 -0.894,0.0299 -1.6444,-0.8059 -1.5656,-1.6761 0,-3.9124 -0.007,-7.825 0.0046,-11.7374 -0.0278,-0.6222 0.3567,-1.2331 0.9403,-1.4719 z m 1.6768,2.482 c 0.0046,3.2697 -0.0023,6.5416 0.0046,9.8113 3.2888,0 6.5775,0.0021 9.8662,0 0.0162,-3.2627 -0.0255,-6.5255 0.0209,-9.7882 -3.2957,-0.0597 -6.5937,-0.0138 -9.8917,-0.0231 z"
       fill="url(#paint4_linear)"
       id="path1364"
       style="fill:url(#paint4_linear)" />
    <path
       d="m 42.688426,36.884126 c -2.386286,0 -4.320721,1.880702 -4.320721,4.200702 v 0.800136 c 0,0.331424 0.268677,0.6001 0.600101,0.6001 h 0.240039 c 0.331423,0 0.6001,-0.268676 0.6001,-0.6001 v -0.800136 c 0,-1.546652 1.289639,-2.800465 2.880481,-2.800465 1.590841,0 2.88048,1.253813 2.88048,2.800465 v 3.6006 c 0,0.331421 -0.268725,0.600099 -0.600099,0.600099 h -3.720621 -1.440241 -1.440241 -2.28038 c -0.331423,0 -0.6001,0.268678 -0.6001,0.600099 v 7.201202 c 0,0.331375 0.268677,0.6001 0.6001,0.6001 h 13.202202 c 0.331374,0 0.6001,-0.268725 0.6001,-0.6001 v -7.201202 c 0,-0.331421 -0.268726,-0.600099 -0.6001,-0.600099 h -1.680281 c -0.331374,0 -0.600099,-0.268678 -0.600099,-0.600099 v -3.6006 c 0,-2.32 -1.934435,-4.200702 -4.32072,-4.200702 z m -5.760961,10.401739 c 0,-0.331435 0.268678,-0.6001 0.600101,-0.6001 h 10.32172 c 0.331376,0 0.600101,0.268665 0.600101,0.6001 v 4.40069 c 0,0.331494 -0.268725,0.600101 -0.600101,0.600101 h -10.32172 c -0.331423,0 -0.600101,-0.268607 -0.600101,-0.600101 z"
       stroke-width="0.720123"
       id="path13715"
       style="fill:url(#linearGradient22035);fill-opacity:1;stroke:url(#linearGradient22035)" />
    <path
       style="fill:none;stroke-width:0.659171;stroke-linejoin:round;paint-order:fill markers stroke"
       d="m 29.127256,33.036151 5.999906,5.999906 1e-6,-2.999953 -5.999907,-5.141863"
       id="path2631" />
    <path
       style="fill:none;stroke-width:0.659171;stroke-linejoin:round;paint-order:fill markers stroke"
       d="m 29.127256,30.894241 -1.899885,2.141848 7.899792,7.697906 -1e-6,-3.197915 z"
       id="path2633" />
    <path
       style="fill:url(#linearGradient4165);fill-opacity:1;stroke-width:0.659171;stroke-linejoin:round;paint-order:fill markers stroke"
       d="m 17.955033,21.865652 c -0.494378,0.492655 -0.494379,0.822239 0,1.316618 l 16.973652,16.973652 c 0.494378,0.494378 0.820075,0.494379 1.318343,1e-6 0,0 0.0047,0.0015 0.0061,0 0.488247,-0.503936 0.488247,-0.823963 -0.0061,-1.318342 L 19.273375,21.863928 c -0.494378,-0.494378 -0.822236,-0.492651 -1.318342,0.0017 z"
       id="path2705"
       sodipodi:nodetypes="sssssccs" />
  </g>
</svg>
