<?xml version="1.0" encoding="UTF-8" standalone="no"?>
<!-- Created with Inkscape (http://www.inkscape.org/) -->

<svg
   width="16"
   height="16"
   viewBox="0 0 4.2333333 4.2333333"
   version="1.1"
   id="svg1"
   inkscape:version="1.4.2 (ebf0e940d0, 2025-05-08)"
   sodipodi:docname="distribute-​randomize.svg"
   xmlns:inkscape="http://www.inkscape.org/namespaces/inkscape"
   xmlns:sodipodi="http://sodipodi.sourceforge.net/DTD/sodipodi-0.dtd"
   xmlns:xlink="http://www.w3.org/1999/xlink"
   xmlns="http://www.w3.org/2000/svg"
   xmlns:svg="http://www.w3.org/2000/svg">
  <sodipodi:namedview
     id="namedview1"
     pagecolor="#505050"
     bordercolor="#ffffff"
     borderopacity="1"
     inkscape:showpageshadow="0"
     inkscape:pageopacity="0"
     inkscape:pagecheckerboard="1"
     inkscape:deskcolor="#d1d1d1"
     inkscape:document-units="mm"
     inkscape:zoom="53.0625"
     inkscape:cx="8"
     inkscape:cy="8"
     inkscape:current-layer="layer1" />
  <defs
     id="defs1">
    <linearGradient
       id="paint0_linear_451_2933"
       x1="2.75"
       y1="10.3125"
       x2="18.371799"
       y2="8.5861902"
       gradientUnits="userSpaceOnUse"
       inkscape:label="1">
      <stop
         stop-color="#8D01A2"
         id="stop1" />
      <stop
         offset="1"
         stop-color="#FF00D2"
         id="stop2" />
    </linearGradient>
    <linearGradient
       id="paint0_linear_451_1523"
       x1="11.0066"
       y1="19.68"
       x2="11.0066"
       y2="0.94384801"
       gradientUnits="userSpaceOnUse">
      <stop
         stop-color="#00B59C"
         id="stop1-9" />
      <stop
         offset="1"
         stop-color="#9CFFAC"
         id="stop2-2" />
    </linearGradient>
    <inkscape:path-effect
       effect="fillet_chamfer"
       id="path-effect104"
       is_visible="true"
       lpeversion="1"
       nodesatellites_param="F,0,0,1,0,0.4,0,1 @ F,0,0,1,0,0.4,0,1 @ F,0,0,1,0,0.4,0,1 @ F,0,0,1,0,0.4,0,1 | F,0,0,1,0,0.4,0,1 @ F,0,0,1,0,0.4,0,1 @ F,0,0,1,0,0.4,0,1 @ F,0,0,1,0,0.4,0,1 | F,0,0,1,0,0.4,0,1 @ F,0,0,1,0,0.4,0,1 @ F,0,0,1,0,0.4,0,1 @ F,0,0,1,0,0.4,0,1"
       radius="0"
       unit="px"
       method="auto"
       mode="F"
       chamfer_steps="1"
       flexible="false"
       use_knot_distance="true"
       apply_no_radius="true"
       apply_with_radius="true"
       only_selected="false"
       hide_knots="false" />
    <inkscape:path-effect
       effect="fillet_chamfer"
       id="path-effect134"
       is_visible="true"
       lpeversion="1"
       nodesatellites_param="F,0,0,1,0,0.4,0,1 @ F,0,0,1,0,0.4,0,1 @ F,0,0,1,0,0.4,0,1 @ F,0,0,1,0,0.4,0,1 | F,0,0,1,0,0.2,0,1 @ F,0,0,1,0,0.2,0,1 @ F,0,0,1,0,0.2,0,1 @ F,0,0,1,0,0.2,0,1 | F,0,0,1,0,0.4,0,1 @ F,0,0,1,0,0.4,0,1 @ F,0,0,1,0,0.4,0,1 @ F,0,0,1,0,0.4,0,1 | F,0,0,1,0,0.2,0,1 @ F,0,0,1,0,0.2,0,1 @ F,0,0,1,0,0.2,0,1 @ F,0,0,1,0,0.2,0,1 | F,0,0,1,0,0.4,0,1 @ F,0,0,1,0,0.4,0,1 @ F,0,0,1,0,0.4,0,1 @ F,0,0,1,0,0.4,0,1 | F,0,0,1,0,0.2,0,1 @ F,0,0,1,0,0.2,0,1 @ F,0,0,1,0,0.2,0,1 @ F,0,0,1,0,0.2,0,1"
       radius="0"
       unit="px"
       method="auto"
       mode="F"
       chamfer_steps="1"
       flexible="false"
       use_knot_distance="true"
       apply_no_radius="true"
       apply_with_radius="true"
       only_selected="false"
       hide_knots="false" />
    <inkscape:path-effect
       effect="fillet_chamfer"
       id="path-effect136"
       is_visible="true"
       lpeversion="1"
       nodesatellites_param="F,0,0,1,0,0.4,0,1 @ F,0,0,1,0,0.4,0,1 @ F,0,0,1,0,0,0,1 @ F,0,0,1,0,0,0,1 @ F,0,0,1,0,0.4,0,1 @ F,0,0,1,0,0.4,0,1 @ F,0,0,1,0,0.4,0,1 @ F,0,0,1,0,0.4,0,1 @ F,0,0,1,0,0,0,1 @ F,0,0,1,0,0,0,1 @ F,0,0,1,0,0.4,0,1 @ F,0,0,1,0,0.4,0,1 | F,0,0,1,0,0.4,0,1 @ F,0,0,1,0,0.4,0,1 @ F,0,0,1,0,0,0,1 @ F,0,0,1,0,0,0,1 @ F,0,0,1,0,0.4,0,1 @ F,0,0,1,0,0.4,0,1 @ F,0,0,1,0,0.4,0,1 @ F,0,0,1,0,0.4,0,1 @ F,0,0,1,0,0,0,1 @ F,0,0,1,0,0,0,1 @ F,0,0,1,0,0.4,0,1 @ F,0,0,1,0,0.4,0,1"
       radius="0"
       unit="px"
       method="auto"
       mode="F"
       chamfer_steps="1"
       flexible="false"
       use_knot_distance="true"
       apply_no_radius="true"
       apply_with_radius="true"
       only_selected="false"
       hide_knots="false" />
    <linearGradient
       inkscape:collect="always"
       xlink:href="#paint0_linear_451_1523"
       id="linearGradient110"
       x1="3"
       y1="11"
       x2="19"
       y2="11"
       gradientUnits="userSpaceOnUse" />
    <inkscape:path-effect
       effect="fillet_chamfer"
       id="path-effect109"
       is_visible="true"
       lpeversion="1"
       nodesatellites_param="F,0,0,1,0,0.4,0,1 @ F,0,0,1,0,0.4,0,1 @ F,0,0,1,0,0.4,0,1 @ F,0,0,1,0,0.4,0,1 | F,0,0,1,0,0.4,0,1 @ F,0,0,1,0,0.4,0,1 @ F,0,0,1,0,0.4,0,1 @ F,0,0,1,0,0.4,0,1 | F,0,0,1,0,0.4,0,1 @ F,0,0,1,0,0.4,0,1 @ F,0,0,1,0,0.4,0,1 @ F,0,0,1,0,0.4,0,1 | F,0,0,1,0,0.4,0,1 @ F,0,0,1,0,0.4,0,1 @ F,0,0,1,0,0.4,0,1 @ F,0,0,1,0,0.4,0,1 | F,0,0,1,0,0.4,0,1 @ F,0,0,1,0,0.4,0,1 @ F,0,0,1,0,0.4,0,1 @ F,0,0,1,0,0.4,0,1 | F,0,0,1,0,0.4,0,1 @ F,0,0,1,0,0.4,0,1 @ F,0,0,1,0,0.4,0,1 @ F,0,0,1,0,0.4,0,1"
       radius="0"
       unit="px"
       method="auto"
       mode="F"
       chamfer_steps="1"
       flexible="false"
       use_knot_distance="true"
       apply_no_radius="true"
       apply_with_radius="true"
       only_selected="false"
       hide_knots="false" />
  </defs>
  <g
     inkscape:label="Calque 1"
     inkscape:groupmode="layer"
     id="layer1"
     description="distribute-​randomize">
    <path
       style="color:#fcfcfc;fill:url(#linearGradient110);stroke:none"
       d="m 13,3.9 0,3.2 a 0.4,0.4 45 0 0 0.4,0.4 h 4.2 A 0.4,0.4 135 0 0 18,7.1 V 3.9 A 0.4,0.4 45 0 0 17.6,3.5 H 13.4 A 0.4,0.4 135 0 0 13,3.9 Z M 3,4.9 V 8.1 A 0.4,0.4 45 0 0 3.4,8.5 H 7.6 A 0.4,0.4 135 0 0 8,8.1 V 4.9 A 0.4,0.4 45 0 0 7.6,4.5 l -4.2,0 A 0.4,0.4 135 0 0 3,4.9 Z m 11,4 v 3.2 a 0.4,0.4 45 0 0 0.4,0.4 h 4.2 A 0.4,0.4 135 0 0 19,12.1 V 8.9 A 0.4,0.4 45 0 0 18.6,8.5 H 14.4 A 0.4,0.4 135 0 0 14,8.9 Z m -6,1 v 3.2 a 0.4,0.4 45 0 0 0.4,0.4 h 4.2 A 0.4,0.4 135 0 0 13,13.1 L 13,9.9 A 0.4,0.4 45 0 0 12.6,9.5 H 8.4 A 0.4,0.4 135 0 0 8,9.9 Z m -5,5 v 3.2 a 0.4,0.4 45 0 0 0.4,0.4 H 7.6 A 0.4,0.4 135 0 0 8,18.1 V 14.9 A 0.4,0.4 45 0 0 7.6,14.5 H 3.4 A 0.4,0.4 135 0 0 3,14.9 Z m 6,0 v 3.2 a 0.4,0.4 45 0 0 0.4,0.4 h 4.2 A 0.4,0.4 135 0 0 14,18.1 V 14.9 A 0.4,0.4 45 0 0 13.6,14.5 H 9.4 A 0.4,0.4 135 0 0 9,14.9 Z"
       class="ColorScheme-Text"
       id="path1-98"
       inkscape:path-effect="#path-effect109"
       inkscape:original-d="m 13,3.5 v 4 h 5 v -4 z m -10,1 v 4 h 5 v -4 z m 11,4 v 4 h 5 v -4 z m -6,1 v 4 h 5 v -4 z m -5,5 v 4 h 5 v -4 z m 6,0 v 4 h 5 v -4 z"
       transform="matrix(0.26458333,0,0,0.26458333,-0.79375002,-0.79375002)" />
  </g>
</svg>
