<?xml version="1.0" encoding="UTF-8" standalone="no"?>
<!-- Created with Inkscape (http://www.inkscape.org/) -->

<svg
   width="16"
   height="16"
   viewBox="0 0 4.2333333 4.2333333"
   version="1.1"
   id="svg1"
   inkscape:version="1.4.2 (ebf0e940d0, 2025-05-08)"
   sodipodi:docname="distribute-​graph.svg"
   xmlns:inkscape="http://www.inkscape.org/namespaces/inkscape"
   xmlns:sodipodi="http://sodipodi.sourceforge.net/DTD/sodipodi-0.dtd"
   xmlns:xlink="http://www.w3.org/1999/xlink"
   xmlns="http://www.w3.org/2000/svg"
   xmlns:svg="http://www.w3.org/2000/svg">
  <sodipodi:namedview
     id="namedview1"
     pagecolor="#505050"
     bordercolor="#ffffff"
     borderopacity="1"
     inkscape:showpageshadow="0"
     inkscape:pageopacity="0"
     inkscape:pagecheckerboard="1"
     inkscape:deskcolor="#d1d1d1"
     inkscape:document-units="mm"
     inkscape:zoom="22.878854"
     inkscape:cx="6.7529607"
     inkscape:cy="9.5503036"
     inkscape:current-layer="layer1" />
  <defs
     id="defs1">
    <linearGradient
       id="paint0_linear_451_2933"
       x1="2.75"
       y1="10.3125"
       x2="18.371799"
       y2="8.5861902"
       gradientUnits="userSpaceOnUse"
       inkscape:label="1">
      <stop
         stop-color="#8D01A2"
         id="stop1" />
      <stop
         offset="1"
         stop-color="#FF00D2"
         id="stop2" />
    </linearGradient>
    <linearGradient
       id="paint0_linear_451_1523"
       x1="11.0066"
       y1="19.68"
       x2="11.0066"
       y2="0.94384801"
       gradientUnits="userSpaceOnUse">
      <stop
         stop-color="#00B59C"
         id="stop1-9" />
      <stop
         offset="1"
         stop-color="#9CFFAC"
         id="stop2-2" />
    </linearGradient>
    <linearGradient
       inkscape:collect="always"
       xlink:href="#paint0_linear_451_2933"
       id="linearGradient2"
       gradientUnits="userSpaceOnUse"
       x1="2"
       y1="11.304688"
       x2="19.416016"
       y2="11.304688" />
    <linearGradient
       inkscape:collect="always"
       xlink:href="#paint0_linear_451_1523"
       id="linearGradient3"
       gradientUnits="userSpaceOnUse"
       x1="1"
       y1="11"
       x2="21"
       y2="11" />
  </defs>
  <g
     inkscape:label="Calque 1"
     inkscape:groupmode="layer"
     id="layer1">
    <g
       id="g2"
       transform="matrix(0.21166667,0,0,0.21166667,-0.2116667,-0.2116667)"
       description="distribute-​graph">
      <path
         style="color:#fcfcfc;fill:url(#linearGradient2);stroke:none"
         d="m 7.6875,4.611328 -5,4 0.625,0.779297 5,-4 z m 1.6972656,0.07031 -0.7695312,0.638672 4.9999996,6 0.769532,-0.638671 z m 9.1992184,0.04102 -4,6 0.832032,0.554688 4,-6 z M 2,9.998047 v 7 h 1 v -7 z m 1,7 v 1 h 6 v -1 z m 10.609375,-5.308594 -4,5 0.78125,0.623047 4,-5 z m 1.78125,0 -0.78125,0.623047 4,5 0.78125,-0.623047 z"
         class="ColorScheme-Text"
         id="path1" />
      <path
         style="color:#3daee9;fill:url(#linearGradient3);fill-opacity:1;stroke:none;stroke-width:0;stroke-dasharray:none"
         d="M 8.5,3 A 1.4999959,1.5 0 0 0 7,4.5 1.4999959,1.5 0 0 0 8.5,6 1.4999959,1.5 0 0 0 10,4.5 1.4999959,1.5 0 0 0 8.5,3 Z m 11,0 A 1.4999959,1.5 0 0 0 18,4.5 1.4999959,1.5 0 0 0 19.5,6 1.4999959,1.5 0 0 0 21,4.5 1.4999959,1.5 0 0 0 19.5,3 Z M 2.5,8 A 1.4999959,1.5 0 0 0 1,9.5 1.4999959,1.5 0 0 0 2.5,11 1.4999959,1.5 0 0 0 4,9.5 1.4999959,1.5 0 0 0 2.5,8 Z m 12,2 A 1.4999959,1.5 0 0 0 13,11.5 1.4999959,1.5 0 0 0 14.5,13 1.4999959,1.5 0 0 0 16,11.5 1.4999959,1.5 0 0 0 14.5,10 Z m -12,6 A 1.4999959,1.5 0 0 0 1,17.5 1.4999959,1.5 0 0 0 2.5,19 1.4999959,1.5 0 0 0 4,17.5 1.4999959,1.5 0 0 0 2.5,16 Z m 7,0 A 1.4999959,1.5 0 0 0 8,17.5 1.4999959,1.5 0 0 0 9.5,19 1.4999959,1.5 0 0 0 11,17.5 1.4999959,1.5 0 0 0 9.5,16 Z m 10,0 A 1.4999959,1.5 0 0 0 18,17.5 1.4999959,1.5 0 0 0 19.5,19 1.4999959,1.5 0 0 0 21,17.5 1.4999959,1.5 0 0 0 19.5,16 Z"
         class="ColorScheme-Accent"
         id="path2" />
    </g>
  </g>
</svg>
