<?xml version="1.0" encoding="UTF-8" standalone="no"?>
<svg
   width="64"
   height="64"
   viewBox="0 0 64 64"
   fill="none"
   version="1.1"
   id="svg13994"
   sodipodi:docname="edit-clone-unlink.svg"
   inkscape:version="1.2.2 (b0a8486541, 2022-12-01)"
   xmlns:inkscape="http://www.inkscape.org/namespaces/inkscape"
   xmlns:sodipodi="http://sodipodi.sourceforge.net/DTD/sodipodi-0.dtd"
   xmlns:xlink="http://www.w3.org/1999/xlink"
   xmlns="http://www.w3.org/2000/svg"
   xmlns:svg="http://www.w3.org/2000/svg">
  <sodipodi:namedview
     id="namedview13996"
     pagecolor="#505050"
     bordercolor="#ffffff"
     borderopacity="1"
     inkscape:showpageshadow="0"
     inkscape:pageopacity="0"
     inkscape:pagecheckerboard="1"
     inkscape:deskcolor="#505050"
     showgrid="true"
     inkscape:zoom="8.8719804"
     inkscape:cx="6.5937927"
     inkscape:cy="35.505038"
     inkscape:window-width="1920"
     inkscape:window-height="1053"
     inkscape:window-x="0"
     inkscape:window-y="27"
     inkscape:window-maximized="1"
     inkscape:current-layer="svg13994">
    <inkscape:grid
       type="xygrid"
       id="grid14272"
       spacingx="0.5"
       spacingy="0.5" />
  </sodipodi:namedview>
  <path
     d="M 37.9375,55.260914 V 56.4609 c 0,0.1927 -0.0766,0.3776 -0.2129,0.5137 -0.1361,0.1363 -0.321,0.2129 -0.5137,0.2129 H 11.539 c -0.1926,0 -0.3775,-0.0766 -0.5136,-0.2129 -0.1363,-0.1361 -0.2129,-0.321 -0.2129,-0.5137 V 19.164 c 0,-0.1926 0.0766,-0.3775 0.2129,-0.5136 0.1361,-0.1363 0.321,-0.2129 0.5136,-0.2129 H 20.5 v 27.125 c 0,3.2102 2.6023,5.8125 5.8125,5.8125 h 5.188673 c 0.498827,0 0.767993,-0.323339 0.768509,-0.763963 l 0.005,-4.279277 C 32.275288,45.819279 32,45.5625 31.502043,45.5625 H 27.039 c -0.1926,0 -0.3775,-0.0766 -0.5136,-0.2129 -0.1363,-0.1361 -0.2129,-0.321 -0.2129,-0.5137 V 7.53906 c 0,-0.19272 0.0766,-0.37756 0.2129,-0.51369 0.1361,-0.13628 0.321,-0.21287 0.5136,-0.21287 h 12.836 v 10.6562 c 0,1.6052 1.3011,2.9063 2.9062,2.9063 h 10.6563 l 6.83e-4,1.472973 c 2.36e-4,0.508439 0.563773,0.925966 1.070474,0.923938 l 3.70284,-0.01482 C 58.810383,22.754694 59.25,22.388068 59.25,21.859491 V 13.095 c 0,-1.5415 -0.6124,-3.0199 -1.7025,-4.10995 L 51.265,2.70245 C 50.1749,1.61241 48.6964,1.00001 47.1549,1 H 26.3125 C 23.1023,1 20.5,3.60232 20.5,6.8125 V 12.625 H 10.8125 C 7.60234,12.625 5,15.2273 5,18.4375 v 38.75 C 5,60.3977 7.60234,63 10.8125,63 h 27.125 c 3.2102,0 5.8125,-2.6023 5.8125,-5.8125 v -1.942243 c 0,-0.478262 -0.237828,-0.749951 -0.754395,-0.750011 l -4.283811,-5e-4 c -0.473062,-5.5e-5 -0.774294,0.255155 -0.774294,0.766168 z m 15.5,-40.698414 h -7.75 v -7.75 h 1.1664 c 0.1927,0 0.3774,0.07647 0.5138,0.21274 l 5.857,5.85706 c 0.0674,0.0675 0.1209,0.1477 0.1576,0.2357 0.0365,0.0882 0.0552,0.1827 0.0552,0.2781 z"
     id="path13985"
     sodipodi:nodetypes="sscsscsscscssssssscsscscsscssssscccsscsssssssssscccscccsc"
     style="fill-opacity:1;fill:url(#linearGradient27312)" />
  <defs
     id="defs13992">
    <linearGradient
       inkscape:collect="always"
       id="linearGradient27310">
      <stop
         style="stop-color:#5570ff;stop-opacity:1;"
         offset="0"
         id="stop27306" />
      <stop
         style="stop-color:#4dd3ff;stop-opacity:1;"
         offset="1"
         id="stop27308" />
    </linearGradient>
    <linearGradient
       inkscape:collect="always"
       id="linearGradient22025">
      <stop
         style="stop-color:#9cffac;stop-opacity:1;"
         offset="0"
         id="stop22021" />
      <stop
         style="stop-color:#00b59c;stop-opacity:1;"
         offset="1"
         id="stop22023" />
    </linearGradient>
    <linearGradient
       inkscape:collect="always"
       xlink:href="#linearGradient22025"
       id="linearGradient22027"
       x1="47.25"
       y1="24.174898"
       x2="47.25"
       y2="50.841564"
       gradientUnits="userSpaceOnUse" />
    <linearGradient
       inkscape:collect="always"
       xlink:href="#linearGradient22025"
       id="linearGradient22035"
       x1="47.25"
       y1="24.174898"
       x2="47.25"
       y2="50.841564"
       gradientUnits="userSpaceOnUse" />
    <linearGradient
       inkscape:collect="always"
       xlink:href="#linearGradient27310"
       id="linearGradient27312"
       x1="32.060581"
       y1="63"
       x2="32.196926"
       y2="1"
       gradientUnits="userSpaceOnUse" />
  </defs>
  <path
     d="m 47.249999,24.174898 c -3.787124,0 -6.857143,2.984743 -6.857143,6.666666 v 1.269848 c 0,0.525981 0.4264,0.952381 0.952381,0.952381 h 0.380952 c 0.525981,0 0.952381,-0.4264 0.952381,-0.952381 v -1.269848 c 0,-2.45459 2.046705,-4.444438 4.571429,-4.444438 2.524724,0 4.571429,1.989848 4.571429,4.444438 v 5.714286 c 0,0.525981 -0.426477,0.952381 -0.952381,0.952381 H 44.964285 42.67857 40.392856 36.773809 c -0.525981,0 -0.952381,0.4264 -0.952381,0.952381 v 11.428571 c 0,0.525905 0.4264,0.952381 0.952381,0.952381 h 20.95238 c 0.525905,0 0.952381,-0.426476 0.952381,-0.952381 V 38.460612 c 0,-0.525981 -0.426476,-0.952381 -0.952381,-0.952381 h -2.666666 c -0.525905,0 -0.952381,-0.4264 -0.952381,-0.952381 v -5.714286 c 0,-3.681923 -3.070019,-6.666666 -6.857143,-6.666666 z m -9.142857,16.507943 c 0,-0.526 0.4264,-0.952381 0.952381,-0.952381 h 16.380952 c 0.525905,0 0.952381,0.426381 0.952381,0.952381 v 6.984057 c 0,0.526095 -0.426476,0.952381 -0.952381,0.952381 H 39.059523 c -0.525981,0 -0.952381,-0.426286 -0.952381,-0.952381 z"
     stroke-width="1.14286"
     id="path13715"
     style="stroke:url(#linearGradient22027);fill-opacity:1;fill:url(#linearGradient22035)" />
</svg>
