<?xml version="1.0" encoding="UTF-8" standalone="no"?>
<!-- Created with Inkscape (http://www.inkscape.org/) -->

<svg
   width="16"
   height="16"
   viewBox="0 0 4.2333333 4.2333333"
   version="1.1"
   id="svg1"
   inkscape:version="1.4.2 (ebf0e940d0, 2025-05-08)"
   sodipodi:docname="format-​node-​line.svg"
   xmlns:inkscape="http://www.inkscape.org/namespaces/inkscape"
   xmlns:sodipodi="http://sodipodi.sourceforge.net/DTD/sodipodi-0.dtd"
   xmlns:xlink="http://www.w3.org/1999/xlink"
   xmlns="http://www.w3.org/2000/svg"
   xmlns:svg="http://www.w3.org/2000/svg">
  <sodipodi:namedview
     id="namedview1"
     pagecolor="#505050"
     bordercolor="#ffffff"
     borderopacity="1"
     inkscape:showpageshadow="0"
     inkscape:pageopacity="0"
     inkscape:pagecheckerboard="1"
     inkscape:deskcolor="#d1d1d1"
     inkscape:document-units="mm"
     inkscape:zoom="53.0625"
     inkscape:cx="7.9905771"
     inkscape:cy="7.9623086"
     inkscape:current-layer="svg1" />
  <defs
     id="defs1">
    <linearGradient
       id="paint0_linear_451_2933"
       x1="2.75"
       y1="10.3125"
       x2="18.371799"
       y2="8.5861902"
       gradientUnits="userSpaceOnUse"
       inkscape:label="Beautyline_purple_gradient"
       inkscape:swatch="gradient">
      <stop
         stop-color="#8D01A2"
         id="stop1" />
      <stop
         offset="1"
         stop-color="#FF00D2"
         id="stop2" />
    </linearGradient>
    <linearGradient
       id="paint0_linear_651_140"
       x1="3.5374999"
       y1="13.3472"
       x2="16.162201"
       y2="2.33196"
       gradientUnits="userSpaceOnUse"
       inkscape:label="Beautyline_yellow_gradient"
       spreadMethod="pad">
      <stop
         stop-color="#FE0844"
         id="stop4012" />
      <stop
         offset="1"
         stop-color="#FEB302"
         id="stop4014" />
    </linearGradient>
    <linearGradient
       inkscape:collect="always"
       xlink:href="#paint0_linear_651_140"
       id="linearGradient250"
       gradientUnits="userSpaceOnUse"
       x1="3.5374999"
       y1="13.3472"
       x2="16.162201"
       y2="2.33196"
       spreadMethod="pad" />
    <linearGradient
       inkscape:collect="always"
       xlink:href="#paint0_linear_451_2933"
       id="linearGradient251"
       gradientUnits="userSpaceOnUse"
       x1="2.75"
       y1="10.3125"
       x2="18.371799"
       y2="8.5861902" />
  </defs>
  <g
     id="g16"
     description="format-​node-​line"
     transform="matrix(0.24804687,0,0,0.24804687,-0.61184903,-0.61184973)">
    <path
       id="path268"
       style="color:#fcfcfc;fill:url(#linearGradient250)"
       d="M 10,11.3125 5.3125,16 H 3.4003906 A 0.4,0.4 0 0 0 3,16.400391 v 2.199218 A 0.4,0.4 0 0 0 3.4003906,19 H 5.5996094 A 0.4,0.4 0 0 0 6,18.599609 V 16.6875 L 10.6875,12 H 10 Z M 4.1992187,17 H 4.8007812 A 0.2,0.2 0 0 1 5,17.199219 v 0.601562 A 0.2,0.2 0 0 1 4.8007812,18 H 4.1992187 A 0.2,0.2 0 0 1 4,17.800781 V 17.199219 A 0.2,0.2 0 0 1 4.1992187,17 Z M 16.400391,3 A 0.4,0.4 0 0 0 16,3.4003906 V 5.3125 L 10.3125,11 H 11 v 0.6875 L 16.6875,6 h 1.912109 A 0.4,0.4 0 0 0 19,5.5996094 V 3.4003906 A 0.4,0.4 0 0 0 18.599609,3 Z m 0.798828,1 h 0.601562 A 0.2,0.2 0 0 1 18,4.1992187 V 4.8007812 A 0.2,0.2 0 0 1 17.800781,5 H 17.199219 A 0.2,0.2 0 0 1 17,4.8007812 V 4.1992187 A 0.2,0.2 0 0 1 17.199219,4 Z" />
    <path
       d="M 9.4003906,10 A 0.4,0.4 0 0 0 9,10.400391 v 2.199218 A 0.4,0.4 0 0 0 9.4003906,13 H 11.599609 A 0.4,0.4 0 0 0 12,12.599609 V 10.400391 A 0.4,0.4 0 0 0 11.599609,10 Z m 0.7988284,1 h 0.601562 A 0.2,0.2 0 0 1 11,11.199219 v 0.601562 A 0.2,0.2 0 0 1 10.800781,12 H 10.199219 A 0.2,0.2 0 0 1 10,11.800781 V 11.199219 A 0.2,0.2 0 0 1 10.199219,11 Z"
       style="color:#3daee9;fill:url(#linearGradient251)"
       id="path267" />
  </g>
</svg>
