<?xml version="1.0" encoding="UTF-8" standalone="no"?>
<!-- Created with Inkscape (http://www.inkscape.org/) -->

<svg
   width="16"
   height="16"
   viewBox="0 0 4.2333333 4.2333333"
   version="1.1"
   id="svg1"
   inkscape:version="1.4.2 (ebf0e940d0, 2025-05-08)"
   sodipodi:docname="format-​insert-​node.svg"
   xmlns:inkscape="http://www.inkscape.org/namespaces/inkscape"
   xmlns:sodipodi="http://sodipodi.sourceforge.net/DTD/sodipodi-0.dtd"
   xmlns:xlink="http://www.w3.org/1999/xlink"
   xmlns="http://www.w3.org/2000/svg"
   xmlns:svg="http://www.w3.org/2000/svg">
  <sodipodi:namedview
     id="namedview1"
     pagecolor="#505050"
     bordercolor="#ffffff"
     borderopacity="1"
     inkscape:showpageshadow="0"
     inkscape:pageopacity="0"
     inkscape:pagecheckerboard="1"
     inkscape:deskcolor="#d1d1d1"
     inkscape:document-units="mm"
     inkscape:zoom="53.0625"
     inkscape:cx="7.9905771"
     inkscape:cy="7.9623086"
     inkscape:current-layer="svg1" />
  <defs
     id="defs1">
    <linearGradient
       id="paint0_linear_451_2933"
       x1="2.75"
       y1="10.3125"
       x2="18.371799"
       y2="8.5861902"
       gradientUnits="userSpaceOnUse"
       inkscape:label="Beautyline_purple_gradient"
       inkscape:swatch="gradient">
      <stop
         stop-color="#8D01A2"
         id="stop1" />
      <stop
         offset="1"
         stop-color="#FF00D2"
         id="stop2" />
    </linearGradient>
    <linearGradient
       inkscape:collect="always"
       xlink:href="#paint0_linear_651_140"
       id="linearGradient244"
       gradientUnits="userSpaceOnUse"
       x1="3.5374999"
       y1="13.3472"
       x2="16.162201"
       y2="2.33196"
       spreadMethod="pad" />
    <linearGradient
       id="paint0_linear_651_140"
       x1="3.5374999"
       y1="13.3472"
       x2="16.162201"
       y2="2.33196"
       gradientUnits="userSpaceOnUse"
       inkscape:label="Beautyline_yellow_gradient"
       spreadMethod="pad">
      <stop
         stop-color="#FE0844"
         id="stop4012" />
      <stop
         offset="1"
         stop-color="#FEB302"
         id="stop4014" />
    </linearGradient>
    <linearGradient
       inkscape:collect="always"
       xlink:href="#paint0_linear_451_2933"
       id="linearGradient245"
       gradientUnits="userSpaceOnUse"
       x1="2.75"
       y1="10.3125"
       x2="18.371799"
       y2="8.5861902" />
  </defs>
  <g
     id="g1"
     transform="matrix(0.24804687,0,0,0.24804687,-0.61184889,-0.56223951)"
     description="format-​insert-​node">
    <path
       d="M 9.4003906,9 A 0.4,0.4 0 0 0 9,9.4003906 V 10 H 3.4003906 A 0.4,0.4 0 0 0 3,10.400391 v 0.199218 A 0.4,0.4 0 0 0 3.4003906,11 H 9 v 1.599609 A 0.4,0.4 0 0 0 9.4003906,13 H 12.599609 A 0.4,0.4 0 0 0 13,12.599609 V 11 h 5.599609 A 0.4,0.4 0 0 0 19,10.599609 V 10.400391 A 0.4,0.4 0 0 0 18.599609,10 H 13 V 9.4003906 A 0.4,0.4 0 0 0 12.599609,9 Z m 0.7988284,1 h 1.601562 A 0.2,0.2 0 0 1 12,10.199219 v 1.601562 A 0.2,0.2 0 0 1 11.800781,12 H 10.199219 A 0.2,0.2 0 0 1 10,11.800781 V 10.199219 A 0.2,0.2 0 0 1 10.199219,10 Z"
       style="color:#fcfcfc;fill:url(#linearGradient244)"
       id="path257" />
    <path
       d="M 16.400391,14 A 0.4,0.4 0 0 0 16,14.400391 v 1.40039 A 0.2,0.2 0 0 1 15.800781,16 h -1.40039 A 0.4,0.4 0 0 0 14,16.400391 v 0.199218 A 0.4,0.4 0 0 0 14.400391,17 h 1.40039 A 0.2,0.2 0 0 1 16,17.199219 v 1.40039 A 0.4,0.4 0 0 0 16.400391,19 h 0.199218 A 0.4,0.4 0 0 0 17,18.599609 v -1.40039 A 0.2,0.2 0 0 1 17.199219,17 h 1.40039 A 0.4,0.4 0 0 0 19,16.599609 V 16.400391 A 0.4,0.4 0 0 0 18.599609,16 h -1.40039 A 0.2,0.2 0 0 1 17,15.800781 v -1.40039 A 0.4,0.4 0 0 0 16.599609,14 Z"
       style="color:#3daee9;fill:url(#linearGradient245)"
       id="path258" />
  </g>
</svg>
