<?xml version="1.0" encoding="UTF-8" standalone="no"?>
<!-- Created with Inkscape (http://www.inkscape.org/) -->

<svg
   width="16"
   height="16"
   viewBox="0 0 4.2333333 4.2333333"
   version="1.1"
   id="svg1"
   inkscape:version="1.4.2 (ebf0e940d0, 2025-05-08)"
   sodipodi:docname="format-​node-​smooth.svg"
   xmlns:inkscape="http://www.inkscape.org/namespaces/inkscape"
   xmlns:sodipodi="http://sodipodi.sourceforge.net/DTD/sodipodi-0.dtd"
   xmlns:xlink="http://www.w3.org/1999/xlink"
   xmlns="http://www.w3.org/2000/svg"
   xmlns:svg="http://www.w3.org/2000/svg">
  <sodipodi:namedview
     id="namedview1"
     pagecolor="#505050"
     bordercolor="#ffffff"
     borderopacity="1"
     inkscape:showpageshadow="0"
     inkscape:pageopacity="0"
     inkscape:pagecheckerboard="1"
     inkscape:deskcolor="#d1d1d1"
     inkscape:document-units="mm"
     inkscape:zoom="53.0625"
     inkscape:cx="7.9905771"
     inkscape:cy="7.9623086"
     inkscape:current-layer="svg1" />
  <defs
     id="defs1">
    <linearGradient
       id="paint0_linear_451_2933"
       x1="2.75"
       y1="10.3125"
       x2="18.371799"
       y2="8.5861902"
       gradientUnits="userSpaceOnUse"
       inkscape:label="Beautyline_purple_gradient"
       inkscape:swatch="gradient">
      <stop
         stop-color="#8D01A2"
         id="stop1" />
      <stop
         offset="1"
         stop-color="#FF00D2"
         id="stop2" />
    </linearGradient>
    <linearGradient
       id="paint0_linear_651_140"
       x1="3.5374999"
       y1="13.3472"
       x2="16.162201"
       y2="2.33196"
       gradientUnits="userSpaceOnUse"
       inkscape:label="Beautyline_yellow_gradient"
       spreadMethod="pad">
      <stop
         stop-color="#FE0844"
         id="stop4012" />
      <stop
         offset="1"
         stop-color="#FEB302"
         id="stop4014" />
    </linearGradient>
    <linearGradient
       inkscape:collect="always"
       xlink:href="#paint0_linear_651_140"
       id="linearGradient252"
       gradientUnits="userSpaceOnUse"
       x1="3.5374999"
       y1="13.3472"
       x2="16.162201"
       y2="2.33196"
       spreadMethod="pad" />
    <linearGradient
       inkscape:collect="always"
       xlink:href="#paint0_linear_451_2933"
       id="linearGradient253"
       gradientUnits="userSpaceOnUse"
       x1="2.75"
       y1="10.3125"
       x2="18.371799"
       y2="8.5861902" />
  </defs>
  <g
     id="g17"
     transform="matrix(0.24804687,0,0,0.24804687,-0.61184889,-0.36380202)"
     description="format-​node-​smooth">
    <path
       id="path271"
       style="color:#fcfcfc;fill:url(#linearGradient252)"
       d="M 3.4003906,9 A 0.4,0.4 0 0 0 3,9.4003906 V 11.599609 A 0.4,0.4 0 0 0 3.4003906,12 H 5.5996094 A 0.4,0.4 0 0 0 6,11.599609 V 11 H 7 V 10 H 6 V 9.4003906 A 0.4,0.4 0 0 0 5.5996094,9 Z m 0.7988281,1 H 4.8007812 A 0.2,0.2 0 0 1 5,10.199219 v 0.601562 A 0.2,0.2 0 0 1 4.8007812,11 H 4.1992187 A 0.2,0.2 0 0 1 4,10.800781 V 10.199219 A 0.2,0.2 0 0 1 4.1992187,10 Z M 16.400391,9 A 0.4,0.4 0 0 0 16,9.4003906 V 10 h -5 v 1 h 5 v 0.599609 A 0.4,0.4 0 0 0 16.400391,12 h 2.199218 A 0.4,0.4 0 0 0 19,11.599609 V 9.4003906 A 0.4,0.4 0 0 0 18.599609,9 Z m 0.798828,1 h 0.601562 A 0.2,0.2 0 0 1 18,10.199219 v 0.601562 A 0.2,0.2 0 0 1 17.800781,11 H 17.199219 A 0.2,0.2 0 0 1 17,10.800781 V 10.199219 A 0.2,0.2 0 0 1 17.199219,10 Z" />
    <path
       d="M 7.4003906,8 A 0.4,0.4 0 0 0 7,8.4003906 V 11.599609 A 0.4,0.4 0 0 0 7.4003906,12 H 10.599609 A 0.4,0.4 0 0 0 11,11.599609 V 8.4003906 A 0.4,0.4 0 0 0 10.599609,8 Z M 8.1992188,9 H 9.8007813 A 0.2,0.2 0 0 1 10,9.1992188 V 10.800781 A 0.2,0.2 0 0 1 9.8007813,11 H 8.1992188 A 0.2,0.2 0 0 1 8,10.800781 V 9.1992188 A 0.2,0.2 0 0 1 8.1992188,9 Z"
       style="color:#3daee9;fill:url(#linearGradient253)"
       id="path270" />
  </g>
</svg>
