<?xml version="1.0" encoding="UTF-8" standalone="no"?>
<!-- Created with Inkscape (http://www.inkscape.org/) -->

<svg
   width="16"
   height="16"
   viewBox="0 0 4.2333333 4.2333333"
   version="1.1"
   id="svg1"
   inkscape:version="1.4.2 (ebf0e940d0, 2025-05-08)"
   sodipodi:docname="format-​break-​node.svg"
   xmlns:inkscape="http://www.inkscape.org/namespaces/inkscape"
   xmlns:sodipodi="http://sodipodi.sourceforge.net/DTD/sodipodi-0.dtd"
   xmlns:xlink="http://www.w3.org/1999/xlink"
   xmlns="http://www.w3.org/2000/svg"
   xmlns:svg="http://www.w3.org/2000/svg">
  <sodipodi:namedview
     id="namedview1"
     pagecolor="#505050"
     bordercolor="#ffffff"
     borderopacity="1"
     inkscape:showpageshadow="0"
     inkscape:pageopacity="0"
     inkscape:pagecheckerboard="1"
     inkscape:deskcolor="#d1d1d1"
     inkscape:document-units="mm"
     inkscape:zoom="53.0625"
     inkscape:cx="7.9905771"
     inkscape:cy="7.9623086"
     inkscape:current-layer="svg1" />
  <defs
     id="defs1">
    <linearGradient
       id="linearGradient174"
       x1="3.5374999"
       y1="13.3472"
       x2="16.162201"
       y2="2.33196"
       gradientUnits="userSpaceOnUse"
       inkscape:swatch="gradient"
       inkscape:label="Beautyline_yellow_gradient">
      <stop
         stop-color="#FE0844"
         id="stop172"
         style="stop-color:#fe0844;stop-opacity:1" />
      <stop
         offset="1"
         stop-color="#FEB302"
         id="stop173" />
    </linearGradient>
    <linearGradient
       id="paint0_linear_451_2933"
       x1="2.75"
       y1="10.3125"
       x2="18.371799"
       y2="8.5861902"
       gradientUnits="userSpaceOnUse"
       inkscape:label="Beautyline_purple_gradient"
       inkscape:swatch="gradient">
      <stop
         stop-color="#8D01A2"
         id="stop1" />
      <stop
         offset="1"
         stop-color="#FF00D2"
         id="stop2" />
    </linearGradient>
    <linearGradient
       inkscape:collect="always"
       xlink:href="#linearGradient174"
       id="linearGradient1"
       gradientUnits="userSpaceOnUse"
       x1="3.5374999"
       y1="13.3472"
       x2="16.162201"
       y2="2.33196" />
    <linearGradient
       inkscape:collect="always"
       xlink:href="#paint0_linear_451_2933"
       id="linearGradient2"
       gradientUnits="userSpaceOnUse"
       x1="2.75"
       y1="10.3125"
       x2="18.371799"
       y2="8.5861902" />
  </defs>
  <g
     id="g1"
     description="format-​break-​node"
     transform="matrix(0.24804687,0,0,0.24804687,-0.61184889,-0.61184889)">
    <path
       id="path263"
       style="color:#fcfcfc;fill:url(#linearGradient1)"
       d="M 9.4003906,3 A 0.4,0.4 0 0 0 9,3.4003906 V 4 H 3.4003906 A 0.4,0.4 0 0 0 3,4.4003906 V 4.5996094 A 0.4,0.4 0 0 0 3.4003906,5 H 9 V 6.5996094 A 0.4,0.4 0 0 0 9.4003906,7 H 12.599609 A 0.4,0.4 0 0 0 13,6.5996094 V 5 h 5.599609 A 0.4,0.4 0 0 0 19,4.5996094 V 4.4003906 A 0.4,0.4 0 0 0 18.599609,4 H 13 V 3.4003906 A 0.4,0.4 0 0 0 12.599609,3 Z m 0.7988284,1 h 1.601562 A 0.2,0.2 0 0 1 12,4.1992187 V 5.8007812 A 0.2,0.2 0 0 1 11.800781,6 H 10.199219 A 0.2,0.2 0 0 1 10,5.8007812 V 4.1992187 A 0.2,0.2 0 0 1 10.199219,4 Z M 3.4003906,16 A 0.4,0.4 0 0 0 3,16.400391 v 2.199218 A 0.4,0.4 0 0 0 3.4003906,19 H 5.5996094 A 0.4,0.4 0 0 0 6,18.599609 V 18 H 8.5996094 A 0.4,0.4 0 0 0 9,17.599609 V 17.400391 A 0.4,0.4 0 0 0 8.5996094,17 H 6 V 16.400391 A 0.4,0.4 0 0 0 5.5996094,16 Z m 0.7988281,1 H 4.8007812 A 0.2,0.2 0 0 1 5,17.199219 v 0.601562 A 0.2,0.2 0 0 1 4.8007812,18 H 4.1992187 A 0.2,0.2 0 0 1 4,17.800781 V 17.199219 A 0.2,0.2 0 0 1 4.1992187,17 Z M 16.400391,16 A 0.4,0.4 0 0 0 16,16.400391 V 17 H 13.400391 A 0.4,0.4 0 0 0 13,17.400391 v 0.199218 A 0.4,0.4 0 0 0 13.400391,18 H 16 v 0.599609 A 0.4,0.4 0 0 0 16.400391,19 h 2.199218 A 0.4,0.4 0 0 0 19,18.599609 V 16.400391 A 0.4,0.4 0 0 0 18.599609,16 Z m 0.798828,1 h 0.601562 A 0.2,0.2 0 0 1 18,17.199219 v 0.601562 A 0.2,0.2 0 0 1 17.800781,18 H 17.199219 A 0.2,0.2 0 0 1 17,17.800781 V 17.199219 A 0.2,0.2 0 0 1 17.199219,17 Z" />
    <path
       style="color:#3daee9;fill:url(#linearGradient2);fill-opacity:1;stroke:none"
       d="m 9,9.5 2,3 2,-3 z"
       class="ColorScheme-Accent"
       id="path2-62" />
  </g>
</svg>
