<?xml version="1.0" encoding="UTF-8" standalone="no"?>
<!-- Created with Inkscape (http://www.inkscape.org/) -->

<svg
   width="16"
   height="16"
   viewBox="0 0 4.2333333 4.2333333"
   version="1.1"
   id="svg1"
   inkscape:version="1.4.2 (ebf0e940d0, 2025-05-08)"
   sodipodi:docname="format-​node-​curve.svg"
   xmlns:inkscape="http://www.inkscape.org/namespaces/inkscape"
   xmlns:sodipodi="http://sodipodi.sourceforge.net/DTD/sodipodi-0.dtd"
   xmlns:xlink="http://www.w3.org/1999/xlink"
   xmlns="http://www.w3.org/2000/svg"
   xmlns:svg="http://www.w3.org/2000/svg">
  <sodipodi:namedview
     id="namedview1"
     pagecolor="#505050"
     bordercolor="#ffffff"
     borderopacity="1"
     inkscape:showpageshadow="0"
     inkscape:pageopacity="0"
     inkscape:pagecheckerboard="1"
     inkscape:deskcolor="#d1d1d1"
     inkscape:document-units="mm"
     inkscape:zoom="53.0625"
     inkscape:cx="7.9905771"
     inkscape:cy="7.9623086"
     inkscape:current-layer="svg1" />
  <defs
     id="defs1">
    <linearGradient
       id="paint0_linear_451_2933"
       x1="2.75"
       y1="10.3125"
       x2="18.371799"
       y2="8.5861902"
       gradientUnits="userSpaceOnUse"
       inkscape:label="Beautyline_purple_gradient"
       inkscape:swatch="gradient">
      <stop
         stop-color="#8D01A2"
         id="stop1" />
      <stop
         offset="1"
         stop-color="#FF00D2"
         id="stop2" />
    </linearGradient>
    <linearGradient
       id="paint0_linear_651_140"
       x1="3.5374999"
       y1="13.3472"
       x2="16.162201"
       y2="2.33196"
       gradientUnits="userSpaceOnUse"
       inkscape:label="Beautyline_yellow_gradient"
       spreadMethod="pad">
      <stop
         stop-color="#FE0844"
         id="stop4012" />
      <stop
         offset="1"
         stop-color="#FEB302"
         id="stop4014" />
    </linearGradient>
    <linearGradient
       inkscape:collect="always"
       xlink:href="#paint0_linear_651_140"
       id="linearGradient248"
       gradientUnits="userSpaceOnUse"
       x1="3.5374999"
       y1="13.3472"
       x2="16.162201"
       y2="2.33196"
       spreadMethod="pad" />
    <linearGradient
       inkscape:collect="always"
       xlink:href="#paint0_linear_451_2933"
       id="linearGradient249"
       gradientUnits="userSpaceOnUse"
       x1="2.75"
       y1="10.3125"
       x2="18.371799"
       y2="8.5861902" />
  </defs>
  <g
     id="g15"
     description="format-​node-​curve"
     transform="matrix(0.24804687,0,0,0.24804687,-0.61184888,-0.61184973)">
    <path
       id="path265"
       style="color:#fcfcfc;fill:url(#linearGradient248)"
       d="M 16.400391,3 A 0.4,0.4 0 0 0 16,3.4003906 V 4 C 12.591697,4.0052555 9.3464191,5.4595946 7.0742187,8 H 8 V 8.4707031 C 10.074623,6.2610466 12.969057,5.0053312 16,5 V 5.5996094 A 0.4,0.4 0 0 0 16.400391,6 h 2.199218 A 0.4,0.4 0 0 0 19,5.5996094 V 3.4003906 A 0.4,0.4 0 0 0 18.599609,3 Z m 0.798828,1 h 0.601562 A 0.2,0.2 0 0 1 18,4.1992187 V 4.8007812 A 0.2,0.2 0 0 1 17.800781,5 H 17.199219 A 0.2,0.2 0 0 1 17,4.8007812 V 4.1992187 A 0.2,0.2 0 0 1 17.199219,4 Z M 7,8.0859375 C 5.0720162,10.272053 4.0056394,13.085177 4,16 H 3.4003906 A 0.4,0.4 0 0 0 3,16.400391 v 2.199218 A 0.4,0.4 0 0 0 3.4003906,19 H 5.5996094 A 0.4,0.4 0 0 0 6,18.599609 V 16.400391 A 0.4,0.4 0 0 0 5.5996094,16 H 5 C 5.0019,13.444618 5.8934277,10.969622 7.5214844,9 H 7 Z M 4.1992187,17 H 4.8007812 A 0.2,0.2 0 0 1 5,17.199219 v 0.601562 A 0.2,0.2 0 0 1 4.8007812,18 H 4.1992187 A 0.2,0.2 0 0 1 4,17.800781 V 17.199219 A 0.2,0.2 0 0 1 4.1992187,17 Z" />
    <path
       d="M 6.4003906,7 A 0.4,0.4 0 0 0 6,7.4003906 V 9.5996094 A 0.4,0.4 0 0 0 6.4003906,10 H 8.5996094 A 0.4,0.4 0 0 0 9,9.5996094 V 7.4003906 A 0.4,0.4 0 0 0 8.5996094,7 Z M 7.1992187,8 H 7.8007812 A 0.2,0.2 0 0 1 8,8.1992188 V 8.8007813 A 0.2,0.2 0 0 1 7.8007812,9 H 7.1992187 A 0.2,0.2 0 0 1 7,8.8007813 V 8.1992188 A 0.2,0.2 0 0 1 7.1992187,8 Z"
       style="color:#3daee9;fill:url(#linearGradient249)"
       id="path264" />
  </g>
</svg>
