<?xml version="1.0" encoding="UTF-8" standalone="no"?>
<!-- Created with Inkscape (http://www.inkscape.org/) -->

<svg
   width="16"
   height="16"
   viewBox="0 0 4.2333333 4.2333333"
   version="1.1"
   id="svg1"
   inkscape:version="1.4.2 (ebf0e940d0, 2025-05-08)"
   sodipodi:docname="format-add-node.svg"
   xmlns:inkscape="http://www.inkscape.org/namespaces/inkscape"
   xmlns:sodipodi="http://sodipodi.sourceforge.net/DTD/sodipodi-0.dtd"
   xmlns:xlink="http://www.w3.org/1999/xlink"
   xmlns="http://www.w3.org/2000/svg"
   xmlns:svg="http://www.w3.org/2000/svg">
  <sodipodi:namedview
     id="namedview1"
     pagecolor="#505050"
     bordercolor="#ffffff"
     borderopacity="1"
     inkscape:showpageshadow="0"
     inkscape:pageopacity="0"
     inkscape:pagecheckerboard="1"
     inkscape:deskcolor="#d1d1d1"
     inkscape:document-units="mm"
     inkscape:zoom="53.0625"
     inkscape:cx="7.9905771"
     inkscape:cy="7.9623086"
     inkscape:current-layer="svg1" />
  <defs
     id="defs1">
    <linearGradient
       id="paint0_linear_651_140"
       x1="3.5374999"
       y1="13.3472"
       x2="16.162201"
       y2="2.33196"
       gradientUnits="userSpaceOnUse"
       inkscape:label="Beautyline_yellow_gradient"
       spreadMethod="pad">
      <stop
         stop-color="#FE0844"
         id="stop4012" />
      <stop
         offset="1"
         stop-color="#FEB302"
         id="stop4014" />
    </linearGradient>
    <linearGradient
       inkscape:collect="always"
       xlink:href="#paint0_linear_651_140"
       id="linearGradient214"
       gradientUnits="userSpaceOnUse"
       x1="-15"
       y1="111"
       x2="-3"
       y2="111" />
    <linearGradient
       inkscape:collect="always"
       xlink:href="#paint3_linear_651_140"
       id="linearGradient216"
       gradientUnits="userSpaceOnUse"
       x1="-8"
       y1="114.5"
       x2="-3"
       y2="114.5" />
    <linearGradient
       id="paint3_linear_651_140"
       x1="10.3233"
       y1="14.7785"
       x2="11.2419"
       y2="7.3203001"
       gradientUnits="userSpaceOnUse"
       inkscape:swatch="gradient">
      <stop
         stop-color="#8D01A2"
         id="stop4027" />
      <stop
         offset="1"
         stop-color="#FF33DB"
         id="stop4029" />
    </linearGradient>
  </defs>
  <g
     id="g1"
     transform="matrix(0.24804687,0,0,0.24804688,4.3490887,-40.299821)"
     description="format-add-node">
    <path
       style="color:#fcfcfc;fill:url(#linearGradient214);stroke:none"
       d="m -13.5,105 c -0.828427,0 -1.5,0.67157 -1.5,1.5 0,0.65584 0.413588,1.20241 1,1.40625 V 108 v 1 8.8 a 0.2,0.2 135 0 1 -0.2,0.2 h -0.4 a 0.4,0.4 135 0 0 -0.4,0.4 v 2.2 a 0.4,0.4 45 0 0 0.4,0.4 h 2.2 a 0.4,0.4 135 0 0 0.4,-0.4 V 120 l 5.5701955,0.0266 a 0.39809507,0.39809507 135.13676 0 0 0.3999954,-0.39809 v -0.2 a 0.40191404,0.40191404 45.136756 0 0 -0.3999954,-0.40191 L -12,119 v -0.6 a 0.4,0.4 45 0 0 -0.4,-0.4 h -0.4 a 0.2,0.2 45 0 1 -0.2,-0.2 v -8.8 -1 -0.0937 c 0.432093,-0.15025 0.756052,-0.47421 0.90625,-0.9063 H -12 h 1 8.8 a 0.2,0.2 45 0 1 0.2,0.2 v 0.4 a 0.4,0.4 45 0 0 0.4,0.4 H -1 l 0.0107888,5.56829 a 0.40077577,0.40077577 44.944494 0 0 0.40077501,0.4 h 0.2 a 0.39922573,0.39922573 134.94449 0 0 0.39922499,-0.4 L 0,108 H 0.6 A 0.4,0.4 135 0 0 1,107.6 v -2.2 A 0.4,0.4 45 0 0 0.6,105 h -2.2 a 0.4,0.4 135 0 0 -0.4,0.4 v 0.4 a 0.2,0.2 135 0 1 -0.2,0.2 h -8.8 -1 -0.09375 c -0.20384,-0.58641 -0.750412,-1 -1.40625,-1 z m 0,1 c 0.276142,0 0.5,0.22386 0.5,0.5 0,0.27614 -0.223858,0.5 -0.5,0.5 -0.276142,0 -0.5,-0.22386 -0.5,-0.5 0,-0.27614 0.223858,-0.5 0.5,-0.5 z m 12.7,0 0.6,0 a 0.2,0.2 45 0 1 0.2,0.2 v 0.6 a 0.2,0.2 135 0 1 -0.2,0.2 l -0.6,0 A 0.2,0.2 45 0 1 -1,106.8 v -0.6 a 0.2,0.2 135 0 1 0.2,-0.2 z m -13,13 h 0.6 a 0.2,0.2 45 0 1 0.2,0.2 v 0.6 a 0.2,0.2 135 0 1 -0.2,0.2 h -0.6 a 0.2,0.2 45 0 1 -0.2,-0.2 l 0,-0.6 a 0.2,0.2 135 0 1 0.2,-0.2 z"
       class="ColorScheme-Text"
       id="path213"
       descriptiojn="format-​add-​node"
       sodipodi:nodetypes="ssccccccccccccccccccccccccccccccccsssssscccccccccc"
       inkscape:path-effect="#path-effect214"
       transform="translate(-2,58.0019)" />
    <path
       d="m -5.3070065,113.09299 v 1.4 a 0.2,0.2 135 0 1 -0.2,0.2 l -1.4,0 a 0.4,0.4 135 0 0 -0.4,0.4 v 0.2 a 0.4,0.4 45 0 0 0.4,0.4 l 1.4,0 a 0.2,0.2 45 0 1 0.2,0.2 v 1.4 a 0.4,0.4 45 0 0 0.4,0.4 h 0.2 a 0.4,0.4 135 0 0 0.4,-0.4 v -1.4 a 0.2,0.2 135 0 1 0.2,-0.2 l 1.4,0 a 0.4,0.4 135 0 0 0.4,-0.4 v -0.2 a 0.4,0.4 45 0 0 -0.4,-0.4 h -1.4 a 0.2,0.2 45 0 1 -0.2,-0.2 v -1.4 a 0.4,0.4 45 0 0 -0.4,-0.4 h -0.2 a 0.4,0.4 135 0 0 -0.4,0.4 z"
       style="color:#fcfcfc;fill:url(#linearGradient216);stroke:none"
       id="path214"
       transform="matrix(1.4,0,0,1.4,2.2,14.2)"
       inkscape:path-effect="#path-effect216"
       sodipodi:nodetypes="ccccccccccccc" />
  </g>
</svg>
