<?xml version="1.0" encoding="UTF-8" standalone="no"?>
<svg
   width="16"
   height="16"
   viewBox="0 0 16 16"
   fill="none"
   version="1.1"
   id="svg4047"
   sodipodi:docname="node-transform_alt.svg"
   inkscape:version="1.2.2 (b0a8486541, 2022-12-01)"
   xmlns:inkscape="http://www.inkscape.org/namespaces/inkscape"
   xmlns:sodipodi="http://sodipodi.sourceforge.net/DTD/sodipodi-0.dtd"
   xmlns="http://www.w3.org/2000/svg"
   xmlns:svg="http://www.w3.org/2000/svg">
  <sodipodi:namedview
     id="namedview4049"
     pagecolor="#505050"
     bordercolor="#ffffff"
     borderopacity="1"
     inkscape:showpageshadow="0"
     inkscape:pageopacity="0"
     inkscape:pagecheckerboard="1"
     inkscape:deskcolor="#505050"
     showgrid="true"
     inkscape:zoom="23.821461"
     inkscape:cx="7.7031379"
     inkscape:cy="8.1439169"
     inkscape:window-width="1920"
     inkscape:window-height="1053"
     inkscape:window-x="0"
     inkscape:window-y="27"
     inkscape:window-maximized="1"
     inkscape:current-layer="g4010">
    <inkscape:grid
       type="xygrid"
       id="grid561"
       color="#e500e3"
       opacity="0.2627451"
       spacingx="0.25"
       spacingy="0.25"
       dotted="false" />
  </sodipodi:namedview>
  <g
     clip-path="url(#clip0_651_140)"
     id="g4010">
    <path
       d="M 1.2,1 C 1.08954,1 1,1.08954 1,1.2 v 1.55 0.675 c 0,0.11046 0.08954,0.2 0.2,0.2 h 2.225 c 0.11046,0 0.2,-0.08954 0.2,-0.2 V 2.75 1.2 C 3.625,1.08954 3.53546,1 3.425,1 h -1.55 z m 11.375,0 c -0.1105,0 -0.2,0.08954 -0.2,0.2 V 1.875 2.75 3.425 c 0,0.11046 0.0895,0.2 0.2,0.2 h 0.675 0.875 0.675 c 0.1105,0 0.2,-0.08954 0.2,-0.2 V 2.75 1.875 1.2 C 15,1.08954 14.9105,1 14.8,1 Z m -10.7,1.075 c 0,-0.11046 0.08954,-0.2 0.2,-0.2 H 2.55 c 0.11046,0 0.2,0.08954 0.2,0.2 V 2.55 c 0,0.11046 -0.08954,0.2 -0.2,0.2 H 2.075 c -0.11046,0 -0.2,-0.08954 -0.2,-0.2 z m 11.375,0 c 0,-0.11046 0.0895,-0.2 0.2,-0.2 h 0.475 c 0.1105,0 0.2,0.08954 0.2,0.2 V 2.55 c 0,0.11046 -0.0895,0.2 -0.2,0.2 H 13.45 c -0.1105,0 -0.2,-0.08954 -0.2,-0.2 z M 6.45,2.75 c -0.11046,0 -0.2,0.08954 -0.2,0.2 v 0.475 c 0,0.11046 0.08954,0.2 0.2,0.2 h 3.1 c 0.11046,0 0.2,-0.08954 0.2,-0.2 V 2.95 c 0,-0.11046 -0.08954,-0.2 -0.2,-0.2 z m -3.5,3.5 c -0.11046,0 -0.2,0.08954 -0.2,0.2 v 3.1 c 0,0.11046 0.08954,0.2 0.2,0.2 h 0.475 c 0.11046,0 0.2,-0.08954 0.2,-0.2 v -3.1 c 0,-0.11046 -0.08954,-0.2 -0.2,-0.2 z M 1.2,12.375 c -0.11046,0 -0.2,0.0895 -0.2,0.2 V 13.25 14.8 C 1,14.9105 1.08954,15 1.2,15 H 1.875 2.75 3.425 c 0.11046,0 0.2,-0.0895 0.2,-0.2 v -2.225 c 0,-0.1105 -0.08954,-0.2 -0.2,-0.2 z m 0.675,1.075 c 0,-0.1105 0.08954,-0.2 0.2,-0.2 H 2.55 c 0.11046,0 0.2,0.0895 0.2,0.2 v 0.475 c 0,0.1105 -0.08954,0.2 -0.2,0.2 H 2.075 c -0.11046,0 -0.2,-0.0895 -0.2,-0.2 z m 4.5724844,0.679211 c -0.11046,0 -0.2,0.08954 -0.2,0.2 v 0.475 c 0,0.11046 0.08954,0.2 0.2,0.2 h 0.8427131 c 0.11046,0 0.2,-0.08954 0.2,-0.2 v -0.475 c 0,-0.11046 -0.08954,-0.2 -0.2,-0.2 z M 15.00218,6.4559092 c 0,-0.11046 -0.08954,-0.2 -0.2,-0.2 h -0.475 c -0.11046,0 -0.2,0.08954 -0.2,0.2 v 0.842714 c 0,0.11046 0.08954,0.2 0.2,0.2 h 0.475 c 0.11046,0 0.2,-0.08954 0.2,-0.2 z"
       fill="url(#paint0_linear_651_140)"
       stroke="url(#paint1_linear_651_140)"
       id="path4000"
       style="fill:url(#paint0_linear_651_140);stroke:url(#paint1_linear_651_140)"
       sodipodi:nodetypes="sscsssscsscsssccssccssccssssssssssssssssssssssssssssssssssssssssscssccssssssssssssssssssssssssssssssss" />
    <path
       fill-rule="evenodd"
       clip-rule="evenodd"
       d="M 6.75,6.5 C 6.5,6.5 6.25,6.75 6.25,7 v 4.75 c 0,0.25 0.25,0.5 0.5,0.5 h 4.75 c 0.25,0 0.5,-0.25 0.5,-0.5 V 7 C 12,6.75 11.75,6.5 11.5,6.5 Z M 7.5,8 C 7.5,7.88954 7.63954,7.75 7.75,7.75 h 2.75 c 0.1105,0 0.25,0.13954 0.25,0.25 v 2.75 C 10.75,10.8605 10.6105,11 10.5,11 H 7.75 C 7.63954,11 7.5,10.8605 7.5,10.75 Z"
       fill="url(#paint2_linear_651_140)"
       id="path4002"
       sodipodi:nodetypes="scssssssssssssssss"
       style="fill:url(#paint2_linear_651_140);stroke-width:1.8;stroke-dasharray:none" />
    <path
       d="m 14.5,13 c -0.1105,0 -0.25,0.1396 -0.25,0.25 V 14 c 0,0.1105 -0.1395,0.25 -0.25,0.25 H 13.25 C 13.1395,14.25 13,14.389604 13,14.5 v 0.75 c 0,0.110501 0.1395,0.25 0.25,0.25 h 2 c 0.1105,0 0.25,-0.1395 0.25,-0.25 v -2 C 15.5,13.1396 15.3605,13 15.25,13 Z M 13,10.25 c 0,0.1105 0.1396,0.25 0.25,0.25 H 14 c 0.1105,0 0.25,0.1395 0.25,0.25 v 0.75 c 0,0.1105 0.1396,0.25 0.25,0.25 h 0.75 c 0.1105,0 0.25,-0.1395 0.25,-0.25 v -2 c 0,-0.1105 -0.1395,-0.25 -0.25,-0.25 h -2 C 13.1396,9.25 13,9.3895 13,9.5 Z m -2.75,1.5 c 0.1105,0 0.25,-0.1396 0.25,-0.25 v -0.75 c 0,-0.1105 0.1395,-0.25 0.25,-0.25 h 0.75 c 0.1105,0 0.25,-0.1396 0.25,-0.25 V 9.5 c 0,-0.1105 -0.1395,-0.25 -0.25,-0.25 h -2 C 9.3895,9.25 9.25,9.3895 9.25,9.5 v 2 c 0,0.1104 0.1395,0.25 0.25,0.25 z m 1.5,2.75 c 0,-0.1105 -0.1396,-0.25 -0.25,-0.25 H 10.75 C 10.6395,14.25 10.5,14.1105 10.5,14 v -0.25 -0.5 C 10.5,13.1395 10.3604,13 10.25,13 H 9.5 c -0.1105,0 -0.25,0.1395 -0.25,0.25 v 2 c 0,0.1105 0.1395,0.25 0.25,0.25 h 2 c 0.1104,0 0.25,-0.1395 0.25,-0.25 z"
       fill="url(#paint3_linear_651_140)"
       id="path4004"
       sodipodi:nodetypes="ssssssssssssssssssssssssssssssssssssssssssscsssssssss" />
  </g>
  <defs
     id="defs4045">
    <linearGradient
       id="paint0_linear_651_140"
       x1="3.5375"
       y1="13.3472"
       x2="16.1622"
       y2="2.33196"
       gradientUnits="userSpaceOnUse">
      <stop
         stop-color="#FE0844"
         id="stop4012" />
      <stop
         offset="1"
         stop-color="#FEB302"
         id="stop4014" />
    </linearGradient>
    <linearGradient
       id="paint1_linear_651_140"
       x1="3.5375"
       y1="13.3472"
       x2="16.1622"
       y2="2.33196"
       gradientUnits="userSpaceOnUse">
      <stop
         stop-color="#FE0844"
         id="stop4017" />
      <stop
         offset="1"
         stop-color="#FEB302"
         id="stop4019" />
    </linearGradient>
    <linearGradient
       id="paint2_linear_651_140"
       x1="10.3233"
       y1="14.7785"
       x2="11.2419"
       y2="7.3203"
       gradientUnits="userSpaceOnUse"
       gradientTransform="translate(8.022912)">
      <stop
         stop-color="#8D01A2"
         id="stop4022"
         offset="0"
         style="stop-color:#8d01a2;stop-opacity:0.30000001;" />
      <stop
         offset="1"
         stop-color="#FF33DB"
         id="stop4024"
         style="stop-color:#ff33db;stop-opacity:0.30000001;" />
    </linearGradient>
    <linearGradient
       id="paint3_linear_651_140"
       x1="10.3233"
       y1="14.7785"
       x2="11.2419"
       y2="7.3203"
       gradientUnits="userSpaceOnUse">
      <stop
         stop-color="#8D01A2"
         id="stop4027" />
      <stop
         offset="1"
         stop-color="#FF33DB"
         id="stop4029" />
    </linearGradient>
    <linearGradient
       id="paint4_linear_651_140"
       x1="10.3233"
       y1="14.7785"
       x2="11.2419"
       y2="7.3203"
       gradientUnits="userSpaceOnUse"
       gradientTransform="translate(8)">
      <stop
         stop-color="#8D01A2"
         id="stop4032"
         offset="0"
         style="stop-color:#8d01a2;stop-opacity:0.40000001;" />
      <stop
         offset="1"
         stop-color="#FF33DB"
         id="stop4034"
         style="stop-color:#ff33db;stop-opacity:0.40000001;" />
    </linearGradient>
    <linearGradient
       id="paint5_linear_651_140"
       x1="10.3233"
       y1="14.7785"
       x2="11.2419"
       y2="7.3203"
       gradientUnits="userSpaceOnUse">
      <stop
         stop-color="#8D01A2"
         id="stop4037" />
      <stop
         offset="1"
         stop-color="#FF33DB"
         id="stop4039" />
    </linearGradient>
    <clipPath
       id="clip0_651_140">
      <rect
         width="16"
         height="16"
         fill="white"
         id="rect4042" />
    </clipPath>
  </defs>
</svg>
