<?xml version="1.0" encoding="UTF-8" standalone="no"?>
<!-- Created with Inkscape (http://www.inkscape.org/) -->

<svg
   width="16"
   height="16"
   viewBox="0 0 4.2333333 4.2333333"
   version="1.1"
   id="svg1"
   inkscape:version="1.4.2 (ebf0e940d0, 2025-05-08)"
   sodipodi:docname="node-​type-​symmetric.svg"
   xmlns:inkscape="http://www.inkscape.org/namespaces/inkscape"
   xmlns:sodipodi="http://sodipodi.sourceforge.net/DTD/sodipodi-0.dtd"
   xmlns:xlink="http://www.w3.org/1999/xlink"
   xmlns="http://www.w3.org/2000/svg"
   xmlns:svg="http://www.w3.org/2000/svg">
  <sodipodi:namedview
     id="namedview1"
     pagecolor="#505050"
     bordercolor="#ffffff"
     borderopacity="1"
     inkscape:showpageshadow="0"
     inkscape:pageopacity="0"
     inkscape:pagecheckerboard="1"
     inkscape:deskcolor="#d1d1d1"
     inkscape:document-units="mm"
     inkscape:zoom="53.0625"
     inkscape:cx="7.9905771"
     inkscape:cy="8"
     inkscape:current-layer="svg1" />
  <defs
     id="defs1">
    <linearGradient
       id="paint0_linear_651_140"
       x1="3.5374999"
       y1="13.3472"
       x2="16.162201"
       y2="2.33196"
       gradientUnits="userSpaceOnUse"
       inkscape:label="Beautyline_yellow_gradient"
       spreadMethod="pad">
      <stop
         stop-color="#FE0844"
         id="stop4012" />
      <stop
         offset="1"
         stop-color="#FEB302"
         id="stop4014" />
    </linearGradient>
    <linearGradient
       id="paint0_linear_451_2933"
       x1="2.75"
       y1="10.3125"
       x2="18.371799"
       y2="8.5861902"
       gradientUnits="userSpaceOnUse"
       inkscape:label="Beautyline_purple_gradient"
       inkscape:swatch="gradient">
      <stop
         stop-color="#8D01A2"
         id="stop1" />
      <stop
         offset="1"
         stop-color="#FF00D2"
         id="stop2" />
    </linearGradient>
    <linearGradient
       inkscape:collect="always"
       xlink:href="#paint0_linear_651_140"
       id="linearGradient234"
       gradientUnits="userSpaceOnUse"
       x1="3.5374999"
       y1="13.3472"
       x2="16.162201"
       y2="2.33196"
       spreadMethod="pad" />
    <linearGradient
       inkscape:collect="always"
       xlink:href="#paint0_linear_451_2933"
       id="linearGradient235"
       gradientUnits="userSpaceOnUse"
       x1="2.75"
       y1="10.3125"
       x2="18.371799"
       y2="8.5861902" />
  </defs>
  <g
     id="g1"
     description="node-​type-​symmetric"
     transform="matrix(0.19843743,0,0,0.19843743,-0.06614509,0.1322918)">
    <path
       id="path1"
       style="color:#fcfcfc;fill:url(#linearGradient234)"
       d="M 1.4003906,2 C 1.1794767,2 0.99989057,2.1795161 1.0039062,2.4003906 1.1406248,9.9203167 4.982551,16.153751 10,16.910156 V 16 15.90625 C 5.5319529,15.129184 2.1321103,9.3505975 2.0039063,2.4003906 1.999832,2.179518 1.8205233,2 1.5996094,2 Z m 0,13 A 0.4,0.4 0 0 0 1,15.400391 v 2.199218 A 0.4,0.4 0 0 0 1.4003906,18 H 3.5996094 A 0.4,0.4 0 0 0 4,17.599609 V 17 H 4.5996094 A 0.4,0.4 0 0 0 5,16.599609 V 16.400391 A 0.4,0.4 0 0 0 4.5996094,16 H 4 V 15.400391 A 0.4,0.4 0 0 0 3.5996094,15 Z M 2,16 h 1 v 1 H 2 Z m 4.4003906,0 H 6.5996094 A 0.4,0.4 0 0 1 7,16.400391 v 0.199218 A 0.4,0.4 0 0 1 6.5996094,17 H 6.4003906 A 0.4,0.4 0 0 1 6,16.599609 V 16.400391 A 0.4,0.4 0 0 1 6.4003906,16 Z M 20.400391,2 C 20.179477,2 20.000267,2.1795192 19.996094,2.4003906 19.864838,9.3467751 16.465666,15.119837 12,15.896484 V 16 16.925781 C 17.021415,16.168775 20.864501,9.9264352 20.996094,2.4003906 20.999956,2.1795136 20.820523,2 20.599609,2 Z m -5,14 h 0.199218 A 0.4,0.4 0 0 1 16,16.400391 v 0.199218 A 0.4,0.4 0 0 1 15.599609,17 H 15.400391 A 0.4,0.4 0 0 1 15,16.599609 V 16.400391 A 0.4,0.4 0 0 1 15.400391,16 Z m 3,-1 A 0.4,0.4 0 0 0 18,15.400391 V 16 H 17.400391 A 0.4,0.4 0 0 0 17,16.400391 v 0.199218 A 0.4,0.4 0 0 0 17.400391,17 H 18 v 0.599609 A 0.4,0.4 0 0 0 18.400391,18 h 2.199218 A 0.4,0.4 0 0 0 21,17.599609 V 15.400391 A 0.4,0.4 0 0 0 20.599609,15 Z m 0.798828,1 h 0.601562 A 0.2,0.2 0 0 1 20,16.199219 v 0.601562 A 0.2,0.2 0 0 1 19.800781,17 H 19.199219 A 0.2,0.2 0 0 1 19,16.800781 V 16.199219 A 0.2,0.2 0 0 1 19.199219,16 Z" />
    <path
       d="m 10.984375,13.226563 a 0.24,0.24 0 0 0 -0.189453,0.117187 l -2.5898439,4.3125 A 0.22647615,0.22647615 0 0 0 8.4003906,18 h 5.1992184 a 0.22647615,0.22647615 0 0 0 0.195313,-0.34375 l -2.589844,-4.3125 A 0.24,0.24 0 0 0 10.984375,13.226563 Z M 11,15.123047 a 0.1,0.1 0 0 1 0.08984,0.05664 l 0.820312,1.640624 A 0.1236068,0.1236068 0 0 1 11.800781,17 h -1.601562 a 0.1236068,0.1236068 0 0 1 -0.109375,-0.179688 l 0.820312,-1.640624 A 0.1,0.1 0 0 1 11,15.123047 Z"
       style="color:#3daee9;fill:url(#linearGradient235)"
       id="path2" />
  </g>
</svg>
