<?xml version="1.0" encoding="UTF-8" standalone="no"?>
<svg
   width="16"
   height="16"
   viewBox="0 0 16 16"
   fill="none"
   version="1.1"
   id="svg4047"
   sodipodi:docname="node-transform.svg"
   inkscape:version="1.2.2 (b0a8486541, 2022-12-01)"
   xmlns:inkscape="http://www.inkscape.org/namespaces/inkscape"
   xmlns:sodipodi="http://sodipodi.sourceforge.net/DTD/sodipodi-0.dtd"
   xmlns:xlink="http://www.w3.org/1999/xlink"
   xmlns="http://www.w3.org/2000/svg"
   xmlns:svg="http://www.w3.org/2000/svg">
  <sodipodi:namedview
     id="namedview4049"
     pagecolor="#505050"
     bordercolor="#ffffff"
     borderopacity="1"
     inkscape:showpageshadow="0"
     inkscape:pageopacity="0"
     inkscape:pagecheckerboard="1"
     inkscape:deskcolor="#505050"
     showgrid="true"
     inkscape:zoom="40.927381"
     inkscape:cx="6.3893656"
     inkscape:cy="6.9146863"
     inkscape:window-width="1920"
     inkscape:window-height="1053"
     inkscape:window-x="0"
     inkscape:window-y="27"
     inkscape:window-maximized="1"
     inkscape:current-layer="g4010">
    <inkscape:grid
       type="xygrid"
       id="grid561"
       color="#e500e3"
       opacity="0.2627451"
       spacingx="0.25"
       spacingy="0.25"
       dotted="false" />
  </sodipodi:namedview>
  <g
     clip-path="url(#clip0_651_140)"
     id="g4010">
    <path
       d="M 1.2,1 C 1.08954,1 1,1.08954 1,1.2 v 1.55 0.675 c 0,0.11046 0.08954,0.2 0.2,0.2 h 2.225 c 0.11046,0 0.2,-0.08954 0.2,-0.2 V 2.75 1.2 C 3.625,1.08954 3.53546,1 3.425,1 h -1.55 z m 11.375,0 c -0.1105,0 -0.2,0.08954 -0.2,0.2 V 1.875 2.75 3.425 c 0,0.11046 0.0895,0.2 0.2,0.2 h 0.675 0.875 0.675 c 0.1105,0 0.2,-0.08954 0.2,-0.2 V 2.75 1.875 1.2 C 15,1.08954 14.9105,1 14.8,1 Z m -10.7,1.075 c 0,-0.11046 0.08954,-0.2 0.2,-0.2 H 2.55 c 0.11046,0 0.2,0.08954 0.2,0.2 V 2.55 c 0,0.11046 -0.08954,0.2 -0.2,0.2 H 2.075 c -0.11046,0 -0.2,-0.08954 -0.2,-0.2 z m 11.375,0 c 0,-0.11046 0.0895,-0.2 0.2,-0.2 h 0.475 c 0.1105,0 0.2,0.08954 0.2,0.2 V 2.55 c 0,0.11046 -0.0895,0.2 -0.2,0.2 H 13.45 c -0.1105,0 -0.2,-0.08954 -0.2,-0.2 z M 6.45,2.75 c -0.11046,0 -0.2,0.08954 -0.2,0.2 v 0.475 c 0,0.11046 0.08954,0.2 0.2,0.2 h 3.1 c 0.11046,0 0.2,-0.08954 0.2,-0.2 V 2.95 c 0,-0.11046 -0.08954,-0.2 -0.2,-0.2 z m -3.5,3.5 c -0.11046,0 -0.2,0.08954 -0.2,0.2 v 3.1 c 0,0.11046 0.08954,0.2 0.2,0.2 h 0.475 c 0.11046,0 0.2,-0.08954 0.2,-0.2 v -3.1 c 0,-0.11046 -0.08954,-0.2 -0.2,-0.2 z M 1.2,12.375 c -0.11046,0 -0.2,0.0895 -0.2,0.2 V 13.25 14.8 C 1,14.9105 1.08954,15 1.2,15 H 1.875 2.75 3.425 c 0.11046,0 0.2,-0.0895 0.2,-0.2 v -2.225 c 0,-0.1105 -0.08954,-0.2 -0.2,-0.2 z m 0.675,1.075 c 0,-0.1105 0.08954,-0.2 0.2,-0.2 H 2.55 c 0.11046,0 0.2,0.0895 0.2,0.2 v 0.475 c 0,0.1105 -0.08954,0.2 -0.2,0.2 H 2.075 c -0.11046,0 -0.2,-0.0895 -0.2,-0.2 z"
       fill="url(#paint0_linear_651_140)"
       stroke="url(#paint1_linear_651_140)"
       id="path4000"
       style="fill:url(#paint0_linear_651_140);stroke:url(#paint1_linear_651_140)"
       sodipodi:nodetypes="sscsssscsscsssccssccssccssssssssssssssssssssssssssssssssssssssssscssccssssssssssssss" />
    <path
       d="m 12.575,6.25 c -0.11046,0 -0.2,0.08954 -0.2,0.2 v 3.1 c 0,0.11046 0.08954,0.2 0.2,0.2 h 0.475 c 0.11046,0 0.2,-0.08954 0.2,-0.2 v -3.1 c 0,-0.11046 -0.08954,-0.2 -0.2,-0.2 z"
       style="fill:none;stroke:url(#linearGradient10340);fill-opacity:1"
       id="path10314" />
    <path
       d="m 6.45,12.375833 c -0.11046,0 -0.2,0.08954 -0.2,0.2 v 0.475 c 0,0.11046 0.08954,0.2 0.2,0.2 h 3.0999996 c 0.11046,0 0.2,-0.08954 0.2,-0.2 v -0.475 c 0,-0.11046 -0.08954,-0.2 -0.2,-0.2 z"
       style="fill:none;stroke:url(#linearGradient10369)"
       id="path10277" />
    <path
       d="m 13.75,12.25 c -0.1105,0 -0.25,0.1396 -0.25,0.25 v 0.75 c 0,0.1105 -0.1395,0.25 -0.25,0.25 H 12.5 c -0.1105,0 -0.25,0.139604 -0.25,0.25 v 1.5 c 0,0.110501 0.1395,0.25 0.25,0.25 h 2.75 c 0.1105,0 0.25,-0.1395 0.25,-0.25 V 12.5 c 0,-0.1104 -0.1395,-0.25 -0.25,-0.25 z m -1.5,-3.5 C 12.25,8.8605 12.3896,9 12.5,9 h 0.75 c 0.1105,0 0.25,0.1395 0.25,0.25 V 10 c 0,0.1105 0.1396,0.25 0.25,0.25 h 1.5 c 0.1105,0 0.25,-0.1395 0.25,-0.25 V 7.25 C 15.5,7.1395 15.3605,7 15.25,7 H 12.5 c -0.1104,0 -0.25,0.1395 -0.25,0.25 z m -3.5,1.5 C 8.8605,10.25 9,10.1104 9,10 V 9.25 C 9,9.1395 9.1395,9 9.25,9 H 10 c 0.1105,0 0.25,-0.1396 0.25,-0.25 V 7.25 C 10.25,7.1395 10.1105,7 10,7 H 7.25 C 7.1395,7 7,7.1395 7,7.25 V 10 c 0,0.1104 0.1395,0.25 0.25,0.25 z m 1.5,3.5 C 10.25,13.6395 10.1104,13.5 10,13.5 H 9.25 C 9.1395,13.5 9,13.3605 9,13.25 V 13 12.5 C 9,12.3895 8.8604,12.25 8.75,12.25 H 7.25 C 7.1395,12.25 7,12.3895 7,12.5 v 2.75 c 0,0.1105 0.1395,0.25 0.25,0.25 H 10 c 0.1104,0 0.25,-0.1395 0.25,-0.25 z"
       fill="url(#paint3_linear_651_140)"
       id="path4004"
       sodipodi:nodetypes="ssssssssssssssssssssssssssssssssssssssssssscsssssssss" />
  </g>
  <defs
     id="defs4045">
    <linearGradient
       id="linearGradient10353"
       x1="3.5375"
       y1="13.3472"
       x2="16.1622"
       y2="2.33196"
       gradientUnits="userSpaceOnUse">
      <stop
         stop-color="#FE0844"
         id="stop10349"
         offset="0"
         style="stop-color:#fe0844;stop-opacity:0.40000001;" />
      <stop
         offset="1"
         stop-color="#FEB302"
         id="stop10351"
         style="stop-color:#feb302;stop-opacity:0.40000001;" />
    </linearGradient>
    <linearGradient
       id="linearGradient10347"
       x1="3.5375"
       y1="13.3472"
       x2="16.1622"
       y2="2.33196"
       gradientUnits="userSpaceOnUse">
      <stop
         stop-color="#FE0844"
         id="stop10343"
         offset="0"
         style="stop-color:#fe0844;stop-opacity:0.40350169;" />
      <stop
         offset="1"
         stop-color="#FEB302"
         id="stop10345"
         style="stop-color:#feb302;stop-opacity:0.40000001;" />
    </linearGradient>
    <linearGradient
       id="paint0_linear_651_140"
       x1="3.5375"
       y1="13.3472"
       x2="16.1622"
       y2="2.33196"
       gradientUnits="userSpaceOnUse">
      <stop
         stop-color="#FE0844"
         id="stop4012" />
      <stop
         offset="1"
         stop-color="#FEB302"
         id="stop4014" />
    </linearGradient>
    <linearGradient
       id="paint1_linear_651_140"
       x1="3.5375"
       y1="13.3472"
       x2="16.1622"
       y2="2.33196"
       gradientUnits="userSpaceOnUse">
      <stop
         stop-color="#FE0844"
         id="stop4017" />
      <stop
         offset="1"
         stop-color="#FEB302"
         id="stop4019" />
    </linearGradient>
    <linearGradient
       id="paint2_linear_651_140"
       x1="10.3233"
       y1="14.7785"
       x2="11.2419"
       y2="7.3203"
       gradientUnits="userSpaceOnUse"
       gradientTransform="translate(8.022912)">
      <stop
         stop-color="#8D01A2"
         id="stop4022"
         offset="0"
         style="stop-color:#8d01a2;stop-opacity:0.30000001;" />
      <stop
         offset="1"
         stop-color="#FF33DB"
         id="stop4024"
         style="stop-color:#ff33db;stop-opacity:0.30000001;" />
    </linearGradient>
    <linearGradient
       id="paint3_linear_651_140"
       x1="10.3233"
       y1="14.7785"
       x2="11.2419"
       y2="7.3203"
       gradientUnits="userSpaceOnUse">
      <stop
         stop-color="#8D01A2"
         id="stop4027" />
      <stop
         offset="1"
         stop-color="#FF33DB"
         id="stop4029" />
    </linearGradient>
    <linearGradient
       id="paint4_linear_651_140"
       x1="10.3233"
       y1="14.7785"
       x2="11.2419"
       y2="7.3203"
       gradientUnits="userSpaceOnUse"
       gradientTransform="translate(8)">
      <stop
         stop-color="#8D01A2"
         id="stop4032"
         offset="0"
         style="stop-color:#8d01a2;stop-opacity:0.40000001;" />
      <stop
         offset="1"
         stop-color="#FF33DB"
         id="stop4034"
         style="stop-color:#ff33db;stop-opacity:0.40000001;" />
    </linearGradient>
    <linearGradient
       id="paint5_linear_651_140"
       x1="10.3233"
       y1="14.7785"
       x2="11.2419"
       y2="7.3203"
       gradientUnits="userSpaceOnUse">
      <stop
         stop-color="#8D01A2"
         id="stop4037" />
      <stop
         offset="1"
         stop-color="#FF33DB"
         id="stop4039" />
    </linearGradient>
    <clipPath
       id="clip0_651_140">
      <rect
         width="16"
         height="16"
         fill="white"
         id="rect4042" />
    </clipPath>
    <linearGradient
       inkscape:collect="always"
       xlink:href="#linearGradient10353"
       id="linearGradient10340"
       gradientUnits="userSpaceOnUse"
       x1="3.5374999"
       y1="13.3472"
       x2="16.162201"
       y2="2.33196" />
    <linearGradient
       inkscape:collect="always"
       xlink:href="#linearGradient10353"
       id="linearGradient10369"
       x1="3.5397766"
       y1="13.407511"
       x2="16.251804"
       y2="2.3115144"
       gradientUnits="userSpaceOnUse" />
  </defs>
</svg>
