<?xml version="1.0" encoding="UTF-8" standalone="no"?>
<!-- Created with Inkscape (http://www.inkscape.org/) -->

<svg
   width="16"
   height="16"
   viewBox="0 0 4.2333333 4.2333333"
   version="1.1"
   id="svg1"
   inkscape:version="1.4.2 (ebf0e940d0, 2025-05-08)"
   sodipodi:docname="node-​type-​smooth.svg"
   xmlns:inkscape="http://www.inkscape.org/namespaces/inkscape"
   xmlns:sodipodi="http://sodipodi.sourceforge.net/DTD/sodipodi-0.dtd"
   xmlns:xlink="http://www.w3.org/1999/xlink"
   xmlns="http://www.w3.org/2000/svg"
   xmlns:svg="http://www.w3.org/2000/svg">
  <sodipodi:namedview
     id="namedview1"
     pagecolor="#505050"
     bordercolor="#ffffff"
     borderopacity="1"
     inkscape:showpageshadow="0"
     inkscape:pageopacity="0"
     inkscape:pagecheckerboard="1"
     inkscape:deskcolor="#d1d1d1"
     inkscape:document-units="mm"
     inkscape:zoom="53.0625"
     inkscape:cx="7.9905771"
     inkscape:cy="8"
     inkscape:current-layer="svg1" />
  <defs
     id="defs1">
    <linearGradient
       id="paint0_linear_651_140"
       x1="3.5374999"
       y1="13.3472"
       x2="16.162201"
       y2="2.33196"
       gradientUnits="userSpaceOnUse"
       inkscape:label="Beautyline_yellow_gradient"
       spreadMethod="pad">
      <stop
         stop-color="#FE0844"
         id="stop4012" />
      <stop
         offset="1"
         stop-color="#FEB302"
         id="stop4014" />
    </linearGradient>
    <linearGradient
       id="paint0_linear_451_2933"
       x1="2.75"
       y1="10.3125"
       x2="18.371799"
       y2="8.5861902"
       gradientUnits="userSpaceOnUse"
       inkscape:label="Beautyline_purple_gradient"
       inkscape:swatch="gradient">
      <stop
         stop-color="#8D01A2"
         id="stop1" />
      <stop
         offset="1"
         stop-color="#FF00D2"
         id="stop2" />
    </linearGradient>
    <linearGradient
       inkscape:collect="always"
       xlink:href="#paint0_linear_651_140"
       id="linearGradient232"
       gradientUnits="userSpaceOnUse"
       x1="3.5374999"
       y1="13.3472"
       x2="16.162201"
       y2="2.33196"
       spreadMethod="pad" />
    <linearGradient
       inkscape:collect="always"
       xlink:href="#paint0_linear_451_2933"
       id="linearGradient233"
       gradientUnits="userSpaceOnUse"
       x1="2.75"
       y1="10.3125"
       x2="18.371799"
       y2="8.5861902" />
  </defs>
  <g
     id="g1"
     description="node-​type-​smooth"
     transform="matrix(0.19847559,0,0,0.19847559,-0.06745501,0.16496443)">
    <path
       id="path1"
       style="color:#fcfcfc;fill:url(#linearGradient232)"
       d="M 1.4003906,2 C 1.1794767,2 0.99985102,2.1795168 1.0039062,2.4003906 1.1315089,9.3504454 4.4356394,15.282149 9,16.679687 V 15.636719 C 4.991905,14.215676 2.1234441,8.7587849 2.0039063,2.4003906 1.9997538,2.1795174 1.8205233,2 1.5996094,2 Z m 2,13 A 0.4,0.4 0 0 0 3,15.400391 v 2.199218 A 0.4,0.4 0 0 0 3.4003906,18 H 5.5996094 A 0.4,0.4 0 0 0 6,17.599609 V 17 H 6.5996094 A 0.4,0.4 0 0 0 7,16.599609 V 16.400391 A 0.4,0.4 0 0 0 6.5996094,16 H 6 V 15.400391 A 0.4,0.4 0 0 0 5.5996094,15 Z m 0.7988281,1 H 4.8007812 A 0.2,0.2 0 0 1 5,16.199219 v 0.601562 A 0.2,0.2 0 0 1 4.8007812,17 H 4.1992187 A 0.2,0.2 0 0 1 4,16.800781 V 16.199219 A 0.2,0.2 0 0 1 4.1992187,16 Z m 11.2011723,0 h 0.199218 A 0.4,0.4 0 0 1 16,16.400391 v 0.199218 A 0.4,0.4 0 0 1 15.599609,17 H 15.400391 A 0.4,0.4 0 0 1 15,16.599609 V 16.400391 A 0.4,0.4 0 0 1 15.400391,16 Z m 3,-1 A 0.4,0.4 0 0 0 18,15.400391 V 16 H 17.400391 A 0.4,0.4 0 0 0 17,16.400391 v 0.199218 A 0.4,0.4 0 0 0 17.400391,17 H 18 v 0.599609 A 0.4,0.4 0 0 0 18.400391,18 h 2.199218 A 0.4,0.4 0 0 0 21,17.599609 V 15.400391 A 0.4,0.4 0 0 0 20.599609,15 Z m 0.798828,1 h 0.601562 A 0.2,0.2 0 0 1 20,16.199219 v 0.601562 A 0.2,0.2 0 0 1 19.800781,17 H 19.199219 A 0.2,0.2 0 0 1 19,16.800781 V 16.199219 A 0.2,0.2 0 0 1 19.199219,16 Z M 20.400391,2 C 20.179477,2 20.000286,2.1795195 19.996094,2.4003906 19.875442,8.7572899 17.00718,14.212095 13,15.632813 v 1.062499 C 17.568194,15.296594 20.873223,9.3564473 20.996094,2.4003906 20.999995,2.1795178 20.820523,2 20.599609,2 Z" />
    <path
       d="M 8.9003906,14 A 0.4,0.4 0 0 0 8.5,14.400391 v 4.199218 A 0.4,0.4 0 0 0 8.9003906,19 H 13.099609 A 0.4,0.4 0 0 0 13.5,18.599609 V 14.400391 A 0.4,0.4 0 0 0 13.099609,14 Z m 0.7988282,1 H 12.300781 A 0.2,0.2 0 0 1 12.5,15.199219 v 2.601562 A 0.2,0.2 0 0 1 12.300781,18 H 9.6992188 A 0.2,0.2 0 0 1 9.5,17.800781 V 15.199219 A 0.2,0.2 0 0 1 9.6992188,15 Z"
       style="color:#3daee9;fill:url(#linearGradient233)"
       id="path2" />
  </g>
</svg>
