<?xml version="1.0" encoding="UTF-8" standalone="no"?>
<!-- Created with Inkscape (http://www.inkscape.org/) -->

<svg
   width="16"
   height="16"
   viewBox="0 0 4.2333333 4.2333333"
   version="1.1"
   id="svg1"
   inkscape:version="1.4.2 (ebf0e940d0, 2025-05-08)"
   sodipodi:docname="node-​segment-​line.svg"
   xmlns:inkscape="http://www.inkscape.org/namespaces/inkscape"
   xmlns:sodipodi="http://sodipodi.sourceforge.net/DTD/sodipodi-0.dtd"
   xmlns:xlink="http://www.w3.org/1999/xlink"
   xmlns="http://www.w3.org/2000/svg"
   xmlns:svg="http://www.w3.org/2000/svg">
  <sodipodi:namedview
     id="namedview1"
     pagecolor="#505050"
     bordercolor="#ffffff"
     borderopacity="1"
     inkscape:showpageshadow="0"
     inkscape:pageopacity="0"
     inkscape:pagecheckerboard="1"
     inkscape:deskcolor="#d1d1d1"
     inkscape:document-units="mm"
     inkscape:zoom="53.0625"
     inkscape:cx="7.9905771"
     inkscape:cy="8"
     inkscape:current-layer="svg1" />
  <defs
     id="defs1">
    <linearGradient
       id="paint0_linear_651_140"
       x1="3.5374999"
       y1="13.3472"
       x2="16.162201"
       y2="2.33196"
       gradientUnits="userSpaceOnUse"
       inkscape:label="Beautyline_yellow_gradient"
       spreadMethod="pad">
      <stop
         stop-color="#FE0844"
         id="stop4012" />
      <stop
         offset="1"
         stop-color="#FEB302"
         id="stop4014" />
    </linearGradient>
    <linearGradient
       id="paint0_linear_451_2933"
       x1="2.75"
       y1="10.3125"
       x2="18.371799"
       y2="8.5861902"
       gradientUnits="userSpaceOnUse"
       inkscape:label="Beautyline_purple_gradient"
       inkscape:swatch="gradient">
      <stop
         stop-color="#8D01A2"
         id="stop1" />
      <stop
         offset="1"
         stop-color="#FF00D2"
         id="stop2" />
    </linearGradient>
    <linearGradient
       inkscape:collect="always"
       xlink:href="#paint0_linear_651_140"
       id="linearGradient223"
       gradientUnits="userSpaceOnUse"
       x1="3.5374999"
       y1="13.3472"
       x2="16.162201"
       y2="2.33196"
       spreadMethod="pad" />
    <linearGradient
       inkscape:collect="always"
       xlink:href="#paint0_linear_451_2933"
       id="linearGradient224"
       gradientUnits="userSpaceOnUse"
       x1="2.75"
       y1="10.3125"
       x2="18.371799"
       y2="8.5861902" />
  </defs>
  <g
     id="g1"
     description="node-​segment-​line"
     transform="matrix(0.24804687,0,0,0.24804687,-0.61184935,-0.61184975)">
    <path
       style="color:#fcfcfc;fill:url(#linearGradient223);fill-opacity:1;stroke:none"
       d="M 16.646484,4.6464844 4.6464844,16.646484 5.3535156,17.353516 17.353516,5.3535156 Z"
       class="ColorScheme-Text"
       id="path1" />
    <path
       id="path2"
       style="color:#fcfcfc;fill:url(#linearGradient224)"
       d="M 16.400391,3 A 0.4,0.4 0 0 0 16,3.400391 V 5.599609 A 0.4,0.4 0 0 0 16.400391,6 h 2.199218 A 0.4,0.4 0 0 0 19,5.599609 V 3.400391 A 0.4,0.4 0 0 0 18.599609,3 Z m 0.798828,1 h 0.601562 A 0.2,0.2 0 0 1 18,4.199219 V 4.800781 A 0.2,0.2 0 0 1 17.800781,5 H 17.199219 A 0.2,0.2 0 0 1 17,4.800781 V 4.199219 A 0.2,0.2 0 0 1 17.199219,4 Z M 3.4003907,16 a 0.4,0.4 0 0 0 -0.4003906,0.400391 v 2.199218 A 0.4,0.4 0 0 0 3.4003907,19 H 5.5996095 A 0.4,0.4 0 0 0 6.0000001,18.599609 V 16.400391 A 0.4,0.4 0 0 0 5.5996095,16 Z m 0.7988281,1 h 0.6015625 a 0.2,0.2 0 0 1 0.1992188,0.199219 v 0.601562 A 0.2,0.2 0 0 1 4.8007813,18 H 4.1992188 A 0.2,0.2 0 0 1 4.0000001,17.800781 V 17.199219 A 0.2,0.2 0 0 1 4.1992188,17 Z" />
  </g>
</svg>
