<?xml version="1.0" encoding="UTF-8" standalone="no"?>
<svg
   width="64"
   height="64"
   viewBox="0 0 64 64"
   fill="none"
   version="1.1"
   id="svg48477"
   sodipodi:docname="object-group.svg"
   inkscape:version="1.2.2 (b0a8486541, 2022-12-01)"
   xmlns:inkscape="http://www.inkscape.org/namespaces/inkscape"
   xmlns:sodipodi="http://sodipodi.sourceforge.net/DTD/sodipodi-0.dtd"
   xmlns="http://www.w3.org/2000/svg"
   xmlns:svg="http://www.w3.org/2000/svg">
  <sodipodi:namedview
     id="namedview48479"
     pagecolor="#505050"
     bordercolor="#ffffff"
     borderopacity="1"
     inkscape:showpageshadow="0"
     inkscape:pageopacity="0"
     inkscape:pagecheckerboard="1"
     inkscape:deskcolor="#505050"
     showgrid="false"
     inkscape:zoom="12.546875"
     inkscape:cx="27.815691"
     inkscape:cy="31.960149"
     inkscape:window-width="1920"
     inkscape:window-height="1053"
     inkscape:window-x="0"
     inkscape:window-y="27"
     inkscape:window-maximized="1"
     inkscape:current-layer="svg48477" />
  <path
     d="M 5,3 C 3.89543,3 3,3.89543 3,5 v 54 c 0,1.1046 0.89543,2 2,2 h 54 c 1.1046,0 2,-0.8954 2,-2 V 5 C 61,3.89543 60.1046,3 59,3 Z m 2.41667,6.0833 c 0,-1.1045 0.89543,-2 2,-2 H 54.5833 c 1.1046,0 2,0.8955 2,2 v 45.5 c 0,1.1046 -0.8954,2 -2,2 H 9.41667 c -1.10457,0 -2,-0.8954 -2,-2 z"
     fill="url(#paint0_linear)"
     id="path48440"
     sodipodi:nodetypes="ssssssssssssssssss" />
  <path
     d="m 14.0085,15.7932 c -0.1064,-0.9662 0.8044,-1.8866 1.7821,-1.7856 3.8602,0.0023 7.7227,0.0023 11.5828,0 0.8691,-0.0826 1.8145,0.6633 1.7498,1.563 -0.0046,2.4534 0.0023,4.9091 -0.0046,7.3625 0.0809,0.56 -0.4207,0.9318 -0.8506,1.1774 -0.7906,0.3351 -1.7729,-0.3603 -1.7429,-1.2049 -0.0069,-2.0908 -0.0116,-4.1816 0.0069,-6.2724 -3.2984,-0.0092 -6.5969,-0.0069 -9.8954,0 0.0139,3.2704 0.0162,6.5432 -0.0023,9.816 2.0988,0.0206 4.2,-0.0184 6.2988,0.0161 0.8344,-0.0092 1.5186,0.957 1.1788,1.7281 -0.2427,0.4017 -0.5894,0.8882 -1.1257,0.8332 -2.4732,0.0183 -4.9465,0.0045 -7.4198,0.0045 -0.9038,0.0643 -1.6411,-0.8836 -1.5556,-1.7373 0.0069,-3.8351 0.0069,-7.6678 -0.0023,-11.5006 z"
     fill="url(#paint1_linear)"
     id="path48442"
     sodipodi:nodetypes="cccccccccccccccc" />
  <path
     d="m 36.1234,14.108 c 0.3287,-0.1264 0.6922,-0.0942 1.0372,-0.108 3.8714,0.0184 7.7406,-0.0092 11.6097,0.0161 0.8126,-0.0023 1.5049,0.749 1.4748,1.5463 0.0092,3.9864 0.0162,7.9729 -0.0023,11.9593 0.0115,0.88 -0.8521,1.6061 -1.725,1.505 -3.9339,-0.0023 -7.8678,0.0115 -11.8017,-0.0046 -0.822,0.0436 -1.579,-0.6847 -1.5722,-1.5004 -0.0209,-3.9152 0,-7.8304 -0.0092,-11.7456 -0.0671,-0.6962 0.3194,-1.4108 0.9887,-1.6681 z m 1.637,2.5021 c 0.0115,3.2719 -0.0115,6.5438 0.0115,9.8156 3.2834,-0.0023 6.5689,0.0046 9.8544,-0.0023 0.0024,-3.2718 0.0024,-6.5437 0.0024,-9.8156 -3.2903,-0.0046 -6.5805,-0.0046 -9.8683,0.0023 z"
     fill="url(#paint2_linear)"
     id="path48444"
     sodipodi:nodetypes="ccccccccccccccc" />
  <path
     d="m 41.0525,35.0749 c 2.6465,-0.0635 5.2979,-0.034 7.9467,-0.0159 0.4716,0.4374 1.2667,0.766 1.239,1.5072 0.0162,3.9932 0.0047,7.9912 0.007,11.9844 0.0947,0.6733 -0.5641,1.0494 -0.971,1.4777 -4.3847,0.0566 -8.7743,0.0612 -13.1613,-0.0023 -0.4231,-0.4101 -1.0034,-0.8226 -0.9802,-1.4708 -0.0091,-2.4227 -0.0047,-4.8455 -0.0023,-7.2682 -0.0047,-0.7638 0.7929,-1.4119 1.5625,-1.2306 0.6288,0.0362 1.0657,0.6526 1.0633,1.2351 0.0115,2.0557 0,4.109 0.0024,6.1645 3.2939,0 6.5853,0.0023 9.8793,-0.0021 0,-3.2206 -0.014,-6.4434 0.0068,-9.6639 -2.0341,-0.0136 -4.0682,0 -6.1023,-0.0046 -0.8759,0.0817 -1.7059,-0.8498 -1.4007,-1.686 0.1804,-0.433 0.6103,-0.6822 0.9108,-1.0245 z"
     fill="url(#paint3_linear)"
     id="path48446"
     sodipodi:nodetypes="cccccccccccccccc" />
  <path
     d="m 14.9506,35.1784 c 0.3381,-0.1423 0.7157,-0.1332 1.0746,-0.1423 3.7844,0.0091 7.5687,-0.0046 11.3531,0.0068 0.9241,-0.0872 1.8042,0.6958 1.7416,1.6258 0.007,3.9056 0.0023,7.8112 0.0023,11.7145 0.0718,0.8542 -0.6415,1.6876 -1.5216,1.6785 -4.009,0.0159 -8.0203,0.0114 -12.0293,0.0021 -0.894,0.0299 -1.6444,-0.8059 -1.5656,-1.6761 0,-3.9124 -0.007,-7.825 0.0046,-11.7374 -0.0278,-0.6222 0.3567,-1.2331 0.9403,-1.4719 z m 1.6768,2.482 c 0.0046,3.2697 -0.0023,6.5416 0.0046,9.8113 3.2888,0 6.5775,0.0021 9.8662,0 0.0162,-3.2627 -0.0255,-6.5255 0.0209,-9.7882 -3.2957,-0.0597 -6.5937,-0.0138 -9.8917,-0.0231 z"
     fill="url(#paint4_linear)"
     id="path48448"
     sodipodi:nodetypes="ccccccccccccccc" />
  <defs
     id="defs48475">
    <linearGradient
       id="paint0_linear"
       x1="32"
       y1="61"
       x2="32"
       y2="3"
       gradientUnits="userSpaceOnUse">
      <stop
         stop-color="#5570FF"
         id="stop48450" />
      <stop
         offset="1"
         stop-color="#4DD3FF"
         id="stop48452" />
    </linearGradient>
    <linearGradient
       id="paint1_linear"
       x1="21.5636"
       y1="33.0361"
       x2="21.5636"
       y2="18"
       gradientUnits="userSpaceOnUse">
      <stop
         stop-color="#FD3A84"
         id="stop48455" />
      <stop
         offset="1"
         stop-color="#FFA68D"
         id="stop48457" />
    </linearGradient>
    <linearGradient
       id="paint2_linear"
       x1="42.6907"
       y1="33.0361"
       x2="42.6907"
       y2="18"
       gradientUnits="userSpaceOnUse">
      <stop
         stop-color="#02AA93"
         id="stop48460" />
      <stop
         offset="1"
         stop-color="#67FF80"
         id="stop48462" />
    </linearGradient>
    <linearGradient
       id="paint3_linear"
       x1="42.6908"
       y1="54.0723"
       x2="42.6908"
       y2="39.0361"
       gradientUnits="userSpaceOnUse">
      <stop
         stop-color="#5570FF"
         id="stop48465" />
      <stop
         offset="1"
         stop-color="#4DD3FF"
         id="stop48467" />
    </linearGradient>
    <linearGradient
       id="paint4_linear"
       x1="21.5636"
       y1="54.0722"
       x2="21.5636"
       y2="39.0361"
       gradientUnits="userSpaceOnUse">
      <stop
         stop-color="#FDA700"
         id="stop48470" />
      <stop
         offset="1"
         stop-color="#FFDE00"
         id="stop48472" />
    </linearGradient>
  </defs>
</svg>
