<?xml version="1.0" encoding="UTF-8" standalone="no"?>
<!-- Created with Inkscape (http://www.inkscape.org/) -->

<svg
   width="16"
   height="16"
   viewBox="0 0 4.2333333 4.2333333"
   version="1.1"
   id="svg1"
   inkscape:version="1.4.2 (ebf0e940d0, 2025-05-08)"
   sodipodi:docname="object_​node.svg"
   xmlns:inkscape="http://www.inkscape.org/namespaces/inkscape"
   xmlns:sodipodi="http://sodipodi.sourceforge.net/DTD/sodipodi-0.dtd"
   xmlns:xlink="http://www.w3.org/1999/xlink"
   xmlns="http://www.w3.org/2000/svg"
   xmlns:svg="http://www.w3.org/2000/svg">
  <sodipodi:namedview
     id="namedview1"
     pagecolor="#505050"
     bordercolor="#ffffff"
     borderopacity="1"
     inkscape:showpageshadow="0"
     inkscape:pageopacity="0"
     inkscape:pagecheckerboard="1"
     inkscape:deskcolor="#d1d1d1"
     inkscape:document-units="mm"
     inkscape:zoom="53.0625"
     inkscape:cx="7.9905771"
     inkscape:cy="8"
     inkscape:current-layer="svg1" />
  <defs
     id="defs1">
    <linearGradient
       inkscape:collect="always"
       xlink:href="#linearGradient174"
       id="linearGradient54"
       gradientUnits="userSpaceOnUse"
       x1="3.5374999"
       y1="13.3472"
       x2="16.162201"
       y2="2.33196" />
    <linearGradient
       id="linearGradient174"
       x1="3.5374999"
       y1="13.3472"
       x2="16.162201"
       y2="2.33196"
       gradientUnits="userSpaceOnUse"
       inkscape:swatch="gradient"
       inkscape:label="Beautyline_yellow_gradient">
      <stop
         stop-color="#FE0844"
         id="stop172"
         style="stop-color:#fe0844;stop-opacity:1" />
      <stop
         offset="1"
         stop-color="#FEB302"
         id="stop173" />
    </linearGradient>
    <linearGradient
       inkscape:collect="always"
       xlink:href="#linearGradient10347"
       id="linearGradient57"
       gradientUnits="userSpaceOnUse"
       x1="3.5374999"
       y1="13.3472"
       x2="16.162201"
       y2="2.33196" />
    <linearGradient
       id="linearGradient10347"
       x1="3.5374999"
       y1="13.3472"
       x2="16.162201"
       y2="2.33196"
       gradientUnits="userSpaceOnUse"
       inkscape:swatch="gradient">
      <stop
         stop-color="#FE0844"
         id="stop10343"
         offset="0"
         style="stop-color:#fe0844;stop-opacity:0.40350169;" />
      <stop
         offset="1"
         stop-color="#FEB302"
         id="stop10345"
         style="stop-color:#feb302;stop-opacity:0.40000001;" />
    </linearGradient>
  </defs>
  <g
     id="g1"
     transform="matrix(0.2480468,0,0,0.2480468,-0.61185051,-0.61185081)"
     description="object_​node">
    <path
       class="ColorScheme-Text"
       transform="translate(-0.99999,-0.99999)"
       d="M 4,4.4 V 19.6 A 0.4,0.4 45 0 0 4.4,20 H 19.6 A 0.4,0.4 135 0 0 20,19.6 V 4.4 A 0.4,0.4 45 0 0 19.6,4 H 4.4 A 0.4,0.4 135 0 0 4,4.4 Z M 5.4,5 H 18.6 A 0.4,0.4 45 0 1 19,5.4 V 18.6 A 0.4,0.4 135 0 1 18.6,19 H 5.4 A 0.4,0.4 45 0 1 5,18.6 V 5.4 A 0.4,0.4 135 0 1 5.4,5 Z"
       fill="currentColor"
       id="path1"
       sodipodi:nodetypes="cccccccccc"
       inkscape:path-effect="#path-effect53"
       style="color:#fcfcfc;fill:url(#linearGradient54)" />
    <path
       d="M 3.5056345,10.977883 V 3.4726761 H 18.384216 V 18.483091 H 3.5056345 Z"
       class="ColorScheme-Text"
       fill="currentColor"
       fill-opacity="0.501961"
       id="path2"
       style="color:#fcfcfc;fill:url(#linearGradient57)" />
  </g>
</svg>
