<?xml version="1.0" encoding="UTF-8" standalone="no"?>
<!-- Created with Inkscape (http://www.inkscape.org/) -->

<svg
   width="16"
   height="16"
   viewBox="0 0 4.2333333 4.2333333"
   version="1.1"
   id="svg1"
   inkscape:version="1.4.2 (ebf0e940d0, 2025-05-08)"
   sodipodi:docname="snap-​bounding-​box-​corners.svg"
   xmlns:inkscape="http://www.inkscape.org/namespaces/inkscape"
   xmlns:sodipodi="http://sodipodi.sourceforge.net/DTD/sodipodi-0.dtd"
   xmlns:xlink="http://www.w3.org/1999/xlink"
   xmlns="http://www.w3.org/2000/svg"
   xmlns:svg="http://www.w3.org/2000/svg">
  <sodipodi:namedview
     id="namedview1"
     pagecolor="#505050"
     bordercolor="#ffffff"
     borderopacity="1"
     inkscape:showpageshadow="0"
     inkscape:pageopacity="0"
     inkscape:pagecheckerboard="1"
     inkscape:deskcolor="#d1d1d1"
     inkscape:document-units="mm"
     inkscape:zoom="53.0625"
     inkscape:cx="7.9905771"
     inkscape:cy="8"
     inkscape:current-layer="svg1" />
  <defs
     id="defs1">
    <linearGradient
       id="linearGradient174"
       x1="3.5374999"
       y1="13.3472"
       x2="16.162201"
       y2="2.33196"
       gradientUnits="userSpaceOnUse"
       inkscape:swatch="gradient"
       inkscape:label="Beautyline_yellow_gradient">
      <stop
         stop-color="#FE0844"
         id="stop172"
         style="stop-color:#fe0844;stop-opacity:1" />
      <stop
         offset="1"
         stop-color="#FEB302"
         id="stop173" />
    </linearGradient>
    <linearGradient
       id="paint0_linear_451_2933"
       x1="2.75"
       y1="10.3125"
       x2="18.371799"
       y2="8.5861902"
       gradientUnits="userSpaceOnUse"
       inkscape:label="Beautyline_purple_gradient"
       inkscape:swatch="gradient">
      <stop
         stop-color="#8D01A2"
         id="stop1" />
      <stop
         offset="1"
         stop-color="#FF00D2"
         id="stop2" />
    </linearGradient>
    <inkscape:path-effect
       effect="fillet_chamfer"
       id="path-effect300"
       is_visible="true"
       lpeversion="1"
       nodesatellites_param="F,0,0,1,0,0.4,0,1 @ F,0,0,1,0,0.4,0,1 @ F,0,0,1,0,0.4,0,1 @ F,0,0,1,0,0.4,0,1 | F,0,0,1,0,0.2,0,1 @ F,0,0,1,0,0.2,0,1 @ F,0,0,1,0,0.2,0,1 @ F,0,0,1,0,0.2,0,1"
       radius="0"
       unit="px"
       method="auto"
       mode="F"
       chamfer_steps="1"
       flexible="false"
       use_knot_distance="true"
       apply_no_radius="true"
       apply_with_radius="true"
       only_selected="false"
       hide_knots="false" />
    <linearGradient
       inkscape:collect="always"
       xlink:href="#linearGradient174"
       id="linearGradient326"
       gradientUnits="userSpaceOnUse"
       x1="3.5374999"
       y1="13.3472"
       x2="16.162201"
       y2="2.33196" />
    <linearGradient
       inkscape:collect="always"
       xlink:href="#paint0_linear_451_2933"
       id="linearGradient1"
       gradientUnits="userSpaceOnUse"
       x1="2.75"
       y1="10.3125"
       x2="18.371799"
       y2="8.5861902" />
  </defs>
  <g
     id="g1"
     description="snap-​bounding-​box-​corners"
     transform="matrix(0.24804687,0,0,0.24804687,-0.61184993,-0.61184903)">
    <path
       id="path1"
       style="color:#fcfcfc;fill:url(#linearGradient326)"
       d="M 3.40039,3 C 3.17917,2.999784 2.99978,3.179171 3,3.400391 V 5.599609 C 2.99978,5.820829 3.17917,6.000216 3.40039,6 H 4 V 6.599609 C 3.99978,6.820829 4.17917,7.000216 4.40039,7 H 4.59961 C 4.82083,7.000216 5.00022,6.820829 5,6.599609 V 6 H 5.59961 C 5.82083,6.000216 6.00022,5.820829 6,5.599609 V 5 H 6.59961 C 6.82083,5.000216 7.00022,4.820829 7,4.599609 V 4.400391 C 7.00022,4.179171 6.82083,3.999784 6.59961,4 H 6 V 3.400391 C 6.00022,3.179171 5.82083,2.999784 5.59961,3 Z M 4.19922,4 H 4.80078 C 4.91063,4.000428 4.99957,4.08937 5,4.199219 V 4.800781 C 4.99957,4.910629 4.9106,4.999572 4.80078,5 H 4.19922 C 4.08937,4.999572 4.00043,4.910629 4,4.800781 V 4.199219 C 4.00043,4.089371 4.0894,4.000428 4.19922,4 Z m 5.20117,13 h 3.19922 c 0.22122,-2.16e-4 0.40061,0.179171 0.40039,0.400391 v 0.199218 C 13.00022,17.820829 12.82083,18.000216 12.59961,18 H 9.40039 C 9.17917,18.000216 8.99978,17.820829 9,17.599609 V 17.400391 C 8.99978,17.179171 9.17917,16.999784 9.40039,17 Z m 0,0 C 9.17917,16.999784 8.99978,17.179171 9,17.400391 v 0.199218 C 8.99978,17.820829 9.17917,18.000216 9.40039,18 h 3.19922 C 12.82083,18.000216 13.00022,17.820829 13,17.599609 V 17.400391 C 13.00022,17.179171 12.82083,16.999784 12.59961,17 Z m 7,-14 C 16.17917,2.999784 15.99978,3.179171 16,3.400391 V 4 H 15.40039 C 15.17917,3.999784 14.99978,4.179171 15,4.400391 V 4.599609 C 14.99978,4.820829 15.17917,5.000216 15.40039,5 H 16 V 5.599609 C 15.99978,5.820829 16.17917,6.000216 16.40039,6 H 17 V 6.599609 C 16.99978,6.820829 17.17917,7.000216 17.40039,7 h 0.19922 C 17.82083,7.000216 18.00022,6.820829 18,6.599609 V 6 h 0.59961 C 18.82083,6.000216 19.00022,5.820829 19,5.599609 V 3.400391 C 19.00022,3.179171 18.82083,2.999784 18.59961,3 Z M 17,4 h 1 v 1 h -1 z m 0.40039,5 C 17.17917,8.999784 16.99978,9.179171 17,9.400391 v 3.199218 C 16.99978,12.820828 17.17917,13.000216 17.40039,13 h 0.19922 C 17.82083,13.000216 18.00022,12.820828 18,12.599609 V 9.400391 C 18.00022,9.179171 17.82083,8.999784 17.59961,9 Z m -13,6 C 4.17917,14.999784 3.99978,15.179172 4,15.400391 V 16 H 3.40039 C 3.17917,15.999784 2.99978,16.179172 3,16.400391 v 2.199218 C 2.99978,18.820828 3.17917,19.000216 3.40039,19 H 5.59961 C 5.82083,19.000216 6.00022,18.820828 6,18.599609 V 18 H 6.59961 C 6.82083,18.000216 7.00022,17.820828 7,17.599609 V 17.400391 C 7.00022,17.179172 6.82083,16.999784 6.59961,17 H 6 V 16.400391 C 6.00022,16.179172 5.82083,15.999784 5.59961,16 H 5 V 15.400391 C 5.00022,15.179172 4.82083,14.999784 4.59961,15 Z M 4.19922,17 H 4.80078 C 4.91063,17.000428 4.99957,17.08937 5,17.199219 v 0.601562 C 4.99957,17.910629 4.9106,17.999572 4.80078,18 H 4.19922 C 4.08937,17.999572 4.00043,17.910629 4,17.800781 V 17.199219 C 4.00043,17.089371 4.0894,17.000428 4.19922,17 Z M 4.40039,9 C 4.17917,8.999784 3.99978,9.179171 4,9.400391 v 3.199218 C 3.99978,12.820828 4.17917,13.000216 4.40039,13 H 4.59961 C 4.82083,13.000216 5.00022,12.820828 5,12.599609 V 9.400391 C 5.00022,9.179171 4.82083,8.999784 4.59961,9 Z m 5,8 C 9.17917,16.999784 8.99978,17.179171 9,17.400391 v 0.199218 C 8.99978,17.820829 9.17917,18.000216 9.40039,18 h 3.19922 C 12.82083,18.000216 13.00022,17.820829 13,17.599609 V 17.400391 C 13.00022,17.179171 12.82083,16.999784 12.59961,17 Z m -6,-14 C 3.179171,2.9997842 2.9997837,3.179172 3,3.400391 V 5.599609 C 2.9997837,5.820828 3.179171,6.0002158 3.40039,6 H 4 V 6.599609 C 3.9997837,6.820828 4.179171,7.0002158 4.40039,7 H 4.59961 C 4.820829,7.0002158 5.0002163,6.820828 5,6.599609 V 6 H 5.59961 C 5.820829,6.0002158 6.0002163,5.820828 6,5.599609 V 5 H 6.59961 C 6.820829,5.0002158 7.0002163,4.820828 7,4.599609 V 4.400391 C 7.0002163,4.179172 6.820829,3.9997842 6.59961,4 H 6 V 3.400391 C 6.0002163,3.179172 5.820829,2.9997842 5.59961,3 Z M 4.19922,4 H 4.80078 C 4.9106282,4.0004276 4.9995719,4.0893708 5,4.199219 V 4.800781 C 4.9995719,4.9106292 4.9106282,4.9995724 4.80078,5 H 4.19922 C 4.0893718,4.9995724 4.0004281,4.9106292 4,4.800781 V 4.199219 C 4.0004281,4.0893708 4.0893718,4.0004276 4.19922,4 Z m 5.20117,0 h 3.19922 C 12.820829,3.9997842 13.000216,4.179172 13,4.400391 V 4.599609 C 13.000216,4.820828 12.820829,5.0002158 12.59961,5 H 9.40039 C 9.179171,5.0002158 8.9997837,4.820828 9,4.599609 V 4.400391 C 8.9997837,4.179172 9.179171,3.9997842 9.40039,4 Z m 0,0 C 9.179171,3.9997842 8.9997837,4.179172 9,4.400391 V 4.599609 C 8.9997837,4.820828 9.179171,5.0002158 9.40039,5 h 3.19922 C 12.820829,5.0002158 13.000216,4.820828 13,4.599609 V 4.400391 C 13.000216,4.179172 12.820829,3.9997842 12.59961,4 Z m 7,-1 C 16.179171,2.9997842 15.999784,3.179172 16,3.400391 V 4 H 15.40039 C 15.179171,3.9997842 14.999784,4.179172 15,4.400391 V 4.599609 C 14.999784,4.820828 15.179171,5.0002158 15.40039,5 H 16 V 5.599609 C 15.999784,5.820828 16.179171,6.0002158 16.40039,6 H 17 V 6.599609 C 16.999784,6.820828 17.179171,7.0002158 17.40039,7 h 0.19922 C 17.820829,7.0002158 18.000216,6.820828 18,6.599609 V 6 h 0.59961 C 18.820829,6.0002158 19.000216,5.820828 19,5.599609 V 3.400391 C 19.000216,3.179172 18.820829,2.9997842 18.59961,3 Z M 17,4 h 1 v 1 h -1 z m 0.40039,5 C 17.179171,8.9997842 16.999784,9.179172 17,9.400391 v 3.199218 C 16.999784,12.820828 17.179171,13.000216 17.40039,13 h 0.19922 C 17.820829,13.000216 18.000216,12.820828 18,12.599609 V 9.400391 C 18.000216,9.179172 17.820829,8.9997842 17.59961,9 Z m -13,6 C 4.179171,14.999784 3.9997837,15.179172 4,15.400391 V 16 H 3.40039 C 3.179171,15.999784 2.9997837,16.179172 3,16.400391 v 2.199218 C 2.9997837,18.820828 3.179171,19.000216 3.40039,19 H 5.59961 C 5.820829,19.000216 6.0002163,18.820828 6,18.599609 V 18 H 6.59961 C 6.820829,18.000216 7.0002163,17.820828 7,17.599609 V 17.400391 C 7.0002163,17.179172 6.820829,16.999784 6.59961,17 H 6 V 16.400391 C 6.0002163,16.179172 5.820829,15.999784 5.59961,16 H 5 V 15.400391 C 5.0002163,15.179172 4.820829,14.999784 4.59961,15 Z M 4.19922,17 H 4.80078 C 4.9106282,17.000428 4.9995719,17.089371 5,17.199219 v 0.601562 C 4.9995719,17.910629 4.9106282,17.999572 4.80078,18 H 4.19922 C 4.0893718,17.999572 4.0004281,17.910629 4,17.800781 V 17.199219 C 4.0004281,17.089371 4.0893718,17.000428 4.19922,17 Z M 4.40039,9 C 4.179171,8.9997842 3.9997837,9.179172 4,9.400391 v 3.199218 C 3.9997837,12.820828 4.179171,13.000216 4.40039,13 H 4.59961 C 4.820829,13.000216 5.0002163,12.820828 5,12.599609 V 9.400391 C 5.0002163,9.179172 4.820829,8.9997842 4.59961,9 Z m 5,-5 C 9.179171,3.9997842 8.9997837,4.179172 9,4.400391 V 4.599609 C 8.9997837,4.820828 9.179171,5.0002158 9.40039,5 h 3.19922 C 12.820829,5.0002158 13.000216,4.820828 13,4.599609 V 4.400391 C 13.000216,4.179172 12.820829,3.9997842 12.59961,4 Z"
       sodipodi:nodetypes="cccccccccccccccccccccccccccccccccccccccccccccccccccccccccccccccccccccccccccccccccccccccccccccccccccccccccccccccccccccccccccccccccccccccccccccccccccccccccccccccccccccccccccccccccccccccccccccccccccccccccccccccccccccccccccccccccccccccccccccccccccccccccccccccccccccc" />
    <path
       d="M 15.40039,15 C 15.179171,14.999784 14.999784,15.179172 15,15.400391 v 3.199218 C 14.999784,18.820828 15.179171,19.000216 15.40039,19 h 3.199218 c 0.221219,2.16e-4 0.400607,-0.179172 0.400391,-0.400391 V 15.400391 C 19.000215,15.179172 18.820827,14.999784 18.599608,15 Z m 0.798829,1 h 1.601561 c 0.109848,4.28e-4 0.198791,0.08937 0.199219,0.199219 v 1.601562 C 17.999571,17.910629 17.910628,17.999572 17.80078,18 H 16.199219 C 16.089371,17.999572 16.000428,17.910629 16,17.800781 V 16.199219 C 16.000428,16.089371 16.089371,16.000428 16.199219,16 Z"
       style="color:#3daee9;fill:url(#linearGradient1)"
       id="path2"
       sodipodi:nodetypes="cccccccccccccccccc" />
  </g>
</svg>
