<?xml version="1.0" encoding="UTF-8" standalone="no"?>
<!-- Created with Inkscape (http://www.inkscape.org/) -->

<svg
   width="16"
   height="16"
   viewBox="0 0 4.2333333 4.2333333"
   version="1.1"
   id="svg1"
   inkscape:version="1.4.2 (ebf0e940d0, 2025-05-08)"
   sodipodi:docname="snap-​angle.svg"
   xmlns:inkscape="http://www.inkscape.org/namespaces/inkscape"
   xmlns:sodipodi="http://sodipodi.sourceforge.net/DTD/sodipodi-0.dtd"
   xmlns:xlink="http://www.w3.org/1999/xlink"
   xmlns="http://www.w3.org/2000/svg"
   xmlns:svg="http://www.w3.org/2000/svg">
  <sodipodi:namedview
     id="namedview1"
     pagecolor="#505050"
     bordercolor="#ffffff"
     borderopacity="1"
     inkscape:showpageshadow="0"
     inkscape:pageopacity="0"
     inkscape:pagecheckerboard="1"
     inkscape:deskcolor="#d1d1d1"
     inkscape:document-units="mm"
     inkscape:zoom="53.0625"
     inkscape:cx="7.9905771"
     inkscape:cy="8"
     inkscape:current-layer="svg1" />
  <defs
     id="defs1">
    <linearGradient
       id="linearGradient174"
       x1="3.5374999"
       y1="13.3472"
       x2="16.162201"
       y2="2.33196"
       gradientUnits="userSpaceOnUse"
       inkscape:swatch="gradient"
       inkscape:label="Beautyline_yellow_gradient">
      <stop
         stop-color="#FE0844"
         id="stop172"
         style="stop-color:#fe0844;stop-opacity:1" />
      <stop
         offset="1"
         stop-color="#FEB302"
         id="stop173" />
    </linearGradient>
    <linearGradient
       id="paint0_linear_451_2933"
       x1="2.75"
       y1="10.3125"
       x2="18.371799"
       y2="8.5861902"
       gradientUnits="userSpaceOnUse"
       inkscape:label="Beautyline_purple_gradient"
       inkscape:swatch="gradient">
      <stop
         stop-color="#8D01A2"
         id="stop1" />
      <stop
         offset="1"
         stop-color="#FF00D2"
         id="stop2" />
    </linearGradient>
    <inkscape:path-effect
       effect="fillet_chamfer"
       id="path-effect300"
       is_visible="true"
       lpeversion="1"
       nodesatellites_param="F,0,0,1,0,0.4,0,1 @ F,0,0,1,0,0.4,0,1 @ F,0,0,1,0,0.4,0,1 @ F,0,0,1,0,0.4,0,1 | F,0,0,1,0,0.2,0,1 @ F,0,0,1,0,0.2,0,1 @ F,0,0,1,0,0.2,0,1 @ F,0,0,1,0,0.2,0,1"
       radius="0"
       unit="px"
       method="auto"
       mode="F"
       chamfer_steps="1"
       flexible="false"
       use_knot_distance="true"
       apply_no_radius="true"
       apply_with_radius="true"
       only_selected="false"
       hide_knots="false" />
    <linearGradient
       inkscape:collect="always"
       xlink:href="#paint0_linear_451_2933"
       id="linearGradient5"
       gradientUnits="userSpaceOnUse"
       x1="2.75"
       y1="10.3125"
       x2="18.371799"
       y2="8.5861902" />
    <linearGradient
       inkscape:collect="always"
       xlink:href="#linearGradient174"
       id="linearGradient6"
       gradientUnits="userSpaceOnUse"
       x1="3.5374999"
       y1="13.3472"
       x2="16.162201"
       y2="2.33196" />
    <linearGradient
       inkscape:collect="always"
       xlink:href="#paint0_linear_451_2933"
       id="linearGradient2"
       gradientUnits="userSpaceOnUse"
       x1="2.75"
       y1="10.3125"
       x2="18.371799"
       y2="8.5861902" />
  </defs>
  <g
     id="g1"
     description="snap-​angle"
     transform="matrix(0.20888157,0,0,0.20888157,-0.07658982,-0.28968717)">
    <path
       d="m 15.140625,6.5488281 -0.707031,0.7070313 c 2.249873,2.2499978 3.554819,5.2690726 3.65625,8.4394536 0.0071,0.220792 0.185336,0.40039 0.40625,0.40039 h 0.199218 c 0.220914,0 0.401075,-0.179582 0.394532,-0.40039 -0.101796,-3.4354 -1.512034,-6.7092132 -3.949219,-9.1464849 z"
       style="color:#3daee9;fill:url(#linearGradient2)"
       id="path1" />
    <path
       id="path2"
       style="color:#fcfcfc;fill:url(#linearGradient6)"
       d="M 17,3.4589844 A 0.39999151,0.39999151 0 0 0 16.716797,3.5761719 L 6.2929687,14 7,14.707031 17.423828,4.2832031 a 0.40000849,0.40000849 0 0 0 0,-0.5664062 L 17.283203,3.5761719 A 0.39999151,0.39999151 0 0 0 17,3.4589844 Z M 9.4003906,16 A 0.4,0.4 0 0 0 9,16.400391 v 0.199218 A 0.4,0.4 0 0 0 9.4003906,17 H 10.599609 A 0.4,0.4 0 0 0 11,16.599609 V 16.400391 A 0.4,0.4 0 0 0 10.599609,16 Z M 7,16 v 1 H 7.5996094 A 0.4,0.4 0 0 0 8,16.599609 V 16.400391 A 0.4,0.4 0 0 0 7.5996094,16 Z M 1.4003906,16 A 0.4,0.4 0 0 0 1,16.400391 v 0.199218 A 0.4,0.4 0 0 0 1.4003906,17 H 2 V 16 Z M 12.400391,16 A 0.4,0.4 0 0 0 12,16.400391 v 0.199218 A 0.4,0.4 0 0 0 12.400391,17 h 1.199218 A 0.4,0.4 0 0 0 14,16.599609 V 16.400391 A 0.4,0.4 0 0 0 13.599609,16 Z m 3,0 A 0.4,0.4 0 0 0 15,16.400391 v 0.199218 A 0.4,0.4 0 0 0 15.400391,17 h 1.199218 A 0.4,0.4 0 0 0 17,16.599609 V 16.400391 A 0.4,0.4 0 0 0 16.599609,16 Z m 3,0 A 0.4,0.4 0 0 0 18,16.400391 v 0.199218 A 0.4,0.4 0 0 0 18.400391,17 h 1.199218 A 0.4,0.4 0 0 0 20,16.599609 V 16.400391 A 0.4,0.4 0 0 0 19.599609,16 Z" />
    <path
       d="M 2.4003906,14 A 0.4,0.4 0 0 0 2,14.400391 v 4.199218 A 0.4,0.4 0 0 0 2.4003906,19 H 6.5996094 A 0.4,0.4 0 0 0 7,18.599609 V 14.400391 A 0.4,0.4 0 0 0 6.5996094,14 Z m 0.7988282,1 H 5.8007812 A 0.2,0.2 0 0 1 6,15.199219 v 2.601562 A 0.2,0.2 0 0 1 5.8007812,18 H 3.1992188 A 0.2,0.2 0 0 1 3,17.800781 V 15.199219 A 0.2,0.2 0 0 1 3.1992188,15 Z"
       style="color:#3daee9;fill:url(#linearGradient5)"
       id="path3" />
  </g>
</svg>
