<?xml version="1.0" encoding="UTF-8" standalone="no"?>
<!-- Created with Inkscape (http://www.inkscape.org/) -->

<svg
   width="16"
   height="16"
   viewBox="0 0 4.2333333 4.2333333"
   version="1.1"
   id="svg1"
   inkscape:version="1.4.2 (ebf0e940d0, 2025-05-08)"
   sodipodi:docname="snap-​extension.svg"
   xmlns:inkscape="http://www.inkscape.org/namespaces/inkscape"
   xmlns:sodipodi="http://sodipodi.sourceforge.net/DTD/sodipodi-0.dtd"
   xmlns:xlink="http://www.w3.org/1999/xlink"
   xmlns="http://www.w3.org/2000/svg"
   xmlns:svg="http://www.w3.org/2000/svg">
  <sodipodi:namedview
     id="namedview1"
     pagecolor="#505050"
     bordercolor="#ffffff"
     borderopacity="1"
     inkscape:showpageshadow="0"
     inkscape:pageopacity="0"
     inkscape:pagecheckerboard="1"
     inkscape:deskcolor="#d1d1d1"
     inkscape:document-units="mm"
     inkscape:zoom="53.0625"
     inkscape:cx="7.9905771"
     inkscape:cy="8"
     inkscape:current-layer="svg1" />
  <defs
     id="defs1">
    <linearGradient
       id="linearGradient174"
       x1="3.5374999"
       y1="13.3472"
       x2="16.162201"
       y2="2.33196"
       gradientUnits="userSpaceOnUse"
       inkscape:swatch="gradient"
       inkscape:label="Beautyline_yellow_gradient">
      <stop
         stop-color="#FE0844"
         id="stop172"
         style="stop-color:#fe0844;stop-opacity:1" />
      <stop
         offset="1"
         stop-color="#FEB302"
         id="stop173" />
    </linearGradient>
    <linearGradient
       id="paint0_linear_451_2933"
       x1="2.75"
       y1="10.3125"
       x2="18.371799"
       y2="8.5861902"
       gradientUnits="userSpaceOnUse"
       inkscape:label="Beautyline_purple_gradient"
       inkscape:swatch="gradient">
      <stop
         stop-color="#8D01A2"
         id="stop1" />
      <stop
         offset="1"
         stop-color="#FF00D2"
         id="stop2" />
    </linearGradient>
    <inkscape:path-effect
       effect="fillet_chamfer"
       id="path-effect300"
       is_visible="true"
       lpeversion="1"
       nodesatellites_param="F,0,0,1,0,0.4,0,1 @ F,0,0,1,0,0.4,0,1 @ F,0,0,1,0,0.4,0,1 @ F,0,0,1,0,0.4,0,1 | F,0,0,1,0,0.2,0,1 @ F,0,0,1,0,0.2,0,1 @ F,0,0,1,0,0.2,0,1 @ F,0,0,1,0,0.2,0,1"
       radius="0"
       unit="px"
       method="auto"
       mode="F"
       chamfer_steps="1"
       flexible="false"
       use_knot_distance="true"
       apply_no_radius="true"
       apply_with_radius="true"
       only_selected="false"
       hide_knots="false" />
    <linearGradient
       inkscape:collect="always"
       xlink:href="#linearGradient174"
       id="linearGradient341"
       gradientUnits="userSpaceOnUse"
       gradientTransform="translate(240,80)"
       x1="3.5374999"
       y1="13.3472"
       x2="16.162201"
       y2="2.33196" />
    <linearGradient
       inkscape:collect="always"
       xlink:href="#paint0_linear_451_2933"
       id="linearGradient342"
       gradientUnits="userSpaceOnUse"
       gradientTransform="translate(240,80)"
       x1="2.75"
       y1="10.3125"
       x2="18.371799"
       y2="8.5861902" />
  </defs>
  <g
     id="g1"
     transform="matrix(0.24804687,0,0,0.24804687,-60.143098,-20.455599)"
     description="snap-​extension">
    <path
       id="path1"
       style="color:#fcfcfc;fill:url(#linearGradient341)"
       d="m 244,93 v 5.59961 c -2.2e-4,0.22122 0.17917,0.40061 0.40039,0.40039 h 0.19922 c 0.22122,2.2e-4 0.40061,-0.17917 0.40039,-0.40039 L 245,93 Z m 1,-3 V 83.400391 C 245.00022,83.179172 244.82083,82.999784 244.59961,83 h -0.19922 C 244.17917,82.999784 243.99978,83.179172 244,83.400391 V 90 Z m 9,2 h 4.59961 c 0.22122,2.16e-4 0.40061,-0.179172 0.40039,-0.400391 V 91.400391 C 259.00022,91.179172 258.82083,90.999784 258.59961,91 H 254 Z m -7,-0.6 v 0.2 c 0,0.220914 0.17909,0.4 0.4,0.4 h 0.2 c 0.22091,0 0.4,-0.179086 0.4,-0.4 v -0.2 c 0,-0.220914 -0.17909,-0.4 -0.4,-0.4 h -0.2 c -0.22091,0 -0.4,0.179086 -0.4,0.4 z m 2,0 v 0.2 c 0,0.220914 0.17909,0.4 0.4,0.4 h 0.2 c 0.22091,0 0.4,-0.179086 0.4,-0.4 v -0.2 c 0,-0.220914 -0.17909,-0.4 -0.4,-0.4 h -0.2 c -0.22091,0 -0.4,0.179086 -0.4,0.4 z" />
    <path
       id="path2"
       style="color:#fcfcfc;fill:url(#linearGradient342)"
       d="m 251.40039,90 c -0.22122,-2.16e-4 -0.40061,0.179172 -0.40039,0.400391 v 2.199218 c -2.2e-4,0.221219 0.17917,0.400607 0.40039,0.400391 h 2.19922 c 0.22122,2.16e-4 0.40061,-0.179172 0.40039,-0.400391 V 90.400391 C 254.00022,90.179172 253.82083,89.999784 253.59961,90 Z m 0.79883,1 h 0.60156 c 0.10985,4.28e-4 0.19879,0.08937 0.19922,0.199219 v 0.601562 c -4.3e-4,0.109848 -0.0894,0.198791 -0.19922,0.199219 h -0.60156 C 252.08937,91.999572 252.00043,91.910629 252,91.800781 v -0.601562 c 4.3e-4,-0.109848 0.0894,-0.198791 0.19922,-0.199219 z m -0.79883,-1 c -0.22122,-2.16e-4 -0.40061,0.179172 -0.40039,0.400391 v 2.199218 c -2.2e-4,0.221219 0.17917,0.400607 0.40039,0.400391 h 2.19922 c 0.22122,2.16e-4 0.40061,-0.179172 0.40039,-0.400391 V 90.400391 C 254.00022,90.179172 253.82083,89.999784 253.59961,90 Z m 0.79883,1 h 0.60156 c 0.10985,4.28e-4 0.19879,0.08937 0.19922,0.199219 v 0.601562 c -4.3e-4,0.109848 -0.0894,0.198791 -0.19922,0.199219 h -0.60156 C 252.08937,91.999572 252.00043,91.910629 252,91.800781 v -0.601562 c 4.3e-4,-0.109848 0.0894,-0.198791 0.19922,-0.199219 z m -8.79883,-1 c -0.22122,-2.16e-4 -0.40061,0.179172 -0.40039,0.400391 v 2.199218 c -2.2e-4,0.221219 0.17917,0.400607 0.40039,0.400391 h 2.19922 c 0.22122,2.16e-4 0.40061,-0.179172 0.40039,-0.400391 V 90.400391 C 246.00022,90.179172 245.82083,89.999784 245.59961,90 Z m 0.79883,1 h 0.60156 c 0.10985,4.28e-4 0.19879,0.08937 0.19922,0.199219 v 0.601562 c -4.3e-4,0.109848 -0.0894,0.198791 -0.19922,0.199219 h -0.60156 C 244.08937,91.999572 244.00043,91.910629 244,91.800781 v -0.601562 c 4.3e-4,-0.109848 0.0894,-0.198791 0.19922,-0.199219 z m -0.79883,-1 c -0.22122,-2.16e-4 -0.40061,0.179172 -0.40039,0.400391 v 2.199218 c -2.2e-4,0.221219 0.17917,0.400607 0.40039,0.400391 h 2.19922 c 0.22122,2.16e-4 0.40061,-0.179172 0.40039,-0.400391 V 90.400391 C 246.00022,90.179172 245.82083,89.999784 245.59961,90 Z m 0.79883,1 h 0.60156 c 0.10985,4.28e-4 0.19879,0.08937 0.19922,0.199219 v 0.601562 c -4.3e-4,0.109848 -0.0894,0.198791 -0.19922,0.199219 h -0.60156 C 244.08937,91.999572 244.00043,91.910629 244,91.800781 v -0.601562 c 4.3e-4,-0.109848 0.0894,-0.198791 0.19922,-0.199219 z" />
  </g>
</svg>
