<?xml version="1.0" encoding="UTF-8" standalone="no"?>
<!-- Created with Inkscape (http://www.inkscape.org/) -->

<svg
   width="16"
   height="16"
   viewBox="0 0 4.2333333 4.2333333"
   version="1.1"
   id="svg1"
   inkscape:version="1.4.2 (ebf0e940d0, 2025-05-08)"
   sodipodi:docname="snap-​bounding-​box-​center.svg"
   xmlns:inkscape="http://www.inkscape.org/namespaces/inkscape"
   xmlns:sodipodi="http://sodipodi.sourceforge.net/DTD/sodipodi-0.dtd"
   xmlns:xlink="http://www.w3.org/1999/xlink"
   xmlns="http://www.w3.org/2000/svg"
   xmlns:svg="http://www.w3.org/2000/svg">
  <sodipodi:namedview
     id="namedview1"
     pagecolor="#505050"
     bordercolor="#ffffff"
     borderopacity="1"
     inkscape:showpageshadow="0"
     inkscape:pageopacity="0"
     inkscape:pagecheckerboard="1"
     inkscape:deskcolor="#d1d1d1"
     inkscape:document-units="mm"
     inkscape:zoom="53.0625"
     inkscape:cx="7.9905771"
     inkscape:cy="8"
     inkscape:current-layer="svg1" />
  <defs
     id="defs1">
    <linearGradient
       id="linearGradient174"
       x1="3.5374999"
       y1="13.3472"
       x2="16.162201"
       y2="2.33196"
       gradientUnits="userSpaceOnUse"
       inkscape:swatch="gradient"
       inkscape:label="Beautyline_yellow_gradient">
      <stop
         stop-color="#FE0844"
         id="stop172"
         style="stop-color:#fe0844;stop-opacity:1" />
      <stop
         offset="1"
         stop-color="#FEB302"
         id="stop173" />
    </linearGradient>
    <linearGradient
       id="paint0_linear_451_2933"
       x1="2.75"
       y1="10.3125"
       x2="18.371799"
       y2="8.5861902"
       gradientUnits="userSpaceOnUse"
       inkscape:label="Beautyline_purple_gradient"
       inkscape:swatch="gradient">
      <stop
         stop-color="#8D01A2"
         id="stop1" />
      <stop
         offset="1"
         stop-color="#FF00D2"
         id="stop2" />
    </linearGradient>
    <inkscape:path-effect
       effect="fillet_chamfer"
       id="path-effect300"
       is_visible="true"
       lpeversion="1"
       nodesatellites_param="F,0,0,1,0,0.4,0,1 @ F,0,0,1,0,0.4,0,1 @ F,0,0,1,0,0.4,0,1 @ F,0,0,1,0,0.4,0,1 | F,0,0,1,0,0.2,0,1 @ F,0,0,1,0,0.2,0,1 @ F,0,0,1,0,0.2,0,1 @ F,0,0,1,0,0.2,0,1"
       radius="0"
       unit="px"
       method="auto"
       mode="F"
       chamfer_steps="1"
       flexible="false"
       use_knot_distance="true"
       apply_no_radius="true"
       apply_with_radius="true"
       only_selected="false"
       hide_knots="false" />
    <linearGradient
       inkscape:collect="always"
       xlink:href="#linearGradient174"
       id="linearGradient322"
       gradientUnits="userSpaceOnUse"
       x1="3.5374999"
       y1="13.3472"
       x2="16.162201"
       y2="2.33196"
       gradientTransform="translate(180,20)" />
    <linearGradient
       inkscape:collect="always"
       xlink:href="#paint0_linear_451_2933"
       id="linearGradient325"
       gradientUnits="userSpaceOnUse"
       gradientTransform="translate(180,13)"
       x1="2.75"
       y1="10.3125"
       x2="18.371799"
       y2="8.5861902" />
  </defs>
  <g
     id="g1"
     transform="matrix(0.24804687,0,0,0.24804687,-45.260286,-5.5727864)"
     description="snap-​bounding-​box-​center">
    <path
       id="path1"
       style="color:#fcfcfc;fill:url(#linearGradient322)"
       d="m 183.40039,23 c -0.22122,-2.16e-4 -0.40061,0.179171 -0.40039,0.400391 v 2.199218 c -2.2e-4,0.22122 0.17917,0.400607 0.40039,0.400391 H 184 v 0.599609 c -2.2e-4,0.22122 0.17917,0.400607 0.40039,0.400391 h 0.19922 c 0.22122,2.16e-4 0.40061,-0.179171 0.40039,-0.400391 V 26 h 0.59961 c 0.22122,2.16e-4 0.40061,-0.179171 0.40039,-0.400391 V 25 h 0.59961 c 0.22122,2.16e-4 0.40061,-0.179171 0.40039,-0.400391 V 24.400391 C 187.00022,24.179171 186.82083,23.999784 186.59961,24 H 186 V 23.400391 C 186.00022,23.179171 185.82083,22.999784 185.59961,23 Z m 0.79883,1 h 0.60156 c 0.10985,4.28e-4 0.19879,0.08937 0.19922,0.199219 v 0.601562 c -4.3e-4,0.109848 -0.0894,0.198791 -0.19922,0.199219 h -0.60156 C 184.08937,24.999572 184.00043,24.910629 184,24.800781 v -0.601562 c 4.3e-4,-0.109848 0.0894,-0.198791 0.19922,-0.199219 z m 5.20117,13 h 3.19922 c 0.22122,-2.16e-4 0.40061,0.179171 0.40039,0.400391 v 0.199218 c 2.2e-4,0.22122 -0.17917,0.400607 -0.40039,0.400391 h -3.19922 C 189.17917,38.000216 188.99978,37.820829 189,37.599609 v -0.199218 c -2.2e-4,-0.22122 0.17917,-0.400607 0.40039,-0.400391 z m 0,0 c -0.22122,-2.16e-4 -0.40061,0.179171 -0.40039,0.400391 v 0.199218 c -2.2e-4,0.22122 0.17917,0.400607 0.40039,0.400391 h 3.19922 c 0.22122,2.16e-4 0.40061,-0.179171 0.40039,-0.400391 V 37.400391 C 193.00022,37.179171 192.82083,36.999784 192.59961,37 Z m 7,-14 C 196.17917,22.999784 195.99978,23.179171 196,23.400391 V 24 h -0.59961 c -0.22122,-2.16e-4 -0.40061,0.179171 -0.40039,0.400391 v 0.199218 c -2.2e-4,0.22122 0.17917,0.400607 0.40039,0.400391 H 196 v 0.599609 c -2.2e-4,0.22122 0.17917,0.400607 0.40039,0.400391 H 197 v 0.599609 c -2.2e-4,0.22122 0.17917,0.400607 0.40039,0.400391 h 0.19922 c 0.22122,2.16e-4 0.40061,-0.179171 0.40039,-0.400391 V 26 h 0.59961 c 0.22122,2.16e-4 0.40061,-0.179171 0.40039,-0.400391 V 23.400391 C 199.00022,23.179171 198.82083,22.999784 198.59961,23 Z M 197,24 h 1 v 1 h -1 z m 0.40039,5 c -0.22122,-2.16e-4 -0.40061,0.179171 -0.40039,0.400391 v 3.199218 c -2.2e-4,0.221219 0.17917,0.400607 0.40039,0.400391 h 0.19922 c 0.22122,2.16e-4 0.40061,-0.179172 0.40039,-0.400391 V 29.400391 C 198.00022,29.179171 197.82083,28.999784 197.59961,29 Z m 0,6 C 197.17917,34.999784 196.99978,35.179172 197,35.400391 V 36 h -0.59961 C 196.17917,35.999784 195.99978,36.179172 196,36.400391 V 37 h -0.59961 c -0.22122,-2.16e-4 -0.40061,0.179172 -0.40039,0.400391 v 0.199218 c -2.2e-4,0.221219 0.17917,0.400607 0.40039,0.400391 H 196 v 0.599609 c -2.2e-4,0.221219 0.17917,0.400607 0.40039,0.400391 h 2.19922 c 0.22122,2.16e-4 0.40061,-0.179172 0.40039,-0.400391 V 36.400391 C 199.00022,36.179172 198.82083,35.999784 198.59961,36 H 198 V 35.400391 C 198.00022,35.179172 197.82083,34.999784 197.59961,35 Z m -0.20117,2 h 0.60156 c 0.10985,4.28e-4 0.19879,0.08937 0.19922,0.199219 v 0.601562 c -4.3e-4,0.109848 -0.0894,0.198791 -0.19922,0.199219 h -0.60156 C 197.08937,37.999572 197.00043,37.910629 197,37.800781 V 37.199219 C 197.00043,37.089371 197.0894,37.000428 197.19922,37 Z M 184.40039,35 C 184.17917,34.999784 183.99978,35.179172 184,35.400391 V 36 h -0.59961 c -0.22122,-2.16e-4 -0.40061,0.179172 -0.40039,0.400391 v 2.199218 c -2.2e-4,0.221219 0.17917,0.400607 0.40039,0.400391 h 2.19922 c 0.22122,2.16e-4 0.40061,-0.179172 0.40039,-0.400391 V 38 h 0.59961 c 0.22122,2.16e-4 0.40061,-0.179172 0.40039,-0.400391 V 37.400391 C 187.00022,37.179172 186.82083,36.999784 186.59961,37 H 186 V 36.400391 C 186.00022,36.179172 185.82083,35.999784 185.59961,36 H 185 V 35.400391 C 185.00022,35.179172 184.82083,34.999784 184.59961,35 Z m -0.20117,2 h 0.60156 c 0.10985,4.28e-4 0.19879,0.08937 0.19922,0.199219 v 0.601562 c -4.3e-4,0.109848 -0.0894,0.198791 -0.19922,0.199219 h -0.60156 C 184.08937,37.999572 184.00043,37.910629 184,37.800781 v -0.601562 c 4.3e-4,-0.109848 0.0894,-0.198791 0.19922,-0.199219 z m 0.20117,-8 c -0.22122,-2.16e-4 -0.40061,0.179171 -0.40039,0.400391 v 3.199218 c -2.2e-4,0.221219 0.17917,0.400607 0.40039,0.400391 h 0.19922 c 0.22122,2.16e-4 0.40061,-0.179172 0.40039,-0.400391 V 29.400391 C 185.00022,29.179171 184.82083,28.999784 184.59961,29 Z m 5,8 c -0.22122,-2.16e-4 -0.40061,0.179171 -0.40039,0.400391 v 0.199218 c -2.2e-4,0.22122 0.17917,0.400607 0.40039,0.400391 h 3.19922 c 0.22122,2.16e-4 0.40061,-0.179171 0.40039,-0.400391 V 37.400391 C 193.00022,37.179171 192.82083,36.999784 192.59961,37 Z m -6,-14 A 0.4,0.4 0 0 0 183,23.400391 v 2.199218 A 0.4,0.4 0 0 0 183.40039,26 H 184 v 0.599609 A 0.4,0.4 0 0 0 184.40039,27 h 0.19922 A 0.4,0.4 0 0 0 185,26.599609 V 26 h 0.59961 A 0.4,0.4 0 0 0 186,25.599609 V 25 h 0.59961 A 0.4,0.4 0 0 0 187,24.599609 V 24.400391 A 0.4,0.4 0 0 0 186.59961,24 H 186 V 23.400391 A 0.4,0.4 0 0 0 185.59961,23 Z m 0.79883,1 h 0.60156 A 0.2,0.2 0 0 1 185,24.199219 v 0.601562 A 0.2,0.2 0 0 1 184.80078,25 h -0.60156 A 0.2,0.2 0 0 1 184,24.800781 V 24.199219 A 0.2,0.2 0 0 1 184.19922,24 Z m 5.20117,0 h 3.19922 A 0.4,0.4 0 0 1 193,24.400391 v 0.199218 A 0.4,0.4 0 0 1 192.59961,25 h -3.19922 A 0.4,0.4 0 0 1 189,24.599609 V 24.400391 A 0.4,0.4 0 0 1 189.40039,24 Z m 0,0 A 0.4,0.4 0 0 0 189,24.400391 v 0.199218 A 0.4,0.4 0 0 0 189.40039,25 h 3.19922 A 0.4,0.4 0 0 0 193,24.599609 V 24.400391 A 0.4,0.4 0 0 0 192.59961,24 Z m 7,-1 A 0.4,0.4 0 0 0 196,23.400391 V 24 h -0.59961 A 0.4,0.4 0 0 0 195,24.400391 v 0.199218 A 0.4,0.4 0 0 0 195.40039,25 H 196 v 0.599609 A 0.4,0.4 0 0 0 196.40039,26 H 197 v 0.599609 A 0.4,0.4 0 0 0 197.40039,27 h 0.19922 A 0.4,0.4 0 0 0 198,26.599609 V 26 h 0.59961 A 0.4,0.4 0 0 0 199,25.599609 V 23.400391 A 0.4,0.4 0 0 0 198.59961,23 Z M 197,24 h 1 v 1 h -1 z m 0.40039,5 A 0.4,0.4 0 0 0 197,29.400391 v 3.199218 A 0.4,0.4 0 0 0 197.40039,33 h 0.19922 A 0.4,0.4 0 0 0 198,32.599609 V 29.400391 A 0.4,0.4 0 0 0 197.59961,29 Z m 0,6 A 0.4,0.4 0 0 0 197,35.400391 V 36 h -0.59961 A 0.4,0.4 0 0 0 196,36.400391 V 37 h -0.59961 A 0.4,0.4 0 0 0 195,37.400391 v 0.199218 A 0.4,0.4 0 0 0 195.40039,38 H 196 v 0.599609 A 0.4,0.4 0 0 0 196.40039,39 h 2.19922 A 0.4,0.4 0 0 0 199,38.599609 V 36.400391 A 0.4,0.4 0 0 0 198.59961,36 H 198 V 35.400391 A 0.4,0.4 0 0 0 197.59961,35 Z m -0.20117,2 h 0.60156 A 0.2,0.2 0 0 1 198,37.199219 v 0.601562 A 0.2,0.2 0 0 1 197.80078,38 h -0.60156 A 0.2,0.2 0 0 1 197,37.800781 V 37.199219 A 0.2,0.2 0 0 1 197.19922,37 Z M 184.40039,35 A 0.4,0.4 0 0 0 184,35.400391 V 36 h -0.59961 A 0.4,0.4 0 0 0 183,36.400391 v 2.199218 A 0.4,0.4 0 0 0 183.40039,39 h 2.19922 A 0.4,0.4 0 0 0 186,38.599609 V 38 h 0.59961 A 0.4,0.4 0 0 0 187,37.599609 V 37.400391 A 0.4,0.4 0 0 0 186.59961,37 H 186 V 36.400391 A 0.4,0.4 0 0 0 185.59961,36 H 185 V 35.400391 A 0.4,0.4 0 0 0 184.59961,35 Z m -0.20117,2 h 0.60156 A 0.2,0.2 0 0 1 185,37.199219 v 0.601562 A 0.2,0.2 0 0 1 184.80078,38 h -0.60156 A 0.2,0.2 0 0 1 184,37.800781 V 37.199219 A 0.2,0.2 0 0 1 184.19922,37 Z m 0.20117,-8 A 0.4,0.4 0 0 0 184,29.400391 v 3.199218 A 0.4,0.4 0 0 0 184.40039,33 h 0.19922 A 0.4,0.4 0 0 0 185,32.599609 V 29.400391 A 0.4,0.4 0 0 0 184.59961,29 Z m 5,-5 A 0.4,0.4 0 0 0 189,24.400391 v 0.199218 A 0.4,0.4 0 0 0 189.40039,25 h 3.19922 A 0.4,0.4 0 0 0 193,24.599609 V 24.400391 A 0.4,0.4 0 0 0 192.59961,24 Z" />
    <path
       d="m 191,29 c -1.10457,0 -2,0.895431 -2,2 0,1.104569 0.89543,2 2,2 1.10457,0 2,-0.895431 2,-2 0,-1.104569 -0.89543,-2 -2,-2 z m 0,1 c 0.55228,0 1,0.447715 1,1 0,0.552285 -0.44772,1 -1,1 -0.55228,0 -1,-0.447715 -1,-1 0,-0.552285 0.44772,-1 1,-1 z"
       style="color:#3daee9;fill:url(#linearGradient325);fill-opacity:1;stroke:none"
       id="path2"
       sodipodi:nodetypes="ssssssssss" />
  </g>
</svg>
