<?xml version="1.0" encoding="UTF-8" standalone="no"?>
<!-- Created with Inkscape (http://www.inkscape.org/) -->

<svg
   width="16"
   height="16"
   viewBox="0 0 4.2333333 4.2333333"
   version="1.1"
   id="svg1"
   inkscape:version="1.4.2 (ebf0e940d0, 2025-05-08)"
   sodipodi:docname="snap-​nodes-​center.svg"
   xmlns:inkscape="http://www.inkscape.org/namespaces/inkscape"
   xmlns:sodipodi="http://sodipodi.sourceforge.net/DTD/sodipodi-0.dtd"
   xmlns:xlink="http://www.w3.org/1999/xlink"
   xmlns="http://www.w3.org/2000/svg"
   xmlns:svg="http://www.w3.org/2000/svg">
  <sodipodi:namedview
     id="namedview1"
     pagecolor="#505050"
     bordercolor="#ffffff"
     borderopacity="1"
     inkscape:showpageshadow="0"
     inkscape:pageopacity="0"
     inkscape:pagecheckerboard="1"
     inkscape:deskcolor="#d1d1d1"
     inkscape:document-units="mm"
     inkscape:zoom="49.293374"
     inkscape:cx="7.4046463"
     inkscape:cy="7.65823"
     inkscape:current-layer="svg1" />
  <defs
     id="defs1">
    <linearGradient
       id="linearGradient174"
       x1="3.5374999"
       y1="13.3472"
       x2="16.162201"
       y2="2.33196"
       gradientUnits="userSpaceOnUse"
       inkscape:swatch="gradient"
       inkscape:label="Beautyline_yellow_gradient">
      <stop
         stop-color="#FE0844"
         id="stop172"
         style="stop-color:#fe0844;stop-opacity:1" />
      <stop
         offset="1"
         stop-color="#FEB302"
         id="stop173" />
    </linearGradient>
    <linearGradient
       id="paint0_linear_451_2933"
       x1="2.75"
       y1="10.3125"
       x2="18.371799"
       y2="8.5861902"
       gradientUnits="userSpaceOnUse"
       inkscape:label="Beautyline_purple_gradient"
       inkscape:swatch="gradient">
      <stop
         stop-color="#8D01A2"
         id="stop1" />
      <stop
         offset="1"
         stop-color="#FF00D2"
         id="stop2" />
    </linearGradient>
    <inkscape:path-effect
       effect="fillet_chamfer"
       id="path-effect300"
       is_visible="true"
       lpeversion="1"
       nodesatellites_param="F,0,0,1,0,0.4,0,1 @ F,0,0,1,0,0.4,0,1 @ F,0,0,1,0,0.4,0,1 @ F,0,0,1,0,0.4,0,1 | F,0,0,1,0,0.2,0,1 @ F,0,0,1,0,0.2,0,1 @ F,0,0,1,0,0.2,0,1 @ F,0,0,1,0,0.2,0,1"
       radius="0"
       unit="px"
       method="auto"
       mode="F"
       chamfer_steps="1"
       flexible="false"
       use_knot_distance="true"
       apply_no_radius="true"
       apply_with_radius="true"
       only_selected="false"
       hide_knots="false" />
    <linearGradient
       id="paint0_linear_451_1523"
       x1="11.0066"
       y1="19.68"
       x2="11.0066"
       y2="0.94384801"
       gradientUnits="userSpaceOnUse"
       inkscape:swatch="gradient"
       inkscape:label="Beautyline_green_gradient">
      <stop
         stop-color="#00B59C"
         id="stop1-9" />
      <stop
         offset="1"
         stop-color="#9CFFAC"
         id="stop2-2" />
    </linearGradient>
    <linearGradient
       id="paint0_linear_651_140"
       x1="3.5374999"
       y1="13.3472"
       x2="16.162201"
       y2="2.33196"
       gradientUnits="userSpaceOnUse"
       inkscape:label="Beautyline_yellow_gradient"
       spreadMethod="pad">
      <stop
         stop-color="#FE0844"
         id="stop4012" />
      <stop
         offset="1"
         stop-color="#FEB302"
         id="stop4014" />
    </linearGradient>
    <linearGradient
       inkscape:collect="always"
       xlink:href="#paint0_linear_451_2933"
       id="linearGradient109"
       gradientUnits="userSpaceOnUse"
       x1="2.75"
       y1="10.3125"
       x2="18.371799"
       y2="8.5861902" />
    <linearGradient
       inkscape:collect="always"
       xlink:href="#linearGradient174"
       id="linearGradient5"
       gradientUnits="userSpaceOnUse"
       x1="3.5374999"
       y1="13.3472"
       x2="16.162201"
       y2="2.33196" />
  </defs>
  <g
     id="g1"
     description="snap-​nodes-​center"
     transform="matrix(0.24804643,0,0,0.24804643,-0.61184505,-0.61184464)">
    <path
       style="color:#3daee9;fill:url(#linearGradient109);fill-opacity:1;stroke:none"
       d="m 11,9 a 2,2 0 0 0 -2,2 2,2 0 0 0 2,2 2,2 0 0 0 2,-2 2,2 0 0 0 -2,-2 z m 0,1 a 1,1 0 0 1 1,1 1,1 0 0 1 -1,1 1,1 0 0 1 -1,-1 1,1 0 0 1 1,-1 z"
       class="ColorScheme-Accent"
       id="path1" />
    <path
       d="m 10.968753,3.0000004 a 8,8 0 0 0 -7.9687499,8.0214846 8,8 0 0 0 8.0097659,7.978516 8,8 0 0 0 7.990234,-8 v -0.04102 a 8,8 0 0 0 -8.03125,-7.9589846 z m 0.0039,1.0234375 a 6.9760876,6.9760876 0 0 1 7.003907,6.9394531 v 0.03711 A 6.9760876,6.9760876 0 0 1 11.009769,17.976563 6.9760876,6.9760876 0 0 1 4.0234406,11.017579 6.9760876,6.9760876 0 0 1 10.972659,4.0234379 Z"
       style="opacity:1;fill:url(#linearGradient5);fill-rule:evenodd;stroke-width:1.2;paint-order:fill markers stroke"
       id="path2" />
  </g>
</svg>
