<?xml version="1.0" encoding="UTF-8" standalone="no"?>
<!-- Created with Inkscape (http://www.inkscape.org/) -->

<svg
   width="16"
   height="16"
   viewBox="0 0 4.2333333 4.2333333"
   version="1.1"
   id="svg1"
   inkscape:version="1.4.2 (ebf0e940d0, 2025-05-08)"
   sodipodi:docname="snap-page.svg"
   xmlns:inkscape="http://www.inkscape.org/namespaces/inkscape"
   xmlns:sodipodi="http://sodipodi.sourceforge.net/DTD/sodipodi-0.dtd"
   xmlns:xlink="http://www.w3.org/1999/xlink"
   xmlns="http://www.w3.org/2000/svg"
   xmlns:svg="http://www.w3.org/2000/svg">
  <sodipodi:namedview
     id="namedview1"
     pagecolor="#505050"
     bordercolor="#ffffff"
     borderopacity="1"
     inkscape:showpageshadow="0"
     inkscape:pageopacity="0"
     inkscape:pagecheckerboard="1"
     inkscape:deskcolor="#d1d1d1"
     inkscape:document-units="mm"
     inkscape:zoom="49.293374"
     inkscape:cx="7.4046463"
     inkscape:cy="7.65823"
     inkscape:current-layer="svg1" />
  <defs
     id="defs1">
    <linearGradient
       id="linearGradient174"
       x1="3.5374999"
       y1="13.3472"
       x2="16.162201"
       y2="2.33196"
       gradientUnits="userSpaceOnUse"
       inkscape:swatch="gradient"
       inkscape:label="Beautyline_yellow_gradient">
      <stop
         stop-color="#FE0844"
         id="stop172"
         style="stop-color:#fe0844;stop-opacity:1" />
      <stop
         offset="1"
         stop-color="#FEB302"
         id="stop173" />
    </linearGradient>
    <linearGradient
       inkscape:collect="always"
       xlink:href="#linearGradient174"
       id="linearGradient413"
       gradientUnits="userSpaceOnUse"
       x1="3.5374999"
       y1="13.3472"
       x2="16.162201"
       y2="2.33196" />
    <inkscape:path-effect
       effect="fillet_chamfer"
       id="path-effect412"
       is_visible="true"
       lpeversion="1"
       nodesatellites_param="F,0,0,1,0,0.4,0,1 @ F,0,0,1,0,0.4,0,1 @ F,0,0,1,0,0.4,0,1 @ F,0,0,1,0,0.4,0,1 @ F,0,0,1,0,0.4,0,1 | F,0,0,1,0,0.2,0,1 @ F,0,0,1,0,0.2,0,1 @ F,0,0,1,0,0,0,1 @ F,0,0,1,0,0.4,0,1 @ F,0,0,1,0,0,0,1 @ F,0,0,1,0,0.2,0,1"
       radius="0"
       unit="px"
       method="auto"
       mode="F"
       chamfer_steps="1"
       flexible="false"
       use_knot_distance="true"
       apply_no_radius="true"
       apply_with_radius="true"
       only_selected="false"
       hide_knots="false" />
  </defs>
  <path
     d="M 4,18.6 V 3.4 A 0.4,0.4 135 0 1 4.4,3 h 9.2 a 0.96568542,0.96568542 22.5 0 1 0.682843,0.2828427 l 3.434314,3.4343146 A 0.96568542,0.96568542 67.5 0 1 18,7.4 V 18.6 A 0.4,0.4 135 0 1 17.6,19 H 4.4 A 0.4,0.4 45 0 1 4,18.6 Z M 5.2,18 H 16.8 A 0.2,0.2 135 0 0 17,17.8 V 8 H 13.4 A 0.4,0.4 45 0 1 13,7.6 L 13,4 H 5.2 A 0.2,0.2 135 0 0 5,4.2 V 17.8 A 0.2,0.2 45 0 0 5.2,18 Z"
     style="color:#fcfcfc;fill:url(#linearGradient413);fill-opacity:1;stroke:none"
     class="ColorScheme-Text"
     id="path1-463"
     description="snap-page"
     inkscape:path-effect="#path-effect412"
     inkscape:original-d="M 4,19 V 3 h 10 l 4,4 V 19 Z M 5,18 H 17 V 8 H 13 V 4 H 5 Z"
     transform="matrix(0.24804687,0,0,0.24804687,-0.61185399,-0.61184909)"
     sodipodi:nodetypes="ccccccccccccc" />
</svg>
