<?xml version="1.0" encoding="UTF-8" standalone="no"?>
<!-- Created with Inkscape (http://www.inkscape.org/) -->

<svg
   width="16"
   height="16"
   viewBox="0 0 4.2333333 4.2333333"
   version="1.1"
   id="svg1"
   inkscape:version="1.4.2 (ebf0e940d0, 2025-05-08)"
   sodipodi:docname="snap-​intersection.svg"
   xmlns:inkscape="http://www.inkscape.org/namespaces/inkscape"
   xmlns:sodipodi="http://sodipodi.sourceforge.net/DTD/sodipodi-0.dtd"
   xmlns:xlink="http://www.w3.org/1999/xlink"
   xmlns="http://www.w3.org/2000/svg"
   xmlns:svg="http://www.w3.org/2000/svg">
  <sodipodi:namedview
     id="namedview1"
     pagecolor="#505050"
     bordercolor="#ffffff"
     borderopacity="1"
     inkscape:showpageshadow="0"
     inkscape:pageopacity="0"
     inkscape:pagecheckerboard="1"
     inkscape:deskcolor="#d1d1d1"
     inkscape:document-units="mm"
     inkscape:zoom="53.0625"
     inkscape:cx="7.9905771"
     inkscape:cy="8"
     inkscape:current-layer="svg1" />
  <defs
     id="defs1">
    <linearGradient
       id="linearGradient174"
       x1="3.5374999"
       y1="13.3472"
       x2="16.162201"
       y2="2.33196"
       gradientUnits="userSpaceOnUse"
       inkscape:swatch="gradient"
       inkscape:label="Beautyline_yellow_gradient">
      <stop
         stop-color="#FE0844"
         id="stop172"
         style="stop-color:#fe0844;stop-opacity:1" />
      <stop
         offset="1"
         stop-color="#FEB302"
         id="stop173" />
    </linearGradient>
    <linearGradient
       id="paint0_linear_451_2933"
       x1="2.75"
       y1="10.3125"
       x2="18.371799"
       y2="8.5861902"
       gradientUnits="userSpaceOnUse"
       inkscape:label="Beautyline_purple_gradient"
       inkscape:swatch="gradient">
      <stop
         stop-color="#8D01A2"
         id="stop1" />
      <stop
         offset="1"
         stop-color="#FF00D2"
         id="stop2" />
    </linearGradient>
    <inkscape:path-effect
       effect="fillet_chamfer"
       id="path-effect300"
       is_visible="true"
       lpeversion="1"
       nodesatellites_param="F,0,0,1,0,0.4,0,1 @ F,0,0,1,0,0.4,0,1 @ F,0,0,1,0,0.4,0,1 @ F,0,0,1,0,0.4,0,1 | F,0,0,1,0,0.2,0,1 @ F,0,0,1,0,0.2,0,1 @ F,0,0,1,0,0.2,0,1 @ F,0,0,1,0,0.2,0,1"
       radius="0"
       unit="px"
       method="auto"
       mode="F"
       chamfer_steps="1"
       flexible="false"
       use_knot_distance="true"
       apply_no_radius="true"
       apply_with_radius="true"
       only_selected="false"
       hide_knots="false" />
    <linearGradient
       id="paint0_linear_451_1523"
       x1="11.0066"
       y1="19.68"
       x2="11.0066"
       y2="0.94384801"
       gradientUnits="userSpaceOnUse"
       inkscape:swatch="gradient"
       inkscape:label="Beautyline_green_gradient">
      <stop
         stop-color="#00B59C"
         id="stop1-9" />
      <stop
         offset="1"
         stop-color="#9CFFAC"
         id="stop2-2" />
    </linearGradient>
    <linearGradient
       inkscape:collect="always"
       xlink:href="#linearGradient174"
       id="linearGradient388"
       gradientUnits="userSpaceOnUse"
       x1="3.5374999"
       y1="13.3472"
       x2="16.162201"
       y2="2.33196" />
    <linearGradient
       inkscape:collect="always"
       xlink:href="#paint0_linear_451_2933"
       id="linearGradient389"
       gradientUnits="userSpaceOnUse"
       x1="2.75"
       y1="10.3125"
       x2="18.371799"
       y2="8.5861902" />
  </defs>
  <g
     id="g1"
     transform="matrix(0.24952205,0,0,0.24952205,1.6704729,1.6705966)"
     description="snap-​intersection">
    <path
       id="path1"
       style="color:#fcfcfc;fill:url(#linearGradient388)"
       d="M 3.5433,3 C 3.43709,2.999914 3.33521,3.04208 3.2601,3.117188 L 3.11752,3.259766 c -0.15669,0.156291 -0.15669,0.410115 0,0.566406 L 3.2601,3.966797 c 0.15607,0.155387 0.40838,0.155387 0.56445,0 L 3.96713,3.826172 c 0.15669,-0.156291 0.15669,-0.410115 0,-0.566406 L 3.82455,3.117188 C 3.74995,3.042568 3.64884,3.000429 3.5433,3 Z M 4.95736,4.416016 C 4.85115,4.415929 4.74927,4.458096 4.67416,4.533203 L 4.53353,4.673828 c -0.15669,0.156293 -0.15669,0.410114 0,0.566407 L 4.67416,5.38086 c 0.15629,0.156694 0.41012,0.156694 0.56641,0 L 5.38119,5.240235 c 0.15669,-0.156291 0.15669,-0.410116 0,-0.566407 L 5.24057,4.533203 C 5.16547,4.458093 5.06358,4.415926 4.95736,4.416016 Z M 6.37142,5.830078 C 6.26521,5.829991 6.16333,5.872158 6.08822,5.947266 L 5.9476,6.087891 c -0.15669,0.156291 -0.15669,0.410115 0,0.566406 l 0.14062,0.140625 c 0.15629,0.156694 0.41012,0.156694 0.56641,0 L 6.79525,6.654297 c 0.15669,-0.156293 0.15669,-0.410113 0,-0.566406 L 6.65463,5.947266 C 6.57953,5.872156 6.47764,5.829989 6.37142,5.830078 Z M 7.78549,7.244141 C 7.67927,7.244052 7.57739,7.286221 7.50228,7.361328 L 7.36166,7.501953 c -0.15669,0.156291 -0.15669,0.410116 0,0.566407 l 0.14062,0.140625 c 0.15629,0.156692 0.41012,0.156692 0.56641,0 L 8.20932,8.06836 c 0.15669,-0.156291 0.15669,-0.410116 0,-0.566407 L 8.06869,7.361328 C 7.99359,7.286228 7.8917,7.244054 7.78549,7.244141 Z M 9.19955,8.658203 C 9.09334,8.658116 8.99146,8.700283 8.91635,8.775391 L 8.77572,8.916016 c -0.15669,0.156293 -0.15669,0.410113 0,0.566406 l 0.14063,0.140625 c 0.15629,0.156687 0.41011,0.156687 0.5664,0 L 9.62338,9.482422 c 0.15669,-0.156291 0.15669,-0.410115 0,-0.566406 L 9.48275,8.775391 C 9.40765,8.700281 9.30576,8.658116 9.19955,8.658203 Z M -0.211786,3.080928 -6.0477235,8.916865 a 0.39999998,0.39999998 0 0 0 0,0.564453 l 0.1425781,0.142578 a 0.40000001,0.40000001 0 0 0 0.5644532,0 L 0.4952453,3.787959 H -0.0125672 L -0.211786,3.58874 Z M 9.200323,-6.165166 A 0.40013579,0.40013579 0 0 0 8.91712,-6.0479785 L 3.081183,-0.212041 h 0.507812 l 0.199219,0.1992188 v 0.5078125 l 5.835937,-5.8359375 a 0.39986425,0.39986425 0 0 0 0,-0.5644532 L 9.481573,-6.0479785 A 0.40013579,0.40013579 0 0 0 9.200323,-6.165166 Z m -14.8215357,4.812e-4 c -0.10621,-8.6e-5 -0.20809,0.04208 -0.2832,0.117188 l -0.14258,0.142578 c -0.15669,0.156291 -0.15669,0.410115 0,0.566406 l 0.14258,0.140625 c 0.15607,0.155387 0.40838,0.155387 0.56445,0 l 0.14258,-0.140625 c 0.15669,-0.156291 0.15669,-0.410115 0,-0.566406 l -0.14258,-0.142578 c -0.0746,-0.07462 -0.17571,-0.116759 -0.28125,-0.117188 z m 1.41406,1.416016 c -0.10621,-8.7e-5 -0.20809,0.04208 -0.2832,0.117187 l -0.14063,0.140625 c -0.15669,0.156293 -0.15669,0.410114 0,0.566407 l 0.14063,0.140625 c 0.15629,0.156694 0.41012,0.156694 0.56641,0 l 0.14062,-0.140625 c 0.15669,-0.156291 0.15669,-0.410116 0,-0.566407 l -0.14062,-0.140625 c -0.0751,-0.07511 -0.17699,-0.117277 -0.28321,-0.117187 z m 1.41406,1.414062 c -0.10621,-8.7e-5 -0.20809,0.04208 -0.2832,0.117188 l -0.14062,0.140625 c -0.15669,0.156291 -0.15669,0.410115 0,0.566406 l 0.14062,0.140625 c 0.15629,0.156694 0.41012,0.156694 0.56641,0 l 0.14062,-0.140625 c 0.15669,-0.156293 0.15669,-0.410113 0,-0.566406 l -0.14062,-0.140625 c -0.0751,-0.07511 -0.17699,-0.117277 -0.28321,-0.117188 z m 1.41407,1.414063 c -0.10622,-8.9e-5 -0.2081,0.04208 -0.28321,0.117187 l -0.14062,0.140625 c -0.15669,0.156291 -0.15669,0.410116 0,0.566407 l 0.14062,0.14062499 c 0.15629,0.156692 0.41012,0.156692 0.56641,0 l 0.14063002,-0.14062499 c 0.15669,-0.156291 0.15669,-0.410116 0,-0.566407 l -0.14063002,-0.140625 c -0.0751,-0.0751 -0.17699,-0.117274 -0.2832,-0.117187 z m 1.41406002,1.41406199 c -0.10621,-8.7e-5 -0.20809,0.04208 -0.2832,0.117188 l -0.14063,0.140625 c -0.15669,0.156293 -0.15669,0.410113 0,0.566406 l 0.14063,0.140625 c 0.15629,0.156687 0.41011,0.156687 0.5664,0 l 0.14063,-0.140625 c 0.15669,-0.156291 0.15669,-0.410115 0,-0.566406 l -0.14063,-0.140625 c -0.0751,-0.07511 -0.17699,-0.117275 -0.2832,-0.117188 z" />
    <path
       d="m -0.012566,-0.212041 c -0.10985,4.28e-4 -0.19879,0.08937 -0.19922,0.199219 V 3.58874 c 4.3e-4,0.109848 0.0894,0.198791 0.19922,0.199219 h 3.60156 c 0.10985,-4.28e-4 0.19879,-0.08937 0.19922,-0.199219 V 0.494869 -0.012822 c -4.3e-4,-0.109848 -0.08937,-0.198791 -0.19922,-0.199219 h -0.50793 z m 1,1 h 1.60156 c 0.10985,4.28e-4 0.19879,0.08937 0.19922,0.199219 V 2.58874 c -4.3e-4,0.109848 -0.0894,0.198791 -0.19922,0.199219 H 0.987434 C 0.877584,2.787531 0.788644,2.698589 0.788214,2.58874 V 0.987178 c 4.3e-4,-0.109848 0.0894,-0.198791 0.19922,-0.199219 z"
       style="color:#3daee9;fill:url(#linearGradient389);fill-opacity:1"
       id="path2"
       sodipodi:nodetypes="cccccccccccccccccccc" />
  </g>
</svg>
