<?xml version="1.0" encoding="UTF-8" standalone="no"?>
<!-- Created with Inkscape (http://www.inkscape.org/) -->

<svg
   width="16"
   height="16"
   viewBox="0 0 4.2333333 4.2333333"
   version="1.1"
   id="svg1"
   inkscape:version="1.4.2 (ebf0e940d0, 2025-05-08)"
   sodipodi:docname="snap-​node.svg"
   xmlns:inkscape="http://www.inkscape.org/namespaces/inkscape"
   xmlns:sodipodi="http://sodipodi.sourceforge.net/DTD/sodipodi-0.dtd"
   xmlns:xlink="http://www.w3.org/1999/xlink"
   xmlns="http://www.w3.org/2000/svg"
   xmlns:svg="http://www.w3.org/2000/svg">
  <sodipodi:namedview
     id="namedview1"
     pagecolor="#505050"
     bordercolor="#ffffff"
     borderopacity="1"
     inkscape:showpageshadow="0"
     inkscape:pageopacity="0"
     inkscape:pagecheckerboard="1"
     inkscape:deskcolor="#d1d1d1"
     inkscape:document-units="mm"
     inkscape:zoom="53.0625"
     inkscape:cx="7.9905771"
     inkscape:cy="8"
     inkscape:current-layer="svg1" />
  <defs
     id="defs1">
    <linearGradient
       id="paint0_linear_651_140"
       x1="3.5374999"
       y1="13.3472"
       x2="16.162201"
       y2="2.33196"
       gradientUnits="userSpaceOnUse"
       inkscape:label="Beautyline_yellow_gradient"
       spreadMethod="pad">
      <stop
         stop-color="#FE0844"
         id="stop4012" />
      <stop
         offset="1"
         stop-color="#FEB302"
         id="stop4014" />
    </linearGradient>
    <linearGradient
       inkscape:collect="always"
       xlink:href="#paint0_linear_651_140"
       id="linearGradient279"
       gradientUnits="userSpaceOnUse"
       x1="43"
       y1="171.50452"
       x2="56.361774"
       y2="165.11127" />
  </defs>
  <path
     style="color:#fcfcfc;fill:url(#linearGradient279);fill-opacity:1;stroke:none"
     d="m 56,169.9 v 0.6 h -2.6 a 0.4,0.4 135 0 0 -0.4,0.4 v 0.2 a 0.4,0.4 45 0 0 0.4,0.4 H 56 v 0.6 a 0.4,0.4 45 0 0 0.4,0.4 h 2.2 a 0.4,0.4 135 0 0 0.4,-0.4 v -2.2 a 0.4,0.4 45 0 0 -0.4,-0.4 h -2.2 a 0.4,0.4 135 0 0 -0.4,0.4 z m -13,1 v 0.2 a 0.4,0.4 45 0 0 0.4,0.4 h 0.2 a 0.4,0.4 135 0 0 0.4,-0.4 v -0.2 a 0.4,0.4 45 0 0 -0.4,-0.4 h -0.2 a 0.4,0.4 135 0 0 -0.4,0.4 z m 2,0 v 0.2 a 0.4,0.4 45 0 0 0.4,0.4 h 0.2 a 0.4,0.4 135 0 0 0.4,-0.4 v -0.2 a 0.4,0.4 45 0 0 -0.4,-0.4 h -0.2 a 0.4,0.4 135 0 0 -0.4,0.4 z m 2,0 v 0.2 a 0.4,0.4 45 0 0 0.4,0.4 h 0.2 a 0.4,0.4 135 0 0 0.4,-0.4 v -0.2 a 0.4,0.4 45 0 0 -0.4,-0.4 h -0.2 a 0.4,0.4 135 0 0 -0.4,0.4 z m 2,0 v 0.2 a 0.4,0.4 45 0 0 0.4,0.4 h 0.2 a 0.4,0.4 135 0 0 0.4,-0.4 v -0.2 a 0.4,0.4 45 0 0 -0.4,-0.4 h -0.2 a 0.4,0.4 135 0 0 -0.4,0.4 z m 2,0 v 0.2 a 0.4,0.4 45 0 0 0.4,0.4 h 0.2 a 0.4,0.4 135 0 0 0.4,-0.4 v -0.2 a 0.4,0.4 45 0 0 -0.4,-0.4 h -0.2 a 0.4,0.4 135 0 0 -0.4,0.4 z"
     class="ColorScheme-Text"
     id="path1"
     description="snap-​node"
     transform="matrix(0.26458333,0,0,0.26458333,-11.377083,-42.994792)"
     inkscape:path-effect="#path-effect279" />
</svg>
