<?xml version="1.0" encoding="UTF-8" standalone="no"?>
<!-- Created with Inkscape (http://www.inkscape.org/) -->

<svg
   width="16"
   height="16"
   viewBox="0 0 4.2333333 4.2333333"
   version="1.1"
   id="svg1"
   inkscape:version="1.4.2 (ebf0e940d0, 2025-05-08)"
   sodipodi:docname="snap-​bounding-​box-​midpoints.svg"
   xmlns:inkscape="http://www.inkscape.org/namespaces/inkscape"
   xmlns:sodipodi="http://sodipodi.sourceforge.net/DTD/sodipodi-0.dtd"
   xmlns:xlink="http://www.w3.org/1999/xlink"
   xmlns="http://www.w3.org/2000/svg"
   xmlns:svg="http://www.w3.org/2000/svg">
  <sodipodi:namedview
     id="namedview1"
     pagecolor="#505050"
     bordercolor="#ffffff"
     borderopacity="1"
     inkscape:showpageshadow="0"
     inkscape:pageopacity="0"
     inkscape:pagecheckerboard="1"
     inkscape:deskcolor="#d1d1d1"
     inkscape:document-units="mm"
     inkscape:zoom="53.0625"
     inkscape:cx="7.9905771"
     inkscape:cy="8"
     inkscape:current-layer="svg1" />
  <defs
     id="defs1">
    <linearGradient
       id="linearGradient174"
       x1="3.5374999"
       y1="13.3472"
       x2="16.162201"
       y2="2.33196"
       gradientUnits="userSpaceOnUse"
       inkscape:swatch="gradient"
       inkscape:label="Beautyline_yellow_gradient">
      <stop
         stop-color="#FE0844"
         id="stop172"
         style="stop-color:#fe0844;stop-opacity:1" />
      <stop
         offset="1"
         stop-color="#FEB302"
         id="stop173" />
    </linearGradient>
    <linearGradient
       id="paint0_linear_451_2933"
       x1="2.75"
       y1="10.3125"
       x2="18.371799"
       y2="8.5861902"
       gradientUnits="userSpaceOnUse"
       inkscape:label="Beautyline_purple_gradient"
       inkscape:swatch="gradient">
      <stop
         stop-color="#8D01A2"
         id="stop1" />
      <stop
         offset="1"
         stop-color="#FF00D2"
         id="stop2" />
    </linearGradient>
    <inkscape:path-effect
       effect="fillet_chamfer"
       id="path-effect300"
       is_visible="true"
       lpeversion="1"
       nodesatellites_param="F,0,0,1,0,0.4,0,1 @ F,0,0,1,0,0.4,0,1 @ F,0,0,1,0,0.4,0,1 @ F,0,0,1,0,0.4,0,1 | F,0,0,1,0,0.2,0,1 @ F,0,0,1,0,0.2,0,1 @ F,0,0,1,0,0.2,0,1 @ F,0,0,1,0,0.2,0,1"
       radius="0"
       unit="px"
       method="auto"
       mode="F"
       chamfer_steps="1"
       flexible="false"
       use_knot_distance="true"
       apply_no_radius="true"
       apply_with_radius="true"
       only_selected="false"
       hide_knots="false" />
    <linearGradient
       inkscape:collect="always"
       xlink:href="#linearGradient174"
       id="linearGradient327"
       gradientUnits="userSpaceOnUse"
       x1="3.5374999"
       y1="13.3472"
       x2="16.162201"
       y2="2.33196" />
    <linearGradient
       inkscape:collect="always"
       xlink:href="#paint0_linear_451_2933"
       id="linearGradient1-2"
       gradientUnits="userSpaceOnUse"
       x1="2.75"
       y1="10.3125"
       x2="18.371799"
       y2="8.5861902"
       gradientTransform="translate(1.9485967e-7,-6)" />
  </defs>
  <g
     id="g1"
     description="snap-​bounding-​box-​midpoints"
     transform="matrix(0.24804687,0,0,0.24804687,-0.61184936,-0.61184906)">
    <path
       id="path1"
       style="color:#fcfcfc;fill:url(#linearGradient327)"
       d="m 3.4003902,3.0000002 c -0.22122,-2.16e-4 -0.40061,0.179171 -0.40039,0.400391 v 2.199218 c -2.2e-4,0.22122 0.17917,0.400607 0.40039,0.400391 h 0.59961 v 0.599609 c -2.2e-4,0.22122 0.17917,0.400607 0.40039,0.400391 h 0.19922 c 0.22122,2.16e-4 0.40061,-0.179171 0.40039,-0.400391 v -0.599609 h 0.59961 c 0.22122,2.16e-4 0.40061,-0.179171 0.40039,-0.400391 v -0.599609 h 0.59961 c 0.22122,2.16e-4 0.40061,-0.179171 0.40039,-0.400391 v -0.199218 c 2.2e-4,-0.22122 -0.17917,-0.400607 -0.40039,-0.400391 h -0.59961 v -0.599609 c 2.2e-4,-0.22122 -0.17917,-0.400607 -0.40039,-0.400391 z m 0.79883,1 h 0.60156 c 0.10985,4.28e-4 0.19879,0.08937 0.19922,0.199219 v 0.601562 c -4.3e-4,0.109848 -0.0894,0.198791 -0.19922,0.199219 h -0.60156 c -0.10985,-4.28e-4 -0.19879,-0.089371 -0.19922,-0.199219 v -0.601562 c 4.3e-4,-0.109848 0.0894,-0.198791 0.19922,-0.199219 z M 9.4003902,17 H 12.59961 c 0.22122,-2.16e-4 0.40061,0.179171 0.40039,0.400391 v 0.199218 C 13.00022,17.820829 12.82083,18.000216 12.59961,18 H 9.4003902 c -0.22122,2.16e-4 -0.40061,-0.179171 -0.40039,-0.400391 v -0.199218 c -2.2e-4,-0.22122 0.17917,-0.400607 0.40039,-0.400391 z m 0,0 c -0.22122,-2.16e-4 -0.40061,0.179171 -0.40039,0.400391 v 0.199218 c -2.2e-4,0.22122 0.17917,0.400607 0.40039,0.400391 H 12.59961 C 12.82083,18.000216 13.00022,17.820829 13,17.599609 V 17.400391 C 13.00022,17.179171 12.82083,16.999784 12.59961,17 Z M 16.40039,3.0000002 C 16.17917,2.9997842 15.99978,3.1791712 16,3.4003912 v 0.599609 H 15.40039 C 15.17917,3.9997842 14.99978,4.1791712 15,4.4003912 v 0.199218 c -2.2e-4,0.22122 0.17917,0.400607 0.40039,0.400391 H 16 v 0.599609 c -2.2e-4,0.22122 0.17917,0.400607 0.40039,0.400391 H 17 v 0.599609 c -2.2e-4,0.22122 0.17917,0.400607 0.40039,0.400391 h 0.19922 C 17.82083,7.0002162 18.00022,6.8208292 18,6.5996092 v -0.599609 h 0.59961 C 18.82083,6.0002162 19.00022,5.8208292 19,5.5996092 v -2.199218 c 2.2e-4,-0.22122 -0.17917,-0.400607 -0.40039,-0.400391 z m 0.59961,1 h 1 v 1 H 17 Z M 17.40039,15 C 17.17917,14.999784 16.99978,15.179172 17,15.400391 V 16 H 16.40039 C 16.17917,15.999784 15.99978,16.179172 16,16.400391 V 17 H 15.40039 C 15.17917,16.999784 14.99978,17.179172 15,17.400391 v 0.199218 C 14.99978,17.820828 15.17917,18.000216 15.40039,18 H 16 v 0.599609 C 15.99978,18.820828 16.17917,19.000216 16.40039,19 h 2.19922 C 18.82083,19.000216 19.00022,18.820828 19,18.599609 V 16.400391 C 19.00022,16.179172 18.82083,15.999784 18.59961,16 H 18 V 15.400391 C 18.00022,15.179172 17.82083,14.999784 17.59961,15 Z m -0.20117,2 h 0.60156 c 0.10985,4.28e-4 0.19879,0.08937 0.19922,0.199219 v 0.601562 C 17.99957,17.910629 17.9106,17.999572 17.80078,18 H 17.19922 C 17.08937,17.999572 17.00043,17.910629 17,17.800781 V 17.199219 C 17.00043,17.089371 17.0894,17.000428 17.19922,17 Z M 4.4003902,15 c -0.22122,-2.16e-4 -0.40061,0.179172 -0.40039,0.400391 V 16 h -0.59961 c -0.22122,-2.16e-4 -0.40061,0.179172 -0.40039,0.400391 v 2.199218 c -2.2e-4,0.221219 0.17917,0.400607 0.40039,0.400391 h 2.19922 c 0.22122,2.16e-4 0.40061,-0.179172 0.40039,-0.400391 V 18 h 0.59961 c 0.22122,2.16e-4 0.40061,-0.179172 0.40039,-0.400391 V 17.400391 C 7.0002202,17.179172 6.8208302,16.999784 6.5996102,17 h -0.59961 V 16.400391 C 6.0002202,16.179172 5.8208302,15.999784 5.5996102,16 h -0.59961 V 15.400391 C 5.0002202,15.179172 4.8208302,14.999784 4.5996102,15 Z m -0.20117,2 h 0.60156 c 0.10985,4.28e-4 0.19879,0.08937 0.19922,0.199219 v 0.601562 c -4.3e-4,0.109848 -0.0894,0.198791 -0.19922,0.199219 h -0.60156 c -0.10985,-4.28e-4 -0.19879,-0.08937 -0.19922,-0.199219 v -0.601562 c 4.3e-4,-0.109848 0.0894,-0.198791 0.19922,-0.199219 z m 0.20117,-7.9999998 c -0.22122,-2.16e-4 -0.40061,0.179171 -0.40039,0.400391 v 3.1992178 c -2.2e-4,0.221219 0.17917,0.400607 0.40039,0.400391 h 0.19922 c 0.22122,2.16e-4 0.40061,-0.179172 0.40039,-0.400391 V 9.4003912 c 2.2e-4,-0.22122 -0.17917,-0.400607 -0.40039,-0.400391 z m 5,7.9999998 c -0.22122,-2.16e-4 -0.40061,0.179171 -0.40039,0.400391 v 0.199218 c -2.2e-4,0.22122 0.17917,0.400607 0.40039,0.400391 H 12.59961 C 12.82083,18.000216 13.00022,17.820829 13,17.599609 V 17.400391 C 13.00022,17.179171 12.82083,16.999784 12.59961,17 Z m -6,-13.9999998 c -0.221219,-2.158e-4 -0.4006063,0.179172 -0.40039,0.400391 v 2.199218 c -2.163e-4,0.221219 0.179171,0.4006068 0.40039,0.400391 h 0.59961 v 0.599609 c -2.163e-4,0.221219 0.179171,0.4006068 0.40039,0.400391 h 0.19922 c 0.221219,2.158e-4 0.4006063,-0.179172 0.40039,-0.400391 v -0.599609 h 0.59961 c 0.221219,2.158e-4 0.4006063,-0.179172 0.40039,-0.400391 v -0.599609 h 0.59961 c 0.221219,2.158e-4 0.4006063,-0.179172 0.40039,-0.400391 v -0.199218 c 2.163e-4,-0.221219 -0.179171,-0.4006068 -0.40039,-0.400391 h -0.59961 v -0.599609 c 2.163e-4,-0.221219 -0.179171,-0.4006068 -0.40039,-0.400391 z m 0.79883,1 h 0.60156 c 0.1098482,4.276e-4 0.1987919,0.089371 0.19922,0.199219 v 0.601562 c -4.281e-4,0.1098482 -0.089372,0.1987914 -0.19922,0.199219 h -0.60156 C 4.089372,4.9995726 4.0004283,4.9106294 4.0000002,4.8007812 v -0.601562 c 4.281e-4,-0.1098482 0.089372,-0.1987914 0.19922,-0.199219 z m 5.20117,0 H 12.59961 C 12.820829,3.9997844 13.000216,4.1791722 13,4.4003912 v 0.199218 c 2.16e-4,0.221219 -0.179171,0.4006068 -0.40039,0.400391 H 9.4003902 c -0.221219,2.158e-4 -0.4006063,-0.179172 -0.40039,-0.400391 v -0.199218 c -2.163e-4,-0.221219 0.179171,-0.4006068 0.40039,-0.400391 z m 0,0 c -0.221219,-2.158e-4 -0.4006063,0.179172 -0.40039,0.400391 v 0.199218 c -2.163e-4,0.221219 0.179171,0.4006068 0.40039,0.400391 H 12.59961 C 12.820829,5.000216 13.000216,4.8208282 13,4.5996092 v -0.199218 c 2.16e-4,-0.221219 -0.179171,-0.4006068 -0.40039,-0.400391 z m 6.9999998,-1 C 16.179171,2.9997844 15.999784,3.1791722 16,3.4003912 v 0.599609 H 15.40039 C 15.179171,3.9997844 14.999784,4.1791722 15,4.4003912 v 0.199218 c -2.16e-4,0.221219 0.179171,0.4006068 0.40039,0.400391 H 16 v 0.599609 c -2.16e-4,0.221219 0.179171,0.4006068 0.40039,0.400391 H 17 v 0.599609 c -2.16e-4,0.221219 0.179171,0.4006068 0.40039,0.400391 h 0.19922 C 17.820829,7.000216 18.000216,6.8208282 18,6.5996092 v -0.599609 h 0.59961 C 18.820829,6.000216 19.000216,5.8208282 19,5.5996092 v -2.199218 c 2.16e-4,-0.221219 -0.179171,-0.4006068 -0.40039,-0.400391 z m 0.59961,1 h 1 v 1 H 17 Z M 17.40039,15 C 17.179171,14.999784 16.999784,15.179172 17,15.400391 V 16 H 16.40039 C 16.179171,15.999784 15.999784,16.179172 16,16.400391 V 17 H 15.40039 C 15.179171,16.999784 14.999784,17.179172 15,17.400391 v 0.199218 C 14.999784,17.820828 15.179171,18.000216 15.40039,18 H 16 v 0.599609 C 15.999784,18.820828 16.179171,19.000216 16.40039,19 h 2.19922 C 18.820829,19.000216 19.000216,18.820828 19,18.599609 V 16.400391 C 19.000216,16.179172 18.820829,15.999784 18.59961,16 H 18 V 15.400391 C 18.000216,15.179172 17.820829,14.999784 17.59961,15 Z m -0.20117,2 h 0.60156 c 0.109848,4.28e-4 0.198792,0.08937 0.19922,0.199219 v 0.601562 C 17.999572,17.910629 17.910628,17.999572 17.80078,18 H 17.19922 C 17.089372,17.999572 17.000428,17.910629 17,17.800781 V 17.199219 C 17.000428,17.089371 17.089372,17.000428 17.19922,17 Z M 4.4003902,15 c -0.221219,-2.16e-4 -0.4006063,0.179172 -0.40039,0.400391 V 16 h -0.59961 c -0.221219,-2.16e-4 -0.4006063,0.179172 -0.40039,0.400391 v 2.199218 C 2.9997839,18.820828 3.1791712,19.000216 3.4003902,19 h 2.19922 c 0.221219,2.16e-4 0.4006063,-0.179172 0.40039,-0.400391 V 18 h 0.59961 c 0.221219,2.16e-4 0.4006063,-0.179172 0.40039,-0.400391 V 17.400391 C 7.0002165,17.179172 6.8208292,16.999784 6.5996102,17 h -0.59961 V 16.400391 C 6.0002165,16.179172 5.8208292,15.999784 5.5996102,16 h -0.59961 V 15.400391 C 5.0002165,15.179172 4.8208292,14.999784 4.5996102,15 Z m -0.20117,2 h 0.60156 c 0.1098482,4.28e-4 0.1987919,0.08937 0.19922,0.199219 v 0.601562 C 4.9995721,17.910629 4.9106284,17.999572 4.8007802,18 h -0.60156 C 4.089372,17.999572 4.0004283,17.910629 4.0000002,17.800781 V 17.199219 C 4.0004283,17.089371 4.089372,17.000428 4.1992202,17 Z m 0.20117,-7.9999998 c -0.221219,-2.158e-4 -0.4006063,0.179172 -0.40039,0.400391 V 12.599609 C 3.9997839,12.820828 4.1791712,13.000216 4.4003902,13 h 0.19922 c 0.221219,2.16e-4 0.4006063,-0.179172 0.40039,-0.400391 V 9.4003912 c 2.163e-4,-0.221219 -0.179171,-0.4006068 -0.40039,-0.400391 z m 5,-5 c -0.221219,-2.158e-4 -0.4006063,0.179172 -0.40039,0.400391 v 0.199218 c -2.163e-4,0.221219 0.179171,0.4006068 0.40039,0.400391 H 12.59961 C 12.820829,5.000216 13.000216,4.8208282 13,4.5996092 v -0.199218 c 2.16e-4,-0.221219 -0.179171,-0.4006068 -0.40039,-0.400391 z"
       sodipodi:nodetypes="cccccccccccccccccccccccccccccccccccccccccccccccccccccccccccccccccccccccccccccccccccccccccccccccccccccccccccccccccccccccccccccccccccccccccccccccccccccccccccccccccccccccccccccccccccccccccccccccccccccccccccccccccccccccccccccccccccccccccccccccccccccccccccccccccccccccccccccccccccccccccccccccccccccccccccccccc" />
    <path
       d="M 15.40039,9 C 15.179171,8.999784 14.999784,9.179172 15,9.400391 v 3.199218 C 14.999784,12.820828 15.179171,13.000216 15.40039,13 h 3.199218 c 0.221219,2.16e-4 0.400607,-0.179172 0.400391,-0.400391 V 9.400391 C 19.000215,9.179172 18.820827,8.999784 18.599608,9 Z m 0.798829,1 h 1.601561 c 0.109848,4.28e-4 0.198791,0.08937 0.199219,0.199219 v 1.601562 C 17.999571,11.910629 17.910628,11.999572 17.80078,12 H 16.199219 C 16.089371,11.999572 16.000428,11.910629 16,11.800781 V 10.199219 C 16.000428,10.089371 16.089371,10.000428 16.199219,10 Z"
       style="color:#3daee9;fill:url(#linearGradient1-2)"
       id="path2"
       sodipodi:nodetypes="cccccccccccccccccc" />
  </g>
</svg>
