<?xml version="1.0" encoding="UTF-8" standalone="no"?>
<svg
   width="48"
   height="48"
   viewBox="0 0 48 48"
   fill="none"
   version="1.1"
   id="svg7"
   sodipodi:docname="torrents.svg"
   xml:space="preserve"
   inkscape:version="1.4.2 (ebf0e940d0, 2025-05-08)"
   xmlns:inkscape="http://www.inkscape.org/namespaces/inkscape"
   xmlns:sodipodi="http://sodipodi.sourceforge.net/DTD/sodipodi-0.dtd"
   xmlns:xlink="http://www.w3.org/1999/xlink"
   xmlns="http://www.w3.org/2000/svg"
   xmlns:svg="http://www.w3.org/2000/svg"><sodipodi:namedview
     id="namedview7"
     pagecolor="#505050"
     bordercolor="#ffffff"
     borderopacity="1"
     inkscape:showpageshadow="0"
     inkscape:pageopacity="0"
     inkscape:pagecheckerboard="1"
     inkscape:deskcolor="#d1d1d1"
     inkscape:zoom="17.6875"
     inkscape:cx="24"
     inkscape:cy="24"
     inkscape:current-layer="g7" /><path
     d="M23.1367 44C34.1824 44 43.1367 35.0457 43.1367 24C43.1367 12.9543 34.1824 4 23.1367 4C12.091 4 3.13672 12.9543 3.13672 24C3.13672 35.0457 12.091 44 23.1367 44Z"
     stroke="url(#paint0_linear_1005_73)"
     stroke-width="5"
     id="path1"
     style="stroke:url(#linearGradient8)" /><defs
     id="defs7"><linearGradient
       id="paint0_linear_451_1523"
       x1="11.0066"
       y1="19.68"
       x2="11.0066"
       y2="0.943848"
       gradientUnits="userSpaceOnUse"><stop
         stop-color="#00B59C"
         id="stop1" /><stop
         offset="1"
         stop-color="#9CFFAC"
         id="stop2-2" /></linearGradient><clipPath
       id="clip0_451_1523"><rect
         width="22"
         height="22"
         fill="white"
         transform="translate(0.00683594)"
         id="rect2" /></clipPath><linearGradient
       inkscape:collect="always"
       xlink:href="#paint0_linear_451_1523"
       id="linearGradient8"
       x1="0.63672"
       y1="24"
       x2="45.6367"
       y2="24"
       gradientUnits="userSpaceOnUse" /></defs><g
     style="fill:none"
     id="g7"
     transform="matrix(0,1.2905041,-1.2905041,0,37.307587,9.7958384)"><path
       fill-rule="evenodd"
       clip-rule="evenodd"
       d="m 13.7566,1.21937 c 0,-0.231226 0.268,-0.359225 0.4478,-0.21389 l 0.6701,0.54145 6.883,5.80542 c 0.1302,0.10988 0.1302,0.31056 0,0.42042 l -6.883,5.80543 -0.6703,0.5401 c -0.1799,0.1449 -0.4476,0.0169 -0.4476,-0.2143 v -2.6289 c 0,-0.1519 -0.1231,-0.275 -0.275,-0.275 h -2.475 -3.84998 c -0.15187,0 -0.275,-0.1232 -0.275,-0.275 V 9.58348 C 6.88162,9.34743 6.6038,9.22107 6.42589,9.37621 L 2.43615,12.8552 c -0.12572,0.1097 -0.12569,0.305 7e-5,0.4146 l 3.98974,3.4766 c 0.17792,0.1551 0.45566,0.0288 0.45566,-0.2073 V 15.4 c 0,-0.1518 0.12313,-0.275 0.275,-0.275 h 4.94998 c 0.1519,0 0.275,0.1232 0.275,0.275 v 0.825 c 0,0.152 -0.1231,0.275 -0.275,0.275 H 8.53162 c -0.15187,0 -0.275,0.1232 -0.275,0.275 v 2.6295 c 0,0.2312 -0.26796,0.3592 -0.44781,0.2139 L 7.14011,19.0782 0.255919,13.2728 c -0.130288,-0.1099 -0.130288,-0.3106 0,-0.4205 L 7.14011,7.04693 7.80865,6.50601 c 0.17982,-0.14548 0.44797,-0.0175 0.44797,0.2138 v 0.84275 1.7875 c 0,0.15188 0.12313,0.275 0.275,0.275 h 2.47498 3.85 c 0.1519,0 0.275,0.12313 0.275,0.275 v 1.13914 c 0,0.236 0.2778,0.3623 0.4557,0.2073 L 19.577,7.76981 c 0.1258,-0.10957 0.1258,-0.30496 10e-5,-0.41459 L 15.5874,3.87621 C 15.4095,3.72107 15.1316,3.84743 15.1316,4.08348 v 1.14158 c 0,0.15188 -0.1231,0.275 -0.275,0.275 H 9.90662 c -0.15187,0 -0.275,-0.12312 -0.275,-0.275 v -0.825 c 0,-0.15187 0.12313,-0.275 0.275,-0.275 h 3.57498 c 0.1519,0 0.275,-0.12312 0.275,-0.275 z"
       fill="url(#paint0_linear_451_1523)"
       id="path1-2"
       style="fill:url(#paint0_linear_451_1523)"
       sodipodi:nodetypes="sccccccssscsssccccssssssssssccccccscsscsssccccssssssssss" /></g></svg>
