<?xml version="1.0" encoding="UTF-8" standalone="no"?>
<svg
   width="16"
   height="16"
   viewBox="0 0 16 16"
   fill="none"
   version="1.1"
   id="svg3648"
   sodipodi:docname="transform-move-vertical_alt.svg"
   inkscape:version="1.4.2 (ebf0e940d0, 2025-05-08)"
   xmlns:inkscape="http://www.inkscape.org/namespaces/inkscape"
   xmlns:sodipodi="http://sodipodi.sourceforge.net/DTD/sodipodi-0.dtd"
   xmlns="http://www.w3.org/2000/svg"
   xmlns:svg="http://www.w3.org/2000/svg">
  <sodipodi:namedview
     id="namedview3650"
     pagecolor="#505050"
     bordercolor="#ffffff"
     borderopacity="1"
     inkscape:showpageshadow="0"
     inkscape:pageopacity="0"
     inkscape:pagecheckerboard="1"
     inkscape:deskcolor="#505050"
     showgrid="false"
     inkscape:zoom="58.309288"
     inkscape:cx="9.0294363"
     inkscape:cy="9.098036"
     inkscape:window-width="1920"
     inkscape:window-height="1053"
     inkscape:window-x="0"
     inkscape:window-y="27"
     inkscape:window-maximized="1"
     inkscape:current-layer="g3631" />
  <g
     clip-path="url(#clip0_650_134)"
     id="g3631">
    <path
       d="M 8.16641,1.24961 C 8.08725,1.13087 7.91275,1.13087 7.83359,1.24962 L 5.87396,4.18906 C 5.78535,4.32197 5.88063,4.5 6.04037,4.5 H 9.95963 C 10.1194,4.5 10.2146,4.32197 10.126,4.18906 Z M 8,6.83333 C 7.35567,6.83333 6.83333,7.35567 6.83333,8 6.83333,8.64433 7.35567,9.16667 8,9.16667 8.64433,9.16667 9.16667,8.64433 9.16667,8 9.16667,7.35567 8.64433,6.83333 8,6.83333 Z M 6.04037,11.5 c -0.15974,0 -0.25502,0.178 -0.16641,0.3109 l 1.95963,2.9395 c 0.07916,0.1187 0.25366,0.1187 0.33282,0 L 10.126,11.8109 C 10.2146,11.678 10.1194,11.5 9.95963,11.5 Z"
       fill="url(#paint0_linear_650_134)"
       id="path3625"
       sodipodi:nodetypes="cccssccssssssccccss" />
    <path
       d="M 8.16641,1.24961 C 8.08725,1.13087 7.91275,1.13087 7.83359,1.24962 L 5.87396,4.18906 C 5.78535,4.32197 5.88063,4.5 6.04037,4.5 H 9.95963 C 10.1194,4.5 10.2146,4.32197 10.126,4.18906 Z M 8,6.83333 C 7.35567,6.83333 6.83333,7.35567 6.83333,8 6.83333,8.64433 7.35567,9.16667 8,9.16667 8.64433,9.16667 9.16667,8.64433 9.16667,8 9.16667,7.35567 8.64433,6.83333 8,6.83333 Z M 6.04037,11.5 c -0.15974,0 -0.25502,0.178 -0.16641,0.3109 l 1.95963,2.9395 c 0.07916,0.1187 0.25366,0.1187 0.33282,0 L 10.126,11.8109 C 10.2146,11.678 10.1194,11.5 9.95963,11.5 Z"
       stroke="url(#paint1_linear_650_134)"
       stroke-width="0.6"
       id="path3629"
       sodipodi:nodetypes="cccssccssssssccccss" />
  </g>
  <defs
     id="defs3646">
    <linearGradient
       id="paint0_linear_650_134"
       x1="3.5375"
       y1="13.3472"
       x2="16.1622"
       y2="2.33196"
       gradientUnits="userSpaceOnUse">
      <stop
         stop-color="#FE0844"
         id="stop3633" />
      <stop
         offset="1"
         stop-color="#FEB302"
         id="stop3635" />
    </linearGradient>
    <linearGradient
       id="paint1_linear_650_134"
       x1="3.5375"
       y1="13.3472"
       x2="16.1622"
       y2="2.33196"
       gradientUnits="userSpaceOnUse">
      <stop
         stop-color="#FE0844"
         id="stop3638" />
      <stop
         offset="1"
         stop-color="#FEB302"
         id="stop3640" />
    </linearGradient>
    <clipPath
       id="clip0_650_134">
      <rect
         width="16"
         height="16"
         fill="white"
         id="rect3643" />
    </clipPath>
  </defs>
</svg>
