<?xml version="1.0" encoding="UTF-8" standalone="no"?>
<svg
   width="48"
   height="48"
   viewBox="0 0 48 48"
   fill="none"
   version="2"
   id="svg1"
   sodipodi:docname="folder-torrent.svg"
   inkscape:version="1.4.2 (ebf0e940d0, 2025-05-08)"
   xml:space="preserve"
   xmlns:inkscape="http://www.inkscape.org/namespaces/inkscape"
   xmlns:sodipodi="http://sodipodi.sourceforge.net/DTD/sodipodi-0.dtd"
   xmlns:xlink="http://www.w3.org/1999/xlink"
   xmlns="http://www.w3.org/2000/svg"
   xmlns:svg="http://www.w3.org/2000/svg"
   xmlns:rdf="http://www.w3.org/1999/02/22-rdf-syntax-ns#"
   xmlns:cc="http://creativecommons.org/ns#"
   xmlns:dc="http://purl.org/dc/elements/1.1/"><title
     id="title1">folder-</title><sodipodi:namedview
     id="namedview1"
     pagecolor="#3f4354"
     bordercolor="#000000"
     borderopacity="0.5"
     inkscape:showpageshadow="1"
     inkscape:pageopacity="0"
     inkscape:pagecheckerboard="1"
     inkscape:deskcolor="#2b2f40"
     showgrid="false"
     inkscape:zoom="17.3125"
     inkscape:cx="24.115523"
     inkscape:cy="24"
     inkscape:window-width="1920"
     inkscape:window-height="1048"
     inkscape:window-x="0"
     inkscape:window-y="0"
     inkscape:window-maximized="1"
     inkscape:current-layer="g2" /><g
     id="g1"><g
       id="g11"
       transform="matrix(0.74999965,0,0,0.74999965,3.7743922e-7,1.908614e-5)"
       style="fill:url(#linearGradient3)"><path
         d="M 8.24717,5.28688 C 10.8404,4.80099 13.5052,5.09747 16.1297,5.01923 18.8839,5.09747 21.902,4.61569 24.37,6.03631 c 2.3518,1.37121 3.8988,3.59891 6.0002,5.24599 0.7735,0.5518 1.7751,0.7577 2.7453,0.7412 9.4028,0 18.8055,0.0124 28.2083,0.0659 1.6185,-0.1277 3.018,1.4165 2.6022,2.8577 -0.2281,1.1159 -1.404,1.9436 -2.6291,1.8695 C 51.7466,16.8289 42.1963,16.7836 32.646,16.7754 30.4597,16.763 28.2778,16.0177 26.6547,14.663 24.6696,13.1765 23.3506,10.8953 21.0033,9.87817 17.7483,9.63934 14.462,9.84523 11.1981,9.77522 8.9536,9.63934 6.7091,10.8252 5.75228,12.7029 c -0.65725,1.1901 -0.541,2.5572 -0.54994,3.846 0.02235,10.8503 -0.00895,21.7005 0.01341,32.5549 -0.03577,2.0342 1.4084,3.9777 3.4517,4.7354 1.21614,0.4777 2.56645,0.3871 3.85855,0.3953 13.5833,-0.0206 27.1665,0.0083 40.7453,-0.0165 2.1014,0.0083 4.1134,-1.2023 4.9898,-2.9524 0.7019,-1.3135 0.5007,-2.8124 0.5275,-4.2248 0.009,-6.0284 -0.0312,-12.0567 0.0179,-18.0851 -0.0357,-1.3548 1.3995,-2.4954 2.8481,-2.3183 1.4219,0.0865 2.486,1.3712 2.325,2.6601 0,6.7366 0.0313,13.4732 -0.0134,20.214 C 63.9036,54.498 59.1016,58.8917 53.696,58.974 39.384,59.0234 25.0675,58.9864 10.7555,58.9905 6.61521,59.0317 2.60462,56.6516 0.945834,53.1557 0.163389,51.6362 -0.0243975,49.9356 0.00242916,48.272 0.0381981,37.01 -0.0243977,25.7397 0.0337268,14.4777 0.114207,10.1664 3.70004,6.22985 8.24717,5.28688 Z"
         id="path111"
         style="fill:url(#linearGradient2);fill-opacity:1;stroke:url(#linearGradient30);stroke-width:0;stroke-dasharray:none" /></g><g
       style="fill:none"
       id="g2"
       transform="matrix(0.41384398,0,0,0.41384398,10.757165,13.365579)"><path
         fill-rule="evenodd"
         clip-rule="evenodd"
         d="M 51.2321,11.6816 C 45.1723,5.80477 36.3257,3.05468 27.9912,4.29076 22.3154,5.10262 16.8956,7.70277 12.7593,11.6816 c -0.8887,0.8155 -0.7387,2.3917 0.2231,3.0902 0.885,0.7058 2.2089,0.4571 2.9403,-0.3511 4.2826,-3.9532 10.0608,-6.2352 15.8902,-6.23886 5.7928,-0.0768 11.5857,2.06626 15.9047,5.93176 0.6473,0.5924 1.4154,1.2616 2.3735,1.0385 1.5762,-0.1755 2.3112,-2.399 1.141,-3.4705 z m -29.6703,3.7522 c -0.9106,-0.0475 -1.8396,0.5302 -2.0882,1.4299 -0.4682,1.1995 0.5229,2.6478 1.792,2.7062 1.3301,0.0582 2.6622,0.0459 3.9937,0.0336 1.3482,-0.0124 2.696,-0.0248 4.0409,0.0359 0.4679,0.2498 0.4604,0.7361 0.4532,1.199 -0.002,0.1268 -0.0039,0.2519 0.0039,0.3699 -0.0101,3.6051 -0.009,7.2092 -0.0078,10.8133 9e-4,2.8853 0.0018,5.7707 -0.0031,8.6567 -0.4326,0.0077 -0.8652,0.002 -1.2976,-0.0037 -0.8069,-0.0106 -1.6133,-0.0213 -2.4181,0.0549 -0.5485,0.2377 -0.2157,0.8777 -0.0035,1.2324 0.7216,1.2937 1.4374,2.5914 2.1534,3.8894 0.9821,1.7803 1.9645,3.5613 2.9628,5.3336 0.2633,0.6584 1.1044,0.6291 1.3678,-0.0145 0.919,-1.5578 1.8242,-3.1245 2.7293,-4.6914 0.831,-1.4384 1.662,-2.8768 2.5039,-4.3086 0.0388,-0.085 0.0934,-0.179 0.1509,-0.278 0.2243,-0.386 0.492,-0.847 0.032,-1.141 -0.8518,-0.1053 -1.7112,-0.0907 -2.5704,-0.0762 -0.4834,0.0081 -0.9668,0.0163 -1.4487,0.0031 -0.0049,-2.8828 -0.004,-5.7657 -0.0031,-8.6486 0.0011,-3.6083 0.0023,-7.2167 -0.0079,-10.8251 0.0059,-0.11 0.0045,-0.2252 0.0032,-0.3419 -0.0054,-0.4654 -0.011,-0.9535 0.4393,-1.2196 1.4401,-0.0648 2.8823,-0.0537 4.3249,-0.0425 1.2428,0.0096 2.4858,0.0192 3.728,-0.0197 1.2252,0.0475 2.2492,-1.1922 2.0224,-2.3917 -0.1499,-1.1118 -1.2727,-1.8541 -2.3515,-1.759 -2.1007,0 -4.2018,-0.0014 -6.3031,-0.0028 -4.7321,-0.0031 -9.4653,-0.0063 -14.1986,0.0064 z"
         fill="url(#paint0_linear_1012_841)"
         id="path1"
         style="fill:url(#linearGradient4)" /><path
         d="m 27.9911,4.29072 0.1416,0.98994 0.0051,-7.6e-4 z m 23.2409,7.39088 -0.6961,0.7179 0.0103,0.01 0.0105,0.0096 z m -38.4728,0 0.6762,0.7368 0.0086,-0.0079 0.0085,-0.0082 z M 12.9823,14.7718 13.6058,13.99 13.5882,13.9759 13.57,13.9627 Z m 2.9403,-0.3511 -0.6783,-0.7348 -0.033,0.0305 -0.0301,0.0333 z m 15.8902,-6.2389 6e-4,1.00008 0.0126,-1.7e-4 z m 15.9047,5.9318 0.6752,-0.7378 -0.0083,-0.0074 z m 2.3735,1.0385 -0.1107,-0.9938 -0.0586,0.0065 -0.0575,0.0134 z m -30.6175,1.7116 0.9316,0.3636 0.0186,-0.0478 0.0137,-0.0494 z m 2.0882,-1.4299 -0.0521,0.9987 0.0274,0.0014 0.0274,-10e-5 z m -0.2962,4.1361 -0.046,0.9989 0.0023,10e-5 z m 8.0346,0.0695 0.4709,-0.8822 -0.1997,-0.1066 -0.2261,-0.0102 z m 0.4571,1.5689 1,0.0028 10e-5,-0.0347 -0.0023,-0.0347 z m -0.0109,19.47 0.0177,0.9999 0.9806,-0.0174 0.0017,-0.9808 z m -3.7157,0.0512 -0.0942,-0.9956 -0.1579,0.015 -0.1455,0.063 z m -0.0035,1.2324 0.8733,-0.4871 -0.0074,-0.0132 -0.0077,-0.0129 z m 5.1162,9.223 0.9286,-0.3713 -0.0247,-0.0616 -0.0326,-0.0578 z m 1.3678,-0.0145 -0.8613,-0.5082 -0.0368,0.0624 -0.0274,0.0671 z m 5.2332,-9 0.862,0.5069 0.0263,-0.0447 0.0216,-0.0472 z m 0.1829,-1.419 0.5386,-0.8426 -0.191,-0.122 -0.2249,-0.0278 z m -4.0191,-0.0731 -1,0.0017 0.0016,0.9714 0.971,0.0266 z m -0.011,-19.4737 -0.9986,-0.0534 -0.0015,0.0281 1e-4,0.0281 z m 0.4425,-1.5615 -0.0449,-0.999 -0.2491,0.0112 -0.2146,0.1268 z m 8.0529,-0.0622 0.0388,-0.9993 -0.035,-0.0013 -0.0351,0.0011 z m 2.0224,-2.3917 -0.991,0.1337 0.0035,0.0261 0.0049,0.026 z m -2.3515,-1.759 v 1 h 0.0439 l 0.0438,-0.0039 z M 28.1378,5.2799 c 8.0345,-1.19158 16.5673,1.46485 22.3981,7.1196 l 1.3923,-1.4358 C 45.6393,4.86472 36.479,2.02096 27.8444,3.30154 Z M 13.4525,12.4023 C 17.4342,8.57211 22.6597,6.06352 28.1327,5.28066 L 27.8495,3.3008 C 21.971,4.14166 16.3568,6.83335 12.066,10.9609 Z m 0.1175,1.5604 c -0.2112,-0.1534 -0.3695,-0.436 -0.3963,-0.7718 -0.0267,-0.3329 0.0831,-0.6086 0.2617,-0.7725 l -1.3523,-1.4736 c -0.7101,0.6516 -0.9697,1.5718 -0.9031,2.4055 0.0664,0.8307 0.464,1.6854 1.2147,2.2306 z m 1.6112,-0.213 c -0.4514,0.4988 -1.1846,0.552 -1.5754,0.2403 l -1.247,1.5636 c 1.3792,1.1 3.2938,0.6558 4.3053,-0.4619 z M 31.8121,7.1818 C 25.7292,7.18562 19.7097,9.56387 15.2443,13.6859 l 1.3566,1.4696 c 4.0997,-3.7844 9.6366,-5.97012 15.2125,-5.97362 z m 16.5723,6.1866 C 43.8764,9.3337 37.84,7.10181 31.7995,7.18189 L 31.826,9.18171 C 37.3713,9.1082 42.9206,11.1624 47.0506,14.8587 Z m 1.4798,0.8098 c -0.1749,0.0407 -0.3538,0.0151 -0.5989,-0.1181 -0.2706,-0.1471 -0.541,-0.3808 -0.8726,-0.6843 l -1.3503,1.4754 c 0.3157,0.289 0.7529,0.6862 1.2677,0.966 0.5402,0.2937 1.2244,0.4912 2.0076,0.3089 z m 0.6925,-1.7591 c 0.2262,0.2071 0.3285,0.5852 0.185,1.0208 -0.1437,0.436 -0.4533,0.6841 -0.7614,0.7184 l 0.2213,1.9877 c 1.2681,-0.1412 2.1142,-1.0927 2.4396,-2.0802 0.3255,-0.9879 0.2102,-2.2573 -0.7338,-3.1217 z m -30.1193,4.711 c 0.107,-0.3873 0.5648,-0.7241 1.0722,-0.6976 l 0.1043,-1.9973 C 20.3,14.3666 18.8998,15.1853 18.5096,16.5974 Z m 0.8741,1.4408 c -0.2616,-0.012 -0.5577,-0.1768 -0.7627,-0.4828 -0.2036,-0.3039 -0.2362,-0.624 -0.1437,-0.8608 L 18.542,16.5001 c -0.3758,0.9627 -0.1469,1.9665 0.3452,2.7012 0.4908,0.7326 1.3248,1.3211 2.3323,1.3675 z m 3.9385,0.0327 c -1.336,0.0123 -2.6415,0.0241 -3.9408,-0.0328 l -0.0874,1.9981 c 1.361,0.0596 2.7195,0.0468 4.0466,0.0346 z m 4.0952,0.0368 C 27.9686,18.5783 26.5936,18.5912 25.25,18.6036 l 0.0184,1.9999 c 1.3528,-0.0125 2.6733,-0.0244 3.9866,0.0349 z m 1.408,2.2135 c 0.0031,-0.1993 0.0159,-0.5818 -0.0815,-0.9506 -0.114,-0.4309 -0.3806,-0.8685 -0.9007,-1.1461 l -0.9418,1.7644 c -0.0081,-0.0044 -0.0368,-0.0234 -0.0641,-0.0604 -0.0249,-0.0337 -0.0296,-0.0565 -0.027,-0.0466 0.0036,0.0137 0.0108,0.0502 0.0144,0.125 0.0038,0.077 0.0028,0.1617 9e-4,0.2832 z m 0.0018,0.2878 c -0.0046,-0.0695 -0.0039,-0.1522 -0.0018,-0.2878 l -1.9998,-0.0311 c -0.0018,0.1181 -0.005,0.2856 0.0061,0.452 z m -0.0056,10.8796 c -0.0012,-3.6044 -0.0023,-7.2069 0.0078,-10.8102 l -2,-0.0056 c -0.0101,3.6069 -0.009,7.2125 -0.0078,10.8164 z M 30.7463,40.68 c 0.0049,-2.8872 0.004,-5.7736 0.0031,-8.6587 l -2,6e-4 c 9e-4,2.8855 0.0018,5.7698 -0.0031,8.6547 z m -2.3108,0.9945 c 0.4299,0.0057 0.8779,0.0116 1.3285,0.0037 l -0.0354,-1.9997 c -0.4146,0.0073 -0.8317,0.0019 -1.2667,-0.0038 z m -2.3107,0.0505 c 0.7424,-0.0702 1.4949,-0.0613 2.3107,-0.0505 l 0.0264,-1.9998 c -0.798,-0.0105 -1.6582,-0.0228 -2.5255,0.0592 z m 0.7605,-0.2763 c -0.0455,-0.0761 -0.0856,-0.1479 -0.1165,-0.2148 -0.015,-0.0326 -0.0255,-0.059 -0.0325,-0.0793 -0.0071,-0.0208 -0.0083,-0.029 -0.0078,-0.026 5e-4,0.0027 0.0045,0.0262 0.002,0.0658 -0.0027,0.0411 -0.0127,0.1027 -0.0432,0.1736 -0.0316,0.0733 -0.0779,0.1394 -0.1333,0.1922 -0.0537,0.0512 -0.1018,0.0765 -0.1257,0.0868 L 25.633,39.8119 c -0.3364,0.1458 -0.6253,0.3996 -0.7826,0.765 -0.1459,0.3389 -0.1324,0.6668 -0.0917,0.8981 0.0765,0.4348 0.3053,0.8249 0.4101,1.0001 z m 2.1708,3.9195 c -0.7158,-1.2976 -1.4327,-2.5973 -2.1557,-3.8934 l -1.7467,0.9743 c 0.7203,1.2913 1.435,2.5869 2.1512,3.8852 z m 2.9585,5.326 c -0.9957,-1.7679 -1.976,-3.545 -2.9585,-5.326 l -1.7512,0.9661 c 0.9817,1.7797 1.9663,3.5645 2.9671,5.3414 z m -0.429,0.0975 c 0.017,-0.0417 0.0931,-0.1231 0.2217,-0.1256 0.0592,-0.0012 0.1224,0.0155 0.1774,0.0521 0.058,0.0385 0.0819,0.0822 0.0872,0.0954 l -1.8571,0.7426 c 0.2853,0.7134 0.9376,1.1233 1.6322,1.1095 0.6809,-0.0135 1.3092,-0.4313 1.5896,-1.1166 z m 2.789,-4.8129 c -0.9056,1.5675 -1.8085,3.1303 -2.7248,4.6834 l 1.7226,1.0163 c 0.9217,-1.5624 1.8291,-3.1331 2.7339,-4.6993 z m 2.5077,-4.3153 c -0.8442,1.4356 -1.6771,2.8775 -2.5077,4.3153 l 1.7317,1.0004 c 0.8313,-1.4389 1.6604,-2.874 2.5,-4.3019 z m 0.1482,-0.2734 c -0.0502,0.0866 -0.1326,0.2264 -0.196,0.3653 l 1.8197,0.83 c 0.0142,-0.0311 0.041,-0.0793 0.1057,-0.1907 z m 0.3582,0.2039 c -0.0274,-0.0175 -0.1148,-0.0861 -0.1699,-0.2245 -0.0523,-0.1314 -0.0396,-0.2358 -0.0339,-0.266 0.0043,-0.0232 0.0054,-0.0104 -0.0254,0.0532 -0.0302,0.0625 -0.0695,0.1311 -0.129,0.2334 l 1.7294,1.0046 c 0.0867,-0.1492 0.3153,-0.5194 0.3909,-0.9234 0.0431,-0.2304 0.0505,-0.5293 -0.074,-0.8419 -0.1272,-0.3195 -0.3537,-0.5561 -0.611,-0.7206 z m -2.015,0.081 c 0.8711,-0.0147 1.6601,-0.0264 2.4309,0.0689 l 0.2453,-1.9849 c -0.933,-0.1153 -1.8627,-0.098 -2.71,-0.0837 z m -1.493,0.003 c 0.5078,0.0138 1.0133,0.0051 1.493,-0.003 l -0.0338,-1.9997 c -0.4871,0.0082 -0.9484,0.0159 -1.4045,0.0034 z M 32.905,32.0294 c -9e-4,2.8827 -0.0018,5.7666 0.0031,8.6506 L 34.908,40.6766 C 34.9032,37.795 34.9041,34.9131 34.905,32.0301 Z m -0.0079,-10.822 c 0.0102,3.6066 0.009,7.2134 0.0079,10.822 l 2,7e-4 C 34.9061,28.422 34.9073,24.812 34.8971,21.2018 Z m 0.0033,-0.3332 c 0.0014,0.1233 0.0019,0.2053 -0.0019,0.277 l 1.9972,0.1068 c 0.0079,-0.1482 0.0058,-0.2967 0.0045,-0.4068 z m 0.9306,-2.0921 c -0.498,0.2943 -0.745,0.7319 -0.8512,1.1499 -0.0923,0.3637 -0.0818,0.7393 -0.0794,0.9422 l 1.9998,-0.023 c -0.0014,-0.1218 -0.0021,-0.2086 0.0019,-0.2881 0.0039,-0.0774 0.0112,-0.1189 0.0162,-0.1388 0.0042,-0.0167 0.0028,-0.0015 -0.0163,0.0259 -0.0214,0.0309 -0.0451,0.0488 -0.0537,0.0538 z m 4.8413,-0.1815 c -1.4382,-0.0111 -2.9068,-0.0227 -4.3776,0.0435 l 0.0899,1.998 c 1.4094,-0.0635 2.8252,-0.0527 4.2722,-0.0416 z m 3.6889,-0.0192 c -1.2195,0.0382 -2.4429,0.0288 -3.6889,0.0192 l -0.0155,1.9999 c 1.2395,0.0096 2.502,0.0195 3.7671,-0.0201 z m 1.0711,-1.2064 c 0.1128,0.5963 -0.4464,1.2281 -1.001,1.2066 l -0.0776,1.9985 c 1.8957,0.0736 3.3846,-1.7739 3.0438,-3.5767 z m -1.2812,-0.9487 c 0.6416,-0.0565 1.2064,0.404 1.2728,0.8966 l 1.9821,-0.2674 c -0.2335,-1.7309 -1.9143,-2.755 -3.4304,-2.6215 z m -6.3915,0.0011 c 2.1013,0.0014 4.2027,0.0028 6.3038,0.0028 v -2 c -2.1004,0 -4.2011,-0.0014 -6.3025,-0.0028 z m -14.1952,0.0064 c 4.7313,-0.0127 9.4629,-0.0095 14.1952,-0.0064 l 0.0013,-2 C 31.0292,14.4243 26.2942,14.4211 21.559,14.4338 Z"
         fill="url(#paint1_linear_1012_841)"
         id="path2"
         style="fill:url(#paint1_linear_1012_841)" /><path
         d="m 6.07342,22.5614 c 1.34581,-1.0131 3.5291,0.2303 3.22922,1.9163 -0.38399,1.7224 -0.90331,3.4192 -1.02399,5.1893 -0.57782,5.7744 1.02399,11.7464 4.48725,16.4127 3.6315,4.9809 9.2561,8.4624 15.3526,9.4352 5.8879,0.9874 12.1415,-0.3255 17.0896,-3.679 5.1455,-3.4084 8.8539,-8.8902 10.1009,-14.9353 0.8704,-3.9825 0.5998,-8.1588 -0.5485,-12.0573 -0.4206,-1.2287 0.6034,-2.6513 1.9053,-2.633 0.9911,-0.0841 1.909,0.6692 2.1248,1.6237 1.9785,6.4437 1.5141,13.6005 -1.28,19.7297 C 54.9323,49.265 50.3865,54.0411 44.8204,56.8973 40.1723,59.3036 34.8292,60.3494 29.6142,59.885 22.4902,59.3328 15.6843,55.8366 10.9885,50.4682 5.04577,43.8234 2.65402,34.2492 4.74223,25.5858 5.0604,24.5471 5.1116,23.2452 6.07342,22.5614 Z"
         fill="url(#paint2_linear_1012_841)"
         stroke="url(#paint3_linear_1012_841)"
         stroke-width="2"
         id="path3"
         style="fill:url(#paint2_linear_1012_841);stroke:url(#paint3_linear_1012_841)" /></g></g><defs
     id="defs1"><linearGradient
       id="paint0_linear_1012_841"
       x1="31.9884"
       y1="51.666"
       x2="31.9884"
       y2="4"
       gradientUnits="userSpaceOnUse"><stop
         stop-color="#A93AFF"
         id="stop3" /><stop
         offset="1"
         stop-color="#FF81FF"
         id="stop4" /></linearGradient><linearGradient
       id="paint1_linear_1012_841"
       x1="31.9877"
       y1="52.666"
       x2="31.9877"
       y2="3"
       gradientUnits="userSpaceOnUse"><stop
         stop-color="#A93AFF"
         id="stop5" /><stop
         offset="1"
         stop-color="#FF81FF"
         id="stop6" /></linearGradient><linearGradient
       id="paint2_linear_1012_841"
       x1="32"
       y1="59.9926"
       x2="32"
       y2="22.1963"
       gradientUnits="userSpaceOnUse"><stop
         stop-color="#A93AFF"
         id="stop7" /><stop
         offset="1"
         stop-color="#FF81FF"
         id="stop8" /></linearGradient><linearGradient
       id="paint3_linear_1012_841"
       x1="32"
       y1="59.9927"
       x2="32"
       y2="22.1964"
       gradientUnits="userSpaceOnUse"><stop
         stop-color="#A93AFF"
         id="stop9" /><stop
         offset="1"
         stop-color="#FF81FF"
         id="stop10" /></linearGradient><linearGradient
       inkscape:collect="always"
       xlink:href="#paint0_linear_1012_841"
       id="linearGradient2"
       gradientUnits="userSpaceOnUse"
       x1="32.000015"
       y1="58.999977"
       x2="32.000015"
       y2="5.000001" /><linearGradient
       inkscape:collect="always"
       xlink:href="#paint0_linear_1012_841"
       id="linearGradient4"
       gradientUnits="userSpaceOnUse"
       x1="31.9884"
       y1="51.666"
       x2="31.9884"
       y2="4" /></defs><metadata
     id="metadata1"><rdf:RDF><cc:Work
         rdf:about=""><dc:title>folder-</dc:title><dc:date>26-07-2025</dc:date><dc:description>Beautyline style * folder icon</dc:description><cc:license
           rdf:resource="http://creativecommons.org/licenses/by-nc-sa/4.0/" /></cc:Work><cc:License
         rdf:about="http://creativecommons.org/licenses/by-nc-sa/4.0/"><cc:permits
           rdf:resource="http://creativecommons.org/ns#Reproduction" /><cc:permits
           rdf:resource="http://creativecommons.org/ns#Distribution" /><cc:requires
           rdf:resource="http://creativecommons.org/ns#Notice" /><cc:requires
           rdf:resource="http://creativecommons.org/ns#Attribution" /><cc:prohibits
           rdf:resource="http://creativecommons.org/ns#CommercialUse" /><cc:permits
           rdf:resource="http://creativecommons.org/ns#DerivativeWorks" /><cc:requires
           rdf:resource="http://creativecommons.org/ns#ShareAlike" /></cc:License></rdf:RDF></metadata></svg>
