<?xml version="1.0" encoding="UTF-8" standalone="no"?>
<svg
   width="48"
   height="48"
   viewBox="0 0 48 48"
   fill="none"
   version="2"
   id="svg1"
   sodipodi:docname="folder-bookmark.svg"
   inkscape:version="1.4.2 (ebf0e940d0, 2025-05-08)"
   xml:space="preserve"
   xmlns:inkscape="http://www.inkscape.org/namespaces/inkscape"
   xmlns:sodipodi="http://sodipodi.sourceforge.net/DTD/sodipodi-0.dtd"
   xmlns:xlink="http://www.w3.org/1999/xlink"
   xmlns="http://www.w3.org/2000/svg"
   xmlns:svg="http://www.w3.org/2000/svg"
   xmlns:rdf="http://www.w3.org/1999/02/22-rdf-syntax-ns#"
   xmlns:cc="http://creativecommons.org/ns#"
   xmlns:dc="http://purl.org/dc/elements/1.1/"><title
     id="title1">folder-bookmark</title><sodipodi:namedview
     id="namedview1"
     pagecolor="#3f4354"
     bordercolor="#000000"
     borderopacity="0.5"
     inkscape:showpageshadow="1"
     inkscape:pageopacity="0"
     inkscape:pagecheckerboard="1"
     inkscape:deskcolor="#2b2f40"
     showgrid="false"
     inkscape:zoom="15.229167"
     inkscape:cx="24"
     inkscape:cy="24"
     inkscape:window-width="1920"
     inkscape:window-height="1048"
     inkscape:window-x="0"
     inkscape:window-y="0"
     inkscape:window-maximized="1"
     inkscape:current-layer="g1" /><g
     id="g1"><g
       style="fill:none"
       id="g12"
       transform="matrix(1.1771536,0,0,1.1771536,11.229059,13.583877)"><path
         fill-rule="evenodd"
         clip-rule="evenodd"
         d="M 5.5,6.17846 C 5.5,5.31702 5.77644,4.88785 6.10916,4.63299 6.49808,4.3351 7.16372,4.125 8.17376,4.125 h 5.37334 c 0.9822,0 1.6636,0.19731 2.0689,0.48795 0.3398,0.24362 0.6049,0.63357 0.6049,1.41044 V 17.7503 L 11.711,15.2947 11.7075,15.2929 c -0.5431,-0.2935 -1.1975,-0.2935 -1.74071,0 L 9.9606,15.2962 5.5,17.7399 Z M 3.09392,18.3952 c 0.00542,0.3255 0.08692,0.6452 0.23799,0.9336 0.00682,0.0131 0.01383,0.0259 0.02104,0.0385 0.54115,0.9547 1.74136,1.3108 2.71609,0.8042 0.00777,-0.004 0.01554,-0.0082 0.02324,-0.0124 l 4.74572,-2.5999 4.7778,2.6014 c 0.0086,0.0047 0.0173,0.0093 0.0261,0.0138 0.2891,0.1483 0.6085,0.2282 0.9333,0.2334 0.0064,10e-5 0.0128,10e-5 0.0191,10e-5 0.5392,0 1.0562,-0.2142 1.4374,-0.5954 0.3812,-0.3812 0.5954,-0.8982 0.5954,-1.4374 V 6.02339 c 0,-1.45622 -0.5646,-2.61705 -1.6089,-3.3659 C 16.0395,1.95566 14.7825,1.71875 13.5471,1.71875 H 8.17376 c -1.27734,0 -2.55011,0.25512 -3.52781,1.00398 -1.03389,0.79191 -1.5522,1.99101 -1.5522,3.45573 V 18.3751 c 0,0.0067 6e-5,0.0134 1.7e-4,0.0201 z M 7.7473,7.26265 c -0.66447,0 -1.20313,0.53865 -1.20313,1.20312 0,0.66447 0.53866,1.20313 1.20313,1.20313 h 6.1797 c 0.6645,0 1.2032,-0.53866 1.2032,-1.20313 0,-0.66447 -0.5387,-1.20312 -1.2032,-1.20312 z"
         fill="url(#paint0_linear_451_3384)"
         id="path1"
         style="fill:url(#paint0_linear_451_3384)" /></g><g
       id="g11"
       transform="matrix(0.74999965,0,0,0.74999965,3.7743922e-7,1.908614e-5)"><path
         d="M 8.24717,5.28688 C 10.8404,4.80099 13.5052,5.09747 16.1297,5.01923 18.8839,5.09747 21.902,4.61569 24.37,6.03631 c 2.3518,1.37121 3.8988,3.59891 6.0002,5.24599 0.7735,0.5518 1.7751,0.7577 2.7453,0.7412 9.4028,0 18.8055,0.0124 28.2083,0.0659 1.6185,-0.1277 3.018,1.4165 2.6022,2.8577 -0.2281,1.1159 -1.404,1.9436 -2.6291,1.8695 C 51.7466,16.8289 42.1963,16.7836 32.646,16.7754 30.4597,16.763 28.2778,16.0177 26.6547,14.663 24.6696,13.1765 23.3506,10.8953 21.0033,9.87817 17.7483,9.63934 14.462,9.84523 11.1981,9.77522 8.9536,9.63934 6.7091,10.8252 5.75228,12.7029 c -0.65725,1.1901 -0.541,2.5572 -0.54994,3.846 0.02235,10.8503 -0.00895,21.7005 0.01341,32.5549 -0.03577,2.0342 1.4084,3.9777 3.4517,4.7354 1.21614,0.4777 2.56645,0.3871 3.85855,0.3953 13.5833,-0.0206 27.1665,0.0083 40.7453,-0.0165 2.1014,0.0083 4.1134,-1.2023 4.9898,-2.9524 0.7019,-1.3135 0.5007,-2.8124 0.5275,-4.2248 0.009,-6.0284 -0.0312,-12.0567 0.0179,-18.0851 -0.0357,-1.3548 1.3995,-2.4954 2.8481,-2.3183 1.4219,0.0865 2.486,1.3712 2.325,2.6601 0,6.7366 0.0313,13.4732 -0.0134,20.214 C 63.9036,54.498 59.1016,58.8917 53.696,58.974 39.384,59.0234 25.0675,58.9864 10.7555,58.9905 6.61521,59.0317 2.60462,56.6516 0.945834,53.1557 0.163389,51.6362 -0.0243975,49.9356 0.00242916,48.272 0.0381981,37.01 -0.0243977,25.7397 0.0337268,14.4777 0.114207,10.1664 3.70004,6.22985 8.24717,5.28688 Z"
         id="path111"
         style="fill:url(#linearGradient30);fill-opacity:1;stroke:url(#linearGradient30);stroke-width:0;stroke-dasharray:none" /></g><rect
       style="stroke:#000000;stroke-width:3.9;stroke-linejoin:round;stroke-dasharray:none;stroke-opacity:0;paint-order:fill markers stroke"
       id="rect1"
       width="44.075188"
       height="31.645638"
       x="1.9758538"
       y="10.78429" /></g><defs
     id="defs1"><linearGradient
       id="linearGradient6"
       inkscape:collect="always"
       inkscape:label="1"><stop
         style="stop-color:#f9d423;stop-opacity:1;"
         offset="0"
         id="stop5" /><stop
         style="stop-color:#ff4e50;stop-opacity:1;"
         offset="0.5"
         id="stop4" /><stop
         style="stop-color:#8a2387;stop-opacity:1;"
         offset="1"
         id="stop6" /></linearGradient><linearGradient
       inkscape:collect="always"
       xlink:href="#linearGradient6"
       id="linearGradient30"
       gradientUnits="userSpaceOnUse"
       gradientTransform="matrix(1.421128,-0.01199146,0.01198687,1.4216711,-101.30678,-100.47471)"
       x1="70.655365"
       y1="74.786613"
       x2="119.735"
       y2="107.6313" /><linearGradient
       id="paint1_linear"
       x1="4.5768099"
       y1="45.678902"
       x2="42.3731"
       y2="4.1876402"
       gradientUnits="userSpaceOnUse"
       gradientTransform="matrix(1.4285714,0,0,1.4285714,-8.757358,-11.86756)"><stop
         stop-color="#FF5508"
         id="stop4-7" /><stop
         offset="1"
         stop-color="#FFA208"
         id="stop5-8" /></linearGradient><linearGradient
       id="paint0_linear"
       x1="4.5768099"
       y1="45.678799"
       x2="42.3731"
       y2="4.1875501"
       gradientUnits="userSpaceOnUse"
       gradientTransform="matrix(1.4285714,0,0,1.4285714,-8.757358,-11.86756)"><stop
         stop-color="#FF5508"
         id="stop2-4" /><stop
         offset="1"
         stop-color="#FFA208"
         id="stop3-5" /></linearGradient><linearGradient
       id="paint0_linear_451_3384"
       x1="2.86923"
       y1="1.90265"
       x2="21.9162"
       y2="18.2177"
       gradientUnits="userSpaceOnUse"><stop
         stop-color="#F9D423"
         id="stop1" /><stop
         offset="0.515624"
         stop-color="#FF4E50"
         id="stop2" /><stop
         offset="0.991304"
         stop-color="#8A2387"
         id="stop3" /></linearGradient></defs><metadata
     id="metadata1"><rdf:RDF><cc:Work
         rdf:about=""><dc:title>folder-bookmark</dc:title><dc:date>22-07-2025</dc:date><dc:description>Beautyline style bookmark folder icon</dc:description><cc:license
           rdf:resource="http://creativecommons.org/licenses/by-nc-sa/4.0/" /></cc:Work><cc:License
         rdf:about="http://creativecommons.org/licenses/by-nc-sa/4.0/"><cc:permits
           rdf:resource="http://creativecommons.org/ns#Reproduction" /><cc:permits
           rdf:resource="http://creativecommons.org/ns#Distribution" /><cc:requires
           rdf:resource="http://creativecommons.org/ns#Notice" /><cc:requires
           rdf:resource="http://creativecommons.org/ns#Attribution" /><cc:prohibits
           rdf:resource="http://creativecommons.org/ns#CommercialUse" /><cc:permits
           rdf:resource="http://creativecommons.org/ns#DerivativeWorks" /><cc:requires
           rdf:resource="http://creativecommons.org/ns#ShareAlike" /></cc:License></rdf:RDF></metadata></svg>
