<?xml version="1.0" encoding="UTF-8" standalone="no"?>
<svg
   width="48"
   height="48"
   viewBox="0 0 48 48"
   fill="none"
   version="2"
   id="svg1"
   sodipodi:docname="folder-library_rednotebook-alt.svg"
   inkscape:version="1.4.2 (ebf0e940d0, 2025-05-08)"
   xml:space="preserve"
   xmlns:inkscape="http://www.inkscape.org/namespaces/inkscape"
   xmlns:sodipodi="http://sodipodi.sourceforge.net/DTD/sodipodi-0.dtd"
   xmlns:xlink="http://www.w3.org/1999/xlink"
   xmlns="http://www.w3.org/2000/svg"
   xmlns:svg="http://www.w3.org/2000/svg"
   xmlns:rdf="http://www.w3.org/1999/02/22-rdf-syntax-ns#"
   xmlns:cc="http://creativecommons.org/ns#"
   xmlns:dc="http://purl.org/dc/elements/1.1/"><title
     id="title1">folder-library_rednotebook-alt</title><sodipodi:namedview
     id="namedview1"
     pagecolor="#3f4354"
     bordercolor="#000000"
     borderopacity="0.5"
     inkscape:showpageshadow="1"
     inkscape:pageopacity="0"
     inkscape:pagecheckerboard="1"
     inkscape:deskcolor="#2b2f40"
     showgrid="false"
     inkscape:zoom="17.6875"
     inkscape:cx="24"
     inkscape:cy="24"
     inkscape:window-width="1920"
     inkscape:window-height="1048"
     inkscape:window-x="0"
     inkscape:window-y="0"
     inkscape:window-maximized="1"
     inkscape:current-layer="g11" /><g
     id="g1"><g
       id="g11"
       transform="matrix(0.74999965,0,0,0.74999965,3.7743922e-7,1.908614e-5)"
       style="fill:url(#linearGradient3)"><path
         d="M 8.24717,5.28688 C 10.8404,4.80099 13.5052,5.09747 16.1297,5.01923 18.8839,5.09747 21.902,4.61569 24.37,6.03631 c 2.3518,1.37121 3.8988,3.59891 6.0002,5.24599 0.7735,0.5518 1.7751,0.7577 2.7453,0.7412 9.4028,0 18.8055,0.0124 28.2083,0.0659 1.6185,-0.1277 3.018,1.4165 2.6022,2.8577 -0.2281,1.1159 -1.404,1.9436 -2.6291,1.8695 C 51.7466,16.8289 42.1963,16.7836 32.646,16.7754 30.4597,16.763 28.2778,16.0177 26.6547,14.663 24.6696,13.1765 23.3506,10.8953 21.0033,9.87817 17.7483,9.63934 14.462,9.84523 11.1981,9.77522 8.9536,9.63934 6.7091,10.8252 5.75228,12.7029 c -0.65725,1.1901 -0.541,2.5572 -0.54994,3.846 0.02235,10.8503 -0.00895,21.7005 0.01341,32.5549 -0.03577,2.0342 1.4084,3.9777 3.4517,4.7354 1.21614,0.4777 2.56645,0.3871 3.85855,0.3953 13.5833,-0.0206 27.1665,0.0083 40.7453,-0.0165 2.1014,0.0083 4.1134,-1.2023 4.9898,-2.9524 0.7019,-1.3135 0.5007,-2.8124 0.5275,-4.2248 0.009,-6.0284 -0.0312,-12.0567 0.0179,-18.0851 -0.0357,-1.3548 1.3995,-2.4954 2.8481,-2.3183 1.4219,0.0865 2.486,1.3712 2.325,2.6601 0,6.7366 0.0313,13.4732 -0.0134,20.214 C 63.9036,54.498 59.1016,58.8917 53.696,58.974 39.384,59.0234 25.0675,58.9864 10.7555,58.9905 6.61521,59.0317 2.60462,56.6516 0.945834,53.1557 0.163389,51.6362 -0.0243975,49.9356 0.00242916,48.272 0.0381981,37.01 -0.0243977,25.7397 0.0337268,14.4777 0.114207,10.1664 3.70004,6.22985 8.24717,5.28688 Z"
         id="path111"
         style="fill:url(#linearGradient2);fill-opacity:1;stroke:url(#linearGradient30);stroke-width:0;stroke-dasharray:none" /></g><g
       style="fill:none"
       id="g2"
       transform="matrix(0.2037037,0,0,0.2037037,10.976411,13.570072)"><path
         d="m 45,95 c 6.6276,0 12,-5.3724 12,-12 0,-6.6276 -5.3724,-12 -12,-12 -6.6276,0 -12,5.3724 -12,12 0,6.6276 5.3724,12 12,12 z"
         fill="#ffc540"
         id="path1" /><path
         fill-rule="evenodd"
         clip-rule="evenodd"
         d="M 118,101.97 V 26.0302 C 118,20.585 115.454,16.5204 112.025,13.8713 108.651,11.2643 104.402,10 100.75,10 H 96 67 27.25 C 23.5982,10 19.3494,11.2643 15.9751,13.8713 12.5464,16.5204 10,20.585 10,26.0302 V 101.97 c 0,5.445 2.5464,9.51 5.9751,12.159 3.3743,2.607 7.6231,3.871 11.2749,3.871 h 73.5 c 3.652,0 7.901,-1.264 11.275,-3.871 C 115.454,111.48 118,107.415 118,101.97 Z M 67,24 H 27.25 C 25.0066,24 24,25.3712 24,26.2 v 75.6 c 0,0.829 1.0066,2.2 3.25,2.2 h 73.5 c 2.244,0 3.25,-1.371 3.25,-2.2 V 26.2 c 0,-0.5445 -0.351,-1.2358 -1.254,-1.7214 L 99.1746,24 H 96 v 41.4104 c 0,2.3367 -2.4713,3.4698 -3.8557,1.7678 L 83.1309,56.0961 C 82.2504,55.0135 80.763,55.013 79.8818,56.0953 L 70.855,67.1834 C 69.4704,68.8843 67,67.751 67,65.4148 Z"
         fill="url(#paint0_linear_731_18)"
         id="path2"
         style="fill:url(#paint0_linear_731_18)" /></g><rect
       style="fill:none;fill-opacity:1;fill-rule:evenodd;stroke:none;stroke-width:3.9;stroke-linejoin:round;stroke-dasharray:none;stroke-opacity:0.5;paint-order:fill markers stroke"
       id="rect1"
       width="44.075188"
       height="31.645638"
       x="1.9758538"
       y="10.78429" /></g><defs
     id="defs1"><linearGradient
       id="paint0_linear"
       x1="94.0831"
       y1="102.397"
       x2="94.0831"
       y2="5"
       gradientUnits="userSpaceOnUse"
       gradientTransform="matrix(1.0455138,0,0,1.0223426,-7.6008048,-2.552391)"><stop
         stop-color="#FD2E00"
         id="stop14" /><stop
         offset="1"
         stop-color="#FF9900"
         id="stop16" /></linearGradient><linearGradient
       id="paint1_linear"
       x1="109.531"
       y1="116.298"
       x2="109.531"
       y2="51.0875"
       gradientUnits="userSpaceOnUse"
       gradientTransform="matrix(1.0455138,0,0,1.0223426,-7.6008048,-2.552391)"><stop
         stop-color="#FD2E00"
         id="stop19" /><stop
         offset="1"
         stop-color="#FF9900"
         id="stop21" /></linearGradient><linearGradient
       id="paint2_linear"
       x1="150.75"
       y1="143.407"
       x2="150.75"
       y2="93.3464"
       gradientUnits="userSpaceOnUse"
       gradientTransform="matrix(1.0455138,0,0,1.0223426,-7.6008048,-2.552391)"><stop
         stop-color="#FD2E00"
         id="stop24" /><stop
         offset="1"
         stop-color="#FF9900"
         id="stop26" /></linearGradient><linearGradient
       id="paint3_linear"
       x1="94.9843"
       y1="134.493"
       x2="94.9843"
       y2="107.184"
       gradientUnits="userSpaceOnUse"
       gradientTransform="matrix(1.0455138,0,0,1.0223426,-7.6008048,-2.552391)"><stop
         stop-color="#FD2E00"
         id="stop29" /><stop
         offset="1"
         stop-color="#FF9900"
         id="stop31" /></linearGradient><linearGradient
       id="paint4_linear"
       x1="93.553"
       y1="165.88"
       x2="93.553"
       y2="139.751"
       gradientUnits="userSpaceOnUse"
       gradientTransform="matrix(1.0455138,0,0,1.0223426,-7.6008048,-2.552391)"><stop
         stop-color="#FD2E00"
         id="stop34" /><stop
         offset="1"
         stop-color="#FF9900"
         id="stop36" /></linearGradient><linearGradient
       id="paint5_linear"
       x1="88.5283"
       y1="187.064"
       x2="88.5283"
       y2="160.548"
       gradientUnits="userSpaceOnUse"
       gradientTransform="matrix(1.0455138,0,0,1.0223426,-7.6008048,-2.552391)"><stop
         stop-color="#FD2E00"
         id="stop39" /><stop
         offset="1"
         stop-color="#FF9900"
         id="stop41" /></linearGradient><linearGradient
       inkscape:collect="always"
       xlink:href="#paint0_linear"
       id="linearGradient3"
       x1="32.000015"
       y1="58.999977"
       x2="32.000015"
       y2="5.000001"
       gradientUnits="userSpaceOnUse" /><linearGradient
       id="paint0_linear_731_18"
       x1="20.5"
       y1="111.5"
       x2="114.5"
       y2="15.0002"
       gradientUnits="userSpaceOnUse"><stop
         stop-color="#F9D423"
         id="stop2" /><stop
         offset="0.515624"
         stop-color="#FF4E50"
         id="stop3" /><stop
         offset="0.991304"
         stop-color="#8A2387"
         id="stop4" /></linearGradient><linearGradient
       inkscape:collect="always"
       xlink:href="#paint0_linear_731_18"
       id="linearGradient2"
       gradientUnits="userSpaceOnUse"
       x1="3.7175016"
       y1="56.573238"
       x2="54.389107"
       y2="12.056969" /></defs><metadata
     id="metadata1"><rdf:RDF><cc:Work
         rdf:about=""><dc:title>folder-library_rednotebook-alt</dc:title><dc:date>26-07-2025</dc:date><dc:description>Beautyline style * folder icon. rednodebook color style alternative.</dc:description><cc:license
           rdf:resource="http://creativecommons.org/licenses/by-nc-sa/4.0/" /></cc:Work><cc:License
         rdf:about="http://creativecommons.org/licenses/by-nc-sa/4.0/"><cc:permits
           rdf:resource="http://creativecommons.org/ns#Reproduction" /><cc:permits
           rdf:resource="http://creativecommons.org/ns#Distribution" /><cc:requires
           rdf:resource="http://creativecommons.org/ns#Notice" /><cc:requires
           rdf:resource="http://creativecommons.org/ns#Attribution" /><cc:prohibits
           rdf:resource="http://creativecommons.org/ns#CommercialUse" /><cc:permits
           rdf:resource="http://creativecommons.org/ns#DerivativeWorks" /><cc:requires
           rdf:resource="http://creativecommons.org/ns#ShareAlike" /></cc:License></rdf:RDF></metadata></svg>
