<?xml version="1.0" encoding="UTF-8" standalone="no"?>
<svg
   width="48"
   height="48"
   viewBox="0 0 48 48"
   fill="none"
   version="2"
   id="svg1"
   sodipodi:docname="folder-log_utilities-system-monitor-alt2.svg"
   inkscape:version="1.4.2 (ebf0e940d0, 2025-05-08)"
   xml:space="preserve"
   xmlns:inkscape="http://www.inkscape.org/namespaces/inkscape"
   xmlns:sodipodi="http://sodipodi.sourceforge.net/DTD/sodipodi-0.dtd"
   xmlns:xlink="http://www.w3.org/1999/xlink"
   xmlns="http://www.w3.org/2000/svg"
   xmlns:svg="http://www.w3.org/2000/svg"
   xmlns:rdf="http://www.w3.org/1999/02/22-rdf-syntax-ns#"
   xmlns:cc="http://creativecommons.org/ns#"
   xmlns:dc="http://purl.org/dc/elements/1.1/"><title
     id="title1">folder-log_utilities-system-monitor-alt2</title><sodipodi:namedview
     id="namedview1"
     pagecolor="#3f4354"
     bordercolor="#000000"
     borderopacity="0.5"
     inkscape:showpageshadow="1"
     inkscape:pageopacity="0"
     inkscape:pagecheckerboard="1"
     inkscape:deskcolor="#2b2f40"
     showgrid="false"
     inkscape:zoom="17.625"
     inkscape:cx="24"
     inkscape:cy="23.971631"
     inkscape:window-width="1920"
     inkscape:window-height="1048"
     inkscape:window-x="0"
     inkscape:window-y="0"
     inkscape:window-maximized="1"
     inkscape:current-layer="g11" /><g
     id="g1"><g
       id="g11"
       transform="matrix(0.74999965,0,0,0.74999965,3.7743922e-7,1.908614e-5)"
       style="fill:url(#linearGradient3)"><path
         d="M 8.24717,5.28688 C 10.8404,4.80099 13.5052,5.09747 16.1297,5.01923 18.8839,5.09747 21.902,4.61569 24.37,6.03631 c 2.3518,1.37121 3.8988,3.59891 6.0002,5.24599 0.7735,0.5518 1.7751,0.7577 2.7453,0.7412 9.4028,0 18.8055,0.0124 28.2083,0.0659 1.6185,-0.1277 3.018,1.4165 2.6022,2.8577 -0.2281,1.1159 -1.404,1.9436 -2.6291,1.8695 C 51.7466,16.8289 42.1963,16.7836 32.646,16.7754 30.4597,16.763 28.2778,16.0177 26.6547,14.663 24.6696,13.1765 23.3506,10.8953 21.0033,9.87817 17.7483,9.63934 14.462,9.84523 11.1981,9.77522 8.9536,9.63934 6.7091,10.8252 5.75228,12.7029 c -0.65725,1.1901 -0.541,2.5572 -0.54994,3.846 0.02235,10.8503 -0.00895,21.7005 0.01341,32.5549 -0.03577,2.0342 1.4084,3.9777 3.4517,4.7354 1.21614,0.4777 2.56645,0.3871 3.85855,0.3953 13.5833,-0.0206 27.1665,0.0083 40.7453,-0.0165 2.1014,0.0083 4.1134,-1.2023 4.9898,-2.9524 0.7019,-1.3135 0.5007,-2.8124 0.5275,-4.2248 0.009,-6.0284 -0.0312,-12.0567 0.0179,-18.0851 -0.0357,-1.3548 1.3995,-2.4954 2.8481,-2.3183 1.4219,0.0865 2.486,1.3712 2.325,2.6601 0,6.7366 0.0313,13.4732 -0.0134,20.214 C 63.9036,54.498 59.1016,58.8917 53.696,58.974 39.384,59.0234 25.0675,58.9864 10.7555,58.9905 6.61521,59.0317 2.60462,56.6516 0.945834,53.1557 0.163389,51.6362 -0.0243975,49.9356 0.00242916,48.272 0.0381981,37.01 -0.0243977,25.7397 0.0337268,14.4777 0.114207,10.1664 3.70004,6.22985 8.24717,5.28688 Z"
         id="path111"
         style="fill:url(#linearGradient2);fill-opacity:1;stroke:url(#linearGradient30);stroke-width:0;stroke-dasharray:none" /></g><g
       style="fill:none"
       id="g2"
       transform="matrix(0.19879458,0,0,0.19879458,11.224297,13.950554)"><path
         d="M 107,12 H 21.6667 C 15.8,12 11,16.8 11,22.6667 v 12 c 0,2.2091 1.7909,4 4,4 h 2.6667 c 2.2091,0 4,-1.7909 4,-4 v -8 c 0,-2.2092 1.7908,-4 4,-4 H 103 c 2.209,0 4,1.7908 4,4 v 8 c 0,2.2091 1.791,4 4,4 h 2.667 c 2.209,0 4,-1.7909 4,-4 v -12 C 117.667,16.8 112.867,12 107,12 Z m 0,88.667 c 0,2.209 -1.791,4 -4,4 H 25.6667 c -2.2092,0 -4,-1.791 -4,-4 v -8.0003 c 0,-2.2092 -1.7909,-4 -4,-4 H 15 c -2.2091,0 -4,1.7908 -4,4 v 12.0003 c 0,5.866 4.8,10.666 10.6667,10.666 H 107 c 5.867,0 10.667,-4.8 10.667,-10.666 V 92.6667 c 0,-2.2092 -1.791,-4 -4,-4 H 111 c -2.209,0 -4,1.7908 -4,4 z"
         fill="url(#paint0_linear_625_165)"
         stroke="url(#paint1_linear_625_165)"
         stroke-width="4"
         id="path1"
         style="fill:url(#paint0_linear_625_165);stroke:url(#paint0_linear_625_165)" /><path
         d="m 79.7467,39.72 c -1.8134,-3.6267 -7.7334,-3.6267 -9.5467,0 L 57.2346,65.6927 c -1.4713,2.9472 -5.6749,2.9524 -7.1534,0.0087 L 47.7467,61.0533 C 47.3094,60.1691 46.6326,59.4254 45.7935,58.9068 44.9543,58.3882 43.9864,58.1156 43,58.12 H 15 c -2.2091,0 -4,1.7909 -4,4 v 2.6667 c 0,2.2091 1.7909,4 4,4 h 22.218 c 1.5168,0 2.903,0.8578 3.5798,2.2153 l 8.0689,16.1847 c 0.96,1.8133 2.7733,2.9333 4.8,2.9333 2.0266,0 3.84,-1.12 4.7466,-2.9333 L 71.4286,61.1979 c 1.474,-2.9432 5.6737,-2.9456 7.1511,-0.0042 l 2.3403,4.6596 c 0.9067,1.8134 2.72,2.9334 4.7467,2.9334 h 28.0003 c 2.209,0 4,-1.7909 4,-4 V 62.12 c 0,-2.2091 -1.791,-4 -4,-4 H 91.4423 c -1.5135,0 -2.8973,-0.8541 -3.5757,-2.207 z"
         fill="url(#paint2_linear_625_165)"
         stroke="url(#paint3_linear_625_165)"
         stroke-width="4"
         id="path2"
         style="fill:url(#paint2_linear_625_165);stroke:url(#paint2_linear_625_165)" /></g></g><defs
     id="defs1"><linearGradient
       id="paint0_linear_625_165"
       x1="18.619"
       y1="67.6667"
       x2="104.919"
       y2="56.9962"
       gradientUnits="userSpaceOnUse"><stop
         stop-color="#8D01A2"
         id="stop2" /><stop
         offset="1"
         stop-color="#FF00D2"
         id="stop3" /></linearGradient><linearGradient
       id="paint2_linear_625_165"
       x1="30.3333"
       y1="83.8489"
       x2="71.962"
       y2="10.9135"
       gradientUnits="userSpaceOnUse"><stop
         stop-color="#FE0844"
         id="stop6" /><stop
         offset="1"
         stop-color="#FEB302"
         id="stop7" /></linearGradient><linearGradient
       inkscape:collect="always"
       xlink:href="#paint2_linear_625_165"
       id="linearGradient2"
       gradientUnits="userSpaceOnUse"
       x1="12.695943"
       y1="48.787205"
       x2="40.068069"
       y2="-11.80145" /></defs><metadata
     id="metadata1"><rdf:RDF><cc:Work
         rdf:about=""><dc:title>folder-log_utilities-system-monitor-alt2</dc:title><dc:date>26-07-2025</dc:date><dc:description>Beautyline style log folder icon. utilities-system-monitor icon style 2 alt</dc:description><cc:license
           rdf:resource="http://creativecommons.org/licenses/by-nc-sa/4.0/" /></cc:Work><cc:License
         rdf:about="http://creativecommons.org/licenses/by-nc-sa/4.0/"><cc:permits
           rdf:resource="http://creativecommons.org/ns#Reproduction" /><cc:permits
           rdf:resource="http://creativecommons.org/ns#Distribution" /><cc:requires
           rdf:resource="http://creativecommons.org/ns#Notice" /><cc:requires
           rdf:resource="http://creativecommons.org/ns#Attribution" /><cc:prohibits
           rdf:resource="http://creativecommons.org/ns#CommercialUse" /><cc:permits
           rdf:resource="http://creativecommons.org/ns#DerivativeWorks" /><cc:requires
           rdf:resource="http://creativecommons.org/ns#ShareAlike" /></cc:License></rdf:RDF></metadata></svg>
