<?xml version="1.0" encoding="UTF-8" standalone="no"?>
<svg
   width="48"
   height="48"
   viewBox="0 0 48 48"
   fill="none"
   version="1.1"
   id="svg7041"
   sodipodi:docname="folder-software.svg"
   inkscape:version="1.4.2 (ebf0e940d0, 2025-05-08)"
   xml:space="preserve"
   xmlns:inkscape="http://www.inkscape.org/namespaces/inkscape"
   xmlns:sodipodi="http://sodipodi.sourceforge.net/DTD/sodipodi-0.dtd"
   xmlns:xlink="http://www.w3.org/1999/xlink"
   xmlns="http://www.w3.org/2000/svg"
   xmlns:svg="http://www.w3.org/2000/svg"
   xmlns:rdf="http://www.w3.org/1999/02/22-rdf-syntax-ns#"
   xmlns:cc="http://creativecommons.org/ns#"
   xmlns:dc="http://purl.org/dc/elements/1.1/"><title
     id="title1">folder-software</title><sodipodi:namedview
     inkscape:zoom="15.229167"
     inkscape:cx="24"
     inkscape:cy="24"
     inkscape:window-width="1920"
     inkscape:window-height="1048"
     inkscape:window-x="0"
     inkscape:window-y="0"
     inkscape:window-maximized="1"
     inkscape:current-layer="svg7041"
     id="namedview7043"
     pagecolor="#3f4354"
     bordercolor="#000000"
     borderopacity="0.5"
     inkscape:showpageshadow="2"
     inkscape:pageopacity="0.0"
     inkscape:pagecheckerboard="1"
     inkscape:deskcolor="#2b2f40"
     showgrid="false" /><defs
     id="defs7039"><linearGradient
       inkscape:collect="always"
       id="linearGradient10971"><stop
         style="stop-color:#00ffdc;stop-opacity:1;"
         offset="0"
         id="stop10967" /><stop
         style="stop-color:#00bae3;stop-opacity:1;"
         offset="1"
         id="stop10969" /></linearGradient><linearGradient
       inkscape:collect="always"
       xlink:href="#linearGradient10971"
       id="linearGradient10973"
       x1="1.8352062"
       y1="62.292229"
       x2="65.835236"
       y2="8.2922516"
       gradientUnits="userSpaceOnUse"
       gradientTransform="translate(-1.8352209,-3.2922403)" /><linearGradient
       inkscape:collect="always"
       xlink:href="#linearGradient10971"
       id="linearGradient10989"
       x1="-1.4748992e-05"
       y1="58.999989"
       x2="64.000015"
       y2="5.0000114"
       gradientUnits="userSpaceOnUse" /><linearGradient
       inkscape:collect="always"
       xlink:href="#linearGradient10971"
       id="linearGradient476"
       gradientUnits="userSpaceOnUse"
       gradientTransform="matrix(0.93491114,0,0,0.93491114,0.37470385,-1.590912)"
       x1="1.8352062"
       y1="62.292229"
       x2="65.835236"
       y2="8.2922516" /><linearGradient
       inkscape:collect="always"
       xlink:href="#linearGradient10971"
       id="linearGradient478"
       gradientUnits="userSpaceOnUse"
       x1="-1.4748992e-05"
       y1="58.999989"
       x2="64.000015"
       y2="5.0000114"
       gradientTransform="matrix(0.93491114,0,0,0.93491114,2.0904719,1.4870399)" /></defs><g
     id="g35314"
     transform="matrix(0.74999964,0,0,0.74999964,1.1606806e-5,1.1329797e-5)"><path
       d="m 8.2471551,5.2868904 c 2.5932299,-0.48589 5.2580299,-0.18941 7.8825299,-0.26765 2.7542,0.07824 5.7723,-0.40354 8.2403,1.01708 2.3518,1.3712103 3.8988,3.5989103 6.0002,5.2459906 0.7735,0.5518 1.7751,0.7577 2.7453,0.7412 9.4028,0 18.8055,0.0124 28.2083,0.0659 1.6185,-0.1277 3.018,1.4165 2.6022,2.8577 -0.2281,1.1159 -1.404,1.9436 -2.6291,1.8695 -9.5503,0.0123 -19.1006,-0.033 -28.6509,-0.0412 -2.1863,-0.0124 -4.3682,-0.7577 -5.9913,-2.1124 -1.9851,-1.4865 -3.3041,-3.7677 -5.6514,-4.7848303 -3.255,-0.23883 -6.5413,-0.03294 -9.8052,-0.10295 -2.2444999,-0.13588 -4.4889999,1.0499803 -5.4458199,2.9276803 -0.65725,1.1901 -0.541,2.5572 -0.54994,3.846 0.02235,10.8503 -0.0089,21.7005 0.01341,32.5549 -0.03577,2.0342 1.4084,3.9777 3.4517,4.7354 1.21614,0.4777 2.5664499,0.3871 3.8585499,0.3953 13.5833,-0.0206 27.1665,0.0083 40.7453,-0.0165 2.1014,0.0083 4.1134,-1.2023 4.9898,-2.9524 0.7019,-1.3135 0.5007,-2.8124 0.5275,-4.2248 0.009,-6.0284 -0.0312,-12.0567 0.0179,-18.0851 -0.0357,-1.3548 1.3995,-2.4954 2.8481,-2.3183 1.4219,0.0865 2.486,1.3712 2.325,2.6601 0,6.7366 0.0313,13.4732 -0.0134,20.214 -0.0626,4.9865 -4.8646,9.3802 -10.2702,9.4625 -14.312,0.0494 -28.6285,0.0124 -42.9405,0.0165 -4.1402899,0.0412 -8.1508799,-2.3389 -9.80966594,-5.8348 -0.782445,-1.5195 -0.970231,-3.2201 -0.943405,-4.8837 0.03577,-11.262 -0.02683,-22.5323 0.0313,-33.7943 0.08048,-4.3113 3.66631304,-8.2478506 8.21344304,-9.1908206 z"
       style="fill:url(#linearGradient10973);fill-opacity:1;stroke:url(#linearGradient10989);stroke-width:0;stroke-dasharray:none;stroke-opacity:1"
       id="path10942"
       sodipodi:nodetypes="ccccccccccccccccccccccccccccccc" /><path
       d="m 20.659714,45.320888 c -0.0055,0.06535 -0.0057,0.13144 0.0086,0.195304 0.01799,0.08129 0.04323,0.149247 0.06987,0.195937 0.02273,0.03984 0.03726,0.04912 0.04352,0.05297 0.0043,0.0028 0.06847,0.04339 0.253438,0.04339 h 21.945293 c 0.184968,0 0.249352,-0.04073 0.253658,-0.04349 0.0063,-0.0039 0.0206,-0.01301 0.04331,-0.05286 0.02663,-0.04668 0.05197,-0.114662 0.06992,-0.195937 0.01401,-0.06393 0.01401,-0.129959 0.0084,-0.195245 L 41.824824,27.06063 c -0.08554,-1.019851 -0.904392,-1.802347 -1.886126,-1.802347 H 24.076587 c -0.981734,0 -1.800596,0.782496 -1.886128,1.802347 z M 19.547567,24.55978 c 0.102216,-1.279051 1.127609,-2.262874 2.358469,-2.262874 h 20.203213 c 1.230848,0 2.256272,0.983823 2.358464,2.262874 l 1.731678,20.680955 c 0.005,0.06224 0.01061,0.15882 0.0053,0.274568 -0.01042,0.227138 -0.06717,0.975874 -0.487058,1.711478 -0.480242,0.84128 -1.37474,1.543077 -2.737413,1.543077 H 21.034991 c -1.362642,0 -2.257156,-0.701797 -2.73738,-1.543077 -0.419887,-0.735604 -0.476711,-1.48434 -0.487079,-1.711478 -0.0053,-0.115743 4.1e-4,-0.212331 0.0053,-0.274568 z m 6.73706,2.627941 c -0.559193,0 -1.095477,0.231631 -1.490898,0.643953 -0.39542,0.412323 -0.617553,0.971529 -0.617553,1.554624 0,0.583095 0.222133,1.142353 0.617553,1.554675 0.256783,0.267708 0.57292,0.459261 0.916181,0.560689 0.155245,0.698786 0.380082,1.514251 0.702231,2.336132 0.430494,1.098378 1.037162,2.230759 1.944489,3.12628 0.90728,0.89552 2.152283,1.530688 3.650088,1.530688 1.497807,0 2.742809,-0.635168 3.650136,-1.530688 0.907279,-0.895521 1.513948,-2.027902 1.944443,-3.12628 0.322007,-0.821682 0.546838,-1.636903 0.70209,-2.335541 0.344017,-0.101232 0.66091,-0.293029 0.918167,-0.56128 0.39542,-0.412322 0.617555,-0.97158 0.617555,-1.554675 0,-0.583095 -0.222135,-1.142301 -0.617555,-1.554624 -0.395422,-0.412322 -0.931703,-0.643953 -1.490897,-0.643953 -0.55924,0 -1.095523,0.231631 -1.490944,0.643953 -0.39542,0.412323 -0.617554,0.971529 -0.617554,1.554624 0,0.583095 0.222134,1.142353 0.617554,1.554675 0.08639,0.09008 0.179479,0.171516 0.278035,0.243773 -0.135612,0.593361 -0.325794,1.27137 -0.589154,1.943405 -0.367541,0.937621 -0.875332,1.841335 -1.515132,2.47285 -0.639801,0.631513 -1.374977,1.01432 -2.406744,1.01432 -1.031764,0 -1.766941,-0.382807 -2.406741,-1.01432 -0.639802,-0.631515 -1.14759,-1.535229 -1.515086,-2.47285 -0.263265,-0.671592 -0.453354,-1.349156 -0.588963,-1.942222 0.09921,-0.07255 0.192833,-0.154378 0.279645,-0.244956 0.395418,-0.412322 0.617551,-0.97158 0.617551,-1.554675 0,-0.583095 -0.222133,-1.142301 -0.617551,-1.554624 -0.395423,-0.412322 -0.931707,-0.643953 -1.490946,-0.643953 z"
       style="fill:url(#linearGradient476);fill-opacity:1;stroke:url(#linearGradient478);stroke-width:0.934911;stroke-dasharray:none;stroke-opacity:1"
       id="path393" /></g><metadata
     id="metadata1"><rdf:RDF><cc:License
         rdf:about="http://creativecommons.org/licenses/by-nc-sa/4.0/"><cc:permits
           rdf:resource="http://creativecommons.org/ns#Reproduction" /><cc:permits
           rdf:resource="http://creativecommons.org/ns#Distribution" /><cc:requires
           rdf:resource="http://creativecommons.org/ns#Notice" /><cc:requires
           rdf:resource="http://creativecommons.org/ns#Attribution" /><cc:prohibits
           rdf:resource="http://creativecommons.org/ns#CommercialUse" /><cc:permits
           rdf:resource="http://creativecommons.org/ns#DerivativeWorks" /><cc:requires
           rdf:resource="http://creativecommons.org/ns#ShareAlike" /></cc:License><cc:Work
         rdf:about=""><cc:license
           rdf:resource="http://creativecommons.org/licenses/by-nc-sa/4.0/" /><dc:title>folder-software</dc:title><dc:date>22-07-2025</dc:date><dc:description>Beautyline style software folder icon</dc:description></cc:Work></rdf:RDF></metadata></svg>
