<?xml version="1.0" encoding="UTF-8" standalone="no"?>
<svg
   width="48"
   height="48"
   viewBox="0 0 48 48"
   fill="none"
   version="1.1"
   id="svg18"
   sodipodi:docname="folder-steam-library.svg"
   inkscape:version="1.4.2 (ebf0e940d0, 2025-05-08)"
   xml:space="preserve"
   xmlns:inkscape="http://www.inkscape.org/namespaces/inkscape"
   xmlns:sodipodi="http://sodipodi.sourceforge.net/DTD/sodipodi-0.dtd"
   xmlns:xlink="http://www.w3.org/1999/xlink"
   xmlns="http://www.w3.org/2000/svg"
   xmlns:svg="http://www.w3.org/2000/svg"
   xmlns:rdf="http://www.w3.org/1999/02/22-rdf-syntax-ns#"
   xmlns:cc="http://creativecommons.org/ns#"
   xmlns:dc="http://purl.org/dc/elements/1.1/"><title
     id="title2">folder-steam-library</title><sodipodi:namedview
     id="namedview20"
     pagecolor="#3f4354"
     bordercolor="#000000"
     borderopacity="0.5"
     inkscape:showpageshadow="2"
     inkscape:pageopacity="0.0"
     inkscape:pagecheckerboard="1"
     inkscape:deskcolor="#2b2f40"
     showgrid="false"
     inkscape:zoom="15.229167"
     inkscape:cx="24"
     inkscape:cy="24"
     inkscape:window-width="1920"
     inkscape:window-height="1048"
     inkscape:window-x="0"
     inkscape:window-y="0"
     inkscape:window-maximized="1"
     inkscape:current-layer="svg18" /><defs
     id="defs16"><linearGradient
       inkscape:collect="always"
       id="linearGradient27218"><stop
         style="stop-color:#a938ff;stop-opacity:1;"
         offset="0"
         id="stop27212" /><stop
         style="stop-color:#7452ff;stop-opacity:1;"
         offset="0.99989998"
         id="stop27214" /><stop
         style="stop-color:#ff80ff;stop-opacity:1;"
         offset="1"
         id="stop27216" /></linearGradient><linearGradient
       inkscape:collect="always"
       id="linearGradient2005"><stop
         style="stop-color:#a938ff;stop-opacity:1;"
         offset="0"
         id="stop2001" /><stop
         style="stop-color:#7452ff;stop-opacity:1;"
         offset="0.5"
         id="stop2009" /><stop
         style="stop-color:#ff80ff;stop-opacity:1;"
         offset="1"
         id="stop2003" /></linearGradient><linearGradient
       inkscape:collect="always"
       xlink:href="#linearGradient2005"
       id="linearGradient2007"
       x1="9.5737324"
       y1="51.068211"
       x2="59.584896"
       y2="4.9999981"
       gradientUnits="userSpaceOnUse" /><linearGradient
       inkscape:collect="always"
       xlink:href="#linearGradient27218"
       id="linearGradient4273"
       x1="18.228659"
       y1="35.543713"
       x2="56.036678"
       y2="35.507931"
       gradientUnits="userSpaceOnUse"
       gradientTransform="translate(0.06500302,-0.06901039)" /><linearGradient
       inkscape:collect="always"
       xlink:href="#linearGradient27218"
       id="linearGradient33057"
       x1="18.228659"
       y1="35.543713"
       x2="56.036678"
       y2="35.507931"
       gradientUnits="userSpaceOnUse"
       gradientTransform="translate(0.06500302,-0.06901039)" /><linearGradient
       inkscape:collect="always"
       xlink:href="#linearGradient27218"
       id="linearGradient33065"
       x1="20.401224"
       y1="35.545982"
       x2="43.371487"
       y2="35.545982"
       gradientUnits="userSpaceOnUse" /><linearGradient
       inkscape:collect="always"
       xlink:href="#linearGradient27218"
       id="linearGradient33073"
       x1="20.401224"
       y1="35.545982"
       x2="43.371487"
       y2="35.545982"
       gradientUnits="userSpaceOnUse" /><linearGradient
       inkscape:collect="always"
       xlink:href="#linearGradient27218"
       id="linearGradient33081"
       x1="35.533649"
       y1="32.039463"
       x2="39.972816"
       y2="32.039463"
       gradientUnits="userSpaceOnUse" /><linearGradient
       inkscape:collect="always"
       xlink:href="#linearGradient27218"
       id="linearGradient33089"
       x1="28.474932"
       y1="40.010975"
       x2="31.174862"
       y2="40.010975"
       gradientUnits="userSpaceOnUse" /></defs><g
     id="g373"
     transform="matrix(0.75000026,0,0,0.75000026,4.3842337e-8,-1.6905243e-5)"><path
       d="M 8.25656,5.28057 C 10.8362,4.80292 13.4828,5.09939 16.0938,5.02115 c 2.669,0.08647 5.5392,-0.39529 7.9802,0.86471 2.526,1.33 4.0997,3.69765 6.2948,5.39414 0.7645,0.5559 1.7615,0.7535 2.7182,0.7453 9.402,0.0123 18.8039,-0.0206 28.2059,0.0535 1.7972,-0.1523 3.2457,1.7171 2.5125,3.2365 -0.4202,1.1159 -1.7525,1.6306 -2.9596,1.5235 C 52.338,16.8182 43.8347,16.8059 35.3313,16.7853 33.0334,16.8059 30.5923,16.9129 28.5179,15.8506 25.5046,14.4918 24.0025,11.3747 21.1189,9.91704 17.6987,9.59998 14.225,9.8594 10.7825,9.78528 7.78713,9.71528 5.10916,12.19 5.19858,14.9488 5.18964,25.6465 5.20305,36.34 5.18964,47.0377 c 0.01788,1.4947 -0.18777,3.1047 0.65272,4.4594 0.99251,1.7788 3.16528,2.8535 5.31574,2.7424 14.0381,-0.0165 28.0762,0.0041 42.1143,-0.0206 2.9596,0.037 5.6018,-2.4253 5.4945,-5.1594 0.0313,-6.7036 -0.0402,-13.4071 0.0268,-20.1065 -0.0402,-1.3877 1.453,-2.5406 2.9284,-2.3101 1.4082,0.1195 2.4052,1.4083 2.2487,2.6765 -0.0134,6.7406 0.0269,13.4812 -0.0223,20.2259 -0.0715,4.9618 -4.8552,9.3306 -10.2335,9.4212 -13.7252,0.0659 -27.4548,0 -41.1844,0.033 -1.8598,0.0041 -3.78673,0 -5.54373,-0.6424 C 3.59359,57.2165 0.933498,54.3959 0.236064,51.1265 -0.0590047,49.6318 0.00805613,48.1083 0.0035854,46.6012 0.0125269,36.0394 -0.00535597,25.4735 0.00805623,14.9118 -0.103712,10.44 3.53546,6.24821 8.25656,5.28057 Z"
       id="path2"
       style="fill:url(#linearGradient2007);fill-opacity:1" /><g
       id="g2"
       transform="matrix(1.070065,0,0,1.070065,-2.2420789,-2.4855348)"><g
         id="g1"><path
           d="m 33.756003,28.642714 c 1.204507,-1.250167 3.060233,-1.866389 4.804836,-1.599398 1.532756,0.220167 2.939799,1.110983 3.775551,2.370012 0.867102,1.27801 1.110301,2.929308 0.652616,4.393325 -0.557168,1.903094 -2.322723,3.39112 -4.33008,3.720144 -0.330887,0.06068 -0.710195,-0.0088 -0.987383,0.213866 -1.16012,0.811075 -2.334518,1.604458 -3.491844,2.420654 -0.06674,0.988159 -0.493071,1.951175 -1.205749,2.662301 -0.993963,1.019819 -2.543697,1.496904 -3.96134,1.198299 -1.377106,-0.258097 -2.581582,-1.215992 -3.108626,-2.473732 -0.09416,-0.162029 -0.121615,-0.402434 -0.336102,-0.456909 -1.479118,-0.589605 -2.959524,-1.176727 -4.438642,-1.76509 -0.359645,-0.111433 -0.629057,-0.464358 -0.562352,-0.835131 0.04577,-0.499899 0.670899,-0.809834 1.1234,-0.564462 1.688359,0.666894 3.378021,1.33115 5.058528,2.015737 0.397576,0.150544 0.428957,0.603573 0.554514,0.93896 0.461642,1.279314 2.036224,2.029551 3.366257,1.596853 1.144305,-0.326386 1.983875,-1.438704 1.944609,-2.594013 -0.02219,-0.282153 0.08117,-0.577033 0.334922,-0.735182 1.348222,-0.938805 2.70048,-1.871402 4.054134,-2.802757 0.376671,-0.291 0.873621,-0.245449 1.323391,-0.304921 1.934257,-0.265718 3.49976,-2.087844 3.316624,-3.989665 -0.0745,-1.908169 -1.864884,-3.593626 -3.851444,-3.534153 -1.841448,-0.107554 -3.571617,1.288129 -3.899865,3.02547 -0.12416,0.447938 0.0052,0.965468 -0.304658,1.356463 -0.940357,1.324834 -1.885866,2.647138 -2.828784,3.970761 -0.162168,0.275791 -0.478652,0.435181 -0.806915,0.40352 -0.536185,-0.01133 -1.077616,0.105071 -1.524887,0.401192 -0.304704,0.227679 -0.742818,0.229075 -1.056695,0.01645 -2.134311,-1.221113 -4.277778,-2.426971 -6.410801,-3.65184 -0.4198,-0.207518 -0.536184,-0.809818 -0.210544,-1.142613 0.239319,-0.28217 0.686589,-0.344172 0.999147,-0.140456 2.040166,1.152748 4.079013,2.30801 6.113934,3.467028 0.561032,-0.250493 1.158708,-0.423836 1.778592,-0.452936 0.873605,-1.213478 1.756367,-2.421896 2.594665,-3.656884 0.09677,-1.278027 0.596309,-2.538313 1.520991,-3.470893 z"
           stroke-width="0.3104"
           id="path145"
           style="fill:url(#linearGradient33073);fill-opacity:1;stroke:url(#linearGradient33065)" /><path
           d="m 37.188871,29.956156 c 1.008335,-0.270777 2.16054,0.255614 2.577717,1.185651 0.453805,0.899664 0.133317,2.07265 -0.712678,2.644593 -0.740304,0.532724 -1.816616,0.545373 -2.567319,0.02404 -0.738907,-0.480825 -1.103782,-1.414663 -0.894417,-2.251067 0.163425,-0.769343 0.816041,-1.405818 1.596697,-1.603217 z"
           id="path147"
           style="fill:url(#linearGradient33081);fill-opacity:1;stroke-width:0.1552" /><path
           d="m 29.441551,38.763121 c 1.010927,-0.339112 2.068925,0.780656 1.63213,1.72334 -0.298186,0.864309 -1.571974,1.12489 -2.211476,0.458151 -0.720593,-0.64796 -0.383189,-1.956296 0.579346,-2.181491 z"
           id="path149"
           style="fill:url(#linearGradient33089);fill-opacity:1;stroke-width:0.1552" /></g><path
         d="m 21.594721,22.104549 c 0.426723,-0.118455 0.870657,-0.157941 1.311145,-0.157941 6.13245,0.0051 12.264914,-0.0051 18.397332,0.0034 2.230068,-0.02747 4.243168,1.934759 4.239753,4.166536 0.0085,6.006876 -0.0017,12.01369 0.0051,18.02055 0.01211,0.693589 -0.0017,1.407819 -0.263219,2.063539 -0.586811,1.62929 -2.242019,2.796703 -3.978242,2.798411 -6.247731,0.0017 -12.495431,0.01024 -18.74144,-0.0052 -2.18697,-0.04284 -4.112389,-1.981128 -4.112389,-4.166499 -0.0052,-6.240281 -0.0052,-12.478964 0,-18.719307 0.01205,-1.83521 1.369648,-3.539927 3.141939,-4.003447 z m 0.874087,1.890134 c -0.844847,0.0927 -1.601928,0.707293 -1.866917,1.510733 -0.232288,0.812021 -0.0499,1.660081 -0.11356,2.487561 0.0051,4.750222 -0.01032,9.500506 0.01891,14.25242 0.0052,0.961309 -0.104961,1.927894 0.02066,2.885789 0.161734,1.036891 1.151119,1.845483 2.199014,1.830118 6.022319,0.01195 12.044685,-0.0034 18.068773,0.0051 0.519609,0.0068 1.068396,-0.0104 1.531358,-0.276411 0.738131,-0.386293 1.207922,-1.201714 1.18728,-2.030947 0.0034,-6.125279 0.0051,-12.252357 0,-18.379406 0.06192,-1.266959 -1.115112,-2.382832 -2.37456,-2.303866 -6.223675,0.01373 -12.449027,-0.02747 -18.670964,0.01889 z"
         stroke-width="0.3104"
         id="path151"
         style="fill:url(#linearGradient4273);fill-opacity:1;stroke:url(#linearGradient33057)" /></g></g><metadata
     id="metadata2"><rdf:RDF><cc:Work
         rdf:about=""><cc:license
           rdf:resource="http://creativecommons.org/licenses/by-nc-sa/4.0/" /><dc:title>folder-steam-library</dc:title><dc:date>22-07-2025</dc:date><dc:description>Beautyline style steam library folder icon</dc:description></cc:Work><cc:License
         rdf:about="http://creativecommons.org/licenses/by-nc-sa/4.0/"><cc:permits
           rdf:resource="http://creativecommons.org/ns#Reproduction" /><cc:permits
           rdf:resource="http://creativecommons.org/ns#Distribution" /><cc:requires
           rdf:resource="http://creativecommons.org/ns#Notice" /><cc:requires
           rdf:resource="http://creativecommons.org/ns#Attribution" /><cc:prohibits
           rdf:resource="http://creativecommons.org/ns#CommercialUse" /><cc:permits
           rdf:resource="http://creativecommons.org/ns#DerivativeWorks" /><cc:requires
           rdf:resource="http://creativecommons.org/ns#ShareAlike" /></cc:License></rdf:RDF></metadata></svg>
