<?xml version="1.0" encoding="UTF-8" standalone="no"?>
<svg
   width="48"
   height="48"
   viewBox="0 0 48 48"
   fill="none"
   version="2"
   id="svg1"
   sodipodi:docname="folder-podcast_accessories-podcast-alt.svg"
   inkscape:version="1.4.2 (ebf0e940d0, 2025-05-08)"
   xml:space="preserve"
   xmlns:inkscape="http://www.inkscape.org/namespaces/inkscape"
   xmlns:sodipodi="http://sodipodi.sourceforge.net/DTD/sodipodi-0.dtd"
   xmlns:xlink="http://www.w3.org/1999/xlink"
   xmlns="http://www.w3.org/2000/svg"
   xmlns:svg="http://www.w3.org/2000/svg"><sodipodi:namedview
     id="namedview1"
     pagecolor="#3f4354"
     bordercolor="#000000"
     borderopacity="0.5"
     inkscape:showpageshadow="1"
     inkscape:pageopacity="0"
     inkscape:pagecheckerboard="1"
     inkscape:deskcolor="#2b2f40"
     showgrid="false"
     inkscape:zoom="17.3125"
     inkscape:cx="24.115523"
     inkscape:cy="24"
     inkscape:window-width="1920"
     inkscape:window-height="1048"
     inkscape:window-x="0"
     inkscape:window-y="0"
     inkscape:window-maximized="1"
     inkscape:current-layer="g11" /><g
     id="g1"><g
       id="g11"
       transform="matrix(0.74999965,0,0,0.74999965,3.7743922e-7,1.908614e-5)"
       style="fill:url(#linearGradient3)"><path
         d="M 8.24717,5.28688 C 10.8404,4.80099 13.5052,5.09747 16.1297,5.01923 18.8839,5.09747 21.902,4.61569 24.37,6.03631 c 2.3518,1.37121 3.8988,3.59891 6.0002,5.24599 0.7735,0.5518 1.7751,0.7577 2.7453,0.7412 9.4028,0 18.8055,0.0124 28.2083,0.0659 1.6185,-0.1277 3.018,1.4165 2.6022,2.8577 -0.2281,1.1159 -1.404,1.9436 -2.6291,1.8695 C 51.7466,16.8289 42.1963,16.7836 32.646,16.7754 30.4597,16.763 28.2778,16.0177 26.6547,14.663 24.6696,13.1765 23.3506,10.8953 21.0033,9.87817 17.7483,9.63934 14.462,9.84523 11.1981,9.77522 8.9536,9.63934 6.7091,10.8252 5.75228,12.7029 c -0.65725,1.1901 -0.541,2.5572 -0.54994,3.846 0.02235,10.8503 -0.00895,21.7005 0.01341,32.5549 -0.03577,2.0342 1.4084,3.9777 3.4517,4.7354 1.21614,0.4777 2.56645,0.3871 3.85855,0.3953 13.5833,-0.0206 27.1665,0.0083 40.7453,-0.0165 2.1014,0.0083 4.1134,-1.2023 4.9898,-2.9524 0.7019,-1.3135 0.5007,-2.8124 0.5275,-4.2248 0.009,-6.0284 -0.0312,-12.0567 0.0179,-18.0851 -0.0357,-1.3548 1.3995,-2.4954 2.8481,-2.3183 1.4219,0.0865 2.486,1.3712 2.325,2.6601 0,6.7366 0.0313,13.4732 -0.0134,20.214 C 63.9036,54.498 59.1016,58.8917 53.696,58.974 39.384,59.0234 25.0675,58.9864 10.7555,58.9905 6.61521,59.0317 2.60462,56.6516 0.945834,53.1557 0.163389,51.6362 -0.0243975,49.9356 0.00242916,48.272 0.0381981,37.01 -0.0243977,25.7397 0.0337268,14.4777 0.114207,10.1664 3.70004,6.22985 8.24717,5.28688 Z"
         id="path111"
         style="fill:url(#linearGradient2);fill-opacity:1;stroke:url(#linearGradient30);stroke-width:0;stroke-dasharray:none" /></g><g
       style="fill:none"
       id="g2"
       transform="matrix(0.13457969,0,0,0.13457969,11.093803,13.665052)"><path
         fill-rule="evenodd"
         clip-rule="evenodd"
         d="M 144.035,22.7801 C 130.05,12.4804 113.126,6.94836 95.7575,7.00036 78.3894,7.05236 61.4979,12.6856 47.5753,23.0689 33.6526,33.4523 23.4361,48.0358 18.4332,64.6678 c -5.0029,16.6321 -4.5274,34.4318 1.3565,50.7732 5.8839,16.341 16.8645,30.358 31.3218,39.983 4.1375,2.755 9.7246,1.634 12.4792,-2.504 2.7545,-4.137 1.6335,-9.724 -2.504,-12.479 C 49.8422,132.955 41.3017,122.053 36.7253,109.343 32.149,96.633 31.7791,82.7888 35.6703,69.8528 39.5614,56.9167 47.5076,45.574 58.3363,37.4981 69.165,29.4221 82.3028,25.0407 95.8114,25.0003 c 13.5086,-0.0405 26.6726,4.2622 37.5496,12.2731 10.877,8.011 18.89,19.3059 22.859,32.2184 3.969,12.9125 3.682,26.7587 -0.819,39.4952 -4.5,12.737 -12.975,23.691 -24.174,31.244 -4.121,2.779 -5.209,8.373 -2.429,12.494 2.779,4.121 8.373,5.208 12.493,2.429 14.4,-9.711 25.296,-23.794 31.082,-40.17 5.786,-16.3762 6.155,-34.1784 1.053,-50.7802 C 168.323,47.602 158.02,33.0799 144.035,22.7801 Z M 94.0195,88.0156 c 0,-1.1045 0.8955,-2 2,-2 1.1046,0 2,0.8955 2,2 0,1.1046 -0.8954,2 -2,2 -1.1045,0 -2,-0.8954 -2,-2 z m 2,-14 c -7.732,0 -14,6.268 -14,14 0,7.732 6.268,14.0004 14,14.0004 7.7325,0 14.0005,-6.2684 14.0005,-14.0004 0,-7.732 -6.268,-14 -14.0005,-14 z m -1.235,-35.0461 c 9.1165,-0.2287 18.1155,2.0909 25.9845,6.6978 7.87,4.607 14.298,11.3186 18.561,19.3797 4.263,8.061 6.192,17.1518 5.57,26.2494 -0.622,9.0976 -3.771,17.8416 -9.091,25.2476 -2.9,4.036 -8.524,4.958 -12.561,2.058 -4.036,-2.9 -4.958,-8.524 -2.058,-12.561 3.366,-4.685 5.358,-10.2167 5.752,-15.9724 0.393,-5.7556 -0.827,-11.5069 -3.524,-16.6068 -2.697,-5.0998 -6.764,-9.3459 -11.743,-12.2606 -4.978,-2.9146 -10.672,-4.3821 -16.439,-4.2373 -5.7673,0.1447 -11.3797,1.8959 -16.206,5.0566 -4.8262,3.1606 -8.6748,7.6053 -11.1126,12.8341 -2.4378,5.2287 -3.3682,11.0339 -2.6865,16.7626 0.6817,5.7287 2.9484,11.1538 6.5452,15.6638 3.099,3.887 2.4607,9.549 -1.4256,12.648 -3.8862,3.099 -9.5488,2.461 -12.6478,-1.425 -5.6852,-7.13 -9.2682,-15.705 -10.3457,-24.7598 -1.0775,-9.055 0.3931,-18.2311 4.2464,-26.4958 3.8534,-8.2648 9.9365,-15.2903 17.5651,-20.2862 7.6286,-4.9959 16.4999,-7.7639 25.616,-7.9927 z m -14.7852,98.3805 0.0079,0.052 4.0706,36.635 c 0.163,2.93 1.3988,5.707 3.4845,7.793 2.2429,2.242 5.285,3.503 8.457,3.503 3.1721,0 6.2137,-1.261 8.4567,-3.503 2.086,-2.086 3.322,-4.862 3.485,-7.791 l 4.108,-36.893 c 0.307,-2.24 0.143,-4.52 -0.484,-6.693 -0.646,-2.24 -1.768,-4.314 -3.289,-6.08 -1.52,-1.767 -3.405,-3.184 -5.523,-4.156 -2.119,-0.972 -4.4227,-1.475 -6.7537,-1.475 -2.3309,0 -4.6344,0.503 -6.7533,1.475 -2.1188,0.972 -4.0029,2.389 -5.5237,4.156 -1.5209,1.766 -2.6426,3.84 -3.2885,6.08 -0.646,2.24 -0.801,4.592 -0.4545,6.897 z"
         fill="url(#paint0_linear)"
         id="path1"
         style="fill:url(#paint0_linear-3)" /></g></g><defs
     id="defs1"><linearGradient
       id="paint0_linear-3"
       x1="96"
       y1="182.333"
       x2="96"
       y2="10"
       gradientUnits="userSpaceOnUse"><stop
         stop-color="#8200E7"
         id="stop1" /><stop
         offset="1"
         stop-color="#FF81FF"
         id="stop2" /></linearGradient><linearGradient
       inkscape:collect="always"
       xlink:href="#paint0_linear-3"
       id="linearGradient2"
       gradientUnits="userSpaceOnUse"
       x1="32.000015"
       y1="58.999977"
       x2="32.000015"
       y2="5.000001" /></defs></svg>
