<?xml version="1.0" encoding="UTF-8" standalone="no"?>
<svg
   width="48"
   height="48"
   viewBox="0 0 48 48"
   fill="none"
   version="2"
   id="svg1"
   sodipodi:docname="folder-deb.svg"
   inkscape:version="1.4.2 (ebf0e940d0, 2025-05-08)"
   xml:space="preserve"
   xmlns:inkscape="http://www.inkscape.org/namespaces/inkscape"
   xmlns:sodipodi="http://sodipodi.sourceforge.net/DTD/sodipodi-0.dtd"
   xmlns:xlink="http://www.w3.org/1999/xlink"
   xmlns="http://www.w3.org/2000/svg"
   xmlns:svg="http://www.w3.org/2000/svg"
   xmlns:rdf="http://www.w3.org/1999/02/22-rdf-syntax-ns#"
   xmlns:cc="http://creativecommons.org/ns#"
   xmlns:dc="http://purl.org/dc/elements/1.1/"><title
     id="title1">folder-deb</title><sodipodi:namedview
     id="namedview1"
     pagecolor="#3f4354"
     bordercolor="#000000"
     borderopacity="0.5"
     inkscape:showpageshadow="1"
     inkscape:pageopacity="0"
     inkscape:pagecheckerboard="1"
     inkscape:deskcolor="#2b2f40"
     showgrid="false"
     inkscape:zoom="15.229167"
     inkscape:cx="24"
     inkscape:cy="24"
     inkscape:window-width="1920"
     inkscape:window-height="1048"
     inkscape:window-x="0"
     inkscape:window-y="0"
     inkscape:window-maximized="1"
     inkscape:current-layer="g12" /><g
     id="g1"><g
       style="fill:none"
       id="g12"
       transform="matrix(0.08870968,0,0,0.08870968,12.658609,15.25227)"><path
         fill-rule="evenodd"
         clip-rule="evenodd"
         d="M 28,24 C 28,12.9543 37.7329,4 49.7391,4 H 206.261 C 218.267,4 228,12.9543 228,24 v 208 c 0,11.046 -9.733,20 -21.739,20 H 49.7391 C 37.7329,252 28,243.046 28,232 Z m 178.261,10 c 0,-5.5228 -4.866,-10 -10.87,-10 H 60.6087 c -6.003,0 -10.8696,4.4772 -10.8696,10 v 188 c 0,5.523 4.8664,10 10.8696,10 H 195.391 c 6.004,0 10.87,-4.477 10.87,-10 z"
         fill="url(#paint0_linear)"
         id="path1"
         style="fill:url(#paint0_linear-3)" /><path
         d="m 124.699,58.6862 c 0.231,-0.2287 0.519,-0.4003 0.864,-0.5146 0.346,-0.1146 0.749,-0.1716 1.21,-0.1716 0.462,0 0.923,0 1.383,0 0.46,0 0.922,0 1.383,0 0.462,0 0.922,0 1.383,0 0.46,0 0.922,0 1.383,0 0.462,0 0.922,0 1.383,0 0.462,0 0.923,0 1.382,0 0.461,0 0.923,0 1.384,0 0.46,0 0.922,0 1.383,0 0.46,0 0.922,0 1.383,0 0.461,0 0.922,0 1.383,0 0.46,0 0.865,0.057 1.209,0.1716 0.346,0.1143 0.634,0.2859 0.865,0.5146 0.231,0.2289 0.518,0.4005 0.864,0.5148 0.345,0.1143 0.75,0.1717 1.211,0.1717 0.46,0 0.922,0 1.382,0 0.461,0 0.921,0 1.383,0 0.461,0 0.864,0.0569 1.21,0.1712 0.346,0.1148 0.634,0.2861 0.865,0.515 0.229,0.2286 0.518,0.4002 0.863,0.5145 0.347,0.1146 0.749,0.1717 1.211,0.1717 0.461,0 0.864,0.0573 1.209,0.1716 0.347,0.1143 0.635,0.2859 0.864,0.5145 0.231,0.229 0.52,0.4004 0.865,0.5149 0.346,0.1142 0.692,0.2287 1.037,0.3429 0.346,0.1148 0.634,0.2859 0.866,0.5149 0.229,0.2287 0.517,0.4004 0.863,0.5149 0.346,0.1142 0.691,0.2286 1.038,0.3428 0.346,0.1145 0.634,0.2859 0.863,0.5149 0.232,0.2286 0.519,0.4004 0.865,0.5145 0.346,0.1145 0.692,0.2287 1.037,0.3436 0.346,0.1142 0.634,0.2859 0.864,0.5142 0.231,0.229 0.519,0.4004 0.865,0.5149 0.345,0.1145 0.691,0.2287 1.037,0.3432 0.346,0.1141 0.635,0.2859 0.864,0.5148 0.231,0.2287 0.462,0.4573 0.691,0.686 0.231,0.2291 0.461,0.4576 0.692,0.6863 0.231,0.229 0.519,0.4005 0.865,0.515 0.346,0.1141 0.691,0.2286 1.037,0.3428 0.346,0.1145 0.633,0.2859 0.864,0.5149 0.231,0.2286 0.462,0.4576 0.691,0.6863 0.231,0.2286 0.461,0.4573 0.692,0.6863 0.231,0.2287 0.461,0.4574 0.691,0.6863 0.231,0.2287 0.461,0.4574 0.692,0.686 0.23,0.229 0.46,0.4576 0.691,0.6863 0.231,0.229 0.461,0.4576 0.691,0.6867 0.232,0.2283 0.461,0.4569 0.692,0.686 0.231,0.2286 0.461,0.4576 0.692,0.6863 0.229,0.2289 0.46,0.4573 0.691,0.6862 0.231,0.2287 0.461,0.4577 0.692,0.6863 0.229,0.2287 0.461,0.4577 0.691,0.686 0.231,0.2291 0.403,0.515 0.518,0.8581 0.116,0.3432 0.231,0.686 0.346,1.0295 0.116,0.3431 0.288,0.629 0.519,0.8577 0.231,0.229 0.461,0.4577 0.691,0.6863 0.23,0.2287 0.461,0.4577 0.692,0.6863 0.231,0.2287 0.403,0.5146 0.518,0.8577 0.116,0.3436 0.231,0.6863 0.346,1.0296 0.116,0.3431 0.288,0.629 0.519,0.8577 0.23,0.2289 0.46,0.4576 0.692,0.6863 0.229,0.2289 0.46,0.4576 0.691,0.6866 0.229,0.2283 0.403,0.5142 0.518,0.8578 0.116,0.3428 0.231,0.686 0.345,1.0294 0.115,0.3428 0.289,0.6287 0.52,0.8577 0.23,0.2287 0.403,0.5146 0.518,0.8578 0.114,0.3431 0.173,0.7435 0.173,1.2011 0,0.4574 0.058,0.8578 0.173,1.2006 0.114,0.3432 0.288,0.6294 0.517,0.8581 0.232,0.2287 0.405,0.5146 0.52,0.858 0.115,0.3429 0.173,0.7432 0.173,1.2006 0,0.4577 0.057,0.8577 0.173,1.2012 0.116,0.3432 0.288,0.6291 0.519,0.8577 0.23,0.229 0.403,0.5149 0.518,0.8581 0.115,0.3427 0.173,0.743 0.173,1.2013 0,0.4572 0,0.9144 0,1.3727 0,0.4567 0.058,0.8577 0.172,1.2007 0.117,0.343 0.288,0.629 0.52,0.858 0.229,0.228 0.403,0.514 0.517,0.857 0.116,0.344 0.174,0.744 0.174,1.201 0,0.458 0,0.916 0,1.373 0,0.457 0,0.915 0,1.372 0,0.458 0,0.915 0,1.373 0,0.457 0,0.914 0,1.373 0,0.457 0,0.915 0,1.372 0,0.458 0,0.915 0,1.372 0,0.458 0,0.915 0,1.374 0,0.457 0,0.914 0,1.371 0,0.459 0,0.916 0,1.373 0,0.458 0,0.915 0,1.373 0,0.457 -0.058,0.858 -0.174,1.201 -0.114,0.343 -0.288,0.628 -0.517,0.857 -0.232,0.23 -0.403,0.515 -0.52,0.859 -0.114,0.342 -0.172,0.743 -0.172,1.201 0,0.457 0,0.914 0,1.372 0,0.457 -0.058,0.858 -0.173,1.201 -0.115,0.344 -0.288,0.629 -0.518,0.858 -0.231,0.228 -0.403,0.515 -0.519,0.858 -0.116,0.343 -0.173,0.743 -0.173,1.201 0,0.457 -0.058,0.857 -0.173,1.201 -0.115,0.342 -0.288,0.629 -0.52,0.858 -0.229,0.228 -0.403,0.514 -0.517,0.857 -0.115,0.344 -0.232,0.686 -0.346,1.029 -0.115,0.344 -0.288,0.63 -0.518,0.859 -0.231,0.227 -0.405,0.514 -0.52,0.857 -0.114,0.344 -0.229,0.686 -0.345,1.03 -0.115,0.343 -0.289,0.629 -0.518,0.857 -0.231,0.229 -0.462,0.458 -0.691,0.687 -0.232,0.229 -0.462,0.457 -0.692,0.687 -0.231,0.229 -0.403,0.514 -0.519,0.856 -0.115,0.345 -0.23,0.687 -0.346,1.031 -0.115,0.343 -0.287,0.629 -0.518,0.857 -0.231,0.229 -0.462,0.457 -0.692,0.686 -0.23,0.23 -0.46,0.458 -0.691,0.687 -0.231,0.228 -0.46,0.458 -0.692,0.687 -0.23,0.227 -0.46,0.456 -0.691,0.685 -0.23,0.229 -0.462,0.458 -0.691,0.686 -0.231,0.23 -0.461,0.459 -0.692,0.687 -0.231,0.229 -0.462,0.458 -0.691,0.687 -0.231,0.228 -0.461,0.456 -0.692,0.686 -0.231,0.228 -0.46,0.457 -0.692,0.686 -0.23,0.229 -0.46,0.457 -0.691,0.685 -0.231,0.23 -0.461,0.459 -0.691,0.687 -0.231,0.229 -0.461,0.457 -0.692,0.687 -0.23,0.229 -0.46,0.457 -0.691,0.686 -0.231,0.23 -0.52,0.4 -0.864,0.514 -0.346,0.115 -0.693,0.23 -1.037,0.343 -0.346,0.115 -0.634,0.287 -0.865,0.516 -0.231,0.228 -0.518,0.4 -0.864,0.515 -0.345,0.113 -0.691,0.227 -1.037,0.342 -0.346,0.114 -0.634,0.287 -0.865,0.515 -0.229,0.229 -0.518,0.4 -0.864,0.514 -0.346,0.115 -0.692,0.23 -1.037,0.344 -0.346,0.115 -0.634,0.286 -0.865,0.515 -0.23,0.228 -0.518,0.4 -0.864,0.515 -0.345,0.114 -0.749,0.171 -1.211,0.171 -0.459,0 -0.863,0.056 -1.208,0.171 -0.346,0.114 -0.635,0.286 -0.866,0.516 -0.229,0.228 -0.518,0.399 -0.864,0.514 -0.346,0.114 -0.749,0.171 -1.21,0.171 -0.461,0 -0.864,0.058 -1.21,0.172 -0.345,0.114 -0.634,0.287 -0.865,0.515 -0.229,0.229 -0.517,0.4 -0.864,0.514 -0.345,0.115 -0.748,0.173 -1.209,0.173 -0.462,0 -0.922,0 -1.383,0 -0.462,0 -0.922,0 -1.383,0 -0.461,0 -0.922,0 -1.383,0 -0.462,0 -0.922,0 -1.383,0 -0.46,0 -0.922,0 -1.382,0 -0.461,0 -0.923,0 -1.383,0 -0.461,0 -0.923,0 -1.384,0 -0.46,0 -0.922,0 -1.382,0 -0.461,0 -0.922,0 -1.383,0 -0.461,0 -0.866,-0.058 -1.211,-0.173 -0.346,-0.114 -0.633,-0.285 -0.864,-0.514 -0.231,-0.228 -0.518,-0.401 -0.865,-0.515 -0.344,-0.114 -0.749,-0.172 -1.21,-0.172 -0.459,0 -0.92,0 -1.382,0 -0.461,0 -0.864,-0.057 -1.21,-0.171 -0.345,-0.115 -0.634,-0.286 -0.864,-0.514 -0.232,-0.23 -0.519,-0.402 -0.864,-0.516 -0.346,-0.115 -0.692,-0.228 -1.038,-0.342 -0.345,-0.115 -0.634,-0.287 -0.864,-0.515 -0.23,-0.229 -0.518,-0.4 -0.864,-0.515 -0.346,-0.114 -0.692,-0.229 -1.038,-0.344 -0.345,-0.114 -0.634,-0.285 -0.864,-0.514 -0.23,-0.228 -0.519,-0.401 -0.864,-0.515 -0.346,-0.115 -0.692,-0.229 -1.038,-0.342 -0.345,-0.115 -0.634,-0.287 -0.864,-0.515 -0.23,-0.229 -0.461,-0.459 -0.69,-0.687 -0.232,-0.228 -0.462,-0.456 -0.693,-0.686 -0.23,-0.229 -0.461,-0.457 -0.692,-0.686 -0.23,-0.23 -0.46,-0.458 -0.69,-0.687 -0.231,-0.228 -0.462,-0.457 -0.693,-0.687 -0.229,-0.228 -0.46,-0.456 -0.69,-0.685 -0.231,-0.229 -0.462,-0.458 -0.693,-0.686 -0.229,-0.23 -0.46,-0.458 -0.69,-0.686 -0.231,-0.229 -0.462,-0.458 -0.691,-0.687 -0.231,-0.228 -0.462,-0.457 -0.692,-0.687 -0.231,-0.228 -0.462,-0.457 -0.691,-0.686 -0.231,-0.229 -0.462,-0.458 -0.692,-0.685 -0.231,-0.229 -0.462,-0.459 -0.691,-0.687 -0.231,-0.229 -0.405,-0.515 -0.519,-0.858 -0.115,-0.343 -0.23,-0.687 -0.346,-1.029 -0.115,-0.343 -0.288,-0.63 -0.518,-0.859 -0.231,-0.228 -0.462,-0.457 -0.692,-0.686 -0.231,-0.228 -0.46,-0.456 -0.691,-0.685 -0.231,-0.23 -0.405,-0.515 -0.519,-0.859 -0.115,-0.342 -0.173,-0.743 -0.173,-1.201 0,-0.457 -0.057,-0.857 -0.173,-1.201 -0.115,-0.343 -0.287,-0.63 -0.518,-0.857 -0.231,-0.229 -0.403,-0.515 -0.519,-0.859 -0.115,-0.343 -0.173,-0.743 -0.173,-1.201 0,-0.457 -0.057,-0.856 -0.173,-1.201 -0.115,-0.342 -0.287,-0.628 -0.518,-0.857 -0.231,-0.229 -0.403,-0.515 -0.519,-0.857 -0.115,-0.344 -0.172,-0.744 -0.172,-1.201 0,-0.459 0,-0.916 0,-1.373 0,-0.458 0,-0.916 0,-1.373 0,-0.458 0,-0.915 0,-1.372 0,-0.458 0,-0.916 0,-1.373 0,-0.457 0,-0.916 0,-1.373 0,-0.457 0,-0.915 0,-1.372 0,-0.458 0,-0.915 0,-1.373 0,-0.457 0,-0.914 0,-1.373 0,-0.457 0,-0.914 0,-1.371 0,-0.459 0.057,-0.859 0.172,-1.202 0.116,-0.343 0.288,-0.629 0.519,-0.858 0.231,-0.228 0.403,-0.515 0.518,-0.857 0.116,-0.344 0.173,-0.744 0.173,-1.201 0,-0.459 0.058,-0.858 0.173,-1.201 0.116,-0.344 0.288,-0.63 0.519,-0.859 0.231,-0.228 0.403,-0.514 0.518,-0.857 0.116,-0.344 0.231,-0.686 0.346,-1.029 0.114,-0.344 0.288,-0.629 0.519,-0.858 0.231,-0.23 0.46,-0.458 0.691,-0.687 0.23,-0.228 0.461,-0.457 0.692,-0.686 0.23,-0.228 0.403,-0.515 0.518,-0.858 0.116,-0.343 0.231,-0.686 0.346,-1.029 0.114,-0.343 0.288,-0.629 0.519,-0.858 0.229,-0.229 0.46,-0.457 0.691,-0.6857 0.23,-0.2297 0.461,-0.4583 0.692,-0.6869 0.229,-0.2286 0.46,-0.4572 0.691,-0.6858 0.23,-0.2286 0.461,-0.4583 0.692,-0.6869 0.229,-0.2285 0.46,-0.4575 0.691,-0.6858 0.23,-0.229 0.461,-0.4577 0.69,-0.6867 0.231,-0.2286 0.462,-0.4573 0.693,-0.6862 0.23,-0.2287 0.518,-0.4001 0.864,-0.515 0.345,-0.1141 0.691,-0.2283 1.037,-0.3428 0.346,-0.1142 0.634,-0.286 0.864,-0.5149 0.231,-0.2287 0.461,-0.4573 0.693,-0.686 0.229,-0.2287 0.46,-0.4576 0.69,-0.6863 0.23,-0.2287 0.519,-0.4004 0.864,-0.5146 0.346,-0.1144 0.75,-0.1717 1.21,-0.1717 0.462,0 0.865,-0.0572 1.211,-0.1714 0.345,-0.1145 0.634,-0.2859 0.863,-0.515 0.232,-0.2285 0.52,-0.4003 0.866,-0.5145 0.345,-0.1145 0.748,-0.1718 1.209,-0.1718 0.462,0 0.865,-0.0572 1.211,-0.1714 0.345,-0.1145 0.632,-0.2859 0.864,-0.5146 0.23,-0.2289 0.519,-0.4006 0.864,-0.5148 0.346,-0.1145 0.749,-0.1717 1.21,-0.1717 0.462,0 0.923,0 1.382,0 0.461,0 0.923,0 1.384,0 0.46,0 0.922,0 1.383,0 0.46,0 0.922,0 1.383,0 0.461,0 0.922,0 1.383,0 0.46,0 0.865,0.0572 1.209,0.1717 0.346,0.1142 0.634,0.2859 0.865,0.5148 0.231,0.2287 0.518,0.4001 0.864,0.5146 0.345,0.1142 0.75,0.1714 1.211,0.1714 0.46,0 0.863,0.0573 1.209,0.1718 0.346,0.1142 0.634,0.286 0.865,0.5145 0.229,0.2291 0.518,0.4005 0.864,0.515 0.345,0.1142 0.691,0.2287 1.037,0.3431 0.346,0.1142 0.634,0.2859 0.865,0.5146 0.229,0.2287 0.518,0.4004 0.863,0.5146 0.347,0.1144 0.692,0.2289 1.038,0.3431 0.345,0.1145 0.634,0.2859 0.863,0.5146 0.232,0.2289 0.462,0.4577 0.693,0.6867 0.23,0.2286 0.461,0.4573 0.69,0.686 0.231,0.2289 0.462,0.4576 0.693,0.6862 0.23,0.229 0.46,0.4577 0.69,0.6867 0.231,0.2283 0.462,0.4573 0.692,0.6858 0.231,0.2286 0.461,0.4583 0.693,0.6869 0.229,0.2286 0.46,0.4572 0.69,0.6858 0.23,0.2286 0.404,0.5152 0.519,0.8586 0.115,0.342 0.231,0.686 0.345,1.029 0.115,0.343 0.289,0.629 0.519,0.858 0.231,0.228 0.404,0.514 0.519,0.857 0.114,0.344 0.231,0.686 0.346,1.029 0.115,0.344 0.288,0.629 0.517,0.859 0.232,0.229 0.405,0.514 0.52,0.858 0.115,0.343 0.172,0.743 0.172,1.2 0,0.458 0,0.915 0,1.373 0,0.457 0.057,0.858 0.174,1.201 0.114,0.344 0.288,0.629 0.518,0.858 0.231,0.229 0.403,0.515 0.519,0.857 0.115,0.344 0.172,0.744 0.172,1.201 0,0.458 0,0.915 0,1.374 0,0.457 -0.057,0.857 -0.172,1.2 -0.116,0.343 -0.288,0.63 -0.519,0.858 -0.23,0.229 -0.404,0.514 -0.518,0.858 -0.117,0.343 -0.174,0.743 -0.174,1.201 0,0.457 -0.057,0.858 -0.172,1.201 -0.115,0.343 -0.288,0.628 -0.52,0.857 -0.229,0.23 -0.402,0.515 -0.517,0.859 -0.115,0.342 -0.232,0.685 -0.346,1.029 -0.115,0.343 -0.288,0.629 -0.519,0.857 -0.23,0.229 -0.404,0.516 -0.519,0.859 -0.114,0.342 -0.23,0.686 -0.345,1.029 -0.115,0.344 -0.289,0.629 -0.519,0.858 -0.23,0.228 -0.461,0.457 -0.69,0.687 -0.232,0.228 -0.462,0.457 -0.693,0.685 -0.23,0.229 -0.461,0.458 -0.692,0.687 -0.23,0.229 -0.518,0.401 -0.863,0.514 -0.346,0.115 -0.692,0.229 -1.037,0.343 -0.347,0.116 -0.634,0.286 -0.866,0.516 -0.229,0.228 -0.518,0.399 -0.863,0.515 -0.346,0.114 -0.691,0.228 -1.038,0.342 -0.345,0.114 -0.634,0.286 -0.863,0.514 -0.231,0.229 -0.519,0.401 -0.865,0.516 -0.346,0.113 -0.749,0.171 -1.21,0.171 -0.462,0 -0.922,0 -1.383,0 -0.46,0 -0.865,-0.058 -1.211,-0.171 -0.345,-0.115 -0.517,-0.287 -0.517,-0.516 0,-0.228 0.172,-0.4 0.517,-0.514 0.346,-0.114 0.692,-0.228 1.038,-0.342 0.346,-0.116 0.634,-0.287 0.865,-0.515 0.229,-0.23 0.518,-0.4 0.864,-0.516 0.345,-0.114 0.691,-0.228 1.037,-0.343 0.346,-0.113 0.634,-0.285 0.865,-0.514 0.229,-0.229 0.46,-0.458 0.691,-0.687 0.23,-0.228 0.461,-0.457 0.692,-0.685 0.229,-0.23 0.461,-0.459 0.691,-0.687 0.23,-0.229 0.403,-0.514 0.518,-0.858 0.115,-0.343 0.231,-0.687 0.346,-1.029 0.115,-0.343 0.288,-0.63 0.519,-0.859 0.23,-0.228 0.403,-0.514 0.518,-0.857 0.117,-0.344 0.231,-0.687 0.346,-1.029 0.114,-0.344 0.288,-0.629 0.519,-0.859 0.23,-0.229 0.403,-0.514 0.518,-0.857 0.115,-0.343 0.172,-0.744 0.172,-1.201 0,-0.458 0,-0.915 0,-1.373 0,-0.457 0,-0.914 0,-1.373 0,-0.457 -0.057,-0.857 -0.172,-1.201 -0.115,-0.342 -0.288,-0.629 -0.518,-0.857 -0.231,-0.229 -0.405,-0.515 -0.519,-0.858 -0.115,-0.343 -0.174,-0.743 -0.174,-1.201 0,-0.457 -0.055,-0.858 -0.172,-1.2 -0.115,-0.344 -0.288,-0.631 -0.518,-0.858 -0.231,-0.23 -0.404,-0.515 -0.519,-0.859 -0.115,-0.343 -0.231,-0.685 -0.346,-1.029 -0.115,-0.343 -0.288,-0.629 -0.518,-0.857 -0.23,-0.23 -0.462,-0.459 -0.691,-0.687 -0.231,-0.229 -0.462,-0.457 -0.692,-0.686 -0.231,-0.23 -0.462,-0.458 -0.691,-0.687 -0.231,-0.228 -0.462,-0.457 -0.692,-0.686 -0.231,-0.228 -0.461,-0.458 -0.692,-0.687 -0.23,-0.228 -0.518,-0.4 -0.864,-0.514 -0.346,-0.114 -0.691,-0.229 -1.037,-0.343 -0.346,-0.114 -0.633,-0.285 -0.864,-0.514 -0.231,-0.23 -0.52,-0.401 -0.865,-0.515 -0.346,-0.115 -0.692,-0.229 -1.037,-0.344 -0.346,-0.114 -0.633,-0.285 -0.864,-0.5137 -0.231,-0.2297 -0.519,-0.4014 -0.865,-0.5152 -0.344,-0.1148 -0.749,-0.1717 -1.209,-0.1717 -0.461,0 -0.922,0 -1.383,0 -0.461,0 -0.923,0 -1.383,0 -0.461,0 -0.923,0 -1.383,0 -0.461,0 -0.864,0.0569 -1.21,0.1717 -0.347,0.1138 -0.633,0.2855 -0.865,0.5152 -0.229,0.2287 -0.517,0.3997 -0.863,0.5137 -0.348,0.115 -0.749,0.172 -1.211,0.172 -0.461,0 -0.864,0.057 -1.21,0.172 -0.345,0.114 -0.634,0.285 -0.865,0.515 -0.229,0.229 -0.518,0.4 -0.863,0.514 -0.346,0.114 -0.692,0.229 -1.037,0.343 -0.346,0.114 -0.634,0.286 -0.866,0.514 -0.229,0.229 -0.46,0.459 -0.691,0.687 -0.229,0.229 -0.461,0.458 -0.691,0.686 -0.23,0.229 -0.519,0.4 -0.864,0.515 -0.346,0.114 -0.692,0.229 -1.038,0.344 -0.345,0.113 -0.576,0.342 -0.691,0.686 -0.115,0.343 -0.231,0.685 -0.345,1.029 -0.117,0.343 -0.289,0.629 -0.518,0.857 -0.232,0.229 -0.462,0.459 -0.693,0.687 -0.23,0.229 -0.461,0.457 -0.692,0.687 -0.23,0.227 -0.403,0.514 -0.518,0.858 -0.115,0.342 -0.231,0.685 -0.346,1.029 -0.114,0.342 -0.288,0.629 -0.519,0.857 -0.229,0.229 -0.403,0.515 -0.518,0.858 -0.115,0.343 -0.172,0.743 -0.172,1.202 0,0.457 -0.059,0.857 -0.173,1.2 -0.115,0.343 -0.289,0.63 -0.52,0.858 -0.229,0.229 -0.403,0.514 -0.518,0.858 -0.115,0.343 -0.172,0.743 -0.172,1.201 0,0.457 0,0.915 0,1.372 0,0.457 0,0.916 0,1.373 0,0.457 0,0.915 0,1.373 0,0.457 0,0.914 0,1.372 0,0.457 0.057,0.858 0.172,1.201 0.115,0.344 0.289,0.629 0.518,0.858 0.231,0.228 0.405,0.515 0.52,0.858 0.114,0.343 0.173,0.743 0.173,1.201 0,0.457 0.057,0.857 0.172,1.201 0.115,0.342 0.289,0.629 0.518,0.858 0.231,0.228 0.405,0.514 0.519,0.857 0.115,0.344 0.231,0.686 0.346,1.029 0.115,0.344 0.288,0.63 0.518,0.859 0.231,0.227 0.403,0.514 0.519,0.857 0.115,0.344 0.232,0.686 0.346,1.03 0.115,0.343 0.288,0.629 0.52,0.857 0.229,0.229 0.46,0.458 0.69,0.687 0.23,0.229 0.462,0.457 0.691,0.687 0.231,0.229 0.462,0.457 0.692,0.685 0.231,0.229 0.461,0.458 0.691,0.686 0.231,0.229 0.462,0.459 0.692,0.687 0.23,0.229 0.462,0.458 0.691,0.686 0.231,0.229 0.462,0.457 0.691,0.686 0.232,0.23 0.462,0.458 0.692,0.687 0.231,0.228 0.462,0.458 0.692,0.687 0.23,0.227 0.519,0.4 0.864,0.514 0.346,0.115 0.692,0.228 1.038,0.343 0.345,0.114 0.632,0.286 0.864,0.514 0.23,0.23 0.519,0.401 0.864,0.515 0.346,0.115 0.69,0.229 1.038,0.344 0.346,0.114 0.634,0.286 0.863,0.515 0.232,0.228 0.518,0.399 0.865,0.514 0.346,0.114 0.749,0.172 1.21,0.172 0.46,0 0.922,0 1.383,0 0.46,0 0.863,0.057 1.209,0.172 0.346,0.113 0.635,0.285 0.865,0.514 0.231,0.229 0.518,0.4 0.864,0.514 0.346,0.116 0.75,0.171 1.21,0.171 0.461,0 0.923,0 1.384,0 0.46,0 0.922,0 1.383,0 0.46,0 0.922,0 1.382,0 0.461,0 0.921,0 1.383,0 0.461,0 0.922,0 1.383,0 0.461,0 0.864,-0.055 1.21,-0.171 0.345,-0.114 0.634,-0.285 0.865,-0.514 0.229,-0.229 0.518,-0.401 0.863,-0.514 0.346,-0.115 0.75,-0.172 1.211,-0.172 0.461,0 0.921,0 1.383,0 0.46,0 0.864,-0.058 1.209,-0.172 0.346,-0.115 0.634,-0.286 0.866,-0.514 0.229,-0.229 0.517,-0.401 0.863,-0.515 0.346,-0.115 0.691,-0.229 1.038,-0.344 0.346,-0.114 0.634,-0.285 0.863,-0.515 0.232,-0.228 0.519,-0.4 0.865,-0.514 0.346,-0.115 0.692,-0.228 1.037,-0.343 0.346,-0.114 0.634,-0.287 0.864,-0.514 0.231,-0.229 0.519,-0.401 0.865,-0.515 0.345,-0.115 0.691,-0.229 1.037,-0.344 0.346,-0.115 0.635,-0.285 0.864,-0.515 0.231,-0.229 0.462,-0.457 0.691,-0.686 0.231,-0.228 0.461,-0.457 0.692,-0.686 0.231,-0.228 0.462,-0.458 0.691,-0.687 0.232,-0.228 0.461,-0.457 0.692,-0.686 0.231,-0.228 0.46,-0.456 0.692,-0.685 0.23,-0.23 0.46,-0.458 0.691,-0.687 0.231,-0.229 0.462,-0.458 0.691,-0.687 0.231,-0.228 0.461,-0.457 0.692,-0.686 0.231,-0.229 0.461,-0.457 0.691,-0.685 0.231,-0.23 0.404,-0.516 0.518,-0.859 0.116,-0.342 0.231,-0.686 0.346,-1.029 0.116,-0.344 0.288,-0.629 0.519,-0.858 0.231,-0.229 0.461,-0.458 0.691,-0.687 0.232,-0.228 0.461,-0.457 0.692,-0.685 0.231,-0.229 0.403,-0.516 0.518,-0.858 0.116,-0.344 0.232,-0.687 0.346,-1.03 0.116,-0.343 0.288,-0.629 0.519,-0.858 0.231,-0.228 0.403,-0.514 0.518,-0.857 0.116,-0.344 0.174,-0.744 0.174,-1.201 0,-0.458 0.057,-0.859 0.172,-1.201 0.116,-0.343 0.289,-0.63 0.519,-0.859 0.231,-0.228 0.403,-0.514 0.518,-0.857 0.116,-0.344 0.173,-0.744 0.173,-1.201 0,-0.457 0,-0.916 0,-1.373 0,-0.457 0.058,-0.857 0.173,-1.201 0.116,-0.342 0.288,-0.629 0.519,-0.857 0.231,-0.229 0.403,-0.515 0.518,-0.859 0.116,-0.342 0.173,-0.742 0.173,-1.201 0,-0.457 0,-0.914 0,-1.371 0,-0.459 0,-0.916 0,-1.374 0,-0.457 0,-0.914 0,-1.372 0,-0.457 0,-0.915 0,-1.372 0,-0.459 0,-0.916 0,-1.373 0,-0.458 0,-0.915 0,-1.373 0,-0.457 -0.057,-0.857 -0.173,-1.2 -0.115,-0.344 -0.287,-0.629 -0.518,-0.858 -0.231,-0.23 -0.403,-0.515 -0.519,-0.859 -0.115,-0.343 -0.173,-0.742 -0.173,-1.201 0,-0.457 0,-0.914 0,-1.371 0,-0.458 -0.057,-0.859 -0.173,-1.201 -0.115,-0.3434 -0.287,-0.63 -0.518,-0.8586 -0.23,-0.2286 -0.403,-0.5152 -0.519,-0.8575 -0.115,-0.3434 -0.172,-0.7437 -0.172,-1.201 0,-0.4577 -0.058,-0.8581 -0.174,-1.2012 -0.115,-0.3432 -0.287,-0.6291 -0.518,-0.8577 -0.231,-0.229 -0.403,-0.515 -0.519,-0.8578 -0.114,-0.3435 -0.23,-0.6866 -0.346,-1.0295 -0.115,-0.3434 -0.287,-0.6293 -0.518,-0.858 -0.231,-0.2287 -0.403,-0.5149 -0.519,-0.8581 -0.115,-0.3428 -0.23,-0.686 -0.346,-1.0294 -0.115,-0.3429 -0.287,-0.6288 -0.518,-0.8577 -0.231,-0.2287 -0.403,-0.5146 -0.519,-0.8578 -0.115,-0.3428 -0.23,-0.6863 -0.346,-1.0295 -0.114,-0.3428 -0.287,-0.6287 -0.518,-0.8577 -0.23,-0.2286 -0.46,-0.4576 -0.691,-0.6863 -0.231,-0.2286 -0.461,-0.4577 -0.692,-0.686 -0.229,-0.229 -0.403,-0.5149 -0.518,-0.8581 -0.116,-0.3431 -0.23,-0.6862 -0.347,-1.0294 -0.115,-0.3431 -0.287,-0.629 -0.517,-0.8581 -0.232,-0.2287 -0.461,-0.4573 -0.692,-0.686 -0.231,-0.2286 -0.46,-0.4576 -0.692,-0.6863 -0.229,-0.2286 -0.46,-0.4576 -0.691,-0.6863 -0.231,-0.2286 -0.461,-0.4573 -0.692,-0.6863 -0.229,-0.2287 -0.46,-0.4574 -0.691,-0.6863 -0.229,-0.2287 -0.461,-0.4574 -0.691,-0.686 -0.23,-0.229 -0.461,-0.4576 -0.692,-0.6866 -0.23,-0.2287 -0.518,-0.4001 -0.864,-0.5146 -0.346,-0.1142 -0.691,-0.2286 -1.037,-0.3432 -0.346,-0.1145 -0.634,-0.2859 -0.865,-0.5146 -0.23,-0.2286 -0.46,-0.4576 -0.692,-0.6863 -0.229,-0.2289 -0.459,-0.4573 -0.691,-0.6862 -0.229,-0.2287 -0.517,-0.4004 -0.863,-0.5146 -0.347,-0.1149 -0.692,-0.229 -1.038,-0.3435 -0.346,-0.1141 -0.634,-0.2859 -0.863,-0.5142 -0.232,-0.2291 -0.52,-0.4008 -0.866,-0.515 -0.345,-0.1145 -0.691,-0.2286 -1.037,-0.3431 -0.345,-0.1145 -0.634,-0.2859 -0.865,-0.5149 -0.229,-0.2286 -0.517,-0.4001 -0.864,-0.5146 -0.345,-0.1141 -0.691,-0.2286 -1.037,-0.3431 -0.345,-0.1142 -0.634,-0.2859 -0.863,-0.5146 -0.231,-0.229 -0.52,-0.4004 -0.865,-0.5149 -0.346,-0.1142 -0.749,-0.1714 -1.21,-0.1714 -0.461,0 -0.865,-0.0576 -1.21,-0.1718 -0.346,-0.1142 -0.635,-0.2859 -0.864,-0.5145 -0.231,-0.229 -0.519,-0.4004 -0.865,-0.5149 -0.346,-0.1142 -0.749,-0.1714 -1.209,-0.1714 -0.461,0 -0.923,0 -1.383,0 -0.461,0 -0.923,0 -1.384,0 -0.46,0 -0.922,0 -1.382,0 -0.461,0 -0.864,-0.0573 -1.211,-0.1714 -0.346,-0.1145 -0.633,-0.286 -0.864,-0.515 -0.231,-0.2287 -0.519,-0.4004 -0.865,-0.5146 -0.346,-0.1144 -0.749,-0.1717 -1.209,-0.1717 -0.461,0 -0.923,0 -1.384,0 -0.459,0 -0.92,0 -1.382,0 -0.461,0 -0.921,0 -1.383,0 -0.461,0 -0.923,0 -1.383,0 -0.461,0 -0.864,0.0573 -1.21,0.1717 -0.345,0.1142 -0.634,0.2859 -0.864,0.5146 -0.23,0.229 -0.518,0.4005 -0.864,0.515 -0.346,0.1141 -0.749,0.1714 -1.211,0.1714 -0.461,0 -0.921,0 -1.383,0 -0.46,0 -0.921,0 -1.383,0 -0.461,0 -0.921,0 -1.381,0 -0.462,0 -0.866,0.0572 -1.211,0.1714 -0.346,0.1145 -0.634,0.2859 -0.864,0.5149 -0.231,0.2286 -0.519,0.4003 -0.865,0.5145 -0.346,0.1142 -0.749,0.1718 -1.211,0.1718 -0.46,0 -0.921,0 -1.381,0 -0.462,0 -0.865,0.0572 -1.211,0.1714 -0.346,0.1145 -0.634,0.2859 -0.864,0.5149 -0.231,0.2287 -0.519,0.4004 -0.865,0.5146 -0.345,0.1145 -0.691,0.229 -1.037,0.3431 -0.346,0.1145 -0.634,0.286 -0.864,0.5146 -0.231,0.229 -0.519,0.4004 -0.865,0.5149 -0.345,0.1145 -0.749,0.1714 -1.209,0.1714 -0.462,0 -0.865,0.0572 -1.211,0.1717 -0.345,0.1142 -0.634,0.2859 -0.863,0.515 -0.231,0.2283 -0.461,0.4569 -0.692,0.686 -0.231,0.2286 -0.462,0.4576 -0.691,0.6863 -0.232,0.2289 -0.52,0.4003 -0.864,0.5148 -0.347,0.1142 -0.693,0.2287 -1.039,0.3432 -0.344,0.1141 -0.633,0.2859 -0.863,0.5145 -0.231,0.2287 -0.461,0.4577 -0.692,0.686 -0.231,0.2291 -0.46,0.4577 -0.692,0.6864 -0.23,0.229 -0.519,0.4007 -0.863,0.5149 -0.346,0.1142 -0.693,0.2286 -1.037,0.3428 -0.346,0.1148 -0.634,0.2862 -0.8649,0.5149 -0.2307,0.2289 -0.4614,0.4576 -0.6921,0.6863 -0.2294,0.229 -0.4601,0.4577 -0.6908,0.6863 -0.2307,0.2287 -0.4614,0.4577 -0.6909,0.6863 -0.2319,0.2287 -0.4614,0.4577 -0.6921,0.6863 -0.2307,0.2287 -0.4614,0.4573 -0.6921,0.686 -0.2307,0.2291 -0.4602,0.4576 -0.6909,0.6867 -0.2307,0.2287 -0.4614,0.4573 -0.6921,0.686 -0.2294,0.2289 -0.4601,0.4576 -0.6908,0.6863 -0.2307,0.2289 -0.4614,0.4576 -0.6921,0.6866 -0.2295,0.2283 -0.4602,0.4574 -0.6909,0.686 -0.2302,0.2287 -0.461,0.4577 -0.6912,0.6863 -0.231,0.229 -0.4611,0.4574 -0.6917,0.6863 -0.2304,0.2287 -0.461,0.4573 -0.6916,0.6863 -0.2304,0.2287 -0.4606,0.4577 -0.6916,0.686 -0.2301,0.229 -0.4606,0.4577 -0.6912,0.6864 -0.2305,0.2289 -0.4036,0.5148 -0.5185,0.8577 -0.1152,0.3434 -0.2306,0.6866 -0.3458,1.0294 -0.1152,0.3432 -0.288,0.6294 -0.5184,0.8581 -0.2306,0.2287 -0.4612,0.4576 -0.6917,0.6863 -0.2305,0.2287 -0.4611,0.4576 -0.6912,0.6863 -0.2306,0.2287 -0.4036,0.5149 -0.519,0.8577 -0.1152,0.3432 -0.23,0.686 -0.3453,1.0295 -0.1157,0.3432 -0.2883,0.6291 -0.5186,0.8577 -0.2309,0.229 -0.4036,0.5149 -0.5188,0.8581 -0.1153,0.3427 -0.2306,0.6862 -0.3458,1.0296 -0.1153,0.3423 -0.288,0.6289 -0.5186,0.8575 -0.2301,0.2286 -0.4032,0.5152 -0.5184,0.8586 -0.1153,0.342 -0.2306,0.686 -0.3458,1.029 -0.1153,0.343 -0.288,0.629 -0.5185,0.858 -0.2306,0.228 -0.4032,0.514 -0.5186,0.857 -0.1152,0.344 -0.173,0.744 -0.173,1.201 0,0.458 -0.0579,0.859 -0.1728,1.201 -0.1152,0.344 -0.2879,0.629 -0.5188,0.859 -0.2302,0.228 -0.4029,0.514 -0.5186,0.857 -0.1149,0.344 -0.1727,0.743 -0.1727,1.201 0,0.457 -0.0574,0.858 -0.1727,1.201 -0.1153,0.344 -0.2883,0.629 -0.5185,0.858 -0.2309,0.229 -0.4036,0.515 -0.5188,0.857 -0.115,0.344 -0.1728,0.744 -0.1728,1.201 0,0.458 0,0.915 0,1.374 0,0.457 0,0.914 0,1.371 0,0.459 0,0.916 0,1.373 0,0.458 0,0.915 0,1.373 0,0.457 -0.0578,0.858 -0.173,1.201 -0.115,0.343 -0.288,0.628 -0.5186,0.857 -0.2305,0.23 -0.4033,0.515 -0.5185,0.859 -0.1152,0.342 -0.1728,0.743 -0.1728,1.201 0,0.457 0,0.914 0,1.372 0,0.457 0,0.915 0,1.373 0,0.457 0.0576,0.857 0.1728,1.201 0.1152,0.343 0.288,0.629 0.5185,0.857 0.2306,0.229 0.4036,0.515 0.5186,0.858 0.1152,0.343 0.173,0.744 0.173,1.202 0,0.457 0,0.914 0,1.371 0,0.458 0,0.916 0,1.373 0,0.458 0,0.914 0,1.373 0,0.457 0,0.915 0,1.372 0,0.458 0,0.915 0,1.373 0,0.457 0,0.916 0,1.372 0,0.458 0.0578,0.858 0.1728,1.202 0.1152,0.343 0.2879,0.629 0.5188,0.857 0.2302,0.229 0.4032,0.515 0.5185,0.858 0.1153,0.343 0.1727,0.743 0.1727,1.202 0,0.456 0,0.914 0,1.371 0,0.459 0.0578,0.859 0.1727,1.201 0.1157,0.345 0.2884,0.629 0.5186,0.859 0.2309,0.228 0.4036,0.515 0.5188,0.857 0.1149,0.343 0.1728,0.744 0.1728,1.201 0,0.457 0.0578,0.858 0.173,1.201 0.1154,0.344 0.288,0.63 0.5186,0.858 0.2305,0.228 0.4032,0.515 0.5185,0.858 0.1152,0.344 0.1731,0.744 0.1731,1.201 0,0.457 0.0574,0.858 0.1727,1.201 0.1152,0.344 0.2883,0.629 0.5184,0.858 0.2306,0.228 0.4033,0.515 0.5186,0.857 0.1152,0.344 0.2305,0.687 0.3458,1.029 0.1152,0.345 0.2879,0.63 0.5188,0.86 0.2303,0.228 0.4029,0.514 0.5186,0.856 0.1153,0.344 0.2301,0.687 0.3453,1.03 0.1154,0.344 0.2884,0.629 0.519,0.858 0.2301,0.229 0.4032,0.515 0.5185,0.858 0.1149,0.342 0.2302,0.687 0.3458,1.029 0.1153,0.343 0.288,0.629 0.5186,0.859 0.2304,0.228 0.4606,0.457 0.6916,0.685 0.23,0.23 0.4606,0.459 0.6911,0.686 0.2306,0.229 0.4037,0.515 0.5186,0.858 0.1152,0.344 0.2305,0.686 0.3458,1.031 0.1152,0.342 0.288,0.628 0.5184,0.856 0.2306,0.229 0.4612,0.459 0.6916,0.687 0.2306,0.229 0.4607,0.458 0.6917,0.687 0.2302,0.228 0.461,0.457 0.6912,0.686 0.2307,0.229 0.4614,0.457 0.6909,0.686 0.2307,0.228 0.4043,0.515 0.5197,0.857 0.1141,0.344 0.2294,0.687 0.3448,1.031 0.1153,0.343 0.289,0.628 0.5184,0.857 0.2307,0.229 0.4614,0.457 0.6921,0.687 0.2307,0.229 0.4602,0.457 0.6909,0.685 0.2307,0.229 0.4614,0.458 0.6921,0.686 0.2307,0.23 0.4602,0.459 0.6921,0.687 0.2295,0.229 0.4602,0.458 0.6909,0.686 0.2307,0.229 0.4614,0.457 0.6908,0.686 0.2307,0.23 0.4614,0.458 0.6921,0.687 0.2309,0.228 0.4599,0.458 0.6909,0.686 0.231,0.228 0.461,0.457 0.692,0.686 0.23,0.229 0.462,0.458 0.691,0.686 0.231,0.23 0.461,0.459 0.691,0.687 0.232,0.229 0.461,0.458 0.692,0.687 0.231,0.228 0.461,0.456 0.692,0.686 0.23,0.228 0.46,0.457 0.691,0.686 0.231,0.229 0.461,0.457 0.691,0.685 0.231,0.23 0.461,0.459 0.692,0.687 0.231,0.229 0.46,0.457 0.692,0.687 0.229,0.229 0.46,0.457 0.691,0.686 0.231,0.23 0.461,0.457 0.692,0.686 0.229,0.228 0.46,0.458 0.691,0.687 0.231,0.228 0.461,0.457 0.691,0.686 0.23,0.229 0.518,0.401 0.864,0.514 0.346,0.115 0.692,0.229 1.037,0.344 0.346,0.114 0.634,0.285 0.865,0.514 0.23,0.229 0.461,0.458 0.692,0.687 0.23,0.228 0.46,0.457 0.691,0.686 0.23,0.228 0.518,0.401 0.864,0.515 0.346,0.115 0.691,0.228 1.037,0.342 0.346,0.115 0.634,0.287 0.865,0.515 0.23,0.229 0.461,0.459 0.692,0.687 0.229,0.229 0.46,0.457 0.691,0.687 0.23,0.228 0.518,0.399 0.864,0.514 0.346,0.114 0.691,0.229 1.037,0.342 0.346,0.115 0.634,0.287 0.865,0.516 0.23,0.228 0.518,0.4 0.864,0.514 0.345,0.114 0.691,0.228 1.037,0.343 0.346,0.115 0.634,0.286 0.864,0.515 0.23,0.229 0.519,0.401 0.864,0.515 0.346,0.114 0.692,0.229 1.038,0.343 0.345,0.115 0.634,0.286 0.864,0.515 0.23,0.229 0.519,0.4 0.864,0.514 0.346,0.114 0.692,0.229 1.038,0.343 0.346,0.115 0.634,0.286 0.864,0.516 0.23,0.228 0.519,0.4 0.864,0.514 0.346,0.114 0.692,0.228 1.038,0.343 0.345,0.114 0.518,0.286 0.518,0.514 0,0.229 -0.173,0.402 -0.518,0.515 -0.346,0.114 -0.749,0.172 -1.211,0.172 -0.461,0 -0.923,0 -1.383,0 -0.46,0 -0.921,0 -1.383,0 -0.461,0 -0.864,-0.058 -1.21,-0.172 -0.345,-0.113 -0.633,-0.286 -0.864,-0.515 -0.23,-0.228 -0.519,-0.4 -0.864,-0.514 -0.346,-0.115 -0.749,-0.172 -1.209,-0.172 -0.462,0 -0.923,0 -1.385,0 -0.46,0 -0.864,-0.057 -1.209,-0.171 -0.346,-0.114 -0.634,-0.286 -0.864,-0.514 -0.231,-0.23 -0.519,-0.401 -0.865,-0.516 -0.346,-0.114 -0.749,-0.171 -1.209,-0.171 -0.462,0 -0.865,-0.058 -1.211,-0.172 -0.346,-0.114 -0.634,-0.285 -0.864,-0.514 -0.231,-0.229 -0.519,-0.4 -0.865,-0.515 -0.345,-0.114 -0.749,-0.172 -1.209,-0.172 -0.462,0 -0.865,-0.057 -1.211,-0.171 -0.346,-0.114 -0.634,-0.286 -0.864,-0.515 -0.231,-0.229 -0.519,-0.4 -0.865,-0.515 -0.345,-0.115 -0.691,-0.229 -1.037,-0.343 -0.345,-0.114 -0.634,-0.286 -0.863,-0.514 -0.231,-0.229 -0.52,-0.401 -0.866,-0.516 -0.345,-0.113 -0.691,-0.228 -1.037,-0.342 -0.344,-0.115 -0.633,-0.286 -0.864,-0.514 -0.23,-0.23 -0.519,-0.401 -0.863,-0.515 -0.347,-0.115 -0.693,-0.23 -1.037,-0.345 -0.346,-0.113 -0.634,-0.285 -0.866,-0.514 -0.23,-0.228 -0.46,-0.457 -0.691,-0.685 -0.229,-0.23 -0.461,-0.459 -0.691,-0.687 -0.231,-0.229 -0.518,-0.4 -0.864,-0.514 -0.3464,-0.115 -0.6925,-0.23 -1.0385,-0.344 -0.3449,-0.115 -0.6326,-0.286 -0.8633,-0.515 -0.2307,-0.229 -0.4614,-0.457 -0.6909,-0.687 -0.2319,-0.227 -0.4614,-0.456 -0.6921,-0.685 -0.2307,-0.229 -0.4614,-0.458 -0.6921,-0.686 -0.2307,-0.229 -0.4602,-0.459 -0.6909,-0.687 -0.2307,-0.229 -0.5184,-0.401 -0.8645,-0.514 -0.346,-0.115 -0.6908,-0.229 -1.0369,-0.344 -0.3461,-0.114 -0.6338,-0.285 -0.8645,-0.514 -0.2302,-0.23 -0.461,-0.458 -0.6912,-0.687 -0.231,-0.228 -0.4611,-0.457 -0.6917,-0.687 -0.2304,-0.228 -0.461,-0.456 -0.6916,-0.685 -0.2304,-0.229 -0.4606,-0.458 -0.6916,-0.686 -0.2301,-0.23 -0.4606,-0.458 -0.6912,-0.686 -0.2305,-0.229 -0.4611,-0.458 -0.6911,-0.687 -0.231,-0.228 -0.4612,-0.457 -0.6916,-0.687 -0.2306,-0.228 -0.4033,-0.515 -0.5186,-0.857 -0.1156,-0.343 -0.2309,-0.686 -0.3458,-1.029 -0.1153,-0.343 -0.2884,-0.629 -0.5185,-0.859 -0.2306,-0.229 -0.461,-0.457 -0.6916,-0.686 -0.2306,-0.228 -0.461,-0.457 -0.6913,-0.686 -0.2309,-0.228 -0.461,-0.457 -0.6919,-0.687 -0.2301,-0.228 -0.4607,-0.457 -0.6913,-0.686 -0.2301,-0.228 -0.461,-0.456 -0.6911,-0.685 -0.2306,-0.23 -0.4611,-0.458 -0.6916,-0.687 -0.2306,-0.229 -0.4032,-0.514 -0.5186,-0.857 -0.1152,-0.344 -0.2309,-0.687 -0.3458,-1.031 -0.1152,-0.342 -0.2879,-0.629 -0.5188,-0.857 -0.2302,-0.229 -0.4607,-0.457 -0.6913,-0.686 -0.2302,-0.229 -0.461,-0.458 -0.6912,-0.686 -0.2309,-0.229 -0.4036,-0.516 -0.5188,-0.858 -0.115,-0.344 -0.2306,-0.687 -0.3458,-1.03 -0.115,-0.342 -0.288,-0.629 -0.5186,-0.857 -0.2305,-0.23 -0.4033,-0.516 -0.5185,-0.859 -0.1152,-0.342 -0.2306,-0.686 -0.3454,-1.029 -0.1152,-0.343 -0.2884,-0.629 -0.519,-0.857 -0.2304,-0.23 -0.4036,-0.516 -0.5184,-0.859 -0.1153,-0.342 -0.2306,-0.687 -0.3458,-1.029 -0.1153,-0.343 -0.288,-0.629 -0.5189,-0.858 -0.2302,-0.229 -0.4028,-0.514 -0.5182,-0.858 -0.1156,-0.343 -0.2308,-0.686 -0.3458,-1.03 -0.1152,-0.342 -0.2882,-0.628 -0.5184,-0.856 -0.2306,-0.23 -0.4036,-0.515 -0.5189,-0.86 -0.1153,-0.342 -0.1728,-0.742 -0.1728,-1.199 0,-0.459 -0.0574,-0.858 -0.173,-1.201 -0.1153,-0.344 -0.288,-0.63 -0.5182,-0.859 -0.2308,-0.229 -0.4036,-0.514 -0.5185,-0.858 -0.1157,-0.343 -0.1735,-0.743 -0.1735,-1.2 0,-0.459 -0.0574,-0.859 -0.1726,-1.201 -0.1153,-0.344 -0.288,-0.629 -0.5186,-0.858 -0.2301,-0.23 -0.4032,-0.514 -0.5185,-0.859 -0.1152,-0.342 -0.1726,-0.743 -0.1726,-1.2 0,-0.458 0,-0.916 0,-1.372 0,-0.458 -0.058,-0.859 -0.1732,-1.202 -0.1152,-0.342 -0.288,-0.629 -0.5184,-0.858 -0.2306,-0.229 -0.4033,-0.514 -0.5186,-0.857 -0.1152,-0.343 -0.1731,-0.744 -0.1731,-1.202 0,-0.457 0,-0.914 0,-1.372 0,-0.458 0,-0.915 0,-1.373 0,-0.456 0,-0.915 0,-1.372 0,-0.458 -0.0574,-0.857 -0.1727,-1.201 -0.1153,-0.343 -0.2879,-0.629 -0.5189,-0.857 -0.2302,-0.23 -0.4028,-0.516 -0.5185,-0.859 C 68.0578,132.29 68,131.889 68,131.431 c 0,-0.457 0,-0.915 0,-1.373 0,-0.457 0,-0.914 0,-1.371 0,-0.458 0,-0.916 0,-1.373 0,-0.458 0,-0.915 0,-1.372 0,-0.459 0,-0.916 0,-1.373 0,-0.458 0,-0.916 0,-1.373 0,-0.458 0,-0.915 0,-1.372 0,-0.458 0,-0.916 0,-1.373 0,-0.457 0,-0.916 0,-1.373 0,-0.457 0,-0.915 0,-1.372 0,-0.458 0.0578,-0.858 0.1727,-1.201 0.1157,-0.344 0.2883,-0.629 0.5185,-0.858 0.231,-0.228 0.4036,-0.515 0.5189,-0.858 0.1153,-0.343 0.1727,-0.743 0.1727,-1.2 0,-0.459 0,-0.916 0,-1.374 0,-0.457 0,-0.914 0,-1.372 0,-0.457 0,-0.915 0,-1.372 0,-0.459 0.0579,-0.858 0.1731,-1.201 0.1153,-0.344 0.288,-0.63 0.5186,-0.859 0.2304,-0.228 0.4032,-0.514 0.5184,-0.857 0.1152,-0.344 0.1732,-0.744 0.1732,-1.201 0,-0.457 0.0574,-0.858 0.1726,-1.201 0.1153,-0.344 0.2884,-0.629 0.5185,-0.858 0.2306,-0.228 0.4033,-0.515 0.5186,-0.858 0.1152,-0.343 0.1726,-0.743 0.1726,-1.2 0,-0.458 0.0578,-0.859 0.1735,-1.201 0.1149,-0.3434 0.2877,-0.63 0.5185,-0.8586 0.2302,-0.2286 0.4029,-0.5152 0.5182,-0.8575 0.1156,-0.3434 0.2305,-0.6869 0.3458,-1.0296 0.1153,-0.3432 0.2883,-0.6291 0.5189,-0.8581 0.2302,-0.2286 0.4032,-0.5145 0.5184,-0.8577 0.115,-0.3435 0.2302,-0.6863 0.3458,-1.0295 0.1154,-0.3428 0.288,-0.629 0.5182,-0.8577 0.2309,-0.2287 0.4036,-0.5146 0.5189,-0.858 0.1152,-0.3429 0.2305,-0.686 0.3458,-1.0295 0.1148,-0.3432 0.288,-0.6291 0.5184,-0.8578 0.2306,-0.2286 0.4038,-0.5148 0.519,-0.8577 0.1148,-0.3431 0.2302,-0.6863 0.3454,-1.0294 0.1152,-0.3432 0.288,-0.6291 0.5185,-0.8578 0.2306,-0.229 0.4036,-0.5149 0.5186,-0.8577 0.1152,-0.3434 0.2308,-0.6866 0.3458,-1.0294 0.1152,-0.3436 0.2879,-0.6295 0.5188,-0.8578 0.2302,-0.229 0.461,-0.4577 0.6912,-0.6866 0.2306,-0.2287 0.4611,-0.4574 0.6913,-0.6863 0.2309,-0.2287 0.461,-0.4573 0.6916,-0.686 0.2304,-0.2291 0.461,-0.4576 0.6916,-0.6867 0.2305,-0.2287 0.4032,-0.5146 0.5185,-0.8577 0.1152,-0.3429 0.2305,-0.6863 0.3458,-1.0294 0.1152,-0.3429 0.2883,-0.6288 0.5184,-0.8578 0.2306,-0.2287 0.4612,-0.4574 0.6913,-0.6863 0.2309,-0.2287 0.461,-0.4574 0.6919,-0.686 0.2303,-0.229 0.4607,-0.4576 0.6913,-0.6866 0.2306,-0.2287 0.461,-0.4573 0.6916,-0.6864 0.2301,-0.2283 0.4607,-0.4573 0.6912,-0.686 0.2305,-0.2286 0.4611,-0.4576 0.6917,-0.6863 0.2304,-0.2289 0.4606,-0.4573 0.6916,-0.6862 0.23,-0.2287 0.4606,-0.4577 0.6911,-0.6863 0.2306,-0.2291 0.4611,-0.4577 0.6912,-0.686 0.231,-0.2291 0.519,-0.4008 0.8648,-0.515 0.3454,-0.1145 0.6912,-0.2286 1.0369,-0.3431 0.3458,-0.1145 0.6342,-0.2859 0.8644,-0.5149 0.2307,-0.2286 0.4614,-0.4573 0.6909,-0.686 0.2307,-0.2289 0.4614,-0.4576 0.6921,-0.6863 0.2307,-0.229 0.4614,-0.4577 0.6908,-0.6863 0.2307,-0.2287 0.4614,-0.4577 0.6921,-0.6863 0.2307,-0.229 0.5185,-0.4004 0.8645,-0.5149 0.3449,-0.1142 0.6909,-0.2287 1.037,-0.3428 0.346,-0.1145 0.6338,-0.286 0.8645,-0.515 0.2307,-0.2287 0.4614,-0.4572 0.6908,-0.6863 0.2307,-0.2287 0.4614,-0.4573 0.6921,-0.686 0.2309,-0.2289 0.5189,-0.4007 0.8649,-0.5148 0.344,-0.1145 0.691,-0.2287 1.037,-0.3432 0.344,-0.1145 0.633,-0.2859 0.863,-0.5149 0.232,-0.2283 0.52,-0.4 0.866,-0.5142 0.344,-0.1149 0.69,-0.2291 1.037,-0.3436 0.344,-0.1141 0.633,-0.2859 0.863,-0.5145 0.231,-0.229 0.52,-0.4004 0.864,-0.5149 0.346,-0.1142 0.749,-0.1714 1.211,-0.1714 0.461,0 0.864,-0.0572 1.21,-0.1714 0.345,-0.1145 0.634,-0.2862 0.864,-0.5149 0.23,-0.229 0.518,-0.4001 0.864,-0.5149 0.346,-0.1142 0.692,-0.2287 1.037,-0.3429 0.346,-0.1145 0.634,-0.2859 0.865,-0.5149 0.23,-0.2286 0.518,-0.4002 0.864,-0.5145 0.346,-0.1143 0.749,-0.1716 1.211,-0.1716 0.46,0 0.921,0 1.383,0 0.46,0 0.863,-0.0571 1.209,-0.1717 0.346,-0.1143 0.634,-0.2859 0.865,-0.5145 0.23,-0.2289 0.518,-0.4002 0.864,-0.515 0.346,-0.1143 0.749,-0.1712 1.209,-0.1712 0.462,0 0.923,0 1.383,0 0.462,0 0.923,0 1.385,0 0.46,0 0.863,-0.0574 1.209,-0.1717 0.345,-0.1143 0.634,-0.2859 0.864,-0.5148 z"
         fill="url(#paint1_linear)"
         stroke="url(#paint2_linear)"
         stroke-width="10"
         id="path2"
         style="fill:url(#paint1_linear-6);stroke:url(#paint2_linear)" /></g><g
       id="g11"
       transform="matrix(0.74999965,0,0,0.74999965,3.7743922e-7,1.908614e-5)"><path
         d="M 8.24717,5.28688 C 10.8404,4.80099 13.5052,5.09747 16.1297,5.01923 18.8839,5.09747 21.902,4.61569 24.37,6.03631 c 2.3518,1.37121 3.8988,3.59891 6.0002,5.24599 0.7735,0.5518 1.7751,0.7577 2.7453,0.7412 9.4028,0 18.8055,0.0124 28.2083,0.0659 1.6185,-0.1277 3.018,1.4165 2.6022,2.8577 -0.2281,1.1159 -1.404,1.9436 -2.6291,1.8695 C 51.7466,16.8289 42.1963,16.7836 32.646,16.7754 30.4597,16.763 28.2778,16.0177 26.6547,14.663 24.6696,13.1765 23.3506,10.8953 21.0033,9.87817 17.7483,9.63934 14.462,9.84523 11.1981,9.77522 8.9536,9.63934 6.7091,10.8252 5.75228,12.7029 c -0.65725,1.1901 -0.541,2.5572 -0.54994,3.846 0.02235,10.8503 -0.00895,21.7005 0.01341,32.5549 -0.03577,2.0342 1.4084,3.9777 3.4517,4.7354 1.21614,0.4777 2.56645,0.3871 3.85855,0.3953 13.5833,-0.0206 27.1665,0.0083 40.7453,-0.0165 2.1014,0.0083 4.1134,-1.2023 4.9898,-2.9524 0.7019,-1.3135 0.5007,-2.8124 0.5275,-4.2248 0.009,-6.0284 -0.0312,-12.0567 0.0179,-18.0851 -0.0357,-1.3548 1.3995,-2.4954 2.8481,-2.3183 1.4219,0.0865 2.486,1.3712 2.325,2.6601 0,6.7366 0.0313,13.4732 -0.0134,20.214 C 63.9036,54.498 59.1016,58.8917 53.696,58.974 39.384,59.0234 25.0675,58.9864 10.7555,58.9905 6.61521,59.0317 2.60462,56.6516 0.945834,53.1557 0.163389,51.6362 -0.0243975,49.9356 0.00242916,48.272 0.0381981,37.01 -0.0243977,25.7397 0.0337268,14.4777 0.114207,10.1664 3.70004,6.22985 8.24717,5.28688 Z"
         id="path111"
         style="fill:url(#linearGradient30);fill-opacity:1;stroke:url(#linearGradient30);stroke-width:0;stroke-dasharray:none" /></g><rect
       style="fill:none;fill-opacity:1;fill-rule:evenodd;stroke:#000000;stroke-width:3.9;stroke-linejoin:round;stroke-dasharray:none;stroke-opacity:0;paint-order:fill markers stroke"
       id="rect1"
       width="44.075188"
       height="31.645638"
       x="1.9758538"
       y="10.78429" /></g><defs
     id="defs1"><linearGradient
       id="linearGradient6"
       inkscape:collect="always"
       inkscape:label="1"><stop
         style="stop-color:#fe7970;stop-opacity:1;"
         offset="0"
         id="stop5" /><stop
         style="stop-color:#dc3282;stop-opacity:1;"
         offset="1"
         id="stop6" /></linearGradient><linearGradient
       inkscape:collect="always"
       xlink:href="#linearGradient6"
       id="linearGradient30"
       gradientUnits="userSpaceOnUse"
       gradientTransform="matrix(1.421128,-0.01199146,0.01198687,1.4216711,-101.30678,-100.47471)"
       x1="113.71477"
       y1="83.461578"
       x2="75.450188"
       y2="108.61395" /><linearGradient
       id="paint1_linear"
       x1="4.5768099"
       y1="45.678902"
       x2="42.3731"
       y2="4.1876402"
       gradientUnits="userSpaceOnUse"
       gradientTransform="matrix(1.4285714,0,0,1.4285714,-8.757358,-11.86756)"><stop
         stop-color="#FF5508"
         id="stop4-7" /><stop
         offset="1"
         stop-color="#FFA208"
         id="stop5-8" /></linearGradient><linearGradient
       id="paint0_linear"
       x1="4.5768099"
       y1="45.678799"
       x2="42.3731"
       y2="4.1875501"
       gradientUnits="userSpaceOnUse"
       gradientTransform="matrix(1.4285714,0,0,1.4285714,-8.757358,-11.86756)"><stop
         stop-color="#FF5508"
         id="stop2-4" /><stop
         offset="1"
         stop-color="#FFA208"
         id="stop3-5" /></linearGradient><linearGradient
       id="paint0_linear-3"
       x1="227.408"
       y1="5.5722"
       x2="-12.621"
       y2="197.532"
       gradientUnits="userSpaceOnUse"><stop
         stop-color="#FE7970"
         id="stop2" /><stop
         offset="1"
         stop-color="#DC3282"
         id="stop3" /></linearGradient><linearGradient
       id="paint1_linear-6"
       x1="187.955"
       y1="58.8876"
       x2="50.8156"
       y2="175.761"
       gradientUnits="userSpaceOnUse"><stop
         stop-color="#FE7970"
         id="stop4" /><stop
         offset="1"
         stop-color="#DC3282"
         id="stop5-7" /></linearGradient><linearGradient
       id="paint2_linear"
       x1="187.957"
       y1="58.8876"
       x2="50.8157"
       y2="175.761"
       gradientUnits="userSpaceOnUse"><stop
         stop-color="#FE7970"
         id="stop6-5" /><stop
         offset="1"
         stop-color="#DC3282"
         id="stop7" /></linearGradient></defs><metadata
     id="metadata1"><rdf:RDF><cc:Work
         rdf:about=""><dc:title>folder-deb</dc:title><dc:date>22-07-2025</dc:date><dc:description>Beautyline style deb folder icon</dc:description><cc:license
           rdf:resource="http://creativecommons.org/licenses/by-nc-sa/4.0/" /></cc:Work><cc:License
         rdf:about="http://creativecommons.org/licenses/by-nc-sa/4.0/"><cc:permits
           rdf:resource="http://creativecommons.org/ns#Reproduction" /><cc:permits
           rdf:resource="http://creativecommons.org/ns#Distribution" /><cc:requires
           rdf:resource="http://creativecommons.org/ns#Notice" /><cc:requires
           rdf:resource="http://creativecommons.org/ns#Attribution" /><cc:prohibits
           rdf:resource="http://creativecommons.org/ns#CommercialUse" /><cc:permits
           rdf:resource="http://creativecommons.org/ns#DerivativeWorks" /><cc:requires
           rdf:resource="http://creativecommons.org/ns#ShareAlike" /></cc:License></rdf:RDF></metadata></svg>
