<?xml version="1.0" encoding="UTF-8" standalone="no"?>
<svg
   width="48"
   height="48"
   viewBox="0 0 48 48"
   fill="none"
   version="2"
   id="svg1"
   sodipodi:docname="folder-table_office-alt.svg"
   inkscape:version="1.4.2 (ebf0e940d0, 2025-05-08)"
   xml:space="preserve"
   xmlns:inkscape="http://www.inkscape.org/namespaces/inkscape"
   xmlns:sodipodi="http://sodipodi.sourceforge.net/DTD/sodipodi-0.dtd"
   xmlns:xlink="http://www.w3.org/1999/xlink"
   xmlns="http://www.w3.org/2000/svg"
   xmlns:svg="http://www.w3.org/2000/svg"
   xmlns:rdf="http://www.w3.org/1999/02/22-rdf-syntax-ns#"
   xmlns:cc="http://creativecommons.org/ns#"
   xmlns:dc="http://purl.org/dc/elements/1.1/"><title
     id="title1">folder-</title><sodipodi:namedview
     id="namedview1"
     pagecolor="#3f4354"
     bordercolor="#000000"
     borderopacity="0.5"
     inkscape:showpageshadow="1"
     inkscape:pageopacity="0"
     inkscape:pagecheckerboard="1"
     inkscape:deskcolor="#2b2f40"
     showgrid="false"
     inkscape:zoom="12.660461"
     inkscape:cx="22.313564"
     inkscape:cy="26.341853"
     inkscape:window-width="1920"
     inkscape:window-height="1048"
     inkscape:window-x="0"
     inkscape:window-y="0"
     inkscape:window-maximized="1"
     inkscape:current-layer="g1" /><g
     id="g1"><g
       id="g11"
       transform="matrix(0.74999965,0,0,0.74999965,3.7743922e-7,1.908614e-5)"
       style="fill:url(#linearGradient3)"><path
         d="M 8.24717,5.28688 C 10.8404,4.80099 13.5052,5.09747 16.1297,5.01923 18.8839,5.09747 21.902,4.61569 24.37,6.03631 c 2.3518,1.37121 3.8988,3.59891 6.0002,5.24599 0.7735,0.5518 1.7751,0.7577 2.7453,0.7412 9.4028,0 18.8055,0.0124 28.2083,0.0659 1.6185,-0.1277 3.018,1.4165 2.6022,2.8577 -0.2281,1.1159 -1.404,1.9436 -2.6291,1.8695 C 51.7466,16.8289 42.1963,16.7836 32.646,16.7754 30.4597,16.763 28.2778,16.0177 26.6547,14.663 24.6696,13.1765 23.3506,10.8953 21.0033,9.87817 17.7483,9.63934 14.462,9.84523 11.1981,9.77522 8.9536,9.63934 6.7091,10.8252 5.75228,12.7029 c -0.65725,1.1901 -0.541,2.5572 -0.54994,3.846 0.02235,10.8503 -0.00895,21.7005 0.01341,32.5549 -0.03577,2.0342 1.4084,3.9777 3.4517,4.7354 1.21614,0.4777 2.56645,0.3871 3.85855,0.3953 13.5833,-0.0206 27.1665,0.0083 40.7453,-0.0165 2.1014,0.0083 4.1134,-1.2023 4.9898,-2.9524 0.7019,-1.3135 0.5007,-2.8124 0.5275,-4.2248 0.009,-6.0284 -0.0312,-12.0567 0.0179,-18.0851 -0.0357,-1.3548 1.3995,-2.4954 2.8481,-2.3183 1.4219,0.0865 2.486,1.3712 2.325,2.6601 0,6.7366 0.0313,13.4732 -0.0134,20.214 C 63.9036,54.498 59.1016,58.8917 53.696,58.974 39.384,59.0234 25.0675,58.9864 10.7555,58.9905 6.61521,59.0317 2.60462,56.6516 0.945834,53.1557 0.163389,51.6362 -0.0243975,49.9356 0.00242916,48.272 0.0381981,37.01 -0.0243977,25.7397 0.0337268,14.4777 0.114207,10.1664 3.70004,6.22985 8.24717,5.28688 Z"
         id="path111"
         style="fill:url(#linearGradient2);fill-opacity:1;stroke:url(#linearGradient30);stroke-width:0;stroke-dasharray:none" /></g><g
       style="fill:none"
       id="g2"
       transform="matrix(0.09748516,0,0,0.09748516,11.58409,14.415875)"><path
         d="m 221,61.2412 c 0,-0.9855 -0.323,-2.0786 -0.859,-2.9121 -0.58,-0.9017 -1.24,-1.9293 -1.241,-1.9306 L 171,9.17432 C 169.555,7.80488 158.291,1.96167 156.269,1.96167 H 41.1923 C 37.2202,1.96167 34,5.19101 34,9.17432 V 240.94 c 0,3.984 3.2202,7.213 7.1923,7.213 H 213.808 c 3.972,0 7.192,-3.229 7.192,-7.213 V 66.8754 c 0,-1.6627 0,-2.4259 0,-5.6342 z M 163.462,33.804 c 0,-2.6373 3.264,-3.9429 5.144,-2.0576 l 22.852,22.9164 c 1.858,1.8629 0.512,5 -2.145,5 h -22.851 c -1.657,0 -3,-1.3174 -3,-2.9425 z M 55,230.988 c -1.6569,0 -3,-1.317 -3,-2.942 V 22.069 c 0,-1.6252 1.3431,-2.9426 3,-2.9426 h 86.5 c 1.657,0 3,1.3174 3,2.9426 v 37.5938 c 0,3.9833 14.989,17.8238 18.962,17.8238 H 200 c 1.657,0 3,1.3173 3,2.9425 V 228.046 c 0,1.625 -1.343,2.942 -3,2.942 z"
         fill="url(#paint0_linear)"
         id="path1"
         style="fill:url(#paint0_linear-5)" /><path
         d="M 128,113.092 H 87 c -3.3137,0 -6,2.762 -6,6.169 v 26.388 m 47,-32.557 v 32.557 m 0,-32.557 h 41 c 3.314,0 6,2.762 6,6.169 v 26.388 m -47,0 H 81 m 47,0 v 32.557 m 0,-32.557 h 47 m -94,0 v 32.557 m 47,0 h 47 m -47,0 v 32.557 m 0,-32.557 H 81 m 94,0 v 26.388 c 0,3.407 -2.686,6.169 -6,6.169 h -41 m 47,-32.557 v -32.557 m -47,65.114 H 87 c -3.3137,0 -6,-2.762 -6,-6.169 v -26.388"
         stroke="url(#paint1_linear)"
         stroke-width="12"
         id="path2"
         style="stroke:url(#paint1_linear)" /></g></g><defs
     id="defs1"><linearGradient
       id="paint0_linear"
       x1="94.0831"
       y1="102.397"
       x2="94.0831"
       y2="5"
       gradientUnits="userSpaceOnUse"
       gradientTransform="matrix(1.0455138,0,0,1.0223426,-7.6008048,-2.552391)"><stop
         stop-color="#FD2E00"
         id="stop14" /><stop
         offset="1"
         stop-color="#FF9900"
         id="stop16" /></linearGradient><linearGradient
       inkscape:collect="always"
       xlink:href="#paint0_linear"
       id="linearGradient3"
       x1="32.000015"
       y1="58.999977"
       x2="32.000015"
       y2="5.000001"
       gradientUnits="userSpaceOnUse" /><linearGradient
       id="paint0_linear-5"
       x1="34"
       y1="125.057"
       x2="221"
       y2="125.057"
       gradientUnits="userSpaceOnUse"><stop
         stop-color="#02AA93"
         id="stop2" /><stop
         offset="1"
         stop-color="#67FF80"
         id="stop3" /></linearGradient><linearGradient
       id="paint1_linear"
       x1="81"
       y1="161.928"
       x2="175"
       y2="161.928"
       gradientUnits="userSpaceOnUse"><stop
         stop-color="#02AA93"
         id="stop4" /><stop
         offset="1"
         stop-color="#67FF80"
         id="stop5" /></linearGradient><linearGradient
       inkscape:collect="always"
       xlink:href="#paint1_linear"
       id="linearGradient2"
       gradientUnits="userSpaceOnUse"
       x1="-2.036644e-09"
       y1="31.999989"
       x2="64.000031"
       y2="31.999989" /></defs><metadata
     id="metadata1"><rdf:RDF><cc:Work
         rdf:about=""><dc:title>folder-</dc:title><dc:date>26-07-2025</dc:date><dc:description>Beautyline style * folder icon</dc:description><cc:license
           rdf:resource="http://creativecommons.org/licenses/by-nc-sa/4.0/" /></cc:Work><cc:License
         rdf:about="http://creativecommons.org/licenses/by-nc-sa/4.0/"><cc:permits
           rdf:resource="http://creativecommons.org/ns#Reproduction" /><cc:permits
           rdf:resource="http://creativecommons.org/ns#Distribution" /><cc:requires
           rdf:resource="http://creativecommons.org/ns#Notice" /><cc:requires
           rdf:resource="http://creativecommons.org/ns#Attribution" /><cc:prohibits
           rdf:resource="http://creativecommons.org/ns#CommercialUse" /><cc:permits
           rdf:resource="http://creativecommons.org/ns#DerivativeWorks" /><cc:requires
           rdf:resource="http://creativecommons.org/ns#ShareAlike" /></cc:License></rdf:RDF></metadata></svg>
