<?xml version="1.0" encoding="UTF-8" standalone="no"?>
<svg
   width="48"
   height="48"
   viewBox="0 0 48 48"
   fill="none"
   version="2"
   id="svg1"
   sodipodi:docname="folder-chart.svg"
   inkscape:version="1.4.2 (ebf0e940d0, 2025-05-08)"
   xml:space="preserve"
   xmlns:inkscape="http://www.inkscape.org/namespaces/inkscape"
   xmlns:sodipodi="http://sodipodi.sourceforge.net/DTD/sodipodi-0.dtd"
   xmlns:xlink="http://www.w3.org/1999/xlink"
   xmlns="http://www.w3.org/2000/svg"
   xmlns:svg="http://www.w3.org/2000/svg"
   xmlns:rdf="http://www.w3.org/1999/02/22-rdf-syntax-ns#"
   xmlns:cc="http://creativecommons.org/ns#"
   xmlns:dc="http://purl.org/dc/elements/1.1/"><title
     id="title1">folder-chart</title><sodipodi:namedview
     id="namedview1"
     pagecolor="#3f4354"
     bordercolor="#000000"
     borderopacity="0.5"
     inkscape:showpageshadow="1"
     inkscape:pageopacity="0"
     inkscape:pagecheckerboard="1"
     inkscape:deskcolor="#2b2f40"
     showgrid="false"
     inkscape:zoom="15.229167"
     inkscape:cx="24"
     inkscape:cy="24"
     inkscape:window-width="1920"
     inkscape:window-height="1048"
     inkscape:window-x="0"
     inkscape:window-y="0"
     inkscape:window-maximized="1"
     inkscape:current-layer="g1" /><g
     id="g1"><g
       id="g11"
       transform="matrix(0.74999965,0,0,0.74999965,3.7743922e-7,1.908614e-5)"><path
         d="M 8.24717,5.28688 C 10.8404,4.80099 13.5052,5.09747 16.1297,5.01923 18.8839,5.09747 21.902,4.61569 24.37,6.03631 c 2.3518,1.37121 3.8988,3.59891 6.0002,5.24599 0.7735,0.5518 1.7751,0.7577 2.7453,0.7412 9.4028,0 18.8055,0.0124 28.2083,0.0659 1.6185,-0.1277 3.018,1.4165 2.6022,2.8577 -0.2281,1.1159 -1.404,1.9436 -2.6291,1.8695 C 51.7466,16.8289 42.1963,16.7836 32.646,16.7754 30.4597,16.763 28.2778,16.0177 26.6547,14.663 24.6696,13.1765 23.3506,10.8953 21.0033,9.87817 17.7483,9.63934 14.462,9.84523 11.1981,9.77522 8.9536,9.63934 6.7091,10.8252 5.75228,12.7029 c -0.65725,1.1901 -0.541,2.5572 -0.54994,3.846 0.02235,10.8503 -0.00895,21.7005 0.01341,32.5549 -0.03577,2.0342 1.4084,3.9777 3.4517,4.7354 1.21614,0.4777 2.56645,0.3871 3.85855,0.3953 13.5833,-0.0206 27.1665,0.0083 40.7453,-0.0165 2.1014,0.0083 4.1134,-1.2023 4.9898,-2.9524 0.7019,-1.3135 0.5007,-2.8124 0.5275,-4.2248 0.009,-6.0284 -0.0312,-12.0567 0.0179,-18.0851 -0.0357,-1.3548 1.3995,-2.4954 2.8481,-2.3183 1.4219,0.0865 2.486,1.3712 2.325,2.6601 0,6.7366 0.0313,13.4732 -0.0134,20.214 C 63.9036,54.498 59.1016,58.8917 53.696,58.974 39.384,59.0234 25.0675,58.9864 10.7555,58.9905 6.61521,59.0317 2.60462,56.6516 0.945834,53.1557 0.163389,51.6362 -0.0243975,49.9356 0.00242916,48.272 0.0381981,37.01 -0.0243977,25.7397 0.0337268,14.4777 0.114207,10.1664 3.70004,6.22985 8.24717,5.28688 Z"
         id="path111"
         style="fill:url(#linearGradient30);fill-opacity:1;stroke:url(#linearGradient30);stroke-width:0;stroke-dasharray:none" /></g><g
       style="fill:none"
       id="g12"
       transform="matrix(0.98214285,0,0,0.98214285,12.227733,14.821395)"><g
         clip-path="url(#clip0_1005_174)"
         id="g2"><path
           d="M 6.33333,20 C 5.97971,20 5.64057,19.8595 5.39052,19.6095 5.14048,19.3594 5,19.0203 5,18.6667 V 13.3333 C 5,12.9797 5.14048,12.6406 5.39052,12.3905 5.64057,12.1405 5.97971,12 6.33333,12 c 0.35363,0 0.69276,0.1405 0.94281,0.3905 0.25005,0.2501 0.39053,0.5892 0.39053,0.9428 v 5.3334 c 0,0.3536 -0.14048,0.6927 -0.39053,0.9428 C 7.02609,19.8595 6.68696,20 6.33333,20 Z M 12,20 c -0.3536,0 -0.6928,-0.1405 -0.9428,-0.3905 -0.2501,-0.2501 -0.3905,-0.5892 -0.3905,-0.9428 V 5.33333 c 0,-0.35362 0.1404,-0.69276 0.3905,-0.94281 C 11.3072,4.14048 11.6464,4 12,4 c 0.3536,0 0.6928,0.14048 0.9428,0.39052 0.2501,0.25005 0.3905,0.58919 0.3905,0.94281 V 18.6667 c 0,0.3536 -0.1404,0.6927 -0.3905,0.9428 C 12.6928,19.8595 12.3536,20 12,20 Z m 5.6667,0 c -0.3537,0 -0.6928,-0.1405 -0.9428,-0.3905 -0.2501,-0.2501 -0.3906,-0.5892 -0.3906,-0.9428 v -8 c 0,-0.3537 0.1405,-0.69279 0.3906,-0.94284 0.25,-0.25005 0.5891,-0.39053 0.9428,-0.39053 0.3536,0 0.6927,0.14048 0.9428,0.39053 C 18.8595,9.97391 19,10.313 19,10.6667 v 8 c 0,0.3536 -0.1405,0.6927 -0.3905,0.9428 C 18.3594,19.8595 18.0203,20 17.6667,20 Z"
           fill="url(#paint0_linear_1005_174)"
           id="path1"
           style="fill:url(#paint0_linear_1005_174)" /><path
           d="M 19,2 H 5 C 4.20435,2 3.44129,2.31607 2.87868,2.87868 2.31607,3.44129 2,4.20435 2,5 v 14 c 0,0.7956 0.31607,1.5587 0.87868,2.1214 C 3.44129,21.6839 4.20435,22 5,22 h 14 c 0.7956,0 1.5587,-0.3161 2.1214,-0.8786 C 21.6839,20.5587 22,19.7956 22,19 V 5 C 22,4.20435 21.6839,3.44129 21.1214,2.87868 20.5587,2.31607 19.7956,2 19,2 Z"
           stroke="url(#paint1_linear_1005_174)"
           stroke-width="2.4"
           id="path2"
           style="stroke:url(#paint1_linear_1005_174)" /></g></g><rect
       style="fill:none;fill-opacity:1;fill-rule:evenodd;stroke:#000000;stroke-width:3.9;stroke-linejoin:round;stroke-dasharray:none;stroke-opacity:0;paint-order:fill markers stroke"
       id="rect1"
       width="44.075188"
       height="31.645638"
       x="1.9758538"
       y="10.78429" /></g><defs
     id="defs1"><linearGradient
       id="linearGradient6"
       inkscape:collect="always"
       inkscape:label="1"><stop
         style="stop-color:#2ad454;stop-opacity:1;"
         offset="0"
         id="stop5" /><stop
         style="stop-color:#b3ff5a;stop-opacity:1;"
         offset="1"
         id="stop6" /></linearGradient><linearGradient
       inkscape:collect="always"
       xlink:href="#linearGradient6"
       id="linearGradient30"
       gradientUnits="userSpaceOnUse"
       gradientTransform="matrix(1.421128,-0.01199146,0.01198687,1.4216711,-101.30678,-100.47471)"
       x1="100.92668"
       y1="97.014603"
       x2="74.197876"
       y2="89.511192" /><linearGradient
       id="paint1_linear"
       x1="4.5768099"
       y1="45.678902"
       x2="42.3731"
       y2="4.1876402"
       gradientUnits="userSpaceOnUse"
       gradientTransform="matrix(1.4285714,0,0,1.4285714,-8.757358,-11.86756)"><stop
         stop-color="#FF5508"
         id="stop4-7" /><stop
         offset="1"
         stop-color="#FFA208"
         id="stop5-8" /></linearGradient><linearGradient
       id="paint0_linear"
       x1="4.5768099"
       y1="45.678799"
       x2="42.3731"
       y2="4.1875501"
       gradientUnits="userSpaceOnUse"
       gradientTransform="matrix(1.4285714,0,0,1.4285714,-8.757358,-11.86756)"><stop
         stop-color="#FF5508"
         id="stop2-4" /><stop
         offset="1"
         stop-color="#FFA208"
         id="stop3-5" /></linearGradient><linearGradient
       id="paint0_linear_1005_174"
       x1="10.1928"
       y1="14.6173"
       x2="3.04272"
       y2="12.2706"
       gradientUnits="userSpaceOnUse"><stop
         stop-color="#2AD454"
         id="stop2" /><stop
         offset="1"
         stop-color="#B3FF5A"
         id="stop3" /></linearGradient><linearGradient
       id="paint1_linear_1005_174"
       x1="9.41831"
       y1="15.2716"
       x2="-0.500854"
       y2="11.5511"
       gradientUnits="userSpaceOnUse"><stop
         stop-color="#2AD454"
         id="stop4" /><stop
         offset="1"
         stop-color="#B3FF5A"
         id="stop5-3" /></linearGradient><clipPath
       id="clip0_1005_174"><rect
         width="24"
         height="24"
         fill="white"
         id="rect5" /></clipPath></defs><metadata
     id="metadata1"><rdf:RDF><cc:Work
         rdf:about=""><dc:title>folder-chart</dc:title><dc:date>22-07-2025</dc:date><dc:description>Beautyline style chart folder icon</dc:description><cc:license
           rdf:resource="http://creativecommons.org/licenses/by-nc-sa/4.0/" /></cc:Work><cc:License
         rdf:about="http://creativecommons.org/licenses/by-nc-sa/4.0/"><cc:permits
           rdf:resource="http://creativecommons.org/ns#Reproduction" /><cc:permits
           rdf:resource="http://creativecommons.org/ns#Distribution" /><cc:requires
           rdf:resource="http://creativecommons.org/ns#Notice" /><cc:requires
           rdf:resource="http://creativecommons.org/ns#Attribution" /><cc:prohibits
           rdf:resource="http://creativecommons.org/ns#CommercialUse" /><cc:permits
           rdf:resource="http://creativecommons.org/ns#DerivativeWorks" /><cc:requires
           rdf:resource="http://creativecommons.org/ns#ShareAlike" /></cc:License></rdf:RDF></metadata></svg>
