<?xml version="1.0" encoding="UTF-8" standalone="no"?>
<!-- Created with Inkscape (http://www.inkscape.org/) -->

<svg
   width="48"
   height="48"
   viewBox="0 0 12.7 12.7"
   version="1.1"
   id="svg11654"
   inkscape:version="1.4.2 (ebf0e940d0, 2025-05-08)"
   sodipodi:docname="folder-electro_alt_altc.svg"
   xmlns:inkscape="http://www.inkscape.org/namespaces/inkscape"
   xmlns:sodipodi="http://sodipodi.sourceforge.net/DTD/sodipodi-0.dtd"
   xmlns:xlink="http://www.w3.org/1999/xlink"
   xmlns="http://www.w3.org/2000/svg"
   xmlns:svg="http://www.w3.org/2000/svg">
  <sodipodi:namedview
     id="namedview11656"
     pagecolor="#505050"
     bordercolor="#ffffff"
     borderopacity="1"
     inkscape:showpageshadow="0"
     inkscape:pageopacity="0"
     inkscape:pagecheckerboard="1"
     inkscape:deskcolor="#505050"
     inkscape:document-units="mm"
     showgrid="false"
     inkscape:zoom="10.918348"
     inkscape:cx="24.500043"
     inkscape:cy="32.559871"
     inkscape:window-width="1920"
     inkscape:window-height="1048"
     inkscape:window-x="0"
     inkscape:window-y="0"
     inkscape:window-maximized="1"
     inkscape:current-layer="g56501" />
  <defs
     id="defs11651">
    <linearGradient
       inkscape:collect="always"
       id="linearGradient56537">
      <stop
         style="stop-color:#8d01a2;stop-opacity:1;"
         offset="0"
         id="stop56533" />
      <stop
         style="stop-color:#ff00d2;stop-opacity:1;"
         offset="1"
         id="stop56535" />
    </linearGradient>
    <linearGradient
       inkscape:collect="always"
       id="linearGradient36806">
      <stop
         style="stop-color:#8d01a2;stop-opacity:1;"
         offset="0"
         id="stop36802" />
      <stop
         style="stop-color:#ff00d2;stop-opacity:1;"
         offset="1"
         id="stop36804" />
    </linearGradient>
    <linearGradient
       inkscape:collect="always"
       xlink:href="#linearGradient56537"
       id="linearGradient36808"
       x1="4.5511265"
       y1="9.5415459"
       x2="9.7456713"
       y2="4.7042427"
       gradientUnits="userSpaceOnUse"
       gradientTransform="matrix(0.96491228,0,0,0.96491228,0.22851011,0.06810699)" />
    <linearGradient
       inkscape:collect="always"
       xlink:href="#linearGradient36806"
       id="linearGradient36816"
       x1="1.4404063e-08"
       y1="11.707791"
       x2="12.7"
       y2="0.99219376"
       gradientUnits="userSpaceOnUse" />
  </defs>
  <g
     inkscape:label="Calque 1"
     inkscape:groupmode="layer"
     id="layer1">
    <g
       id="g13960">
      <g
         id="g34833"
         transform="matrix(1.3333333,0,0,1.3333333,5.1869497e-8,1.0168113e-5)"
         style="fill:none;fill-opacity:1">
        <g
           id="g56501"
           transform="matrix(0.75000001,0,0,0.75000001,-7.2211246e-8,-1.9700214e-6)">
          <path
             d="m 5.6735763,7.8936479 h 1.3642565 c 0.094174,0 0.1705323,-0.076354 0.1705323,-0.1705322 v -1.364258 c 0,-0.09418 -0.076354,-0.1705321 -0.1705323,-0.1705321 H 5.6735763 c -0.094174,0 -0.1705323,0.076354 -0.1705323,0.1705321 v 1.364258 c 0,0.094175 0.076354,0.1705322 0.1705323,0.1705322 z M 5.8441086,6.5293898 h 1.023192 v 1.0231938 h -1.023192 z m 2.5693518,0.3410646 h 0.6821284 c 0.094176,0 0.1705323,-0.076353 0.1705323,-0.1705322 V 6.0177933 c 0,-0.09418 -0.076354,-0.1705323 -0.1705323,-0.1705323 H 8.4134604 c -0.094175,0 -0.1705322,0.076355 -0.1705322,0.1705323 V 6.1883256 H 7.8904941 V 5.6767291 c 0,-0.09418 -0.076354,-0.1705323 -0.1705323,-0.1705323 H 7.2083651 V 5.1537635 h 0.1705322 c 0.094175,0 0.1705323,-0.076354 0.1705323,-0.1705323 V 4.3011025 c 0,-0.09418 -0.076354,-0.1705323 -0.1705323,-0.1705323 H 6.6967684 c -0.094175,0 -0.1705324,0.076354 -0.1705324,0.1705323 v 0.6821287 c 0,0.09418 0.076356,0.1705323 0.1705324,0.1705323 H 6.8673006 V 5.5061968 H 5.8441086 V 5.1537635 h 0.1705322 c 0.094175,0 0.1705309,-0.076354 0.1705309,-0.1705323 V 4.3011025 c 0,-0.09418 -0.076354,-0.1705323 -0.1705309,-0.1705323 H 5.3325119 c -0.094175,0 -0.1705323,0.076354 -0.1705323,0.1705323 v 0.6821287 c 0,0.09418 0.076355,0.1705323 0.1705323,0.1705323 H 5.503044 V 5.5061968 H 4.9914474 c -0.094175,0 -0.1705324,0.076354 -0.1705324,0.1705323 V 6.1883256 H 4.468481 V 6.0177933 c 0,-0.09418 -0.076354,-0.1705323 -0.1705322,-0.1705323 H 3.6158199 c -0.094174,0 -0.1705323,0.076355 -0.1705323,0.1705323 v 0.6821289 c 0,0.09418 0.076355,0.1705322 0.1705323,0.1705322 h 0.6821289 c 0.094175,0 0.1705322,-0.076353 0.1705322,-0.1705322 V 6.5293898 H 4.820915 V 7.5525836 H 4.468481 V 7.3820512 c 0,-0.09418 -0.076354,-0.1705323 -0.1705322,-0.1705323 H 3.6158199 c -0.094174,0 -0.1705323,0.076354 -0.1705323,0.1705323 v 0.682129 c 0,0.094175 0.076355,0.1705323 0.1705323,0.1705323 h 0.6821289 c 0.094175,0 0.1705322,-0.076355 0.1705322,-0.1705323 V 7.8936479 h 0.352434 v 0.5115968 c 0,0.094174 0.076354,0.1705323 0.1705324,0.1705323 H 5.503044 V 8.9282096 H 5.3325119 c -0.094175,0 -0.1705323,0.076354 -0.1705323,0.1705323 v 0.6821296 c 0,0.094185 0.076355,0.1705322 0.1705323,0.1705322 h 0.6821289 c 0.094175,0 0.1705309,-0.076354 0.1705309,-0.1705322 V 9.0987419 c 0,-0.094175 -0.076354,-0.1705323 -0.1705309,-0.1705323 H 5.8441086 V 8.575777 h 1.023192 V 8.9282096 H 6.6967684 c -0.094175,0 -0.1705324,0.076354 -0.1705324,0.1705323 v 0.6821296 c 0,0.094185 0.076356,0.1705322 0.1705324,0.1705322 h 0.6821289 c 0.094175,0 0.1705323,-0.076354 0.1705323,-0.1705322 V 9.0987419 c 0,-0.094175 -0.076354,-0.1705323 -0.1705323,-0.1705323 H 7.2083651 V 8.575777 h 0.5115967 c 0.094175,0 0.1705323,-0.076354 0.1705323,-0.1705323 V 7.8936479 h 0.3524341 v 0.1705323 c 0,0.094175 0.076354,0.1705323 0.1705322,0.1705323 h 0.6821284 c 0.094176,0 0.1705323,-0.076355 0.1705323,-0.1705323 v -0.682129 c 0,-0.09418 -0.076354,-0.1705323 -0.1705323,-0.1705323 H 8.4134604 c -0.094175,0 -0.1705322,0.076354 -0.1705322,0.1705323 V 7.5525836 H 7.8904941 V 6.5293898 h 0.3524341 v 0.1705324 c 0,0.09418 0.076354,0.1705322 0.1705322,0.1705322 z M 8.5839912,6.1883256 H 8.9250567 V 6.5293898 H 8.5839912 Z M 4.1274165,6.5293898 H 3.786352 V 6.1883256 h 0.3410645 z m 0,1.3642581 H 3.786352 V 7.5525836 H 4.1274165 Z M 6.8673006,4.4716347 H 7.2083651 V 4.8126992 H 6.8673006 Z m -1.3642566,0 H 5.8441086 V 4.8126992 H 5.503044 Z M 5.8441086,9.610339 H 5.503044 V 9.2692742 h 0.3410646 z m 1.3642565,0 H 6.8673006 V 9.2692742 H 7.2083651 Z M 7.5494296,8.2347125 h -2.38745 V 5.847261 h 2.38745 z M 8.5839912,7.5525836 H 8.9250567 V 7.8936479 H 8.5839912 Z"
             id="path2-3"
             style="fill:url(#linearGradient36808);fill-opacity:1;stroke-width:0.964912" />
          <path
             d="M 1.6365484,1.0491213 C 2.1511421,0.9527025 2.679938,1.0115353 3.2007369,0.9960094 3.7472732,1.0115352 4.346177,0.915932 4.8359203,1.1978361 c 0.466685,0.2720995 0.773668,0.7141585 1.190664,1.0410007 0.153491,0.1094977 0.352246,0.150356 0.54477,0.1470818 1.865867,0 3.7317147,0.00246 5.5975817,0.013076 0.321171,-0.025339 0.598884,0.2810865 0.516374,0.5670745 -0.04526,0.2214363 -0.278606,0.3856829 -0.521712,0.3709787 -1.895137,0.00243 -3.7902727,-0.00655 -5.6854097,-0.00818 C 6.0443443,3.3264113 5.6113743,3.1785159 5.2892903,2.9096927 4.8953723,2.6147156 4.6336334,2.1620402 4.1678414,1.9602037 3.5219277,1.9128108 2.8698029,1.9536685 2.2221232,1.9397753 1.7767305,1.9128116 1.3313378,2.1481305 1.1414689,2.5207364 1.0110459,2.7568968 1.0341143,3.0281805 1.0323403,3.2839266 c 0.00444,2.1531052 -0.00176,4.3061905 0.00266,6.4601092 -0.0071,0.4036612 0.2794792,0.7893242 0.6849463,0.9396802 0.2413276,0.09479 0.5092796,0.07681 0.7656805,0.07844 2.6954342,-0.0041 5.3908492,0.0016 8.0853909,-0.0033 0.416996,0.0016 0.816252,-0.238581 0.990163,-0.585867 0.139283,-0.2606471 0.09936,-0.5580849 0.104675,-0.8383578 0.0018,-1.19626 -0.0062,-2.3925 0.0036,-3.58876 -0.0071,-0.2688429 0.277713,-0.4951806 0.56517,-0.4600374 0.282158,0.017163 0.493315,0.2720974 0.461367,0.5278633 0,1.3367933 0.0062,2.6735866 -0.0027,4.0112133 -0.01242,0.9895076 -0.965319,1.8613826 -2.037992,1.8777136 -2.8400357,0.0098 -5.6809647,0.0025 -8.5210006,0.0033 C 1.312705,11.714124 0.51685403,11.241802 0.18768883,10.548084 0.03242253,10.246559 -0.00484127,9.909096 4.8203008e-4,9.5789756 0.00758023,7.3441738 -0.00484187,5.1077249 0.00669313,2.8729231 0.02266333,2.0174 0.73422669,1.2362412 1.6365473,1.0491208 Z"
             id="path10942"
             sodipodi:nodetypes="ccccccccccccccccccccccccccccccc"
             style="fill:url(#linearGradient36816);fill-opacity:1" />
        </g>
      </g>
    </g>
  </g>
</svg>
