<?xml version="1.0" encoding="UTF-8" standalone="no"?>
<svg
   width="48"
   height="48"
   viewBox="0 0 48 48"
   fill="none"
   version="2"
   id="svg1"
   sodipodi:docname="folder-paint_lazpaint-alt.svg"
   inkscape:version="1.4.2 (ebf0e940d0, 2025-05-08)"
   xml:space="preserve"
   xmlns:inkscape="http://www.inkscape.org/namespaces/inkscape"
   xmlns:sodipodi="http://sodipodi.sourceforge.net/DTD/sodipodi-0.dtd"
   xmlns:xlink="http://www.w3.org/1999/xlink"
   xmlns="http://www.w3.org/2000/svg"
   xmlns:svg="http://www.w3.org/2000/svg"
   xmlns:rdf="http://www.w3.org/1999/02/22-rdf-syntax-ns#"
   xmlns:cc="http://creativecommons.org/ns#"
   xmlns:dc="http://purl.org/dc/elements/1.1/"><title
     id="title1">folder-</title><sodipodi:namedview
     id="namedview1"
     pagecolor="#3f4354"
     bordercolor="#000000"
     borderopacity="0.5"
     inkscape:showpageshadow="1"
     inkscape:pageopacity="0"
     inkscape:pagecheckerboard="1"
     inkscape:deskcolor="#2b2f40"
     showgrid="false"
     inkscape:zoom="12.460787"
     inkscape:cx="22.18961"
     inkscape:cy="25.399681"
     inkscape:window-width="1920"
     inkscape:window-height="1048"
     inkscape:window-x="0"
     inkscape:window-y="0"
     inkscape:window-maximized="1"
     inkscape:current-layer="g11" /><g
     id="g1"><g
       id="g11"
       transform="matrix(0.74999965,0,0,0.74999965,3.7743922e-7,1.908614e-5)"
       style="fill:url(#linearGradient3)"><path
         d="M 8.24717,5.28688 C 10.8404,4.80099 13.5052,5.09747 16.1297,5.01923 18.8839,5.09747 21.902,4.61569 24.37,6.03631 c 2.3518,1.37121 3.8988,3.59891 6.0002,5.24599 0.7735,0.5518 1.7751,0.7577 2.7453,0.7412 9.4028,0 18.8055,0.0124 28.2083,0.0659 1.6185,-0.1277 3.018,1.4165 2.6022,2.8577 -0.2281,1.1159 -1.404,1.9436 -2.6291,1.8695 C 51.7466,16.8289 42.1963,16.7836 32.646,16.7754 30.4597,16.763 28.2778,16.0177 26.6547,14.663 24.6696,13.1765 23.3506,10.8953 21.0033,9.87817 17.7483,9.63934 14.462,9.84523 11.1981,9.77522 8.9536,9.63934 6.7091,10.8252 5.75228,12.7029 c -0.65725,1.1901 -0.541,2.5572 -0.54994,3.846 0.02235,10.8503 -0.00895,21.7005 0.01341,32.5549 -0.03577,2.0342 1.4084,3.9777 3.4517,4.7354 1.21614,0.4777 2.56645,0.3871 3.85855,0.3953 13.5833,-0.0206 27.1665,0.0083 40.7453,-0.0165 2.1014,0.0083 4.1134,-1.2023 4.9898,-2.9524 0.7019,-1.3135 0.5007,-2.8124 0.5275,-4.2248 0.009,-6.0284 -0.0312,-12.0567 0.0179,-18.0851 -0.0357,-1.3548 1.3995,-2.4954 2.8481,-2.3183 1.4219,0.0865 2.486,1.3712 2.325,2.6601 0,6.7366 0.0313,13.4732 -0.0134,20.214 C 63.9036,54.498 59.1016,58.8917 53.696,58.974 39.384,59.0234 25.0675,58.9864 10.7555,58.9905 6.61521,59.0317 2.60462,56.6516 0.945834,53.1557 0.163389,51.6362 -0.0243975,49.9356 0.00242916,48.272 0.0381981,37.01 -0.0243977,25.7397 0.0337268,14.4777 0.114207,10.1664 3.70004,6.22985 8.24717,5.28688 Z"
         id="path111"
         style="fill:url(#linearGradient2);stroke:url(#linearGradient30);stroke-width:0;stroke-dasharray:none"
         sodipodi:nodetypes="cccccccccccccccccccccccccccccc" /></g><g
       style="fill:none"
       id="g2"
       transform="matrix(0.39285686,0,0,0.39285686,11.442022,14.045738)"><path
         d="m 41.1536,27.3106 c 2.575,0 4.6624,-2.0874 4.6624,-4.6624 0,-2.5749 -2.0874,-4.6624 -4.6624,-4.6624 -2.575,0 -4.6624,2.0875 -4.6624,4.6624 0,2.575 2.0874,4.6624 4.6624,4.6624 z"
         fill="url(#paint0_linear_914_2)"
         id="path1"
         style="fill:url(#paint0_linear_914_2)" /><path
         d="m 24.8352,27.3106 c 2.575,0 4.6624,-2.0874 4.6624,-4.6624 0,-2.5749 -2.0874,-4.6624 -4.6624,-4.6624 -2.5749,0 -4.6623,2.0875 -4.6623,4.6624 0,2.575 2.0874,4.6624 4.6623,4.6624 z"
         fill="url(#paint1_linear_914_2)"
         id="path2"
         style="fill:url(#paint1_linear_914_2)" /><path
         d="m 22.5042,43.6305 c 2.575,0 4.6624,-2.0875 4.6624,-4.6624 0,-2.575 -2.0874,-4.6624 -4.6624,-4.6624 -2.575,0 -4.6624,2.0874 -4.6624,4.6624 0,2.5749 2.0874,4.6624 4.6624,4.6624 z"
         fill="url(#paint2_linear_914_2)"
         id="path3"
         style="fill:url(#paint2_linear_914_2)" /><path
         d="M 59.8874,29.4753 C 59.209,22.7099 56.1183,16.4145 51.1803,11.7403 46.2424,7.06602 39.7871,4.3251 32.9946,4.01861 29.2785,3.883 25.5726,4.48965 22.0937,5.80309 18.6147,7.11653 15.4326,9.1104 12.7333,11.6681 10.034,14.2258 7.87171,17.296 6.37291,20.6992 4.8741,24.1024 4.06885,27.7702 4.00422,31.4883 3.9396,35.2063 4.61691,38.9 5.99655,42.3532 c 1.37963,3.4532 3.4339,6.5967 6.04265,9.2466 2.6088,2.65 5.7198,4.7533 9.1509,6.1868 3.4312,1.4335 7.1138,2.1686 10.8324,2.1622 0.7879,0 1.5596,-0.0513 2.3312,-0.1142 0.8797,-0.0729 1.6992,-0.4758 2.2941,-1.1279 0.595,-0.652 0.9214,-1.5049 0.9136,-2.3876 l -0.0699,-7.9843 c -0.0115,-1.323 0.371,-2.6194 1.0987,-3.7242 0.7278,-1.1049 1.7679,-1.9682 2.9879,-2.4799 1.22,-0.5118 2.5647,-0.6488 3.8629,-0.3938 1.2981,0.255 2.491,0.8906 3.4268,1.8259 l 0.2331,0.2331 c 0.657,0.658 1.4688,1.1404 2.3609,1.4027 0.8921,0.2623 1.8358,0.2962 2.7444,0.0986 0.8939,-0.192 1.7254,-0.6053 2.4182,-1.202 0.6927,-0.5967 1.2247,-1.3576 1.5472,-2.2132 1.5095,-3.9509 2.0964,-8.1944 1.7158,-12.4067 z m -7.5741,7.8469 c -2.0396,-1.5183 -4.4624,-2.4373 -6.9958,-2.6535 -2.5334,-0.2162 -5.0769,0.279 -7.3442,1.4297 -2.2673,1.1507 -4.1685,2.9114 -5.4896,5.0839 -1.321,2.1725 -2.0096,4.6706 -1.9881,7.2131 l 0.0396,4.5062 C 25.1157,52.5134 20.0581,50.0379 16.4269,45.9961 12.7957,41.9543 10.8741,36.6614 11.0665,31.2314 c 0.1924,-5.43 2.4838,-10.5736 6.392,-14.3482 3.9082,-3.7747 9.1283,-5.886 14.5617,-5.8896 0.2331,0 0.4942,0 0.7413,0.014 5.0914,0.2302 9.9299,2.2847 13.6315,5.7881 3.7016,3.5034 6.019,8.2217 6.5287,13.2927 0.2208,2.4283 0.0149,4.8765 -0.6084,7.2338 z"
         fill="url(#paint3_linear_914_2)"
         id="path4"
         style="fill:url(#paint3_linear_914_2)" /></g></g><defs
     id="defs1"><linearGradient
       id="paint0_linear"
       x1="94.0831"
       y1="102.397"
       x2="94.0831"
       y2="5"
       gradientUnits="userSpaceOnUse"
       gradientTransform="matrix(1.0455138,0,0,1.0223426,-7.6008048,-2.552391)"><stop
         stop-color="#FD2E00"
         id="stop14" /><stop
         offset="1"
         stop-color="#FF9900"
         id="stop16" /></linearGradient><linearGradient
       inkscape:collect="always"
       xlink:href="#paint0_linear"
       id="linearGradient3"
       x1="32.000015"
       y1="58.999977"
       x2="32.000015"
       y2="5.000001"
       gradientUnits="userSpaceOnUse" /><linearGradient
       id="paint0_linear_914_2"
       x1="45.501"
       y1="18.2524"
       x2="41.8639"
       y2="27.3851"
       gradientUnits="userSpaceOnUse"><stop
         stop-color="#FE0F7C"
         id="stop4" /><stop
         offset="1"
         stop-color="#DF0066"
         id="stop5" /></linearGradient><linearGradient
       id="paint1_linear_914_2"
       x1="24.8352"
       y1="27.3106"
       x2="24.8352"
       y2="17.9858"
       gradientUnits="userSpaceOnUse"><stop
         stop-color="#FDA700"
         id="stop6" /><stop
         offset="1"
         stop-color="#FFDE00"
         id="stop7" /></linearGradient><linearGradient
       id="paint2_linear_914_2"
       x1="17.8432"
       y1="38.8299"
       x2="27.1681"
       y2="38.8299"
       gradientUnits="userSpaceOnUse"><stop
         stop-color="#A93AFF"
         id="stop8" /><stop
         offset="1"
         stop-color="#FF81FF"
         id="stop9" /></linearGradient><linearGradient
       id="paint3_linear_914_2"
       x1="14.15"
       y1="53.3438"
       x2="64.6088"
       y2="9.27732"
       gradientUnits="userSpaceOnUse"><stop
         stop-color="#FE0844"
         id="stop10" /><stop
         offset="1"
         stop-color="#FEB302"
         id="stop11" /></linearGradient><linearGradient
       inkscape:collect="always"
       xlink:href="#paint3_linear_914_2"
       id="linearGradient2"
       gradientUnits="userSpaceOnUse"
       x1="3.9633646"
       y1="56.761826"
       x2="68.808838"
       y2="6.2840295" /></defs><metadata
     id="metadata1"><rdf:RDF><cc:Work
         rdf:about=""><dc:title>folder-</dc:title><dc:date>26-07-2025</dc:date><dc:description>Beautyline style * folder icon</dc:description><cc:license
           rdf:resource="http://creativecommons.org/licenses/by-nc-sa/4.0/" /></cc:Work><cc:License
         rdf:about="http://creativecommons.org/licenses/by-nc-sa/4.0/"><cc:permits
           rdf:resource="http://creativecommons.org/ns#Reproduction" /><cc:permits
           rdf:resource="http://creativecommons.org/ns#Distribution" /><cc:requires
           rdf:resource="http://creativecommons.org/ns#Notice" /><cc:requires
           rdf:resource="http://creativecommons.org/ns#Attribution" /><cc:prohibits
           rdf:resource="http://creativecommons.org/ns#CommercialUse" /><cc:permits
           rdf:resource="http://creativecommons.org/ns#DerivativeWorks" /><cc:requires
           rdf:resource="http://creativecommons.org/ns#ShareAlike" /></cc:License></rdf:RDF></metadata></svg>
