<?xml version="1.0" encoding="UTF-8" standalone="no"?>
<svg
   width="48"
   height="48"
   viewBox="0 0 48 48"
   fill="none"
   version="2"
   id="svg1"
   sodipodi:docname="folder-dropbox.svg"
   inkscape:version="1.4.2 (ebf0e940d0, 2025-05-08)"
   xml:space="preserve"
   xmlns:inkscape="http://www.inkscape.org/namespaces/inkscape"
   xmlns:sodipodi="http://sodipodi.sourceforge.net/DTD/sodipodi-0.dtd"
   xmlns:xlink="http://www.w3.org/1999/xlink"
   xmlns="http://www.w3.org/2000/svg"
   xmlns:svg="http://www.w3.org/2000/svg"
   xmlns:rdf="http://www.w3.org/1999/02/22-rdf-syntax-ns#"
   xmlns:cc="http://creativecommons.org/ns#"
   xmlns:dc="http://purl.org/dc/elements/1.1/"><title
     id="title1">folder-</title><sodipodi:namedview
     id="namedview1"
     pagecolor="#3f4354"
     bordercolor="#000000"
     borderopacity="0.5"
     inkscape:showpageshadow="1"
     inkscape:pageopacity="0"
     inkscape:pagecheckerboard="1"
     inkscape:deskcolor="#2b2f40"
     showgrid="false"
     inkscape:zoom="17.3125"
     inkscape:cx="24.144404"
     inkscape:cy="24"
     inkscape:window-width="1920"
     inkscape:window-height="1048"
     inkscape:window-x="0"
     inkscape:window-y="0"
     inkscape:window-maximized="1"
     inkscape:current-layer="g1" /><g
     id="g1"><g
       id="g11"
       transform="matrix(0.74999965,0,0,0.74999965,3.7743922e-7,1.908614e-5)"
       style="fill:url(#linearGradient3)"><path
         d="M 8.24717,5.28688 C 10.8404,4.80099 13.5052,5.09747 16.1297,5.01923 18.8839,5.09747 21.902,4.61569 24.37,6.03631 c 2.3518,1.37121 3.8988,3.59891 6.0002,5.24599 0.7735,0.5518 1.7751,0.7577 2.7453,0.7412 9.4028,0 18.8055,0.0124 28.2083,0.0659 1.6185,-0.1277 3.018,1.4165 2.6022,2.8577 -0.2281,1.1159 -1.404,1.9436 -2.6291,1.8695 C 51.7466,16.8289 42.1963,16.7836 32.646,16.7754 30.4597,16.763 28.2778,16.0177 26.6547,14.663 24.6696,13.1765 23.3506,10.8953 21.0033,9.87817 17.7483,9.63934 14.462,9.84523 11.1981,9.77522 8.9536,9.63934 6.7091,10.8252 5.75228,12.7029 c -0.65725,1.1901 -0.541,2.5572 -0.54994,3.846 0.02235,10.8503 -0.00895,21.7005 0.01341,32.5549 -0.03577,2.0342 1.4084,3.9777 3.4517,4.7354 1.21614,0.4777 2.56645,0.3871 3.85855,0.3953 13.5833,-0.0206 27.1665,0.0083 40.7453,-0.0165 2.1014,0.0083 4.1134,-1.2023 4.9898,-2.9524 0.7019,-1.3135 0.5007,-2.8124 0.5275,-4.2248 0.009,-6.0284 -0.0312,-12.0567 0.0179,-18.0851 -0.0357,-1.3548 1.3995,-2.4954 2.8481,-2.3183 1.4219,0.0865 2.486,1.3712 2.325,2.6601 0,6.7366 0.0313,13.4732 -0.0134,20.214 C 63.9036,54.498 59.1016,58.8917 53.696,58.974 39.384,59.0234 25.0675,58.9864 10.7555,58.9905 6.61521,59.0317 2.60462,56.6516 0.945834,53.1557 0.163389,51.6362 -0.0243975,49.9356 0.00242916,48.272 0.0381981,37.01 -0.0243977,25.7397 0.0337268,14.4777 0.114207,10.1664 3.70004,6.22985 8.24717,5.28688 Z"
         id="path111"
         style="fill:url(#linearGradient2);fill-opacity:1;stroke:url(#linearGradient30);stroke-width:0;stroke-dasharray:none" /></g><g
       style="fill:none"
       id="g2"
       transform="matrix(0.4285717,0,0,0.4285717,10.299153,12.892822)"><path
         d="m 15.0813,4.38667 c 0.684,-0.5224 1.5974,-0.30244 2.2303,0.17282 4.4565,2.94583 8.8917,5.91921 13.3353,8.88071 0.6882,0.5342 1.7036,0.7345 2.4385,0.1571 4.1506,-2.7102 8.2289,-5.50674 12.3667,-8.22869 0.6755,-0.43991 1.3212,-0.93088 2.0647,-1.2726 0.6032,-0.29458 1.198,0.15711 1.6865,0.43598 4.5159,3.01261 9.0318,6.02521 13.569,9.01031 0.48,0.2946 0.8878,0.6638 1.2277,1.0959 -5.0469,3.696 -10.5612,6.8422 -15.5656,10.5775 4.724,3.4014 9.7073,6.4848 14.546,9.7409 0.3739,0.2671 0.6882,0.5852 0.9474,0.9544 -0.4673,0.4596 -0.9771,0.8759 -1.5464,1.2255 -4.4946,2.9183 -8.9298,5.9152 -13.3905,8.8846 -0.616,0.4989 -1.5464,0.4282 -2.1454,-0.0589 -4.7113,-3.1029 -9.3886,-6.253 -14.0957,-9.3599 -0.3781,-0.2553 -0.7902,-0.3103 -1.2447,-0.1689 -4.8983,3.2208 -9.7455,6.5162 -14.665,9.7056 -0.9304,0.6284 -1.8905,-0.1846 -2.6339,-0.6717 C 9.5076,42.2151 4.60086,39.2222 0,35.8639 4.93648,32.0854 10.4847,29.0099 15.4849,25.2982 14.9029,24.328 13.7516,23.8645 12.8425,23.2047 8.57298,20.357 4.21852,17.6115 0.0467311,14.646 0.522536,13.9469 1.31271,13.5423 2.01367,13.0631 6.39363,10.2037 10.7141,7.2618 15.0813,4.38667 Z m 0.6415,5.33392 c -2.4385,1.56321 -4.7793,3.26791 -7.27302,4.76051 2.45552,1.8067 5.08512,3.3936 7.61292,5.1139 2.5319,-1.6928 5.0979,-3.3425 7.6086,-5.0629 -2.447,-1.5907 -4.843,-3.2365 -7.2943,-4.82329 -0.1614,0.00393 -0.4885,0.00786 -0.6542,0.01178 z m 31.9087,0 c -2.447,1.56721 -4.8091,3.25611 -7.29,4.77621 2.4894,1.7518 5.0724,3.3936 7.6171,5.0825 2.5362,-1.6771 5.0851,-3.3347 7.5916,-5.055 C 53.3581,13.1142 51.1958,11.6609 49.0334,10.2037 48.6213,9.94448 48.1837,9.50849 47.6315,9.72059 Z M 18.5606,23.6839 c -0.6967,0.4831 -1.5166,0.8758 -1.9457,1.6143 4.7156,3.37 9.6776,6.4415 14.4866,9.7016 1.0791,0.8013 2.1751,-0.275 3.0502,-0.8131 4.3673,-3.0479 9.0021,-5.7856 13.2631,-8.9553 -0.3186,-0.3221 -0.6075,-0.6717 -1.0111,-0.9073 -4.108,-2.7102 -8.2076,-5.4282 -12.3114,-8.1462 -0.6798,-0.4949 -1.4062,-0.927 -2.1751,-1.2805 -4.4905,2.8791 -8.8789,5.8956 -13.3566,8.7865 z M 8.45403,35.8246 c 2.51077,1.7125 5.05967,3.3818 7.59167,5.0708 2.5447,-1.689 5.0979,-3.3622 7.6171,-5.0786 -2.5532,-1.6418 -5.0554,-3.3583 -7.6086,-4.9962 -2.5447,1.6536 -5.0555,3.3504 -7.60017,5.004 z M 40.3457,35.8168 c 2.515,1.7164 5.0639,3.3857 7.6001,5.0707 2.5235,-1.6968 5.1064,-3.3307 7.5704,-5.1022 -2.5659,-1.6025 -5.0214,-3.3464 -7.5746,-4.9686 -2.532,1.6654 -5.0384,3.3661 -7.5959,5.0001 z"
         fill="url(#paint0_linear)"
         id="path1"
         style="fill:url(#paint0_linear-3)" /><path
         d="m 30.6002,39.5481 c 0.5862,-0.3103 1.2702,-1.1116 1.9627,-0.5185 4.7877,3.048 9.4608,6.2452 14.2146,9.3403 0.4206,0.3299 1.0578,0.5813 1.0748,1.1744 -0.2931,0.5499 -0.9176,0.8366 -1.4189,1.2019 -4.4607,2.9144 -8.8873,5.8642 -13.314,8.8257 -0.5523,0.436 -1.3807,0.6363 -1.967,0.1257 -4.5329,-2.9851 -9.0318,-6.0252 -13.5816,-8.9907 -0.5523,-0.4163 -1.3,-0.758 -1.4445,-1.469 4.7156,-3.3621 9.6733,-6.4297 14.4739,-9.6898 z m -6.0878,9.7959 c 2.345,1.8971 5.0172,3.4172 7.5152,5.1336 2.5277,-1.6968 5.0936,-3.3465 7.5959,-5.0825 -2.4598,-1.4887 -4.7708,-3.1776 -7.2008,-4.7016 -0.1615,-0.0196 -0.4801,-0.0589 -0.6415,-0.0746 -2.481,1.4886 -4.8006,3.2129 -7.2688,4.7251 z"
         fill="url(#paint1_linear)"
         id="path2"
         style="fill:url(#paint1_linear)" /></g></g><defs
     id="defs1"><linearGradient
       id="paint0_linear-3"
       x1="32"
       y1="46.3679"
       x2="32"
       y2="4"
       gradientUnits="userSpaceOnUse"><stop
         stop-color="#5558FF"
         id="stop2" /><stop
         offset="1"
         stop-color="#00C0FF"
         id="stop3" /></linearGradient><linearGradient
       id="paint1_linear"
       x1="31.9893"
       y1="60"
       x2="31.9893"
       y2="38.8167"
       gradientUnits="userSpaceOnUse"><stop
         stop-color="#5558FF"
         id="stop4" /><stop
         offset="1"
         stop-color="#00C0FF"
         id="stop5" /></linearGradient><linearGradient
       inkscape:collect="always"
       xlink:href="#paint1_linear"
       id="linearGradient2"
       gradientUnits="userSpaceOnUse"
       x1="32.000015"
       y1="58.999977"
       x2="32.000015"
       y2="5.000001" /></defs><metadata
     id="metadata1"><rdf:RDF><cc:Work
         rdf:about=""><dc:title>folder-</dc:title><dc:date>26-07-2025</dc:date><dc:description>Beautyline style * folder icon</dc:description><cc:license
           rdf:resource="http://creativecommons.org/licenses/by-nc-sa/4.0/" /></cc:Work><cc:License
         rdf:about="http://creativecommons.org/licenses/by-nc-sa/4.0/"><cc:permits
           rdf:resource="http://creativecommons.org/ns#Reproduction" /><cc:permits
           rdf:resource="http://creativecommons.org/ns#Distribution" /><cc:requires
           rdf:resource="http://creativecommons.org/ns#Notice" /><cc:requires
           rdf:resource="http://creativecommons.org/ns#Attribution" /><cc:prohibits
           rdf:resource="http://creativecommons.org/ns#CommercialUse" /><cc:permits
           rdf:resource="http://creativecommons.org/ns#DerivativeWorks" /><cc:requires
           rdf:resource="http://creativecommons.org/ns#ShareAlike" /></cc:License></rdf:RDF></metadata></svg>
