<?xml version="1.0" encoding="UTF-8" standalone="no"?>
<svg
   width="48"
   height="48"
   viewBox="0 0 48 48"
   fill="none"
   version="2"
   id="svg1"
   sodipodi:docname="folder-bookmark_favorites-alt.svg"
   inkscape:version="1.4.2 (ebf0e940d0, 2025-05-08)"
   xml:space="preserve"
   xmlns:inkscape="http://www.inkscape.org/namespaces/inkscape"
   xmlns:sodipodi="http://sodipodi.sourceforge.net/DTD/sodipodi-0.dtd"
   xmlns:xlink="http://www.w3.org/1999/xlink"
   xmlns="http://www.w3.org/2000/svg"
   xmlns:svg="http://www.w3.org/2000/svg"
   xmlns:rdf="http://www.w3.org/1999/02/22-rdf-syntax-ns#"
   xmlns:cc="http://creativecommons.org/ns#"
   xmlns:dc="http://purl.org/dc/elements/1.1/"><title
     id="title1">folder-bookmark_favorite-alt</title><sodipodi:namedview
     id="namedview1"
     pagecolor="#3f4354"
     bordercolor="#000000"
     borderopacity="0.5"
     inkscape:showpageshadow="1"
     inkscape:pageopacity="0"
     inkscape:pagecheckerboard="1"
     inkscape:deskcolor="#2b2f40"
     showgrid="false"
     inkscape:zoom="17.604167"
     inkscape:cx="24"
     inkscape:cy="24"
     inkscape:window-width="1920"
     inkscape:window-height="1048"
     inkscape:window-x="0"
     inkscape:window-y="0"
     inkscape:window-maximized="1"
     inkscape:current-layer="g12" /><g
     id="g1"><g
       id="g11"
       transform="matrix(0.74999965,0,0,0.74999965,3.7743922e-7,1.908614e-5)"><path
         d="M 8.24717,5.28688 C 10.8404,4.80099 13.5052,5.09747 16.1297,5.01923 18.8839,5.09747 21.902,4.61569 24.37,6.03631 c 2.3518,1.37121 3.8988,3.59891 6.0002,5.24599 0.7735,0.5518 1.7751,0.7577 2.7453,0.7412 9.4028,0 18.8055,0.0124 28.2083,0.0659 1.6185,-0.1277 3.018,1.4165 2.6022,2.8577 -0.2281,1.1159 -1.404,1.9436 -2.6291,1.8695 C 51.7466,16.8289 42.1963,16.7836 32.646,16.7754 30.4597,16.763 28.2778,16.0177 26.6547,14.663 24.6696,13.1765 23.3506,10.8953 21.0033,9.87817 17.7483,9.63934 14.462,9.84523 11.1981,9.77522 8.9536,9.63934 6.7091,10.8252 5.75228,12.7029 c -0.65725,1.1901 -0.541,2.5572 -0.54994,3.846 0.02235,10.8503 -0.00895,21.7005 0.01341,32.5549 -0.03577,2.0342 1.4084,3.9777 3.4517,4.7354 1.21614,0.4777 2.56645,0.3871 3.85855,0.3953 13.5833,-0.0206 27.1665,0.0083 40.7453,-0.0165 2.1014,0.0083 4.1134,-1.2023 4.9898,-2.9524 0.7019,-1.3135 0.5007,-2.8124 0.5275,-4.2248 0.009,-6.0284 -0.0312,-12.0567 0.0179,-18.0851 -0.0357,-1.3548 1.3995,-2.4954 2.8481,-2.3183 1.4219,0.0865 2.486,1.3712 2.325,2.6601 0,6.7366 0.0313,13.4732 -0.0134,20.214 C 63.9036,54.498 59.1016,58.8917 53.696,58.974 39.384,59.0234 25.0675,58.9864 10.7555,58.9905 6.61521,59.0317 2.60462,56.6516 0.945834,53.1557 0.163389,51.6362 -0.0243975,49.9356 0.00242916,48.272 0.0381981,37.01 -0.0243977,25.7397 0.0337268,14.4777 0.114207,10.1664 3.70004,6.22985 8.24717,5.28688 Z"
         id="path111"
         style="fill:url(#linearGradient4);fill-opacity:1;stroke:url(#linearGradient3);stroke-width:0;stroke-dasharray:none"
         sodipodi:nodetypes="cccccccccccccccccccccccccccccc" /></g><g
       style="fill:none"
       id="g12"
       transform="matrix(1.571426,0,0,1.571426,11.442022,14.03571)"><path
         fill-rule="evenodd"
         clip-rule="evenodd"
         d="m 7.06633,1.7214 c 0.30188,-0.961867 1.56546,-0.961867 1.86735,0 l 1.20102,3.82645 h 3.8779 c 0.964,0 1.3548,1.33651 0.5644,1.93094 L 13.7834,8.07567 C 13.4241,8.34594 12.911,8.25512 12.6663,7.87795 L 12.3911,7.45389 C 12.3242,7.35075 12.3485,7.21339 12.4468,7.13949 H 9.78101 c -0.42271,0 -0.79835,-0.29024 -0.93367,-0.7214 L 8,3.71835 7.15266,6.41809 C 7.01734,6.84925 6.6417,7.13949 6.21899,7.13949 H 3.55324 L 5.67619,8.73625 C 6.03523,9.0063 6.18566,9.49906 6.04546,9.9458 l -0.82515,2.6291 2.21528,-1.6663 c 0.33901,-0.255 0.78981,-0.255 1.12882,0 l 2.21529,1.6663 -0.6712,-2.1384 c -0.11919,-0.3799 0.0816,-0.78639 0.4558,-0.92252 0.3986,-0.14504 0.8377,0.07188 0.9648,0.47663 l 1.131,3.60379 c 0.3047,0.9703 -0.7182,1.7961 -1.498,1.2096 L 8,12.4256 4.83795,14.804 C 4.0581,15.3905 3.03531,14.5647 3.33985,13.5944 L 4.52664,9.81318 1.42299,7.47879 C 0.632685,6.88436 1.02335,5.54785 1.9874,5.54785 h 3.87795 z"
         fill="url(#linearGradient2)"
         id="path1-3"
         style="fill:url(#linearGradient6);fill-opacity:1"
         sodipodi:nodetypes="cccscccccscccscccccccccccccccccscc" /></g><rect
       style="stroke:none;stroke-width:3.9;stroke-linejoin:round;stroke-dasharray:none;stroke-opacity:0.5;paint-order:fill markers stroke"
       id="rect1"
       width="44.075188"
       height="31.645638"
       x="1.9758538"
       y="10.78429" /></g><defs
     id="defs1"><linearGradient
       id="linearGradient1"
       x1="8"
       y1="15"
       x2="8"
       y2="1"
       gradientUnits="userSpaceOnUse"><stop
         stop-color="#FDA700"
         id="stop1-6" /><stop
         offset="1"
         stop-color="#FFDE00"
         id="stop2-7" /></linearGradient><linearGradient
       inkscape:collect="always"
       xlink:href="#linearGradient1"
       id="linearGradient4"
       gradientUnits="userSpaceOnUse"
       x1="32.000015"
       y1="58.999977"
       x2="32.000015"
       y2="5.000001" /><linearGradient
       inkscape:collect="always"
       xlink:href="#linearGradient1"
       id="linearGradient6"
       x1="8.0000114"
       y1="14.999989"
       x2="8.0000114"
       y2="0.99999976"
       gradientUnits="userSpaceOnUse" /></defs><metadata
     id="metadata1"><rdf:RDF><cc:Work
         rdf:about=""><dc:title>folder-bookmark_favorite-alt</dc:title><dc:date>25-07-2025</dc:date><dc:description>Beautyline style bookmark folder icon with favorite inspired color scheme</dc:description><cc:license
           rdf:resource="http://creativecommons.org/licenses/by-nc-sa/4.0/" /></cc:Work><cc:License
         rdf:about="http://creativecommons.org/licenses/by-nc-sa/4.0/"><cc:permits
           rdf:resource="http://creativecommons.org/ns#Reproduction" /><cc:permits
           rdf:resource="http://creativecommons.org/ns#Distribution" /><cc:requires
           rdf:resource="http://creativecommons.org/ns#Notice" /><cc:requires
           rdf:resource="http://creativecommons.org/ns#Attribution" /><cc:prohibits
           rdf:resource="http://creativecommons.org/ns#CommercialUse" /><cc:permits
           rdf:resource="http://creativecommons.org/ns#DerivativeWorks" /><cc:requires
           rdf:resource="http://creativecommons.org/ns#ShareAlike" /></cc:License></rdf:RDF></metadata></svg>
