<?xml version="1.0" encoding="UTF-8" standalone="no"?>
<svg
   width="48"
   height="48"
   viewBox="0 0 48 48"
   fill="none"
   version="2"
   id="svg1"
   sodipodi:docname="folder-database.svg"
   inkscape:version="1.4.2 (ebf0e940d0, 2025-05-08)"
   xml:space="preserve"
   xmlns:inkscape="http://www.inkscape.org/namespaces/inkscape"
   xmlns:sodipodi="http://sodipodi.sourceforge.net/DTD/sodipodi-0.dtd"
   xmlns:xlink="http://www.w3.org/1999/xlink"
   xmlns="http://www.w3.org/2000/svg"
   xmlns:svg="http://www.w3.org/2000/svg"
   xmlns:rdf="http://www.w3.org/1999/02/22-rdf-syntax-ns#"
   xmlns:cc="http://creativecommons.org/ns#"
   xmlns:dc="http://purl.org/dc/elements/1.1/"><title
     id="title1">folder-blender</title><sodipodi:namedview
     id="namedview1"
     pagecolor="#3f4354"
     bordercolor="#000000"
     borderopacity="0.5"
     inkscape:showpageshadow="1"
     inkscape:pageopacity="0"
     inkscape:pagecheckerboard="1"
     inkscape:deskcolor="#2b2f40"
     showgrid="false"
     inkscape:zoom="17.6875"
     inkscape:cx="24"
     inkscape:cy="24"
     inkscape:window-width="1920"
     inkscape:window-height="1048"
     inkscape:window-x="0"
     inkscape:window-y="0"
     inkscape:window-maximized="1"
     inkscape:current-layer="g12" /><g
     id="g1"><g
       style="fill:none"
       id="g12"
       transform="matrix(0.2,0,0,0.2,11.281348,13.807109)"><path
         d="M 63.6606,11 C 49.9594,11 36.8193,13.0044 27.1311,16.5725 17.4428,20.1405 12,24.9798 12,30.0257 v 67.9487 c 0,5.0456 5.4428,9.8856 15.1311,13.4536 9.6882,3.568 22.8283,5.572 36.5295,5.572 13.7013,0 26.8411,-2.004 36.5294,-5.572 9.689,-3.568 15.131,-8.408 15.131,-13.4536 V 30.0257 c 0,-5.0459 -5.442,-9.8852 -15.131,-13.4532 C 90.5017,13.0044 77.3619,11 63.6606,11 Z m 0,9.5128 c 11.4178,0 22.3684,1.0023 30.4411,2.7863 8.0733,1.784 12.6093,4.2036 12.6093,6.7266 0,2.523 -4.536,4.9426 -12.6093,6.7266 -8.0727,1.7839 -19.0233,2.7862 -30.4411,2.7862 -11.4176,0 -22.3677,-1.0023 -30.4412,-2.7862 -8.0737,-1.784 -12.6092,-4.2036 -12.6092,-6.7266 0,-2.523 4.5355,-4.9426 12.6092,-6.7266 8.0735,-1.784 19.0236,-2.7863 30.4412,-2.7863 z M 20.6102,40.5046 c 4.7005,2.6234 11.0926,4.7771 18.605,6.2685 7.5124,1.4913 15.9111,2.2741 24.4454,2.2782 8.5299,-0.002 16.9255,-0.782 24.4373,-2.2701 7.5119,-1.4881 13.9071,-3.6381 18.6131,-6.2579 v 23.4768 c 0,2.523 -4.536,4.9427 -12.6093,6.7267 -8.0727,1.7839 -19.0233,2.7862 -30.4411,2.7862 -11.4176,0 -22.3677,-1.0023 -30.4412,-2.7862 -8.0737,-1.784 -12.6092,-4.2037 -12.6092,-6.7267 z m 0,33.9745 c 4.7005,2.6234 11.0926,4.7769 18.605,6.2684 7.5124,1.4914 15.9111,2.2741 24.4454,2.2782 8.5299,-0.0016 16.9255,-0.7819 24.4373,-2.27 7.5119,-1.4881 13.9071,-3.6381 18.6131,-6.2579 v 23.4766 c 0,2.5236 -4.536,4.9426 -12.6093,6.7266 -8.0727,1.784 -19.0233,2.786 -30.4411,2.786 -11.4176,0 -22.3677,-1.002 -30.4412,-2.786 -8.0737,-1.784 -12.6092,-4.203 -12.6092,-6.7266 z"
         fill="url(#paint0_linear_721_73)"
         stroke="url(#paint1_linear_721_73)"
         stroke-width="4"
         id="path1"
         style="fill:url(#paint0_linear_721_73);stroke:url(#paint0_linear_721_73)" /></g><g
       id="g11"
       transform="matrix(0.74999965,0,0,0.74999965,3.7743922e-7,1.908614e-5)"><path
         d="M 8.24717,5.28688 C 10.8404,4.80099 13.5052,5.09747 16.1297,5.01923 18.8839,5.09747 21.902,4.61569 24.37,6.03631 c 2.3518,1.37121 3.8988,3.59891 6.0002,5.24599 0.7735,0.5518 1.7751,0.7577 2.7453,0.7412 9.4028,0 18.8055,0.0124 28.2083,0.0659 1.6185,-0.1277 3.018,1.4165 2.6022,2.8577 -0.2281,1.1159 -1.404,1.9436 -2.6291,1.8695 C 51.7466,16.8289 42.1963,16.7836 32.646,16.7754 30.4597,16.763 28.2778,16.0177 26.6547,14.663 24.6696,13.1765 23.3506,10.8953 21.0033,9.87817 17.7483,9.63934 14.462,9.84523 11.1981,9.77522 8.9536,9.63934 6.7091,10.8252 5.75228,12.7029 c -0.65725,1.1901 -0.541,2.5572 -0.54994,3.846 0.02235,10.8503 -0.00895,21.7005 0.01341,32.5549 -0.03577,2.0342 1.4084,3.9777 3.4517,4.7354 1.21614,0.4777 2.56645,0.3871 3.85855,0.3953 13.5833,-0.0206 27.1665,0.0083 40.7453,-0.0165 2.1014,0.0083 4.1134,-1.2023 4.9898,-2.9524 0.7019,-1.3135 0.5007,-2.8124 0.5275,-4.2248 0.009,-6.0284 -0.0312,-12.0567 0.0179,-18.0851 -0.0357,-1.3548 1.3995,-2.4954 2.8481,-2.3183 1.4219,0.0865 2.486,1.3712 2.325,2.6601 0,6.7366 0.0313,13.4732 -0.0134,20.214 C 63.9036,54.498 59.1016,58.8917 53.696,58.974 39.384,59.0234 25.0675,58.9864 10.7555,58.9905 6.61521,59.0317 2.60462,56.6516 0.945834,53.1557 0.163389,51.6362 -0.0243975,49.9356 0.00242916,48.272 0.0381981,37.01 -0.0243977,25.7397 0.0337268,14.4777 0.114207,10.1664 3.70004,6.22985 8.24717,5.28688 Z"
         id="path111"
         style="fill:url(#linearGradient30);fill-opacity:1;stroke:url(#linearGradient30);stroke-width:0;stroke-dasharray:none" /></g><rect
       style="fill:none;fill-opacity:1;fill-rule:evenodd;stroke:#000000;stroke-width:3.9;stroke-linejoin:round;stroke-dasharray:none;stroke-opacity:0;paint-order:fill markers stroke"
       id="rect1"
       width="44.075188"
       height="31.645638"
       x="1.9758538"
       y="10.78429" /></g><defs
     id="defs1"><linearGradient
       id="linearGradient6"
       inkscape:collect="always"
       inkscape:label="1"><stop
         style="stop-color:#0072ff;stop-opacity:1;"
         offset="0"
         id="stop5" /><stop
         style="stop-color:#00e5a1;stop-opacity:1;"
         offset="1"
         id="stop6" /></linearGradient><linearGradient
       inkscape:collect="always"
       xlink:href="#linearGradient6"
       id="linearGradient30"
       gradientUnits="userSpaceOnUse"
       gradientTransform="matrix(1.421128,-0.01199146,0.01198687,1.4216711,-101.30678,-100.47471)"
       x1="76.464188"
       y1="109.18899"
       x2="107.36562"
       y2="80.767426" /><linearGradient
       id="paint1_linear"
       x1="4.5768099"
       y1="45.678902"
       x2="42.3731"
       y2="4.1876402"
       gradientUnits="userSpaceOnUse"
       gradientTransform="matrix(1.4285714,0,0,1.4285714,-8.757358,-11.86756)"><stop
         stop-color="#FF5508"
         id="stop4-7" /><stop
         offset="1"
         stop-color="#FFA208"
         id="stop5-8" /></linearGradient><linearGradient
       id="paint0_linear"
       x1="4.5768099"
       y1="45.678799"
       x2="42.3731"
       y2="4.1875501"
       gradientUnits="userSpaceOnUse"
       gradientTransform="matrix(1.4285714,0,0,1.4285714,-8.757358,-11.86756)"><stop
         stop-color="#FF5508"
         id="stop2-4" /><stop
         offset="1"
         stop-color="#FFA208"
         id="stop3-5" /></linearGradient><linearGradient
       id="paint0_linear_721_73"
       x1="27.1311"
       y1="101.477"
       x2="102.06"
       y2="28.4413"
       gradientUnits="userSpaceOnUse"><stop
         stop-color="#0072FF"
         id="stop1" /><stop
         offset="1"
         stop-color="#00E5A1"
         id="stop2" /></linearGradient></defs><metadata
     id="metadata1"><rdf:RDF><cc:Work
         rdf:about=""><dc:title>folder-blender</dc:title><dc:date>22-07-2025</dc:date><dc:description>Beautyline style Blender folder icon</dc:description><cc:license
           rdf:resource="http://creativecommons.org/licenses/by-nc-sa/4.0/" /></cc:Work><cc:License
         rdf:about="http://creativecommons.org/licenses/by-nc-sa/4.0/"><cc:permits
           rdf:resource="http://creativecommons.org/ns#Reproduction" /><cc:permits
           rdf:resource="http://creativecommons.org/ns#Distribution" /><cc:requires
           rdf:resource="http://creativecommons.org/ns#Notice" /><cc:requires
           rdf:resource="http://creativecommons.org/ns#Attribution" /><cc:prohibits
           rdf:resource="http://creativecommons.org/ns#CommercialUse" /><cc:permits
           rdf:resource="http://creativecommons.org/ns#DerivativeWorks" /><cc:requires
           rdf:resource="http://creativecommons.org/ns#ShareAlike" /></cc:License></rdf:RDF></metadata></svg>
