<?xml version="1.0" encoding="UTF-8" standalone="no"?>
<svg
   width="48"
   height="48"
   viewBox="0 0 48 48"
   fill="none"
   version="2"
   id="svg1"
   sodipodi:docname="folder-gdrive.svg"
   inkscape:version="1.4.2 (ebf0e940d0, 2025-05-08)"
   xml:space="preserve"
   xmlns:inkscape="http://www.inkscape.org/namespaces/inkscape"
   xmlns:sodipodi="http://sodipodi.sourceforge.net/DTD/sodipodi-0.dtd"
   xmlns:xlink="http://www.w3.org/1999/xlink"
   xmlns="http://www.w3.org/2000/svg"
   xmlns:svg="http://www.w3.org/2000/svg"
   xmlns:rdf="http://www.w3.org/1999/02/22-rdf-syntax-ns#"
   xmlns:cc="http://creativecommons.org/ns#"
   xmlns:dc="http://purl.org/dc/elements/1.1/"><title
     id="title1">folder-gdrive</title><sodipodi:namedview
     id="namedview1"
     pagecolor="#3f4354"
     bordercolor="#000000"
     borderopacity="0.5"
     inkscape:showpageshadow="1"
     inkscape:pageopacity="0"
     inkscape:pagecheckerboard="1"
     inkscape:deskcolor="#2b2f40"
     showgrid="false"
     inkscape:zoom="15.229167"
     inkscape:cx="24"
     inkscape:cy="24"
     inkscape:window-width="1920"
     inkscape:window-height="1048"
     inkscape:window-x="0"
     inkscape:window-y="0"
     inkscape:window-maximized="1"
     inkscape:current-layer="g1" /><g
     id="g1"><g
       style="fill:none"
       id="g12"
       transform="matrix(1.4673007,0,0,1.4673007,12.279519,14.681843)"><path
         d="m 6.52294,10.2207 c -0.01116,0 -0.02142,0.0061 -0.0268,0.0159 l -2.17715,3.9729 c -0.01116,0.0204 0.00357,0.0452 0.0268,0.0452 h 8.44651 c 0.0112,0 0.0214,-0.0061 0.0268,-0.0158 l 2.1772,-3.9729 c 0.0111,-0.0204 -0.0036,-0.0453 -0.0268,-0.0453 z"
         stroke="url(#paint0_linear_448_504)"
         id="path1"
         style="stroke:url(#paint0_linear_448_504)" /><path
         d="M 1.00451,9.96882 C 0.998845,9.95959 0.998493,9.94803 1.00359,9.93847 L 4.87492,2.67244 C 4.88595,2.65174 4.91523,2.65067 4.92776,2.6705 l 2.29138,3.63169 c 0.0059,0.00935 0.00627,0.02115 0.00104,0.03084 L 3.28816,13.6031 c -0.0112,0.0207 -0.04062,0.0215 -0.05293,0.0014 z"
         stroke="url(#paint1_linear_448_504)"
         id="path2"
         style="stroke:url(#paint1_linear_448_504)" /><path
         d="M 6.06161,2 C 6.03744,2 6.02283,2.02675 6.03591,2.04709 l 4.44019,6.90674 c 0.0056,0.00874 0.0153,0.01403 0.0257,0.01403 h 4.341 c 0.0242,0 0.0388,-0.02674 0.0257,-0.04709 L 10.4284,2.01403 C 10.4228,2.00529 10.4131,2 10.4027,2 Z"
         stroke="url(#paint2_linear_448_504)"
         id="path3"
         style="stroke:url(#paint2_linear_448_504)" /></g><g
       id="g11"
       transform="matrix(0.74999965,0,0,0.74999965,3.7743922e-7,1.908614e-5)"><path
         d="M 8.24717,5.28688 C 10.8404,4.80099 13.5052,5.09747 16.1297,5.01923 18.8839,5.09747 21.902,4.61569 24.37,6.03631 c 2.3518,1.37121 3.8988,3.59891 6.0002,5.24599 0.7735,0.5518 1.7751,0.7577 2.7453,0.7412 9.4028,0 18.8055,0.0124 28.2083,0.0659 1.6185,-0.1277 3.018,1.4165 2.6022,2.8577 -0.2281,1.1159 -1.404,1.9436 -2.6291,1.8695 C 51.7466,16.8289 42.1963,16.7836 32.646,16.7754 30.4597,16.763 28.2778,16.0177 26.6547,14.663 24.6696,13.1765 23.3506,10.8953 21.0033,9.87817 17.7483,9.63934 14.462,9.84523 11.1981,9.77522 8.9536,9.63934 6.7091,10.8252 5.75228,12.7029 c -0.65725,1.1901 -0.541,2.5572 -0.54994,3.846 0.02235,10.8503 -0.00895,21.7005 0.01341,32.5549 -0.03577,2.0342 1.4084,3.9777 3.4517,4.7354 1.21614,0.4777 2.56645,0.3871 3.85855,0.3953 13.5833,-0.0206 27.1665,0.0083 40.7453,-0.0165 2.1014,0.0083 4.1134,-1.2023 4.9898,-2.9524 0.7019,-1.3135 0.5007,-2.8124 0.5275,-4.2248 0.009,-6.0284 -0.0312,-12.0567 0.0179,-18.0851 -0.0357,-1.3548 1.3995,-2.4954 2.8481,-2.3183 1.4219,0.0865 2.486,1.3712 2.325,2.6601 0,6.7366 0.0313,13.4732 -0.0134,20.214 C 63.9036,54.498 59.1016,58.8917 53.696,58.974 39.384,59.0234 25.0675,58.9864 10.7555,58.9905 6.61521,59.0317 2.60462,56.6516 0.945834,53.1557 0.163389,51.6362 -0.0243975,49.9356 0.00242916,48.272 0.0381981,37.01 -0.0243977,25.7397 0.0337268,14.4777 0.114207,10.1664 3.70004,6.22985 8.24717,5.28688 Z"
         id="path111"
         style="fill:url(#linearGradient30);fill-opacity:1;stroke:url(#linearGradient30);stroke-width:0;stroke-dasharray:none" /></g><rect
       style="fill:none;fill-opacity:1;fill-rule:evenodd;stroke:none;stroke-width:3.9;stroke-linejoin:round;stroke-dasharray:none;stroke-opacity:0.5;paint-order:fill markers stroke"
       id="rect1"
       width="44.075188"
       height="31.645638"
       x="1.9758538"
       y="10.78429" /></g><defs
     id="defs1"><linearGradient
       id="linearGradient6"
       inkscape:collect="always"
       inkscape:label="1"><stop
         style="stop-color:#fd3a84;stop-opacity:1;"
         offset="0"
         id="stop5" /><stop
         style="stop-color:#ffa68d;stop-opacity:1;"
         offset="1"
         id="stop6" /></linearGradient><linearGradient
       inkscape:collect="always"
       xlink:href="#linearGradient6"
       id="linearGradient30"
       gradientUnits="userSpaceOnUse"
       gradientTransform="matrix(1.421128,-0.01199146,0.01198687,1.4216711,-101.30678,-100.47471)"
       x1="76.464188"
       y1="109.18899"
       x2="115.57574"
       y2="82.162277" /><linearGradient
       id="paint1_linear"
       x1="4.5768099"
       y1="45.678902"
       x2="42.3731"
       y2="4.1876402"
       gradientUnits="userSpaceOnUse"
       gradientTransform="matrix(1.4285714,0,0,1.4285714,-8.757358,-11.86756)"><stop
         stop-color="#FF5508"
         id="stop4-7" /><stop
         offset="1"
         stop-color="#FFA208"
         id="stop5-8" /></linearGradient><linearGradient
       id="paint0_linear"
       x1="4.5768099"
       y1="45.678799"
       x2="42.3731"
       y2="4.1875501"
       gradientUnits="userSpaceOnUse"
       gradientTransform="matrix(1.4285714,0,0,1.4285714,-8.757358,-11.86756)"><stop
         stop-color="#FF5508"
         id="stop2-4" /><stop
         offset="1"
         stop-color="#FFA208"
         id="stop3-5" /></linearGradient><linearGradient
       id="paint0_linear_448_504"
       x1="9.65762"
       y1="14.2547"
       x2="9.65762"
       y2="10.2207"
       gradientUnits="userSpaceOnUse"><stop
         stop-color="#5570FF"
         id="stop3" /><stop
         offset="1"
         stop-color="#4DD3FF"
         id="stop4" /></linearGradient><linearGradient
       id="paint1_linear_448_504"
       x1="4.11203"
       y1="13.6497"
       x2="4.11203"
       y2="2.626"
       gradientUnits="userSpaceOnUse"><stop
         stop-color="#02AA93"
         id="stop5-3" /><stop
         offset="1"
         stop-color="#67FF80"
         id="stop6-5" /></linearGradient><linearGradient
       id="paint2_linear_448_504"
       x1="10.4522"
       y1="8.96786"
       x2="10.4522"
       y2="2"
       gradientUnits="userSpaceOnUse"><stop
         stop-color="#FFA800"
         id="stop7" /><stop
         offset="1"
         stop-color="#FFF737"
         id="stop8" /></linearGradient></defs><metadata
     id="metadata1"><rdf:RDF><cc:Work
         rdf:about=""><dc:title>folder-gdrive</dc:title><dc:date>23-07-2025</dc:date><dc:description>Beautyline style GDrive folder icon</dc:description><cc:license
           rdf:resource="http://creativecommons.org/licenses/by-nc-sa/4.0/" /></cc:Work><cc:License
         rdf:about="http://creativecommons.org/licenses/by-nc-sa/4.0/"><cc:permits
           rdf:resource="http://creativecommons.org/ns#Reproduction" /><cc:permits
           rdf:resource="http://creativecommons.org/ns#Distribution" /><cc:requires
           rdf:resource="http://creativecommons.org/ns#Notice" /><cc:requires
           rdf:resource="http://creativecommons.org/ns#Attribution" /><cc:prohibits
           rdf:resource="http://creativecommons.org/ns#CommercialUse" /><cc:permits
           rdf:resource="http://creativecommons.org/ns#DerivativeWorks" /><cc:requires
           rdf:resource="http://creativecommons.org/ns#ShareAlike" /></cc:License></rdf:RDF></metadata></svg>
