<?xml version="1.0" encoding="UTF-8" standalone="no"?>
<svg
   width="48"
   height="48"
   viewBox="0 0 48 48"
   fill="none"
   version="2"
   id="svg1"
   sodipodi:docname="folder-presentation.svg"
   inkscape:version="1.4.2 (ebf0e940d0, 2025-05-08)"
   xml:space="preserve"
   xmlns:inkscape="http://www.inkscape.org/namespaces/inkscape"
   xmlns:sodipodi="http://sodipodi.sourceforge.net/DTD/sodipodi-0.dtd"
   xmlns:xlink="http://www.w3.org/1999/xlink"
   xmlns="http://www.w3.org/2000/svg"
   xmlns:svg="http://www.w3.org/2000/svg"
   xmlns:rdf="http://www.w3.org/1999/02/22-rdf-syntax-ns#"
   xmlns:cc="http://creativecommons.org/ns#"
   xmlns:dc="http://purl.org/dc/elements/1.1/"><title
     id="title1">folder-</title><sodipodi:namedview
     id="namedview1"
     pagecolor="#3f4354"
     bordercolor="#000000"
     borderopacity="0.5"
     inkscape:showpageshadow="1"
     inkscape:pageopacity="0"
     inkscape:pagecheckerboard="1"
     inkscape:deskcolor="#2b2f40"
     showgrid="false"
     inkscape:zoom="17.3125"
     inkscape:cx="24.115523"
     inkscape:cy="24"
     inkscape:window-width="1920"
     inkscape:window-height="1048"
     inkscape:window-x="0"
     inkscape:window-y="0"
     inkscape:window-maximized="1"
     inkscape:current-layer="g11" /><g
     id="g1"><g
       id="g11"
       transform="matrix(0.74999965,0,0,0.74999965,3.7743922e-7,1.908614e-5)"
       style="fill:url(#linearGradient3)"><path
         d="M 8.24717,5.28688 C 10.8404,4.80099 13.5052,5.09747 16.1297,5.01923 18.8839,5.09747 21.902,4.61569 24.37,6.03631 c 2.3518,1.37121 3.8988,3.59891 6.0002,5.24599 0.7735,0.5518 1.7751,0.7577 2.7453,0.7412 9.4028,0 18.8055,0.0124 28.2083,0.0659 1.6185,-0.1277 3.018,1.4165 2.6022,2.8577 -0.2281,1.1159 -1.404,1.9436 -2.6291,1.8695 C 51.7466,16.8289 42.1963,16.7836 32.646,16.7754 30.4597,16.763 28.2778,16.0177 26.6547,14.663 24.6696,13.1765 23.3506,10.8953 21.0033,9.87817 17.7483,9.63934 14.462,9.84523 11.1981,9.77522 8.9536,9.63934 6.7091,10.8252 5.75228,12.7029 c -0.65725,1.1901 -0.541,2.5572 -0.54994,3.846 0.02235,10.8503 -0.00895,21.7005 0.01341,32.5549 -0.03577,2.0342 1.4084,3.9777 3.4517,4.7354 1.21614,0.4777 2.56645,0.3871 3.85855,0.3953 13.5833,-0.0206 27.1665,0.0083 40.7453,-0.0165 2.1014,0.0083 4.1134,-1.2023 4.9898,-2.9524 0.7019,-1.3135 0.5007,-2.8124 0.5275,-4.2248 0.009,-6.0284 -0.0312,-12.0567 0.0179,-18.0851 -0.0357,-1.3548 1.3995,-2.4954 2.8481,-2.3183 1.4219,0.0865 2.486,1.3712 2.325,2.6601 0,6.7366 0.0313,13.4732 -0.0134,20.214 C 63.9036,54.498 59.1016,58.8917 53.696,58.974 39.384,59.0234 25.0675,58.9864 10.7555,58.9905 6.61521,59.0317 2.60462,56.6516 0.945834,53.1557 0.163389,51.6362 -0.0243975,49.9356 0.00242916,48.272 0.0381981,37.01 -0.0243977,25.7397 0.0337268,14.4777 0.114207,10.1664 3.70004,6.22985 8.24717,5.28688 Z"
         id="path111"
         style="fill:url(#linearGradient2);fill-opacity:1;stroke:url(#linearGradient30);stroke-width:0;stroke-dasharray:none" /></g><g
       style="fill:none"
       id="g2"
       transform="matrix(0.09561753,0,0,0.09561753,11.822213,14.415874)"><path
         d="m 149.094,177.52 h 14.062 c 1.944,0 3.516,-1.622 3.516,-3.627 v -43.524 c 0,-2.005 -1.572,-3.627 -3.516,-3.627 h -14.062 c -1.944,0 -3.516,1.622 -3.516,3.627 v 43.524 c 0,2.005 1.572,3.627 3.516,3.627 z m 35.39,-79.7946 h -52.968 v -3.8689 c 0,-2.0048 -1.573,-3.627 -3.516,-3.627 -1.943,0 -3.516,1.6222 -3.516,3.627 v 3.8689 H 71.5156 C 69.5724,97.7254 68,99.3474 68,101.352 v 14.509 c 0,2.005 1.5724,3.627 3.5156,3.627 h 3.5156 v 69.155 c 0,2.005 1.5724,3.627 3.5157,3.627 h 30.5151 l -4.688,14.509 h -4.499 c -1.9432,0 -3.5156,1.622 -3.5156,3.627 0,2.005 1.5724,3.627 3.5156,3.627 h 7.031 c 1.293,0 2.772,-0.97 3.276,-2.399 0.335,-0.951 6.105,-18.71 6.291,-19.364 h 8.011 v 18.136 c 0,2.005 1.573,3.627 3.516,3.627 1.943,0 3.516,-1.622 3.516,-3.627 V 192.27 h 8.014 c 0.643,1.98 -2.327,-7.173 6.288,19.364 0.501,1.421 1.978,2.399 3.276,2.399 h 7.031 c 1.943,0 3.516,-1.622 3.516,-3.627 0,-2.005 -1.573,-3.627 -3.516,-3.627 h -4.499 l -4.688,-14.509 h 30.515 c 1.944,0 3.516,-1.622 3.516,-3.627 v -69.155 h 3.515 c 1.944,0 3.516,-1.622 3.516,-3.627 v -14.509 c 0,-2.0046 -1.572,-3.6266 -3.516,-3.6266 z M 173.938,185.016 H 82.0625 v -65.528 h 91.8755 z m -52.969,-7.496 h 14.062 c 1.944,0 3.516,-1.622 3.516,-3.627 v -29.016 c 0,-2.005 -1.572,-3.627 -3.516,-3.627 h -14.062 c -1.944,0 -3.516,1.622 -3.516,3.627 v 29.016 c 0,2.005 1.572,3.627 3.516,3.627 z m -28.1252,0 h 14.0622 c 1.944,0 3.516,-1.622 3.516,-3.627 v -14.508 c 0,-2.005 -1.572,-3.627 -3.516,-3.627 H 92.8438 c -1.9433,0 -3.5157,1.622 -3.5157,3.627 v 14.508 c 0,2.005 1.5724,3.627 3.5157,3.627 z"
         fill="url(#paint0_linear_667_183)"
         id="path1"
         style="fill:url(#paint0_linear_667_183)" /><path
         fill-rule="evenodd"
         clip-rule="evenodd"
         d="m 220.141,59.4684 c 0.536,0.8497 0.859,1.9642 0.859,2.9689 v 5.7443 177.4644 c 0,4.062 -3.22,7.354 -7.192,7.354 H 41.1923 C 37.2202,253 34,249.708 34,245.646 V 9.35352 C 34,5.29241 37.2202,2 41.1923,2 H 156.269 C 158.291,2 169.555,7.95733 171,9.35352 L 218.9,57.5 c 0,0 0.168,0.2668 0.409,0.6492 0.237,0.3759 0.545,0.8635 0.832,1.3192 z M 168.606,32.3665 c -1.88,-1.9222 -5.144,-0.5911 -5.144,2.0977 v 23.3639 c 0,1.6569 1.343,3 3,3 h 22.851 c 2.657,0 4.003,-3.1984 2.145,-5.0977 z M 52,232.5 c 0,1.657 1.3431,3 3,3 h 145 c 1.657,0 3,-1.343 3,-3 V 82 c 0,-1.6569 -1.343,-3 -3,-3 H 163.462 C 159.489,79 144.5,64.8892 144.5,60.8281 V 22.5 c 0,-1.6569 -1.343,-3 -3,-3 H 55 c -1.6569,0 -3,1.3431 -3,3 z M 128,88.2295 c -3.106,0 -5.516,2.5765 -5.516,5.627 v 1.8689 H 71.5156 C 68.4097,95.7254 66,98.3019 66,101.352 v 14.509 c 0,3.05 2.4096,5.627 5.5156,5.627 h 1.5156 v 67.155 c 0,3.05 2.4096,5.627 5.5157,5.627 h 27.7671 l -3.396,10.509 h -3.043 c -3.106,0 -5.5156,2.577 -5.5156,5.627 0,3.05 2.4096,5.627 5.5156,5.627 h 7.031 c 2.143,0 4.377,-1.507 5.162,-3.734 v -0.001 c 0.101,-0.286 0.675,-2.034 1.439,-4.376 l 8.977,-5.249 v 7.733 c 0,3.051 2.411,5.627 5.516,5.627 3.105,0 5.516,-2.576 5.516,-5.627 v -14.183 l 3.34,-1.953 h 1.222 c 0.664,2.044 2.241,6.903 5.838,17.982 l 0.007,0.023 0.009,0.024 c 0.781,2.215 3.01,3.734 5.162,3.734 h 7.031 c 3.105,0 5.516,-2.576 5.516,-5.627 0,-3.051 -2.411,-5.627 -5.516,-5.627 h -3.043 l -3.396,-10.509 h 27.767 c 3.107,0 5.516,-2.577 5.516,-5.627 v -67.155 h 1.515 c 3.107,0 5.516,-2.577 5.516,-5.627 v -14.509 c 0,-3.0502 -2.409,-5.6266 -5.516,-5.6266 h -50.968 v -1.8689 c 0,-3.0505 -2.41,-5.627 -5.516,-5.627 z m 8.856,106.0405 v 0 l 4.56,-2.667 0.006,0.017 0.003,0.009 0.003,0.009 0.003,0.008 0.004,0.013 v 0.002 l 0.002,0.003 0.15,0.461 c 0.414,1.276 1.824,5.617 6.124,18.862 0.228,0.617 0.943,1.046 1.383,1.046 h 7.031 c 0.781,0 1.516,-0.668 1.516,-1.627 0,-0.959 -0.735,-1.627 -1.516,-1.627 h -4.499 -1.456 l -0.447,-1.385 -4.688,-14.509 -0.845,-2.615 h 2.748 30.515 c 0.781,0 1.516,-0.667 1.516,-1.627 v -69.155 -2 h 2 3.515 c 0.781,0 1.516,-0.667 1.516,-1.627 v -14.509 c 0,-0.959 -0.735,-1.6266 -1.516,-1.6266 h -52.968 -2 v -2 -3.8689 c 0,-0.9591 -0.736,-1.627 -1.516,-1.627 -0.78,0 -1.516,0.6679 -1.516,1.627 v 3.8689 2 h -2 -52.9684 C 70.7351,99.7254 70,100.393 70,101.352 v 14.509 c 0,0.96 0.7352,1.627 1.5156,1.627 h 3.5156 2 v 2 69.155 c 0,0.96 0.7352,1.627 1.5157,1.627 h 30.5151 2.748 l -0.845,2.615 -4.688,14.509 -0.447,1.385 h -1.456 -4.499 c -0.7804,0 -1.5156,0.667 -1.5156,1.627 0,0.96 0.7352,1.627 1.5156,1.627 h 7.031 c 0.168,0 0.465,-0.074 0.778,-0.296 0.304,-0.215 0.515,-0.494 0.612,-0.768 l 5.211,-3.047 c 0,0 0,0 0,0 l 8.977,-5.249 v 0 l 4,-2.338 v 10.071 c 0,0.959 0.735,1.627 1.516,1.627 0.781,0 1.516,-0.668 1.516,-1.627 v -11.844 l 4,-2.339 v 0 z m -7.34,4.291 v 0.001 l -3.032,1.773 v -0.001 z m 0,0 v -6.291 -2 h 2 8.014 1.453 l 0.433,1.333 -4.56,2.667 h -3.34 v 1.953 z m -3.032,1.773 v -8.064 -2 h -2 -8.011 -1.511 l -0.413,1.452 c 10e-4,-0.001 10e-4,0 0,0.003 -0.002,0.006 -0.008,0.025 -0.02,0.063 -0.015,0.048 -0.035,0.112 -0.061,0.194 -0.051,0.163 -0.122,0.384 -0.21,0.659 -0.175,0.547 -0.417,1.297 -0.702,2.182 -0.572,1.77 -1.321,4.08 -2.075,6.4 -1.514,4.661 -3.027,9.297 -3.185,9.746 l 5.211,-3.047 c 1.424,-4.363 3.509,-10.786 4.429,-13.652 h 4.548 v 8.403 z M 82.0625,117.488 h -2 v 2 65.528 2 h 2 91.8755 2 v -2 -65.528 -2 h -2 z m 89.8755,4 H 84.0625 v 61.528 h 87.8755 z m -22.844,3.254 c -3.107,0 -5.516,2.577 -5.516,5.627 v 43.524 c 0,3.05 2.409,5.627 5.516,5.627 h 14.062 c 3.107,0 5.516,-2.577 5.516,-5.627 v -43.524 c 0,-3.05 -2.409,-5.627 -5.516,-5.627 z m -1.516,5.627 c 0,-0.96 0.735,-1.627 1.516,-1.627 h 14.062 c 0.781,0 1.516,0.667 1.516,1.627 v 43.524 c 0,0.96 -0.735,1.627 -1.516,1.627 h -14.062 c -0.781,0 -1.516,-0.667 -1.516,-1.627 z m -26.609,8.881 c -3.107,0 -5.516,2.577 -5.516,5.627 v 29.016 c 0,3.05 2.409,5.627 5.516,5.627 h 14.062 c 3.107,0 5.516,-2.577 5.516,-5.627 v -29.016 c 0,-3.05 -2.409,-5.627 -5.516,-5.627 z m -1.516,5.627 c 0,-0.96 0.735,-1.627 1.516,-1.627 h 14.062 c 0.781,0 1.516,0.667 1.516,1.627 v 29.016 c 0,0.96 -0.735,1.627 -1.516,1.627 h -14.062 c -0.781,0 -1.516,-0.667 -1.516,-1.627 z m -26.6092,8.881 c -3.1061,0 -5.5157,2.577 -5.5157,5.627 v 14.508 c 0,3.05 2.4096,5.627 5.5157,5.627 h 14.0622 c 3.107,0 5.516,-2.577 5.516,-5.627 v -14.508 c 0,-3.05 -2.409,-5.627 -5.516,-5.627 z m -1.5157,5.627 c 0,-0.96 0.7352,-1.627 1.5157,-1.627 h 14.0622 c 0.781,0 1.516,0.667 1.516,1.627 v 14.508 c 0,0.96 -0.735,1.627 -1.516,1.627 H 92.8438 c -0.7805,0 -1.5157,-0.667 -1.5157,-1.627 z"
         fill="url(#paint1_linear_667_183)"
         id="path2"
         style="fill:url(#paint1_linear_667_183)" /></g></g><defs
     id="defs1"><linearGradient
       id="paint0_linear"
       x1="94.0831"
       y1="102.397"
       x2="94.0831"
       y2="5"
       gradientUnits="userSpaceOnUse"
       gradientTransform="matrix(1.0455138,0,0,1.0223426,-7.6008048,-2.552391)"><stop
         stop-color="#FD2E00"
         id="stop14" /><stop
         offset="1"
         stop-color="#FF9900"
         id="stop16" /></linearGradient><linearGradient
       inkscape:collect="always"
       xlink:href="#paint0_linear"
       id="linearGradient3"
       x1="32.000015"
       y1="58.999977"
       x2="32.000015"
       y2="5.000001"
       gradientUnits="userSpaceOnUse" /><linearGradient
       id="paint0_linear_667_183"
       x1="37"
       y1="114.5"
       x2="185"
       y2="197.5"
       gradientUnits="userSpaceOnUse"><stop
         stop-color="#FD5900"
         id="stop2" /><stop
         offset="1"
         stop-color="#FFDE00"
         id="stop3" /></linearGradient><linearGradient
       id="paint1_linear_667_183"
       x1="58.5"
       y1="87"
       x2="200.715"
       y2="167.199"
       gradientUnits="userSpaceOnUse"><stop
         stop-color="#FD5900"
         id="stop4" /><stop
         offset="1"
         stop-color="#FFDE00"
         id="stop5" /></linearGradient><linearGradient
       inkscape:collect="always"
       xlink:href="#paint0_linear_667_183"
       id="linearGradient2"
       gradientUnits="userSpaceOnUse"
       x1="8.2406778"
       y1="16.013243"
       x2="56.837574"
       y2="46.985531" /></defs><metadata
     id="metadata1"><rdf:RDF><cc:Work
         rdf:about=""><dc:title>folder-</dc:title><dc:date>26-07-2025</dc:date><dc:description>Beautyline style * folder icon</dc:description><cc:license
           rdf:resource="http://creativecommons.org/licenses/by-nc-sa/4.0/" /></cc:Work><cc:License
         rdf:about="http://creativecommons.org/licenses/by-nc-sa/4.0/"><cc:permits
           rdf:resource="http://creativecommons.org/ns#Reproduction" /><cc:permits
           rdf:resource="http://creativecommons.org/ns#Distribution" /><cc:requires
           rdf:resource="http://creativecommons.org/ns#Notice" /><cc:requires
           rdf:resource="http://creativecommons.org/ns#Attribution" /><cc:prohibits
           rdf:resource="http://creativecommons.org/ns#CommercialUse" /><cc:permits
           rdf:resource="http://creativecommons.org/ns#DerivativeWorks" /><cc:requires
           rdf:resource="http://creativecommons.org/ns#ShareAlike" /></cc:License></rdf:RDF></metadata></svg>
