<?xml version="1.0" encoding="UTF-8" standalone="no"?>
<svg
   width="48"
   height="48"
   viewBox="0 0 48 48"
   fill="none"
   version="2"
   id="svg1"
   sodipodi:docname="folder-table_office-Candy-alt.svg"
   inkscape:version="1.4.2 (ebf0e940d0, 2025-05-08)"
   xml:space="preserve"
   xmlns:inkscape="http://www.inkscape.org/namespaces/inkscape"
   xmlns:sodipodi="http://sodipodi.sourceforge.net/DTD/sodipodi-0.dtd"
   xmlns:xlink="http://www.w3.org/1999/xlink"
   xmlns="http://www.w3.org/2000/svg"
   xmlns:svg="http://www.w3.org/2000/svg"
   xmlns:rdf="http://www.w3.org/1999/02/22-rdf-syntax-ns#"
   xmlns:cc="http://creativecommons.org/ns#"
   xmlns:dc="http://purl.org/dc/elements/1.1/"><title
     id="title1">folder-</title><sodipodi:namedview
     id="namedview1"
     pagecolor="#3f4354"
     bordercolor="#000000"
     borderopacity="0.5"
     inkscape:showpageshadow="1"
     inkscape:pageopacity="0"
     inkscape:pagecheckerboard="1"
     inkscape:deskcolor="#2b2f40"
     showgrid="false"
     inkscape:zoom="7.4196795"
     inkscape:cx="-1.145602"
     inkscape:cy="40.500402"
     inkscape:window-width="1920"
     inkscape:window-height="1048"
     inkscape:window-x="0"
     inkscape:window-y="0"
     inkscape:window-maximized="1"
     inkscape:current-layer="g2" /><g
     id="g1"><g
       id="g11"
       transform="matrix(0.74999965,0,0,0.74999965,3.7743922e-7,1.908614e-5)"
       style="fill:url(#linearGradient3)"><path
         d="M 8.24717,5.28688 C 10.8404,4.80099 13.5052,5.09747 16.1297,5.01923 18.8839,5.09747 21.902,4.61569 24.37,6.03631 c 2.3518,1.37121 3.8988,3.59891 6.0002,5.24599 0.7735,0.5518 1.7751,0.7577 2.7453,0.7412 9.4028,0 18.8055,0.0124 28.2083,0.0659 1.6185,-0.1277 3.018,1.4165 2.6022,2.8577 -0.2281,1.1159 -1.404,1.9436 -2.6291,1.8695 C 51.7466,16.8289 42.1963,16.7836 32.646,16.7754 30.4597,16.763 28.2778,16.0177 26.6547,14.663 24.6696,13.1765 23.3506,10.8953 21.0033,9.87817 17.7483,9.63934 14.462,9.84523 11.1981,9.77522 8.9536,9.63934 6.7091,10.8252 5.75228,12.7029 c -0.65725,1.1901 -0.541,2.5572 -0.54994,3.846 0.02235,10.8503 -0.00895,21.7005 0.01341,32.5549 -0.03577,2.0342 1.4084,3.9777 3.4517,4.7354 1.21614,0.4777 2.56645,0.3871 3.85855,0.3953 13.5833,-0.0206 27.1665,0.0083 40.7453,-0.0165 2.1014,0.0083 4.1134,-1.2023 4.9898,-2.9524 0.7019,-1.3135 0.5007,-2.8124 0.5275,-4.2248 0.009,-6.0284 -0.0312,-12.0567 0.0179,-18.0851 -0.0357,-1.3548 1.3995,-2.4954 2.8481,-2.3183 1.4219,0.0865 2.486,1.3712 2.325,2.6601 0,6.7366 0.0313,13.4732 -0.0134,20.214 C 63.9036,54.498 59.1016,58.8917 53.696,58.974 39.384,59.0234 25.0675,58.9864 10.7555,58.9905 6.61521,59.0317 2.60462,56.6516 0.945834,53.1557 0.163389,51.6362 -0.0243975,49.9356 0.00242916,48.272 0.0381981,37.01 -0.0243977,25.7397 0.0337268,14.4777 0.114207,10.1664 3.70004,6.22985 8.24717,5.28688 Z"
         id="path111"
         style="fill:url(#linearGradient6);fill-opacity:1;stroke:url(#linearGradient30);stroke-width:0;stroke-dasharray:none" /></g><g
       style="isolation:isolate;fill:url(#linearGradient4)"
       id="g2"
       transform="matrix(1.3333333,0,0,1.3333333,-2.9999992,-7.9999992)"><path
         d="m 16.341404,25.050832 v -2.109682 0 h 3.017046 v 0 2.109682 z m 0,1.809 v 2.109682 h 3.017046 v -2.109682 z m 7.837364,-1.809 V 22.94115 h -3.011727 v 0 2.109682 z m 0,1.809 v 2.109682 h -3.011727 v -2.109682 z m -5.861864,-8.07606 h -4.400672 c -0.721968,0 -1.307913,0.546094 -1.307913,1.21896 v 7.543961 c 0,0.474015 -0.595248,0.863184 -0.980935,0.863184 -0.385686,0 -0.980935,-0.389169 -0.980935,-0.863184 v -8.153441 c 0,-1.345732 1.171891,-2.43792 2.615827,-2.43792 h 8.634174 c 0.451636,0 0.818181,0.505262 0.818181,0.914219 0,0.408958 -0.366545,0.914221 -0.818181,0.914221 z m 8.559792,0 c 0.661743,0 1.19881,0.546094 1.19881,1.21896 v 3.482136 c 0,0.357596 0.522378,0.830553 0.879957,0.8341 0.368122,0.0036 0.91826,-0.465959 0.91826,-0.8341 v -4.091616 c 0,-1.345732 -0.805602,-2.43792 -1.798217,-2.43792 h -2.497237 c -0.451637,0 -0.818183,0.505262 -0.818183,0.914219 0,0.408959 0.366546,0.914221 0.818183,0.914221 z m -11.138292,2.348787 h 9.043364 c 0.665181,0 1.205591,0.54 1.205591,1.205591 v 7.234364 c 0,0.665591 -0.54041,1.205591 -1.205591,1.205591 h -9.043364 c -0.665181,0 -1.205591,-0.54 -1.205591,-1.205591 V 22.33815 c 0,-0.665591 0.54041,-1.205591 1.205591,-1.205591 z m 12.337102,7.702328 c 0,-0.362851 0.490302,-0.834101 0.899111,-0.8341 0.408808,1e-6 0.899106,0.471251 0.899106,0.8341 v 3.733458 c 0,1.317617 -0.805602,2.386987 -1.798217,2.386987 h -14.81323 c -1.443936,0 -2.615827,-1.06937 -2.615827,-2.386987 v -0.89512 c 0,-0.442652 0.538283,-0.89512 0.980935,-0.89512 0.442653,0 0.980935,0.452468 0.980935,0.89512 v 0.298373 c 0,0.658809 0.585945,1.193494 1.307913,1.193494 h 12.960464 c 0.661743,0 1.19881,-0.534685 1.19881,-1.193494 z"
         fill-rule="evenodd"
         fill="url(#_lgradient_45)"
         id="path2"
         style="fill:url(#linearGradient5);stroke-width:0.409091"
         sodipodi:nodetypes="ccccccccccccccccccccccccsssssssssscsssssssssssssssssssssasssssssssssss" /></g></g><defs
     id="defs1"><linearGradient
       id="linearGradient2"
       inkscape:collect="always"><stop
         style="stop-color:#43e97b;stop-opacity:1;"
         offset="0"
         id="stop2" /><stop
         style="stop-color:#38f9d7;stop-opacity:1;"
         offset="1"
         id="stop3" /></linearGradient><linearGradient
       inkscape:collect="always"
       xlink:href="#linearGradient2"
       id="linearGradient5"
       gradientUnits="userSpaceOnUse"
       x1="0.5"
       y1="24"
       x2="47.5"
       y2="24"
       gradientTransform="matrix(0.40909091,0,0,0.40909091,10.441903,16.137149)" /><linearGradient
       inkscape:collect="always"
       xlink:href="#linearGradient2"
       id="linearGradient6"
       gradientUnits="userSpaceOnUse"
       x1="-2.036644e-09"
       y1="31.999989"
       x2="64.000031"
       y2="31.999989" /></defs><metadata
     id="metadata1"><rdf:RDF><cc:Work
         rdf:about=""><dc:title>folder-</dc:title><dc:date>26-07-2025</dc:date><dc:description>Beautyline style * folder icon</dc:description><cc:license
           rdf:resource="http://creativecommons.org/licenses/by-nc-sa/4.0/" /></cc:Work><cc:License
         rdf:about="http://creativecommons.org/licenses/by-nc-sa/4.0/"><cc:permits
           rdf:resource="http://creativecommons.org/ns#Reproduction" /><cc:permits
           rdf:resource="http://creativecommons.org/ns#Distribution" /><cc:requires
           rdf:resource="http://creativecommons.org/ns#Notice" /><cc:requires
           rdf:resource="http://creativecommons.org/ns#Attribution" /><cc:prohibits
           rdf:resource="http://creativecommons.org/ns#CommercialUse" /><cc:permits
           rdf:resource="http://creativecommons.org/ns#DerivativeWorks" /><cc:requires
           rdf:resource="http://creativecommons.org/ns#ShareAlike" /></cc:License></rdf:RDF></metadata></svg>
