<?xml version="1.0" encoding="UTF-8" standalone="no"?>
<svg
   width="48"
   height="48"
   viewBox="0 0 48 48"
   fill="none"
   version="1.1"
   id="svg1"
   sodipodi:docname="folder-fonts.svg"
   inkscape:version="1.4.2 (ebf0e940d0, 2025-05-08)"
   xmlns:inkscape="http://www.inkscape.org/namespaces/inkscape"
   xmlns:sodipodi="http://sodipodi.sourceforge.net/DTD/sodipodi-0.dtd"
   xmlns:xlink="http://www.w3.org/1999/xlink"
   xmlns="http://www.w3.org/2000/svg"
   xmlns:svg="http://www.w3.org/2000/svg">
  <sodipodi:namedview
     id="namedview1"
     pagecolor="#505050"
     bordercolor="#ffffff"
     borderopacity="1"
     inkscape:showpageshadow="0"
     inkscape:pageopacity="0"
     inkscape:pagecheckerboard="1"
     inkscape:deskcolor="#505050"
     showgrid="false"
     inkscape:zoom="13.436088"
     inkscape:cx="24.225801"
     inkscape:cy="23.63039"
     inkscape:window-width="1920"
     inkscape:window-height="1048"
     inkscape:window-x="0"
     inkscape:window-y="0"
     inkscape:window-maximized="1"
     inkscape:current-layer="g1" />
  <g
     id="g1"
     transform="matrix(0.74999965,0,0,0.74999965,-2.2560796e-8,1.908614e-5)">
    <path
       d="M 8.24717,5.28688 C 10.8404,4.80099 13.5052,5.09747 16.1297,5.01923 18.8839,5.09747 21.902,4.61569 24.37,6.03631 c 2.3518,1.37121 3.8988,3.59891 6.0002,5.24599 0.7735,0.5518 1.7751,0.7577 2.7453,0.7412 9.4028,0 18.8055,0.0124 28.2083,0.0659 1.6185,-0.1277 3.018,1.4165 2.6022,2.8577 -0.2281,1.1159 -1.404,1.9436 -2.6291,1.8695 C 51.7466,16.8289 42.1963,16.7836 32.646,16.7754 30.4597,16.763 28.2778,16.0177 26.6547,14.663 24.6696,13.1765 23.3506,10.8953 21.0033,9.87817 17.7483,9.63934 14.462,9.84523 11.1981,9.77522 8.9536,9.63934 6.7091,10.8252 5.75228,12.7029 c -0.65725,1.1901 -0.541,2.5572 -0.54994,3.846 0.02235,10.8503 -0.00895,21.7005 0.01341,32.5549 -0.03577,2.0342 1.4084,3.9777 3.4517,4.7354 1.21614,0.4777 2.56645,0.3871 3.85855,0.3953 13.5833,-0.0206 27.1665,0.0083 40.7453,-0.0165 2.1014,0.0083 4.1134,-1.2023 4.9898,-2.9524 0.7019,-1.3135 0.5007,-2.8124 0.5275,-4.2248 0.009,-6.0284 -0.0312,-12.0567 0.0179,-18.0851 -0.0357,-1.3548 1.3995,-2.4954 2.8481,-2.3183 1.4219,0.0865 2.486,1.3712 2.325,2.6601 0,6.7366 0.0313,13.4732 -0.0134,20.214 C 63.9036,54.498 59.1016,58.8917 53.696,58.974 39.384,59.0234 25.0675,58.9864 10.7555,58.9905 6.61521,59.0317 2.60462,56.6516 0.945834,53.1557 0.163389,51.6362 -0.0243975,49.9356 0.00242916,48.272 0.0381981,37.01 -0.0243977,25.7397 0.0337268,14.4777 0.114207,10.1664 3.70004,6.22985 8.24717,5.28688 Z"
       id="path2"
       style="fill:url(#linearGradient12);fill-opacity:1" />
    <path
       d="m 35.491786,23.660768 c 0,-0.274325 0.22237,-0.496694 0.496693,-0.496694 h 9.794466 c 0.274423,0 0.496693,0.22237 0.496693,0.496694 v 2.110945 c 0,0.274324 -0.22227,0.496693 -0.496693,0.496693 h -9.794466 c -0.274323,0 -0.496693,-0.222369 -0.496693,-0.496693 z m 1.541115,6.208664 c 0,-0.274323 0.222369,-0.496694 0.496694,-0.496694 h 8.25335 c 0.274423,0 0.496693,0.222371 0.496693,0.496694 v 2.110946 c 0,0.274323 -0.22227,0.496692 -0.496693,0.496692 h -8.25335 c -0.274325,0 -0.496694,-0.222369 -0.496694,-0.496692 z m 3.082253,6.208664 c 0,-0.274324 0.22237,-0.496693 0.496693,-0.496693 h 5.171098 c 0.274423,0 0.496693,0.222369 0.496693,0.496693 v 2.110946 c 0,0.274324 -0.22227,0.496693 -0.496693,0.496693 h -5.171098 c -0.274323,0 -0.496693,-0.222369 -0.496693,-0.496693 z M 27.06325,23.164074 c -0.207467,0 -0.393082,0.128941 -0.465475,0.323371 l -8.876874,23.841246 c -0.120837,0.32459 0.11917,0.67004 0.465476,0.67004 h 2.233382 c 0.207467,0 0.393056,-0.128892 0.465449,-0.323347 l 2.648815,-7.11411 c 0.07238,-0.194432 0.258008,-0.323374 0.465475,-0.323374 h 9.116008 c 0.207468,0 0.393084,0.128942 0.465476,0.323374 l 2.64879,7.11411 c 0.07238,0.194455 0.258008,0.323347 0.465476,0.323347 h 2.233382 c 0.346294,0 0.586295,-0.34545 0.465476,-0.67004 L 30.51723,23.487445 C 30.44485,23.29304 30.259223,23.164074 30.051754,23.164074 Z m -1.539574,13.969495 c -0.34632,0 -0.586321,-0.345475 -0.465476,-0.670016 l 3.033057,-8.145692 c 0.160556,-0.431155 0.770395,-0.431155 0.930952,0 l 3.033058,8.145692 c 0.120848,0.324541 -0.119184,0.670016 -0.465478,0.670016 z"
       id="path1"
       style="fill:url(#linearGradient7);fill-opacity:1;stroke:url(#linearGradient9);stroke-opacity:1"
       stroke-width="0.745041" />
  </g>
  <defs
     id="defs1">
    <linearGradient
       id="linearGradient6"
       inkscape:collect="always"
       inkscape:label="1">
      <stop
         style="stop-color:#0357d1;stop-opacity:1;"
         offset="0"
         id="stop6" />
      <stop
         style="stop-color:#27cdfc;stop-opacity:1;"
         offset="1"
         id="stop7" />
    </linearGradient>
    <linearGradient
       inkscape:collect="always"
       xlink:href="#linearGradient6"
       id="linearGradient7"
       x1="15.338134"
       y1="50.944355"
       x2="53.040215"
       y2="31.256491"
       gradientUnits="userSpaceOnUse"
       gradientTransform="matrix(0.880193,0,0,0.880193,3.8182937,3.5303862)" />
    <linearGradient
       inkscape:collect="always"
       xlink:href="#linearGradient6"
       id="linearGradient9"
       x1="15.338134"
       y1="50.944355"
       x2="53.040215"
       y2="31.256491"
       gradientUnits="userSpaceOnUse"
       gradientTransform="matrix(0.880193,0,0,0.880193,3.8182937,3.5303862)" />
    <linearGradient
       inkscape:collect="always"
       xlink:href="#linearGradient6"
       id="linearGradient12"
       x1="15.338134"
       y1="50.944355"
       x2="51.816574"
       y2="30.738615"
       gradientUnits="userSpaceOnUse" />
  </defs>
</svg>
