<?xml version="1.0" encoding="UTF-8" standalone="no"?>
<svg
   width="48"
   height="48"
   viewBox="0 0 48 48"
   fill="none"
   version="2"
   id="svg1"
   sodipodi:docname="folder-podcast.svg"
   inkscape:version="1.4.2 (ebf0e940d0, 2025-05-08)"
   xml:space="preserve"
   xmlns:inkscape="http://www.inkscape.org/namespaces/inkscape"
   xmlns:sodipodi="http://sodipodi.sourceforge.net/DTD/sodipodi-0.dtd"
   xmlns:xlink="http://www.w3.org/1999/xlink"
   xmlns="http://www.w3.org/2000/svg"
   xmlns:svg="http://www.w3.org/2000/svg"
   xmlns:rdf="http://www.w3.org/1999/02/22-rdf-syntax-ns#"
   xmlns:cc="http://creativecommons.org/ns#"
   xmlns:dc="http://purl.org/dc/elements/1.1/"><title
     id="title1">folder-</title><sodipodi:namedview
     id="namedview1"
     pagecolor="#3f4354"
     bordercolor="#000000"
     borderopacity="0.5"
     inkscape:showpageshadow="1"
     inkscape:pageopacity="0"
     inkscape:pagecheckerboard="1"
     inkscape:deskcolor="#2b2f40"
     showgrid="false"
     inkscape:zoom="17.3125"
     inkscape:cx="24.115523"
     inkscape:cy="24"
     inkscape:window-width="1920"
     inkscape:window-height="1048"
     inkscape:window-x="0"
     inkscape:window-y="0"
     inkscape:window-maximized="1"
     inkscape:current-layer="g1" /><g
     id="g1"><g
       id="g11"
       transform="matrix(0.74999965,0,0,0.74999965,3.7743922e-7,1.908614e-5)"
       style="fill:url(#linearGradient3)"><path
         d="M 8.24717,5.28688 C 10.8404,4.80099 13.5052,5.09747 16.1297,5.01923 18.8839,5.09747 21.902,4.61569 24.37,6.03631 c 2.3518,1.37121 3.8988,3.59891 6.0002,5.24599 0.7735,0.5518 1.7751,0.7577 2.7453,0.7412 9.4028,0 18.8055,0.0124 28.2083,0.0659 1.6185,-0.1277 3.018,1.4165 2.6022,2.8577 -0.2281,1.1159 -1.404,1.9436 -2.6291,1.8695 C 51.7466,16.8289 42.1963,16.7836 32.646,16.7754 30.4597,16.763 28.2778,16.0177 26.6547,14.663 24.6696,13.1765 23.3506,10.8953 21.0033,9.87817 17.7483,9.63934 14.462,9.84523 11.1981,9.77522 8.9536,9.63934 6.7091,10.8252 5.75228,12.7029 c -0.65725,1.1901 -0.541,2.5572 -0.54994,3.846 0.02235,10.8503 -0.00895,21.7005 0.01341,32.5549 -0.03577,2.0342 1.4084,3.9777 3.4517,4.7354 1.21614,0.4777 2.56645,0.3871 3.85855,0.3953 13.5833,-0.0206 27.1665,0.0083 40.7453,-0.0165 2.1014,0.0083 4.1134,-1.2023 4.9898,-2.9524 0.7019,-1.3135 0.5007,-2.8124 0.5275,-4.2248 0.009,-6.0284 -0.0312,-12.0567 0.0179,-18.0851 -0.0357,-1.3548 1.3995,-2.4954 2.8481,-2.3183 1.4219,0.0865 2.486,1.3712 2.325,2.6601 0,6.7366 0.0313,13.4732 -0.0134,20.214 C 63.9036,54.498 59.1016,58.8917 53.696,58.974 39.384,59.0234 25.0675,58.9864 10.7555,58.9905 6.61521,59.0317 2.60462,56.6516 0.945834,53.1557 0.163389,51.6362 -0.0243975,49.9356 0.00242916,48.272 0.0381981,37.01 -0.0243977,25.7397 0.0337268,14.4777 0.114207,10.1664 3.70004,6.22985 8.24717,5.28688 Z"
         id="path111"
         style="fill:url(#linearGradient2);fill-opacity:1;stroke:url(#linearGradient30);stroke-width:0;stroke-dasharray:none" /></g><g
       style="fill:none"
       id="g2"
       transform="matrix(0.2295082,0,0,0.2295082,9.3249231,11.979222)"><path
         d="m 85.0938,53.1885 c -13.5699,0 -24.6094,11.0393 -24.6094,24.6094 0,13.5698 11.0395,24.6091 24.6094,24.6091 13.5698,0 24.6092,-11.0393 24.6092,-24.6091 0,-13.5701 -11.0394,-24.6094 -24.6092,-24.6094 z m 0,42.1875 c -9.6926,0 -17.5782,-7.8856 -17.5782,-17.5781 0,-9.6929 7.8856,-17.5782 17.5782,-17.5782 9.6925,0 17.5782,7.8853 17.5782,17.5782 0,9.6925 -7.8857,17.5781 -17.5782,17.5781 z"
         fill="url(#paint0_linear)"
         stroke="url(#paint1_linear)"
         id="path1"
         style="fill:url(#paint0_linear-6);stroke:url(#paint1_linear)" /><path
         d="m 85.0938,67.251 c -5.8154,0 -10.5469,4.7313 -10.5469,10.5469 0,5.8153 4.7315,10.5468 10.5469,10.5468 5.8153,0 10.5468,-4.7315 10.5468,-10.5468 0,-5.8156 -4.7315,-10.5469 -10.5468,-10.5469 z m 0,14.0625 c -1.9383,0 -3.5157,-1.5776 -3.5157,-3.5156 0,-1.9383 1.5774,-3.5157 3.5157,-3.5157 1.9382,0 3.5156,1.5774 3.5156,3.5157 0,1.938 -1.5774,3.5156 -3.5156,3.5156 z"
         fill="url(#paint2_linear)"
         stroke="url(#paint3_linear)"
         id="path2"
         style="fill:url(#paint2_linear);stroke:url(#paint2_linear)" /><path
         fill-rule="evenodd"
         clip-rule="evenodd"
         d="m 39.1562,39.1262 h 74.2968 c 5.815,0 10.547,4.7313 10.547,10.5469 v 56.2499 c 0,5.815 -4.732,10.547 -10.547,10.547 H 14.5469 C 8.73145,116.47 4,111.738 4,105.923 V 49.6731 C 4,43.8575 8.73145,39.1262 14.5469,39.1262 h 3.5156 v -3.5156 c 0,-5.8155 4.7314,-10.5469 10.5469,-10.5469 3.5861,0 6.7575,1.7999 8.6636,4.5429 l 67.992,-18.4827 c 1.874,-0.5091 3.806,0.5969 4.316,2.471 0.508,1.8732 -0.597,3.8049 -2.471,4.3139 L 39.1562,36.3805 Z M 28.6094,32.095 c -1.9382,0 -3.5156,1.5773 -3.5156,3.5156 v 3.5156 h 7.0312 v -3.5156 c 0,-1.9383 -1.5773,-3.5156 -3.5156,-3.5156 z m 84.8436,77.344 c 1.938,0 3.516,-1.578 3.516,-3.516 V 49.6731 c 0,-1.9383 -1.578,-3.5156 -3.516,-3.5156 H 14.5469 c -1.9382,0 -3.5157,1.5773 -3.5157,3.5156 v 56.2499 c 0,1.938 1.5775,3.516 3.5157,3.516 z M 21.5781,60.22 h 28.125 c 1.9418,0 3.5157,1.5738 3.5157,3.5156 v 14.0625 c 0,1.9418 -1.5739,3.5156 -3.5157,3.5156 h -28.125 c -1.9418,0 -3.5156,-1.5738 -3.5156,-3.5156 V 63.7356 c 0,-1.9418 1.5738,-3.5156 3.5156,-3.5156 z m 3.5157,14.0625 H 46.1875 V 67.2512 H 25.0938 Z M 21.5781,88.345 c -1.9418,0 -3.5156,1.5738 -3.5156,3.5156 0,1.9418 1.5738,3.5156 3.5156,3.5156 h 7.0313 c 1.9418,0 3.5156,-1.5738 3.5156,-3.5156 0,-1.9418 -1.5738,-3.5156 -3.5156,-3.5156 z m 17.5781,3.5156 c 0,-1.9418 1.5739,-3.5156 3.5157,-3.5156 h 7.0312 c 1.9418,0 3.5157,1.5738 3.5157,3.5156 0,1.9418 -1.5739,3.5156 -3.5157,3.5156 h -7.0312 c -1.9418,0 -3.5157,-1.5738 -3.5157,-3.5156 z"
         fill="url(#paint4_linear)"
         stroke="url(#paint5_linear)"
         stroke-width="2"
         id="path3"
         style="fill:url(#paint4_linear);stroke:url(#paint4_linear)" /></g></g><defs
     id="defs1"><linearGradient
       id="paint0_linear"
       x1="94.0831"
       y1="102.397"
       x2="94.0831"
       y2="5"
       gradientUnits="userSpaceOnUse"
       gradientTransform="matrix(1.0455138,0,0,1.0223426,-7.6008048,-2.552391)"><stop
         stop-color="#FD2E00"
         id="stop14" /><stop
         offset="1"
         stop-color="#FF9900"
         id="stop16" /></linearGradient><linearGradient
       inkscape:collect="always"
       xlink:href="#paint0_linear"
       id="linearGradient3"
       x1="32.000015"
       y1="58.999977"
       x2="32.000015"
       y2="5.000001"
       gradientUnits="userSpaceOnUse" /><linearGradient
       id="paint0_linear-6"
       x1="69.4052"
       y1="96.5966"
       x2="113.789"
       y2="57.8711"
       gradientUnits="userSpaceOnUse"><stop
         stop-color="#FE0844"
         id="stop3" /><stop
         offset="1"
         stop-color="#FEB302"
         id="stop4" /></linearGradient><linearGradient
       id="paint1_linear"
       x1="69.405"
       y1="96.5967"
       x2="113.789"
       y2="57.8714"
       gradientUnits="userSpaceOnUse"><stop
         stop-color="#FE0844"
         id="stop5" /><stop
         offset="1"
         stop-color="#FEB302"
         id="stop6" /></linearGradient><linearGradient
       id="paint2_linear"
       x1="78.37"
       y1="85.8545"
       x2="97.3916"
       y2="69.2579"
       gradientUnits="userSpaceOnUse"><stop
         stop-color="#FE0844"
         id="stop7" /><stop
         offset="1"
         stop-color="#FEB302"
         id="stop8" /></linearGradient><linearGradient
       id="paint4_linear"
       x1="12.5714"
       y1="63.7349"
       x2="109.609"
       y2="51.5343"
       gradientUnits="userSpaceOnUse"><stop
         stop-color="#8D01A2"
         id="stop11" /><stop
         offset="1"
         stop-color="#FF00D2"
         id="stop12" /></linearGradient><linearGradient
       inkscape:collect="always"
       xlink:href="#paint4_linear"
       id="linearGradient2"
       gradientUnits="userSpaceOnUse"
       x1="5.2106881"
       y1="27.963034"
       x2="55.181736"
       y2="21.481358" /></defs><metadata
     id="metadata1"><rdf:RDF><cc:Work
         rdf:about=""><dc:title>folder-</dc:title><dc:date>26-07-2025</dc:date><dc:description>Beautyline style * folder icon</dc:description><cc:license
           rdf:resource="http://creativecommons.org/licenses/by-nc-sa/4.0/" /></cc:Work><cc:License
         rdf:about="http://creativecommons.org/licenses/by-nc-sa/4.0/"><cc:permits
           rdf:resource="http://creativecommons.org/ns#Reproduction" /><cc:permits
           rdf:resource="http://creativecommons.org/ns#Distribution" /><cc:requires
           rdf:resource="http://creativecommons.org/ns#Notice" /><cc:requires
           rdf:resource="http://creativecommons.org/ns#Attribution" /><cc:prohibits
           rdf:resource="http://creativecommons.org/ns#CommercialUse" /><cc:permits
           rdf:resource="http://creativecommons.org/ns#DerivativeWorks" /><cc:requires
           rdf:resource="http://creativecommons.org/ns#ShareAlike" /></cc:License></rdf:RDF></metadata></svg>
