<?xml version="1.0" encoding="UTF-8" standalone="no"?>
<svg
   width="48"
   height="48"
   viewBox="0 0 48 48"
   fill="none"
   version="2"
   id="svg1"
   sodipodi:docname="folder-library_bookmarkorga-alt.svg"
   inkscape:version="1.4.2 (ebf0e940d0, 2025-05-08)"
   xml:space="preserve"
   xmlns:inkscape="http://www.inkscape.org/namespaces/inkscape"
   xmlns:sodipodi="http://sodipodi.sourceforge.net/DTD/sodipodi-0.dtd"
   xmlns:xlink="http://www.w3.org/1999/xlink"
   xmlns="http://www.w3.org/2000/svg"
   xmlns:svg="http://www.w3.org/2000/svg"
   xmlns:rdf="http://www.w3.org/1999/02/22-rdf-syntax-ns#"
   xmlns:cc="http://creativecommons.org/ns#"
   xmlns:dc="http://purl.org/dc/elements/1.1/"><title
     id="title1">folder-library_bookmarkorga-alt</title><sodipodi:namedview
     id="namedview1"
     pagecolor="#3f4354"
     bordercolor="#000000"
     borderopacity="0.5"
     inkscape:showpageshadow="1"
     inkscape:pageopacity="0"
     inkscape:pagecheckerboard="1"
     inkscape:deskcolor="#2b2f40"
     showgrid="false"
     inkscape:zoom="17.6875"
     inkscape:cx="23.971731"
     inkscape:cy="24"
     inkscape:window-width="1920"
     inkscape:window-height="1048"
     inkscape:window-x="0"
     inkscape:window-y="0"
     inkscape:window-maximized="1"
     inkscape:current-layer="g11" /><g
     id="g1"><g
       id="g11"
       transform="matrix(0.74999965,0,0,0.74999965,3.7743922e-7,1.908614e-5)"
       style="fill:url(#linearGradient3)"><path
         d="M 8.24717,5.28688 C 10.8404,4.80099 13.5052,5.09747 16.1297,5.01923 18.8839,5.09747 21.902,4.61569 24.37,6.03631 c 2.3518,1.37121 3.8988,3.59891 6.0002,5.24599 0.7735,0.5518 1.7751,0.7577 2.7453,0.7412 9.4028,0 18.8055,0.0124 28.2083,0.0659 1.6185,-0.1277 3.018,1.4165 2.6022,2.8577 -0.2281,1.1159 -1.404,1.9436 -2.6291,1.8695 C 51.7466,16.8289 42.1963,16.7836 32.646,16.7754 30.4597,16.763 28.2778,16.0177 26.6547,14.663 24.6696,13.1765 23.3506,10.8953 21.0033,9.87817 17.7483,9.63934 14.462,9.84523 11.1981,9.77522 8.9536,9.63934 6.7091,10.8252 5.75228,12.7029 c -0.65725,1.1901 -0.541,2.5572 -0.54994,3.846 0.02235,10.8503 -0.00895,21.7005 0.01341,32.5549 -0.03577,2.0342 1.4084,3.9777 3.4517,4.7354 1.21614,0.4777 2.56645,0.3871 3.85855,0.3953 13.5833,-0.0206 27.1665,0.0083 40.7453,-0.0165 2.1014,0.0083 4.1134,-1.2023 4.9898,-2.9524 0.7019,-1.3135 0.5007,-2.8124 0.5275,-4.2248 0.009,-6.0284 -0.0312,-12.0567 0.0179,-18.0851 -0.0357,-1.3548 1.3995,-2.4954 2.8481,-2.3183 1.4219,0.0865 2.486,1.3712 2.325,2.6601 0,6.7366 0.0313,13.4732 -0.0134,20.214 C 63.9036,54.498 59.1016,58.8917 53.696,58.974 39.384,59.0234 25.0675,58.9864 10.7555,58.9905 6.61521,59.0317 2.60462,56.6516 0.945834,53.1557 0.163389,51.6362 -0.0243975,49.9356 0.00242916,48.272 0.0381981,37.01 -0.0243977,25.7397 0.0337268,14.4777 0.114207,10.1664 3.70004,6.22985 8.24717,5.28688 Z"
         id="path111"
         style="fill:url(#linearGradient2);fill-opacity:1;stroke:url(#linearGradient30);stroke-width:0;stroke-dasharray:none" /></g><g
       style="fill:none"
       id="g12"
       transform="matrix(1.1,0,0,1.1,10.813448,13.407109)"><path
         d="M 4,6.5 C 4,6.22386 3.77614,6 3.5,6 h -1 C 2.22386,6 2,6.22386 2,6.5 V 20 c 0,1.1 0.9,2 2,2 h 13.5 c 0.2761,0 0.5,-0.2239 0.5,-0.5 v -1 C 18,20.2239 17.7761,20 17.5,20 H 5 C 4.44772,20 4,19.5523 4,19 Z M 20,2 H 8 C 6.9,2 6,2.9 6,4 v 12 c 0,1.1 0.9,2 2,2 h 12 c 1.1,0 2,-0.9 2,-2 V 4 C 22,2.9 21.1,2 20,2 Z M 17,4 V 9 L 16,8.25 15,9 V 4 Z m 3,12 H 8 V 4 h 5 v 8 c 0,0.412 0.4704,0.6472 0.8,0.4 L 16,10.75 18.2,12.4 C 18.5296,12.6472 19,12.412 19,12 V 4 h 1 z"
         fill="url(#paint0_linear)"
         id="path1"
         style="fill:url(#paint0_linear-5)" /></g></g><defs
     id="defs1"><linearGradient
       id="paint0_linear-5"
       x1="12"
       y1="2"
       x2="12"
       y2="22"
       gradientUnits="userSpaceOnUse"><stop
         stop-color="#BAFA52"
         id="stop1" /><stop
         offset="1"
         stop-color="#3F8F5B"
         id="stop2" /></linearGradient><linearGradient
       inkscape:collect="always"
       xlink:href="#paint0_linear-5"
       id="linearGradient2"
       gradientUnits="userSpaceOnUse"
       x1="32.000015"
       y1="5.000001"
       x2="32.000015"
       y2="58.999977" /></defs><metadata
     id="metadata1"><rdf:RDF><cc:Work
         rdf:about=""><dc:title>folder-library_bookmarkorga-alt</dc:title><dc:date>26-07-2025</dc:date><dc:description>Beautyline style library folder icon. Bookmarks-organize style.</dc:description><cc:license
           rdf:resource="http://creativecommons.org/licenses/by-nc-sa/4.0/" /></cc:Work><cc:License
         rdf:about="http://creativecommons.org/licenses/by-nc-sa/4.0/"><cc:permits
           rdf:resource="http://creativecommons.org/ns#Reproduction" /><cc:permits
           rdf:resource="http://creativecommons.org/ns#Distribution" /><cc:requires
           rdf:resource="http://creativecommons.org/ns#Notice" /><cc:requires
           rdf:resource="http://creativecommons.org/ns#Attribution" /><cc:prohibits
           rdf:resource="http://creativecommons.org/ns#CommercialUse" /><cc:permits
           rdf:resource="http://creativecommons.org/ns#DerivativeWorks" /><cc:requires
           rdf:resource="http://creativecommons.org/ns#ShareAlike" /></cc:License></rdf:RDF></metadata></svg>
