<?xml version="1.0" encoding="UTF-8" standalone="no"?>
<svg
   width="48"
   height="48"
   viewBox="0 0 48 48"
   fill="none"
   version="1.1"
   id="svg2"
   sodipodi:docname="folder-cyan.svg"
   inkscape:version="1.4.2 (ebf0e940d0, 2025-05-08)"
   xmlns:inkscape="http://www.inkscape.org/namespaces/inkscape"
   xmlns:sodipodi="http://sodipodi.sourceforge.net/DTD/sodipodi-0.dtd"
   xmlns="http://www.w3.org/2000/svg"
   xmlns:svg="http://www.w3.org/2000/svg"
   xmlns:rdf="http://www.w3.org/1999/02/22-rdf-syntax-ns#"
   xmlns:cc="http://creativecommons.org/ns#"
   xmlns:dc="http://purl.org/dc/elements/1.1/">
  <title
     id="title2">folder-cyan</title>
  <sodipodi:namedview
     id="namedview2"
     pagecolor="#3f4354"
     bordercolor="#000000"
     borderopacity="0.5"
     inkscape:showpageshadow="0"
     inkscape:pageopacity="0"
     inkscape:pagecheckerboard="1"
     inkscape:deskcolor="#2b2f40"
     inkscape:zoom="15.229167"
     inkscape:cx="24"
     inkscape:cy="24"
     inkscape:window-width="1920"
     inkscape:window-height="1048"
     inkscape:window-x="0"
     inkscape:window-y="0"
     inkscape:window-maximized="1"
     inkscape:current-layer="svg2" />
  <path
     d="M0 4.96005C0 2.25074 2.67873 2.25027 5.20095 2.2503C9.05595 2.26134 12.9109 2.23923 16.7659 2.25764C17.5707 2.2245 18.2827 2.74729 18.8193 3.36948C19.9756 4.7235 21.1737 6.18761 22.3648 7.54106C22.6549 7.87069 23.074 8.05646 23.5131 8.05646C30.4325 8.05646 37.1796 8.05646 44.0258 8.05646C46.8386 8.05646 48 9.99195 48 12.702C48 21.6638 48 30.702 47.9993 39.6049C48 41.3471 47.9993 40.4602 47.9993 41.7341C47.9993 45.6056 45.2903 45.6052 44.0981 45.6052C42.9056 45.6052 16.2581 45.5861 2.54155 45.5865C1.35485 45.5861 3.87623e-06 44.6374 3.87623e-06 43.2825C3.87623e-06 37.4762 1.05142e-08 30.8955 7.75245e-06 25.0891C3.88147e-06 23.9278 3.87623e-06 22.1859 3.87623e-06 20.831C3.87623e-06 18.5085 1.90453 18.1213 3.06583 18.1213C12.3562 18.1213 24.7123 18.1402 34.0336 18.1213C35.2741 18.1188 36.0084 19.0887 36.0084 20.25C36.0084 21.4113 35.2342 22.3702 34.0073 22.3702C24.5222 22.3923 15.4209 22.3518 5.93576 22.3886C4.34944 22.3886 4.22715 23.6173 4.22715 24.702C4.22715 29.6099 4.22715 34.8353 4.23863 39.8029C4.24061 40.6567 4.93313 41.3471 5.78655 41.3471C18.4209 41.3471 30.7006 41.3471 43.1456 41.3471C43.7111 41.3471 44.109 40.9601 44.1135 40.1854C44.1653 31.3353 44.1195 22.6292 44.1139 13.863C44.1135 13.0078 43.4201 12.3145 42.5651 12.3146C35.7264 12.3149 28.8877 12.3148 22.049 12.3145C21.1184 12.355 20.3824 11.5095 19.7996 10.7916C18.8 9.56224 17.7305 8.30662 16.7081 7.07269C16.4125 6.71595 15.9741 6.50775 15.5108 6.50741C12.1364 6.50494 8.65234 6.50805 5.40386 6.50805C5.01679 6.50805 4.25805 6.50805 4.25805 7.26409C4.25805 8.8125 4.25805 9.18142 4.25805 11.1351C4.25805 13.8629 0 13.8629 0 11.1536C0 9.23629 0 6.89554 0 4.96005Z"
     fill="url(#paint0_linear_451_927)"
     id="path1" />
  <defs
     id="defs2">
    <linearGradient
       id="paint0_linear_451_927"
       x1="-4.01979e-07"
       y1="45.6052"
       x2="55.9035"
       y2="18.6289"
       gradientUnits="userSpaceOnUse">
      <stop
         stop-color="#0357D1"
         id="stop1"
         offset="0"
         style="stop-color:#078aa7;stop-opacity:1;" />
      <stop
         offset="1"
         stop-color="#27CDFC"
         id="stop2"
         style="stop-color:#00ffe0;stop-opacity:1;" />
    </linearGradient>
  </defs>
  <metadata
     id="metadata2">
    <rdf:RDF>
      <cc:Work
         rdf:about="">
        <dc:title>folder-cyan</dc:title>
        <dc:date>22-07-2025</dc:date>
        <dc:description>Beautyline style cyan folder icon</dc:description>
        <cc:license
           rdf:resource="http://creativecommons.org/licenses/by-nc-sa/4.0/" />
      </cc:Work>
      <cc:License
         rdf:about="http://creativecommons.org/licenses/by-nc-sa/4.0/">
        <cc:permits
           rdf:resource="http://creativecommons.org/ns#Reproduction" />
        <cc:permits
           rdf:resource="http://creativecommons.org/ns#Distribution" />
        <cc:requires
           rdf:resource="http://creativecommons.org/ns#Notice" />
        <cc:requires
           rdf:resource="http://creativecommons.org/ns#Attribution" />
        <cc:prohibits
           rdf:resource="http://creativecommons.org/ns#CommercialUse" />
        <cc:permits
           rdf:resource="http://creativecommons.org/ns#DerivativeWorks" />
        <cc:requires
           rdf:resource="http://creativecommons.org/ns#ShareAlike" />
      </cc:License>
    </rdf:RDF>
  </metadata>
</svg>
