<?xml version="1.0" encoding="UTF-8" standalone="no"?>
<svg
   width="48"
   height="48"
   viewBox="0 0 48 48"
   fill="none"
   version="2"
   id="svg1"
   sodipodi:docname="folder-debug_alt2.svg"
   inkscape:version="1.4.2 (ebf0e940d0, 2025-05-08)"
   xml:space="preserve"
   xmlns:inkscape="http://www.inkscape.org/namespaces/inkscape"
   xmlns:sodipodi="http://sodipodi.sourceforge.net/DTD/sodipodi-0.dtd"
   xmlns:xlink="http://www.w3.org/1999/xlink"
   xmlns="http://www.w3.org/2000/svg"
   xmlns:svg="http://www.w3.org/2000/svg"
   xmlns:rdf="http://www.w3.org/1999/02/22-rdf-syntax-ns#"
   xmlns:cc="http://creativecommons.org/ns#"
   xmlns:dc="http://purl.org/dc/elements/1.1/"><sodipodi:namedview
     id="namedview1"
     pagecolor="#3f4354"
     bordercolor="#000000"
     borderopacity="0.5"
     inkscape:showpageshadow="1"
     inkscape:pageopacity="0"
     inkscape:pagecheckerboard="1"
     inkscape:deskcolor="#2b2f40"
     showgrid="false"
     inkscape:zoom="17.6875"
     inkscape:cx="24"
     inkscape:cy="24"
     inkscape:window-width="1920"
     inkscape:window-height="1048"
     inkscape:window-x="0"
     inkscape:window-y="0"
     inkscape:window-maximized="1"
     inkscape:current-layer="g1" /><title
     id="title1">folder-</title><g
     id="g1"><g
       id="g11"
       transform="matrix(0.74999965,0,0,0.74999965,3.7743922e-7,1.908614e-5)"
       style="fill:url(#linearGradient3)"><path
         d="M 8.24717,5.28688 C 10.8404,4.80099 13.5052,5.09747 16.1297,5.01923 18.8839,5.09747 21.902,4.61569 24.37,6.03631 c 2.3518,1.37121 3.8988,3.59891 6.0002,5.24599 0.7735,0.5518 1.7751,0.7577 2.7453,0.7412 9.4028,0 18.8055,0.0124 28.2083,0.0659 1.6185,-0.1277 3.018,1.4165 2.6022,2.8577 -0.2281,1.1159 -1.404,1.9436 -2.6291,1.8695 C 51.7466,16.8289 42.1963,16.7836 32.646,16.7754 30.4597,16.763 28.2778,16.0177 26.6547,14.663 24.6696,13.1765 23.3506,10.8953 21.0033,9.87817 17.7483,9.63934 14.462,9.84523 11.1981,9.77522 8.9536,9.63934 6.7091,10.8252 5.75228,12.7029 c -0.65725,1.1901 -0.541,2.5572 -0.54994,3.846 0.02235,10.8503 -0.00895,21.7005 0.01341,32.5549 -0.03577,2.0342 1.4084,3.9777 3.4517,4.7354 1.21614,0.4777 2.56645,0.3871 3.85855,0.3953 13.5833,-0.0206 27.1665,0.0083 40.7453,-0.0165 2.1014,0.0083 4.1134,-1.2023 4.9898,-2.9524 0.7019,-1.3135 0.5007,-2.8124 0.5275,-4.2248 0.009,-6.0284 -0.0312,-12.0567 0.0179,-18.0851 -0.0357,-1.3548 1.3995,-2.4954 2.8481,-2.3183 1.4219,0.0865 2.486,1.3712 2.325,2.6601 0,6.7366 0.0313,13.4732 -0.0134,20.214 C 63.9036,54.498 59.1016,58.8917 53.696,58.974 39.384,59.0234 25.0675,58.9864 10.7555,58.9905 6.61521,59.0317 2.60462,56.6516 0.945834,53.1557 0.163389,51.6362 -0.0243975,49.9356 0.00242916,48.272 0.0381981,37.01 -0.0243977,25.7397 0.0337268,14.4777 0.114207,10.1664 3.70004,6.22985 8.24717,5.28688 Z"
         id="path111"
         style="fill:url(#linearGradient3);fill-opacity:1;stroke:url(#linearGradient3);stroke-width:0;stroke-dasharray:none" /></g><g
       id="g12"
       transform="matrix(6.4745951,0,0,6.4745951,10.308888,12.90255)"><path
         d="m 1.7576127,0.268515 c 0.2054361,-0.01261 0.411418,0.002048 0.617406,-0.00231 0.1254923,-0.015704 0.2338063,0.0875155 0.2651749,0.19484587 0.042011,0.11402721 0.042309,0.23911854 0.0892,0.3513437 0.081585,0.0640933 0.1770682,0.11067904 0.2687619,0.16112737 C 3.118726,0.93388524 3.2354877,0.88317474 3.3596253,0.85357811 3.4652093,0.82655091 3.5926149,0.86361771 3.647997,0.95627797 3.738291,1.0965582 3.8209808,1.2414708 3.9011953,1.387413 c 0.043365,0.091633 0.1031125,0.2053994 0.032443,0.2988342 -0.085935,0.1176312 -0.2253365,0.1881558 -0.3221904,0.29652 -0.022384,0.082104 -0.014207,0.1698802 -0.013645,0.2542957 0.082389,0.1464539 0.2755378,0.2100341 0.3481189,0.3647316 0.040117,0.070016 0.027281,0.1567651 -0.0169,0.2221335 C 3.8294149,2.9876465 3.7309475,3.1521205 3.6242675,3.3116857 3.5533221,3.4159375 3.4000062,3.4306004 3.290058,3.375779 3.1948361,3.33048 3.0704432,3.3230298 3.0054948,3.2342147 c -0.070646,-0.08879 0.015847,-0.232684 0.1328862,-0.2211001 0.090571,0.0085 0.1704904,0.054817 0.2539732,0.085458 C 3.4804824,2.9688523 3.5582624,2.8332085 3.6417455,2.700902 3.5115887,2.5781127 3.3203506,2.4795439 3.2905971,2.2926776 3.2813182,2.1675787 3.2829615,2.0409386 3.2971712,1.9166174 3.3487494,1.7521419 3.5211527,1.6692616 3.6395507,1.5526641 3.5642758,1.4175315 3.4821516,1.2862592 3.4084939,1.1503583 3.2243305,1.1946232 3.0330942,1.331817 2.8421148,1.2327237 2.6923284,1.1374874 2.4893318,1.0764851 2.4244032,0.90120126 2.3938544,0.79129281 2.3725641,0.67881378 2.3425758,0.56864739 2.1884211,0.56970018 2.0342781,0.57019706 1.8801324,0.56838713 1.8645836,0.68961999 1.8405771,0.81342604 1.7789146,0.92230511 1.7191706,1.0291239 1.6021275,1.0872941 1.4979082,1.1495837 1.4236961,1.1915394 1.348945,1.2437859 1.2591877,1.2479093 1.1066765,1.2574778 0.97381419,1.1673413 0.83167341,1.1364572 0.74819355,1.2654118 0.671526,1.3979681 0.58694916,1.5261499 c 0.089491,0.077987 0.18552088,0.1498042 0.26764035,0.2347445 0.0823973,0.08597 0.0971254,0.2066873 0.090573,0.3178811 -0.006282,0.1135043 0.0141891,0.2416975 -0.0662964,0.3377038 -0.0802137,0.099879 -0.19233826,0.1716664 -0.29001021,0.2555911 0.075024,0.1384662 0.16041996,0.2718058 0.23490093,0.4108068 0.15932739,-0.042979 0.31047267,-0.1492939 0.48371507,-0.115079 0.1023082,0.024977 0.1849747,0.091379 0.2755524,0.1392596 0.098489,0.050188 0.1931572,0.1230275 0.2245316,0.2288285 0.028376,0.1070729 0.055657,0.2146615 0.075304,0.3238014 0.155781,0.00127 0.3118369,0 0.4678867,5.263e-4 0.021823,-0.092405 0.00493,-0.2195509 0.1047664,-0.2743874 0.097672,-0.060238 0.2439114,0.024716 0.2305391,0.1343528 0,0.1727189 -0.049104,0.3999976 -0.2561871,0.4473645 -0.229442,0.00746 -0.4594284,-0.00463 -0.6891459,0.00155 C 1.698708,3.9395159 1.644685,3.9153108 1.6244963,3.8661565 1.5674774,3.7199433 1.5451046,3.564987 1.5069091,3.4138851 1.4166065,3.3580347 1.3260281,3.3019245 1.2308129,3.2537819 1.1080412,3.2965204 0.98772611,3.3467088 0.86059269,3.3776048 0.75228125,3.4028159 0.62978415,3.3554671 0.57630997,3.2622659 0.48791083,3.121218 0.40470439,2.9770889 0.32503878,2.8314114 0.27866001,2.7369387 0.23473628,2.6180212 0.3089371,2.5251147 0.40415956,2.4170089 0.53401617,2.3410904 0.6319605,2.2347727 0.6292408,2.1488033 0.64314041,2.0623151 0.63032283,1.9771179 0.52692598,1.8350363 0.32639832,1.7634813 0.27265333,1.5892263 0.24182442,1.5014498 0.29310943,1.4157421 0.33867957,1.3418694 0.4281612,1.2021054 0.51001132,1.0579648 0.60386501,0.92077273 0.6638899,0.83403045 0.78474605,0.79670992 0.88759914,0.83351831 c 0.11376686,0.04298 0.22780866,0.0841724 0.34294046,0.12329222 0.084301,-0.0519954 0.1751508,-0.0952366 0.2526332,-0.15649719 0.081846,-0.0890517 0.058111,-0.21775319 0.096585,-0.323543 0.029466,-0.0844233 0.070114,-0.19433177 0.1778805,-0.20823165 z"
         style="fill:url(#linearGradient1-6);stroke:url(#linearGradient1-6);stroke-width:0;stroke-dasharray:none"
         id="path1-5" /><path
         d="M 2.7874111,1.8524617 H 2.102924 m -0.6844987,0 H 2.102924 l -1.49e-5,1.5115975 M 2.3354683,1.0895803 C 2.3323858,0.97083183 2.5680635,0.6497553 2.7874321,0.63531468 M 1.8728291,1.0895803 C 1.8759114,0.97083183 1.6402338,0.6497553 1.4208651,0.63531468 M 2.8684092,2.771862 3.1713298,2.9742874 3.2749078,3.4052694 M 2.9245681,2.3053665 3.3061648,2.3101998 3.5575727,2.5298409 M 3.2567545,1.259344 3.1852826,1.6274578 2.7898718,1.8524617 M 1.3423485,2.771862 1.0394281,2.9742874 0.9358483,3.4052694 m 0.3503414,-1.0999029 -0.38159844,0.00483 -0.25140793,0.219641 m 0.3008184,-1.2704918 0.0714729,0.3681138 0.3954112,0.2250039 m 1.507689,0.5687487 A 0.82318681,0.94289934 0 0 1 2.1053939,3.3641096 0.82318681,0.94289934 0 0 1 1.282201,2.4212244 0.82318681,0.94289934 0 0 1 2.1053697,1.4783107 0.82318681,0.94289934 0 0 1 2.9285748,2.4211823 M 2.1053881,1.0198554 A 0.47865471,0.55327211 0 0 0 1.6267848,1.573264 0.47865471,0.55327211 0 0 0 1.6314682,1.650336 0.82318681,0.94289934 0 0 0 1.2822254,2.4212096 0.82318681,0.94289934 0 0 0 2.1053866,3.3640592 0.82318681,0.94289934 0 0 0 2.9285484,2.4212096 0.82318681,0.94289934 0 0 0 2.5793052,1.650336 0.47865471,0.55327211 0 0 0 2.583989,1.5732643 V 1.5731128 A 0.47865471,0.55327211 0 0 0 2.1053881,1.0198554 Z"
         style="fill:none;fill-rule:evenodd;stroke:url(#linearGradient2-0);stroke-width:0.292439;stroke-linecap:round;stroke-linejoin:round;stroke-dasharray:none;stroke-opacity:1;paint-order:stroke fill markers"
         id="path2-5" /></g></g><defs
     id="defs1"><linearGradient
       id="linearGradient1"
       x1="2.116667"
       y1="0.46661016"
       x2="2.116667"
       y2="3.7667234"
       gradientUnits="userSpaceOnUse"><stop
         stop-color="#9000FF"
         id="stop375"
         offset="0"
         style="stop-color:#dc3282;stop-opacity:1;" /><stop
         offset="1"
         stop-color="#FF37FF"
         id="stop376"
         style="stop-color:#fe7970;stop-opacity:1;" /></linearGradient><linearGradient
       id="linearGradient2"
       x1="1.7345124"
       y1="3.7635689"
       x2="2.7993906"
       y2="1.633813"
       gradientUnits="userSpaceOnUse"><stop
         stop-color="#5558FF"
         id="stop1-0" /><stop
         offset="1"
         stop-color="#00C0FF"
         id="stop2-2" /></linearGradient><linearGradient
       inkscape:collect="always"
       xlink:href="#linearGradient1"
       id="linearGradient3"
       gradientUnits="userSpaceOnUse"
       x1="32.000015"
       y1="5.000001"
       x2="32.000015"
       y2="58.999977" /><linearGradient
       id="linearGradient1-6"
       x1="0.19915949"
       y1="3.4989285"
       x2="4.0347276"
       y2="0.77723265"
       gradientUnits="userSpaceOnUse"><stop
         stop-color="#5558FF"
         id="stop1-0-3" /><stop
         offset="1"
         stop-color="#00C0FF"
         id="stop2-2-2" /></linearGradient><linearGradient
       id="linearGradient2-0"
       x1="2.1053779"
       y1="3.5514889"
       x2="2.1053779"
       y2="0.48909518"
       gradientUnits="userSpaceOnUse"><stop
         stop-color="#9000FF"
         id="stop375-6"
         offset="0"
         style="stop-color:#dc3282;stop-opacity:1;" /><stop
         offset="1"
         stop-color="#FF37FF"
         id="stop376-1"
         style="stop-color:#fe7970;stop-opacity:1;" /></linearGradient></defs><metadata
     id="metadata1"><rdf:RDF><cc:Work
         rdf:about=""><dc:title>folder-</dc:title><dc:date>26-07-2025</dc:date><dc:description>Beautyline style debug folder icon alt2</dc:description><cc:license
           rdf:resource="http://creativecommons.org/licenses/by-nc-sa/4.0/" /></cc:Work><cc:License
         rdf:about="http://creativecommons.org/licenses/by-nc-sa/4.0/"><cc:permits
           rdf:resource="http://creativecommons.org/ns#Reproduction" /><cc:permits
           rdf:resource="http://creativecommons.org/ns#Distribution" /><cc:requires
           rdf:resource="http://creativecommons.org/ns#Notice" /><cc:requires
           rdf:resource="http://creativecommons.org/ns#Attribution" /><cc:prohibits
           rdf:resource="http://creativecommons.org/ns#CommercialUse" /><cc:permits
           rdf:resource="http://creativecommons.org/ns#DerivativeWorks" /><cc:requires
           rdf:resource="http://creativecommons.org/ns#ShareAlike" /></cc:License></rdf:RDF></metadata></svg>
