<?xml version="1.0" encoding="UTF-8" standalone="no"?>
<svg
   width="48"
   height="48"
   viewBox="0 0 48 48"
   fill="none"
   version="2"
   id="svg1"
   sodipodi:docname="folder-log_applications-utilities-alt.svg"
   inkscape:version="1.4.2 (ebf0e940d0, 2025-05-08)"
   xml:space="preserve"
   xmlns:inkscape="http://www.inkscape.org/namespaces/inkscape"
   xmlns:sodipodi="http://sodipodi.sourceforge.net/DTD/sodipodi-0.dtd"
   xmlns:xlink="http://www.w3.org/1999/xlink"
   xmlns="http://www.w3.org/2000/svg"
   xmlns:svg="http://www.w3.org/2000/svg"
   xmlns:rdf="http://www.w3.org/1999/02/22-rdf-syntax-ns#"
   xmlns:cc="http://creativecommons.org/ns#"
   xmlns:dc="http://purl.org/dc/elements/1.1/"><title
     id="title1">folder-log_applications-utilities-alt</title><sodipodi:namedview
     id="namedview1"
     pagecolor="#3f4354"
     bordercolor="#000000"
     borderopacity="0.5"
     inkscape:showpageshadow="1"
     inkscape:pageopacity="0"
     inkscape:pagecheckerboard="1"
     inkscape:deskcolor="#2b2f40"
     showgrid="false"
     inkscape:zoom="17.6875"
     inkscape:cx="24"
     inkscape:cy="24"
     inkscape:window-width="1920"
     inkscape:window-height="1048"
     inkscape:window-x="0"
     inkscape:window-y="0"
     inkscape:window-maximized="1"
     inkscape:current-layer="g11" /><g
     id="g1"><g
       id="g11"
       transform="matrix(0.74999965,0,0,0.74999965,3.7743922e-7,1.908614e-5)"
       style="fill:url(#linearGradient3)"><path
         d="M 8.24717,5.28688 C 10.8404,4.80099 13.5052,5.09747 16.1297,5.01923 18.8839,5.09747 21.902,4.61569 24.37,6.03631 c 2.3518,1.37121 3.8988,3.59891 6.0002,5.24599 0.7735,0.5518 1.7751,0.7577 2.7453,0.7412 9.4028,0 18.8055,0.0124 28.2083,0.0659 1.6185,-0.1277 3.018,1.4165 2.6022,2.8577 -0.2281,1.1159 -1.404,1.9436 -2.6291,1.8695 C 51.7466,16.8289 42.1963,16.7836 32.646,16.7754 30.4597,16.763 28.2778,16.0177 26.6547,14.663 24.6696,13.1765 23.3506,10.8953 21.0033,9.87817 17.7483,9.63934 14.462,9.84523 11.1981,9.77522 8.9536,9.63934 6.7091,10.8252 5.75228,12.7029 c -0.65725,1.1901 -0.541,2.5572 -0.54994,3.846 0.02235,10.8503 -0.00895,21.7005 0.01341,32.5549 -0.03577,2.0342 1.4084,3.9777 3.4517,4.7354 1.21614,0.4777 2.56645,0.3871 3.85855,0.3953 13.5833,-0.0206 27.1665,0.0083 40.7453,-0.0165 2.1014,0.0083 4.1134,-1.2023 4.9898,-2.9524 0.7019,-1.3135 0.5007,-2.8124 0.5275,-4.2248 0.009,-6.0284 -0.0312,-12.0567 0.0179,-18.0851 -0.0357,-1.3548 1.3995,-2.4954 2.8481,-2.3183 1.4219,0.0865 2.486,1.3712 2.325,2.6601 0,6.7366 0.0313,13.4732 -0.0134,20.214 C 63.9036,54.498 59.1016,58.8917 53.696,58.974 39.384,59.0234 25.0675,58.9864 10.7555,58.9905 6.61521,59.0317 2.60462,56.6516 0.945834,53.1557 0.163389,51.6362 -0.0243975,49.9356 0.00242916,48.272 0.0381981,37.01 -0.0243977,25.7397 0.0337268,14.4777 0.114207,10.1664 3.70004,6.22985 8.24717,5.28688 Z"
         id="path111"
         style="fill:url(#linearGradient2);fill-opacity:1;stroke:url(#linearGradient30);stroke-width:0;stroke-dasharray:none" /></g><g
       style="fill:none"
       id="g12"
       transform="matrix(0.18644068,0,0,0.18644068,12.081244,14.610584)"><path
         d="m 42.5632,67.0703 c -1.5139,-0.5565 -3.2512,0.1156 -3.8603,1.4992 l -7.4651,16.8986 c -0.609,1.3784 0.1334,2.9434 1.656,3.4948 1.4934,0.5452 3.2446,-0.1025 3.8602,-1.4993 L 44.2191,70.565 c 0.609,-1.3785 -0.1335,-2.9433 -1.6559,-3.4947 z m 7.4042,-0.5961 c -1.1601,-1.0503 -3.0396,-1.0503 -4.1996,0 -1.16,1.0502 -1.16,2.7518 0,3.8019 l 9.4199,8.5281 c 1.1602,1.0502 3.0395,1.0502 4.1995,0 1.1601,-1.0502 1.1601,-2.7518 0,-3.802 z M 95.9359,53.2831 85.2457,40.3753 c -0.986,-1.1919 -2.8481,-1.4309 -4.156,-0.5382 -0.661,0.4479 -1.0564,1.0973 -1.1612,1.7833 -0.3132,-0.6309 -0.8925,-1.1531 -1.6637,-1.4157 -1.5459,-0.5198 -3.2482,0.1812 -3.8253,1.5726 L 60.791,74.7241 c -0.5742,1.3916 0.2029,2.9406 1.7371,3.4631 1.5606,0.5224 3.2567,-0.1988 3.8253,-1.5727 L 80.002,43.6679 c 0.0791,-0.1922 0.1302,-0.3872 0.1596,-0.582 0.0887,0.1781 0.1982,0.3509 0.3334,0.5138 l 10.6904,12.9076 c 0.9802,1.1879 2.8413,1.4309 4.1559,0.5382 1.3139,-0.8901 1.5809,-2.5757 0.5946,-3.7624 z"
         fill="url(#paint0_linear_618_20)"
         id="path1"
         style="fill:url(#paint0_linear_618_20)" /><path
         d="m 31.7889,99.5259 c 4.9129,0 8.9095,-3.6183 8.9095,-8.066 0,-4.4478 -3.9966,-8.0659 -8.9095,-8.0659 -4.9129,0 -8.9095,3.6181 -8.9095,8.0659 0,4.4477 3.9966,8.066 8.9095,8.066 z M 43.6682,72.6392 c 4.9129,0 8.9095,-3.6181 8.9095,-8.0659 0,-4.4478 -3.9966,-8.066 -8.9095,-8.066 -4.9129,0 -8.9095,3.6182 -8.9095,8.066 0,4.4478 3.9966,8.0659 8.9095,8.0659 z m 17.819,16.1321 c 4.9129,0 8.9094,-3.6183 8.9094,-8.0661 0,-4.4477 -3.9965,-8.066 -8.9094,-8.066 -4.913,0 -8.9095,3.6183 -8.9095,8.066 0,4.4478 3.9965,8.0661 8.9095,8.0661 z M 79.3061,45.7526 c 4.9129,0 8.9095,-3.6181 8.9095,-8.0659 0,-4.4477 -3.9966,-8.066 -8.9095,-8.066 -4.9129,0 -8.9095,3.6183 -8.9095,8.066 0,4.4478 3.9966,8.0659 8.9095,8.0659 z m 17.819,21.5093 c 4.9129,0 8.9099,-3.6182 8.9099,-8.0659 0,-4.4478 -3.997,-8.066 -8.9099,-8.066 -4.9129,0 -8.9095,3.6182 -8.9095,8.066 0,4.4477 3.9966,8.0659 8.9095,8.0659 z"
         fill="url(#paint1_linear_618_20)"
         id="path2"
         style="fill:url(#paint1_linear_618_20)" /><path
         d="M 110.603,15 H 17.3966 C 13.8638,15 11,17.8638 11,21.3966 v 85.8964 c 0,3.533 2.8638,6.397 6.3966,6.397 h 93.2064 c 3.533,0 6.397,-2.864 6.397,-6.397 V 21.3966 C 117,17.8638 114.136,15 110.603,15 Z"
         stroke="url(#paint2_linear_618_20)"
         stroke-width="12"
         stroke-linecap="round"
         id="path3"
         style="stroke:url(#paint2_linear_618_20)" /></g></g><defs
     id="defs1"><linearGradient
       id="paint0_linear_618_20"
       x1="63.778"
       y1="89.1555"
       x2="63.778"
       y2="39.2974"
       gradientUnits="userSpaceOnUse"><stop
         stop-color="#FFBEF9"
         id="stop3" /><stop
         offset="1"
         stop-color="#FFF1FF"
         id="stop4" /></linearGradient><linearGradient
       id="paint1_linear_618_20"
       x1="55.3495"
       y1="115.837"
       x2="55.3495"
       y2="24.0641"
       gradientUnits="userSpaceOnUse"><stop
         stop-color="#9000FF"
         id="stop5" /><stop
         offset="1"
         stop-color="#FF0CFF"
         id="stop6" /></linearGradient><linearGradient
       id="paint2_linear_618_20"
       x1="64"
       y1="119.172"
       x2="64"
       y2="9.51724"
       gradientUnits="userSpaceOnUse"><stop
         stop-color="#9000FF"
         id="stop7" /><stop
         offset="1"
         stop-color="#FF00FF"
         id="stop8" /></linearGradient><linearGradient
       inkscape:collect="always"
       xlink:href="#paint2_linear_618_20"
       id="linearGradient2"
       gradientUnits="userSpaceOnUse"
       x1="32.000015"
       y1="58.999977"
       x2="32.000015"
       y2="5.000001" /></defs><metadata
     id="metadata1"><rdf:RDF><cc:Work
         rdf:about=""><dc:title>folder-log_applications-utilities-alt</dc:title><dc:date>26-07-2025</dc:date><dc:description>Beautyline style log folder icon. applications-utilities style alt</dc:description><cc:license
           rdf:resource="http://creativecommons.org/licenses/by-nc-sa/4.0/" /></cc:Work><cc:License
         rdf:about="http://creativecommons.org/licenses/by-nc-sa/4.0/"><cc:permits
           rdf:resource="http://creativecommons.org/ns#Reproduction" /><cc:permits
           rdf:resource="http://creativecommons.org/ns#Distribution" /><cc:requires
           rdf:resource="http://creativecommons.org/ns#Notice" /><cc:requires
           rdf:resource="http://creativecommons.org/ns#Attribution" /><cc:prohibits
           rdf:resource="http://creativecommons.org/ns#CommercialUse" /><cc:permits
           rdf:resource="http://creativecommons.org/ns#DerivativeWorks" /><cc:requires
           rdf:resource="http://creativecommons.org/ns#ShareAlike" /></cc:License></rdf:RDF></metadata></svg>
