<?xml version="1.0" encoding="UTF-8" standalone="no"?>
<!-- Created with Inkscape (http://www.inkscape.org/) -->

<svg
   width="48"
   height="48"
   viewBox="0 0 12.7 12.7"
   version="1.1"
   id="svg11654"
   inkscape:version="1.4.2 (ebf0e940d0, 2025-05-08)"
   sodipodi:docname="folder-electro.svg"
   xmlns:inkscape="http://www.inkscape.org/namespaces/inkscape"
   xmlns:sodipodi="http://sodipodi.sourceforge.net/DTD/sodipodi-0.dtd"
   xmlns:xlink="http://www.w3.org/1999/xlink"
   xmlns="http://www.w3.org/2000/svg"
   xmlns:svg="http://www.w3.org/2000/svg">
  <sodipodi:namedview
     id="namedview11656"
     pagecolor="#505050"
     bordercolor="#ffffff"
     borderopacity="1"
     inkscape:showpageshadow="0"
     inkscape:pageopacity="0"
     inkscape:pagecheckerboard="1"
     inkscape:deskcolor="#505050"
     inkscape:document-units="mm"
     showgrid="false"
     inkscape:zoom="12.080671"
     inkscape:cx="23.301685"
     inkscape:cy="24.295007"
     inkscape:window-width="1920"
     inkscape:window-height="1048"
     inkscape:window-x="0"
     inkscape:window-y="0"
     inkscape:window-maximized="1"
     inkscape:current-layer="layer1" />
  <defs
     id="defs11651">
    <linearGradient
       inkscape:collect="always"
       id="linearGradient38443">
      <stop
         style="stop-color:#fe0844;stop-opacity:1;"
         offset="0"
         id="stop38439" />
      <stop
         style="stop-color:#feb302;stop-opacity:1;"
         offset="1"
         id="stop38441" />
    </linearGradient>
    <linearGradient
       inkscape:collect="always"
       xlink:href="#linearGradient38443"
       id="linearGradient38445"
       x1="1.4404063e-08"
       y1="11.707791"
       x2="12.7"
       y2="0.99219376"
       gradientUnits="userSpaceOnUse" />
    <linearGradient
       inkscape:collect="always"
       xlink:href="#linearGradient38443"
       id="linearGradient38453"
       x1="3.1750019"
       y1="9.0427818"
       x2="8.9688091"
       y2="4.3029132"
       gradientUnits="userSpaceOnUse"
       gradientTransform="matrix(0.91666661,0,0,0.91666661,0.52916722,0.60220389)" />
    <linearGradient
       inkscape:collect="always"
       xlink:href="#linearGradient38443"
       id="linearGradient38461"
       x1="5.3371129"
       y1="8.5472088"
       x2="8.2749109"
       y2="6.075902"
       gradientUnits="userSpaceOnUse"
       gradientTransform="matrix(0.88312508,0,0,0.88312508,0.74215622,0.84458978)" />
  </defs>
  <g
     inkscape:label="Calque 1"
     inkscape:groupmode="layer"
     id="layer1">
    <g
       id="g34833">
      <g
         id="g1"
         transform="translate(0,-0.18721832)">
        <path
           d="m 6.0089372,7.6527699 h 0.6821286 c 0.047088,0 0.085266,-0.038177 0.085266,-0.085265 v -0.68213 c 0,-0.04709 -0.038178,-0.085265 -0.085266,-0.085265 H 6.0089372 c -0.047088,0 -0.085265,0.038177 -0.085265,0.085265 v 0.6821292 c 0,0.047089 0.038178,0.085265 0.085265,0.085266 z M 6.0942037,6.9706408 H 6.6058 V 7.4822377 H 6.0942034 Z m 1.2846761,0.1705321 h 0.3410645 c 0.047088,0 0.085265,-0.038178 0.085265,-0.085267 v -0.341064 c 0,-0.04709 -0.038178,-0.085265 -0.085265,-0.085265 H 7.3788799 c -0.047088,0 -0.085265,0.038178 -0.085265,0.085265 v 0.085266 H 7.1173966 V 6.5443101 c 0,-0.04709 -0.038178,-0.085265 -0.085266,-0.085265 H 6.7763319 V 6.2828273 h 0.085265 c 0.047088,0 0.085266,-0.038178 0.085266,-0.085267 V 5.8564967 c 0,-0.04709 -0.038178,-0.085267 -0.085266,-0.085267 H 6.5205335 c -0.047088,0 -0.085266,0.038178 -0.085266,0.085267 v 0.3410646 c 0,0.04709 0.038178,0.085266 0.085266,0.085266 h 0.085265 V 6.459044 H 6.0942031 V 6.2828272 h 0.085265 c 0.047088,0 0.085265,-0.038178 0.085265,-0.085266 v -0.341064 c 0,-0.04709 -0.038178,-0.085267 -0.085265,-0.085267 H 5.8384049 c -0.047088,0 -0.085265,0.038178 -0.085265,0.085267 v 0.3410646 c 0,0.04709 0.038178,0.085266 0.085265,0.085266 h 0.085265 v 0.1762169 h -0.255798 c -0.047088,0 -0.085265,0.038178 -0.085265,0.085266 V 6.8001085 H 5.4063893 v -0.085265 c 0,-0.04709 -0.038178,-0.085265 -0.085265,-0.085265 H 4.9800584 c -0.047088,0 -0.085265,0.038178 -0.085265,0.085265 v 0.3410644 c 0,0.04709 0.038178,0.085267 0.085265,0.085267 h 0.3410647 c 0.047088,0 0.085265,-0.038177 0.085265,-0.085267 v -0.085267 h 0.1762181 v 0.511597 H 5.4063893 V 7.396971 c 0,-0.04709 -0.038178,-0.085266 -0.085265,-0.085266 H 4.9800584 c -0.047088,0 -0.085265,0.038177 -0.085265,0.085266 v 0.3410644 c 0,0.047088 0.038178,0.085265 0.085265,0.085265 h 0.3410647 c 0.047088,0 0.085265,-0.038178 0.085265,-0.085265 V 7.6527684 H 5.5826053 V 7.908567 c 0,0.047089 0.038178,0.085265 0.085265,0.085265 h 0.255799 v 0.1762175 h -0.085265 c -0.047088,0 -0.085265,0.038178 -0.085265,0.085267 v 0.3410644 c 0,0.047088 0.038178,0.085266 0.085265,0.085266 H 6.179469 c 0.047088,0 0.085265,-0.038178 0.085265,-0.085266 V 8.255317 c 0,-0.047089 -0.038178,-0.085266 -0.085265,-0.085266 H 6.0942039 V 7.9938344 h 0.5115964 v 0.1762163 h -0.085265 c -0.047088,0 -0.085265,0.038178 -0.085265,0.085266 v 0.3410646 c 0,0.047089 0.038178,0.085265 0.085265,0.085265 H 6.8616 c 0.047088,0 0.085266,-0.038178 0.085266,-0.085265 V 8.255317 C 6.946866,8.208228 6.908688,8.170051 6.8616,8.170051 H 6.7763319 V 7.9938344 h 0.2557985 c 0.047088,0 0.085265,-0.038177 0.085265,-0.085265 V 7.6527699 h 0.1762173 v 0.085267 c 0,0.047088 0.038178,0.085265 0.085265,0.085265 h 0.3410644 c 0.047088,0 0.085265,-0.038178 0.085265,-0.085265 v -0.341065 c 0,-0.04709 -0.038178,-0.085267 -0.085265,-0.085267 h -0.341063 c -0.047088,0 -0.085265,0.038178 -0.085265,0.085267 v 0.085267 H 7.1173966 V 6.9706406 h 0.1762172 v 0.085265 c 0,0.04709 0.038178,0.085266 0.085266,0.085267 z M 7.4641457,6.8001085 H 7.6346781 V 6.9706408 H 7.4641454 Z M 5.2358569,6.9706408 H 5.0653247 V 6.8001085 h 0.1705322 z m 0,0.6821291 H 5.0653247 V 7.4822377 H 5.2358569 Z M 6.6057996,5.9417629 H 6.7763319 V 6.1122951 H 6.6057996 Z m -0.6821286,0 H 6.0942034 V 6.1122951 H 5.923671 Z M 6.0942034,8.5111155 H 5.923671 V 8.3405832 h 0.1705324 z m 0.6821285,0 H 6.6057996 V 8.3405832 H 6.7763319 Z M 6.9468644,7.8233023 H 5.7531387 V 6.6295761 H 6.9468644 Z M 7.4641454,7.4822377 H 7.6346781 V 7.6527699 H 7.4641454 Z"
           id="path2-3"
           style="fill:url(#linearGradient38461);fill-opacity:1;stroke-width:0.883125" />
        <path
           d="m 5.7861832,4.3242621 c 0.3225995,-0.019804 0.6460567,0.00323 0.9695235,-0.00365 0.1970633,-0.024656 0.3671508,0.1374248 0.4164088,0.30597 0.065969,0.1790578 0.066438,0.3754925 0.1400759,0.5517212 0.1281205,0.1006424 0.2780546,0.1738015 0.4220419,0.253022 0.189334,-0.062245 0.3726903,-0.1418705 0.5676259,-0.1883501 0.1657992,-0.042442 0.365868,0.015767 0.4528361,0.1612708 0.1417973,0.2202834 0.2716392,0.447843 0.3976012,0.6770186 0.068097,0.143889 0.1619181,0.3225424 0.050948,0.4692647 C 9.0683027,6.7352492 8.8493942,6.8459946 8.6973014,7.0161611 8.6621564,7.1450957 8.6749897,7.2829266 8.675866,7.4154875 8.8052389,7.6454648 9.1085485,7.7453058 9.2225244,7.9882316 9.2855214,8.0981819 9.2653676,8.2344016 9.1959869,8.3370507 9.039573,8.5941501 8.8849453,8.852426 8.7174243,9.1029955 8.6060148,9.2667037 8.3652633,9.2897294 8.1926098,9.2036477 8.0430832,9.1325113 7.8477408,9.1208111 7.7457508,8.9813459 7.6348108,8.8419115 7.7706309,8.615959 7.9544247,8.6341487 8.0966601,8.6474771 8.2221521,8.720231 8.3532464,8.7683413 8.4916318,8.5646345 8.6137757,8.35163 8.7448696,8.143867 8.5404832,7.9510493 8.2401779,7.7962648 8.1934548,7.5028256 8.178902,7.3063793 8.1814672,7.1075148 8.2037503,6.9122915 8.2847415,6.6540123 8.5554733,6.5238633 8.7413957,6.3407673 8.6231951,6.128568 8.4942292,5.9224276 8.3785634,5.7090207 8.0893681,5.7785381 7.7890626,5.9939697 7.4891643,5.8383586 7.2539522,5.6888059 6.9351832,5.5930148 6.8332245,5.3177627 6.7852496,5.1451719 6.7518266,4.9685441 6.7047281,4.7955473 6.4626562,4.7971575 6.2206031,4.7979673 5.9785439,4.7951515 5.9541239,4.9855266 5.9164233,5.1799419 5.8196014,5.3509165 5.7257787,5.5186553 5.5419881,5.6100007 5.3783316,5.7078165 5.2617995,5.7736992 5.1444121,5.8557499 5.0034632,5.8622179 4.7639734,5.8771778 4.5553369,5.735707 4.3321297,5.6872026 4.2010318,5.8897019 4.0806474,6.0978578 3.9478355,6.2991433 4.0883586,6.4216134 4.2391621,6.5343845 4.3681156,6.6677687 4.4974976,6.8027661 4.5206343,6.9923332 4.5103511,7.1669426 4.5005061,7.345181 4.5326334,7.5464845 4.4062453,7.6972446 4.2802935,7.8540879 4.1042125,7.9668152 3.9508364,8.0986051 4.0686519,8.3160403 4.2027474,8.5254253 4.3197056,8.7437027 4.5699015,8.6762159 4.8072477,8.5092636 5.0792939,8.5629914 c 0.160655,0.039219 0.2904692,0.1434893 0.432704,0.2186827 0.1546599,0.078811 0.3033192,0.1931922 0.3525867,0.3593339 0.044554,0.1681384 0.087397,0.3370874 0.1182445,0.5084713 0.2446256,0.00204 0.4896829,0 0.7347307,8.182e-4 0.034269,-0.1451137 0.00774,-0.3447637 0.164516,-0.4308766 0.1533766,-0.0946 0.3830176,0.038813 0.3620188,0.2109769 0,0.2712239 -0.077109,0.6281242 -0.4022949,0.7025052 -0.3602977,0.0117 -0.7214493,-0.0072 -1.0821785,0.0025 C 5.6936451,10.088847 5.6088173,10.050845 5.5771158,9.973656 5.487575,9.7440841 5.4524464,9.500753 5.3924669,9.2634752 5.2506603,9.175771 5.1084255,9.0876614 4.9589082,9.0120631 4.7661164,9.0791749 4.5771832,9.1579867 4.3775441,9.2065035 4.2074598,9.2460966 4.0150997,9.1717463 3.9311295,9.0253857 3.7923214,8.8038949 3.6616531,8.5775677 3.5365539,8.3488073 3.4637248,8.2004497 3.3947475,8.0137157 3.5112768,7.8678232 3.6607978,7.6980624 3.8647213,7.5788462 4.0185258,7.4118935 4.0142425,7.2768895 4.0360913,7.1410808 4.0159579,7.0072942 3.8535908,6.7841807 3.5386998,6.6718159 3.454302,6.3981799 3.4058912,6.2603494 3.4864341,6.1257545 3.557979,6.0097517 3.6984999,5.7902762 3.8270246,5.5639307 3.9744048,5.3484955 4.0686552,5.2122845 4.2584457,5.1536779 4.4199586,5.2114764 4.5986078,5.278976 4.7776899,5.3436467 4.958483,5.4050836 5.0908643,5.3234381 5.2335269,5.2555334 5.3551985,5.1593346 5.4837224,5.0194881 5.4464544,4.8173915 5.506859,4.651269 5.553125,4.5186952 5.6169599,4.3461053 5.7861876,4.3242786 Z"
           id="path2"
           style="fill:url(#linearGradient38453);fill-opacity:1;stroke-width:0;stroke-dasharray:none" />
      </g>
      <path
         d="M 1.6365484,1.0491213 C 2.1511421,0.9527025 2.679938,1.0115353 3.2007369,0.9960094 3.7472732,1.0115352 4.346177,0.915932 4.8359203,1.1978361 c 0.466685,0.2720995 0.773668,0.7141585 1.190664,1.0410007 0.153491,0.1094977 0.352246,0.150356 0.54477,0.1470818 1.865867,0 3.7317147,0.00246 5.5975817,0.013076 0.321171,-0.025339 0.598884,0.2810865 0.516374,0.5670745 -0.04526,0.2214363 -0.278606,0.3856829 -0.521712,0.3709787 -1.895137,0.00243 -3.7902727,-0.00655 -5.6854097,-0.00818 C 6.0443443,3.3264113 5.6113743,3.1785159 5.2892903,2.9096927 4.8953723,2.6147156 4.6336334,2.1620402 4.1678414,1.9602037 3.5219277,1.9128108 2.8698029,1.9536685 2.2221232,1.9397753 1.7767305,1.9128116 1.3313378,2.1481305 1.1414689,2.5207364 1.0110459,2.7568968 1.0341143,3.0281805 1.0323403,3.2839266 c 0.00444,2.1531052 -0.00176,4.3061905 0.00266,6.4601092 -0.0071,0.4036612 0.2794792,0.7893242 0.6849463,0.9396802 0.2413276,0.09479 0.5092796,0.07681 0.7656805,0.07844 2.6954342,-0.0041 5.3908492,0.0016 8.0853909,-0.0033 0.416996,0.0016 0.816252,-0.238581 0.990163,-0.585867 0.139283,-0.2606471 0.09936,-0.5580849 0.104675,-0.8383578 0.0018,-1.19626 -0.0062,-2.3925 0.0036,-3.58876 -0.0071,-0.2688429 0.277713,-0.4951806 0.56517,-0.4600374 0.282158,0.017163 0.493315,0.2720974 0.461367,0.5278633 0,1.3367933 0.0062,2.6735866 -0.0027,4.0112133 -0.01242,0.9895076 -0.965319,1.8613826 -2.037992,1.8777136 -2.8400357,0.0098 -5.6809647,0.0025 -8.5210006,0.0033 C 1.312705,11.714124 0.51685403,11.241802 0.18768883,10.548084 0.03242253,10.246559 -0.00484127,9.909096 4.8202992e-4,9.5789756 0.00758003,7.3441738 -0.00484197,5.1077249 0.00669303,2.8729231 0.02266333,2.0174 0.73422673,1.2362412 1.6365473,1.0491208 Z"
         id="path10942"
         sodipodi:nodetypes="ccccccccccccccccccccccccccccccc"
         style="fill:url(#linearGradient38445);fill-opacity:1" />
    </g>
    <rect
       style="fill:none;fill-opacity:1;fill-rule:evenodd;stroke:#8d8d8d;stroke-width:1.03368;stroke-linejoin:round;stroke-dasharray:none;stroke-opacity:0;paint-order:fill markers stroke"
       id="rect1"
       width="11.677729"
       height="8.2858086"
       x="0.51113772"
       y="2.896323" />
  </g>
</svg>
