<?xml version="1.0" encoding="UTF-8" standalone="no"?>
<svg
   width="48"
   height="48"
   viewBox="0 0 48 48"
   fill="none"
   version="1.1"
   id="svg28"
   sodipodi:docname="folder-vm.svg"
   inkscape:version="1.4.2 (ebf0e940d0, 2025-05-08)"
   xml:space="preserve"
   xmlns:inkscape="http://www.inkscape.org/namespaces/inkscape"
   xmlns:sodipodi="http://sodipodi.sourceforge.net/DTD/sodipodi-0.dtd"
   xmlns:xlink="http://www.w3.org/1999/xlink"
   xmlns="http://www.w3.org/2000/svg"
   xmlns:svg="http://www.w3.org/2000/svg"
   xmlns:rdf="http://www.w3.org/1999/02/22-rdf-syntax-ns#"
   xmlns:cc="http://creativecommons.org/ns#"
   xmlns:dc="http://purl.org/dc/elements/1.1/"><title
     id="title1">folder-vm</title><sodipodi:namedview
     id="namedview30"
     pagecolor="#3f4354"
     bordercolor="#000000"
     borderopacity="0.5"
     inkscape:showpageshadow="2"
     inkscape:pageopacity="0.0"
     inkscape:pagecheckerboard="1"
     inkscape:deskcolor="#2b2f40"
     showgrid="false"
     inkscape:zoom="15.229167"
     inkscape:cx="24"
     inkscape:cy="24"
     inkscape:window-width="1920"
     inkscape:window-height="1048"
     inkscape:window-x="0"
     inkscape:window-y="0"
     inkscape:window-maximized="1"
     inkscape:current-layer="svg28" /><defs
     id="defs26"><linearGradient
       inkscape:collect="always"
       id="linearGradient3326"><stop
         style="stop-color:#dc3282;stop-opacity:1;"
         offset="0"
         id="stop3322" /><stop
         style="stop-color:#fe7970;stop-opacity:1;"
         offset="1"
         id="stop3324" /></linearGradient><linearGradient
       id="paint0_linear_647_62"
       x1="63.810398"
       y1="5.34233"
       x2="10.9272"
       y2="67.497002"
       gradientUnits="userSpaceOnUse"><stop
         stop-color="#FE7970"
         id="stop8" /><stop
         offset="1"
         stop-color="#DC3282"
         id="stop10" /></linearGradient><linearGradient
       id="paint1_linear_647_62"
       x1="44.195202"
       y1="22.788099"
       x2="18.5145"
       y2="46.892899"
       gradientUnits="userSpaceOnUse"
       gradientTransform="translate(-20)"><stop
         stop-color="#FE7970"
         id="stop13" /><stop
         offset="1"
         stop-color="#DC3282"
         id="stop15" /></linearGradient><linearGradient
       id="paint2_linear_647_62"
       x1="44.195202"
       y1="22.788099"
       x2="18.5145"
       y2="46.892899"
       gradientUnits="userSpaceOnUse"
       gradientTransform="translate(-20)"><stop
         stop-color="#FE7970"
         id="stop18" /><stop
         offset="1"
         stop-color="#DC3282"
         id="stop20" /></linearGradient><clipPath
       id="clip0_647_62"><rect
         width="64"
         height="64"
         fill="#ffffff"
         id="rect23"
         x="0"
         y="0" /></clipPath><linearGradient
       id="paint1_linear"
       x1="-394.95786"
       y1="-595.82025"
       x2="-1279.4076"
       y2="288.62952"
       gradientUnits="userSpaceOnUse"
       gradientTransform="matrix(0.02261293,0,0,0.02261293,21.853017,39.580003)"><stop
         stop-color="#FE7970"
         id="stop11" /><stop
         offset="1"
         stop-color="#DC3282"
         id="stop13-3" /></linearGradient><linearGradient
       inkscape:collect="always"
       xlink:href="#linearGradient3326"
       id="linearGradient3328"
       x1="18.493624"
       y1="49.092979"
       x2="45.493622"
       y2="22.092981"
       gradientUnits="userSpaceOnUse"
       gradientTransform="matrix(1.0864198,0,0,1.0864198,-2.758504,-3.1942243)" /></defs><g
     id="g1042"
     transform="matrix(1.35,0,0,1.35,-11.950893,-13.151148)" /><g
     id="g35474"
     transform="scale(0.75)"><g
       clip-path="url(#clip0_647_62)"
       id="g6"><path
         d="M 8.27138,5.27874 C 10.8465,4.80105 13.4931,5.10167 16.0995,5.01931 c 2.6823,0.09471 5.5838,-0.40768 8.0292,0.8936 2.4946,1.34246 4.0727,3.67736 6.241,5.37809 0.7779,0.523 1.7525,0.7618 2.7137,0.733 9.2408,0 18.4816,0 27.7224,0.0371 1.2562,-0.1359 2.6689,0.4365 3.04,1.6224 0.6438,1.5196 -0.8271,3.2821 -2.5751,3.1421 -9.5269,0.0082 -19.0583,-0.033 -28.5852,-0.0495 -2.3069,0.0042 -4.6048,-0.8236 -6.2678,-2.3019 -1.4485,-1.2889 -2.7674,-2.6973 -4.2158,-3.978 C 21.5402,9.91559 20.6014,9.73028 19.7117,9.77146 16.6404,9.79617 13.5646,9.75087 10.4933,9.79205 7.60526,9.85794 5.11512,12.2917 5.20006,14.9519 c 0,11.3862 -0.00894,22.7724 -0.00447,34.1628 -0.07153,2.7261 2.58849,5.1763 5.55251,5.1145 14.163,0.0082 28.3259,0.0082 42.4889,-0.0041 2.964,0.0535 5.6285,-2.4132 5.5301,-5.1516 0.009,-6.4447 0.0045,-12.8852 -0.0044,-19.3298 0.0134,-0.7536 -0.0134,-1.5978 0.5588,-2.2073 0.9254,-1.1612 3.0132,-1.2271 4.0102,-0.1112 0.6527,0.6095 0.6527,1.5113 0.6482,2.3102 -0.0313,6.6053 0.0224,13.2105 -0.0268,19.8158 -0.085,4.9786 -4.8864,9.3437 -10.2735,9.426 -14.3105,0.0371 -28.621,0.0206 -42.9315,0.0083 C 6.61278,59.0266 2.60262,56.6506 0.948489,53.1544 0.157187,51.6307 -0.012696,49.9177 7.1586e-4,48.254 0.0364809,36.9954 -0.0350494,25.7369 0.0275394,14.4824 0.112481,10.1585 3.70687,6.21352 8.27138,5.27874 Z"
         fill="url(#paint0_linear_647_62)"
         id="path2"
         style="fill:url(#paint0_linear_647_62)" /></g><path
       inkscape:connector-curvature="0"
       style="fill:url(#linearGradient3328);fill-opacity:1;stroke-width:3.66667;stroke-linecap:square"
       id="rect4153"
       d="M 17.333333,20.808026 V 50.14136 H 46.666667 V 20.808026 Z m 1.833334,1.833334 h 25.666666 v 3.666666 H 19.166667 Z m 0,5.5 H 21 v 3.666666 h -1.833333 z m 3.666666,0 h 1.833334 v 3.666666 h -1.833334 z m 3.666667,0 h 1.833333 v 3.666666 H 26.5 Z m 3.666667,0 H 32 v 3.666666 h -1.833333 z m 3.666666,0 h 1.833334 v 3.666666 h -1.833334 z m 3.666667,0 h 1.833333 v 3.666666 H 37.5 Z m 3.666667,0 h 3.666666 v 1.833333 h -3.666666 z m -22,5.5 h 25.666666 v 3.666666 H 19.166667 Z m 0,5.5 H 21 v 3.666666 h -1.833333 z m 3.666666,0 h 1.833334 v 3.666666 h -1.833334 z m 3.666667,0 h 1.833333 v 3.666666 H 26.5 Z m 3.666667,0 H 32 v 3.666666 h -1.833333 z m 3.666666,0 h 1.833334 v 3.666666 h -1.833334 z m 3.666667,0 h 1.833333 v 3.666666 H 37.5 Z m 3.666667,0 h 3.666666 v 1.833333 h -3.666666 z m -22,5.5 h 22 3.666666 v 3.666666 H 19.166667 Z" /></g><metadata
     id="metadata1"><rdf:RDF><cc:Work
         rdf:about=""><dc:title>folder-vm</dc:title><dc:date>22-07-2025</dc:date><dc:description>Beautyline style VM folder icon</dc:description><cc:license
           rdf:resource="http://creativecommons.org/licenses/by-nc-sa/4.0/" /></cc:Work><cc:License
         rdf:about="http://creativecommons.org/licenses/by-nc-sa/4.0/"><cc:permits
           rdf:resource="http://creativecommons.org/ns#Reproduction" /><cc:permits
           rdf:resource="http://creativecommons.org/ns#Distribution" /><cc:requires
           rdf:resource="http://creativecommons.org/ns#Notice" /><cc:requires
           rdf:resource="http://creativecommons.org/ns#Attribution" /><cc:prohibits
           rdf:resource="http://creativecommons.org/ns#CommercialUse" /><cc:permits
           rdf:resource="http://creativecommons.org/ns#DerivativeWorks" /><cc:requires
           rdf:resource="http://creativecommons.org/ns#ShareAlike" /></cc:License></rdf:RDF></metadata></svg>
