<?xml version="1.0" encoding="UTF-8" standalone="no"?>
<svg
   width="48"
   height="48"
   viewBox="0 0 48 48"
   fill="none"
   version="2"
   id="svg1"
   sodipodi:docname="folder-git.svg"
   inkscape:version="1.4.2 (ebf0e940d0, 2025-05-08)"
   xml:space="preserve"
   xmlns:inkscape="http://www.inkscape.org/namespaces/inkscape"
   xmlns:sodipodi="http://sodipodi.sourceforge.net/DTD/sodipodi-0.dtd"
   xmlns:xlink="http://www.w3.org/1999/xlink"
   xmlns="http://www.w3.org/2000/svg"
   xmlns:svg="http://www.w3.org/2000/svg"
   xmlns:rdf="http://www.w3.org/1999/02/22-rdf-syntax-ns#"
   xmlns:cc="http://creativecommons.org/ns#"
   xmlns:dc="http://purl.org/dc/elements/1.1/"><title
     id="title1">folder-git</title><sodipodi:namedview
     id="namedview1"
     pagecolor="#3f4354"
     bordercolor="#000000"
     borderopacity="0.5"
     inkscape:showpageshadow="1"
     inkscape:pageopacity="0"
     inkscape:pagecheckerboard="1"
     inkscape:deskcolor="#2b2f40"
     showgrid="false"
     inkscape:zoom="15.229167"
     inkscape:cx="24"
     inkscape:cy="24"
     inkscape:window-width="1920"
     inkscape:window-height="1048"
     inkscape:window-x="0"
     inkscape:window-y="0"
     inkscape:window-maximized="1"
     inkscape:current-layer="g11" /><g
     id="g1"><g
       style="fill:none"
       id="g12"
       transform="matrix(1.5714287,0,0,1.5714287,11.307426,14.035679)"><path
         opacity="0.4"
         d="M 3.55555,1.00076 C 3.55454,0.999745 3.55291,0.999751 3.5519,1.00076 L 3.22375,1.32982 C 3.04203,1.51204 3.04213,1.80698 3.22398,1.98909 L 3.84312,2.60908 C 4.05618,2.82244 4.08089,3.15363 3.97485,3.43589 3.87699,3.69639 3.82597,3.9736 3.82564,4.25466 c 6e-5,0.53838 0.18609,1.06021 0.52661,1.47722 0.23014,0.28183 0.52129,0.50408 0.8487,0.6518 0.27567,0.12437 0.49345,0.37669 0.49345,0.67911 v 2.79678 c 0,0.30243 -0.21778,0.55473 -0.49345,0.67913 -0.32686,0.1474 -0.61758,0.3692 -0.84754,0.6503 -0.34046,0.4163 -0.52687,0.9373 -0.52777,1.475 0,0.6196 0.24611,1.2138 0.68418,1.6518 0.21692,0.2169 0.47443,0.389 0.75784,0.5064 C 5.55107,14.9396 5.85483,15 6.16159,15 6.7811,15 7.37526,14.7539 7.81336,14.3158 8.25141,13.8778 8.49751,13.2836 8.49751,12.664 8.49744,12.1256 8.31142,11.6039 7.97094,11.1868 7.74081,10.905 7.44965,10.6828 7.12222,10.535 6.84659,10.4106 6.62878,10.1584 6.62878,9.85594 V 6.98337 C 6.62878,6.72526 6.8142,6.50923 7.0531,6.4117 7.28966,6.31515 7.57,6.3383 7.75068,6.51896 l 0.76433,0.76435 c 0.21307,0.21307 0.23814,0.54401 0.1325,0.82625 -0.0975,0.26062 -0.14816,0.53784 -0.14816,0.81881 0,0.61955 0.2461,1.21373 0.68421,1.65173 0.43804,0.4381 1.03224,0.6842 1.65174,0.6842 0.6196,0 1.2137,-0.2461 1.6517,-0.6842 0.4382,-0.438 0.6843,-1.03218 0.6843,-1.65173 0,-0.61954 -0.2461,-1.2137 -0.6843,-1.65174 C 12.049,6.83852 11.4549,6.59242 10.8353,6.59242 10.5493,6.59277 10.2674,6.64561 10.003,6.74681 9.71916,6.85545 9.38486,6.83165 9.17013,6.61667 L 8.47542,5.92113 C 8.26121,5.70658 8.23747,5.37307 8.34559,5.08981 8.44672,4.82507 8.49935,4.54276 8.49935,4.25648 8.49935,3.94972 8.43896,3.64596 8.32154,3.36255 8.20418,3.07914 8.0321,2.82163 7.81514,2.60471 7.59826,2.3878 7.34076,2.21574 7.05737,2.09834 6.77391,1.98095 6.47017,1.92053 6.16341,1.92053 5.87792,1.9211 5.5965,1.97398 5.33259,2.07505 5.04897,2.18368 4.71481,2.16001 4.50005,1.94526 Z"
         fill="url(#paint0_linear_448_511)"
         id="path1"
         style="fill:url(#paint0_linear_448_511)" /><path
         d="M 3.07431,1.47968 3.55192,1.00076 c 10e-4,-0.001009 0.00264,-0.001015 0.00364,0 l 1.16618,1.16618 c 0.08591,0.0859 0.21988,0.09776 0.32649,0.03952 0.34108,-0.18633 0.72434,-0.28515 1.1152,-0.28593 0.30675,0 0.61049,0.06042 0.89395,0.17781 0.2834,0.1174 0.54089,0.28946 0.75778,0.50637 0.21695,0.21692 0.38904,0.47443 0.50639,0.75784 0.11742,0.28341 0.17782,0.58717 0.17782,0.89393 0,0.39143 -0.09839,0.77543 -0.28455,1.11725 C 8.15678,5.48024 8.16869,5.61395 8.25441,5.69977 L 9.53958,6.98661 8.88077,7.64906 7.58656,6.35482 C 7.5016,6.26989 7.36948,6.25724 7.26333,6.31344 7.12554,6.38639 6.98082,6.44536 6.83133,6.48947 6.71493,6.5238 6.62879,6.62683 6.62879,6.74815 v 3.41955 c 0,0.121 0.08563,0.2238 0.20152,0.2584 0.44625,0.1333 0.84407,0.3976 1.14064,0.7607 0.34048,0.4171 0.52651,0.9388 0.52657,1.4772 0,0.6196 -0.2461,1.2138 -0.68414,1.6518 C 7.37527,14.7539 6.78112,15 6.1616,15 5.85484,15 5.55108,14.9396 5.26768,14.8222 4.98426,14.7048 4.72675,14.5327 4.50984,14.3158 4.07176,13.8778 3.82566,13.2836 3.82566,12.664 c 8.9e-4,-0.5377 0.1873,-1.0587 0.52776,-1.475 0.29643,-0.3624 0.69384,-0.6261 1.13945,-0.7592 0.1159,-0.0346 0.20154,-0.1375 0.20154,-0.2585 V 6.75101 C 5.69441,6.63003 5.60877,6.52721 5.49287,6.49258 5.04667,6.35927 4.64881,6.09503 4.35227,5.73188 4.01174,5.31487 3.82571,4.79304 3.82566,4.25466 3.82611,3.86923 3.92189,3.49103 4.10307,3.15325 4.16008,3.04697 4.14781,2.91419 4.06259,2.82885 L 3.07443,1.83932 C 2.97524,1.73998 2.97518,1.57909 3.07431,1.47968 Z"
         fill="url(#paint1_linear_448_511)"
         id="path2"
         style="fill:url(#paint1_linear_448_511)" /></g><g
       id="g11"
       transform="matrix(0.74999965,0,0,0.74999965,3.7743922e-7,1.908614e-5)"><path
         d="M 8.24717,5.28688 C 10.8404,4.80099 13.5052,5.09747 16.1297,5.01923 18.8839,5.09747 21.902,4.61569 24.37,6.03631 c 2.3518,1.37121 3.8988,3.59891 6.0002,5.24599 0.7735,0.5518 1.7751,0.7577 2.7453,0.7412 9.4028,0 18.8055,0.0124 28.2083,0.0659 1.6185,-0.1277 3.018,1.4165 2.6022,2.8577 -0.2281,1.1159 -1.404,1.9436 -2.6291,1.8695 C 51.7466,16.8289 42.1963,16.7836 32.646,16.7754 30.4597,16.763 28.2778,16.0177 26.6547,14.663 24.6696,13.1765 23.3506,10.8953 21.0033,9.87817 17.7483,9.63934 14.462,9.84523 11.1981,9.77522 8.9536,9.63934 6.7091,10.8252 5.75228,12.7029 c -0.65725,1.1901 -0.541,2.5572 -0.54994,3.846 0.02235,10.8503 -0.00895,21.7005 0.01341,32.5549 -0.03577,2.0342 1.4084,3.9777 3.4517,4.7354 1.21614,0.4777 2.56645,0.3871 3.85855,0.3953 13.5833,-0.0206 27.1665,0.0083 40.7453,-0.0165 2.1014,0.0083 4.1134,-1.2023 4.9898,-2.9524 0.7019,-1.3135 0.5007,-2.8124 0.5275,-4.2248 0.009,-6.0284 -0.0312,-12.0567 0.0179,-18.0851 -0.0357,-1.3548 1.3995,-2.4954 2.8481,-2.3183 1.4219,0.0865 2.486,1.3712 2.325,2.6601 0,6.7366 0.0313,13.4732 -0.0134,20.214 C 63.9036,54.498 59.1016,58.8917 53.696,58.974 39.384,59.0234 25.0675,58.9864 10.7555,58.9905 6.61521,59.0317 2.60462,56.6516 0.945834,53.1557 0.163389,51.6362 -0.0243975,49.9356 0.00242916,48.272 0.0381981,37.01 -0.0243977,25.7397 0.0337268,14.4777 0.114207,10.1664 3.70004,6.22985 8.24717,5.28688 Z"
         id="path111"
         style="fill:url(#linearGradient30);fill-opacity:1;stroke:url(#linearGradient30);stroke-width:0;stroke-dasharray:none" /></g><rect
       style="fill:none;fill-opacity:1;fill-rule:evenodd;stroke:none;stroke-width:3.9;stroke-linejoin:round;stroke-dasharray:none;stroke-opacity:0.5;paint-order:fill markers stroke"
       id="rect1"
       width="44.075188"
       height="31.645638"
       x="1.9758538"
       y="10.78429" /></g><defs
     id="defs1"><linearGradient
       inkscape:collect="always"
       xlink:href="#paint0_linear_448_511"
       id="linearGradient30"
       gradientUnits="userSpaceOnUse"
       gradientTransform="matrix(1.421128,-0.01199146,0.01198687,1.4216711,-101.30678,-100.47471)"
       x1="89.892799"
       y1="113.05421"
       x2="90.522194"
       y2="74.954185" /><linearGradient
       id="paint1_linear"
       x1="4.5768099"
       y1="45.678902"
       x2="42.3731"
       y2="4.1876402"
       gradientUnits="userSpaceOnUse"
       gradientTransform="matrix(1.4285714,0,0,1.4285714,-8.757358,-11.86756)"><stop
         stop-color="#FF5508"
         id="stop4-7" /><stop
         offset="1"
         stop-color="#FFA208"
         id="stop5-8" /></linearGradient><linearGradient
       id="paint0_linear"
       x1="4.5768099"
       y1="45.678799"
       x2="42.3731"
       y2="4.1875501"
       gradientUnits="userSpaceOnUse"
       gradientTransform="matrix(1.4285714,0,0,1.4285714,-8.757358,-11.86756)"><stop
         stop-color="#FF5508"
         id="stop2-4" /><stop
         offset="1"
         stop-color="#FFA208"
         id="stop3-5" /></linearGradient><linearGradient
       id="paint0_linear_448_511"
       x1="8.03305"
       y1="15"
       x2="8.03305"
       y2="0.99893"
       gradientUnits="userSpaceOnUse"><stop
         stop-color="#A93AFF"
         id="stop2" /><stop
         offset="1"
         stop-color="#FF81FF"
         id="stop3" /></linearGradient><linearGradient
       id="paint1_linear_448_511"
       x1="6.21726"
       y1="15"
       x2="6.21726"
       y2="0.99893"
       gradientUnits="userSpaceOnUse"><stop
         stop-color="#A93AFF"
         id="stop4" /><stop
         offset="1"
         stop-color="#FF81FF"
         id="stop5-6" /></linearGradient></defs><metadata
     id="metadata1"><rdf:RDF><cc:Work
         rdf:about=""><dc:title>folder-git</dc:title><dc:date>23-07-2025</dc:date><dc:description>Beautyline style git folder icon</dc:description><cc:license
           rdf:resource="http://creativecommons.org/licenses/by-nc-sa/4.0/" /></cc:Work><cc:License
         rdf:about="http://creativecommons.org/licenses/by-nc-sa/4.0/"><cc:permits
           rdf:resource="http://creativecommons.org/ns#Reproduction" /><cc:permits
           rdf:resource="http://creativecommons.org/ns#Distribution" /><cc:requires
           rdf:resource="http://creativecommons.org/ns#Notice" /><cc:requires
           rdf:resource="http://creativecommons.org/ns#Attribution" /><cc:prohibits
           rdf:resource="http://creativecommons.org/ns#CommercialUse" /><cc:permits
           rdf:resource="http://creativecommons.org/ns#DerivativeWorks" /><cc:requires
           rdf:resource="http://creativecommons.org/ns#ShareAlike" /></cc:License></rdf:RDF></metadata></svg>
