<?xml version="1.0" encoding="UTF-8" standalone="no"?>
<svg
   width="48"
   height="48"
   viewBox="0 0 48 48"
   fill="none"
   version="2"
   id="svg1"
   sodipodi:docname="folder-todo.svg"
   inkscape:version="1.4.2 (ebf0e940d0, 2025-05-08)"
   xml:space="preserve"
   xmlns:inkscape="http://www.inkscape.org/namespaces/inkscape"
   xmlns:sodipodi="http://sodipodi.sourceforge.net/DTD/sodipodi-0.dtd"
   xmlns:xlink="http://www.w3.org/1999/xlink"
   xmlns="http://www.w3.org/2000/svg"
   xmlns:svg="http://www.w3.org/2000/svg"
   xmlns:rdf="http://www.w3.org/1999/02/22-rdf-syntax-ns#"
   xmlns:cc="http://creativecommons.org/ns#"
   xmlns:dc="http://purl.org/dc/elements/1.1/"><title
     id="title1">folder-</title><sodipodi:namedview
     id="namedview1"
     pagecolor="#3f4354"
     bordercolor="#000000"
     borderopacity="0.5"
     inkscape:showpageshadow="1"
     inkscape:pageopacity="0"
     inkscape:pagecheckerboard="1"
     inkscape:deskcolor="#2b2f40"
     showgrid="false"
     inkscape:zoom="17.6875"
     inkscape:cx="23.971731"
     inkscape:cy="24"
     inkscape:window-width="1920"
     inkscape:window-height="1048"
     inkscape:window-x="0"
     inkscape:window-y="0"
     inkscape:window-maximized="1"
     inkscape:current-layer="g1" /><g
     id="g1"><g
       id="g11"
       transform="matrix(0.74999965,0,0,0.74999965,3.7743922e-7,1.908614e-5)"
       style="fill:url(#linearGradient3)"><path
         d="M 8.24717,5.28688 C 10.8404,4.80099 13.5052,5.09747 16.1297,5.01923 18.8839,5.09747 21.902,4.61569 24.37,6.03631 c 2.3518,1.37121 3.8988,3.59891 6.0002,5.24599 0.7735,0.5518 1.7751,0.7577 2.7453,0.7412 9.4028,0 18.8055,0.0124 28.2083,0.0659 1.6185,-0.1277 3.018,1.4165 2.6022,2.8577 -0.2281,1.1159 -1.404,1.9436 -2.6291,1.8695 C 51.7466,16.8289 42.1963,16.7836 32.646,16.7754 30.4597,16.763 28.2778,16.0177 26.6547,14.663 24.6696,13.1765 23.3506,10.8953 21.0033,9.87817 17.7483,9.63934 14.462,9.84523 11.1981,9.77522 8.9536,9.63934 6.7091,10.8252 5.75228,12.7029 c -0.65725,1.1901 -0.541,2.5572 -0.54994,3.846 0.02235,10.8503 -0.00895,21.7005 0.01341,32.5549 -0.03577,2.0342 1.4084,3.9777 3.4517,4.7354 1.21614,0.4777 2.56645,0.3871 3.85855,0.3953 13.5833,-0.0206 27.1665,0.0083 40.7453,-0.0165 2.1014,0.0083 4.1134,-1.2023 4.9898,-2.9524 0.7019,-1.3135 0.5007,-2.8124 0.5275,-4.2248 0.009,-6.0284 -0.0312,-12.0567 0.0179,-18.0851 -0.0357,-1.3548 1.3995,-2.4954 2.8481,-2.3183 1.4219,0.0865 2.486,1.3712 2.325,2.6601 0,6.7366 0.0313,13.4732 -0.0134,20.214 C 63.9036,54.498 59.1016,58.8917 53.696,58.974 39.384,59.0234 25.0675,58.9864 10.7555,58.9905 6.61521,59.0317 2.60462,56.6516 0.945834,53.1557 0.163389,51.6362 -0.0243975,49.9356 0.00242916,48.272 0.0381981,37.01 -0.0243977,25.7397 0.0337268,14.4777 0.114207,10.1664 3.70004,6.22985 8.24717,5.28688 Z"
         id="path111"
         style="fill:url(#linearGradient7);fill-opacity:1;stroke:url(#linearGradient30);stroke-width:0;stroke-dasharray:none" /></g><g
       style="fill:none"
       id="g2"
       transform="matrix(1.1486166,0,0,1.1486166,10.517087,12.884184)"><path
         d="M 2.83385,2.72838 C 3.30022,2.26201 3.93276,2 4.59231,2 H 19.5134 c 0.6595,0 1.2921,0.26201 1.7584,0.72838 0.4664,0.46637 0.7284,1.09891 0.7284,1.75846 V 19.4079 c 0,0.6595 -0.262,1.2921 -0.7284,1.7585 -0.4663,0.4663 -1.0989,0.7283 -1.7584,0.7283 H 4.59231 c -0.65955,0 -1.29209,-0.262 -1.75846,-0.7283 C 2.36747,20.7 2.10547,20.0674 2.10547,19.4079 v -0.329 c 0,-0.2761 0.22386,-0.5 0.5,-0.5 h 0.65789 c 0.27615,0 0.5,0.2239 0.5,0.5 v 0.329 c 0,0.2198 0.08734,0.4307 0.2428,0.5862 0.15545,0.1554 0.3663,0.2427 0.58615,0.2427 H 19.5134 c 0.2198,0 0.4307,-0.0873 0.5861,-0.2427 0.1555,-0.1555 0.2428,-0.3664 0.2428,-0.5862 V 4.48684 c 0,-0.21985 -0.0873,-0.43069 -0.2428,-0.58615 -0.1554,-0.15546 -0.3663,-0.2428 -0.5861,-0.2428 H 4.59231 c -0.21985,0 -0.4307,0.08734 -0.58615,0.2428 -0.15546,0.15546 -0.2428,0.3663 -0.2428,0.58615 v 1.09211 c 0,0.27614 -0.22385,0.5 -0.5,0.5 H 2.60547 c -0.27614,0 -0.5,-0.22386 -0.5,-0.5 V 4.48684 c 0,-0.65955 0.262,-1.29209 0.72838,-1.75846 z"
         fill="url(#paint0_linear)"
         stroke="url(#paint1_linear)"
         id="path1"
         style="fill:url(#paint0_linear-3);stroke:url(#paint0_linear-3)" /><path
         d="M 7.8537,8.34733 C 8.00915,8.19187 8.22,8.10453 8.43985,8.10453 h 7.86845 c 0.2198,0 0.4307,0.08734 0.5861,0.2428 0.1555,0.15545 0.2428,0.3663 0.2428,0.58615 0,0.21985 -0.0873,0.4307 -0.2428,0.58615 -0.1554,0.15546 -0.3663,0.2428 -0.5861,0.2428 H 8.43985 C 8.22,9.76243 8.00915,9.67509 7.8537,9.51963 7.69824,9.36418 7.6109,9.15333 7.6109,8.93348 c 0,-0.21985 0.08734,-0.4307 0.2428,-0.58615 z"
         fill="url(#paint2_linear)"
         id="path2"
         style="fill:url(#linearGradient2)" /><path
         d="m 7.8537,14.4263 c -0.15546,0.1554 -0.2428,0.3663 -0.2428,0.5861 0,0.2199 0.08734,0.4307 0.2428,0.5862 0.15545,0.1554 0.3663,0.2428 0.58615,0.2428 h 7.86845 c 0.2198,0 0.4307,-0.0874 0.5861,-0.2428 0.1555,-0.1555 0.2428,-0.3663 0.2428,-0.5862 0,-0.2198 -0.0873,-0.4307 -0.2428,-0.5861 -0.1554,-0.1555 -0.3663,-0.2428 -0.5861,-0.2428 H 8.43985 c -0.21985,0 -0.4307,0.0873 -0.58615,0.2428 z"
         fill="url(#paint3_linear)"
         id="path3"
         style="fill:url(#linearGradient4)" /><path
         d="M 5.95228,7.82822 C 5.95228,7.60855 5.86508,7.39786 5.70985,7.24243 5.55442,7.08719 5.34373,7 5.12406,7 4.90439,7 4.6937,7.08719 4.53827,7.24243 L 2.91353,8.86716 2.39406,8.34769 C 2.23692,8.20127 2.02908,8.12155 1.81432,8.12534 1.59957,8.12913 1.39467,8.21613 1.24279,8.368 1.09092,8.51988 1.00392,8.72478 1.00013,8.93954 0.99634,9.15429 1.07605,9.36213 1.22248,9.51927 l 1.10526,1.10523 c 0.15543,0.1553 0.36612,0.2425 0.58579,0.2425 0.21967,0 0.43036,-0.0872 0.58579,-0.2425 L 5.70985,8.41401 C 5.86508,8.25858 5.95228,8.04789 5.95228,7.82822 Z"
         fill="url(#paint4_linear)"
         id="path4"
         style="fill:url(#linearGradient5)" /><path
         d="m 5.90192,14.2239 c -0.0453,0.1016 -0.11063,0.1932 -0.19207,0.2691 l -2.21053,2.2105 c -0.15543,0.1552 -0.36612,0.2424 -0.58579,0.2424 -0.21967,0 -0.43036,-0.0872 -0.58579,-0.2424 L 1.22248,15.5982 C 1.07605,15.4411 0.99634,15.2332 1.00013,15.0185 1.00392,14.8037 1.09092,14.5988 1.24279,14.447 c 0.15188,-0.1519 0.35678,-0.2389 0.57153,-0.2427 0.21476,-0.0038 0.4226,0.0759 0.57974,0.2223 l 0.51947,0.5195 1.62474,-1.6247 c 0.07589,-0.0815 0.16741,-0.1468 0.26909,-0.1921 0.10168,-0.0453 0.21145,-0.0697 0.32275,-0.0716 0.11131,-0.002 0.22187,0.0185 0.32508,0.0602 0.10322,0.0417 0.19699,0.1037 0.2757,0.1824 0.07872,0.0787 0.14077,0.1725 0.18246,0.2757 0.0417,0.1032 0.06217,0.2138 0.06021,0.3251 -0.00197,0.1113 -0.02633,0.2211 -0.07164,0.3228 z"
         fill="url(#paint5_linear)"
         id="path5"
         style="fill:url(#linearGradient6)" /></g></g><defs
     id="defs1"><linearGradient
       id="paint0_linear"
       x1="94.0831"
       y1="102.397"
       x2="94.0831"
       y2="5"
       gradientUnits="userSpaceOnUse"
       gradientTransform="matrix(1.0455138,0,0,1.0223426,-7.6008048,-2.552391)"><stop
         stop-color="#FD2E00"
         id="stop14" /><stop
         offset="1"
         stop-color="#FF9900"
         id="stop16" /></linearGradient><linearGradient
       inkscape:collect="always"
       xlink:href="#paint0_linear"
       id="linearGradient3"
       x1="32.000015"
       y1="58.999977"
       x2="32.000015"
       y2="5.000001"
       gradientUnits="userSpaceOnUse" /><linearGradient
       id="paint0_linear-3"
       x1="2.10838"
       y1="11.6526"
       x2="22.0035"
       y2="11.6526"
       gradientUnits="userSpaceOnUse"><stop
         stop-color="#A93AFF"
         id="stop5" /><stop
         offset="1"
         stop-color="#FF81FF"
         id="stop6" /></linearGradient><linearGradient
       id="paint2_linear"
       x1="9.06861"
       y1="16.9459"
       x2="9.06861"
       y2="7"
       gradientUnits="userSpaceOnUse"><stop
         stop-color="#5570FF"
         id="stop9" /><stop
         offset="1"
         stop-color="#4DD3FF"
         id="stop10" /></linearGradient><linearGradient
       inkscape:collect="always"
       xlink:href="#paint2_linear"
       id="linearGradient2"
       gradientUnits="userSpaceOnUse"
       x1="9.06861"
       y1="16.9459"
       x2="9.06861"
       y2="7" /><linearGradient
       inkscape:collect="always"
       xlink:href="#paint2_linear"
       id="linearGradient4"
       gradientUnits="userSpaceOnUse"
       x1="9.06861"
       y1="16.9459"
       x2="9.06861"
       y2="7" /><linearGradient
       inkscape:collect="always"
       xlink:href="#paint2_linear"
       id="linearGradient5"
       gradientUnits="userSpaceOnUse"
       x1="9.06861"
       y1="16.9459"
       x2="9.06861"
       y2="7" /><linearGradient
       inkscape:collect="always"
       xlink:href="#paint2_linear"
       id="linearGradient6"
       gradientUnits="userSpaceOnUse"
       x1="9.06861"
       y1="16.9459"
       x2="9.06861"
       y2="7" /><linearGradient
       inkscape:collect="always"
       xlink:href="#paint0_linear-3"
       id="linearGradient7"
       gradientUnits="userSpaceOnUse"
       x1="0.034471184"
       y1="35.476135"
       x2="64.001419"
       y2="35.476135" /></defs><metadata
     id="metadata1"><rdf:RDF><cc:Work
         rdf:about=""><dc:title>folder-</dc:title><dc:date>26-07-2025</dc:date><dc:description>Beautyline style * folder icon</dc:description><cc:license
           rdf:resource="http://creativecommons.org/licenses/by-nc-sa/4.0/" /></cc:Work><cc:License
         rdf:about="http://creativecommons.org/licenses/by-nc-sa/4.0/"><cc:permits
           rdf:resource="http://creativecommons.org/ns#Reproduction" /><cc:permits
           rdf:resource="http://creativecommons.org/ns#Distribution" /><cc:requires
           rdf:resource="http://creativecommons.org/ns#Notice" /><cc:requires
           rdf:resource="http://creativecommons.org/ns#Attribution" /><cc:prohibits
           rdf:resource="http://creativecommons.org/ns#CommercialUse" /><cc:permits
           rdf:resource="http://creativecommons.org/ns#DerivativeWorks" /><cc:requires
           rdf:resource="http://creativecommons.org/ns#ShareAlike" /></cc:License></rdf:RDF></metadata></svg>
