<svg version="1.1" viewBox="0 0 48 48" xmlns="http://www.w3.org/2000/svg">
 <defs>
  <linearGradient id="c" x1="87.031" x2="87.031" y1="52.432" y2="26.18" gradientTransform="matrix(.29571 0 0 .29571 7.9348 7.3845)" gradientUnits="userSpaceOnUse">
   <stop stop-color="#FD5900" offset="0"/>
   <stop stop-color="#FFDE00" offset="1"/>
  </linearGradient>
  <linearGradient id="e" x1="24.062" x2="22" y1="44.25" y2="20.688" gradientTransform="matrix(1 0 0 1 -.00018879 .00020579)" gradientUnits="userSpaceOnUse">
   <stop stop-color="#02AA93" offset="0"/>
   <stop stop-color="#67FF80" offset="1"/>
  </linearGradient>
  <linearGradient id="d" x1="64.03" x2="64.03" y1="89.413" y2="5.9365" gradientTransform="matrix(.29571 0 0 .29571 -6.0372 20.813)" gradientUnits="userSpaceOnUse">
   <stop stop-color="#5570FF" offset="0"/>
   <stop stop-color="#4DD3FF" offset="1"/>
  </linearGradient>
 </defs>
 <g>
  <path d="m9.1348 3.7503c-0.98429-0.00309-1.9663 0.031414-2.9355 0.20899-3.5481 0.72264-6.2812 3.8736-6.1974 7.2306 0 8.5387-0.0028011 17.08 0.0039063 25.621-2.106e-5 6.54e-4 2.084e-5 0.0013 0 2e-3 -0.0076544 0.24022-0.0013163 0.48012 0.019531 0.71681 0.0031151 0.03549 0.011889 0.07007 0.015625 0.10547 0.046365 0.43794 0.1355 0.86939 0.27148 1.2871 0.07349 0.22575 0.15845 0.44638 0.25587 0.66407 0.097604 0.21823 0.20611 0.432 0.32617 0.64063 0.11976 0.20815 0.25011 0.41033 0.39063 0.60743 5.23e-4 7.34e-4 0.00143 0.0012 0.00195 2e-3 0.14007 0.19632 0.29011 0.38645 0.44923 0.57032 3.372e-4 3.9e-4 -3.371e-4 0.0016 0 2e-3 0.15944 0.18418 0.32889 0.36105 0.50587 0.53126 0.27987 0.26914 0.58563 0.5148 0.90434 0.74415 0.085102 0.06124 0.16633 0.1274 0.25392 0.18556 4.394e-4 2.91e-4 0.00151-2.92e-4 0.00195 0 0.20737 0.1376 0.42045 0.26562 0.64063 0.38477 0.11417 0.0618 0.23426 0.11338 0.35157 0.16993 0.10955 0.05279 0.21604 0.11213 0.32812 0.16016 5.407e-4 2.32e-4 0.00141-2.31e-4 0.00195 0 0.23144 0.09909 0.46789 0.18797 0.70899 0.26562 0.7256 0.23379 1.4908 0.36615 2.2754 0.37892 10.859 0.0309 21.718 0.02471 32.577 0 2.0089-0.03675 3.9033-0.86242 5.3087-2.1427 0.46913-0.427 0.88424-0.90449 1.2305-1.42h0.05469c-0.01048-0.011-0.02076-0.0222-0.03125-0.0332 0.16388-0.2469 0.3103-0.50294 0.44142-0.76567 0.0036-0.0073 0.0081-0.0142 0.01172-0.02148 0.10984-0.22202 0.19684-0.45216 0.28126-0.6836 0.0234-0.06416 0.05678-0.12464 0.07813-0.18946 8.25e-4 -0.0026 0.0011-0.0053 2e-3 -0.0078 0.07413-0.22591 0.12366-0.45865 0.17188-0.69142 0.01471-0.07103 0.04054-0.13936 0.05273-0.21094 0.05268-0.30922 0.08245-0.62402 0.08594-0.94139v-2e-3c0.0369-4.8331-0.0039-9.6652 0.01953-14.498-0.0201-0.70101 0.08639-1.5229-0.50392-2.0665-0.74441-0.81532-2.2693-0.76889-2.9668 0.07422-0.446 0.46011-0.43327 1.1053-0.44336 1.6798 0.0101 4.83 0.0093 9.6607 0.0059 14.491 0.01056 0.29536-0.02024 0.58731-0.08984 0.86917-2.8107-2.8944-5.6569-5.7628-8.4809-8.6429-0.96966-0.98879-2.542-1.1351-3.6759-0.33984l-3.6603 2.5684-7.9394-6.7716c-0.54258-0.4628-1.2282-0.6747-1.9024-0.64259-0.67411 0.0321-1.3379 0.30999-1.834 0.82229-4.0046 4.3643-8.5146 8.5312-12.518 12.898-0.18971-8.7607-0.083392-17.566-0.085942-26.338-0.073772-2.066 1.9348-3.9374 4.1817-3.8849 2.5588 0.04015 5.1388-0.11448 7.6874 0.080077 1.8847 0.84922 2.9233 2.7385 4.6036 3.8751 1.167 0.83384 2.6391 1.2829 4.1114 1.2891 7.1702 0.0092 14.338 0.0425 21.508 0.0332 0.89872 0.0432 1.7695-0.56166 1.9474-1.377 0.33201-1.0932-0.72368-2.2704-1.9513-2.1778-7.1667-0.046349-14.338-0.029939-21.505-0.054689-1.2375 0.0186-2.1464-0.83054-2.9043-1.6211-1.2307-1.1179-2.2861-2.4969-3.9161-3.1485-1.754-0.73202-3.7203-0.3998-5.5783-0.47083-0.97926 0.02934-1.9649-0.012538-2.9493-0.015625zm9.3614 23.446 7.7384 6.6017c1.025 0.87427 2.5318 0.94552 3.6348 0.17188l3.5664-2.4981 8.5259 8.6954c-0.61274 0.3271-1.3128 0.51305-2.0371 0.50001-1.3448 0.0016-2.6902-8.25e-4 -4.0353 0l-21.664 0.0039c-1.6009 5.12e-4 -3.2022 0.0017-4.8028 0.0039-0.42121-0.0049-0.84959 0.0088-1.2754-0.0039-0.21406-0.0062-0.42589-0.02773-0.63673-0.05273-0.069923-0.0083-0.14159-0.0083-0.21094-0.01953-0.072343-0.01165-0.14324-0.02965-0.21484-0.04492-0.061693-0.013183-0.12449-0.022872-0.18556-0.039063-0.13206-0.035001-0.26218-0.077542-0.39063-0.12891-0.12105-0.044091-0.23851-0.093232-0.35352-0.14844-0.065172-0.031021-0.12439-0.071222-0.18751-0.10547z" fill="url(#e)"/>
  <path d="m33.737 15.127c-0.51889-0.0085-1.0393 0.06951-1.5277 0.24142-1.6762 0.55008-2.8453 2.1634-2.7387 3.8025 0.04496 1.576 1.2477 3.0277 2.86 3.5253 0.05467 0.01206 0.13628 0.02924 0.21832 0.04678 0.08135 0.01739 0.16292 0.03484 0.21717 0.04678 1.9366 0.4344 4.0863-0.60656 4.8035-2.32 0.48082-1.0739 0.39546-2.3422-0.22467-3.3551-0.28884-0.4911-0.7177-0.89286-1.1793-1.2486-0.70286-0.46928-1.5638-0.72507-2.4286-0.73928z" fill="url(#c)" fill-rule="evenodd"/>
  <path d="m9.1348 3.7503c-0.98429-0.00309-1.9663 0.031414-2.9355 0.20899-3.5481 0.72264-6.2812 3.8736-6.1974 7.2306l-1.1377e-4 26.371h3.8976l-8.625e-4 -26.338c-0.073772-2.066 1.9348-3.9374 4.1817-3.8849 2.5588 0.040151 5.1388-0.11448 7.6874 0.080077 1.8847 0.84922 2.9233 2.7385 4.6036 3.8751 1.167 0.83384 2.6391 1.2829 4.1114 1.2891 7.1702 0.0092 14.338 0.0425 21.508 0.0332 0.89872 0.0432 1.7695-0.56166 1.9474-1.377 0.33201-1.0932-0.72368-2.2704-1.9513-2.1778-7.1667-0.046349-14.338-0.029939-21.505-0.054689-1.2375 0.0186-2.1464-0.83054-2.9043-1.6211-1.2307-1.1179-2.2861-2.4969-3.9161-3.1485-1.7539-0.7319-3.7203-0.39968-5.5782-0.47071-0.97927 0.02934-1.9649-0.012538-2.9493-0.015625z" fill="url(#d)"/>
 </g>
</svg>
