<?xml version="1.0" encoding="UTF-8" standalone="no"?>
<svg
   width="48"
   height="48"
   viewBox="0 0 48 48"
   fill="none"
   version="2"
   id="svg1"
   sodipodi:docname="folder-log_logview-alt.svg"
   inkscape:version="1.4.2 (ebf0e940d0, 2025-05-08)"
   xml:space="preserve"
   xmlns:inkscape="http://www.inkscape.org/namespaces/inkscape"
   xmlns:sodipodi="http://sodipodi.sourceforge.net/DTD/sodipodi-0.dtd"
   xmlns:xlink="http://www.w3.org/1999/xlink"
   xmlns="http://www.w3.org/2000/svg"
   xmlns:svg="http://www.w3.org/2000/svg"
   xmlns:rdf="http://www.w3.org/1999/02/22-rdf-syntax-ns#"
   xmlns:cc="http://creativecommons.org/ns#"
   xmlns:dc="http://purl.org/dc/elements/1.1/"><title
     id="title1">folder-log_logview-alt</title><sodipodi:namedview
     id="namedview1"
     pagecolor="#3f4354"
     bordercolor="#000000"
     borderopacity="0.5"
     inkscape:showpageshadow="1"
     inkscape:pageopacity="0"
     inkscape:pagecheckerboard="1"
     inkscape:deskcolor="#2b2f40"
     showgrid="false"
     inkscape:zoom="17.6875"
     inkscape:cx="24"
     inkscape:cy="24"
     inkscape:window-width="1920"
     inkscape:window-height="1048"
     inkscape:window-x="0"
     inkscape:window-y="0"
     inkscape:window-maximized="1"
     inkscape:current-layer="g1" /><g
     id="g1"><g
       id="g11"
       transform="matrix(0.74999965,0,0,0.74999965,3.7743922e-7,1.908614e-5)"
       style="fill:url(#linearGradient3)"><path
         d="M 8.24717,5.28688 C 10.8404,4.80099 13.5052,5.09747 16.1297,5.01923 18.8839,5.09747 21.902,4.61569 24.37,6.03631 c 2.3518,1.37121 3.8988,3.59891 6.0002,5.24599 0.7735,0.5518 1.7751,0.7577 2.7453,0.7412 9.4028,0 18.8055,0.0124 28.2083,0.0659 1.6185,-0.1277 3.018,1.4165 2.6022,2.8577 -0.2281,1.1159 -1.404,1.9436 -2.6291,1.8695 C 51.7466,16.8289 42.1963,16.7836 32.646,16.7754 30.4597,16.763 28.2778,16.0177 26.6547,14.663 24.6696,13.1765 23.3506,10.8953 21.0033,9.87817 17.7483,9.63934 14.462,9.84523 11.1981,9.77522 8.9536,9.63934 6.7091,10.8252 5.75228,12.7029 c -0.65725,1.1901 -0.541,2.5572 -0.54994,3.846 0.02235,10.8503 -0.00895,21.7005 0.01341,32.5549 -0.03577,2.0342 1.4084,3.9777 3.4517,4.7354 1.21614,0.4777 2.56645,0.3871 3.85855,0.3953 13.5833,-0.0206 27.1665,0.0083 40.7453,-0.0165 2.1014,0.0083 4.1134,-1.2023 4.9898,-2.9524 0.7019,-1.3135 0.5007,-2.8124 0.5275,-4.2248 0.009,-6.0284 -0.0312,-12.0567 0.0179,-18.0851 -0.0357,-1.3548 1.3995,-2.4954 2.8481,-2.3183 1.4219,0.0865 2.486,1.3712 2.325,2.6601 0,6.7366 0.0313,13.4732 -0.0134,20.214 C 63.9036,54.498 59.1016,58.8917 53.696,58.974 39.384,59.0234 25.0675,58.9864 10.7555,58.9905 6.61521,59.0317 2.60462,56.6516 0.945834,53.1557 0.163389,51.6362 -0.0243975,49.9356 0.00242916,48.272 0.0381981,37.01 -0.0243977,25.7397 0.0337268,14.4777 0.114207,10.1664 3.70004,6.22985 8.24717,5.28688 Z"
         id="path111"
         style="fill:url(#linearGradient2);fill-opacity:1;stroke:url(#linearGradient30);stroke-width:0;stroke-dasharray:none" /></g><g
       style="fill:none"
       id="g12"
       transform="matrix(0.19642857,0,0,0.19642857,11.442019,14.035681)"><path
         d="M 63.9347,119.869 C 33.2513,119.869 8,94.618 8,63.9347 8,33.2513 33.2513,8 63.9347,8 94.618,8 119.869,33.2513 119.869,63.9347 c -0.005,11.1237 -3.351,21.9612 -9.561,31.1253 -1.13,1.6674 -1,3.9202 0.424,5.344 l 7.131,7.131 c 1.367,1.368 2.137,3.225 2.137,5.162 0,4.008 -3.295,7.303 -7.303,7.303 -1.937,0 -3.794,-0.77 -5.162,-2.137 l -7.131,-7.131 c -1.4238,-1.424 -3.6766,-1.554 -5.344,-0.424 -9.1641,6.21 -20.0016,9.556 -31.1253,9.561 z M 94.4105,92.2273 c 0.3999,-0.2597 0.7883,-0.5425 1.1021,-0.9015 6.6244,-7.5799 10.2884,-17.3083 10.3004,-27.3911 0,-22.974 -18.9043,-41.8787 -41.8783,-41.8787 -9.4992,0 -18.3018,3.2311 -25.3604,8.6459 -2.7158,2.0833 -1.0285,5.9841 2.3943,5.9841 H 52.762 c 2.2091,0 4,1.7909 4,4 v 3.4707 c 0,2.2091 -1.7909,4 -4,4 H 27.854 c -1.6195,0 -3.0966,0.971 -3.6165,2.5047 -0.1645,0.4856 -0.32,0.9741 -0.4664,1.4654 -0.7099,2.3829 1.1845,4.6352 3.6709,4.6352 h 19.5847 c 2.2091,0 4,1.7909 4,4 v 3.4753 c 0,2.2092 -1.7909,4 -4,4 H 26.713 c -2.3712,0 -4.2374,2.0579 -3.7406,4.3764 0.3327,1.5531 0.7554,3.0864 1.2655,4.5922 0.5198,1.5347 1.9974,2.5068 3.6178,2.5068 h 13.4356 c 2.2092,0 4,1.7908 4,4 v 3.4706 c 0,2.2092 -1.7908,4 -4,4 h -0.3227 c -3.4229,0 -5.1101,3.9008 -2.3944,5.9841 7.0586,5.4146 15.8613,8.6456 25.3605,8.6456 10.4277,0 20.02,-3.896 27.3854,-10.2981 0.3628,-0.3154 0.6484,-0.7065 0.9105,-1.1095 0.5661,-0.8705 1.3089,-1.6127 2.1799,-2.1781 z m -43.3838,-5.044 c 0,2.2092 1.7908,4 4,4 H 81.448 c 2.2091,0 4,-1.7908 4,-4 v -3.4706 c 0,-2.2092 -1.7909,-4 -4,-4 H 55.0267 c -2.2092,0 -4,1.7908 -4,4 z m 28.686,-22.946 c 0,2.2092 1.7908,4 4,4 h 14.946 c 2.2093,0 4.0003,-1.7908 4.0003,-4 V 60.762 c 0,-2.2091 -1.791,-4 -4.0003,-4 h -14.946 c -2.2092,0 -4,1.7909 -4,4 z m -22.9507,0 c 0,2.2092 1.7909,4 4,4 h 6.3453 c 2.2092,0 4,-1.7908 4,-4 V 60.762 c 0,-2.2091 -1.7908,-4 -4,-4 H 60.762 c -2.2091,0 -4,1.7909 -4,4 z m 8.6053,-20.0806 c 0,2.2091 1.7909,4 4,4 H 84.318 c 2.2091,0 4,-1.7909 4,-4 V 40.686 c 0,-2.2091 -1.7909,-4 -4,-4 H 69.3673 c -2.2091,0 -4,1.7909 -4,4 z"
         fill="url(#paint0_linear_714_81)"
         id="path1"
         style="fill:url(#paint0_linear_714_81)" /></g></g><defs
     id="defs1"><linearGradient
       id="paint0_linear_714_81"
       x1="99.7312"
       y1="7.99999"
       x2="8.00032"
       y2="120.001"
       gradientUnits="userSpaceOnUse"><stop
         stop-color="#DE00C0"
         id="stop1" /><stop
         offset="1"
         stop-color="#8720FF"
         id="stop2" /></linearGradient><linearGradient
       inkscape:collect="always"
       xlink:href="#paint0_linear_714_81"
       id="linearGradient2"
       gradientUnits="userSpaceOnUse"
       x1="44.965866"
       y1="5.000001"
       x2="-2.036644e-09"
       y2="58.999977" /></defs><metadata
     id="metadata1"><rdf:RDF><cc:Work
         rdf:about=""><dc:title>folder-log_logview-alt</dc:title><dc:date>26-07-2025</dc:date><dc:description>Beautyline style log folder icon. logview icon style alt</dc:description><cc:license
           rdf:resource="http://creativecommons.org/licenses/by-nc-sa/4.0/" /></cc:Work><cc:License
         rdf:about="http://creativecommons.org/licenses/by-nc-sa/4.0/"><cc:permits
           rdf:resource="http://creativecommons.org/ns#Reproduction" /><cc:permits
           rdf:resource="http://creativecommons.org/ns#Distribution" /><cc:requires
           rdf:resource="http://creativecommons.org/ns#Notice" /><cc:requires
           rdf:resource="http://creativecommons.org/ns#Attribution" /><cc:prohibits
           rdf:resource="http://creativecommons.org/ns#CommercialUse" /><cc:permits
           rdf:resource="http://creativecommons.org/ns#DerivativeWorks" /><cc:requires
           rdf:resource="http://creativecommons.org/ns#ShareAlike" /></cc:License></rdf:RDF></metadata></svg>
