<?xml version="1.0" encoding="UTF-8" standalone="no"?>
<svg
   width="48"
   height="48"
   viewBox="0 0 48 48"
   fill="none"
   version="2"
   id="svg1"
   sodipodi:docname="folder-windows.alt2.svg"
   inkscape:version="1.4.2 (ebf0e940d0, 2025-05-08)"
   xml:space="preserve"
   xmlns:inkscape="http://www.inkscape.org/namespaces/inkscape"
   xmlns:sodipodi="http://sodipodi.sourceforge.net/DTD/sodipodi-0.dtd"
   xmlns:xlink="http://www.w3.org/1999/xlink"
   xmlns="http://www.w3.org/2000/svg"
   xmlns:svg="http://www.w3.org/2000/svg"
   xmlns:rdf="http://www.w3.org/1999/02/22-rdf-syntax-ns#"
   xmlns:cc="http://creativecommons.org/ns#"
   xmlns:dc="http://purl.org/dc/elements/1.1/"><title
     id="title1">folder-mac</title><sodipodi:namedview
     id="namedview1"
     pagecolor="#3f4354"
     bordercolor="#000000"
     borderopacity="0.5"
     inkscape:showpageshadow="1"
     inkscape:pageopacity="0"
     inkscape:pagecheckerboard="1"
     inkscape:deskcolor="#2b2f40"
     showgrid="false"
     inkscape:zoom="9.8520768"
     inkscape:cx="18.219509"
     inkscape:cy="34.561241"
     inkscape:window-width="1920"
     inkscape:window-height="1048"
     inkscape:window-x="0"
     inkscape:window-y="0"
     inkscape:window-maximized="1"
     inkscape:current-layer="g12" /><g
     id="g1"><g
       id="g11"
       transform="matrix(0.74999965,0,0,0.74999965,3.7743922e-7,1.908614e-5)"
       style="fill:url(#paint0_linear)"><path
         d="M 8.24717,5.28688 C 10.8404,4.80099 13.5052,5.09747 16.1297,5.01923 18.8839,5.09747 21.902,4.61569 24.37,6.03631 c 2.3518,1.37121 3.8988,3.59891 6.0002,5.24599 0.7735,0.5518 1.7751,0.7577 2.7453,0.7412 9.4028,0 18.8055,0.0124 28.2083,0.0659 1.6185,-0.1277 3.018,1.4165 2.6022,2.8577 -0.2281,1.1159 -1.404,1.9436 -2.6291,1.8695 C 51.7466,16.8289 42.1963,16.7836 32.646,16.7754 30.4597,16.763 28.2778,16.0177 26.6547,14.663 24.6696,13.1765 23.3506,10.8953 21.0033,9.87817 17.7483,9.63934 14.462,9.84523 11.1981,9.77522 8.9536,9.63934 6.7091,10.8252 5.75228,12.7029 c -0.65725,1.1901 -0.541,2.5572 -0.54994,3.846 0.02235,10.8503 -0.00895,21.7005 0.01341,32.5549 -0.03577,2.0342 1.4084,3.9777 3.4517,4.7354 1.21614,0.4777 2.56645,0.3871 3.85855,0.3953 13.5833,-0.0206 27.1665,0.0083 40.7453,-0.0165 2.1014,0.0083 4.1134,-1.2023 4.9898,-2.9524 0.7019,-1.3135 0.5007,-2.8124 0.5275,-4.2248 0.009,-6.0284 -0.0312,-12.0567 0.0179,-18.0851 -0.0357,-1.3548 1.3995,-2.4954 2.8481,-2.3183 1.4219,0.0865 2.486,1.3712 2.325,2.6601 0,6.7366 0.0313,13.4732 -0.0134,20.214 C 63.9036,54.498 59.1016,58.8917 53.696,58.974 39.384,59.0234 25.0675,58.9864 10.7555,58.9905 6.61521,59.0317 2.60462,56.6516 0.945834,53.1557 0.163389,51.6362 -0.0243975,49.9356 0.00242916,48.272 0.0381981,37.01 -0.0243977,25.7397 0.0337268,14.4777 0.114207,10.1664 3.70004,6.22985 8.24717,5.28688 Z"
         id="path111"
         fill="url(#paint0_linear)" /></g><g
       id="g12"
       style="isolation:isolate;fill:#ffffff;fill-opacity:1;stroke:#ffffff;stroke-width:107.2;stroke-dasharray:none;stroke-opacity:1;image-rendering:optimizeQuality;shape-rendering:geometricPrecision;text-rendering:geometricPrecision"
       transform="matrix(0.00768218,0,0,0.00768218,20.598445,26.200781)"><path
         d="m -894.36991,-951.288 c 0,-61.6163 49.95803,-111.5741 111.57412,-111.5741 61.61815,0 111.57782,49.9578 111.57782,111.5741 0,61.61793 -49.95967,111.57597 -111.57782,111.57597 -61.61609,0 -111.57412,-49.95804 -111.57412,-111.57597 z m 446.30226,0 c 0,-61.6163 49.95804,-111.5741 111.57574,-111.5741 61.6163,0 111.57435,49.9578 111.57435,111.5741 0,61.61793 -49.95805,111.57597 -111.57435,111.57597 -61.6177,0 -111.57574,-49.95804 -111.57574,-111.57597 z m 446.300184,0 c 0,-61.6163 49.958267,-111.5741 111.575976,-111.5741 61.61815,0 111.57596,49.9578 111.57596,111.5741 0,61.61793 -49.95805,111.57597 -111.57596,111.57597 -61.617942,0 -111.575976,-49.95804 -111.575976,-111.57597 z M 2229.7433,-337.62189 V 1168.6468 c 0,246.4716 -199.8322,446.3021 -446.3023,446.3021 H -894.36991 c -246.47169,0 -446.30219,-199.8305 -446.30219,-446.3021 V -58.681859 c 0,-61.617931 49.9582,-111.577821 111.5759,-111.577821 61.6182,0 111.5743,49.95989 111.5743,111.577821 V 1168.6468 c 0,123.2359 99.9143,223.1501 223.15014,223.1501 H 120.67972 1783.4377 c 123.2357,0 223.1537,-99.9142 223.1537,-223.1501 V -281.83379 c 0,-61.61794 -49.9597,-111.57598 -111.5744,-111.57598 h -2956.7491 c -154.0744,0 -278.94,-124.86572 -278.94,-278.93819 v -390.51414 c 0,-246.4701 199.8321,-446.3023 446.30219,-446.3023 H 1783.441 c 246.4701,0 446.3023,199.8322 446.3023,446.3023 v 111.5741 c 0,61.61793 -49.958,111.57783 -111.5759,111.57783 -61.618,0 -111.5743,-49.9599 -111.5743,-111.57783 v -111.5741 c 0,-123.2342 -99.9177,-223.1503 -223.1521,-223.1503 H -894.36991 c -123.23589,0 -223.15029,99.9161 -223.15029,223.1503 v 334.72604 c 0,61.61793 49.9564,111.57598 111.5743,111.57598 h 2956.7491 c 154.0728,0 278.9401,124.8657 278.9401,278.93819 z"
         id="path121"
         fill="url(#paint0_linear)"
         fill-rule="evenodd"
         clip-rule="evenodd"
         style="fill:url(#linearGradient5);stroke:none;stroke-width:24807.7" /><g
         style="fill:none;stroke:none"
         id="g4"
         transform="matrix(10.03165,0,0,10.03165,-224.60525,-109.73743)"><path
           d="m 3,56.6771 c 0,1.1046 0.89543,2 2,2 h 46.3844 c 1.1046,0 2,-0.8954 2,-2 V 17.6106 c 0,-1.2351 -1.1084,-2.175 -2.3269,-1.9731 L 4.67308,23.3227 C 3.70784,23.4827 3,24.3174 3,25.2958 Z m 9.8928,-23.0176 c 0,-0.9784 0.7078,-1.8132 1.6731,-1.9731 l 26.6145,-4.4086 c 1.2185,-0.2019 2.3268,0.738 2.3268,1.9731 v 17.549 c 0,1.1046 -0.8954,2 -2,2 H 14.8928 c -1.1046,0 -2,-0.8954 -2,-2 z"
           fill="url(#paint0_linear_641_68)"
           id="path1-3"
           style="fill:url(#paint0_linear_641_68);stroke:none" /><path
           d="m 3,71.4141 c 0,-1.1046 0.89543,-2 2,-2 h 46.3844 c 1.1046,0 2,0.8954 2,2 v 39.0669 c 0,1.235 -1.1084,2.175 -2.3269,1.973 L 4.67308,104.768 C 3.70784,104.608 3,103.774 3,102.795 Z m 9.8928,23.0176 c 0,0.9784 0.7078,1.8132 1.6731,1.9731 l 26.6145,4.4082 c 1.2185,0.202 2.3268,-0.738 2.3268,-1.9727 V 81.2912 c 0,-1.1046 -0.8954,-2 -2,-2 H 14.8928 c -1.1046,0 -2,0.8954 -2,2 z"
           fill="url(#paint1_linear_641_68)"
           id="path2-5"
           style="fill:url(#paint1_linear_641_68);stroke:none" /><path
           fill-rule="evenodd"
           clip-rule="evenodd"
           d="m 66.5695,12.2417 c -0.9652,0.16 -1.673,0.9947 -1.673,1.9731 v 41.3677 c 0,1.1046 0.8954,2 2,2 h 55.6065 c 1.104,0 2,-0.8954 2,-2 V 5.00049 c 0,-1.23512 -1.109,-2.17501 -2.327,-1.97309 z M 114.627,47.7053 H 76.8059 c -1.1046,0 -2,-0.8955 -2,-2 V 22.5784 c 0,-0.9784 0.7078,-1.8132 1.673,-1.9731 l 35.8361,-5.9376 c 1.219,-0.2019 2.327,0.7379 2.327,1.9731 v 31.0489 c 0,0.0086 -0.007,0.0156 -0.015,0.0156 z"
           fill="url(#paint2_linear_641_68)"
           id="path3-6"
           style="fill:url(#paint2_linear_641_68);stroke:none" /><path
           fill-rule="evenodd"
           clip-rule="evenodd"
           d="m 67.0676,115.755 c -0.9652,-0.16 -1.6731,-0.995 -1.6731,-1.973 V 72.4141 c 0,-1.1046 0.8955,-2 2,-2 h 55.6065 c 1.104,0 2,0.8954 2,2 v 50.5819 c 0,1.235 -1.109,2.175 -2.327,1.973 z M 77.3039,80.2913 c -1.1046,0 -2,0.8954 -2,2 v 23.1267 c 0,0.979 0.7079,1.813 1.6731,1.973 l 35.836,5.938 c 1.219,0.202 2.327,-0.738 2.327,-1.973 V 82.2913 c 0,-1.1046 -0.895,-2 -2,-2 z"
           fill="url(#paint3_linear_641_68)"
           id="path4-2"
           style="fill:url(#paint3_linear_641_68);stroke:none" /></g></g></g><defs
     id="defs1"><linearGradient
       id="paint0_linear"
       x1="-4.01979e-07"
       y1="45.6052"
       x2="55.9035"
       y2="18.6289"
       gradientUnits="userSpaceOnUse"><stop
         stop-color="#FD2E00"
         id="stop14"
         offset="0"
         style="stop-color:#0357d1;stop-opacity:1;" /><stop
         offset="1"
         stop-color="#FF9900"
         id="stop16"
         style="stop-color:#27cdfc;stop-opacity:1;" /></linearGradient><linearGradient
       inkscape:collect="always"
       xlink:href="#paint0_linear"
       id="linearGradient5"
       gradientUnits="userSpaceOnUse"
       x1="27.387098"
       y1="39.611279"
       x2="41.394066"
       y2="32.352921"
       gradientTransform="matrix(231.4158,0,0,231.4158,-7678.4797,-8262.0803)" /><linearGradient
       id="paint0_linear_448_599"
       x1="7.24324"
       y1="1.18469"
       x2="4.72295"
       y2="7.51311"
       gradientUnits="userSpaceOnUse"><stop
         stop-color="#FE0F7C"
         id="stop4" /><stop
         offset="1"
         stop-color="#DF0066"
         id="stop5" /></linearGradient><linearGradient
       id="paint1_linear_448_599"
       x1="11.7689"
       y1="7.46154"
       x2="11.7689"
       y2="1"
       gradientUnits="userSpaceOnUse"><stop
         stop-color="#02AA93"
         id="stop6" /><stop
         offset="1"
         stop-color="#67FF80"
         id="stop7" /></linearGradient><linearGradient
       id="paint2_linear_448_599"
       x1="9.70924"
       y1="14.2368"
       x2="15.536"
       y2="9.15284"
       gradientUnits="userSpaceOnUse"><stop
         stop-color="#FE0844"
         id="stop8" /><stop
         offset="1"
         stop-color="#FEB302"
         id="stop9" /></linearGradient><linearGradient
       id="paint3_linear_448_599"
       x1="1"
       y1="14.9996"
       x2="8.7967"
       y2="11.6014"
       gradientUnits="userSpaceOnUse"><stop
         stop-color="#0357D1"
         id="stop10" /><stop
         offset="1"
         stop-color="#27CDFC"
         id="stop11" /></linearGradient><linearGradient
       id="paint0_linear_641_68"
       x1="53"
       y1="39.5"
       x2="3"
       y2="41.5"
       gradientUnits="userSpaceOnUse"><stop
         stop-color="#FF2424"
         id="stop4-9" /><stop
         offset="1"
         stop-color="#FF8D8D"
         id="stop5-1" /></linearGradient><linearGradient
       id="paint1_linear_641_68"
       x1="53"
       y1="91"
       x2="3"
       y2="87.5"
       gradientUnits="userSpaceOnUse"><stop
         stop-color="#5558FF"
         id="stop6-2" /><stop
         offset="1"
         stop-color="#00C0FF"
         id="stop7-7" /></linearGradient><linearGradient
       id="paint2_linear_641_68"
       x1="123"
       y1="32"
       x2="65"
       y2="35.5"
       gradientUnits="userSpaceOnUse"><stop
         stop-color="#02AA93"
         id="stop8-0" /><stop
         offset="1"
         stop-color="#67FF80"
         id="stop9-9" /></linearGradient><linearGradient
       id="paint3_linear_641_68"
       x1="125"
       y1="98"
       x2="65"
       y2="93"
       gradientUnits="userSpaceOnUse"><stop
         stop-color="#FD5900"
         id="stop10-3" /><stop
         offset="1"
         stop-color="#FFDE00"
         id="stop11-6" /></linearGradient></defs><metadata
     id="metadata1"><rdf:RDF><cc:Work
         rdf:about=""><dc:title>folder-mac</dc:title><dc:date>26-07-2025</dc:date><dc:description>Beautyline style mac folder icon. Candy folder-mac style based</dc:description><cc:license
           rdf:resource="http://creativecommons.org/licenses/by-nc-sa/4.0/" /></cc:Work><cc:License
         rdf:about="http://creativecommons.org/licenses/by-nc-sa/4.0/"><cc:permits
           rdf:resource="http://creativecommons.org/ns#Reproduction" /><cc:permits
           rdf:resource="http://creativecommons.org/ns#Distribution" /><cc:requires
           rdf:resource="http://creativecommons.org/ns#Notice" /><cc:requires
           rdf:resource="http://creativecommons.org/ns#Attribution" /><cc:prohibits
           rdf:resource="http://creativecommons.org/ns#CommercialUse" /><cc:permits
           rdf:resource="http://creativecommons.org/ns#DerivativeWorks" /><cc:requires
           rdf:resource="http://creativecommons.org/ns#ShareAlike" /></cc:License></rdf:RDF></metadata></svg>
