<?xml version="1.0" encoding="UTF-8" standalone="no"?>
<svg
   width="48"
   height="48"
   viewBox="0 0 48 48"
   fill="none"
   version="1.1"
   id="svg2"
   xmlns="http://www.w3.org/2000/svg"
   xmlns:svg="http://www.w3.org/2000/svg">
  <g
     clip-path="url(#clip0_451_818)"
     id="g1">
	  <path
	  fill-rule="evenodd"
	  clip-rule="evenodd"
       d="m 6.20354,3.95905 c 1.93134,-0.35826 3.91626,-0.1328 5.87106,-0.19457 2.0118,0.07103 4.1879,-0.30576 6.0219,0.6702 1.871,1.00685 3.0545,2.75802 4.6808,4.03357 0.5834,0.39225 1.3144,0.57135 2.0353,0.54975 6.9306,0 13.8612,0 20.7918,0.02782 0.9421,-0.10192 2.0016,0.32738 2.2799,1.21678 0.4829,1.1397 -0.6203,2.4616 -1.9313,2.3566 C 38.8078,12.6253 31.6593,12.5944 24.5141,12.5821 22.784,12.5852 21.0605,11.9644 19.8133,10.8556 18.7269,9.88897 17.7377,8.83267 16.6514,7.87215 16.1552,7.43669 15.4511,7.29771 14.7838,7.32859 12.4803,7.34713 10.1735,7.31315 7.86998,7.34404 5.70395,7.39345 3.83634,9.21877 3.90004,11.2139 c 0,8.5397 -0.0067,17.0793 -0.00335,25.6221 -0.05364,2.0446 1.94137,3.8822 4.16439,3.8359 10.62222,0.0061 21.24442,0.0062 31.86662,-0.0031 2.223,0.0402 4.2214,-1.8099 4.1476,-3.8637 0.0068,-4.8335 0.0034,-9.6639 -0.0033,-14.4973 0.0101,-0.5652 -0.01,-1.1984 0.4191,-1.6555 0.6941,-0.8709 2.2599,-0.9203 3.0077,-0.0834 0.4895,0.4571 0.4895,1.1335 0.4861,1.7326 -0.0234,4.954 0.0168,9.9079 -0.0201,14.8619 -0.0637,3.734 -3.6648,7.0078 -7.7051,7.0695 C 29.5268,44.2607 18.794,44.2484 8.06108,44.2391 4.95959,44.27 1.95197,42.4879 0.711367,39.8658 0.11789,38.723 -0.009522,37.4383 5.36895e-4,36.1905 0.0273607,27.7466 -0.0262871,19.3027 0.0206546,10.8618 0.0843608,7.61887 2.78015,4.66014 6.20354,3.95905 Z M 32.694385,15.25499 c -0.767333,0 -1.503167,0.304816 -2.045833,0.847383 -0.01267,0.01267 -0.025,0.02568 -0.037,0.03901 l -9.871496,10.993763 c -0.239516,0.26682 -0.318001,0.641334 -0.205501,0.981834 0.112494,0.3405 0.400716,0.586797 0.728452,0.689274 0.327736,0.102477 0.667169,0.289704 0.982503,0.603122 0.315333,0.313414 0.448579,0.532082 0.533114,0.859075 0.08454,0.32699 0.337745,0.672218 0.701249,0.789714 0.363334,0.117507 0.762,0.01783 1.027334,-0.257167 L 34.747206,20.187164 c 0.538188,-0.542018 0.840518,-1.274854 0.840519,-2.03902 -10e-7,-0.767167 -0.304833,-1.503167 -0.8475,-2.04575 l -0.713165,0.713251 0.713168,-0.713283 c -0.542666,-0.542565 -1.278501,-0.847379 -2.045835,-0.847379 z m 0.631667,2.261667 v 0 c 0,0 -0.394838,-0.261663 -0.631667,-0.261667 -0.229667,0 -0.450167,0.08833 -0.616,0.246333 l -8.950332,9.967833 c 0.203001,0.144166 0.391665,0.304169 0.562331,0.473668 0.133138,0.132357 0.26117,0.276497 0.379836,0.4305 l 9.243332,-9.580668 c 0.004,-0.0044 0.0081,-0.0085 0.01253,-0.0128 0.167525,-0.167478 0.261668,-0.394666 0.261668,-0.631666 0,-0.236833 -0.08842,-0.469944 -0.261667,-0.6315 z m -14.98719,12.282062 c -1.964267,0 -3.525051,1.608334 -3.525052,3.565334 0,0.2405 -0.09487,0.401167 -0.230665,0.5185 -0.159269,0.137833 -0.350418,0.1915 -0.452703,0.1915 -0.377866,0 -0.723481,0.212999 -0.893316,0.5505 -0.169817,0.337667 -0.134866,0.742 0.09035,1.0455 0.960234,1.293667 2.57767,2.114 4.169703,2.114 2.427101,0 4.366766,-1.993 4.366766,-4.42 0,-1.957 -1.560832,-3.565335 -3.525083,-3.565334 z m -1.52505,3.565334 c 0,-0.882333 0.694934,-1.565333 1.525053,-1.56533 0.830084,0 1.525084,0.683 1.525084,1.565334 0,1.352166 -1.073684,2.419999 -2.366768,2.419998 -0.524901,0 -1.0729,-0.156667 -1.557466,-0.430833 0.506336,-0.451498 0.874099,-1.115 0.8741,-1.989166 z"
       fill="url(#paint0_linear_451_818)"
       id="path1"
       style="fill:url(#paint0_linear_451_818)" />
  </g>
  <defs
     id="defs2">
    <linearGradient
       id="paint0_linear_451_818"
       x1="24"
       y1="44.25"
       x2="24"
       y2="3.75"
       gradientUnits="userSpaceOnUse">
      <stop
         stop-color="#02AA93"
         id="stop1" />
      <stop
         offset="1"
         stop-color="#67FF80"
         id="stop2" />
    </linearGradient>
  </defs>
</svg>
