<?xml version="1.0" encoding="UTF-8" standalone="no"?>
<svg
   width="48"
   height="48"
   viewBox="0 0 48 48"
   fill="none"
   version="2"
   id="svg1"
   sodipodi:docname="folder-podcast_podcast-alt.svg"
   inkscape:version="1.4.2 (ebf0e940d0, 2025-05-08)"
   xml:space="preserve"
   xmlns:inkscape="http://www.inkscape.org/namespaces/inkscape"
   xmlns:sodipodi="http://sodipodi.sourceforge.net/DTD/sodipodi-0.dtd"
   xmlns:xlink="http://www.w3.org/1999/xlink"
   xmlns="http://www.w3.org/2000/svg"
   xmlns:svg="http://www.w3.org/2000/svg"
   xmlns:rdf="http://www.w3.org/1999/02/22-rdf-syntax-ns#"
   xmlns:cc="http://creativecommons.org/ns#"
   xmlns:dc="http://purl.org/dc/elements/1.1/"><title
     id="title1">folder-</title><sodipodi:namedview
     id="namedview1"
     pagecolor="#3f4354"
     bordercolor="#000000"
     borderopacity="0.5"
     inkscape:showpageshadow="1"
     inkscape:pageopacity="0"
     inkscape:pagecheckerboard="1"
     inkscape:deskcolor="#2b2f40"
     showgrid="false"
     inkscape:zoom="17.3125"
     inkscape:cx="24.115523"
     inkscape:cy="24"
     inkscape:window-width="1920"
     inkscape:window-height="1048"
     inkscape:window-x="0"
     inkscape:window-y="0"
     inkscape:window-maximized="1"
     inkscape:current-layer="g11" /><g
     id="g1"><g
       id="g11"
       transform="matrix(0.74999965,0,0,0.74999965,3.7743922e-7,1.908614e-5)"
       style="fill:url(#linearGradient3)"><path
         d="M 8.24717,5.28688 C 10.8404,4.80099 13.5052,5.09747 16.1297,5.01923 18.8839,5.09747 21.902,4.61569 24.37,6.03631 c 2.3518,1.37121 3.8988,3.59891 6.0002,5.24599 0.7735,0.5518 1.7751,0.7577 2.7453,0.7412 9.4028,0 18.8055,0.0124 28.2083,0.0659 1.6185,-0.1277 3.018,1.4165 2.6022,2.8577 -0.2281,1.1159 -1.404,1.9436 -2.6291,1.8695 C 51.7466,16.8289 42.1963,16.7836 32.646,16.7754 30.4597,16.763 28.2778,16.0177 26.6547,14.663 24.6696,13.1765 23.3506,10.8953 21.0033,9.87817 17.7483,9.63934 14.462,9.84523 11.1981,9.77522 8.9536,9.63934 6.7091,10.8252 5.75228,12.7029 c -0.65725,1.1901 -0.541,2.5572 -0.54994,3.846 0.02235,10.8503 -0.00895,21.7005 0.01341,32.5549 -0.03577,2.0342 1.4084,3.9777 3.4517,4.7354 1.21614,0.4777 2.56645,0.3871 3.85855,0.3953 13.5833,-0.0206 27.1665,0.0083 40.7453,-0.0165 2.1014,0.0083 4.1134,-1.2023 4.9898,-2.9524 0.7019,-1.3135 0.5007,-2.8124 0.5275,-4.2248 0.009,-6.0284 -0.0312,-12.0567 0.0179,-18.0851 -0.0357,-1.3548 1.3995,-2.4954 2.8481,-2.3183 1.4219,0.0865 2.486,1.3712 2.325,2.6601 0,6.7366 0.0313,13.4732 -0.0134,20.214 C 63.9036,54.498 59.1016,58.8917 53.696,58.974 39.384,59.0234 25.0675,58.9864 10.7555,58.9905 6.61521,59.0317 2.60462,56.6516 0.945834,53.1557 0.163389,51.6362 -0.0243975,49.9356 0.00242916,48.272 0.0381981,37.01 -0.0243977,25.7397 0.0337268,14.4777 0.114207,10.1664 3.70004,6.22985 8.24717,5.28688 Z"
         id="path111"
         style="fill:url(#linearGradient2);fill-opacity:1;stroke:url(#linearGradient30);stroke-width:0;stroke-dasharray:none" /></g><g
       style="fill:none"
       id="g2"
       transform="matrix(0.20689655,0,0,0.20689655,10.772079,13.36573)"><path
         fill-rule="evenodd"
         clip-rule="evenodd"
         d="m 64.0021,6 c -6.4823,0.00611 -12.7789,2.14537 -17.9018,6.082 -4.04,3.1046 -7.1695,7.1884 -9.1069,11.8271 -0.791,1.894 0.7089,3.8409 2.7613,3.8409 h 13.7969 c 1.7316,0 3.1352,1.4036 3.1352,3.1351 v 8.2298 c 0,1.7315 -1.4036,3.1351 -3.1352,3.1351 H 37.876 c -1.7314,0 -3.1352,1.4036 -3.1352,3.1351 v 8.2298 c 0,1.7315 1.4038,3.1351 3.1352,3.1351 h 15.6756 c 1.7316,0 3.1352,1.4036 3.1352,3.1351 v 8.2298 c 0,1.7315 -1.4036,3.1351 -3.1352,3.1351 H 39.7689 c -2.0524,0 -3.5522,1.9469 -2.7612,3.8409 1.9364,4.6365 5.0638,8.7186 9.1013,11.8227 5.1198,3.9363 11.4133,6.0772 17.8931,6.0864 6.4822,-0.0061 12.779,-2.1454 17.9018,-6.082 4.0401,-3.1046 7.1696,-7.1884 9.1069,-11.8271 0.791,-1.894 -0.7088,-3.8409 -2.7612,-3.8409 h -13.797 c -1.7315,0 -3.1351,-1.4036 -3.1351,-3.1351 v -8.2298 c 0,-1.7315 1.4036,-3.1351 3.1351,-3.1351 h 15.6757 c 1.7314,0 3.1351,-1.4036 3.1351,-3.1351 v -8.2298 c 0,-1.7315 -1.4037,-3.1351 -3.1351,-3.1351 H 74.4526 c -1.7315,0 -3.1351,-1.4036 -3.1351,-3.1351 v -8.2298 c 0,-1.7315 1.4036,-3.1351 3.1351,-3.1351 h 13.7827 c 2.0524,0 3.5523,-1.9469 2.7613,-3.8409 C 89.0602,19.2726 85.9327,15.1905 81.8953,12.0864 76.7754,8.15008 70.482,6.00925 64.0021,6 Z M 23.2457,71.25 c -1.7317,0 -3.1522,1.4077 -2.9713,3.1298 0.7811,7.4391 4.3297,14.5262 10.2058,20.2677 6.6207,6.4695 15.7731,10.8175 25.8651,12.2935 0.1955,0.029 0.3415,0.196 0.3415,0.394 0,0.106 -0.0422,0.207 -0.1173,0.281 l -9.103,9.022 C 45.4777,118.609 46.8735,122 49.6733,122 H 78.331 c 2.7998,0 4.1955,-3.391 2.2068,-5.362 l -9.0933,-9.012 c -0.0814,-0.081 -0.127,-0.19 -0.127,-0.305 0,-0.214 0.1582,-0.395 0.3699,-0.426 10.072,-1.48 19.2067,-5.819 25.8201,-12.2737 5.8735,-5.7321 9.4255,-12.8078 10.2175,-20.2373 0.184,-1.7235 -1.238,-3.134 -2.971,-3.134 h -1.04 c -1.732,0 -3.114,1.41 -3.348,3.1256 -0.8945,6.5419 -4.5766,12.6838 -10.5003,17.3805 -6.8595,5.4386 -16.1628,8.4939 -25.8636,8.4939 -9.7007,0 -19.0041,-3.0553 -25.8636,-8.4939 C 32.2148,87.0594 28.5328,80.9175 27.6385,74.3756 27.404,72.66 26.0218,71.25 24.2905,71.25 Z"
         fill="url(#paint0_linear_1005_314)"
         id="path1"
         style="fill:url(#paint0_linear_1005_314)" /></g></g><defs
     id="defs1"><linearGradient
       id="paint0_linear_1005_314"
       x1="64.0026"
       y1="122"
       x2="64.0026"
       y2="63.2648"
       gradientUnits="userSpaceOnUse"><stop
         stop-color="#A93AFF"
         id="stop1" /><stop
         offset="1"
         stop-color="#FF81FF"
         id="stop2" /></linearGradient><linearGradient
       inkscape:collect="always"
       xlink:href="#paint0_linear_1005_314"
       id="linearGradient2"
       gradientUnits="userSpaceOnUse"
       x1="32.000015"
       y1="58.999977"
       x2="32.000015"
       y2="25.563187" /></defs><metadata
     id="metadata1"><rdf:RDF><cc:Work
         rdf:about=""><dc:title>folder-</dc:title><dc:date>26-07-2025</dc:date><dc:description>Beautyline style * folder icon</dc:description><cc:license
           rdf:resource="http://creativecommons.org/licenses/by-nc-sa/4.0/" /></cc:Work><cc:License
         rdf:about="http://creativecommons.org/licenses/by-nc-sa/4.0/"><cc:permits
           rdf:resource="http://creativecommons.org/ns#Reproduction" /><cc:permits
           rdf:resource="http://creativecommons.org/ns#Distribution" /><cc:requires
           rdf:resource="http://creativecommons.org/ns#Notice" /><cc:requires
           rdf:resource="http://creativecommons.org/ns#Attribution" /><cc:prohibits
           rdf:resource="http://creativecommons.org/ns#CommercialUse" /><cc:permits
           rdf:resource="http://creativecommons.org/ns#DerivativeWorks" /><cc:requires
           rdf:resource="http://creativecommons.org/ns#ShareAlike" /></cc:License></rdf:RDF></metadata></svg>
