<?xml version="1.0" encoding="UTF-8" standalone="no"?>
<svg
   width="48"
   height="48"
   viewBox="0 0 48 48"
   fill="none"
   version="2"
   id="svg1"
   sodipodi:docname="folder-mac_alt.svg"
   inkscape:version="1.4.2 (ebf0e940d0, 2025-05-08)"
   xml:space="preserve"
   xmlns:inkscape="http://www.inkscape.org/namespaces/inkscape"
   xmlns:sodipodi="http://sodipodi.sourceforge.net/DTD/sodipodi-0.dtd"
   xmlns:xlink="http://www.w3.org/1999/xlink"
   xmlns="http://www.w3.org/2000/svg"
   xmlns:svg="http://www.w3.org/2000/svg"
   xmlns:rdf="http://www.w3.org/1999/02/22-rdf-syntax-ns#"
   xmlns:cc="http://creativecommons.org/ns#"
   xmlns:dc="http://purl.org/dc/elements/1.1/"><title
     id="title1">folder-mac</title><sodipodi:namedview
     id="namedview1"
     pagecolor="#3f4354"
     bordercolor="#000000"
     borderopacity="0.5"
     inkscape:showpageshadow="1"
     inkscape:pageopacity="0"
     inkscape:pagecheckerboard="1"
     inkscape:deskcolor="#2b2f40"
     showgrid="false"
     inkscape:zoom="13.530446"
     inkscape:cx="17.257376"
     inkscape:cy="24.500301"
     inkscape:window-width="1920"
     inkscape:window-height="1048"
     inkscape:window-x="0"
     inkscape:window-y="0"
     inkscape:window-maximized="1"
     inkscape:current-layer="g3" /><g
     id="g1"><g
       id="g11"
       transform="matrix(0.74999965,0,0,0.74999965,3.7743922e-7,1.908614e-5)"
       style="fill:url(#paint0_linear)"><path
         d="M 8.24717,5.28688 C 10.8404,4.80099 13.5052,5.09747 16.1297,5.01923 18.8839,5.09747 21.902,4.61569 24.37,6.03631 c 2.3518,1.37121 3.8988,3.59891 6.0002,5.24599 0.7735,0.5518 1.7751,0.7577 2.7453,0.7412 9.4028,0 18.8055,0.0124 28.2083,0.0659 1.6185,-0.1277 3.018,1.4165 2.6022,2.8577 -0.2281,1.1159 -1.404,1.9436 -2.6291,1.8695 C 51.7466,16.8289 42.1963,16.7836 32.646,16.7754 30.4597,16.763 28.2778,16.0177 26.6547,14.663 24.6696,13.1765 23.3506,10.8953 21.0033,9.87817 17.7483,9.63934 14.462,9.84523 11.1981,9.77522 8.9536,9.63934 6.7091,10.8252 5.75228,12.7029 c -0.65725,1.1901 -0.541,2.5572 -0.54994,3.846 0.02235,10.8503 -0.00895,21.7005 0.01341,32.5549 -0.03577,2.0342 1.4084,3.9777 3.4517,4.7354 1.21614,0.4777 2.56645,0.3871 3.85855,0.3953 13.5833,-0.0206 27.1665,0.0083 40.7453,-0.0165 2.1014,0.0083 4.1134,-1.2023 4.9898,-2.9524 0.7019,-1.3135 0.5007,-2.8124 0.5275,-4.2248 0.009,-6.0284 -0.0312,-12.0567 0.0179,-18.0851 -0.0357,-1.3548 1.3995,-2.4954 2.8481,-2.3183 1.4219,0.0865 2.486,1.3712 2.325,2.6601 0,6.7366 0.0313,13.4732 -0.0134,20.214 C 63.9036,54.498 59.1016,58.8917 53.696,58.974 39.384,59.0234 25.0675,58.9864 10.7555,58.9905 6.61521,59.0317 2.60462,56.6516 0.945834,53.1557 0.163389,51.6362 -0.0243975,49.9356 0.00242916,48.272 0.0381981,37.01 -0.0243977,25.7397 0.0337268,14.4777 0.114207,10.1664 3.70004,6.22985 8.24717,5.28688 Z"
         id="path111"
         fill="url(#paint0_linear)" /></g><g
       id="g12"
       style="isolation:isolate;fill:#ffffff;fill-opacity:1;stroke:#ffffff;stroke-width:107.2;stroke-dasharray:none;stroke-opacity:1;image-rendering:optimizeQuality;shape-rendering:geometricPrecision;text-rendering:geometricPrecision"
       transform="matrix(0.00768218,0,0,0.00768218,20.598445,26.200781)"><g
         id="g3"
         transform="matrix(1.1333339,0,0,1.1333339,-59.271663,-7.0523304)"><polygon
           class="fil0"
           points="617,21 793,21 511,423 793,825 617,825 423,549 230,825 54,825 335,423 54,21 230,21 423,298 "
           id="polygon6-5-6"
           style="fill:url(#linearGradient7);fill-opacity:1;stroke:#ffffff;stroke-width:107.2;stroke-dasharray:none;stroke-opacity:1"
           transform="matrix(2.9172011,0,0,2.9172011,-791.20514,-1181.0838)" /></g></g></g><defs
     id="defs1"><linearGradient
       id="linearGradient1"
       inkscape:collect="always"><stop
         style="stop-color:#f44c26;stop-opacity:1;"
         offset="0"
         id="stop1" /><stop
         style="stop-color:#6ebae6;stop-opacity:1;"
         offset="1"
         id="stop2" /></linearGradient><linearGradient
       id="paint0_linear"
       x1="-4.01979e-07"
       y1="45.6052"
       x2="55.9035"
       y2="18.6289"
       gradientUnits="userSpaceOnUse"><stop
         stop-color="#FD2E00"
         id="stop14"
         offset="0"
         style="stop-color:#0357d1;stop-opacity:1;" /><stop
         offset="1"
         stop-color="#FF9900"
         id="stop16"
         style="stop-color:#27cdfc;stop-opacity:1;" /></linearGradient><linearGradient
       inkscape:collect="always"
       xlink:href="#linearGradient1"
       id="linearGradient7"
       x1="423.60492"
       y1="878.59998"
       x2="423.60492"
       y2="-32.599998"
       gradientUnits="userSpaceOnUse" /><linearGradient
       id="paint0_linear_448_599"
       x1="7.24324"
       y1="1.18469"
       x2="4.72295"
       y2="7.51311"
       gradientUnits="userSpaceOnUse"><stop
         stop-color="#FE0F7C"
         id="stop4" /><stop
         offset="1"
         stop-color="#DF0066"
         id="stop5" /></linearGradient><linearGradient
       id="paint1_linear_448_599"
       x1="11.7689"
       y1="7.46154"
       x2="11.7689"
       y2="1"
       gradientUnits="userSpaceOnUse"><stop
         stop-color="#02AA93"
         id="stop6" /><stop
         offset="1"
         stop-color="#67FF80"
         id="stop7" /></linearGradient><linearGradient
       id="paint2_linear_448_599"
       x1="9.70924"
       y1="14.2368"
       x2="15.536"
       y2="9.15284"
       gradientUnits="userSpaceOnUse"><stop
         stop-color="#FE0844"
         id="stop8" /><stop
         offset="1"
         stop-color="#FEB302"
         id="stop9" /></linearGradient><linearGradient
       id="paint3_linear_448_599"
       x1="1"
       y1="14.9996"
       x2="8.7967"
       y2="11.6014"
       gradientUnits="userSpaceOnUse"><stop
         stop-color="#0357D1"
         id="stop10" /><stop
         offset="1"
         stop-color="#27CDFC"
         id="stop11" /></linearGradient></defs><metadata
     id="metadata1"><rdf:RDF><cc:Work
         rdf:about=""><dc:title>folder-mac</dc:title><dc:date>26-07-2025</dc:date><dc:description>Beautyline style mac folder icon. Candy folder-mac style based</dc:description><cc:license
           rdf:resource="http://creativecommons.org/licenses/by-nc-sa/4.0/" /></cc:Work><cc:License
         rdf:about="http://creativecommons.org/licenses/by-nc-sa/4.0/"><cc:permits
           rdf:resource="http://creativecommons.org/ns#Reproduction" /><cc:permits
           rdf:resource="http://creativecommons.org/ns#Distribution" /><cc:requires
           rdf:resource="http://creativecommons.org/ns#Notice" /><cc:requires
           rdf:resource="http://creativecommons.org/ns#Attribution" /><cc:prohibits
           rdf:resource="http://creativecommons.org/ns#CommercialUse" /><cc:permits
           rdf:resource="http://creativecommons.org/ns#DerivativeWorks" /><cc:requires
           rdf:resource="http://creativecommons.org/ns#ShareAlike" /></cc:License></rdf:RDF></metadata></svg>
