<?xml version="1.0" encoding="UTF-8" standalone="no"?>
<svg
   width="48"
   height="48"
   viewBox="0 0 48 48"
   fill="none"
   version="2"
   id="svg1"
   sodipodi:docname="folder-docker.svg"
   inkscape:version="1.4.2 (ebf0e940d0, 2025-05-08)"
   xml:space="preserve"
   xmlns:inkscape="http://www.inkscape.org/namespaces/inkscape"
   xmlns:sodipodi="http://sodipodi.sourceforge.net/DTD/sodipodi-0.dtd"
   xmlns:xlink="http://www.w3.org/1999/xlink"
   xmlns="http://www.w3.org/2000/svg"
   xmlns:svg="http://www.w3.org/2000/svg"
   xmlns:rdf="http://www.w3.org/1999/02/22-rdf-syntax-ns#"
   xmlns:cc="http://creativecommons.org/ns#"
   xmlns:dc="http://purl.org/dc/elements/1.1/"><title
     id="title1">folder-docker</title><sodipodi:namedview
     id="namedview1"
     pagecolor="#3f4354"
     bordercolor="#000000"
     borderopacity="0.5"
     inkscape:showpageshadow="1"
     inkscape:pageopacity="0"
     inkscape:pagecheckerboard="1"
     inkscape:deskcolor="#2b2f40"
     showgrid="false"
     inkscape:zoom="17.6875"
     inkscape:cx="24.169611"
     inkscape:cy="26.657244"
     inkscape:window-width="1920"
     inkscape:window-height="1048"
     inkscape:window-x="0"
     inkscape:window-y="0"
     inkscape:window-maximized="1"
     inkscape:current-layer="g11" /><g
     id="g1"><g
       style="isolation:isolate;fill:url(#linearGradient3)"
       id="g12"
       transform="matrix(0.45833346,0,0,0.45833346,13.013446,15.606956)"><path
         d="m 25.639,43.22 v 0 c -1.197,0.1 -2.09,1.136 -1.992,2.312 v 0 c 0.099,1.177 1.155,2.052 2.359,1.953 v 0 C 32.034,46.993 37.66,44.28 41.743,39.89 45.816,35.501 48.054,29.759 47.999,23.824 47.941,17.589 45.355,11.622 40.82,7.245 36.274,2.879 30.143,0.452 23.783,0.509 17.423,0.565 11.337,3.1 6.873,7.546 2.419,12.003 -0.057,18.015 0.001,24.249 v 0 c 0.011,1.181 0.997,2.131 2.201,2.12 v 0 c 1.205,-0.011 2.173,-0.978 2.162,-2.158 v 0 C 4.317,19.109 6.345,14.193 9.988,10.546 c 3.654,-3.637 8.631,-5.713 13.834,-5.76 5.204,-0.046 10.219,1.942 13.939,5.513 3.71,3.582 5.827,8.462 5.875,13.564 0.044,4.855 -1.778,9.556 -5.116,13.147 -3.338,3.591 -7.943,5.803 -12.881,6.21 v 0 0 0 0 0 z M 7.505,33.142 v 0 C 6.946,32.102 5.649,31.712 4.609,32.27 v 0 c -1.04,0.558 -1.43,1.856 -0.872,2.896 v 0 c 2.382,4.427 6.126,7.987 10.669,10.139 v 0 c 1.068,0.51 2.345,0.057 2.852,-1.01 v 0 c 0.507,-1.067 0.052,-2.347 -1.015,-2.857 v 0 C 12.516,39.675 9.463,36.772 7.505,33.142 v 0 0 0 0 0 z m 12.969,1.847 c -1.67,-0.107 -2.798,-0.293 -3.898,-0.642 -1.576,-0.5 -2.588,-1.183 -3.491,-2.353 -1.118,-1.448 -1.848,-3.557 -2.031,-5.869 -0.064,-0.814 -0.071,-1.294 -0.021,-1.487 0.08,-0.303 0.261,-0.513 0.558,-0.644 0.133,-0.059 0.152,-0.06 10.098,-0.06 6.538,-0.001 10.072,-0.011 10.275,-0.031 0.342,-0.032 0.878,-0.124 1.133,-0.193 0.355,-0.097 0.777,-0.262 0.777,-0.304 0,-0.011 -0.066,-0.143 -0.148,-0.294 -0.314,-0.584 -0.456,-1.171 -0.454,-1.882 0,-0.785 0.184,-1.504 0.579,-2.279 0.163,-0.32 0.559,-0.921 0.607,-0.921 0.047,0 0.532,0.291 0.756,0.453 0.896,0.65 1.594,1.712 1.773,2.697 0.037,0.207 0.04,0.213 0.115,0.198 0.442,-0.089 1.493,-0.115 1.962,-0.049 0.742,0.104 1.295,0.306 1.742,0.638 0.12,0.088 0.217,0.17 0.217,0.182 0,0.07 -0.168,0.482 -0.285,0.7 -0.188,0.348 -0.391,0.61 -0.715,0.924 -0.827,0.8 -2.009,1.239 -3.341,1.241 l -0.288,0.001 -0.069,0.168 c -1.296,3.181 -2.939,5.413 -5.173,7.027 -2.246,1.623 -5.119,2.566 -8.435,2.767 -0.378,0.023 -1.945,0.032 -2.243,0.012 v 0 0 0 0 0 z M 13.6,20 h 1.8 c 0.331,0 0.6,0.269 0.6,0.6 v 1.8 C 16,22.731 15.731,23 15.4,23 H 13.6 C 13.269,23 13,22.731 13,22.4 V 20.6 C 13,20.269 13.269,20 13.6,20 v 0 0 0 z m 4,0 h 1.8 c 0.331,0 0.6,0.269 0.6,0.6 v 1.8 C 20,22.731 19.731,23 19.4,23 H 17.6 C 17.269,23 17,22.731 17,22.4 V 20.6 C 17,20.269 17.269,20 17.6,20 v 0 0 z m 4,0 h 1.8 c 0.331,0 0.6,0.269 0.6,0.6 v 1.8 C 24,22.731 23.731,23 23.4,23 H 21.6 C 21.269,23 21,22.731 21,22.4 V 20.6 C 21,20.269 21.269,20 21.6,20 v 0 z m 4,0 h 1.8 c 0.331,0 0.6,0.269 0.6,0.6 v 1.8 C 28,22.731 27.731,23 27.4,23 H 25.6 C 25.269,23 25,22.731 25,22.4 V 20.6 C 25,20.269 25.269,20 25.6,20 Z m 4,0 h 1.8 c 0.331,0 0.6,0.269 0.6,0.6 v 1.8 C 32,22.731 31.731,23 31.4,23 H 29.6 C 29.269,23 29,22.731 29,22.4 V 20.6 C 29,20.269 29.269,20 29.6,20 Z m -12,-4 h 1.8 c 0.331,0 0.6,0.269 0.6,0.6 v 1.8 C 20,18.731 19.731,19 19.4,19 H 17.6 C 17.269,19 17,18.731 17,18.4 V 16.6 C 17,16.269 17.269,16 17.6,16 Z m 4,0 h 1.8 c 0.331,0 0.6,0.269 0.6,0.6 v 1.8 C 24,18.731 23.731,19 23.4,19 H 21.6 C 21.269,19 21,18.731 21,18.4 V 16.6 C 21,16.269 21.269,16 21.6,16 Z m 4,0 h 1.8 c 0.331,0 0.6,0.269 0.6,0.6 v 1.8 C 28,18.731 27.731,19 27.4,19 H 25.6 C 25.269,19 25,18.731 25,18.4 V 16.6 C 25,16.269 25.269,16 25.6,16 Z m 0,-4 h 1.8 c 0.331,0 0.6,0.269 0.6,0.6 v 1.8 C 28,14.731 27.731,15 27.4,15 H 25.6 C 25.269,15 25,14.731 25,14.4 V 12.6 C 25,12.269 25.269,12 25.6,12 Z"
         fill-rule="evenodd"
         fill="url(#_lgradient_8)"
         id="path3"
         style="fill:url(#linearGradient4)" /></g><g
       id="g11"
       transform="matrix(0.74999965,0,0,0.74999965,3.7743922e-7,1.908614e-5)"><path
         d="M 8.24717,5.28688 C 10.8404,4.80099 13.5052,5.09747 16.1297,5.01923 18.8839,5.09747 21.902,4.61569 24.37,6.03631 c 2.3518,1.37121 3.8988,3.59891 6.0002,5.24599 0.7735,0.5518 1.7751,0.7577 2.7453,0.7412 9.4028,0 18.8055,0.0124 28.2083,0.0659 1.6185,-0.1277 3.018,1.4165 2.6022,2.8577 -0.2281,1.1159 -1.404,1.9436 -2.6291,1.8695 C 51.7466,16.8289 42.1963,16.7836 32.646,16.7754 30.4597,16.763 28.2778,16.0177 26.6547,14.663 24.6696,13.1765 23.3506,10.8953 21.0033,9.87817 17.7483,9.63934 14.462,9.84523 11.1981,9.77522 8.9536,9.63934 6.7091,10.8252 5.75228,12.7029 c -0.65725,1.1901 -0.541,2.5572 -0.54994,3.846 0.02235,10.8503 -0.00895,21.7005 0.01341,32.5549 -0.03577,2.0342 1.4084,3.9777 3.4517,4.7354 1.21614,0.4777 2.56645,0.3871 3.85855,0.3953 13.5833,-0.0206 27.1665,0.0083 40.7453,-0.0165 2.1014,0.0083 4.1134,-1.2023 4.9898,-2.9524 0.7019,-1.3135 0.5007,-2.8124 0.5275,-4.2248 0.009,-6.0284 -0.0312,-12.0567 0.0179,-18.0851 -0.0357,-1.3548 1.3995,-2.4954 2.8481,-2.3183 1.4219,0.0865 2.486,1.3712 2.325,2.6601 0,6.7366 0.0313,13.4732 -0.0134,20.214 C 63.9036,54.498 59.1016,58.8917 53.696,58.974 39.384,59.0234 25.0675,58.9864 10.7555,58.9905 6.61521,59.0317 2.60462,56.6516 0.945834,53.1557 0.163389,51.6362 -0.0243975,49.9356 0.00242916,48.272 0.0381981,37.01 -0.0243977,25.7397 0.0337268,14.4777 0.114207,10.1664 3.70004,6.22985 8.24717,5.28688 Z"
         id="path111"
         style="fill:url(#linearGradient30);fill-opacity:1;stroke:url(#linearGradient30);stroke-width:0;stroke-dasharray:none" /></g><rect
       style="fill:none;fill-opacity:1;fill-rule:evenodd;stroke:#000000;stroke-width:3.9;stroke-linejoin:round;stroke-dasharray:none;stroke-opacity:0;paint-order:fill markers stroke"
       id="rect1"
       width="44.075188"
       height="31.645638"
       x="1.9758538"
       y="10.78429" /></g><defs
     id="defs1"><linearGradient
       id="linearGradient6"
       inkscape:collect="always"><stop
         style="stop-color:#5433ff;stop-opacity:1;"
         offset="0"
         id="stop1" /><stop
         style="stop-color:#20bdff;stop-opacity:1;"
         offset="0.5"
         id="stop5" /><stop
         style="stop-color:#a5fecb;stop-opacity:1;"
         offset="0.96911848"
         id="stop6" /></linearGradient><linearGradient
       id="linearGradient9"
       inkscape:collect="always"><stop
         style="stop-color:#5433ff;stop-opacity:1;"
         offset="0"
         id="stop7" /><stop
         style="stop-color:#20bdff;stop-opacity:1;"
         offset="0.5"
         id="stop8" /><stop
         style="stop-color:#a5fecb;stop-opacity:1;"
         offset="0.98293442"
         id="stop9" /></linearGradient><linearGradient
       id="linearGradient2"
       inkscape:collect="always"><stop
         style="stop-color:#5433ff;stop-opacity:1;"
         offset="0"
         id="stop2" /><stop
         style="stop-color:#20bdff;stop-opacity:1;"
         offset="0.5"
         id="stop4" /><stop
         style="stop-color:#a5fecb;stop-opacity:1;"
         offset="1"
         id="stop3" /></linearGradient><linearGradient
       inkscape:collect="always"
       xlink:href="#linearGradient6"
       id="linearGradient30"
       gradientUnits="userSpaceOnUse"
       gradientTransform="matrix(1.421128,-0.01199146,0.01198687,1.4216711,-101.30678,-100.47471)"
       x1="94.937897"
       y1="77.279747"
       x2="95.701782"
       y2="121.93987" /><linearGradient
       id="paint1_linear"
       x1="4.5768099"
       y1="45.678902"
       x2="42.3731"
       y2="4.1876402"
       gradientUnits="userSpaceOnUse"
       gradientTransform="matrix(1.4285714,0,0,1.4285714,-8.757358,-11.86756)"><stop
         stop-color="#FF5508"
         id="stop4-7" /><stop
         offset="1"
         stop-color="#FFA208"
         id="stop5-8" /></linearGradient><linearGradient
       id="paint0_linear"
       x1="4.5768099"
       y1="45.678799"
       x2="42.3731"
       y2="4.1875501"
       gradientUnits="userSpaceOnUse"
       gradientTransform="matrix(1.4285714,0,0,1.4285714,-8.757358,-11.86756)"><stop
         stop-color="#FF5508"
         id="stop2-4" /><stop
         offset="1"
         stop-color="#FFA208"
         id="stop3-5" /></linearGradient><linearGradient
       inkscape:collect="always"
       xlink:href="#linearGradient2"
       id="linearGradient3"
       x1="3.5059981e-06"
       y1="24.000328"
       x2="47.99999"
       y2="24.000328"
       gradientUnits="userSpaceOnUse" /><linearGradient
       inkscape:collect="always"
       xlink:href="#linearGradient9"
       id="linearGradient4"
       gradientUnits="userSpaceOnUse"
       x1="24.830658"
       y1="1.9953237"
       x2="25.703499"
       y2="56.790985" /></defs><metadata
     id="metadata1"><rdf:RDF><cc:Work
         rdf:about=""><dc:title>folder-docker</dc:title><dc:date>23-07-2025</dc:date><dc:description>Beautyline style Docker folder icon</dc:description><cc:license
           rdf:resource="http://creativecommons.org/licenses/by-nc-sa/4.0/" /></cc:Work><cc:License
         rdf:about="http://creativecommons.org/licenses/by-nc-sa/4.0/"><cc:permits
           rdf:resource="http://creativecommons.org/ns#Reproduction" /><cc:permits
           rdf:resource="http://creativecommons.org/ns#Distribution" /><cc:requires
           rdf:resource="http://creativecommons.org/ns#Notice" /><cc:requires
           rdf:resource="http://creativecommons.org/ns#Attribution" /><cc:prohibits
           rdf:resource="http://creativecommons.org/ns#CommercialUse" /><cc:permits
           rdf:resource="http://creativecommons.org/ns#DerivativeWorks" /><cc:requires
           rdf:resource="http://creativecommons.org/ns#ShareAlike" /></cc:License></rdf:RDF></metadata></svg>
