<?xml version="1.0" encoding="UTF-8" standalone="no"?>
<svg
   width="48"
   height="48"
   viewBox="0 0 48 48"
   fill="none"
   version="1.1"
   id="svg28"
   sodipodi:docname="folder-iso-images.svg"
   inkscape:version="1.4.2 (ebf0e940d0, 2025-05-08)"
   xml:space="preserve"
   xmlns:inkscape="http://www.inkscape.org/namespaces/inkscape"
   xmlns:sodipodi="http://sodipodi.sourceforge.net/DTD/sodipodi-0.dtd"
   xmlns="http://www.w3.org/2000/svg"
   xmlns:svg="http://www.w3.org/2000/svg"
   xmlns:rdf="http://www.w3.org/1999/02/22-rdf-syntax-ns#"
   xmlns:cc="http://creativecommons.org/ns#"><sodipodi:namedview
     id="namedview11"
     pagecolor="#3f4354"
     bordercolor="#000000"
     borderopacity="0.5"
     inkscape:showpageshadow="2"
     inkscape:pageopacity="0.0"
     inkscape:pagecheckerboard="true"
     inkscape:deskcolor="#2b2f40"
     showgrid="true"
     inkscape:zoom="10.768647"
     inkscape:cx="24.004873"
     inkscape:cy="24.004873"
     inkscape:window-width="1920"
     inkscape:window-height="1048"
     inkscape:window-x="0"
     inkscape:window-y="0"
     inkscape:window-maximized="1"
     inkscape:current-layer="g35076"
     inkscape:clip-to-page="false"
     labelstyle="default" /><g
     clip-path="url(#clip0_647_62)"
     id="g6" /><defs
     id="defs26"><linearGradient
       id="paint0_linear_647_62"
       x1="63.810398"
       y1="5.34233"
       x2="10.9272"
       y2="67.497002"
       gradientUnits="userSpaceOnUse"><stop
         stop-color="#FE7970"
         id="stop8" /><stop
         offset="1"
         stop-color="#DC3282"
         id="stop10" /></linearGradient><linearGradient
       id="paint1_linear_647_62"
       x1="44.195202"
       y1="22.788099"
       x2="18.5145"
       y2="46.892899"
       gradientUnits="userSpaceOnUse"
       gradientTransform="translate(-20)"><stop
         stop-color="#FE7970"
         id="stop13" /><stop
         offset="1"
         stop-color="#DC3282"
         id="stop15" /></linearGradient><linearGradient
       id="paint2_linear_647_62"
       x1="44.195202"
       y1="22.788099"
       x2="18.5145"
       y2="46.892899"
       gradientUnits="userSpaceOnUse"
       gradientTransform="translate(-20)"><stop
         stop-color="#FE7970"
         id="stop18" /><stop
         offset="1"
         stop-color="#DC3282"
         id="stop20" /></linearGradient><clipPath
       id="clip0_647_62"><rect
         width="64"
         height="64"
         fill="#ffffff"
         id="rect23"
         x="0"
         y="0" /></clipPath><linearGradient
       id="paint1_linear"
       x1="-394.95786"
       y1="-595.82025"
       x2="-1279.4076"
       y2="288.62952"
       gradientUnits="userSpaceOnUse"
       gradientTransform="matrix(0.02261293,0,0,0.02261293,51.482647,39.580003)"><stop
         stop-color="#FE7970"
         id="stop11" /><stop
         offset="1"
         stop-color="#DC3282"
         id="stop13-3" /></linearGradient></defs><g
     id="g35076"
     transform="matrix(0.74999937,0,0,0.74999937,2.2249269e-5,2.0432058e-5)"><path
       d="M 8.27138,5.27874 C 10.8465,4.80105 13.4931,5.10167 16.0995,5.01931 c 2.6823,0.09471 5.5838,-0.40768 8.0292,0.8936 2.4946,1.34246 4.0727,3.67736 6.241,5.37809 0.7779,0.523 1.7525,0.7618 2.7137,0.733 9.2408,0 18.4816,0 27.7224,0.0371 1.2562,-0.1359 2.6689,0.4365 3.04,1.6224 0.6438,1.5196 -0.8271,3.2821 -2.5751,3.1421 -9.5269,0.0082 -19.0583,-0.033 -28.5852,-0.0495 -2.3069,0.0042 -4.6048,-0.8236 -6.2678,-2.3019 -1.4485,-1.2889 -2.7674,-2.6973 -4.2158,-3.978 C 21.5402,9.91559 20.6014,9.73028 19.7117,9.77146 16.6404,9.79617 13.5646,9.75087 10.4933,9.79205 7.60526,9.85794 5.11512,12.2917 5.20006,14.9519 c 0,11.3862 -0.0089,22.7724 -0.0045,34.1628 -0.07153,2.7261 2.58849,5.1763 5.55251,5.1145 14.163,0.0082 28.3259,0.0082 42.4889,-0.0041 2.964,0.0535 5.6285,-2.4132 5.5301,-5.1516 0.009,-6.4447 0.0045,-12.8852 -0.0044,-19.3298 0.0134,-0.7536 -0.0134,-1.5978 0.5588,-2.2073 0.9254,-1.1612 3.0132,-1.2271 4.0102,-0.1112 0.6527,0.6095 0.6527,1.5113 0.6482,2.3102 -0.0313,6.6053 0.0224,13.2105 -0.0268,19.8158 -0.085,4.9786 -4.8864,9.3437 -10.2735,9.426 -14.3105,0.0371 -28.621,0.0206 -42.9315,0.0083 C 6.61275,59.0266 2.60259,56.6506 0.948459,53.1544 0.157157,51.6307 -0.012726,49.9177 6.86e-4,48.254 0.036446,36.9954 -0.035084,25.7369 0.027506,14.4824 0.112446,10.1585 3.706837,6.21352 8.271347,5.27874 Z"
       fill="url(#paint0_linear_647_62)"
       id="path2"
       style="fill:url(#paint0_linear_647_62)" /><g
       id="g1042"
       transform="matrix(1.4666679,0,0,1.4666679,-15.742232,-17.487969)"><path
         d="m 32.551493,26.482702 c -5.28609,0 -9.62406,4.338045 -9.62406,9.62406 0,5.286015 4.33797,9.62406 9.62406,9.62406 5.286015,0 9.62406,-4.338045 9.62406,-9.62406 0,-5.286015 -4.338045,-9.62406 -9.62406,-9.62406 z m 0,18.1203 c -4.664376,0 -8.49624,-3.831879 -8.49624,-8.49624 0,-4.664361 3.831864,-8.49624 8.49624,-8.49624 4.664361,0 8.49624,3.831879 8.49624,8.49624 0,4.664361 -3.831879,8.49624 -8.49624,8.49624 z m -2.192331,-3.301053 c -0.670676,-0.28421 -1.274285,-0.691127 -1.792933,-1.209923 -0.518826,-0.518648 -0.925788,-1.122257 -1.209953,-1.792933 -0.121163,-0.287519 -0.454903,-0.421354 -0.739023,-0.299549 -0.286932,0.12105 -0.420707,0.45203 -0.299595,0.738947 0.340858,0.805113 0.828783,1.528722 1.451099,2.150977 0.622285,0.622406 1.345894,1.110226 2.151007,1.451129 0.286465,0.12135 0.617894,-0.0125 0.738947,-0.2997 0.1212,-0.286766 -0.01262,-0.617744 -0.299549,-0.738948 z m 8.426166,-7.826916 C 38.444425,32.66992 37.956605,31.946311 37.334199,31.323905 36.711944,30.70165 35.988335,30.21383 35.183222,29.872927 c -0.285263,-0.1206 -0.617894,0.01162 -0.738947,0.299549 -0.1212,0.286917 0.01262,0.617895 0.299549,0.738947 0.670676,0.284212 1.274285,0.691279 1.792933,1.209925 0.518796,0.518798 0.925713,1.122407 1.209923,1.793083 0.1215,0.28782 0.453384,0.420451 0.739099,0.299549 0.286916,-0.12105 0.420751,-0.45203 0.299549,-0.738947 z m -6.233835,-1.31564 c -2.176391,0 -3.947369,1.770978 -3.947369,3.947369 0,2.176391 1.770978,3.947369 3.947369,3.947369 2.176391,0 3.947369,-1.770978 3.947369,-3.947369 0,-2.176391 -1.770978,-3.947369 -3.947369,-3.947369 z m 0,6.766918 c -1.554586,0 -2.819549,-1.264963 -2.819549,-2.819549 0,-1.554586 1.264963,-2.819549 2.819549,-2.819549 1.554586,0 2.819549,1.264963 2.819549,2.819549 0,1.554586 -1.264963,2.819549 -2.819549,2.819549 z m 0,-4.511278 c -0.932932,0 -1.691729,0.758797 -1.691729,1.691729 0,0.932932 0.758797,1.691729 1.691729,1.691729 0.932932,0 1.691729,-0.758797 1.691729,-1.691729 0,-0.932932 -0.758797,-1.691729 -1.691729,-1.691729 z m 0,2.255639 c -0.311127,0 -0.56391,-0.252783 -0.56391,-0.56391 0,-0.311127 0.252783,-0.56391 0.56391,-0.56391 0.311127,0 0.56391,0.252783 0.56391,0.56391 0,0.311127 -0.252783,0.56391 -0.56391,0.56391 z"
         fill="url(#paint1_linear)"
         stroke="url(#paint2_linear)"
         stroke-width="0.75188"
         id="path4-6"
         style="fill:url(#paint1_linear);stroke:url(#paint1_linear)" /></g></g><metadata
     id="metadata5"><rdf:RDF><cc:Work
         rdf:about=""><cc:license
           rdf:resource="http://creativecommons.org/licenses/by-nc-sa/4.0/" /></cc:Work><cc:License
         rdf:about="http://creativecommons.org/licenses/by-nc-sa/4.0/"><cc:permits
           rdf:resource="http://creativecommons.org/ns#Reproduction" /><cc:permits
           rdf:resource="http://creativecommons.org/ns#Distribution" /><cc:requires
           rdf:resource="http://creativecommons.org/ns#Notice" /><cc:requires
           rdf:resource="http://creativecommons.org/ns#Attribution" /><cc:prohibits
           rdf:resource="http://creativecommons.org/ns#CommercialUse" /><cc:permits
           rdf:resource="http://creativecommons.org/ns#DerivativeWorks" /><cc:requires
           rdf:resource="http://creativecommons.org/ns#ShareAlike" /></cc:License></rdf:RDF></metadata></svg>
