<?xml version="1.0" encoding="UTF-8" standalone="no"?>
<svg
   width="48"
   height="48"
   viewBox="0 0 48 48"
   fill="none"
   version="2"
   id="svg1"
   sodipodi:docname="folder-tar.svg"
   inkscape:version="1.4.2 (ebf0e940d0, 2025-05-08)"
   xml:space="preserve"
   xmlns:inkscape="http://www.inkscape.org/namespaces/inkscape"
   xmlns:sodipodi="http://sodipodi.sourceforge.net/DTD/sodipodi-0.dtd"
   xmlns:xlink="http://www.w3.org/1999/xlink"
   xmlns="http://www.w3.org/2000/svg"
   xmlns:svg="http://www.w3.org/2000/svg"
   xmlns:rdf="http://www.w3.org/1999/02/22-rdf-syntax-ns#"
   xmlns:cc="http://creativecommons.org/ns#"
   xmlns:dc="http://purl.org/dc/elements/1.1/"><title
     id="title1">folder-</title><sodipodi:namedview
     id="namedview1"
     pagecolor="#3f4354"
     bordercolor="#000000"
     borderopacity="0.5"
     inkscape:showpageshadow="1"
     inkscape:pageopacity="0"
     inkscape:pagecheckerboard="1"
     inkscape:deskcolor="#2b2f40"
     showgrid="false"
     inkscape:zoom="17.645833"
     inkscape:cx="24"
     inkscape:cy="24"
     inkscape:window-width="1920"
     inkscape:window-height="1048"
     inkscape:window-x="0"
     inkscape:window-y="0"
     inkscape:window-maximized="1"
     inkscape:current-layer="g11" /><g
     id="g1"><g
       id="g11"
       transform="matrix(0.74999965,0,0,0.74999965,3.7743922e-7,1.908614e-5)"
       style="fill:url(#linearGradient3)"><path
         d="M 8.24717,5.28688 C 10.8404,4.80099 13.5052,5.09747 16.1297,5.01923 18.8839,5.09747 21.902,4.61569 24.37,6.03631 c 2.3518,1.37121 3.8988,3.59891 6.0002,5.24599 0.7735,0.5518 1.7751,0.7577 2.7453,0.7412 9.4028,0 18.8055,0.0124 28.2083,0.0659 1.6185,-0.1277 3.018,1.4165 2.6022,2.8577 -0.2281,1.1159 -1.404,1.9436 -2.6291,1.8695 C 51.7466,16.8289 42.1963,16.7836 32.646,16.7754 30.4597,16.763 28.2778,16.0177 26.6547,14.663 24.6696,13.1765 23.3506,10.8953 21.0033,9.87817 17.7483,9.63934 14.462,9.84523 11.1981,9.77522 8.9536,9.63934 6.7091,10.8252 5.75228,12.7029 c -0.65725,1.1901 -0.541,2.5572 -0.54994,3.846 0.02235,10.8503 -0.00895,21.7005 0.01341,32.5549 -0.03577,2.0342 1.4084,3.9777 3.4517,4.7354 1.21614,0.4777 2.56645,0.3871 3.85855,0.3953 13.5833,-0.0206 27.1665,0.0083 40.7453,-0.0165 2.1014,0.0083 4.1134,-1.2023 4.9898,-2.9524 0.7019,-1.3135 0.5007,-2.8124 0.5275,-4.2248 0.009,-6.0284 -0.0312,-12.0567 0.0179,-18.0851 -0.0357,-1.3548 1.3995,-2.4954 2.8481,-2.3183 1.4219,0.0865 2.486,1.3712 2.325,2.6601 0,6.7366 0.0313,13.4732 -0.0134,20.214 C 63.9036,54.498 59.1016,58.8917 53.696,58.974 39.384,59.0234 25.0675,58.9864 10.7555,58.9905 6.61521,59.0317 2.60462,56.6516 0.945834,53.1557 0.163389,51.6362 -0.0243975,49.9356 0.00242916,48.272 0.0381981,37.01 -0.0243977,25.7397 0.0337268,14.4777 0.114207,10.1664 3.70004,6.22985 8.24717,5.28688 Z"
         id="path111"
         style="fill:url(#linearGradient2);fill-opacity:1;stroke:url(#linearGradient30);stroke-width:0;stroke-dasharray:none" /></g><g
       style="fill:none"
       id="g2"
       transform="matrix(1.596455,0,0,1.596455,11.242032,13.835386)"><path
         d="m 6.38391,8.58335 v 0.0833 c 0,0.44205 0.17028,0.86595 0.47336,1.1785 0.30308,0.31265 0.71418,0.48815 1.14279,0.48815 0.42865,0 0.83971,-0.1755 1.14283,-0.48815 C 9.44597,9.5326 9.61625,9.1087 9.61625,8.66665 V 8.58335 C 9.61625,8.26135 9.36282,8 9.05058,8 h -2.101 C 6.63734,8 6.38391,8.26135 6.38391,8.58335 Z"
         fill="url(#paint0_linear_448_579)"
         id="path1"
         style="fill:url(#paint0_linear_448_579)" /><path
         fill-rule="evenodd"
         clip-rule="evenodd"
         d="M 13.6432,1.51369 C 13.086,0.938747 12.389,0.698982 11.5935,0.588652 10.8343,0.483346 9.87393,0.48337 8.70486,0.483399 H 7.99984 l -1.61716,0.002002 -0.0049,2.1e-5 C 5.47882,0.492058 4.70988,0.518152 4.07257,0.643982 3.41218,0.774367 2.83231,1.02266 2.35649,1.5137 1.79897,2.08829 1.56647,2.80712 1.45948,3.62743 1.35737,4.4104 1.35739,5.40072 1.35742,6.60637 v 2.7874 c -3e-5,1.20563 -5e-5,2.19593 0.10206,2.97893 0.10699,0.8203 0.33949,1.5391 0.89701,2.1137 0.55718,0.575 1.25424,0.8148 2.04969,0.9251 0.75924,0.1053 1.71958,0.1053 2.88864,0.1052 h 1.41004 c 1.16907,10e-5 2.12944,10e-5 2.88864,-0.1052 0.7953,-0.1103 1.4923,-0.35 2.0494,-0.9248 l -0.5825,-0.6013 0.583,0.6008 c 0.5574,-0.5746 0.7898,-1.2933 0.8968,-2.1135 0.1021,-0.783 0.1021,-1.7733 0.1021,-2.97893 v -2.7874 c 0,-1.2056 0,-2.19597 -0.1021,-2.97894 -0.107,-0.82031 -0.3395,-1.53914 -0.897,-2.11374 z M 8.64629,2.1834 c 1.24223,0 2.09101,0.00181 2.72751,0.09008 0.6127,0.08499 0.9037,0.23583 1.1035,0.44204 l 5e-4,5.1e-4 c 0.2,0.20603 0.3462,0.50611 0.4286,1.13801 0.0856,0.65633 0.0874,1.53163 0.0874,2.81268 v 2.6667 c 0,1.28098 -0.0018,2.15638 -0.0874,2.81268 -0.0824,0.6319 -0.2286,0.932 -0.4286,1.138 l -5e-4,5e-4 c -0.1998,0.2062 -0.4908,0.3571 -1.1035,0.4421 -0.6365,0.0882 -1.48528,0.09 -2.72751,0.09 h -1.2929 c -1.24223,0 -2.091,-0.0018 -2.72747,-0.09 C 4.01317,13.6417 3.72218,13.4908 3.5224,13.2846 l -5e-4,-5e-4 C 3.32194,13.0781 3.17567,12.778 3.09326,12.1461 3.00766,11.4898 3.00591,10.6144 3.00591,9.33342 v -2.6667 c 0,-1.28105 0.00175,-2.15635 0.08735,-2.81268 C 3.17567,3.22214 3.32194,2.92206 3.5219,2.71603 l 5.4e-4,-5.5e-4 C 3.69561,2.53671 3.93472,2.40207 4.38255,2.31365 4.78136,2.23491 5.29322,2.20236 5.99141,2.19016 6.20935,2.18635 6.32459,2.4099 6.47824,2.5694 6.57327,2.66673 6.72648,2.66673 7.03029,2.66673 h 0.9697 v 1.33334 h -0.9697 c -0.30448,0 -0.45702,0 -0.55205,0.09733 -0.0944,0.098 -0.0944,0.256 -0.0944,0.56933 0,0.31334 0,0.47134 0.0944,0.56934 0.09503,0.09735 0.24824,0.09735 0.55205,0.09735 h 0.9697 v 0.66665 c 0,0.314 0,0.47135 0.0944,0.56935 0.09503,0.0973 0.24761,0.0973 0.55209,0.0973 h 0.3232 c 0.30449,0 0.45707,0 0.5521,-0.0973 0.0944,-0.098 0.0944,-0.25535 0.0944,-0.56935 0,-0.314 0,-0.47135 -0.0944,-0.56935 C 9.42675,5.33342 9.27354,5.33342 8.96968,5.33342 H 7.99999 V 4.00007 h 0.96969 c 0.30449,0 0.45707,0 0.5521,-0.09734 0.0944,-0.098 0.0944,-0.25533 0.0944,-0.56933 0,-0.314 0,-0.47133 -0.0944,-0.56933 C 9.42675,2.66673 9.27354,2.66673 8.96968,2.66673 H 7.99999 c 0,-0.26693 0.20984,-0.48333 0.4687,-0.48333 z"
         fill="url(#paint1_linear_448_579)"
         id="path2"
         style="fill:url(#paint1_linear_448_579)" /></g></g><defs
     id="defs1"><linearGradient
       id="paint0_linear_448_579"
       x1="14.6423"
       y1="15.5166"
       x2="2.21116"
       y2="4.40824"
       gradientUnits="userSpaceOnUse"><stop
         stop-color="#731FFF"
         id="stop2" /><stop
         offset="0.905415"
         stop-color="#EB1AFF"
         id="stop3" /></linearGradient><linearGradient
       id="paint1_linear_448_579"
       x1="14.6423"
       y1="15.5167"
       x2="2.21109"
       y2="4.40831"
       gradientUnits="userSpaceOnUse"><stop
         stop-color="#731FFF"
         id="stop4" /><stop
         offset="0.905415"
         stop-color="#EB1AFF"
         id="stop5" /></linearGradient><linearGradient
       inkscape:collect="always"
       xlink:href="#paint1_linear_448_579"
       id="linearGradient2"
       gradientUnits="userSpaceOnUse"
       x1="64.000031"
       y1="58.999977"
       x2="4.0433235"
       y2="13.086647" /></defs><metadata
     id="metadata1"><rdf:RDF><cc:Work
         rdf:about=""><dc:title>folder-</dc:title><dc:date>26-07-2025</dc:date><dc:description>Beautyline style * folder icon</dc:description><cc:license
           rdf:resource="http://creativecommons.org/licenses/by-nc-sa/4.0/" /></cc:Work><cc:License
         rdf:about="http://creativecommons.org/licenses/by-nc-sa/4.0/"><cc:permits
           rdf:resource="http://creativecommons.org/ns#Reproduction" /><cc:permits
           rdf:resource="http://creativecommons.org/ns#Distribution" /><cc:requires
           rdf:resource="http://creativecommons.org/ns#Notice" /><cc:requires
           rdf:resource="http://creativecommons.org/ns#Attribution" /><cc:prohibits
           rdf:resource="http://creativecommons.org/ns#CommercialUse" /><cc:permits
           rdf:resource="http://creativecommons.org/ns#DerivativeWorks" /><cc:requires
           rdf:resource="http://creativecommons.org/ns#ShareAlike" /></cc:License></rdf:RDF></metadata></svg>
