<?xml version="1.0" encoding="UTF-8" standalone="no"?>
<svg
   width="48"
   height="48"
   viewBox="0 0 48 48"
   fill="none"
   version="2"
   id="svg1"
   sodipodi:docname="folder-cloud.svg"
   inkscape:version="1.4.2 (ebf0e940d0, 2025-05-08)"
   xml:space="preserve"
   xmlns:inkscape="http://www.inkscape.org/namespaces/inkscape"
   xmlns:sodipodi="http://sodipodi.sourceforge.net/DTD/sodipodi-0.dtd"
   xmlns:xlink="http://www.w3.org/1999/xlink"
   xmlns="http://www.w3.org/2000/svg"
   xmlns:svg="http://www.w3.org/2000/svg"
   xmlns:rdf="http://www.w3.org/1999/02/22-rdf-syntax-ns#"
   xmlns:cc="http://creativecommons.org/ns#"
   xmlns:dc="http://purl.org/dc/elements/1.1/"><title
     id="title1">folder-cloud</title><sodipodi:namedview
     id="namedview1"
     pagecolor="#3f4354"
     bordercolor="#000000"
     borderopacity="0.5"
     inkscape:showpageshadow="1"
     inkscape:pageopacity="0"
     inkscape:pagecheckerboard="1"
     inkscape:deskcolor="#2b2f40"
     showgrid="false"
     inkscape:zoom="15.229167"
     inkscape:cx="24"
     inkscape:cy="24"
     inkscape:window-width="1920"
     inkscape:window-height="1048"
     inkscape:window-x="0"
     inkscape:window-y="0"
     inkscape:window-maximized="1"
     inkscape:current-layer="g12" /><g
     id="g1"><g
       id="g11"
       transform="matrix(0.74999965,0,0,0.74999965,3.7743922e-7,1.908614e-5)"><path
         d="M 8.24717,5.28688 C 10.8404,4.80099 13.5052,5.09747 16.1297,5.01923 18.8839,5.09747 21.902,4.61569 24.37,6.03631 c 2.3518,1.37121 3.8988,3.59891 6.0002,5.24599 0.7735,0.5518 1.7751,0.7577 2.7453,0.7412 9.4028,0 18.8055,0.0124 28.2083,0.0659 1.6185,-0.1277 3.018,1.4165 2.6022,2.8577 -0.2281,1.1159 -1.404,1.9436 -2.6291,1.8695 C 51.7466,16.8289 42.1963,16.7836 32.646,16.7754 30.4597,16.763 28.2778,16.0177 26.6547,14.663 24.6696,13.1765 23.3506,10.8953 21.0033,9.87817 17.7483,9.63934 14.462,9.84523 11.1981,9.77522 8.9536,9.63934 6.7091,10.8252 5.75228,12.7029 c -0.65725,1.1901 -0.541,2.5572 -0.54994,3.846 0.02235,10.8503 -0.00895,21.7005 0.01341,32.5549 -0.03577,2.0342 1.4084,3.9777 3.4517,4.7354 1.21614,0.4777 2.56645,0.3871 3.85855,0.3953 13.5833,-0.0206 27.1665,0.0083 40.7453,-0.0165 2.1014,0.0083 4.1134,-1.2023 4.9898,-2.9524 0.7019,-1.3135 0.5007,-2.8124 0.5275,-4.2248 0.009,-6.0284 -0.0312,-12.0567 0.0179,-18.0851 -0.0357,-1.3548 1.3995,-2.4954 2.8481,-2.3183 1.4219,0.0865 2.486,1.3712 2.325,2.6601 0,6.7366 0.0313,13.4732 -0.0134,20.214 C 63.9036,54.498 59.1016,58.8917 53.696,58.974 39.384,59.0234 25.0675,58.9864 10.7555,58.9905 6.61521,59.0317 2.60462,56.6516 0.945834,53.1557 0.163389,51.6362 -0.0243975,49.9356 0.00242916,48.272 0.0381981,37.01 -0.0243977,25.7397 0.0337268,14.4777 0.114207,10.1664 3.70004,6.22985 8.24717,5.28688 Z"
         id="path111"
         style="fill:url(#linearGradient30);fill-opacity:1;stroke:url(#linearGradient30);stroke-width:0;stroke-dasharray:none" /></g><g
       style="fill:none"
       id="g12"
       transform="matrix(1.5714328,0,0,1.5714328,11.442014,14.567477)"><path
         fill-rule="evenodd"
         clip-rule="evenodd"
         d="m 11.486,4.73659 c 1.0388,0.289 1.9507,0.9178 2.5901,1.786 0.3813,0.51745 0.6534,1.10705 0.7996,1.73295 0.1462,0.6259 0.1636,1.275 0.0511,1.90786 -0.1115,0.6366 -0.3537,1.2432 -0.7115,1.7814 -0.3578,0.5383 -0.8233,0.9965 -1.3672,1.3457 -0.1343,0.0832 -0.2885,0.1289 -0.4464,0.1323 -0.158,0.0033 -0.314,-0.0357 -0.4517,-0.1131 -0.1378,-0.0774 -0.2522,-0.1904 -0.3315,-0.3271 -0.0792,-0.1367 -0.1204,-0.2921 -0.1191,-0.4501 -4e-4,-0.1451 0.0354,-0.288 0.104,-0.4159 0.0686,-0.1278 0.1679,-0.2366 0.289,-0.3165 0.3393,-0.2156 0.6306,-0.4987 0.8559,-0.8316 0.2252,-0.3329 0.3797,-0.7086 0.4538,-1.10366 C 13.2737,9.46389 13.263,9.05254 13.1708,8.65582 13.0786,8.25909 12.9067,7.88524 12.6656,7.55699 12.4238,7.22922 12.1189,6.95322 11.7686,6.74532 11.4184,6.53739 11.0301,6.40179 10.6265,6.34649 10.4356,6.31997 10.2586,6.23139 10.1229,6.09444 9.98722,5.95747 9.9003,5.77969 9.87553,5.58849 9.76538,4.79034 9.34302,4.06854 8.7012,3.58149 8.17802,3.18542 7.53933,2.97197 6.88315,2.97392 6.635,2.97434 6.38772,3.00309 6.14612,3.05964 5.63652,3.18289 5.16858,3.43867 4.7897,3.80107 4.4108,4.16344 4.13447,4.61957 3.9887,5.12319 3.85615,5.57329 3.82985,6.04802 3.9119,6.50999 3.99398,6.97199 4.18213,7.40864 4.46158,7.78557 4.54695,7.90067 4.60272,8.03499 4.62402,8.17669 4.6453,8.31842 4.63142,8.46319 4.58362,8.59832 4.53582,8.73342 4.45557,8.85469 4.3499,8.95152 4.24422,9.04832 4.11637,9.11767 3.97762,9.15347 3.7684,9.20764 3.57202,9.30279 3.39987,9.43342 3.22772,9.56407 3.0832,9.72757 2.97473,9.91449 2.86625,10.1014 2.79595,10.308 2.76793,10.5223 c -0.02803,0.2142 -0.01323,0.432 0.04352,0.6405 0.1083,0.3524 0.3291,0.6596 0.62858,0.8747 0.2995,0.215 0.66117,0.326 1.02972,0.3159 H 5.9601 c 0.23198,0 0.45445,0.0922 0.61848,0.2562 0.16402,0.164 0.25617,0.3865 0.25617,0.6185 0,0.2319 -0.09215,0.4544 -0.25617,0.6184 -0.16403,0.1641 -0.3865,0.2562 -0.61848,0.2562 H 4.46975 C 3.71067,14.1174 2.9684,13.8784 2.36049,13.4236 1.75256,12.9689 1.31374,12.3243 1.1135,11.5919 0.931355,10.9079 0.969185,10.1839 1.22162,9.52254 1.47406,8.86119 1.92829,8.29612 2.5199,7.90742 2.23676,7.26477 2.09912,6.56749 2.11685,5.86544 2.13458,5.16339 2.30723,4.47394 2.62245,3.84639 2.93768,3.21887 3.38767,2.66872 3.94027,2.23536 4.49287,1.80199 5.1344,1.49609 5.819,1.33954 7.0194,1.06539 8.2793,1.26579 9.3354,1.89886 10.3915,2.53192 11.162,3.54867 11.486,4.73659 Z M 8.63715,12.314 c -0.49415,0 -0.89473,0.4005 -0.89473,0.8947 0,0.4941 0.40058,0.8947 0.89473,0.8947 h 0.96813 c 0.49412,0 0.89472,-0.4006 0.89472,-0.8947 0,-0.4942 -0.4006,-0.8947 -0.89472,-0.8947 z"
         fill="url(#paint0_linear_448_487)"
         id="path1"
         style="fill:url(#paint0_linear_448_487)" /></g><rect
       style="fill:none;fill-opacity:1;fill-rule:evenodd;stroke:#000000;stroke-width:3.9;stroke-linejoin:round;stroke-dasharray:none;stroke-opacity:0;paint-order:fill markers stroke"
       id="rect1"
       width="44.075188"
       height="31.645638"
       x="1.9758538"
       y="10.78429" /></g><defs
     id="defs1"><linearGradient
       id="linearGradient6"
       inkscape:collect="always"
       inkscape:label="1"><stop
         style="stop-color:#5570ff;stop-opacity:1;"
         offset="0"
         id="stop5" /><stop
         style="stop-color:#4dd3ff;stop-opacity:1;"
         offset="1"
         id="stop6" /></linearGradient><linearGradient
       inkscape:collect="always"
       xlink:href="#linearGradient6"
       id="linearGradient30"
       gradientUnits="userSpaceOnUse"
       gradientTransform="matrix(1.421128,-0.01199146,0.01198687,1.4216711,-101.30678,-100.47471)"
       x1="92.850746"
       y1="112.95728"
       x2="93.725525"
       y2="74.981209" /><linearGradient
       id="paint1_linear"
       x1="4.5768099"
       y1="45.678902"
       x2="42.3731"
       y2="4.1876402"
       gradientUnits="userSpaceOnUse"
       gradientTransform="matrix(1.4285714,0,0,1.4285714,-8.757358,-11.86756)"><stop
         stop-color="#FF5508"
         id="stop4-7" /><stop
         offset="1"
         stop-color="#FFA208"
         id="stop5-8" /></linearGradient><linearGradient
       id="paint0_linear"
       x1="4.5768099"
       y1="45.678799"
       x2="42.3731"
       y2="4.1875501"
       gradientUnits="userSpaceOnUse"
       gradientTransform="matrix(1.4285714,0,0,1.4285714,-8.757358,-11.86756)"><stop
         stop-color="#FF5508"
         id="stop2-4" /><stop
         offset="1"
         stop-color="#FFA208"
         id="stop3-5" /></linearGradient><linearGradient
       id="paint0_linear_448_487"
       x1="8"
       y1="14.1034"
       x2="8"
       y2="1.21973"
       gradientUnits="userSpaceOnUse"><stop
         stop-color="#5570FF"
         id="stop1" /><stop
         offset="1"
         stop-color="#4DD3FF"
         id="stop2" /></linearGradient></defs><metadata
     id="metadata1"><rdf:RDF><cc:Work
         rdf:about=""><dc:title>folder-cloud</dc:title><dc:date>22-07-2025</dc:date><dc:description>Beautyline style cloud folder icon</dc:description><cc:license
           rdf:resource="http://creativecommons.org/licenses/by-nc-sa/4.0/" /></cc:Work><cc:License
         rdf:about="http://creativecommons.org/licenses/by-nc-sa/4.0/"><cc:permits
           rdf:resource="http://creativecommons.org/ns#Reproduction" /><cc:permits
           rdf:resource="http://creativecommons.org/ns#Distribution" /><cc:requires
           rdf:resource="http://creativecommons.org/ns#Notice" /><cc:requires
           rdf:resource="http://creativecommons.org/ns#Attribution" /><cc:prohibits
           rdf:resource="http://creativecommons.org/ns#CommercialUse" /><cc:permits
           rdf:resource="http://creativecommons.org/ns#DerivativeWorks" /><cc:requires
           rdf:resource="http://creativecommons.org/ns#ShareAlike" /></cc:License></rdf:RDF></metadata></svg>
