<?xml version="1.0" encoding="UTF-8" standalone="no"?>
<svg
   width="48"
   height="48"
   viewBox="0 0 48 48"
   fill="none"
   version="2"
   id="svg1"
   sodipodi:docname="folder-library.svg"
   inkscape:version="1.4.2 (ebf0e940d0, 2025-05-08)"
   xml:space="preserve"
   xmlns:inkscape="http://www.inkscape.org/namespaces/inkscape"
   xmlns:sodipodi="http://sodipodi.sourceforge.net/DTD/sodipodi-0.dtd"
   xmlns:xlink="http://www.w3.org/1999/xlink"
   xmlns="http://www.w3.org/2000/svg"
   xmlns:svg="http://www.w3.org/2000/svg"
   xmlns:rdf="http://www.w3.org/1999/02/22-rdf-syntax-ns#"
   xmlns:cc="http://creativecommons.org/ns#"
   xmlns:dc="http://purl.org/dc/elements/1.1/"><title
     id="title1">folder-library</title><sodipodi:namedview
     id="namedview1"
     pagecolor="#3f4354"
     bordercolor="#000000"
     borderopacity="0.5"
     inkscape:showpageshadow="1"
     inkscape:pageopacity="0"
     inkscape:pagecheckerboard="1"
     inkscape:deskcolor="#2b2f40"
     showgrid="false"
     inkscape:zoom="17.6875"
     inkscape:cx="23.971731"
     inkscape:cy="24"
     inkscape:window-width="1920"
     inkscape:window-height="1048"
     inkscape:window-x="0"
     inkscape:window-y="0"
     inkscape:window-maximized="1"
     inkscape:current-layer="g11" /><g
     id="g1"><g
       id="g11"
       transform="matrix(0.74999965,0,0,0.74999965,3.7743922e-7,1.908614e-5)"
       style="fill:url(#linearGradient3)"><path
         d="M 8.24717,5.28688 C 10.8404,4.80099 13.5052,5.09747 16.1297,5.01923 18.8839,5.09747 21.902,4.61569 24.37,6.03631 c 2.3518,1.37121 3.8988,3.59891 6.0002,5.24599 0.7735,0.5518 1.7751,0.7577 2.7453,0.7412 9.4028,0 18.8055,0.0124 28.2083,0.0659 1.6185,-0.1277 3.018,1.4165 2.6022,2.8577 -0.2281,1.1159 -1.404,1.9436 -2.6291,1.8695 C 51.7466,16.8289 42.1963,16.7836 32.646,16.7754 30.4597,16.763 28.2778,16.0177 26.6547,14.663 24.6696,13.1765 23.3506,10.8953 21.0033,9.87817 17.7483,9.63934 14.462,9.84523 11.1981,9.77522 8.9536,9.63934 6.7091,10.8252 5.75228,12.7029 c -0.65725,1.1901 -0.541,2.5572 -0.54994,3.846 0.02235,10.8503 -0.00895,21.7005 0.01341,32.5549 -0.03577,2.0342 1.4084,3.9777 3.4517,4.7354 1.21614,0.4777 2.56645,0.3871 3.85855,0.3953 13.5833,-0.0206 27.1665,0.0083 40.7453,-0.0165 2.1014,0.0083 4.1134,-1.2023 4.9898,-2.9524 0.7019,-1.3135 0.5007,-2.8124 0.5275,-4.2248 0.009,-6.0284 -0.0312,-12.0567 0.0179,-18.0851 -0.0357,-1.3548 1.3995,-2.4954 2.8481,-2.3183 1.4219,0.0865 2.486,1.3712 2.325,2.6601 0,6.7366 0.0313,13.4732 -0.0134,20.214 C 63.9036,54.498 59.1016,58.8917 53.696,58.974 39.384,59.0234 25.0675,58.9864 10.7555,58.9905 6.61521,59.0317 2.60462,56.6516 0.945834,53.1557 0.163389,51.6362 -0.0243975,49.9356 0.00242916,48.272 0.0381981,37.01 -0.0243977,25.7397 0.0337268,14.4777 0.114207,10.1664 3.70004,6.22985 8.24717,5.28688 Z"
         id="path111"
         style="fill:url(#linearGradient2);fill-opacity:1;stroke:url(#linearGradient30);stroke-width:0;stroke-dasharray:none" /></g><g
       style="fill:none"
       id="g2"
       transform="matrix(0.48888889,0,0,0.48888889,12.399427,14.873776)"><path
         d="M 26.1185,37.6446 V 11.3554 c 0,-0.5523 -0.4478,-1 -1,-1 h -7.9616 c -0.5523,0 -1,0.4477 -1,1 v 26.2892 m 9.9616,0 h -9.9616 m 9.9616,0 v 5.74 c 0,0.4256 -0.1691,0.8337 -0.47,1.1347 -0.3009,0.3009 -0.7091,0.4699 -1.1347,0.4699 h -6.7523 c -0.2107,0 -0.4193,-0.0415 -0.614,-0.1221 -0.1947,-0.0807 -0.3716,-0.1988 -0.5206,-0.3478 -0.149,-0.1491 -0.2672,-0.3259 -0.3478,-0.5206 -0.0807,-0.1947 -0.1222,-0.4034 -0.1222,-0.6141 v -5.74 m 0,0 V 14.9523 c 0,-0.5523 -0.4477,-1 -1,-1 H 5.05385 M 16.1569,37.6446 H 5.05385 m 11.10305,0 v 5.5462 c 0,0.4798 -0.1906,0.94 -0.5299,1.2793 C 15.2877,44.8094 14.8275,45 14.3477,45 H 6.80923 C 6.32939,45 5.86921,44.8094 5.52991,44.4701 5.19061,44.1308 5,43.6706 5,43.1908 l 0.05385,-5.5462 m 0,-23.6923 H 15.2108 c 0.5523,0 1,-0.4477 1,-1 V 8.40615 c 0,-0.47983 -0.1906,-0.94002 -0.5299,-1.27932 C 15.3416,6.78754 14.8814,6.59692 14.4015,6.59692 H 6.86308 c -0.47984,0 -0.94003,0.19062 -1.27932,0.52991 -0.3393,0.3393 -0.52991,0.79949 -0.52991,1.27932 z m 0,0 V 37.6446 M 17.7615,3 h 6.7523 c 0.2117,0 0.4212,0.04185 0.6166,0.12317 0.1954,0.08131 0.3728,0.20047 0.5219,0.35061 0.1491,0.15015 0.2671,0.32831 0.3471,0.52424 0.08,0.19592 0.1205,0.40574 0.1191,0.61736 v 4.75077 c 0,0.55229 -0.4478,1.00005 -1,1.00005 h -7.9616 c -0.5523,0 -1,-0.44776 -1,-1.00005 V 4.61538 C 16.1555,4.40376 16.196,4.19394 16.276,3.99802 16.356,3.80209 16.4739,3.62393 16.6231,3.47378 16.7722,3.32364 16.9496,3.20448 17.145,3.12317 17.3404,3.04185 17.5499,3 17.7615,3 Z"
         stroke="url(#paint0_linear_1044_12)"
         stroke-width="3"
         stroke-linecap="round"
         stroke-linejoin="round"
         id="path1"
         style="stroke:url(#paint0_linear_1044_12)" /><path
         d="M 27.012,18.1522 37.4857,16.4689 C 38.03,16.3815 38.4008,15.87 38.3148,15.3255 L 37.6197,10.9261 C 37.5403,10.4338 37.269,9.99305 36.8653,9.70037 36.4637,9.40918 35.9635,9.28816 35.4734,9.36335 35.4702,9.36383 35.469,9.36767 35.4712,9.36991 v 0 c 0.0023,0.00224 10e-4,0.00608 -0.0021,0.00658 L 27.712,10.6138 c -0.2441,0.0378 -0.4781,0.1239 -0.6886,0.253 m -0.0114,7.2854 -0.8508,-5.3846 c -0.0415,-0.2435 -0.0341,-0.4927 0.0216,-0.7333 0.0558,-0.2406 0.1588,-0.4677 0.3031,-0.6681 m 0.5261,6.786 2.9985,18.8612 c 0.0867,0.545 0.5985,0.9168 1.1436,0.8307 L 41.6258,36.1907 M 27.012,18.1522 38.4607,16.3338 c 10e-4,-2e-4 8e-4,-0.0016 -1e-4,-0.0016 v 0 c -5e-4,0 -9e-4,4e-4 -8e-4,9e-4 l 3.166,19.8576 m 0,0 0.8616,5.3846 c 0.0399,0.2441 0.031,0.4936 -0.026,0.7343 -0.057,0.2406 -0.1611,0.4676 -0.3063,0.6678 -0.1451,0.2002 -0.3285,0.3697 -0.5395,0.4988 -0.211,0.129 -0.4454,0.215 -0.6898,0.2529 l -7.7646,1.2385 c -0.4925,0.0776 -0.9958,-0.0432 -1.3995,-0.3359 -0.4037,-0.2926 -0.6749,-0.7334 -0.7543,-1.2256 l -0.6949,-4.3977 c -0.0861,-0.5452 0.2858,-1.0571 0.8309,-1.1437 L 41.6,36.2038 c 0.0098,-0.0015 0.0188,-0.0061 0.0258,-0.0131 z"
         stroke="url(#paint1_linear_1044_12)"
         stroke-width="3"
         stroke-linecap="round"
         stroke-linejoin="round"
         id="path2"
         style="stroke:url(#paint1_linear_1044_12)" /></g><rect
       style="fill:none;fill-opacity:1;fill-rule:evenodd;stroke:none;stroke-width:3.9;stroke-linejoin:round;stroke-dasharray:none;stroke-opacity:0.5;paint-order:fill markers stroke"
       id="rect1"
       width="44.075188"
       height="31.645638"
       x="1.9758538"
       y="10.78429" /></g><defs
     id="defs1"><linearGradient
       id="paint0_linear"
       x1="94.0831"
       y1="102.397"
       x2="94.0831"
       y2="5"
       gradientUnits="userSpaceOnUse"
       gradientTransform="matrix(1.0455138,0,0,1.0223426,-7.6008048,-2.552391)"><stop
         stop-color="#FD2E00"
         id="stop14" /><stop
         offset="1"
         stop-color="#FF9900"
         id="stop16" /></linearGradient><linearGradient
       id="paint1_linear"
       x1="109.531"
       y1="116.298"
       x2="109.531"
       y2="51.0875"
       gradientUnits="userSpaceOnUse"
       gradientTransform="matrix(1.0455138,0,0,1.0223426,-7.6008048,-2.552391)"><stop
         stop-color="#FD2E00"
         id="stop19" /><stop
         offset="1"
         stop-color="#FF9900"
         id="stop21" /></linearGradient><linearGradient
       id="paint2_linear"
       x1="150.75"
       y1="143.407"
       x2="150.75"
       y2="93.3464"
       gradientUnits="userSpaceOnUse"
       gradientTransform="matrix(1.0455138,0,0,1.0223426,-7.6008048,-2.552391)"><stop
         stop-color="#FD2E00"
         id="stop24" /><stop
         offset="1"
         stop-color="#FF9900"
         id="stop26" /></linearGradient><linearGradient
       id="paint3_linear"
       x1="94.9843"
       y1="134.493"
       x2="94.9843"
       y2="107.184"
       gradientUnits="userSpaceOnUse"
       gradientTransform="matrix(1.0455138,0,0,1.0223426,-7.6008048,-2.552391)"><stop
         stop-color="#FD2E00"
         id="stop29" /><stop
         offset="1"
         stop-color="#FF9900"
         id="stop31" /></linearGradient><linearGradient
       id="paint4_linear"
       x1="93.553"
       y1="165.88"
       x2="93.553"
       y2="139.751"
       gradientUnits="userSpaceOnUse"
       gradientTransform="matrix(1.0455138,0,0,1.0223426,-7.6008048,-2.552391)"><stop
         stop-color="#FD2E00"
         id="stop34" /><stop
         offset="1"
         stop-color="#FF9900"
         id="stop36" /></linearGradient><linearGradient
       id="paint5_linear"
       x1="88.5283"
       y1="187.064"
       x2="88.5283"
       y2="160.548"
       gradientUnits="userSpaceOnUse"
       gradientTransform="matrix(1.0455138,0,0,1.0223426,-7.6008048,-2.552391)"><stop
         stop-color="#FD2E00"
         id="stop39" /><stop
         offset="1"
         stop-color="#FF9900"
         id="stop41" /></linearGradient><linearGradient
       inkscape:collect="always"
       xlink:href="#paint0_linear"
       id="linearGradient3"
       x1="32.000015"
       y1="58.999977"
       x2="32.000015"
       y2="5.000001"
       gradientUnits="userSpaceOnUse" /><linearGradient
       id="paint0_linear_1044_12"
       x1="8.82773"
       y1="40.0417"
       x2="36.9555"
       y2="27.7014"
       gradientUnits="userSpaceOnUse"><stop
         stop-color="#FE0844"
         id="stop2" /><stop
         offset="1"
         stop-color="#FEB302"
         id="stop3" /></linearGradient><linearGradient
       id="paint1_linear_1044_12"
       x1="28.6001"
       y1="36.9695"
       x2="39.6623"
       y2="34.0402"
       gradientUnits="userSpaceOnUse"><stop
         stop-color="#F502A3"
         id="stop4" /><stop
         offset="1"
         stop-color="#FFBB37"
         id="stop5" /></linearGradient><linearGradient
       inkscape:collect="always"
       xlink:href="#paint0_linear_1044_12"
       id="linearGradient2"
       gradientUnits="userSpaceOnUse"
       x1="0.79152012"
       y1="43.094196"
       x2="61.401417"
       y2="21.207312" /></defs><metadata
     id="metadata1"><rdf:RDF><cc:Work
         rdf:about=""><dc:title>folder-library</dc:title><dc:date>26-07-2025</dc:date><dc:description>Beautyline style * folder icon</dc:description><cc:license
           rdf:resource="http://creativecommons.org/licenses/by-nc-sa/4.0/" /></cc:Work><cc:License
         rdf:about="http://creativecommons.org/licenses/by-nc-sa/4.0/"><cc:permits
           rdf:resource="http://creativecommons.org/ns#Reproduction" /><cc:permits
           rdf:resource="http://creativecommons.org/ns#Distribution" /><cc:requires
           rdf:resource="http://creativecommons.org/ns#Notice" /><cc:requires
           rdf:resource="http://creativecommons.org/ns#Attribution" /><cc:prohibits
           rdf:resource="http://creativecommons.org/ns#CommercialUse" /><cc:permits
           rdf:resource="http://creativecommons.org/ns#DerivativeWorks" /><cc:requires
           rdf:resource="http://creativecommons.org/ns#ShareAlike" /></cc:License></rdf:RDF></metadata></svg>
