<?xml version="1.0" encoding="UTF-8" standalone="no"?>
<svg
   width="48"
   height="48"
   viewBox="0 0 48 48"
   fill="none"
   version="2"
   id="svg1"
   sodipodi:docname="folder-android_alt.svg"
   inkscape:version="1.4.2 (ebf0e940d0, 2025-05-08)"
   xml:space="preserve"
   xmlns:inkscape="http://www.inkscape.org/namespaces/inkscape"
   xmlns:sodipodi="http://sodipodi.sourceforge.net/DTD/sodipodi-0.dtd"
   xmlns:xlink="http://www.w3.org/1999/xlink"
   xmlns="http://www.w3.org/2000/svg"
   xmlns:svg="http://www.w3.org/2000/svg"
   xmlns:rdf="http://www.w3.org/1999/02/22-rdf-syntax-ns#"
   xmlns:cc="http://creativecommons.org/ns#"
   xmlns:dc="http://purl.org/dc/elements/1.1/"><title
     id="title1">folder-</title><sodipodi:namedview
     id="namedview1"
     pagecolor="#3f4354"
     bordercolor="#000000"
     borderopacity="0.5"
     inkscape:showpageshadow="1"
     inkscape:pageopacity="0"
     inkscape:pagecheckerboard="1"
     inkscape:deskcolor="#2b2f40"
     showgrid="false"
     inkscape:zoom="17.6875"
     inkscape:cx="23.971731"
     inkscape:cy="24"
     inkscape:window-width="1920"
     inkscape:window-height="1048"
     inkscape:window-x="0"
     inkscape:window-y="0"
     inkscape:window-maximized="1"
     inkscape:current-layer="g11" /><g
     id="g1"><g
       id="g11"
       transform="matrix(0.74999965,0,0,0.74999965,3.7743922e-7,1.908614e-5)"
       style="fill:url(#linearGradient3)"><path
         d="M 8.24717,5.28688 C 10.8404,4.80099 13.5052,5.09747 16.1297,5.01923 18.8839,5.09747 21.902,4.61569 24.37,6.03631 c 2.3518,1.37121 3.8988,3.59891 6.0002,5.24599 0.7735,0.5518 1.7751,0.7577 2.7453,0.7412 9.4028,0 18.8055,0.0124 28.2083,0.0659 1.6185,-0.1277 3.018,1.4165 2.6022,2.8577 -0.2281,1.1159 -1.404,1.9436 -2.6291,1.8695 C 51.7466,16.8289 42.1963,16.7836 32.646,16.7754 30.4597,16.763 28.2778,16.0177 26.6547,14.663 24.6696,13.1765 23.3506,10.8953 21.0033,9.87817 17.7483,9.63934 14.462,9.84523 11.1981,9.77522 8.9536,9.63934 6.7091,10.8252 5.75228,12.7029 c -0.65725,1.1901 -0.541,2.5572 -0.54994,3.846 0.02235,10.8503 -0.00895,21.7005 0.01341,32.5549 -0.03577,2.0342 1.4084,3.9777 3.4517,4.7354 1.21614,0.4777 2.56645,0.3871 3.85855,0.3953 13.5833,-0.0206 27.1665,0.0083 40.7453,-0.0165 2.1014,0.0083 4.1134,-1.2023 4.9898,-2.9524 0.7019,-1.3135 0.5007,-2.8124 0.5275,-4.2248 0.009,-6.0284 -0.0312,-12.0567 0.0179,-18.0851 -0.0357,-1.3548 1.3995,-2.4954 2.8481,-2.3183 1.4219,0.0865 2.486,1.3712 2.325,2.6601 0,6.7366 0.0313,13.4732 -0.0134,20.214 C 63.9036,54.498 59.1016,58.8917 53.696,58.974 39.384,59.0234 25.0675,58.9864 10.7555,58.9905 6.61521,59.0317 2.60462,56.6516 0.945834,53.1557 0.163389,51.6362 -0.0243975,49.9356 0.00242916,48.272 0.0381981,37.01 -0.0243977,25.7397 0.0337268,14.4777 0.114207,10.1664 3.70004,6.22985 8.24717,5.28688 Z"
         id="path111"
         style="fill:url(#linearGradient2);fill-opacity:1;stroke:url(#linearGradient30);stroke-width:0;stroke-dasharray:none" /></g><g
       style="fill:none"
       id="g2"
       transform="matrix(0.38710302,0,0,0.38710302,11.626345,14.220006)"><path
         d="M 59.999,31.9995 C 59.999,16.5358 47.4632,4 31.9995,4 16.5358,4 4,16.5358 4,31.9995 4,47.4632 16.5358,59.999 31.9995,59.999 47.4632,59.999 59.999,47.4632 59.999,31.9995 Z"
         stroke="url(#paint0_linear)"
         stroke-width="6"
         id="path1"
         style="stroke:url(#paint0_linear-3)" /><path
         fill-rule="evenodd"
         clip-rule="evenodd"
         d="m 15.39,21.2378 c 0.7893,-0.4736 1.8132,-0.2177 2.2868,0.5717 l 3.108,5.1801 c 3.204,-2.1508 7.0645,-3.4063 11.2198,-3.4063 4.1519,0 8.0094,1.2532 11.2117,3.4004 l 3.1045,-5.1742 c 0.4737,-0.7894 1.4975,-1.0453 2.2869,-0.5717 0.7893,0.4736 1.0453,1.4974 0.5717,2.2868 l -3.3353,5.5589 c 3.3916,3.2084 5.6587,7.5837 6.1523,12.4797 0.1014,2.0212 -1.9874,2.0217 -1.9874,2.0217 H 13.9417 c 0,0 -2.0306,0.0011 -1.9387,-1.924 0.4732,-4.9315 2.745,-9.3408 6.155,-12.57 L 14.8183,23.5246 C 14.3446,22.7352 14.6006,21.7114 15.39,21.2378 Z m 6.6091,12.3464 c 0.3283,0 0.6534,0.0647 0.9568,0.1903 0.3033,0.1257 0.5789,0.3098 0.8111,0.542 0.2321,0.2321 0.4163,0.5078 0.542,0.8111 0.1256,0.3033 0.1903,0.6285 0.1903,0.9568 0,0.3283 -0.0647,0.6534 -0.1903,0.9568 -0.1257,0.3033 -0.3099,0.5789 -0.542,0.8111 -0.2322,0.2322 -0.5078,0.4163 -0.8111,0.542 -0.3034,0.1256 -0.6285,0.1903 -0.9568,0.1903 -0.3284,0 -0.6535,-0.0647 -0.9568,-0.1903 -0.3034,-0.1257 -0.579,-0.3098 -0.8111,-0.542 -0.2322,-0.2322 -0.4164,-0.5078 -0.542,-0.8111 -0.1257,-0.3034 -0.1903,-0.6285 -0.1903,-0.9568 0,-0.3283 0.0646,-0.6535 0.1903,-0.9568 0.1256,-0.3033 0.3098,-0.579 0.542,-0.8111 0.2321,-0.2322 0.5077,-0.4163 0.8111,-0.542 0.3033,-0.1256 0.6284,-0.1903 0.9568,-0.1903 z m 20.9583,0.1903 c -0.3033,-0.1256 -0.6284,-0.1903 -0.9568,-0.1903 -0.3283,0 -0.6534,0.0647 -0.9568,0.1903 -0.3033,0.1257 -0.5789,0.3098 -0.8111,0.542 -0.2321,0.2321 -0.4163,0.5078 -0.5419,0.8111 -0.1257,0.3033 -0.1904,0.6285 -0.1904,0.9568 0,0.3283 0.0647,0.6534 0.1904,0.9568 0.1256,0.3033 0.3098,0.5789 0.5419,0.8111 0.2322,0.2322 0.5078,0.4163 0.8111,0.542 0.3034,0.1256 0.6285,0.1903 0.9568,0.1903 0.3284,0 0.6535,-0.0647 0.9568,-0.1903 0.3034,-0.1257 0.579,-0.3098 0.8111,-0.542 0.2322,-0.2322 0.4164,-0.5078 0.542,-0.8111 0.1257,-0.3034 0.1903,-0.6285 0.1903,-0.9568 0,-0.3283 -0.0646,-0.6535 -0.1903,-0.9568 -0.1256,-0.3033 -0.3098,-0.579 -0.542,-0.8111 -0.2321,-0.2322 -0.5077,-0.4163 -0.8111,-0.542 z"
         fill="url(#paint1_linear)"
         id="path2"
         style="fill:url(#paint1_linear)" /></g></g><defs
     id="defs1"><linearGradient
       id="paint0_linear-3"
       x1="31.9995"
       y1="59.999"
       x2="31.9995"
       y2="4"
       gradientUnits="userSpaceOnUse"><stop
         stop-color="#00B59C"
         id="stop2" /><stop
         offset="1"
         stop-color="#9CFFAC"
         id="stop3" /></linearGradient><linearGradient
       id="paint1_linear"
       x1="32"
       y1="43.5849"
       x2="32"
       y2="21"
       gradientUnits="userSpaceOnUse"><stop
         stop-color="#02AA93"
         id="stop4" /><stop
         offset="1"
         stop-color="#67FF80"
         id="stop5" /></linearGradient><linearGradient
       inkscape:collect="always"
       xlink:href="#paint0_linear-3"
       id="linearGradient2"
       gradientUnits="userSpaceOnUse"
       x1="32.000015"
       y1="58.999977"
       x2="32.000015"
       y2="5.000001" /></defs><metadata
     id="metadata1"><rdf:RDF><cc:Work
         rdf:about=""><dc:title>folder-</dc:title><dc:date>26-07-2025</dc:date><dc:description>Beautyline style * folder icon</dc:description><cc:license
           rdf:resource="http://creativecommons.org/licenses/by-nc-sa/4.0/" /></cc:Work><cc:License
         rdf:about="http://creativecommons.org/licenses/by-nc-sa/4.0/"><cc:permits
           rdf:resource="http://creativecommons.org/ns#Reproduction" /><cc:permits
           rdf:resource="http://creativecommons.org/ns#Distribution" /><cc:requires
           rdf:resource="http://creativecommons.org/ns#Notice" /><cc:requires
           rdf:resource="http://creativecommons.org/ns#Attribution" /><cc:prohibits
           rdf:resource="http://creativecommons.org/ns#CommercialUse" /><cc:permits
           rdf:resource="http://creativecommons.org/ns#DerivativeWorks" /><cc:requires
           rdf:resource="http://creativecommons.org/ns#ShareAlike" /></cc:License></rdf:RDF></metadata></svg>
