<?xml version="1.0" encoding="UTF-8" standalone="no"?>
<svg
   width="48"
   height="48"
   viewBox="0 0 48 48"
   fill="none"
   version="2"
   id="svg1"
   sodipodi:docname="folder-python.svg"
   inkscape:version="1.4.2 (ebf0e940d0, 2025-05-08)"
   xml:space="preserve"
   xmlns:inkscape="http://www.inkscape.org/namespaces/inkscape"
   xmlns:sodipodi="http://sodipodi.sourceforge.net/DTD/sodipodi-0.dtd"
   xmlns:xlink="http://www.w3.org/1999/xlink"
   xmlns="http://www.w3.org/2000/svg"
   xmlns:svg="http://www.w3.org/2000/svg"
   xmlns:rdf="http://www.w3.org/1999/02/22-rdf-syntax-ns#"
   xmlns:cc="http://creativecommons.org/ns#"
   xmlns:dc="http://purl.org/dc/elements/1.1/"><title
     id="title1">folder-</title><sodipodi:namedview
     id="namedview1"
     pagecolor="#3f4354"
     bordercolor="#000000"
     borderopacity="0.5"
     inkscape:showpageshadow="1"
     inkscape:pageopacity="0"
     inkscape:pagecheckerboard="1"
     inkscape:deskcolor="#2b2f40"
     showgrid="false"
     inkscape:zoom="17.3125"
     inkscape:cx="24.115523"
     inkscape:cy="24"
     inkscape:window-width="1920"
     inkscape:window-height="1048"
     inkscape:window-x="0"
     inkscape:window-y="0"
     inkscape:window-maximized="1"
     inkscape:current-layer="g2" /><g
     id="g1"><g
       id="g11"
       transform="matrix(0.74999965,0,0,0.74999965,3.7743922e-7,1.908614e-5)"
       style="fill:url(#linearGradient3)"><path
         d="M 8.24717,5.28688 C 10.8404,4.80099 13.5052,5.09747 16.1297,5.01923 18.8839,5.09747 21.902,4.61569 24.37,6.03631 c 2.3518,1.37121 3.8988,3.59891 6.0002,5.24599 0.7735,0.5518 1.7751,0.7577 2.7453,0.7412 9.4028,0 18.8055,0.0124 28.2083,0.0659 1.6185,-0.1277 3.018,1.4165 2.6022,2.8577 -0.2281,1.1159 -1.404,1.9436 -2.6291,1.8695 C 51.7466,16.8289 42.1963,16.7836 32.646,16.7754 30.4597,16.763 28.2778,16.0177 26.6547,14.663 24.6696,13.1765 23.3506,10.8953 21.0033,9.87817 17.7483,9.63934 14.462,9.84523 11.1981,9.77522 8.9536,9.63934 6.7091,10.8252 5.75228,12.7029 c -0.65725,1.1901 -0.541,2.5572 -0.54994,3.846 0.02235,10.8503 -0.00895,21.7005 0.01341,32.5549 -0.03577,2.0342 1.4084,3.9777 3.4517,4.7354 1.21614,0.4777 2.56645,0.3871 3.85855,0.3953 13.5833,-0.0206 27.1665,0.0083 40.7453,-0.0165 2.1014,0.0083 4.1134,-1.2023 4.9898,-2.9524 0.7019,-1.3135 0.5007,-2.8124 0.5275,-4.2248 0.009,-6.0284 -0.0312,-12.0567 0.0179,-18.0851 -0.0357,-1.3548 1.3995,-2.4954 2.8481,-2.3183 1.4219,0.0865 2.486,1.3712 2.325,2.6601 0,6.7366 0.0313,13.4732 -0.0134,20.214 C 63.9036,54.498 59.1016,58.8917 53.696,58.974 39.384,59.0234 25.0675,58.9864 10.7555,58.9905 6.61521,59.0317 2.60462,56.6516 0.945834,53.1557 0.163389,51.6362 -0.0243975,49.9356 0.00242916,48.272 0.0381981,37.01 -0.0243977,25.7397 0.0337268,14.4777 0.114207,10.1664 3.70004,6.22985 8.24717,5.28688 Z"
         id="path111"
         style="fill:url(#linearGradient4);fill-opacity:1;stroke:url(#linearGradient30);stroke-width:0;stroke-dasharray:none" /></g><g
       style="fill:none"
       id="g2"
       transform="matrix(0.4,0,0,0.4,11.213448,13.807109)"><path
         d="M 32,23 H 11 C 9.4087,23 7.88258,23.6321 6.75736,24.7574 5.63214,25.8826 5,27.4087 5,29 v 12 c 0,1.5913 0.63214,3.1174 1.75736,4.2426 C 7.88258,46.3679 9.4087,47 11,47 h 8 m 13,-6 h 21 c 1.5913,0 3.1174,-0.6321 4.2426,-1.7574 C 58.3679,38.1174 59,36.5913 59,35 V 23 C 59,21.4087 58.3679,19.8826 57.2426,18.7574 56.1174,17.6321 54.5913,17 53,17 h -9"
         stroke="url(#paint0_linear_695_33)"
         stroke-width="6"
         stroke-linecap="round"
         stroke-linejoin="round"
         id="path1"
         style="stroke:url(#paint0_linear_695_33)" /><path
         d="M 20,20 V 11 C 20,9.4087 20.6321,7.88258 21.7574,6.75736 22.8826,5.63214 24.4087,5 26,5 h 12 c 1.5913,0 3.1174,0.63214 4.2426,1.75736 C 43.3679,7.88258 44,9.4087 44,11 v 15 c 0,1.5913 -0.6321,3.1174 -1.7574,4.2426 C 41.1174,31.3679 39.5913,32 38,32 H 26 c -1.5913,0 -3.1174,0.6321 -4.2426,1.7574 C 20.6321,34.8826 20,36.4087 20,38 v 15 c 0,1.5913 0.6321,3.1174 1.7574,4.2426 C 22.8826,58.3679 24.4087,59 26,59 h 12 c 1.5913,0 3.1174,-0.6321 4.2426,-1.7574 C 43.3679,56.1174 44,54.5913 44,53 v -9"
         stroke="url(#paint1_linear_695_33)"
         stroke-width="6"
         stroke-linejoin="round"
         id="path2"
         style="stroke:url(#paint1_linear_695_33)" /></g></g><defs
     id="defs1"><linearGradient
       id="paint0_linear"
       x1="94.0831"
       y1="102.397"
       x2="94.0831"
       y2="5"
       gradientUnits="userSpaceOnUse"
       gradientTransform="matrix(1.0455138,0,0,1.0223426,-7.6008048,-2.552391)"><stop
         stop-color="#FD2E00"
         id="stop14"
         offset="0"
         style="stop-color:#8d01a2;stop-opacity:1;" /><stop
         offset="1"
         stop-color="#FF9900"
         id="stop16"
         style="stop-color:#ff00d2;stop-opacity:1;" /></linearGradient><linearGradient
       inkscape:collect="always"
       xlink:href="#paint0_linear"
       id="linearGradient3"
       x1="32.000015"
       y1="58.999977"
       x2="32.000015"
       y2="5.000001"
       gradientUnits="userSpaceOnUse" /><linearGradient
       id="paint0_linear_695_33"
       x1="45.5"
       y1="41"
       x2="45.5"
       y2="17"
       gradientUnits="userSpaceOnUse"><stop
         stop-color="#FD5900"
         id="stop2" /><stop
         offset="1"
         stop-color="#FFDE00"
         id="stop3" /></linearGradient><linearGradient
       id="paint1_linear_695_33"
       x1="32"
       y1="59"
       x2="32"
       y2="5"
       gradientUnits="userSpaceOnUse"><stop
         stop-color="#5570FF"
         id="stop4" /><stop
         offset="1"
         stop-color="#4DD3FF"
         id="stop5" /></linearGradient><linearGradient
       inkscape:collect="always"
       xlink:href="#paint0_linear"
       id="linearGradient4"
       gradientUnits="userSpaceOnUse"
       x1="32.000015"
       y1="58.999977"
       x2="32.000015"
       y2="5.000001" /></defs><metadata
     id="metadata1"><rdf:RDF><cc:Work
         rdf:about=""><dc:title>folder-</dc:title><dc:date>26-07-2025</dc:date><dc:description>Beautyline style * folder icon</dc:description><cc:license
           rdf:resource="http://creativecommons.org/licenses/by-nc-sa/4.0/" /></cc:Work><cc:License
         rdf:about="http://creativecommons.org/licenses/by-nc-sa/4.0/"><cc:permits
           rdf:resource="http://creativecommons.org/ns#Reproduction" /><cc:permits
           rdf:resource="http://creativecommons.org/ns#Distribution" /><cc:requires
           rdf:resource="http://creativecommons.org/ns#Notice" /><cc:requires
           rdf:resource="http://creativecommons.org/ns#Attribution" /><cc:prohibits
           rdf:resource="http://creativecommons.org/ns#CommercialUse" /><cc:permits
           rdf:resource="http://creativecommons.org/ns#DerivativeWorks" /><cc:requires
           rdf:resource="http://creativecommons.org/ns#ShareAlike" /></cc:License></rdf:RDF></metadata></svg>
