<?xml version="1.0" encoding="UTF-8" standalone="no"?>
<svg
   width="48"
   height="48"
   viewBox="0 0 48 48"
   fill="none"
   version="2"
   id="svg1"
   sodipodi:docname="folder-godot.svg"
   inkscape:version="1.4.2 (ebf0e940d0, 2025-05-08)"
   xml:space="preserve"
   xmlns:inkscape="http://www.inkscape.org/namespaces/inkscape"
   xmlns:sodipodi="http://sodipodi.sourceforge.net/DTD/sodipodi-0.dtd"
   xmlns:xlink="http://www.w3.org/1999/xlink"
   xmlns="http://www.w3.org/2000/svg"
   xmlns:svg="http://www.w3.org/2000/svg"
   xmlns:rdf="http://www.w3.org/1999/02/22-rdf-syntax-ns#"
   xmlns:cc="http://creativecommons.org/ns#"
   xmlns:dc="http://purl.org/dc/elements/1.1/"><title
     id="title1">folder-godot</title><sodipodi:namedview
     id="namedview1"
     pagecolor="#3f4354"
     bordercolor="#000000"
     borderopacity="0.5"
     inkscape:showpageshadow="1"
     inkscape:pageopacity="0"
     inkscape:pagecheckerboard="1"
     inkscape:deskcolor="#2b2f40"
     showgrid="false"
     inkscape:zoom="15.229167"
     inkscape:cx="24"
     inkscape:cy="24"
     inkscape:window-width="1920"
     inkscape:window-height="1048"
     inkscape:window-x="0"
     inkscape:window-y="0"
     inkscape:window-maximized="1"
     inkscape:current-layer="g1" /><g
     id="g1"><g
       id="g11"
       transform="matrix(0.74999965,0,0,0.74999965,3.7743922e-7,1.908614e-5)"><path
         d="M 8.24717,5.28688 C 10.8404,4.80099 13.5052,5.09747 16.1297,5.01923 18.8839,5.09747 21.902,4.61569 24.37,6.03631 c 2.3518,1.37121 3.8988,3.59891 6.0002,5.24599 0.7735,0.5518 1.7751,0.7577 2.7453,0.7412 9.4028,0 18.8055,0.0124 28.2083,0.0659 1.6185,-0.1277 3.018,1.4165 2.6022,2.8577 -0.2281,1.1159 -1.404,1.9436 -2.6291,1.8695 C 51.7466,16.8289 42.1963,16.7836 32.646,16.7754 30.4597,16.763 28.2778,16.0177 26.6547,14.663 24.6696,13.1765 23.3506,10.8953 21.0033,9.87817 17.7483,9.63934 14.462,9.84523 11.1981,9.77522 8.9536,9.63934 6.7091,10.8252 5.75228,12.7029 c -0.65725,1.1901 -0.541,2.5572 -0.54994,3.846 0.02235,10.8503 -0.00895,21.7005 0.01341,32.5549 -0.03577,2.0342 1.4084,3.9777 3.4517,4.7354 1.21614,0.4777 2.56645,0.3871 3.85855,0.3953 13.5833,-0.0206 27.1665,0.0083 40.7453,-0.0165 2.1014,0.0083 4.1134,-1.2023 4.9898,-2.9524 0.7019,-1.3135 0.5007,-2.8124 0.5275,-4.2248 0.009,-6.0284 -0.0312,-12.0567 0.0179,-18.0851 -0.0357,-1.3548 1.3995,-2.4954 2.8481,-2.3183 1.4219,0.0865 2.486,1.3712 2.325,2.6601 0,6.7366 0.0313,13.4732 -0.0134,20.214 C 63.9036,54.498 59.1016,58.8917 53.696,58.974 39.384,59.0234 25.0675,58.9864 10.7555,58.9905 6.61521,59.0317 2.60462,56.6516 0.945834,53.1557 0.163389,51.6362 -0.0243975,49.9356 0.00242916,48.272 0.0381981,37.01 -0.0243977,25.7397 0.0337268,14.4777 0.114207,10.1664 3.70004,6.22985 8.24717,5.28688 Z"
         id="path111"
         style="fill:url(#linearGradient30);fill-opacity:1;stroke:url(#linearGradient30);stroke-width:0;stroke-dasharray:none" /></g><g
       style="fill:none"
       id="g12"
       transform="matrix(0.36091148,0,0,0.36091148,12.464287,14.91988)"><path
         fill-rule="evenodd"
         clip-rule="evenodd"
         d="m 20.5,10.7995 4.5762,-0.91519 1.0293,3.08789 c 0.3539,1.0617 1.3474,1.7778 2.4666,1.7778 h 6.8558 c 1.1191,0 2.1127,-0.7161 2.4666,-1.7778 L 38.9238,9.88431 43.5,10.7995 v 4.897 c 0,0.8693 0.4345,1.6811 1.1578,2.1633 l 5.15,3.4334 c 0.8733,0.5822 2.0111,0.5822 2.8844,0 l 2.8382,-1.8922 1.4277,2.8554 -2.1966,2.1966 C 54.2739,24.9406 54,25.6019 54,26.2915 v 16.6834 h -6.775 c -1.1046,0 -2,0.8954 -2,2 v 2.55 h -5.45 v -2.55 c 0,-1.1046 -0.8954,-2 -2,-2 H 32 26.225 c -1.1046,0 -2,0.8954 -2,2 v 2.55 h -5.45 v -2.55 c 0,-1.1046 -0.8954,-2 -2,-2 H 9.99999 V 26.2915 c 0,-0.6896 -0.27391,-1.3509 -0.76152,-1.8385 L 7.04189,22.2564 8.46957,19.401 11.3078,21.2932 c 0.8733,0.5822 2.0111,0.5822 2.8844,0 l 5.15,-3.4334 C 20.0655,17.3776 20.5,16.5658 20.5,15.6965 Z M 9.99999,46.9749 v 0.0085 c 0.10921,0.3912 0.54141,1.6134 1.94341,3.0147 1.8549,1.854 5.6279,4.2419 13.22,5.2519 H 38.9816 C 46.6202,55.1356 50.2728,52.7443 52.041,50.7785 53.5515,49.0992 53.9276,47.4629 54,47.0678 v -0.0929 h -4.775 v 2.55 c 0,1.1046 -0.8954,2 -2,2 h -9.45 c -1.1046,0 -2,-0.8954 -2,-2 v -2.55 H 32 28.225 v 2.55 c 0,1.1046 -0.8954,2 -2,2 h -9.45 c -1.1046,0 -2,-0.8954 -2,-2 v -2.55 z m 44.00151,0.358 c -7e-4,-0.0206 -0.0012,-0.0444 -0.0014,-0.0711 8e-4,0.0609 0.0049,0.1747 0.0014,0.0711 z M 29.1496,6.29321 C 28.735,5.04927 27.4589,4.30874 26.1731,4.5659 l -8.583,1.71661 C 16.3748,6.52557 15.5,7.59264 15.5,8.83202 V 14.4121 L 12.75,16.2454 8.98099,13.7327 C 7.67974,12.8652 5.91265,13.3345 5.21326,14.7333 l -3.41711,6.8342 c -0.50048,1.001 -0.3043,2.2099 0.48704,3.0013 l 2.7168,2.7168 v 19.9387 c -6.9e-4,0.0737 0.00182,0.1508 0.00844,0.2309 0.00588,0.0711 0.01361,0.1272 0.0175,0.1541 0.06668,0.4617 0.56442,3.1082 3.38286,5.9252 2.82241,2.821 7.74961,5.5905 16.26981,6.6948 l 0.16,0.0207 H 25 39 39.0181 l 0.0182,-2e-4 c 8.7593,-0.1271 13.8469,-2.931 16.7221,-6.1275 2.8099,-3.1239 3.1939,-6.2779 3.2286,-6.6175 0.0017,-0.0165 0.0063,-0.0626 0.0095,-0.1217 0.0017,-0.0326 0.0031,-0.07 0.0035,-0.1113 1e-4,-0.0156 1e-4,-0.0306 0,-0.0447 V 27.2856 l 2.7168,-2.7168 c 0.7913,-0.7914 0.9875,-2.0003 0.487,-3.0013 L 58.7867,14.7333 C 58.0873,13.3345 56.3202,12.8653 55.019,13.7327 L 51.25,16.2454 48.5,14.4121 V 8.83202 C 48.5,7.59264 47.6252,6.52557 46.4099,6.28251 L 37.8268,4.5659 C 36.5411,4.30874 35.265,5.04927 34.8504,6.29321 L 33.6981,9.75004 H 30.3019 Z M 23.25,26.25 h -7 v 7 h 7 z m 17.5,0 h 7 v 7 h -7 z"
         fill="url(#paint0_linear_501:37)"
         id="path1"
         style="fill:url(#paint0_linear_501:37)" /></g><rect
       style="fill:none;fill-opacity:1;fill-rule:evenodd;stroke:none;stroke-width:3.9;stroke-linejoin:round;stroke-dasharray:none;stroke-opacity:0.5;paint-order:fill markers stroke"
       id="rect1"
       width="44.075188"
       height="31.645638"
       x="1.9758538"
       y="10.78429" /></g><defs
     id="defs1"><linearGradient
       inkscape:collect="always"
       xlink:href="#paint0_linear_501:37"
       id="linearGradient30"
       gradientUnits="userSpaceOnUse"
       gradientTransform="matrix(1.421128,-0.01199146,0.01198687,1.4216711,-101.30678,-100.47471)"
       x1="70.498825"
       y1="96.222137"
       x2="115.50701"
       y2="96.601768" /><linearGradient
       id="paint0_linear_501:37"
       x1="7.59898"
       y1="32.3826"
       x2="51.7532"
       y2="32.3826"
       gradientUnits="userSpaceOnUse"><stop
         stop-color="#5570FF"
         id="stop1" /><stop
         offset="1"
         stop-color="#4DD3FF"
         id="stop2" /></linearGradient></defs><metadata
     id="metadata1"><rdf:RDF><cc:Work
         rdf:about=""><dc:title>folder-godot</dc:title><dc:date>25-07-2025</dc:date><dc:description>Beautyline style Godot folder icon</dc:description><cc:license
           rdf:resource="http://creativecommons.org/licenses/by-nc-sa/4.0/" /></cc:Work><cc:License
         rdf:about="http://creativecommons.org/licenses/by-nc-sa/4.0/"><cc:permits
           rdf:resource="http://creativecommons.org/ns#Reproduction" /><cc:permits
           rdf:resource="http://creativecommons.org/ns#Distribution" /><cc:requires
           rdf:resource="http://creativecommons.org/ns#Notice" /><cc:requires
           rdf:resource="http://creativecommons.org/ns#Attribution" /><cc:prohibits
           rdf:resource="http://creativecommons.org/ns#CommercialUse" /><cc:permits
           rdf:resource="http://creativecommons.org/ns#DerivativeWorks" /><cc:requires
           rdf:resource="http://creativecommons.org/ns#ShareAlike" /></cc:License></rdf:RDF></metadata></svg>
