<?xml version="1.0" encoding="UTF-8" standalone="no"?>
<svg
   width="48"
   height="48"
   viewBox="0 0 48 48"
   fill="none"
   version="2"
   id="svg1"
   sodipodi:docname="folder-important.svg"
   inkscape:version="1.4.2 (ebf0e940d0, 2025-05-08)"
   xml:space="preserve"
   xmlns:inkscape="http://www.inkscape.org/namespaces/inkscape"
   xmlns:sodipodi="http://sodipodi.sourceforge.net/DTD/sodipodi-0.dtd"
   xmlns:xlink="http://www.w3.org/1999/xlink"
   xmlns="http://www.w3.org/2000/svg"
   xmlns:svg="http://www.w3.org/2000/svg"
   xmlns:rdf="http://www.w3.org/1999/02/22-rdf-syntax-ns#"
   xmlns:cc="http://creativecommons.org/ns#"
   xmlns:dc="http://purl.org/dc/elements/1.1/"><title
     id="title1">folder-important</title><sodipodi:namedview
     id="namedview1"
     pagecolor="#3f4354"
     bordercolor="#000000"
     borderopacity="0.5"
     inkscape:showpageshadow="1"
     inkscape:pageopacity="0"
     inkscape:pagecheckerboard="1"
     inkscape:deskcolor="#2b2f40"
     showgrid="false"
     inkscape:zoom="15.229167"
     inkscape:cx="24.065663"
     inkscape:cy="24.065663"
     inkscape:window-width="1920"
     inkscape:window-height="1048"
     inkscape:window-x="0"
     inkscape:window-y="0"
     inkscape:window-maximized="1"
     inkscape:current-layer="g11" /><g
     id="g1"><g
       style="fill:none"
       id="g12"
       transform="matrix(1.5714286,0,0,1.5714286,11.442019,14.03568)"><path
         d="M 8.82031,7.58984 H 7.17969 C 6.95317,7.58984 6.76953,7.77348 6.76953,8 v 3.2812 c 0,0.2266 0.18364,0.4102 0.41016,0.4102 h 1.64062 c 0.22652,0 0.41016,-0.1836 0.41016,-0.4102 V 8 c 0,-0.22652 -0.18364,-0.41016 -0.41016,-0.41016 z M 8.41016,10.8711 H 7.58984 V 8.41016 H 8.41016 Z M 8,1 C 4.14586,1 1,4.14566 1,8 c 0,3.8541 3.14566,7 7,7 3.8541,0 7,-3.1456 7,-7 C 15,4.14586 11.8544,1 8,1 Z M 8,14.1797 C 4.59251,14.1797 1.82031,11.4075 1.82031,8 1.82031,4.59251 4.59251,1.82031 8,1.82031 c 3.4075,0 6.1797,2.7722 6.1797,6.17969 0,3.4075 -2.7722,6.1797 -6.1797,6.1797 z M 8,2.66797 C 5.05991,2.66797 2.66797,5.05991 2.66797,8 c 0,2.9401 2.39194,5.3321 5.33203,5.3321 2.9401,0 5.3321,-2.392 5.3321,-5.3321 C 13.3321,5.05991 10.9401,2.66797 8,2.66797 Z M 8,12.5117 C 5.51224,12.5117 3.48828,10.4878 3.48828,8 3.48828,5.51224 5.51224,3.48828 8,3.48828 c 2.4878,0 4.5117,2.02396 4.5117,4.51172 0,2.4878 -2.0239,4.5117 -4.5117,4.5117 z M 8,4.30859 c -0.67847,0 -1.23047,0.552 -1.23047,1.23047 0,0.67848 0.552,1.23047 1.23047,1.23047 0.67847,0 1.23047,-0.55199 1.23047,-1.23047 C 9.23047,4.86059 8.67847,4.30859 8,4.30859 Z m 0,1.64063 c -0.22615,0 -0.41016,-0.18401 -0.41016,-0.41016 0,-0.22615 0.18401,-0.41015 0.41016,-0.41015 0.22615,0 0.41016,0.184 0.41016,0.41015 0,0.22615 -0.18401,0.41016 -0.41016,0.41016 z"
         fill="url(#paint0_linear_448_524)"
         id="path1-3"
         style="fill:url(#paint0_linear_448_524)" /></g><g
       id="g11"
       transform="matrix(0.74999965,0,0,0.74999965,3.7743922e-7,1.908614e-5)"><path
         d="M 8.24717,5.28688 C 10.8404,4.80099 13.5052,5.09747 16.1297,5.01923 18.8839,5.09747 21.902,4.61569 24.37,6.03631 c 2.3518,1.37121 3.8988,3.59891 6.0002,5.24599 0.7735,0.5518 1.7751,0.7577 2.7453,0.7412 9.4028,0 18.8055,0.0124 28.2083,0.0659 1.6185,-0.1277 3.018,1.4165 2.6022,2.8577 -0.2281,1.1159 -1.404,1.9436 -2.6291,1.8695 C 51.7466,16.8289 42.1963,16.7836 32.646,16.7754 30.4597,16.763 28.2778,16.0177 26.6547,14.663 24.6696,13.1765 23.3506,10.8953 21.0033,9.87817 17.7483,9.63934 14.462,9.84523 11.1981,9.77522 8.9536,9.63934 6.7091,10.8252 5.75228,12.7029 c -0.65725,1.1901 -0.541,2.5572 -0.54994,3.846 0.02235,10.8503 -0.00895,21.7005 0.01341,32.5549 -0.03577,2.0342 1.4084,3.9777 3.4517,4.7354 1.21614,0.4777 2.56645,0.3871 3.85855,0.3953 13.5833,-0.0206 27.1665,0.0083 40.7453,-0.0165 2.1014,0.0083 4.1134,-1.2023 4.9898,-2.9524 0.7019,-1.3135 0.5007,-2.8124 0.5275,-4.2248 0.009,-6.0284 -0.0312,-12.0567 0.0179,-18.0851 -0.0357,-1.3548 1.3995,-2.4954 2.8481,-2.3183 1.4219,0.0865 2.486,1.3712 2.325,2.6601 0,6.7366 0.0313,13.4732 -0.0134,20.214 C 63.9036,54.498 59.1016,58.8917 53.696,58.974 39.384,59.0234 25.0675,58.9864 10.7555,58.9905 6.61521,59.0317 2.60462,56.6516 0.945834,53.1557 0.163389,51.6362 -0.0243975,49.9356 0.00242916,48.272 0.0381981,37.01 -0.0243977,25.7397 0.0337268,14.4777 0.114207,10.1664 3.70004,6.22985 8.24717,5.28688 Z"
         id="path111"
         style="fill:url(#linearGradient30);fill-opacity:1;stroke:url(#linearGradient30);stroke-width:0;stroke-dasharray:none" /></g><rect
       style="fill:none;fill-opacity:1;fill-rule:evenodd;stroke:none;stroke-width:3.9;stroke-linejoin:round;stroke-dasharray:none;stroke-opacity:0.5;paint-order:fill markers stroke"
       id="rect1"
       width="44.075188"
       height="31.645638"
       x="1.9758538"
       y="10.78429" /></g><defs
     id="defs1"><linearGradient
       inkscape:collect="always"
       xlink:href="#paint0_linear_448_524"
       id="linearGradient30"
       gradientUnits="userSpaceOnUse"
       gradientTransform="matrix(1.421128,-0.01199146,0.01198687,1.4216711,-101.30678,-100.47471)"
       x1="92.850746"
       y1="112.95728"
       x2="93.171104"
       y2="74.976532" /><linearGradient
       id="paint0_linear_448_524"
       x1="8"
       y1="15"
       x2="8"
       y2="1"
       gradientUnits="userSpaceOnUse"><stop
         stop-color="#FD3A84"
         id="stop1" /><stop
         offset="1"
         stop-color="#FFA68D"
         id="stop2-6" /></linearGradient></defs><metadata
     id="metadata1"><rdf:RDF><cc:Work
         rdf:about=""><dc:title>folder-important</dc:title><dc:date>25-07-2025</dc:date><dc:description>Beautyline style important folder icon</dc:description><cc:license
           rdf:resource="http://creativecommons.org/licenses/by-nc-sa/4.0/" /></cc:Work><cc:License
         rdf:about="http://creativecommons.org/licenses/by-nc-sa/4.0/"><cc:permits
           rdf:resource="http://creativecommons.org/ns#Reproduction" /><cc:permits
           rdf:resource="http://creativecommons.org/ns#Distribution" /><cc:requires
           rdf:resource="http://creativecommons.org/ns#Notice" /><cc:requires
           rdf:resource="http://creativecommons.org/ns#Attribution" /><cc:prohibits
           rdf:resource="http://creativecommons.org/ns#CommercialUse" /><cc:permits
           rdf:resource="http://creativecommons.org/ns#DerivativeWorks" /><cc:requires
           rdf:resource="http://creativecommons.org/ns#ShareAlike" /></cc:License></rdf:RDF></metadata></svg>
