<?xml version="1.0" encoding="UTF-8" standalone="no"?>
<svg
   width="48"
   height="48"
   viewBox="0 0 48 48"
   fill="none"
   version="2"
   id="svg1"
   sodipodi:docname="folder-java.svg"
   inkscape:version="1.4.2 (ebf0e940d0, 2025-05-08)"
   xml:space="preserve"
   xmlns:inkscape="http://www.inkscape.org/namespaces/inkscape"
   xmlns:sodipodi="http://sodipodi.sourceforge.net/DTD/sodipodi-0.dtd"
   xmlns:xlink="http://www.w3.org/1999/xlink"
   xmlns="http://www.w3.org/2000/svg"
   xmlns:svg="http://www.w3.org/2000/svg"
   xmlns:rdf="http://www.w3.org/1999/02/22-rdf-syntax-ns#"
   xmlns:cc="http://creativecommons.org/ns#"
   xmlns:dc="http://purl.org/dc/elements/1.1/"><title
     id="title1">folder-java</title><sodipodi:namedview
     id="namedview1"
     pagecolor="#3f4354"
     bordercolor="#000000"
     borderopacity="0.5"
     inkscape:showpageshadow="1"
     inkscape:pageopacity="0"
     inkscape:pagecheckerboard="1"
     inkscape:deskcolor="#2b2f40"
     showgrid="false"
     inkscape:zoom="17.3125"
     inkscape:cx="24.086643"
     inkscape:cy="24"
     inkscape:window-width="1920"
     inkscape:window-height="1048"
     inkscape:window-x="0"
     inkscape:window-y="0"
     inkscape:window-maximized="1"
     inkscape:current-layer="g1" /><g
     id="g1"><g
       id="g11"
       transform="matrix(0.74999965,0,0,0.74999965,3.7743922e-7,1.908614e-5)"
       style="fill:url(#linearGradient3)"><path
         d="M 8.24717,5.28688 C 10.8404,4.80099 13.5052,5.09747 16.1297,5.01923 18.8839,5.09747 21.902,4.61569 24.37,6.03631 c 2.3518,1.37121 3.8988,3.59891 6.0002,5.24599 0.7735,0.5518 1.7751,0.7577 2.7453,0.7412 9.4028,0 18.8055,0.0124 28.2083,0.0659 1.6185,-0.1277 3.018,1.4165 2.6022,2.8577 -0.2281,1.1159 -1.404,1.9436 -2.6291,1.8695 C 51.7466,16.8289 42.1963,16.7836 32.646,16.7754 30.4597,16.763 28.2778,16.0177 26.6547,14.663 24.6696,13.1765 23.3506,10.8953 21.0033,9.87817 17.7483,9.63934 14.462,9.84523 11.1981,9.77522 8.9536,9.63934 6.7091,10.8252 5.75228,12.7029 c -0.65725,1.1901 -0.541,2.5572 -0.54994,3.846 0.02235,10.8503 -0.00895,21.7005 0.01341,32.5549 -0.03577,2.0342 1.4084,3.9777 3.4517,4.7354 1.21614,0.4777 2.56645,0.3871 3.85855,0.3953 13.5833,-0.0206 27.1665,0.0083 40.7453,-0.0165 2.1014,0.0083 4.1134,-1.2023 4.9898,-2.9524 0.7019,-1.3135 0.5007,-2.8124 0.5275,-4.2248 0.009,-6.0284 -0.0312,-12.0567 0.0179,-18.0851 -0.0357,-1.3548 1.3995,-2.4954 2.8481,-2.3183 1.4219,0.0865 2.486,1.3712 2.325,2.6601 0,6.7366 0.0313,13.4732 -0.0134,20.214 C 63.9036,54.498 59.1016,58.8917 53.696,58.974 39.384,59.0234 25.0675,58.9864 10.7555,58.9905 6.61521,59.0317 2.60462,56.6516 0.945834,53.1557 0.163389,51.6362 -0.0243975,49.9356 0.00242916,48.272 0.0381981,37.01 -0.0243977,25.7397 0.0337268,14.4777 0.114207,10.1664 3.70004,6.22985 8.24717,5.28688 Z"
         id="path111"
         style="fill:url(#linearGradient3);fill-opacity:1;stroke:url(#linearGradient30);stroke-width:0;stroke-dasharray:none" /></g><g
       style="fill:none"
       id="g12"
       transform="matrix(0.1181954,0,0,0.1181954,13.110418,15.304609)"><path
         d="m 106.86727,2.9366073 c 3.41465,-1.2078159 7.58207,0.5918239 8.86282,3.8649969 5.73674,16.5470548 -3.60284,36.2705988 -20.374867,42.9015138 -5.762244,1.968725 -11.160337,5.459309 -14.047732,10.773752 -5.04659,8.35806 -3.2137,19.880577 4.255764,26.354459 2.121556,2.029146 5.310269,3.393973 6.038365,6.437589 1.744962,4.939959 -3.778696,10.157792 -8.913214,8.575202 C 77.064378,99.199323 72.645409,94.537134 69.368874,89.476436 59.702472,74.668621 63.7323,53.39909 78.30718,42.915274 c 5.335362,-4.565578 13.106143,-5.254023 18.027167,-10.338951 5.561503,-5.229793 7.883593,-13.237598 6.038263,-20.484474 -1.25566,-3.6114254 0.4893,-8.0923632 4.49466,-9.1552417 z"
         id="path2"
         style="fill:url(#paint0_linear);stroke-width:1.03386"
         inkscape:connector-curvature="0" /><path
         d="m 109.6912,50.524468 c 3.15118,-0.688446 6.8293,-1.594344 9.76719,0.205286 4.19251,2.669336 4.02941,9.747116 -0.53948,11.981548 -2.54896,1.014573 -5.47431,0.82135 -7.92186,2.10163 -4.01686,1.703018 -5.61127,6.437589 -5.07179,10.362976 0.3513,3.563068 3.4272,5.882048 5.536,8.527155 7.24436,9.505537 5.3478,24.349747 -4.33052,31.645187 -4.14337,2.66831 -10.306779,-0.36293 -10.70857,-5.08513 -0.841116,-4.86738 5.08475,-7.41608 4.99693,-12.13879 1.00369,-6.799908 -6.854912,-9.952301 -8.399032,-15.967254 C 87.60943,69.535439 95.92001,53.773472 109.6912,50.524468 Z"
         id="path4"
         style="fill:url(#paint1_linear);stroke-width:1.03386"
         inkscape:connector-curvature="0" /><path
         d="m 137.17149,93.558854 c 6.16435,-1.799629 13.06892,0.193223 18.37908,3.442228 13.39513,8.490758 15.36592,29.035758 4.16742,39.966648 -4.04195,3.98611 -9.57795,6.64318 -15.37846,7.08994 -5.13452,0.0849 -8.81264,-5.64026 -6.50205,-10.02509 2.02098,-4.56578 8.38607,-3.51481 11.39819,-7.08995 5.23489,-5.04832 4.29393,-14.6747 -2.30954,-18.2253 -3.51502,-2.56096 -8.71227,-1.00291 -11.88854,-4.07096 -3.45228,-3.14064 -2.29699,-9.372434 2.1339,-11.087516 z"
         id="path6"
         style="fill:url(#paint2_linear);stroke-width:1.03386"
         inkscape:connector-curvature="0" /><path
         d="m 47.236497,114.51402 c 4.393772,-3.70804 10.068089,-5.628 15.541563,-7.31895 3.339266,-0.91807 6.942211,2.05286 6.678637,5.3264 0.188297,3.16415 -3.0506,4.71095 -5.435835,6.08703 10.206201,2.59675 20.876923,2.87483 31.346803,2.05388 11.236135,-0.96611 22.483775,-3.10383 32.790445,-7.62156 5.15961,-2.62129 11.83836,2.60902 10.04321,8.00801 -1.39367,4.7222 -7.06767,5.67605 -11.13577,7.37927 -19.40787,6.32932 -40.548264,8.23804 -60.785019,4.89191 -6.779007,-1.38937 -14.085266,-3.21322 -19.044034,-8.20123 -2.912487,-2.8503 -3.276535,-7.87511 0,-10.60476 z"
         id="path8"
         style="fill:url(#paint3_linear);stroke-width:1.03386"
         inkscape:connector-curvature="0" /><path
         d="m 60.907635,146.9325 c 6.113642,-3.87775 13.520375,-5.27836 20.625792,-6.4745 4.757924,-1.12355 8.235302,4.9277 5.310269,8.43024 -2.058826,1.8852 -5.109426,2.18679 -7.620123,3.27354 12.126914,2.13772 24.693257,0.73711 36.393607,-2.80224 7.54442,-1.23192 10.78342,10.31544 3.86631,13.14119 -13.75897,4.68642 -28.873645,5.65253 -43.235136,3.29706 -6.327135,-1.31576 -13.332182,-3.06703 -17.550203,-8.15216 -2.899941,-3.36964 -1.556665,-8.53963 2.209484,-10.71313 z"
         id="path10"
         style="fill:url(#paint4_linear);stroke-width:1.03386"
         inkscape:connector-curvature="0" /><path
         d="m 21.388365,168.15326 c 6.816645,-3.79289 14.625065,-6.46222 22.533958,-6.57059 l 0.514707,1.67869 c -2.774376,1.95676 -6.151281,3.249 -8.097191,6.12383 20.387414,5.36321 41.741301,5.77317 62.743582,5.27835 11.574879,-0.26581 23.363049,0.3384 34.635779,-2.65707 4.8836,-1.01518 9.54136,-2.82677 14.37477,-4.01065 3.92904,-0.47027 6.10057,5.3029 2.48519,7.16254 -16.64667,11.38992 -37.84969,12.92343 -57.621718,13.49185 -19.646668,0.26581 -39.557014,-0.65225 -58.651232,-5.41126 -5.611586,-1.65517 -11.838248,-3.23673 -15.817787,-7.65734 -2.523347,-2.75419 0.225936,-6.05125 2.899942,-7.42835 z"
         id="path12"
         style="fill:url(#paint5_linear);stroke-width:1.03386"
         inkscape:connector-curvature="0" /></g><rect
       style="fill:none;fill-opacity:1;fill-rule:evenodd;stroke:none;stroke-width:3.9;stroke-linejoin:round;stroke-dasharray:none;stroke-opacity:0.5;paint-order:fill markers stroke"
       id="rect1"
       width="44.075188"
       height="31.645638"
       x="1.9758538"
       y="10.78429" /></g><defs
     id="defs1"><linearGradient
       id="paint0_linear"
       x1="94.0831"
       y1="102.397"
       x2="94.0831"
       y2="5"
       gradientUnits="userSpaceOnUse"
       gradientTransform="matrix(1.0455138,0,0,1.0223426,-7.6008048,-2.552391)"><stop
         stop-color="#FD2E00"
         id="stop14" /><stop
         offset="1"
         stop-color="#FF9900"
         id="stop16" /></linearGradient><linearGradient
       id="paint1_linear"
       x1="109.531"
       y1="116.298"
       x2="109.531"
       y2="51.0875"
       gradientUnits="userSpaceOnUse"
       gradientTransform="matrix(1.0455138,0,0,1.0223426,-7.6008048,-2.552391)"><stop
         stop-color="#FD2E00"
         id="stop19" /><stop
         offset="1"
         stop-color="#FF9900"
         id="stop21" /></linearGradient><linearGradient
       id="paint2_linear"
       x1="150.75"
       y1="143.407"
       x2="150.75"
       y2="93.3464"
       gradientUnits="userSpaceOnUse"
       gradientTransform="matrix(1.0455138,0,0,1.0223426,-7.6008048,-2.552391)"><stop
         stop-color="#FD2E00"
         id="stop24" /><stop
         offset="1"
         stop-color="#FF9900"
         id="stop26" /></linearGradient><linearGradient
       id="paint3_linear"
       x1="94.9843"
       y1="134.493"
       x2="94.9843"
       y2="107.184"
       gradientUnits="userSpaceOnUse"
       gradientTransform="matrix(1.0455138,0,0,1.0223426,-7.6008048,-2.552391)"><stop
         stop-color="#FD2E00"
         id="stop29" /><stop
         offset="1"
         stop-color="#FF9900"
         id="stop31" /></linearGradient><linearGradient
       id="paint4_linear"
       x1="93.553"
       y1="165.88"
       x2="93.553"
       y2="139.751"
       gradientUnits="userSpaceOnUse"
       gradientTransform="matrix(1.0455138,0,0,1.0223426,-7.6008048,-2.552391)"><stop
         stop-color="#FD2E00"
         id="stop34" /><stop
         offset="1"
         stop-color="#FF9900"
         id="stop36" /></linearGradient><linearGradient
       id="paint5_linear"
       x1="88.5283"
       y1="187.064"
       x2="88.5283"
       y2="160.548"
       gradientUnits="userSpaceOnUse"
       gradientTransform="matrix(1.0455138,0,0,1.0223426,-7.6008048,-2.552391)"><stop
         stop-color="#FD2E00"
         id="stop39" /><stop
         offset="1"
         stop-color="#FF9900"
         id="stop41" /></linearGradient><linearGradient
       inkscape:collect="always"
       xlink:href="#paint0_linear"
       id="linearGradient3"
       x1="32.000015"
       y1="58.999977"
       x2="32.000015"
       y2="5.000001"
       gradientUnits="userSpaceOnUse" /></defs><metadata
     id="metadata1"><rdf:RDF><cc:Work
         rdf:about=""><dc:title>folder-java</dc:title><dc:date>25-07-2025</dc:date><dc:description>Beautyline style Java folder icon</dc:description><cc:license
           rdf:resource="http://creativecommons.org/licenses/by-nc-sa/4.0/" /></cc:Work><cc:License
         rdf:about="http://creativecommons.org/licenses/by-nc-sa/4.0/"><cc:permits
           rdf:resource="http://creativecommons.org/ns#Reproduction" /><cc:permits
           rdf:resource="http://creativecommons.org/ns#Distribution" /><cc:requires
           rdf:resource="http://creativecommons.org/ns#Notice" /><cc:requires
           rdf:resource="http://creativecommons.org/ns#Attribution" /><cc:prohibits
           rdf:resource="http://creativecommons.org/ns#CommercialUse" /><cc:permits
           rdf:resource="http://creativecommons.org/ns#DerivativeWorks" /><cc:requires
           rdf:resource="http://creativecommons.org/ns#ShareAlike" /></cc:License></rdf:RDF></metadata></svg>
