<?xml version="1.0" encoding="UTF-8" standalone="no"?>
<svg
   width="48"
   height="48"
   viewBox="0 0 48 48"
   fill="none"
   version="2"
   id="svg1"
   sodipodi:docname="folder-book.svg"
   inkscape:version="1.4.2 (ebf0e940d0, 2025-05-08)"
   xml:space="preserve"
   xmlns:inkscape="http://www.inkscape.org/namespaces/inkscape"
   xmlns:sodipodi="http://sodipodi.sourceforge.net/DTD/sodipodi-0.dtd"
   xmlns:xlink="http://www.w3.org/1999/xlink"
   xmlns="http://www.w3.org/2000/svg"
   xmlns:svg="http://www.w3.org/2000/svg"
   xmlns:rdf="http://www.w3.org/1999/02/22-rdf-syntax-ns#"
   xmlns:cc="http://creativecommons.org/ns#"
   xmlns:dc="http://purl.org/dc/elements/1.1/"><title
     id="title1">folder-book</title><sodipodi:namedview
     id="namedview1"
     pagecolor="#3f4354"
     bordercolor="#000000"
     borderopacity="0.5"
     inkscape:showpageshadow="1"
     inkscape:pageopacity="0"
     inkscape:pagecheckerboard="1"
     inkscape:deskcolor="#2b2f40"
     showgrid="false"
     inkscape:zoom="15.229167"
     inkscape:cx="24"
     inkscape:cy="24"
     inkscape:window-width="1920"
     inkscape:window-height="1048"
     inkscape:window-x="0"
     inkscape:window-y="0"
     inkscape:window-maximized="1"
     inkscape:current-layer="g12" /><g
     id="g1"><g
       style="fill:none"
       id="g12"
       transform="matrix(0.18487395,0,0,0.18487395,12.181515,14.779521)"><path
         d="M 118.602,19.7969 H 106.016 C 103.406,17.7127 96.2283,13 84.3906,13 74.0695,13 67.3134,16.5892 64,18.8979 60.6866,16.5892 53.9305,13 43.6094,13 31.7717,13 24.594,17.7127 21.9843,19.7969 H 9.39844 C 7.52001,19.7969 6,21.3168 6,23.1953 v 81.5627 c 0,1.878 1.52001,3.398 3.39844,3.398 H 54.3854 c 1.4038,3.956 5.1839,6.797 9.6146,6.797 4.4307,0 8.2106,-2.841 9.6147,-6.797 h 44.9873 c 1.878,0 3.398,-1.52 3.398,-3.398 V 23.1953 c 0,-1.8785 -1.52,-3.3984 -3.398,-3.3984 z m -51.2036,4.9814 c 2.1639,-1.6161 7.7793,-4.9814 16.9922,-4.9814 9.2864,0 14.8662,3.39 16.9924,4.9913 v 60.0433 c -3.8073,-1.9383 -9.4637,-3.8627 -16.9924,-3.8627 -7.5171,0 -13.1855,1.9182 -16.9922,3.8531 z m -40.7812,0.0099 c 2.126,-1.6013 7.7058,-4.9913 16.9922,-4.9913 9.3031,0 14.884,3.4025 16.9922,4.9898 v 60.0448 c -3.8067,-1.9383 -9.4636,-3.8627 -16.9922,-3.8627 -7.5172,0 -13.1855,1.9182 -16.9922,3.8531 z M 115.203,101.359 H 70.7969 c -1.8785,0 -3.3985,1.52 -3.3985,3.399 0,1.875 -1.5234,3.398 -3.3984,3.398 -1.875,0 -3.3984,-1.523 -3.3984,-3.398 0,-1.879 -1.52,-3.399 -3.3985,-3.399 H 12.7969 V 26.5938 h 7.0234 v 64.5703 c 0,1.3641 0.8262,2.5887 2.0841,3.1197 1.2579,0.5343 2.7247,0.2522 3.6971,-0.6969 0.2458,-0.239 6.1432,-5.8213 18.0079,-5.8213 11.8646,0 17.762,5.5823 18.0076,5.8211 1.354,1.3338 3.5782,1.116 4.7209,0.0233 0.0129,-0.012 0.0324,-0.0111 0.0448,-0.0233 0.2459,-0.2388 6.1433,-5.8211 18.0079,-5.8211 11.8502,0 17.7454,5.5664 17.9844,5.7984 0.916,0.9188 2.363,1.2921 3.704,0.7372 1.28,-0.5294 2.101,-1.7838 2.101,-3.1371 V 26.5938 h 7.023 z"
         fill="url(#paint0_linear_625_181)"
         stroke="url(#paint1_linear_625_181)"
         stroke-width="3"
         id="path1"
         style="fill:url(#paint0_linear_625_181);stroke:url(#paint0_linear_625_181)" /></g><g
       id="g11"
       transform="matrix(0.74999965,0,0,0.74999965,3.7743922e-7,1.908614e-5)"><path
         d="M 8.24717,5.28688 C 10.8404,4.80099 13.5052,5.09747 16.1297,5.01923 18.8839,5.09747 21.902,4.61569 24.37,6.03631 c 2.3518,1.37121 3.8988,3.59891 6.0002,5.24599 0.7735,0.5518 1.7751,0.7577 2.7453,0.7412 9.4028,0 18.8055,0.0124 28.2083,0.0659 1.6185,-0.1277 3.018,1.4165 2.6022,2.8577 -0.2281,1.1159 -1.404,1.9436 -2.6291,1.8695 C 51.7466,16.8289 42.1963,16.7836 32.646,16.7754 30.4597,16.763 28.2778,16.0177 26.6547,14.663 24.6696,13.1765 23.3506,10.8953 21.0033,9.87817 17.7483,9.63934 14.462,9.84523 11.1981,9.77522 8.9536,9.63934 6.7091,10.8252 5.75228,12.7029 c -0.65725,1.1901 -0.541,2.5572 -0.54994,3.846 0.02235,10.8503 -0.00895,21.7005 0.01341,32.5549 -0.03577,2.0342 1.4084,3.9777 3.4517,4.7354 1.21614,0.4777 2.56645,0.3871 3.85855,0.3953 13.5833,-0.0206 27.1665,0.0083 40.7453,-0.0165 2.1014,0.0083 4.1134,-1.2023 4.9898,-2.9524 0.7019,-1.3135 0.5007,-2.8124 0.5275,-4.2248 0.009,-6.0284 -0.0312,-12.0567 0.0179,-18.0851 -0.0357,-1.3548 1.3995,-2.4954 2.8481,-2.3183 1.4219,0.0865 2.486,1.3712 2.325,2.6601 0,6.7366 0.0313,13.4732 -0.0134,20.214 C 63.9036,54.498 59.1016,58.8917 53.696,58.974 39.384,59.0234 25.0675,58.9864 10.7555,58.9905 6.61521,59.0317 2.60462,56.6516 0.945834,53.1557 0.163389,51.6362 -0.0243975,49.9356 0.00242916,48.272 0.0381981,37.01 -0.0243977,25.7397 0.0337268,14.4777 0.114207,10.1664 3.70004,6.22985 8.24717,5.28688 Z"
         id="path111"
         style="fill:url(#linearGradient30);fill-opacity:1;stroke:url(#linearGradient30);stroke-width:0;stroke-dasharray:none" /></g><rect
       style="fill:none;fill-opacity:0;fill-rule:evenodd;stroke:#000000;stroke-width:3.9;stroke-linejoin:round;stroke-dasharray:none;stroke-opacity:0;paint-order:fill markers stroke"
       id="rect1"
       width="44.075188"
       height="31.645638"
       x="1.9758538"
       y="10.78429" /></g><defs
     id="defs1"><linearGradient
       id="linearGradient6"
       inkscape:collect="always"
       inkscape:label="1"><stop
         style="stop-color:#fd5900;stop-opacity:1;"
         offset="0"
         id="stop5" /><stop
         style="stop-color:#ffde00;stop-opacity:1;"
         offset="1"
         id="stop6" /></linearGradient><linearGradient
       inkscape:collect="always"
       xlink:href="#linearGradient6"
       id="linearGradient30"
       gradientUnits="userSpaceOnUse"
       gradientTransform="matrix(1.421128,-0.01199146,0.01198687,1.4216711,-101.30678,-100.47471)"
       x1="92.877754"
       y1="111.25055"
       x2="93.171104"
       y2="74.976532" /><linearGradient
       id="paint1_linear"
       x1="4.5768099"
       y1="45.678902"
       x2="42.3731"
       y2="4.1876402"
       gradientUnits="userSpaceOnUse"
       gradientTransform="matrix(1.4285714,0,0,1.4285714,-8.757358,-11.86756)"><stop
         stop-color="#FF5508"
         id="stop4-7" /><stop
         offset="1"
         stop-color="#FFA208"
         id="stop5-8" /></linearGradient><linearGradient
       id="paint0_linear"
       x1="4.5768099"
       y1="45.678799"
       x2="42.3731"
       y2="4.1875501"
       gradientUnits="userSpaceOnUse"
       gradientTransform="matrix(1.4285714,0,0,1.4285714,-8.757358,-11.86756)"><stop
         stop-color="#FF5508"
         id="stop2-4" /><stop
         offset="1"
         stop-color="#FFA208"
         id="stop3-5" /></linearGradient><linearGradient
       id="paint0_linear_625_181"
       x1="64"
       y1="114.953"
       x2="64"
       y2="13"
       gradientUnits="userSpaceOnUse"><stop
         stop-color="#FD5900"
         id="stop1" /><stop
         offset="1"
         stop-color="#FFDE00"
         id="stop2" /></linearGradient></defs><metadata
     id="metadata1"><rdf:RDF><cc:Work
         rdf:about=""><dc:title>folder-book</dc:title><dc:date>22-07-2025</dc:date><dc:description>Beautyline style book folder icon</dc:description><cc:license
           rdf:resource="http://creativecommons.org/licenses/by-nc-sa/4.0/" /></cc:Work><cc:License
         rdf:about="http://creativecommons.org/licenses/by-nc-sa/4.0/"><cc:permits
           rdf:resource="http://creativecommons.org/ns#Reproduction" /><cc:permits
           rdf:resource="http://creativecommons.org/ns#Distribution" /><cc:requires
           rdf:resource="http://creativecommons.org/ns#Notice" /><cc:requires
           rdf:resource="http://creativecommons.org/ns#Attribution" /><cc:prohibits
           rdf:resource="http://creativecommons.org/ns#CommercialUse" /><cc:permits
           rdf:resource="http://creativecommons.org/ns#DerivativeWorks" /><cc:requires
           rdf:resource="http://creativecommons.org/ns#ShareAlike" /></cc:License></rdf:RDF></metadata></svg>
