<?xml version="1.0" encoding="UTF-8" standalone="no"?>
<svg
   width="48"
   height="48"
   viewBox="0 0 48 48"
   fill="none"
   version="2"
   id="svg1"
   sodipodi:docname="folder-cmake.svg"
   inkscape:version="1.4.2 (ebf0e940d0, 2025-05-08)"
   xml:space="preserve"
   xmlns:inkscape="http://www.inkscape.org/namespaces/inkscape"
   xmlns:sodipodi="http://sodipodi.sourceforge.net/DTD/sodipodi-0.dtd"
   xmlns:xlink="http://www.w3.org/1999/xlink"
   xmlns="http://www.w3.org/2000/svg"
   xmlns:svg="http://www.w3.org/2000/svg"
   xmlns:rdf="http://www.w3.org/1999/02/22-rdf-syntax-ns#"
   xmlns:cc="http://creativecommons.org/ns#"
   xmlns:dc="http://purl.org/dc/elements/1.1/"><title
     id="title1">folder-</title><sodipodi:namedview
     id="namedview1"
     pagecolor="#3f4354"
     bordercolor="#000000"
     borderopacity="0.5"
     inkscape:showpageshadow="1"
     inkscape:pageopacity="0"
     inkscape:pagecheckerboard="1"
     inkscape:deskcolor="#2b2f40"
     showgrid="false"
     inkscape:zoom="17.6875"
     inkscape:cx="21.795053"
     inkscape:cy="24"
     inkscape:window-width="1920"
     inkscape:window-height="1048"
     inkscape:window-x="0"
     inkscape:window-y="0"
     inkscape:window-maximized="1"
     inkscape:current-layer="g11" /><g
     id="g1"><g
       id="g11"
       transform="matrix(0.74999965,0,0,0.74999965,3.7743922e-7,1.908614e-5)"
       style="fill:url(#linearGradient3)"><path
         d="M 8.24717,5.28688 C 10.8404,4.80099 13.5052,5.09747 16.1297,5.01923 18.8839,5.09747 21.902,4.61569 24.37,6.03631 c 2.3518,1.37121 3.8988,3.59891 6.0002,5.24599 0.7735,0.5518 1.7751,0.7577 2.7453,0.7412 9.4028,0 18.8055,0.0124 28.2083,0.0659 1.6185,-0.1277 3.018,1.4165 2.6022,2.8577 -0.2281,1.1159 -1.404,1.9436 -2.6291,1.8695 C 51.7466,16.8289 42.1963,16.7836 32.646,16.7754 30.4597,16.763 28.2778,16.0177 26.6547,14.663 24.6696,13.1765 23.3506,10.8953 21.0033,9.87817 17.7483,9.63934 14.462,9.84523 11.1981,9.77522 8.9536,9.63934 6.7091,10.8252 5.75228,12.7029 c -0.65725,1.1901 -0.541,2.5572 -0.54994,3.846 0.02235,10.8503 -0.00895,21.7005 0.01341,32.5549 -0.03577,2.0342 1.4084,3.9777 3.4517,4.7354 1.21614,0.4777 2.56645,0.3871 3.85855,0.3953 13.5833,-0.0206 27.1665,0.0083 40.7453,-0.0165 2.1014,0.0083 4.1134,-1.2023 4.9898,-2.9524 0.7019,-1.3135 0.5007,-2.8124 0.5275,-4.2248 0.009,-6.0284 -0.0312,-12.0567 0.0179,-18.0851 -0.0357,-1.3548 1.3995,-2.4954 2.8481,-2.3183 1.4219,0.0865 2.486,1.3712 2.325,2.6601 0,6.7366 0.0313,13.4732 -0.0134,20.214 C 63.9036,54.498 59.1016,58.8917 53.696,58.974 39.384,59.0234 25.0675,58.9864 10.7555,58.9905 6.61521,59.0317 2.60462,56.6516 0.945834,53.1557 0.163389,51.6362 -0.0243975,49.9356 0.00242916,48.272 0.0381981,37.01 -0.0243977,25.7397 0.0337268,14.4777 0.114207,10.1664 3.70004,6.22985 8.24717,5.28688 Z"
         id="path111"
         style="fill:url(#linearGradient2);fill-opacity:1;stroke:url(#linearGradient30);stroke-width:0;stroke-dasharray:none" /></g><g
       style="fill:none"
       id="g2"
       transform="matrix(0.19684778,0,0,0.19684778,11.461137,14.008814)"><path
         d="m 85.3581,114.237 c 2.3156,0 4.195,1.954 4.195,4.362 0,2.408 -1.8794,4.362 -4.195,4.362 H 9.76382 c -7.71605,0 -9.24024,-4.257 -3.40077,-9.503 L 65.1381,60.6775 c 3.5042,-3.1463 6.9693,-1.8465 7.73,2.9021 l 2.6457,16.4903 c 0.3859,2.3757 -1.1551,4.6293 -3.44,5.0306 -2.282,0.4013 -4.4523,-1.2009 -4.8382,-3.5766 L 65.6695,71.7244 18.3216,114.237 Z"
         fill="url(#paint0_linear)"
         stroke="url(#paint1_linear)"
         stroke-width="4"
         id="path1"
         style="fill:url(#paint0_linear-3);stroke:url(#paint0_linear-3)" /><path
         d="m 24.758,89.0205 c -1.1646,2.0958 -3.747,2.8138 -5.7668,1.6054 -2.017,-1.2084 -2.7118,-3.888 -1.5472,-5.9838 l 33.7004,-61.1809 7.961,-14.39034 4.1914,10.62494 -4.7259,7.9103 z"
         fill="url(#paint2_linear)"
         stroke="url(#paint3_linear)"
         stroke-width="4"
         id="path2"
         style="fill:url(#paint2_linear);stroke:url(#paint2_linear)" /><path
         d="M 59.5137,12.8797 59.0666,8.99793 60.2487,7.04829 c 1.6461,-2.726 4.234,-2.67055 5.7711,0.12258 L 66.9477,8.852 123.736,116.211 c 2.236,4.232 0.523,6.325 -3.826,4.673 L 56.2159,96.7028 c -2.1743,-0.8201 -3.3005,-3.3301 -2.5152,-5.6038 0.7881,-2.2707 3.1916,-3.4469 5.3659,-2.6267 l 51.3944,19.5257 z"
         fill="url(#paint4_linear)"
         stroke="url(#paint5_linear)"
         stroke-width="4"
         id="path3"
         style="fill:url(#paint4_linear);stroke:url(#paint4_linear)" /></g></g><defs
     id="defs1"><linearGradient
       id="paint0_linear"
       x1="94.0831"
       y1="102.397"
       x2="94.0831"
       y2="5"
       gradientUnits="userSpaceOnUse"
       gradientTransform="matrix(1.0455138,0,0,1.0223426,-7.6008048,-2.552391)"><stop
         stop-color="#FD2E00"
         id="stop14" /><stop
         offset="1"
         stop-color="#FF9900"
         id="stop16" /></linearGradient><linearGradient
       inkscape:collect="always"
       xlink:href="#paint0_linear"
       id="linearGradient3"
       x1="32.000015"
       y1="58.999977"
       x2="32.000015"
       y2="5.000001"
       gradientUnits="userSpaceOnUse" /><linearGradient
       id="paint0_linear-3"
       x1="46.1832"
       y1="122.961"
       x2="46.1832"
       y2="58.9606"
       gradientUnits="userSpaceOnUse"><stop
         stop-color="#00B59C"
         id="stop3" /><stop
         offset="1"
         stop-color="#9CFFAC"
         id="stop4" /></linearGradient><linearGradient
       id="paint2_linear"
       x1="16.8792"
       y1="91.2126"
       x2="79.7163"
       y2="75.7359"
       gradientUnits="userSpaceOnUse"><stop
         stop-color="#0357D1"
         id="stop7" /><stop
         offset="1"
         stop-color="#27CDFC"
         id="stop8" /></linearGradient><linearGradient
       id="paint4_linear"
       x1="89.0842"
       y1="121.449"
       x2="89.0842"
       y2="5.03937"
       gradientUnits="userSpaceOnUse"><stop
         stop-color="#FD2E00"
         id="stop11" /><stop
         offset="1"
         stop-color="#FF9900"
         id="stop12" /></linearGradient><linearGradient
       inkscape:collect="always"
       xlink:href="#paint2_linear"
       id="linearGradient2"
       gradientUnits="userSpaceOnUse"
       x1="-2.036644e-09"
       y1="58.999977"
       x2="70.771614"
       y2="40.956554" /></defs><metadata
     id="metadata1"><rdf:RDF><cc:Work
         rdf:about=""><dc:title>folder-</dc:title><dc:date>26-07-2025</dc:date><dc:description>Beautyline style * folder icon</dc:description><cc:license
           rdf:resource="http://creativecommons.org/licenses/by-nc-sa/4.0/" /></cc:Work><cc:License
         rdf:about="http://creativecommons.org/licenses/by-nc-sa/4.0/"><cc:permits
           rdf:resource="http://creativecommons.org/ns#Reproduction" /><cc:permits
           rdf:resource="http://creativecommons.org/ns#Distribution" /><cc:requires
           rdf:resource="http://creativecommons.org/ns#Notice" /><cc:requires
           rdf:resource="http://creativecommons.org/ns#Attribution" /><cc:prohibits
           rdf:resource="http://creativecommons.org/ns#CommercialUse" /><cc:permits
           rdf:resource="http://creativecommons.org/ns#DerivativeWorks" /><cc:requires
           rdf:resource="http://creativecommons.org/ns#ShareAlike" /></cc:License></rdf:RDF></metadata></svg>
