<?xml version="1.0" encoding="UTF-8" standalone="no"?>
<svg
   width="48"
   height="48"
   viewBox="0 0 48 48"
   fill="none"
   version="2"
   id="svg1"
   sodipodi:docname="folder-comic.svg"
   inkscape:version="1.4.2 (ebf0e940d0, 2025-05-08)"
   xml:space="preserve"
   xmlns:inkscape="http://www.inkscape.org/namespaces/inkscape"
   xmlns:sodipodi="http://sodipodi.sourceforge.net/DTD/sodipodi-0.dtd"
   xmlns:xlink="http://www.w3.org/1999/xlink"
   xmlns="http://www.w3.org/2000/svg"
   xmlns:svg="http://www.w3.org/2000/svg"
   xmlns:rdf="http://www.w3.org/1999/02/22-rdf-syntax-ns#"
   xmlns:cc="http://creativecommons.org/ns#"
   xmlns:dc="http://purl.org/dc/elements/1.1/"><title
     id="title1">folder-comic</title><sodipodi:namedview
     id="namedview1"
     pagecolor="#3f4354"
     bordercolor="#000000"
     borderopacity="0.5"
     inkscape:showpageshadow="1"
     inkscape:pageopacity="0"
     inkscape:pagecheckerboard="1"
     inkscape:deskcolor="#2b2f40"
     showgrid="false"
     inkscape:zoom="17.6875"
     inkscape:cx="24"
     inkscape:cy="24"
     inkscape:window-width="1920"
     inkscape:window-height="1048"
     inkscape:window-x="0"
     inkscape:window-y="0"
     inkscape:window-maximized="1"
     inkscape:current-layer="g12" /><g
     id="g1"><g
       id="g11"
       transform="matrix(0.74999965,0,0,0.74999965,3.7743922e-7,1.908614e-5)"><path
         d="M 8.24717,5.28688 C 10.8404,4.80099 13.5052,5.09747 16.1297,5.01923 18.8839,5.09747 21.902,4.61569 24.37,6.03631 c 2.3518,1.37121 3.8988,3.59891 6.0002,5.24599 0.7735,0.5518 1.7751,0.7577 2.7453,0.7412 9.4028,0 18.8055,0.0124 28.2083,0.0659 1.6185,-0.1277 3.018,1.4165 2.6022,2.8577 -0.2281,1.1159 -1.404,1.9436 -2.6291,1.8695 C 51.7466,16.8289 42.1963,16.7836 32.646,16.7754 30.4597,16.763 28.2778,16.0177 26.6547,14.663 24.6696,13.1765 23.3506,10.8953 21.0033,9.87817 17.7483,9.63934 14.462,9.84523 11.1981,9.77522 8.9536,9.63934 6.7091,10.8252 5.75228,12.7029 c -0.65725,1.1901 -0.541,2.5572 -0.54994,3.846 0.02235,10.8503 -0.00895,21.7005 0.01341,32.5549 -0.03577,2.0342 1.4084,3.9777 3.4517,4.7354 1.21614,0.4777 2.56645,0.3871 3.85855,0.3953 13.5833,-0.0206 27.1665,0.0083 40.7453,-0.0165 2.1014,0.0083 4.1134,-1.2023 4.9898,-2.9524 0.7019,-1.3135 0.5007,-2.8124 0.5275,-4.2248 0.009,-6.0284 -0.0312,-12.0567 0.0179,-18.0851 -0.0357,-1.3548 1.3995,-2.4954 2.8481,-2.3183 1.4219,0.0865 2.486,1.3712 2.325,2.6601 0,6.7366 0.0313,13.4732 -0.0134,20.214 C 63.9036,54.498 59.1016,58.8917 53.696,58.974 39.384,59.0234 25.0675,58.9864 10.7555,58.9905 6.61521,59.0317 2.60462,56.6516 0.945834,53.1557 0.163389,51.6362 -0.0243975,49.9356 0.00242916,48.272 0.0381981,37.01 -0.0243977,25.7397 0.0337268,14.4777 0.114207,10.1664 3.70004,6.22985 8.24717,5.28688 Z"
         id="path111"
         style="fill:url(#linearGradient30);fill-opacity:1;stroke:url(#linearGradient30);stroke-width:0;stroke-dasharray:none" /></g><g
       style="fill:none"
       id="g12"
       transform="matrix(0.78571429,0,0,0.78571429,11.442019,14.035681)"><path
         fill-rule="evenodd"
         clip-rule="evenodd"
         d="M 27.4912,28.2845 C 26.4064,27.6005 25.5751,26.5398 25.1368,25.28 L 25.1247,25.2392 C 25.084,25.1203 25.0822,24.9902 25.1198,24.8701 25.1573,24.75 25.232,24.647 25.3315,24.5779 l 0.0022,-0.0012 C 28.163,22.3922 29.9858,18.8862 30,14.9253 V 14.923 C 30,7.79318 23.7319,2 16,2 8.26805,2.07465 2,7.8655 2,14.9195 2,22.0458 8.26805,27.8378 16,27.8378 l 0.1619,0.0012 c 0.9781,0 1.9333,-0.1097 2.8545,-0.3161 l -0.0897,0.0163 c 0.0965,-0.0339 0.2002,-0.038 0.2988,-0.0115 0.0986,0.0264 0.1881,0.0822 0.2581,0.1608 2.179,1.4209 4.6669,2.2143 7.2199,2.3024 l 0.0252,0.0011 c 0.1384,0.0183 0.279,0.0051 0.4124,-0.0386 0.1333,-0.0437 0.2565,-0.1169 0.3615,-0.215 0.1049,-0.098 0.1893,-0.2185 0.2475,-0.3537 0.0582,-0.1352 0.0889,-0.282 0.0902,-0.4307 0.1204,-0.1936 -0.0707,-0.3863 -0.2595,-0.5767 -0.0307,-0.031 -0.0614,-0.0619 -0.0906,-0.0928 z m -3.7625,-1.1873 c 0.0403,0.0371 0.0658,0.0893 0.0711,0.1458 v 0.0011 c -0.0021,0.0389 -0.0175,0.0756 -0.0434,0.1031 -0.0258,0.0276 -0.0602,0.044 -0.0967,0.0462 -1.4789,-0.4401 -2.857,-1.1997 -4.0489,-2.2314 -0.0931,-0.0874 -0.2062,-0.1471 -0.3279,-0.1728 -0.124,-0.0263 -0.2523,-0.0165 -0.3715,0.0284 l 0.0054,-0.0012 c -0.9569,0.2423 -1.9366,0.3675 -2.9201,0.3733 h -0.0055 c -6.47588,0 -11.70127,-4.6012 -11.70127,-10.3233 0,-5.72199 5.22539,-10.32318 11.70127,-10.32318 6.476,0 11.7025,4.60119 11.7025,10.32318 -0.045,1.6863 -0.5014,3.3309 -1.3243,4.7718 -0.8228,1.4409 -1.9838,2.6282 -3.3683,3.4451 l -0.0471,0.0256 c -0.1156,0.0666 -0.2142,0.1623 -0.2873,0.2787 -0.073,0.1165 -0.1182,0.2503 -0.1317,0.3896 v 0.0035 c 0.1677,1.1314 0.5789,2.2061 1.2013,3.1398 l -0.0142,-0.0233 z m -0.069,-9.1336 V 17.96 l 3e-4,-0.0034 z m 3e-4,-0.007 8e-4,-0.0256 c 0,0.0058 -10e-5,0.0117 -4e-4,0.0176 -10e-5,0.0027 -3e-4,0.0053 -4e-4,0.008 z m -3e-4,-0.0058 V 17.96 c -0.0099,0.135 -0.0857,0.2936 -0.1583,0.4455 -0.0458,0.0958 -0.0903,0.189 -0.1163,0.2719 l -0.0142,0.021 c -0.8622,1.1749 -1.9732,2.1154 -3.242,2.7445 -1.2688,0.629 -2.6594,0.9288 -4.0578,0.8746 h -0.0613 l -0.1947,0.0024 c -1.3606,5e-4 -2.7045,-0.3187 -3.9362,-0.935 C 10.6473,20.7686 9.55821,19.8705 8.68928,18.7544 L 8.68709,18.7532 C 8.5846,18.6646 8.50069,18.554 8.44076,18.4286 8.38083,18.3033 8.34622,18.1659 8.33917,18.0254 v 0.0024 C 8.33048,17.9439 8.33831,17.859 8.36215,17.7785 8.386,17.698 8.42533,17.6238 8.47764,17.5604 8.52996,17.4971 8.59409,17.4461 8.66595,17.4107 8.73781,17.3753 8.81581,17.3562 8.89497,17.3548 h 0.00328 c 0.12582,0.0167 0.24537,0.0682 0.34683,0.1493 L 9.22553,17.4874 C 11.1494,19.1277 13.5365,20.0275 16,20.0409 h -0.0098 l 0.1903,0.0023 c 2.4013,0.0049 4.7279,-0.8896 6.5733,-2.5275 0.0959,-0.0933 0.2203,-0.1463 0.3501,-0.1492 h 0.0077 c 0.072,-2e-4 0.1434,0.0148 0.2099,0.0441 0.0666,0.0293 0.1271,0.0724 0.178,0.1267 0.0509,0.0543 0.0913,0.1187 0.1188,0.1897 0.0275,0.071 0.0416,0.147 0.0414,0.2238 z M 13,12 c 0,1.1046 -0.8954,2 -2,2 -1.10457,0 -2,-0.8954 -2,-2 0,-1.1046 0.89543,-2 2,-2 1.1046,0 2,0.8954 2,2 z m 8,2 c 1.1046,0 2,-0.8954 2,-2 0,-1.1046 -0.8954,-2 -2,-2 -1.1046,0 -2,0.8954 -2,2 0,1.1046 0.8954,2 2,2 z"
         fill="url(#paint0_linear)"
         id="path1"
         style="fill:url(#paint0_linear-3)" /></g><rect
       style="fill:none;fill-opacity:1;fill-rule:evenodd;stroke:#000000;stroke-width:3.9;stroke-linejoin:round;stroke-dasharray:none;stroke-opacity:0;paint-order:fill markers stroke"
       id="rect1"
       width="44.075188"
       height="31.645638"
       x="1.9758538"
       y="10.78429" /></g><defs
     id="defs1"><linearGradient
       id="linearGradient6"
       inkscape:collect="always"
       inkscape:label="1"><stop
         style="stop-color:#5570ff;stop-opacity:1;"
         offset="0"
         id="stop5" /><stop
         style="stop-color:#4dd3ff;stop-opacity:1;"
         offset="1"
         id="stop6" /></linearGradient><linearGradient
       inkscape:collect="always"
       xlink:href="#linearGradient6"
       id="linearGradient30"
       gradientUnits="userSpaceOnUse"
       gradientTransform="matrix(1.421128,-0.01199146,0.01198687,1.4216711,-101.30678,-100.47471)"
       x1="92.862328"
       y1="113.07925"
       x2="93.171104"
       y2="74.976532" /><linearGradient
       id="paint1_linear"
       x1="4.5768099"
       y1="45.678902"
       x2="42.3731"
       y2="4.1876402"
       gradientUnits="userSpaceOnUse"
       gradientTransform="matrix(1.4285714,0,0,1.4285714,-8.757358,-11.86756)"><stop
         stop-color="#FF5508"
         id="stop4-7" /><stop
         offset="1"
         stop-color="#FFA208"
         id="stop5-8" /></linearGradient><linearGradient
       id="paint0_linear"
       x1="4.5768099"
       y1="45.678799"
       x2="42.3731"
       y2="4.1875501"
       gradientUnits="userSpaceOnUse"
       gradientTransform="matrix(1.4285714,0,0,1.4285714,-8.757358,-11.86756)"><stop
         stop-color="#FF5508"
         id="stop2-4" /><stop
         offset="1"
         stop-color="#FFA208"
         id="stop3-5" /></linearGradient><linearGradient
       id="paint0_linear-3"
       x1="16"
       y1="30"
       x2="16"
       y2="2"
       gradientUnits="userSpaceOnUse"><stop
         stop-color="#5570FF"
         id="stop1" /><stop
         offset="1"
         stop-color="#4DD3FF"
         id="stop2" /></linearGradient></defs><metadata
     id="metadata1"><rdf:RDF><cc:Work
         rdf:about=""><dc:title>folder-comic</dc:title><dc:date>22-07-2025</dc:date><dc:description>Beautyline style comic folder icon</dc:description><cc:license
           rdf:resource="http://creativecommons.org/licenses/by-nc-sa/4.0/" /></cc:Work><cc:License
         rdf:about="http://creativecommons.org/licenses/by-nc-sa/4.0/"><cc:permits
           rdf:resource="http://creativecommons.org/ns#Reproduction" /><cc:permits
           rdf:resource="http://creativecommons.org/ns#Distribution" /><cc:requires
           rdf:resource="http://creativecommons.org/ns#Notice" /><cc:requires
           rdf:resource="http://creativecommons.org/ns#Attribution" /><cc:prohibits
           rdf:resource="http://creativecommons.org/ns#CommercialUse" /><cc:permits
           rdf:resource="http://creativecommons.org/ns#DerivativeWorks" /><cc:requires
           rdf:resource="http://creativecommons.org/ns#ShareAlike" /></cc:License></rdf:RDF></metadata></svg>
