<?xml version="1.0" encoding="UTF-8" standalone="no"?>
<svg
   width="48"
   height="48"
   viewBox="0 0 48 48"
   fill="none"
   version="2"
   id="svg1"
   sodipodi:docname="folder-language.svg"
   inkscape:version="1.4.2 (ebf0e940d0, 2025-05-08)"
   xml:space="preserve"
   xmlns:inkscape="http://www.inkscape.org/namespaces/inkscape"
   xmlns:sodipodi="http://sodipodi.sourceforge.net/DTD/sodipodi-0.dtd"
   xmlns:xlink="http://www.w3.org/1999/xlink"
   xmlns="http://www.w3.org/2000/svg"
   xmlns:svg="http://www.w3.org/2000/svg"
   xmlns:rdf="http://www.w3.org/1999/02/22-rdf-syntax-ns#"
   xmlns:cc="http://creativecommons.org/ns#"
   xmlns:dc="http://purl.org/dc/elements/1.1/"><title
     id="title1">folder-language</title><sodipodi:namedview
     id="namedview1"
     pagecolor="#3f4354"
     bordercolor="#000000"
     borderopacity="0.5"
     inkscape:showpageshadow="1"
     inkscape:pageopacity="0"
     inkscape:pagecheckerboard="1"
     inkscape:deskcolor="#2b2f40"
     showgrid="false"
     inkscape:zoom="15.229167"
     inkscape:cx="24"
     inkscape:cy="24"
     inkscape:window-width="1920"
     inkscape:window-height="1048"
     inkscape:window-x="0"
     inkscape:window-y="0"
     inkscape:window-maximized="1"
     inkscape:current-layer="g11" /><g
     id="g1"><g
       id="g11"
       transform="matrix(0.74999965,0,0,0.74999965,3.7743922e-7,1.908614e-5)"><path
         d="M 8.24717,5.28688 C 10.8404,4.80099 13.5052,5.09747 16.1297,5.01923 18.8839,5.09747 21.902,4.61569 24.37,6.03631 c 2.3518,1.37121 3.8988,3.59891 6.0002,5.24599 0.7735,0.5518 1.7751,0.7577 2.7453,0.7412 9.4028,0 18.8055,0.0124 28.2083,0.0659 1.6185,-0.1277 3.018,1.4165 2.6022,2.8577 -0.2281,1.1159 -1.404,1.9436 -2.6291,1.8695 C 51.7466,16.8289 42.1963,16.7836 32.646,16.7754 30.4597,16.763 28.2778,16.0177 26.6547,14.663 24.6696,13.1765 23.3506,10.8953 21.0033,9.87817 17.7483,9.63934 14.462,9.84523 11.1981,9.77522 8.9536,9.63934 6.7091,10.8252 5.75228,12.7029 c -0.65725,1.1901 -0.541,2.5572 -0.54994,3.846 0.02235,10.8503 -0.00895,21.7005 0.01341,32.5549 -0.03577,2.0342 1.4084,3.9777 3.4517,4.7354 1.21614,0.4777 2.56645,0.3871 3.85855,0.3953 13.5833,-0.0206 27.1665,0.0083 40.7453,-0.0165 2.1014,0.0083 4.1134,-1.2023 4.9898,-2.9524 0.7019,-1.3135 0.5007,-2.8124 0.5275,-4.2248 0.009,-6.0284 -0.0312,-12.0567 0.0179,-18.0851 -0.0357,-1.3548 1.3995,-2.4954 2.8481,-2.3183 1.4219,0.0865 2.486,1.3712 2.325,2.6601 0,6.7366 0.0313,13.4732 -0.0134,20.214 C 63.9036,54.498 59.1016,58.8917 53.696,58.974 39.384,59.0234 25.0675,58.9864 10.7555,58.9905 6.61521,59.0317 2.60462,56.6516 0.945834,53.1557 0.163389,51.6362 -0.0243975,49.9356 0.00242916,48.272 0.0381981,37.01 -0.0243977,25.7397 0.0337268,14.4777 0.114207,10.1664 3.70004,6.22985 8.24717,5.28688 Z"
         id="path111"
         style="fill:url(#linearGradient30);fill-opacity:1;stroke:url(#linearGradient30);stroke-width:0;stroke-dasharray:none" /></g><g
       style="fill:none"
       id="g12"
       transform="matrix(0.19298246,0,0,0.19298246,11.66257,14.256232)"><path
         d="m 90.7789,73.4545 c -0.3535,-1.1791 -1.8078,-1.7304 -3.3012,-1.7304 -1.4542,0 -2.9085,0.5513 -3.262,1.7304 l -7.5856,24.7203 c -0.0391,0.1576 -0.0783,0.3143 -0.0783,0.3927 0,1.258 1.8469,2.1225 3.2229,2.1225 0.8646,0 1.5325,-0.275 1.7293,-1.0219 l 1.4925,-5.2273 h 9.0006 l 1.4945,5.2273 c 0.1959,0.7469 0.8637,1.0219 1.7284,1.0219 1.3759,0 3.2228,-0.9031 3.2228,-2.1225 0,-0.1175 -0.0391,-0.236 -0.0783,-0.3927 z m -6.7208,16.9771 3.4187,-12.0649 3.4206,12.0649 z"
         fill="url(#paint0_linear_618_163)"
         stroke="url(#paint1_linear_618_163)"
         stroke-width="2"
         id="path1"
         style="fill:url(#paint0_linear_618_163);stroke:url(#paint0_linear_618_163)" /><path
         d="M 107.933,53.6897 H 74.3094 V 39.3291 l 10.9272,-7.8049 c 0.8623,-0.6161 1.3741,-1.6099 1.3741,-2.6695 0,-1.0603 -0.5118,-2.0541 -1.3741,-2.6702 L 74.1779,18.2856 C 73.314,12.4732 68.2904,8 62.2423,8 H 20.068 C 13.4132,8 8,13.4132 8,20.068 v 42.1751 c 0,6.654 5.4132,12.0672 12.068,12.0672 h 33.6226 v 14.3606 l -10.9272,7.8049 c -0.8623,0.6161 -1.3741,1.6107 -1.3741,2.67 0,1.0602 0.5118,2.0542 1.3741,2.6692 l 11.0587,7.899 C 54.686,115.527 59.7096,120 65.7577,120 H 107.933 C 114.586,120 120,114.586 120,107.932 V 65.7577 c 0,-6.6548 -5.414,-12.068 -12.067,-12.068 z M 20.068,67.7478 c -3.036,0 -5.5055,-2.4695 -5.5055,-5.5055 V 20.0671 c 0,-3.0351 2.4695,-5.5046 5.5055,-5.5046 h 42.1743 c 3.0352,0 5.5047,2.4695 5.5047,5.5046 0,1.0605 0.5118,2.0551 1.374,2.6704 l 8.5628,6.1164 -8.5628,6.1165 c -0.8622,0.6161 -1.374,1.6106 -1.374,2.6702 v 16.0491 h -1.9893 c -6.6539,0 -12.0671,5.4132 -12.0671,12.0672 v 1.9909 z m 93.369,40.1842 c 0,3.036 -2.469,5.505 -5.504,5.505 H 65.7577 c -3.0352,0 -5.5047,-2.469 -5.5047,-5.505 0,-1.059 -0.5118,-2.055 -1.374,-2.67 l -8.5628,-6.1162 8.5628,-6.1162 c 0.8622,-0.6161 1.374,-1.6107 1.374,-2.6702 V 65.7577 c 0,-3.036 2.4695,-5.5055 5.5047,-5.5055 h 5.262 0.0085 0.0086 36.8962 c 3.035,0 5.504,2.4695 5.504,5.5055 z"
         fill="url(#paint2_linear_618_163)"
         stroke="url(#paint3_linear_618_163)"
         stroke-width="2"
         id="path2"
         style="fill:url(#paint2_linear_618_163);stroke:url(#paint2_linear_618_163)" /><path
         d="m 51.925,36.6117 c 1.1417,0 2.0685,-0.9268 2.0685,-2.0695 0,-1.1427 -0.9268,-2.0695 -2.0685,-2.0695 h -9.2039 v -5.0238 c 0,-1.1427 -0.9268,-2.0695 -2.0695,-2.0695 -1.1418,0 -2.0686,0.9268 -2.0686,2.0695 v 5.0238 h -9.2039 c -1.1418,0 -2.0686,0.9268 -2.0686,2.0695 0,1.1427 0.9268,2.0695 2.0686,2.0695 h 2.852 c 0.4557,4.3693 2.3399,8.3182 5.1738,11.3765 -2.3495,1.4065 -5.0936,2.2186 -8.0258,2.2186 -1.1418,0 -2.0686,0.9258 -2.0686,2.0686 0,1.1427 0.9268,2.0695 2.0686,2.0695 4.1868,0 8.0707,-1.3089 11.2725,-3.5351 3.2026,2.2262 7.0865,3.5351 11.2734,3.5351 1.1417,0 2.0685,-0.9268 2.0685,-2.0695 0,-1.1428 -0.9268,-2.0686 -2.0685,-2.0686 -2.9323,0 -5.6764,-0.8102 -8.0259,-2.2186 2.8339,-3.0583 4.7181,-7.0072 5.1738,-11.3765 z M 40.6516,45.4029 C 38.388,43.0534 36.8507,40.0026 36.4007,36.6117 h 8.5026 c -0.45,3.3909 -1.9873,6.4417 -4.2517,8.7912 z"
         fill="url(#paint4_linear_618_163)"
         stroke="url(#paint5_linear_618_163)"
         stroke-width="2"
         id="path3"
         style="fill:url(#paint4_linear_618_163);stroke:url(#paint4_linear_618_163)" /></g><rect
       style="fill:none;fill-opacity:1;fill-rule:evenodd;stroke:none;stroke-width:3.9;stroke-linejoin:round;stroke-dasharray:none;stroke-opacity:0.5;paint-order:fill markers stroke"
       id="rect1"
       width="44.075188"
       height="31.645638"
       x="1.9758538"
       y="10.78429" /></g><defs
     id="defs1"><linearGradient
       inkscape:collect="always"
       xlink:href="#paint4_linear_618_163"
       id="linearGradient30"
       gradientUnits="userSpaceOnUse"
       gradientTransform="matrix(1.421128,-0.01199146,0.01198687,1.4216711,-101.30678,-100.47471)"
       x1="109.06596"
       y1="107.80122"
       x2="78.247963"
       y2="81.447845" /><linearGradient
       id="paint0_linear_618_163"
       x1="95.0224"
       y1="99.0086"
       x2="78.9169"
       y2="84.3627"
       gradientUnits="userSpaceOnUse"><stop
         stop-color="#2D30FF"
         id="stop3" /><stop
         offset="1"
         stop-color="#00C0FF"
         id="stop4" /></linearGradient><linearGradient
       id="paint2_linear_618_163"
       x1="102.5"
       y1="113.5"
       x2="41"
       y2="39.5"
       gradientUnits="userSpaceOnUse"><stop
         stop-color="#2D30FF"
         id="stop7" /><stop
         offset="1"
         stop-color="#00C0FF"
         id="stop8" /></linearGradient><linearGradient
       id="paint4_linear_618_163"
       x1="49.8243"
       y1="52.6639"
       x2="33.7314"
       y2="34.826"
       gradientUnits="userSpaceOnUse"><stop
         stop-color="#2D30FF"
         id="stop11" /><stop
         offset="1"
         stop-color="#00C0FF"
         id="stop12" /></linearGradient></defs><metadata
     id="metadata1"><rdf:RDF><cc:Work
         rdf:about=""><dc:title>folder-language</dc:title><dc:date>25-07-2025</dc:date><dc:description>Beautyline style language folder icon</dc:description><cc:license
           rdf:resource="http://creativecommons.org/licenses/by-nc-sa/4.0/" /></cc:Work><cc:License
         rdf:about="http://creativecommons.org/licenses/by-nc-sa/4.0/"><cc:permits
           rdf:resource="http://creativecommons.org/ns#Reproduction" /><cc:permits
           rdf:resource="http://creativecommons.org/ns#Distribution" /><cc:requires
           rdf:resource="http://creativecommons.org/ns#Notice" /><cc:requires
           rdf:resource="http://creativecommons.org/ns#Attribution" /><cc:prohibits
           rdf:resource="http://creativecommons.org/ns#CommercialUse" /><cc:permits
           rdf:resource="http://creativecommons.org/ns#DerivativeWorks" /><cc:requires
           rdf:resource="http://creativecommons.org/ns#ShareAlike" /></cc:License></rdf:RDF></metadata></svg>
