<?xml version="1.0" encoding="UTF-8" standalone="no"?>
<svg
   width="48"
   height="48"
   viewBox="0 0 48 48"
   fill="none"
   version="2"
   id="svg1"
   sodipodi:docname="folder-rpm.svg"
   inkscape:version="1.4.2 (ebf0e940d0, 2025-05-08)"
   xml:space="preserve"
   xmlns:inkscape="http://www.inkscape.org/namespaces/inkscape"
   xmlns:sodipodi="http://sodipodi.sourceforge.net/DTD/sodipodi-0.dtd"
   xmlns:xlink="http://www.w3.org/1999/xlink"
   xmlns="http://www.w3.org/2000/svg"
   xmlns:svg="http://www.w3.org/2000/svg"
   xmlns:rdf="http://www.w3.org/1999/02/22-rdf-syntax-ns#"
   xmlns:cc="http://creativecommons.org/ns#"
   xmlns:dc="http://purl.org/dc/elements/1.1/"><title
     id="title1">folder-</title><sodipodi:namedview
     id="namedview1"
     pagecolor="#3f4354"
     bordercolor="#000000"
     borderopacity="0.5"
     inkscape:showpageshadow="1"
     inkscape:pageopacity="0"
     inkscape:pagecheckerboard="1"
     inkscape:deskcolor="#2b2f40"
     showgrid="false"
     inkscape:zoom="7.4701553"
     inkscape:cx="7.7642295"
     inkscape:cy="48.928032"
     inkscape:window-width="1920"
     inkscape:window-height="1048"
     inkscape:window-x="0"
     inkscape:window-y="0"
     inkscape:window-maximized="1"
     inkscape:current-layer="g11" /><g
     id="g1"><g
       id="g11"
       transform="matrix(0.74999965,0,0,0.74999965,3.7743922e-7,1.908614e-5)"
       style="fill:url(#linearGradient3)"><path
         d="M 8.24717,5.28688 C 10.8404,4.80099 13.5052,5.09747 16.1297,5.01923 18.8839,5.09747 21.902,4.61569 24.37,6.03631 c 2.3518,1.37121 3.8988,3.59891 6.0002,5.24599 0.7735,0.5518 1.7751,0.7577 2.7453,0.7412 9.4028,0 18.8055,0.0124 28.2083,0.0659 1.6185,-0.1277 3.018,1.4165 2.6022,2.8577 -0.2281,1.1159 -1.404,1.9436 -2.6291,1.8695 C 51.7466,16.8289 42.1963,16.7836 32.646,16.7754 30.4597,16.763 28.2778,16.0177 26.6547,14.663 24.6696,13.1765 23.3506,10.8953 21.0033,9.87817 17.7483,9.63934 14.462,9.84523 11.1981,9.77522 8.9536,9.63934 6.7091,10.8252 5.75228,12.7029 c -0.65725,1.1901 -0.541,2.5572 -0.54994,3.846 0.02235,10.8503 -0.00895,21.7005 0.01341,32.5549 -0.03577,2.0342 1.4084,3.9777 3.4517,4.7354 1.21614,0.4777 2.56645,0.3871 3.85855,0.3953 13.5833,-0.0206 27.1665,0.0083 40.7453,-0.0165 2.1014,0.0083 4.1134,-1.2023 4.9898,-2.9524 0.7019,-1.3135 0.5007,-2.8124 0.5275,-4.2248 0.009,-6.0284 -0.0312,-12.0567 0.0179,-18.0851 -0.0357,-1.3548 1.3995,-2.4954 2.8481,-2.3183 1.4219,0.0865 2.486,1.3712 2.325,2.6601 0,6.7366 0.0313,13.4732 -0.0134,20.214 C 63.9036,54.498 59.1016,58.8917 53.696,58.974 39.384,59.0234 25.0675,58.9864 10.7555,58.9905 6.61521,59.0317 2.60462,56.6516 0.945834,53.1557 0.163389,51.6362 -0.0243975,49.9356 0.00242916,48.272 0.0381981,37.01 -0.0243977,25.7397 0.0337268,14.4777 0.114207,10.1664 3.70004,6.22985 8.24717,5.28688 Z"
         id="path111"
         style="fill:url(#linearGradient7);fill-opacity:1;stroke:url(#linearGradient30);stroke-width:0;stroke-dasharray:none" /></g><g
       style="fill:none"
       id="g2"
       transform="matrix(1.6363312,0,0,1.6363312,10.922627,13.516024)"><path
         d="M 7.99926,1.00586 C 6.29804,1.00928 4.65354,1.62557 3.34516,2.74433 3.22628,2.84603 3.21745,3.02693 3.32618,3.13959 L 3.9921,3.83019 C 4.09048,3.9323 4.25106,3.9415 4.3606,3.85117 5.39326,2.99949 6.67533,2.53165 7.9998,2.52797 c 1.55706,0 3.0503,0.64144 4.1513,1.78309 1.0416,1.08034 1.6516,2.5246 1.7142,4.04467 0.0059,0.1458 0.126,0.26053 0.2716,0.26053 h 0.925 c 0.1537,0 0.2771,-0.12753 0.2715,-0.2814 C 15.2652,6.41879 14.5013,4.5957 13.1891,3.23495 11.8128,1.80773 9.94546,1.00593 7.99926,1.00586 Z"
         fill="url(#paint0_linear_448_565)"
         id="path1"
         style="fill:url(#linearGradient2)" /><path
         d="M 1.64424,5.69951 C 1.50658,5.55663 1.26732,5.60463 1.19532,5.78945 0.879702,6.59933 0.700842,7.46013 0.666835,8.33367 0.660846,8.48767 0.784189,8.6158 0.938442,8.6158 H 1.86318 c 0.14548,0 0.26516,-0.11427 0.27155,-0.25973 C 2.15922,7.7986 2.25752,7.247 2.42693,6.7172 2.45738,6.62182 2.43309,6.51769 2.36371,6.44561 Z"
         fill="url(#paint1_linear_448_565)"
         id="path2"
         style="fill:url(#linearGradient4)" /><path
         d="M 7.99926,1.00586 C 6.29804,1.00928 4.65354,1.62557 3.34516,2.74433 3.22628,2.84603 3.21745,3.02693 3.32618,3.13959 L 3.9921,3.83019 C 4.09048,3.9323 4.25106,3.9415 4.3606,3.85117 5.39326,2.99949 6.67533,2.53165 7.9998,2.52797 c 1.55706,0 3.0503,0.64144 4.1513,1.78309 1.0416,1.08034 1.6516,2.5246 1.7142,4.04467 0.0059,0.1458 0.126,0.26053 0.2716,0.26053 h 0.925 c 0.1537,0 0.2771,-0.12753 0.2715,-0.2814 C 15.2652,6.41879 14.5013,4.5957 13.1891,3.23495 11.8128,1.80773 9.94546,1.00593 7.99926,1.00586 Z"
         fill="url(#paint2_linear_448_565)"
         id="path3"
         style="fill:url(#linearGradient5)" /><path
         d="M 2.36371,6.44561 C 2.43309,6.51769 2.45738,6.62182 2.42693,6.7172 2.25752,7.247 2.15922,7.7986 2.13473,8.35607 2.12834,8.50153 2.00866,8.6158 1.86318,8.6158 H 0.938442 C 0.784189,8.6158 0.660846,8.48767 0.666835,8.33367 0.700842,7.46013 0.879702,6.59933 1.19532,5.78945 1.26732,5.60463 1.50658,5.55663 1.64424,5.69951 Z"
         fill="url(#paint3_linear_448_565)"
         id="path4"
         style="fill:url(#linearGradient6)" /><path
         fill-rule="evenodd"
         clip-rule="evenodd"
         d="M 9.59991,5.4388 C 9.26151,5.35144 8.90924,5.52152 8.76757,5.84162 Z M 8.76757,5.84162 6.2161,11.5928 c -0.23159,0.2741 -0.39281,0.5991 -0.46904,0.9483 l -3.1e-4,0.0014 -0.00144,0.0068 c -0.00129,0.0058 -0.00243,0.012 -0.00344,0.018 l -0.01416,0.085 c -0.16996,1.0326 0.41761,2.042 1.41906,2.2886 0.99387,0.2436 1.98934,-0.3647 2.34707,-1.3348 l 0.0136,-0.0368 C 9.51717,13.5435 9.52357,13.5189 9.52784,13.496 L 9.55277,13.4207 C 9.55624,13.41 9.55937,13.3992 9.56204,13.3882 l 0.0022,-0.0095 C 9.61584,13.1653 9.63657,12.9448 9.62384,12.7266 9.62084,12.6753 9.61771,12.628 9.61471,12.5838 9.60477,12.4383 9.59711,12.3255 9.60744,12.2078 L 10.1338,6.1935 C 10.164,5.84579 9.93851,5.5262 9.59991,5.4388 m -1.35367,6.9415 c 0.0206,-0.2355 -0.118,-0.389 -0.31933,-0.4375 -0.20367,-0.0491 -0.41054,0.0255 -0.50927,0.248 -0.03933,0.0883 -0.09327,0.1732 -0.15993,0.2475 -0.0984,0.1097 -0.16527,0.2387 -0.19747,0.3746 l -0.00953,0.0572 c -0.06934,0.4225 0.17133,0.7082 0.41626,0.7684 0.2424,0.0594 0.58927,-0.0752 0.75054,-0.4502 l 0.04873,-0.148 c 0.02773,-0.1283 0.02627,-0.2542 4e-4,-0.367 l -0.0204,-0.293"
         fill="url(#paint4_linear_448_565)"
         id="path5"
         style="fill:url(#paint4_linear_448_565)"
         sodipodi:nodetypes="cccccsccccccccccccccccccccccccccc" /></g></g><defs
     id="defs1"><linearGradient
       id="paint0_linear_448_565"
       x1="14.9199"
       y1="8.00046"
       x2="2.82068"
       y2="3.41175"
       gradientUnits="userSpaceOnUse"><stop
         stop-color="#FE7970"
         id="stop5" /><stop
         offset="1"
         stop-color="#DC3282"
         id="stop6" /></linearGradient><linearGradient
       id="paint1_linear_448_565"
       x1="14.9199"
       y1="8.00007"
       x2="2.82064"
       y2="3.41131"
       gradientUnits="userSpaceOnUse"><stop
         stop-color="#FE7970"
         id="stop7" /><stop
         offset="1"
         stop-color="#DC3282"
         id="stop8" /></linearGradient><linearGradient
       id="paint4_linear_448_565"
       x1="14.9198"
       y1="8.00006"
       x2="2.82055"
       y2="3.41132"
       gradientUnits="userSpaceOnUse"><stop
         stop-color="#FE7970"
         id="stop13" /><stop
         offset="1"
         stop-color="#DC3282"
         id="stop14-3" /></linearGradient><linearGradient
       inkscape:collect="always"
       xlink:href="#paint0_linear_448_565"
       id="linearGradient5"
       gradientUnits="userSpaceOnUse"
       x1="14.9199"
       y1="8.00046"
       x2="2.82068"
       y2="3.41175" /><linearGradient
       inkscape:collect="always"
       xlink:href="#paint1_linear_448_565"
       id="linearGradient6"
       gradientUnits="userSpaceOnUse"
       x1="14.9199"
       y1="8.00007"
       x2="2.82064"
       y2="3.41131" /><linearGradient
       inkscape:collect="always"
       xlink:href="#paint0_linear_448_565"
       id="linearGradient7"
       gradientUnits="userSpaceOnUse"
       x1="58.781578"
       y1="36.167278"
       x2="8.9834547"
       y2="20.883757" /></defs><metadata
     id="metadata1"><rdf:RDF><cc:Work
         rdf:about=""><dc:title>folder-</dc:title><dc:date>26-07-2025</dc:date><dc:description>Beautyline style * folder icon</dc:description><cc:license
           rdf:resource="http://creativecommons.org/licenses/by-nc-sa/4.0/" /></cc:Work><cc:License
         rdf:about="http://creativecommons.org/licenses/by-nc-sa/4.0/"><cc:permits
           rdf:resource="http://creativecommons.org/ns#Reproduction" /><cc:permits
           rdf:resource="http://creativecommons.org/ns#Distribution" /><cc:requires
           rdf:resource="http://creativecommons.org/ns#Notice" /><cc:requires
           rdf:resource="http://creativecommons.org/ns#Attribution" /><cc:prohibits
           rdf:resource="http://creativecommons.org/ns#CommercialUse" /><cc:permits
           rdf:resource="http://creativecommons.org/ns#DerivativeWorks" /><cc:requires
           rdf:resource="http://creativecommons.org/ns#ShareAlike" /></cc:License></rdf:RDF></metadata></svg>
