<?xml version="1.0" encoding="UTF-8" standalone="no"?>
<svg
   width="48"
   height="48"
   viewBox="0 0 48 48"
   fill="none"
   version="2"
   id="svg1"
   sodipodi:docname="folder-list.svg"
   inkscape:version="1.4.2 (ebf0e940d0, 2025-05-08)"
   xml:space="preserve"
   xmlns:inkscape="http://www.inkscape.org/namespaces/inkscape"
   xmlns:sodipodi="http://sodipodi.sourceforge.net/DTD/sodipodi-0.dtd"
   xmlns:xlink="http://www.w3.org/1999/xlink"
   xmlns="http://www.w3.org/2000/svg"
   xmlns:svg="http://www.w3.org/2000/svg"
   xmlns:rdf="http://www.w3.org/1999/02/22-rdf-syntax-ns#"
   xmlns:cc="http://creativecommons.org/ns#"
   xmlns:dc="http://purl.org/dc/elements/1.1/"><title
     id="title1">folder-</title><sodipodi:namedview
     id="namedview1"
     pagecolor="#3f4354"
     bordercolor="#000000"
     borderopacity="0.5"
     inkscape:showpageshadow="1"
     inkscape:pageopacity="0"
     inkscape:pagecheckerboard="1"
     inkscape:deskcolor="#2b2f40"
     showgrid="false"
     inkscape:zoom="9.7050302"
     inkscape:cx="21.432185"
     inkscape:cy="25.811357"
     inkscape:window-width="1920"
     inkscape:window-height="1048"
     inkscape:window-x="0"
     inkscape:window-y="0"
     inkscape:window-maximized="1"
     inkscape:current-layer="g2" /><g
     id="g1"><g
       id="g11"
       transform="matrix(0.74999965,0,0,0.74999965,3.7743922e-7,1.908614e-5)"
       style="fill:url(#linearGradient3)"><path
         d="M 8.24717,5.28688 C 10.8404,4.80099 13.5052,5.09747 16.1297,5.01923 18.8839,5.09747 21.902,4.61569 24.37,6.03631 c 2.3518,1.37121 3.8988,3.59891 6.0002,5.24599 0.7735,0.5518 1.7751,0.7577 2.7453,0.7412 9.4028,0 18.8055,0.0124 28.2083,0.0659 1.6185,-0.1277 3.018,1.4165 2.6022,2.8577 -0.2281,1.1159 -1.404,1.9436 -2.6291,1.8695 C 51.7466,16.8289 42.1963,16.7836 32.646,16.7754 30.4597,16.763 28.2778,16.0177 26.6547,14.663 24.6696,13.1765 23.3506,10.8953 21.0033,9.87817 17.7483,9.63934 14.462,9.84523 11.1981,9.77522 8.9536,9.63934 6.7091,10.8252 5.75228,12.7029 c -0.65725,1.1901 -0.541,2.5572 -0.54994,3.846 0.02235,10.8503 -0.00895,21.7005 0.01341,32.5549 -0.03577,2.0342 1.4084,3.9777 3.4517,4.7354 1.21614,0.4777 2.56645,0.3871 3.85855,0.3953 13.5833,-0.0206 27.1665,0.0083 40.7453,-0.0165 2.1014,0.0083 4.1134,-1.2023 4.9898,-2.9524 0.7019,-1.3135 0.5007,-2.8124 0.5275,-4.2248 0.009,-6.0284 -0.0312,-12.0567 0.0179,-18.0851 -0.0357,-1.3548 1.3995,-2.4954 2.8481,-2.3183 1.4219,0.0865 2.486,1.3712 2.325,2.6601 0,6.7366 0.0313,13.4732 -0.0134,20.214 C 63.9036,54.498 59.1016,58.8917 53.696,58.974 39.384,59.0234 25.0675,58.9864 10.7555,58.9905 6.61521,59.0317 2.60462,56.6516 0.945834,53.1557 0.163389,51.6362 -0.0243975,49.9356 0.00242916,48.272 0.0381981,37.01 -0.0243977,25.7397 0.0337268,14.4777 0.114207,10.1664 3.70004,6.22985 8.24717,5.28688 Z"
         id="path111"
         style="fill:url(#linearGradient7);fill-opacity:1;stroke:url(#linearGradient30);stroke-width:0;stroke-dasharray:none" /></g><g
       style="fill:none"
       id="g2"
       transform="matrix(1.1486166,0,0,1.1486166,10.517087,12.884184)"><path
         d="M 2.8370154,2.728381 C 3.3033854,2.26201 3.9359253,2 4.5954754,2 H 19.516566 c 0.6595,0 1.292099,0.26201 1.758399,0.728381 0.466401,0.466368 0.728401,1.09891 0.728401,1.758459 V 19.4079 c 0,0.6595 -0.262,1.2921 -0.728401,1.758501 -0.4663,0.4663 -1.098899,0.728299 -1.758399,0.728299 H 4.5954754 c -0.6595501,0 -1.29209,-0.261999 -1.75846,-0.728299 C 2.3706353,20.7 2.1086354,20.0674 2.1086354,19.4079 v -0.329 c 0,-0.276099 0.22386,-0.499999 0.5,-0.499999 h 0.65789 c 0.2761499,0 0.5,0.2239 0.5,0.499999 v 0.329 c 0,0.219801 0.087339,0.4307 0.2428,0.586201 0.1554493,0.155405 0.3662999,0.2427 0.58615,0.2427 H 19.516566 c 0.2198,0 0.4307,-0.0873 0.586099,-0.2427 0.155494,-0.155494 0.242801,-0.3664 0.242801,-0.586201 V 4.48684 c 0,-0.21985 -0.0873,-0.430689 -0.242801,-0.586149 C 19.94726,3.745233 19.736366,3.65789 19.516566,3.65789 H 4.5954754 c -0.2198501,0 -0.4307,0.08733 -0.58615,0.242801 -0.1554598,0.155458 -0.2428,0.366299 -0.2428,0.586149 v 5.55008 c 0,0.276139 -0.2238501,0.499998 -0.5,0.499998 h -0.65789 c -0.27614,0 -0.5,-0.223859 -0.5,-0.499998 V 4.48684 c 0,-0.659549 0.2619999,-1.292091 0.72838,-1.758459 z M 2.6023042,12.932199 h 0.65789 c 0.2568119,0 0.5,0.329337 0.5,0.586149 v 2.478622 c 0,0.27614 -0.2238501,0.500001 -0.5,0.500001 h -0.65789 c -0.27614,0 -0.5,-0.223861 -0.5,-0.500001 v -2.478622 c 0,-0.256812 0.2431879,-0.586149 0.5,-0.586149 z"
         fill="url(#paint0_linear)"
         stroke="url(#paint1_linear)"
         id="path1-1"
         style="fill:url(#paint0_linear-3-0);stroke:url(#paint0_linear-3-0);stroke-width:1"
         sodipodi:nodetypes="csscssssscsssssscssssscsscsssssscsssssssss" /><g
         style="fill:none"
         id="g7"
         transform="matrix(0.66784355,0,0,0.66784355,4.8424872,4.601071)"><path
           d="m 8.25,1.375 c -0.37969,0 -0.6875,0.30781 -0.6875,0.6875 v 0.22917 c 0,0.37969 0.30781,0.6875 0.6875,0.6875 h 2.5208 8.9375 c 0.3798,0 0.6875,-0.30781 0.6875,-0.6875 V 2.0625 c 0,-0.37969 -0.3077,-0.6875 -0.6875,-0.6875 h -8.9375 z m 0,3.20833 c -0.37969,0 -0.6875,0.30781 -0.6875,0.6875 V 5.5 c 0,0.37969 0.30781,0.6875 0.6875,0.6875 H 10.7708 16.5 c 0.3796,0 0.6875,-0.30781 0.6875,-0.6875 V 5.27083 c 0,-0.37969 -0.3079,-0.6875 -0.6875,-0.6875 H 10.7708 Z M 8.25,11 c -0.37969,0 -0.6875,0.3078 -0.6875,0.6875 v 0.2292 c 0,0.3797 0.30781,0.6875 0.6875,0.6875 h 2.5208 8.9375 c 0.3798,0 0.6875,-0.3078 0.6875,-0.6875 V 11.6875 C 20.3958,11.3078 20.0881,11 19.7083,11 h -8.9375 z m 0,3.2083 c -0.37969,0 -0.6875,0.3078 -0.6875,0.6875 v 0.2292 c 0,0.3796 0.30781,0.6875 0.6875,0.6875 h 2.5208 2.5209 c 0.3797,0 0.6875,-0.3079 0.6875,-0.6875 v -0.2292 c 0,-0.3797 -0.3078,-0.6875 -0.6875,-0.6875 h -2.5209 z m 8.0208,0 c -0.3797,0 -0.6875,0.3078 -0.6875,0.6875 v 0.2292 c 0,0.3796 0.3078,0.6875 0.6875,0.6875 h 2.3203 0.2006 0.9166 c 0.3798,0 0.6875,-0.3079 0.6875,-0.6875 v -0.2292 c 0,-0.3797 -0.3077,-0.6875 -0.6875,-0.6875 h -0.9166 -0.2006 z m 1.6042,4.8125 c -0.3796,0 -0.6875,0.3078 -0.6875,0.6875 v 0.2292 c 0,0.3796 0.3079,0.6875 0.6875,0.6875 h 1.8333 c 0.3798,0 0.6875,-0.3079 0.6875,-0.6875 v -0.2292 c 0,-0.3797 -0.3077,-0.6875 -0.6875,-0.6875 z"
           fill="url(#paint0_linear_451_2258)"
           stroke="url(#paint1_linear_451_2258)"
           stroke-width="0.6"
           id="path1-5"
           style="fill:url(#paint0_linear_451_2258);stroke:url(#paint0_linear_451_2258)" /><path
           d="M 0.805461,2.18046 C 1.32118,1.66474 2.02066,1.375 2.75001,1.375 3.47936,1.375 4.17882,1.66474 4.69454,2.18046 5.21029,2.69618 5.5,3.39566 5.5,4.12501 5.5,4.85436 5.21029,5.55382 4.69454,6.06954 4.17882,6.58529 3.47936,6.875 2.75001,6.875 2.02066,6.875 1.32118,6.58529 0.805461,6.06954 0.28974,5.55382 0,4.85436 0,4.12501 0,3.39566 0.28974,2.69618 0.805461,2.18046 Z"
           fill="url(#paint2_linear_451_2258)"
           id="path2-3"
           style="fill:url(#paint2_linear_451_2258)" /><path
           d="M 0.805471,11.8055 C 1.3212,11.2897 2.02069,11 2.75004,11 c 0.72937,0 1.42883,0.2897 1.94457,0.8055 0.51575,0.5157 0.80546,1.2152 0.80546,1.9445 0,0.7294 -0.28971,1.4289 -0.80546,1.9447 C 4.17887,16.2103 3.47941,16.5 2.75004,16.5 2.02069,16.5 1.3212,16.2103 0.805471,15.6947 0.289744,15.1789 0,14.4794 0,13.75 0,13.0207 0.289744,12.3212 0.805471,11.8055 Z"
           fill="url(#paint3_linear_451_2258)"
           id="path3-5"
           style="fill:url(#paint3_linear_451_2258)" /></g></g></g><defs
     id="defs1"><linearGradient
       id="paint0_linear"
       x1="94.0831"
       y1="102.397"
       x2="94.0831"
       y2="5"
       gradientUnits="userSpaceOnUse"
       gradientTransform="matrix(1.0455138,0,0,1.0223426,-7.6008048,-2.552391)"><stop
         stop-color="#FD2E00"
         id="stop14" /><stop
         offset="1"
         stop-color="#FF9900"
         id="stop16" /></linearGradient><linearGradient
       inkscape:collect="always"
       xlink:href="#paint0_linear"
       id="linearGradient3"
       x1="32.000015"
       y1="58.999977"
       x2="32.000015"
       y2="5.000001"
       gradientUnits="userSpaceOnUse" /><linearGradient
       id="paint0_linear-3"
       x1="2.10838"
       y1="11.6526"
       x2="22.0035"
       y2="11.6526"
       gradientUnits="userSpaceOnUse"><stop
         stop-color="#A93AFF"
         id="stop5" /><stop
         offset="1"
         stop-color="#FF81FF"
         id="stop6" /></linearGradient><linearGradient
       id="paint2_linear"
       x1="9.06861"
       y1="16.9459"
       x2="9.06861"
       y2="7"
       gradientUnits="userSpaceOnUse"><stop
         stop-color="#5570FF"
         id="stop9" /><stop
         offset="1"
         stop-color="#4DD3FF"
         id="stop10" /></linearGradient><linearGradient
       inkscape:collect="always"
       xlink:href="#paint0_linear-3"
       id="linearGradient7"
       gradientUnits="userSpaceOnUse"
       x1="0.034471184"
       y1="35.476135"
       x2="64.001419"
       y2="35.476135" /><linearGradient
       id="paint0_linear-3-0"
       x1="2.1083801"
       y1="11.6526"
       x2="22.0035"
       y2="11.6526"
       gradientUnits="userSpaceOnUse"
       gradientTransform="translate(0.30390175,6.781361)"><stop
         stop-color="#A93AFF"
         id="stop5-9" /><stop
         offset="1"
         stop-color="#FF81FF"
         id="stop6-3" /></linearGradient><linearGradient
       id="paint0_linear_451_2258"
       x1="7.5625"
       y1="20.625"
       x2="24.5546"
       y2="15.6875"
       gradientUnits="userSpaceOnUse"><stop
         stop-color="#0357D1"
         id="stop3" /><stop
         offset="1"
         stop-color="#27CDFC"
         id="stop4" /></linearGradient><linearGradient
       id="paint2_linear_451_2258"
       x1="1.17857"
       y1="20.232201"
       x2="3.0784299"
       y2="3.6796501"
       gradientUnits="userSpaceOnUse"><stop
         stop-color="#8D01A2"
         id="stop9-0" /><stop
         offset="1"
         stop-color="#FF00D2"
         id="stop10-6" /></linearGradient><linearGradient
       id="paint3_linear_451_2258"
       x1="1.1785901"
       y1="13.3572"
       x2="3.07847"
       y2="-3.19556"
       gradientUnits="userSpaceOnUse"><stop
         stop-color="#8D01A2"
         id="stop9-9" /><stop
         offset="1"
         stop-color="#FF00D2"
         id="stop10-1" /></linearGradient></defs><metadata
     id="metadata1"><rdf:RDF><cc:Work
         rdf:about=""><dc:title>folder-</dc:title><dc:date>26-07-2025</dc:date><dc:description>Beautyline style * folder icon</dc:description><cc:license
           rdf:resource="http://creativecommons.org/licenses/by-nc-sa/4.0/" /></cc:Work><cc:License
         rdf:about="http://creativecommons.org/licenses/by-nc-sa/4.0/"><cc:permits
           rdf:resource="http://creativecommons.org/ns#Reproduction" /><cc:permits
           rdf:resource="http://creativecommons.org/ns#Distribution" /><cc:requires
           rdf:resource="http://creativecommons.org/ns#Notice" /><cc:requires
           rdf:resource="http://creativecommons.org/ns#Attribution" /><cc:prohibits
           rdf:resource="http://creativecommons.org/ns#CommercialUse" /><cc:permits
           rdf:resource="http://creativecommons.org/ns#DerivativeWorks" /><cc:requires
           rdf:resource="http://creativecommons.org/ns#ShareAlike" /></cc:License></rdf:RDF></metadata></svg>
