<?xml version="1.0" encoding="UTF-8" standalone="no"?>
<svg
   width="48"
   height="48"
   viewBox="0 0 48 48"
   fill="none"
   version="2"
   id="svg1"
   sodipodi:docname="folder-sync.svg"
   inkscape:version="1.4.2 (ebf0e940d0, 2025-05-08)"
   xml:space="preserve"
   xmlns:inkscape="http://www.inkscape.org/namespaces/inkscape"
   xmlns:sodipodi="http://sodipodi.sourceforge.net/DTD/sodipodi-0.dtd"
   xmlns:xlink="http://www.w3.org/1999/xlink"
   xmlns="http://www.w3.org/2000/svg"
   xmlns:svg="http://www.w3.org/2000/svg"
   xmlns:rdf="http://www.w3.org/1999/02/22-rdf-syntax-ns#"
   xmlns:cc="http://creativecommons.org/ns#"
   xmlns:dc="http://purl.org/dc/elements/1.1/"><title
     id="title1">folder-</title><sodipodi:namedview
     id="namedview1"
     pagecolor="#3f4354"
     bordercolor="#000000"
     borderopacity="0.5"
     inkscape:showpageshadow="1"
     inkscape:pageopacity="0"
     inkscape:pagecheckerboard="1"
     inkscape:deskcolor="#2b2f40"
     showgrid="false"
     inkscape:zoom="13.58055"
     inkscape:cx="24.115371"
     inkscape:cy="23.158119"
     inkscape:window-width="1920"
     inkscape:window-height="1048"
     inkscape:window-x="0"
     inkscape:window-y="0"
     inkscape:window-maximized="1"
     inkscape:current-layer="g11" /><g
     id="g1"><g
       id="g11"
       transform="matrix(0.74999965,0,0,0.74999965,3.7743922e-7,1.908614e-5)"
       style="fill:url(#linearGradient3)"><path
         d="M 8.24717,5.28688 C 10.8404,4.80099 13.5052,5.09747 16.1297,5.01923 18.8839,5.09747 21.902,4.61569 24.37,6.03631 c 2.3518,1.37121 3.8988,3.59891 6.0002,5.24599 0.7735,0.5518 1.7751,0.7577 2.7453,0.7412 9.4028,0 18.8055,0.0124 28.2083,0.0659 1.6185,-0.1277 3.018,1.4165 2.6022,2.8577 -0.2281,1.1159 -1.404,1.9436 -2.6291,1.8695 C 51.7466,16.8289 42.1963,16.7836 32.646,16.7754 30.4597,16.763 28.2778,16.0177 26.6547,14.663 24.6696,13.1765 23.3506,10.8953 21.0033,9.87817 17.7483,9.63934 14.462,9.84523 11.1981,9.77522 8.9536,9.63934 6.7091,10.8252 5.75228,12.7029 c -0.65725,1.1901 -0.541,2.5572 -0.54994,3.846 0.02235,10.8503 -0.00895,21.7005 0.01341,32.5549 -0.03577,2.0342 1.4084,3.9777 3.4517,4.7354 1.21614,0.4777 2.56645,0.3871 3.85855,0.3953 13.5833,-0.0206 27.1665,0.0083 40.7453,-0.0165 2.1014,0.0083 4.1134,-1.2023 4.9898,-2.9524 0.7019,-1.3135 0.5007,-2.8124 0.5275,-4.2248 0.009,-6.0284 -0.0312,-12.0567 0.0179,-18.0851 -0.0357,-1.3548 1.3995,-2.4954 2.8481,-2.3183 1.4219,0.0865 2.486,1.3712 2.325,2.6601 0,6.7366 0.0313,13.4732 -0.0134,20.214 C 63.9036,54.498 59.1016,58.8917 53.696,58.974 39.384,59.0234 25.0675,58.9864 10.7555,58.9905 6.61521,59.0317 2.60462,56.6516 0.945834,53.1557 0.163389,51.6362 -0.0243975,49.9356 0.00242916,48.272 0.0381981,37.01 -0.0243977,25.7397 0.0337268,14.4777 0.114207,10.1664 3.70004,6.22985 8.24717,5.28688 Z"
         id="path111"
         style="fill:url(#linearGradient2);fill-opacity:1;stroke:url(#linearGradient30);stroke-width:0;stroke-dasharray:none" /></g><g
       style="fill:none"
       id="g2"
       transform="matrix(0.22061927,0,0,0.22061927,9.8938536,12.400916)"><path
         fill-rule="evenodd"
         clip-rule="evenodd"
         d="m 85.1211,11.4382 c 0.5474,0.2513 1.0077,0.4625 1.4535,0.6304 l 0.0638,0.024 0.0619,0.0282 c 13.0094,5.9367 23.5247,17.2145 28.6187,30.7308 4.745,12.3878 4.903,26.485 0.469,38.9793 C 109.11,101.271 91.062,116.024 70.8493,118.355 59.0468,119.854 46.7777,117.413 36.4818,111.315 25.8614,105.104 17.3998,95.213 12.888,83.6464 7.51103,70.0335 7.71022,54.2673 13.4916,40.8161 19.3873,26.8807 31.1234,15.6044 45.2299,10.5068 c 1.9848,-0.8551 4.1029,-0.3993 5.6209,0.668 1.5187,1.0676 2.6643,2.9068 2.5231,5.0884 0.019,3.1548 -2.537,5.0952 -4.69,5.7646 -10.2785,3.9265 -18.9353,12.056 -23.6614,22.1505 l -0.0031,0.0067 c -4.8432,10.2453 -5.4749,22.4645 -1.7535,33.1955 l 0.0045,0.013 c 3.3956,10.0143 10.5323,18.6513 19.6253,23.8215 l 0.0088,0.005 c 8.23,4.735 18.0464,6.53 27.3938,5.094 l 0.0118,-0.002 c 10.1408,-1.496 19.6872,-6.844 26.356,-14.7578 l 0.0047,-0.0055 0.0047,-0.0055 c 6.1915,-7.2405 9.9095,-16.6239 10.3585,-26.2081 l 10e-4,-0.0099 0.001,-0.0099 C 107.651,54.493 104.078,43.4972 97.2638,35.1679 L 97.2577,35.1605 97.2517,35.153 C 92.3033,28.984 85.6236,24.3139 78.2354,21.5965 c -2.4671,-0.7603 -3.7029,-3.002 -3.8966,-5.0568 -0.1943,-2.0597 0.601,-4.4969 2.8373,-5.7382 1.9724,-1.14431 3.9547,-0.8701 5.5122,-0.365 0.7732,0.2508 1.514,0.5814 2.1519,0.873 z m 3.0926,32.9059 C 80.3663,33.626 65.3477,29.1671 53.0768,34.1793 l -0.046,0.0188 -0.0447,0.0218 c -2.5057,1.2229 -3.135,3.9191 -2.6579,6.043 0.4778,2.1271 2.2048,4.2931 5.0123,4.2931 v 0 c 0.0886,0 0.1771,-0.0079 0.2644,-0.0235 v 0 C 56.5057,44.3712 57.4,44.171 58.2596,43.9784 l 0.0167,-0.0038 0.0065,-0.0015 c 0.8618,-0.1931 1.6897,-0.3785 2.5162,-0.5284 1.6653,-0.3022 3.2312,-0.4412 4.7807,-0.2003 l 0.0595,0.0093 0.06,0.0044 c 9.3687,0.6948 17.4892,9.1605 17.862,18.7417 l 0.0012,0.0308 0.0025,0.0307 C 84.2963,71.1854 77.904,80.19 69.2482,82.5731 l -0.0147,0.004 -0.0145,0.0044 c -5.9978,1.7824 -12.8073,0.381 -17.6682,-3.6225 l -0.0105,-0.0086 -0.0106,-0.0085 c -2.8728,-2.2798 -5.0288,-5.4225 -6.2767,-8.9158 -0.7836,-2.1937 1.0608,-4.1556 3.3741,-4.4295 v 0 0 c 0.099,-0.0117 0.1966,-0.0333 0.2914,-0.0644 v 0 c 2.2561,-0.7404 3.386,-3.6045 1.9809,-5.6925 -2.9361,-4.922 -5.9067,-9.8307 -8.9117,-14.7123 -0.6478,-1.3741 -2.0087,-2.0349 -3.2615,-2.074 -1.2692,-0.0395 -2.6894,0.5535 -3.3914,1.9589 -3.0198,4.904 -6.0059,9.8295 -8.9514,14.7835 -0.7466,1.0793 -0.7811,2.385 -0.3926,3.437 0.3961,1.0726 1.3016,2.0651 2.6288,2.3597 l 0.0848,0.0188 0.0865,0.0089 c 1.4474,0.1491 2.9457,0.1315 4.3358,0.1151 v 0 c 0.0758,-9e-4 0.1394,0.0573 0.1455,0.1329 0.8058,9.9095 6.547,19.2157 15.0543,24.2132 9.1392,5.5283 21.1234,5.6747 30.3986,0.3991 7.4148,-4.1149 12.9804,-11.48 14.9195,-19.8236 2.2065,-9.0113 0.1863,-18.9607 -5.4309,-26.3128 z"
         fill="url(#paint0_linear_1005_151)"
         id="path1"
         style="fill:url(#paint0_linear_1005_151)" /></g></g><defs
     id="defs1"><linearGradient
       id="paint0_linear_1005_151"
       x1="149.394"
       y1="-13.421"
       x2="9.00002"
       y2="132.098"
       gradientUnits="userSpaceOnUse"><stop
         stop-color="#D800BD"
         id="stop1" /><stop
         offset="0.408098"
         stop-color="#F92D7A"
         id="stop2" /><stop
         offset="0.590073"
         stop-color="#FF4A52"
         id="stop3" /><stop
         offset="1"
         stop-color="#FFB243"
         id="stop4" /></linearGradient><linearGradient
       inkscape:collect="always"
       xlink:href="#paint0_linear_1005_151"
       id="linearGradient2"
       gradientUnits="userSpaceOnUse"
       x1="73.191566"
       y1="-3.8224707"
       x2="-1.5456216"
       y2="71.386086" /></defs><metadata
     id="metadata1"><rdf:RDF><cc:Work
         rdf:about=""><dc:title>folder-</dc:title><dc:date>26-07-2025</dc:date><dc:description>Beautyline style * folder icon</dc:description><cc:license
           rdf:resource="http://creativecommons.org/licenses/by-nc-sa/4.0/" /></cc:Work><cc:License
         rdf:about="http://creativecommons.org/licenses/by-nc-sa/4.0/"><cc:permits
           rdf:resource="http://creativecommons.org/ns#Reproduction" /><cc:permits
           rdf:resource="http://creativecommons.org/ns#Distribution" /><cc:requires
           rdf:resource="http://creativecommons.org/ns#Notice" /><cc:requires
           rdf:resource="http://creativecommons.org/ns#Attribution" /><cc:prohibits
           rdf:resource="http://creativecommons.org/ns#CommercialUse" /><cc:permits
           rdf:resource="http://creativecommons.org/ns#DerivativeWorks" /><cc:requires
           rdf:resource="http://creativecommons.org/ns#ShareAlike" /></cc:License></rdf:RDF></metadata></svg>
