<?xml version="1.0" encoding="UTF-8" standalone="no"?>
<!-- Created with Inkscape (http://www.inkscape.org/) -->

<svg
   width="48"
   height="48"
   viewBox="0 0 12.7 12.7"
   version="1.1"
   id="svg11654"
   inkscape:version="1.4.2 (ebf0e940d0, 2025-05-08)"
   sodipodi:docname="folder-electro_altc.svg"
   xmlns:inkscape="http://www.inkscape.org/namespaces/inkscape"
   xmlns:sodipodi="http://sodipodi.sourceforge.net/DTD/sodipodi-0.dtd"
   xmlns:xlink="http://www.w3.org/1999/xlink"
   xmlns="http://www.w3.org/2000/svg"
   xmlns:svg="http://www.w3.org/2000/svg">
  <sodipodi:namedview
     id="namedview11656"
     pagecolor="#505050"
     bordercolor="#ffffff"
     borderopacity="1"
     inkscape:showpageshadow="0"
     inkscape:pageopacity="0"
     inkscape:pagecheckerboard="1"
     inkscape:deskcolor="#505050"
     inkscape:document-units="mm"
     showgrid="false"
     inkscape:zoom="14.017384"
     inkscape:cx="24.433946"
     inkscape:cy="24.005906"
     inkscape:window-width="1920"
     inkscape:window-height="1048"
     inkscape:window-x="0"
     inkscape:window-y="0"
     inkscape:window-maximized="1"
     inkscape:current-layer="g34833" />
  <defs
     id="defs11651">
    <linearGradient
       inkscape:collect="always"
       id="linearGradient63286">
      <stop
         style="stop-color:#8d01a2;stop-opacity:1;"
         offset="0"
         id="stop63282" />
      <stop
         style="stop-color:#ff00d2;stop-opacity:1;"
         offset="1"
         id="stop63284" />
    </linearGradient>
    <linearGradient
       inkscape:collect="always"
       xlink:href="#linearGradient63286"
       id="linearGradient38445"
       x1="1.4404063e-08"
       y1="11.707791"
       x2="12.7"
       y2="0.99219376"
       gradientUnits="userSpaceOnUse" />
    <linearGradient
       inkscape:collect="always"
       xlink:href="#linearGradient63286"
       id="linearGradient38453"
       x1="3.1750019"
       y1="9.0427818"
       x2="8.9688091"
       y2="4.3029132"
       gradientUnits="userSpaceOnUse" />
    <linearGradient
       inkscape:collect="always"
       xlink:href="#linearGradient63286"
       id="linearGradient38461"
       x1="5.3371129"
       y1="8.5472088"
       x2="8.2749109"
       y2="6.075902"
       gradientUnits="userSpaceOnUse"
       gradientTransform="matrix(0.96340897,0,0,0.96340897,0.23235309,0.26442284)" />
  </defs>
  <g
     inkscape:label="Calque 1"
     inkscape:groupmode="layer"
     id="layer1">
    <g
       id="g34833">
      <g
         id="g1"
         transform="matrix(0.91666661,0,0,0.91666657,0.5348695,0.41708516)">
        <path
           d="m 5.9779314,7.6915272 h 0.7441403 c 0.051368,0 0.093017,-0.041647 0.093017,-0.093017 V 6.8543687 c 0,-0.051371 -0.041648,-0.093017 -0.093017,-0.093017 H 5.9779314 c -0.051368,0 -0.093017,0.041647 -0.093017,0.093017 v 0.7441409 c 0,0.051369 0.041648,0.093017 0.093017,0.093018 z M 6.0709495,6.9473864 H 6.6290544 V 7.5054921 H 6.070949 Z m 1.4014647,0.1860352 h 0.3720702 c 0.051368,0 0.093017,-0.041648 0.093017,-0.093018 V 6.6683338 c 0,-0.051371 -0.041648,-0.093017 -0.093017,-0.093017 H 7.4724142 c -0.051368,0 -0.093017,0.041648 -0.093017,0.093017 v 0.093017 H 7.1871597 V 6.4822985 c 0,-0.051371 -0.041648,-0.093017 -0.093017,-0.093017 H 6.8150892 V 6.1970447 h 0.093017 c 0.051368,0 0.093017,-0.041648 0.093017,-0.093018 V 5.7319568 c 0,-0.051371 -0.041648,-0.093018 -0.093017,-0.093018 h -0.37207 c -0.051368,0 -0.093017,0.041648 -0.093017,0.093018 v 0.3720704 c 0,0.051371 0.041648,0.093018 0.093017,0.093018 h 0.093017 V 6.389281 H 6.070949 V 6.1970447 h 0.093017 c 0.051368,0 0.093017,-0.041648 0.093017,-0.093018 V 5.7319568 c 0,-0.051371 -0.041648,-0.093018 -0.093017,-0.093018 H 5.7918963 c -0.051368,0 -0.093017,0.041648 -0.093017,0.093018 v 0.3720704 c 0,0.051371 0.041648,0.093018 0.093017,0.093018 h 0.093017 V 6.3892818 H 5.6058607 c -0.051368,0 -0.093017,0.041648 -0.093017,0.093017 V 6.7613513 H 5.3206065 v -0.093017 c 0,-0.051371 -0.041648,-0.093017 -0.093017,-0.093017 h -0.372071 c -0.051368,0 -0.093017,0.041648 -0.093017,0.093017 v 0.3720701 c 0,0.051371 0.041648,0.093018 0.093017,0.093018 H 5.227589 c 0.051368,0 0.093017,-0.041647 0.093017,-0.093018 v -0.093018 h 0.1922375 v 0.5581057 h -0.192237 v -0.093018 c 0,-0.051371 -0.041648,-0.093018 -0.093017,-0.093018 h -0.372071 c -0.051368,0 -0.093017,0.041647 -0.093017,0.093018 V 7.784544 c 0,0.051369 0.041648,0.093017 0.093017,0.093017 H 5.227589 c 0.051368,0 0.093017,-0.041648 0.093017,-0.093017 V 7.691526 h 0.1922369 v 0.279053 c 0,0.051369 0.041648,0.093017 0.093017,0.093017 h 0.2790534 v 0.1922373 h -0.093017 c -0.051368,0 -0.093017,0.041648 -0.093017,0.093018 v 0.3720703 c 0,0.051369 0.041648,0.093017 0.093017,0.093017 h 0.3720704 c 0.051368,0 0.093017,-0.041648 0.093017,-0.093017 V 8.3488512 c 0,-0.051369 -0.041648,-0.093018 -0.093017,-0.093018 H 6.0709497 V 8.0635975 h 0.5581049 v 0.1922359 h -0.093017 c -0.051368,0 -0.093017,0.041648 -0.093017,0.093018 v 0.3720703 c 0,0.051369 0.041648,0.093017 0.093017,0.093017 h 0.3720706 c 0.051368,0 0.093017,-0.041648 0.093017,-0.093017 V 8.3488512 c 0,-0.051369 -0.041648,-0.093018 -0.093017,-0.093018 H 6.8150892 V 8.0635975 H 7.094142 c 0.051368,0 0.093017,-0.041647 0.093017,-0.093017 V 7.6915272 h 0.1922367 v 0.093018 c 0,0.051369 0.041648,0.093017 0.093017,0.093017 H 7.844483 c 0.051368,0 0.093017,-0.041648 0.093017,-0.093017 V 7.4124748 c 0,-0.051371 -0.041648,-0.093018 -0.093017,-0.093018 H 7.472414 c -0.051368,0 -0.093017,0.041648 -0.093017,0.093018 v 0.093018 H 7.1871597 V 6.9473862 h 0.1922368 v 0.093017 c 0,0.051371 0.041648,0.093018 0.093018,0.093018 z M 7.5654313,6.7613513 H 7.7514666 V 6.9473864 H 7.5654309 Z m -2.43086,0.1860351 H 4.9485362 V 6.7613513 h 0.1860351 z m 0,0.7441408 H 4.9485362 V 7.5054921 H 5.1345713 Z M 6.629054,5.8249744 H 6.8150892 V 6.0110095 H 6.629054 Z m -0.7441402,0 H 6.070949 V 6.0110095 H 5.8849138 Z M 6.070949,8.627904 H 5.8849138 V 8.4418688 H 6.070949 Z m 0.7441402,0 H 6.629054 V 8.4418688 H 6.8150892 Z M 7.0011245,7.8775624 H 5.6988787 V 6.5753161 H 7.0011245 Z M 7.5654309,7.5054921 H 7.7514666 V 7.6915272 H 7.5654309 Z"
           id="path2-3"
           style="fill:url(#linearGradient38461);fill-opacity:1;stroke-width:0.963409" />
        <path
           d="m 5.7349269,4.0604274 c 0.3519267,-0.021604 0.7047892,0.00352 1.0576621,-0.00398 0.2149781,-0.026898 0.4005281,0.149918 0.4542642,0.3337855 0.071966,0.1953358 0.072478,0.4096282 0.15281,0.6018777 0.1397679,0.1097918 0.3033323,0.1896017 0.4604094,0.276024 0.2065462,-0.067904 0.4065713,-0.1547678 0.6192283,-0.2054728 0.1808719,-0.0463 0.3991288,0.0172 0.494003,0.1759318 0.154688,0.2403092 0.2963337,0.488556 0.4337469,0.7385658 0.074288,0.1569698 0.1766379,0.3518644 0.05558,0.5119252 -0.1472097,0.2015107 -0.3860189,0.3223239 -0.5519384,0.5079601 -0.03834,0.1406559 -0.02434,0.2910169 -0.023384,0.4356288 0.141134,0.2508844 0.4720173,0.3598018 0.5963546,0.6248118 0.068724,0.1199458 0.046738,0.2685491 -0.02895,0.38053 C 9.2840796,8.7184873 9.1153949,9.0002429 8.9326447,9.2735915 8.811107,9.4521822 8.548469,9.4773012 8.3601197,9.3833939 8.1969998,9.3057905 7.983899,9.2930267 7.8726372,9.1408828 7.7516117,8.9887725 7.8997791,8.7422789 8.1002814,8.7621222 8.2554473,8.7766623 8.3923477,8.8560302 8.5353597,8.9085141 8.6863256,8.6862885 8.8195735,8.45392 8.962585,8.2272694 8.739618,8.0169228 8.4120122,7.848067 8.3610415,7.5279515 8.3451658,7.3136464 8.3479642,7.0967033 8.372273,6.8837324 8.4606271,6.6019732 8.7559708,6.4599925 8.9587953,6.2602514 8.8298492,6.0287612 8.6891591,5.8038808 8.5629782,5.5710732 8.2474924,5.6469104 7.9198864,5.8819267 7.5927246,5.7121691 7.3361296,5.5490207 6.9883815,5.4445214 6.8771539,5.1442463 6.8248176,4.9559654 6.7883561,4.7632805 6.736976,4.5745568 6.4728975,4.5763133 6.2088396,4.5771968 5.944775,4.574125 5.918135,4.7818069 5.877007,4.9938963 5.7713831,5.1804141 5.6690311,5.3634019 5.4685322,5.4630514 5.2899978,5.5697596 5.1628719,5.6416316 5.0348129,5.7311415 4.8810505,5.7381975 4.6197889,5.7545174 4.3921854,5.6001856 4.1486866,5.5472717 4.0056707,5.76818 3.8743423,5.9952592 3.7294565,6.2148434 3.8827545,6.3484472 4.0472674,6.4714702 4.187944,6.6169802 4.329088,6.7642501 4.354328,6.9710506 4.34311,7.1615336 4.33237,7.3559755 4.3674179,7.5755794 4.22954,7.7400449 4.092138,7.9111467 3.9000497,8.034122 3.7327303,8.1778928 c 0.128526,0.237202 0.274812,0.465622 0.4024027,0.7037429 0.2729411,-0.073622 0.5318642,-0.2557518 0.8286419,-0.1971397 0.17526,0.042784 0.3168755,0.1565338 0.4720407,0.238563 0.16872,0.085976 0.3308937,0.2107551 0.3846401,0.3920006 0.048604,0.1834238 0.095342,0.3677318 0.128994,0.554696 0.2668643,0.00222 0.5341996,0 0.8015245,8.926e-4 0.037384,-0.1583058 0.00844,-0.3761058 0.179472,-0.4700472 0.1673199,-0.1031999 0.4178374,0.042342 0.3949296,0.2301566 0,0.2958807 -0.084119,0.6852264 -0.4388672,0.7663694 -0.3930521,0.01276 -0.7870356,-0.0079 -1.1805584,0.0027 C 5.6339762,10.349066 5.5414368,10.307609 5.5068534,10.223403 5.4091725,9.9729609 5.3708504,9.7075088 5.3054182,9.4486602 5.1507201,9.3529829 4.9955548,9.2568633 4.832445,9.1743925 4.6221267,9.2476054 4.4160177,9.3335819 4.1982296,9.3865093 4.0126831,9.4297018 3.8028357,9.3485923 3.7112318,9.1889262 3.5598048,8.9472999 3.4172575,8.7003975 3.2807857,8.4508406 3.2013357,8.288996 3.1260878,8.0852862 3.2532107,7.9261307 3.4163245,7.7409371 3.6387865,7.610883 3.8065733,7.4287528 3.8019006,7.2814757 3.8257356,7.1333207 3.8037719,6.9873717 3.6266441,6.7439751 3.2831267,6.6213954 3.1910563,6.3228833 3.1382446,6.1725228 3.2261095,6.025692 3.3041585,5.8991435 3.4574541,5.6597156 3.5976628,5.4127932 3.7584412,5.177773 3.8612599,5.0291792 4.0683041,4.9652447 4.2445,5.0282976 4.43939,5.1019335 4.6347523,5.1724834 4.8319812,5.2395055 4.9763971,5.1504377 5.1320291,5.0763598 5.2647617,4.9714157 5.4049696,4.8188558 5.3643136,4.5983868 5.4302096,4.4171622 5.4806816,4.2725363 5.5503196,4.0842564 5.7349317,4.0604454 Z"
           id="path2"
           style="fill:url(#linearGradient38453);fill-opacity:1" />
      </g>
      <path
         d="M 1.6365484,1.0491213 C 2.1511421,0.9527025 2.679938,1.0115353 3.2007369,0.9960094 3.7472732,1.0115352 4.346177,0.915932 4.8359203,1.1978361 c 0.466685,0.2720995 0.773668,0.7141585 1.190664,1.0410007 0.153491,0.1094977 0.352246,0.150356 0.54477,0.1470818 1.865867,0 3.7317147,0.00246 5.5975817,0.013076 0.321171,-0.025339 0.598884,0.2810865 0.516374,0.5670745 -0.04526,0.2214363 -0.278606,0.3856829 -0.521712,0.3709787 -1.895137,0.00243 -3.7902727,-0.00655 -5.6854097,-0.00818 C 6.0443443,3.3264113 5.6113743,3.1785159 5.2892903,2.9096927 4.8953723,2.6147156 4.6336334,2.1620402 4.1678414,1.9602037 3.5219277,1.9128108 2.8698029,1.9536685 2.2221232,1.9397753 1.7767305,1.9128116 1.3313378,2.1481305 1.1414689,2.5207364 1.0110459,2.7568968 1.0341143,3.0281805 1.0323403,3.2839266 c 0.00444,2.1531052 -0.00176,4.3061905 0.00266,6.4601092 -0.0071,0.4036612 0.2794792,0.7893242 0.6849463,0.9396802 0.2413276,0.09479 0.5092796,0.07681 0.7656805,0.07844 2.6954342,-0.0041 5.3908492,0.0016 8.0853909,-0.0033 0.416996,0.0016 0.816252,-0.238581 0.990163,-0.585867 0.139283,-0.2606471 0.09936,-0.5580849 0.104675,-0.8383578 0.0018,-1.19626 -0.0062,-2.3925 0.0036,-3.58876 -0.0071,-0.2688429 0.277713,-0.4951806 0.56517,-0.4600374 0.282158,0.017163 0.493315,0.2720974 0.461367,0.5278633 0,1.3367933 0.0062,2.6735866 -0.0027,4.0112133 -0.01242,0.9895076 -0.965319,1.8613826 -2.037992,1.8777136 -2.8400357,0.0098 -5.6809647,0.0025 -8.5210006,0.0033 C 1.312705,11.714124 0.51685403,11.241802 0.18768883,10.548084 0.03242253,10.246559 -0.00484127,9.909096 4.8202992e-4,9.5789756 0.00758003,7.3441738 -0.00484197,5.1077249 0.00669303,2.8729231 0.02266333,2.0174 0.73422673,1.2362412 1.6365473,1.0491208 Z"
         id="path10942"
         sodipodi:nodetypes="ccccccccccccccccccccccccccccccc"
         style="fill:url(#linearGradient38445);fill-opacity:1.0" />
    </g>
  </g>
</svg>
