<?xml version="1.0" encoding="UTF-8" standalone="no"?>
<svg
   width="48"
   height="48"
   viewBox="0 0 48 48"
   fill="none"
   version="1.1"
   id="svg282"
   sodipodi:docname="folder-appimage.svg"
   inkscape:version="1.4.2 (ebf0e940d0, 2025-05-08)"
   xml:space="preserve"
   xmlns:inkscape="http://www.inkscape.org/namespaces/inkscape"
   xmlns:sodipodi="http://sodipodi.sourceforge.net/DTD/sodipodi-0.dtd"
   xmlns:xlink="http://www.w3.org/1999/xlink"
   xmlns="http://www.w3.org/2000/svg"
   xmlns:svg="http://www.w3.org/2000/svg"><sodipodi:namedview
     id="namedview284"
     pagecolor="#505050"
     bordercolor="#ffffff"
     borderopacity="1"
     inkscape:showpageshadow="0"
     inkscape:pageopacity="0"
     inkscape:pagecheckerboard="1"
     inkscape:deskcolor="#505050"
     showgrid="false"
     inkscape:zoom="14.5"
     inkscape:cx="23.896552"
     inkscape:cy="24.586207"
     inkscape:window-width="1920"
     inkscape:window-height="1048"
     inkscape:window-x="0"
     inkscape:window-y="0"
     inkscape:window-maximized="1"
     inkscape:current-layer="g21" /><g
     id="g1"><g
       id="g11"
       transform="matrix(0.74999965,0,0,0.74999965,-2.2560796e-8,1.908614e-5)"><path
         d="M 8.24717,5.28688 C 10.8404,4.80099 13.5052,5.09747 16.1297,5.01923 18.8839,5.09747 21.902,4.61569 24.37,6.03631 c 2.3518,1.37121 3.8988,3.59891 6.0002,5.24599 0.7735,0.5518 1.7751,0.7577 2.7453,0.7412 9.4028,0 18.8055,0.0124 28.2083,0.0659 1.6185,-0.1277 3.018,1.4165 2.6022,2.8577 -0.2281,1.1159 -1.404,1.9436 -2.6291,1.8695 C 51.7466,16.8289 42.1963,16.7836 32.646,16.7754 30.4597,16.763 28.2778,16.0177 26.6547,14.663 24.6696,13.1765 23.3506,10.8953 21.0033,9.87817 17.7483,9.63934 14.462,9.84523 11.1981,9.77522 8.9536,9.63934 6.7091,10.8252 5.75228,12.7029 c -0.65725,1.1901 -0.541,2.5572 -0.54994,3.846 0.02235,10.8503 -0.00895,21.7005 0.01341,32.5549 -0.03577,2.0342 1.4084,3.9777 3.4517,4.7354 1.21614,0.4777 2.56645,0.3871 3.85855,0.3953 13.5833,-0.0206 27.1665,0.0083 40.7453,-0.0165 2.1014,0.0083 4.1134,-1.2023 4.9898,-2.9524 0.7019,-1.3135 0.5007,-2.8124 0.5275,-4.2248 0.009,-6.0284 -0.0312,-12.0567 0.0179,-18.0851 -0.0357,-1.3548 1.3995,-2.4954 2.8481,-2.3183 1.4219,0.0865 2.486,1.3712 2.325,2.6601 0,6.7366 0.0313,13.4732 -0.0134,20.214 C 63.9036,54.498 59.1016,58.8917 53.696,58.974 39.384,59.0234 25.0675,58.9864 10.7555,58.9905 6.61521,59.0317 2.60462,56.6516 0.945834,53.1557 0.163389,51.6362 -0.0243975,49.9356 0.00242916,48.272 0.0381981,37.01 -0.0243977,25.7397 0.0337268,14.4777 0.114207,10.1664 3.70004,6.22985 8.24717,5.28688 Z"
         id="path11"
         style="fill:url(#linearGradient19)" /><g
         style="fill:none"
         id="g21"
         transform="matrix(1.333334,0,0,1.333334,-95.999947,-91.219577)"><g
           id="g22"
           style="fill:url(#linearGradient22);stroke-width:0.120969"
           transform="matrix(0.97776827,0,0,0.97482414,2.2191942,1.167722)"><path
             d="m 93.820524,85.029086 c 1.246999,-0.07678 2.497313,0.01254 3.747663,-0.0141 0.761743,-0.0956 1.41921,0.532816 1.609616,1.186301 0.255003,0.694242 0.256818,1.455852 0.541458,2.139122 0.495249,0.390211 1.074809,0.673859 1.631389,0.981012 0.73187,-0.241333 1.44062,-0.550059 2.19414,-0.730267 0.6409,-0.164554 1.41425,0.06111 1.75043,0.625278 0.54811,0.854079 1.05001,1.736368 1.53691,2.624923 0.26323,0.557886 0.62589,1.250556 0.19694,1.819425 -0.52162,0.716174 -1.3678,1.145555 -1.95571,1.805321 -0.13585,0.499905 -0.0862,1.034298 -0.0829,1.54826 0.50009,0.891664 1.67252,1.278766 2.11309,2.220632 0.24352,0.426296 0.16561,0.954447 -0.10258,1.352437 -0.6046,0.99678 -1.20231,1.99817 -1.84986,2.96967 -0.43065,0.63472 -1.36126,0.724 -2.02865,0.39025 -0.57799,-0.27581 -1.33308,-0.32118 -1.72732,-0.86191 -0.42884,-0.54061 0.0962,-1.41667 0.80662,-1.34615 0.54981,0.0517 1.03489,0.33376 1.54163,0.52029 0.53493,-0.7898 1.00707,-1.61566 1.51381,-2.421192 -0.79005,-0.74759 -1.95087,-1.347718 -2.13148,-2.485434 -0.0562,-0.761658 -0.0463,-1.532692 0.0398,-2.289608 0.31307,-1.001395 1.35958,-1.506006 2.07825,-2.215902 -0.4569,-0.822736 -0.95541,-1.62198 -1.40251,-2.449397 -1.11788,0.269532 -2.2787,1.1048 -3.43795,0.501466 -0.909203,-0.579842 -2.141395,-0.951241 -2.535513,-2.018444 -0.185445,-0.669165 -0.31464,-1.353984 -0.496699,-2.024722 -0.935721,0.0063 -1.87137,0.0094 -2.807042,-0.0016 -0.09439,0.738118 -0.240124,1.491902 -0.614391,2.154801 -0.362665,0.650354 -1.073106,1.004516 -1.705714,1.383766 -0.450453,0.255439 -0.904209,0.573564 -1.449042,0.598641 -0.925741,0.05798 -1.732218,-0.490506 -2.595019,-0.678565 -0.506752,0.785127 -0.972097,1.592185 -1.485478,2.372606 0.543188,0.47484 1.126115,0.912071 1.62458,1.429227 0.500123,0.523409 0.589556,1.258394 0.549805,1.935386 -0.03808,0.691061 0.08613,1.471554 -0.402416,2.056077 -0.486865,0.608112 -1.167498,1.045174 -1.760368,1.556148 0.455413,0.843036 0.973754,1.654866 1.425852,2.501166 0.967125,-0.26166 1.884579,-0.90897 2.936165,-0.70066 0.621007,0.15206 1.1228,0.55634 1.672605,0.84788 0.59783,0.30557 1.17247,0.74904 1.362911,1.3932 0.172224,0.6519 0.337831,1.30695 0.45707,1.97143 0.945593,0.008 1.892854,0 2.840079,0.003 0.132462,-0.56263 0.02988,-1.33671 0.635935,-1.67058 0.59287,-0.36678 1.480543,0.15048 1.399372,0.81799 0,1.05158 -0.298068,2.43535 -1.555059,2.72374 -1.392719,0.0454 -2.788739,-0.0282 -4.183127,0.009 -0.255028,-0.18013 -0.582927,-0.32747 -0.705469,-0.62675 -0.346117,-0.89009 -0.481905,-1.83353 -0.713754,-2.7535 -0.548148,-0.34004 -1.097953,-0.68166 -1.675908,-0.97477 -0.74523,0.26021 -1.475546,0.56578 -2.247245,0.75388 -0.657455,0.15351 -1.401017,-0.13476 -1.725601,-0.70222 -0.536559,-0.85876 -1.041654,-1.73627 -1.52522,-2.62322 -0.281518,-0.57521 -0.548148,-1.299213 -0.09771,-1.864865 0.57797,-0.658194 1.366229,-1.120417 1.960756,-1.767723 -0.01656,-0.523434 0.0679,-1.049989 -0.0099,-1.568705 -0.627625,-0.86505 -1.844827,-1.300709 -2.171064,-2.361645 -0.18713,-0.534394 0.124206,-1.056243 0.400761,-1.506006 0.543179,-0.850946 1.039988,-1.728529 1.60968,-2.56381 0.364323,-0.528115 1.097953,-0.755344 1.722275,-0.531248 0.690565,0.261705 1.382799,0.51245 2.08165,0.75065 0.511712,-0.316552 1.063174,-0.579829 1.53349,-0.952814 0.496809,-0.542208 0.352747,-1.325774 0.586241,-1.969862 0.178841,-0.514013 0.425594,-1.183175 1.079735,-1.2678 z"
             id="path1"
             style="fill:url(#linearGradient1)" /><path
             d="m 95.12635,91.326123 c -0.272152,0 -0.461579,0.219095 -0.461579,0.491247 v 5.595319 c 0,0.05694 -0.04619,0.103162 -0.103162,0.103162 H 92.82178 c -0.08746,0 -0.135245,0.102027 -0.07925,0.169186 l 3.218483,3.862183 c 0.04124,0.0496 0.117265,0.0496 0.158509,0 l 3.218493,-3.862183 c 0.05602,-0.06716 0.0082,-0.169186 -0.07923,-0.169186 H 97.51896 c -0.05705,0 -0.103162,-0.04621 -0.103162,-0.103162 V 91.81737 c 0,-0.272152 -0.189509,-0.491247 -0.461651,-0.491247 z"
             id="path2"
             style="fill:url(#linearGradient2);stroke-width:0.103162" /></g><rect
           style="fill:none;fill-opacity:1;fill-rule:evenodd;stroke:#000000;stroke-width:3.9;stroke-linejoin:round;stroke-dasharray:none;stroke-opacity:0;paint-order:fill markers stroke"
           id="rect1"
           width="44.075188"
           height="31.25"
           x="74.047279"
           y="79.4" /></g></g></g><defs
     id="defs1"><linearGradient
       id="linearGradient18"
       inkscape:collect="always"><stop
         style="stop-color:#0357d1;stop-opacity:1;"
         offset="0"
         id="stop18" /><stop
         style="stop-color:#27cdfc;stop-opacity:1;"
         offset="1"
         id="stop19" /></linearGradient><linearGradient
       inkscape:collect="always"
       xlink:href="#linearGradient18"
       id="linearGradient19"
       x1="-2.036644e-09"
       y1="58.999977"
       x2="64.000031"
       y2="-2.5448198e-05"
       gradientUnits="userSpaceOnUse" /><linearGradient
       inkscape:collect="always"
       xlink:href="#linearGradient18"
       id="linearGradient22"
       gradientUnits="userSpaceOnUse"
       x1="84.749817"
       y1="107.56533"
       x2="107.18984"
       y2="83.492447" /><linearGradient
       inkscape:collect="always"
       xlink:href="#linearGradient18"
       id="linearGradient1"
       gradientUnits="userSpaceOnUse"
       x1="84.749817"
       y1="107.56533"
       x2="107.18984"
       y2="83.492447" /><linearGradient
       inkscape:collect="always"
       xlink:href="#linearGradient18"
       id="linearGradient2"
       gradientUnits="userSpaceOnUse"
       x1="84.749817"
       y1="107.56533"
       x2="107.18984"
       y2="83.492447"
       gradientTransform="matrix(0.85279665,0,0,0.85279665,14.13745,14.198536)" /></defs></svg>
