<?xml version="1.0" encoding="UTF-8" standalone="no"?>
<svg
   width="48"
   height="48"
   viewBox="0 0 48 48"
   fill="none"
   version="2"
   id="svg1"
   sodipodi:docname="folder-blender.svg"
   inkscape:version="1.4.2 (ebf0e940d0, 2025-05-08)"
   xmlns:inkscape="http://www.inkscape.org/namespaces/inkscape"
   xmlns:sodipodi="http://sodipodi.sourceforge.net/DTD/sodipodi-0.dtd"
   xmlns:xlink="http://www.w3.org/1999/xlink"
   xmlns="http://www.w3.org/2000/svg"
   xmlns:svg="http://www.w3.org/2000/svg"
   xmlns:rdf="http://www.w3.org/1999/02/22-rdf-syntax-ns#"
   xmlns:cc="http://creativecommons.org/ns#"
   xmlns:dc="http://purl.org/dc/elements/1.1/">
  <title
     id="title1">folder-blender</title>
  <sodipodi:namedview
     id="namedview1"
     pagecolor="#3f4354"
     bordercolor="#000000"
     borderopacity="0.5"
     inkscape:showpageshadow="1"
     inkscape:pageopacity="0"
     inkscape:pagecheckerboard="1"
     inkscape:deskcolor="#2b2f40"
     showgrid="false"
     inkscape:zoom="17.6875"
     inkscape:cx="23.971731"
     inkscape:cy="24"
     inkscape:window-width="1920"
     inkscape:window-height="1048"
     inkscape:window-x="0"
     inkscape:window-y="0"
     inkscape:window-maximized="1"
     inkscape:current-layer="g121" />
  <g
     id="g1">
    <g
       id="g12"
       transform="matrix(0.7,0,0,0.7,-1.3713734,1.9476039)"
       style="fill:url(#linearGradient1831);fill-opacity:1;stroke:url(#linearGradient1823);stroke-width:2;stroke-dasharray:none">
      <g
         id="g121"
         transform="matrix(0.36053225,0,0,0.36053225,22.933701,22.56653)">
        <path
           d="M 76.634355,47.337153 C 76.762212,46.47501 76.847783,45.602867 76.888783,44.722867 77.891069,32.816725 71.141212,20.966011 60.592783,15.424154 53.152355,9.6938681 45.643641,4.0240111 38.037784,-1.4700888 c -0.676,-0.3278 -1.417857,-0.5219143 -2.168857,-0.5651571 -4.654143,-0.5134857 -7.91,5.558257 -4.898857,9.1473998 1.922,2.0008571 4.344285,3.4557141 6.491714,5.2097141 -9.885143,0.02157 -19.772285,-0.03786 -29.6561423,0.027 -4.6306999,0.23 -6.88685704,6.625857 -3.4572285,9.728714 2.6706571,2.591857 6.5936568,1.397714 9.9235138,1.672429 h 7.115714 c -7.529714,5.753857 -15.1051422,11.450428 -22.6064134,17.239857 -3.5854571,3.004428 -1.4511,9.528856 3.2070142,9.858428 3.6661142,0.378428 6.0348284,-2.905857 8.8366852,-4.693429 l 6.183857,-4.705428 c -0.943428,16.050428 13.152572,30.813714 29.189,30.845571 14.240714,0.346285 22.731856,-8.442429 26.289999,-13.974143"
           stroke="url(#paint0_linear)"
           stroke-width="7.14286"
           stroke-linecap="round"
           id="path1211"
           style="stroke:url(#paint0_linear)" />
        <path
           d="m 46.975498,25.178011 c 4.546714,0 8.907143,1.806143 12.122143,5.021142 3.215,3.214858 5.021142,7.575286 5.021142,12.122 0,4.546572 -1.806142,8.907 -5.021142,12.122 -3.215,3.215 -7.575429,5.021286 -12.122143,5.021286 -4.546571,0 -8.907,-1.806286 -12.122,-5.021286 -3.215,-3.215 -5.021142,-7.575428 -5.021142,-12.122 0,-4.546714 1.806142,-8.907142 5.021142,-12.122 3.215,-3.214999 7.575429,-5.021142 12.122,-5.021142 z"
           stroke="url(#paint1_linear)"
           stroke-width="7.14286"
           stroke-linecap="round"
           id="path1212"
           style="stroke:url(#paint1_linear)" />
      </g>
    </g>
    <g
       id="g11"
       transform="matrix(0.74999965,0,0,0.74999965,3.7743922e-7,1.908614e-5)">
      <path
         d="M 8.24717,5.28688 C 10.8404,4.80099 13.5052,5.09747 16.1297,5.01923 18.8839,5.09747 21.902,4.61569 24.37,6.03631 c 2.3518,1.37121 3.8988,3.59891 6.0002,5.24599 0.7735,0.5518 1.7751,0.7577 2.7453,0.7412 9.4028,0 18.8055,0.0124 28.2083,0.0659 1.6185,-0.1277 3.018,1.4165 2.6022,2.8577 -0.2281,1.1159 -1.404,1.9436 -2.6291,1.8695 C 51.7466,16.8289 42.1963,16.7836 32.646,16.7754 30.4597,16.763 28.2778,16.0177 26.6547,14.663 24.6696,13.1765 23.3506,10.8953 21.0033,9.87817 17.7483,9.63934 14.462,9.84523 11.1981,9.77522 8.9536,9.63934 6.7091,10.8252 5.75228,12.7029 c -0.65725,1.1901 -0.541,2.5572 -0.54994,3.846 0.02235,10.8503 -0.00895,21.7005 0.01341,32.5549 -0.03577,2.0342 1.4084,3.9777 3.4517,4.7354 1.21614,0.4777 2.56645,0.3871 3.85855,0.3953 13.5833,-0.0206 27.1665,0.0083 40.7453,-0.0165 2.1014,0.0083 4.1134,-1.2023 4.9898,-2.9524 0.7019,-1.3135 0.5007,-2.8124 0.5275,-4.2248 0.009,-6.0284 -0.0312,-12.0567 0.0179,-18.0851 -0.0357,-1.3548 1.3995,-2.4954 2.8481,-2.3183 1.4219,0.0865 2.486,1.3712 2.325,2.6601 0,6.7366 0.0313,13.4732 -0.0134,20.214 C 63.9036,54.498 59.1016,58.8917 53.696,58.974 39.384,59.0234 25.0675,58.9864 10.7555,58.9905 6.61521,59.0317 2.60462,56.6516 0.945834,53.1557 0.163389,51.6362 -0.0243975,49.9356 0.00242916,48.272 0.0381981,37.01 -0.0243977,25.7397 0.0337268,14.4777 0.114207,10.1664 3.70004,6.22985 8.24717,5.28688 Z"
         id="path111"
         style="fill:url(#linearGradient30);fill-opacity:1;stroke:url(#linearGradient30);stroke-width:0;stroke-dasharray:none" />
    </g>
    <rect
       style="fill:none;fill-opacity:1;fill-rule:evenodd;stroke:#000000;stroke-width:3.9;stroke-linejoin:round;stroke-dasharray:none;stroke-opacity:0;paint-order:fill markers stroke"
       id="rect1"
       width="44.075188"
       height="31.645638"
       x="1.9758538"
       y="10.78429" />
  </g>
  <defs
     id="defs1">
    <linearGradient
       id="linearGradient6"
       inkscape:collect="always"
       inkscape:label="1">
      <stop
         style="stop-color:#ff5508;stop-opacity:1;"
         offset="0"
         id="stop5" />
      <stop
         style="stop-color:#ffa208;stop-opacity:1;"
         offset="1"
         id="stop6" />
    </linearGradient>
    <linearGradient
       inkscape:collect="always"
       xlink:href="#linearGradient6"
       id="linearGradient30"
       gradientUnits="userSpaceOnUse"
       gradientTransform="matrix(1.421128,-0.01199146,0.01198687,1.4216711,-101.30678,-100.47471)"
       x1="76.464188"
       y1="109.18899"
       x2="115.57574"
       y2="82.162277" />
    <linearGradient
       id="paint1_linear"
       x1="4.5768099"
       y1="45.678902"
       x2="42.3731"
       y2="4.1876402"
       gradientUnits="userSpaceOnUse"
       gradientTransform="matrix(1.4285714,0,0,1.4285714,-8.757358,-11.86756)">
      <stop
         stop-color="#FF5508"
         id="stop4-7" />
      <stop
         offset="1"
         stop-color="#FFA208"
         id="stop5-8" />
    </linearGradient>
    <linearGradient
       id="paint0_linear"
       x1="4.5768099"
       y1="45.678799"
       x2="42.3731"
       y2="4.1875501"
       gradientUnits="userSpaceOnUse"
       gradientTransform="matrix(1.4285714,0,0,1.4285714,-8.757358,-11.86756)">
      <stop
         stop-color="#FF5508"
         id="stop2-4" />
      <stop
         offset="1"
         stop-color="#FFA208"
         id="stop3-5" />
    </linearGradient>
  </defs>
  <metadata
     id="metadata1">
    <rdf:RDF>
      <cc:Work
         rdf:about="">
        <dc:title>folder-blender</dc:title>
        <dc:date>22-07-2025</dc:date>
        <dc:description>Beautyline style Blender folder icon</dc:description>
        <cc:license
           rdf:resource="http://creativecommons.org/licenses/by-nc-sa/4.0/" />
      </cc:Work>
      <cc:License
         rdf:about="http://creativecommons.org/licenses/by-nc-sa/4.0/">
        <cc:permits
           rdf:resource="http://creativecommons.org/ns#Reproduction" />
        <cc:permits
           rdf:resource="http://creativecommons.org/ns#Distribution" />
        <cc:requires
           rdf:resource="http://creativecommons.org/ns#Notice" />
        <cc:requires
           rdf:resource="http://creativecommons.org/ns#Attribution" />
        <cc:prohibits
           rdf:resource="http://creativecommons.org/ns#CommercialUse" />
        <cc:permits
           rdf:resource="http://creativecommons.org/ns#DerivativeWorks" />
        <cc:requires
           rdf:resource="http://creativecommons.org/ns#ShareAlike" />
      </cc:License>
    </rdf:RDF>
  </metadata>
</svg>
