<?xml version="1.0" encoding="UTF-8" standalone="no"?>
<svg
   width="48"
   height="48"
   viewBox="0 0 48 48"
   fill="none"
   version="2"
   id="svg1"
   sodipodi:docname="folder-txt_alt.svg"
   inkscape:version="1.4.2 (ebf0e940d0, 2025-05-08)"
   xml:space="preserve"
   xmlns:inkscape="http://www.inkscape.org/namespaces/inkscape"
   xmlns:sodipodi="http://sodipodi.sourceforge.net/DTD/sodipodi-0.dtd"
   xmlns:xlink="http://www.w3.org/1999/xlink"
   xmlns="http://www.w3.org/2000/svg"
   xmlns:svg="http://www.w3.org/2000/svg"
   xmlns:rdf="http://www.w3.org/1999/02/22-rdf-syntax-ns#"
   xmlns:cc="http://creativecommons.org/ns#"
   xmlns:dc="http://purl.org/dc/elements/1.1/"><title
     id="title1">folder-</title><sodipodi:namedview
     id="namedview1"
     pagecolor="#3f4354"
     bordercolor="#000000"
     borderopacity="0.5"
     inkscape:showpageshadow="1"
     inkscape:pageopacity="0"
     inkscape:pagecheckerboard="1"
     inkscape:deskcolor="#2b2f40"
     showgrid="false"
     inkscape:zoom="17.6875"
     inkscape:cx="21.257951"
     inkscape:cy="24"
     inkscape:window-width="1920"
     inkscape:window-height="1048"
     inkscape:window-x="0"
     inkscape:window-y="0"
     inkscape:window-maximized="1"
     inkscape:current-layer="g11" /><g
     id="g1"><g
       id="g11"
       transform="matrix(0.74999965,0,0,0.74999965,3.7743922e-7,1.908614e-5)"
       style="fill:url(#linearGradient3)"><path
         d="M 8.24717,5.28688 C 10.8404,4.80099 13.5052,5.09747 16.1297,5.01923 18.8839,5.09747 21.902,4.61569 24.37,6.03631 c 2.3518,1.37121 3.8988,3.59891 6.0002,5.24599 0.7735,0.5518 1.7751,0.7577 2.7453,0.7412 9.4028,0 18.8055,0.0124 28.2083,0.0659 1.6185,-0.1277 3.018,1.4165 2.6022,2.8577 -0.2281,1.1159 -1.404,1.9436 -2.6291,1.8695 C 51.7466,16.8289 42.1963,16.7836 32.646,16.7754 30.4597,16.763 28.2778,16.0177 26.6547,14.663 24.6696,13.1765 23.3506,10.8953 21.0033,9.87817 17.7483,9.63934 14.462,9.84523 11.1981,9.77522 8.9536,9.63934 6.7091,10.8252 5.75228,12.7029 c -0.65725,1.1901 -0.541,2.5572 -0.54994,3.846 0.02235,10.8503 -0.00895,21.7005 0.01341,32.5549 -0.03577,2.0342 1.4084,3.9777 3.4517,4.7354 1.21614,0.4777 2.56645,0.3871 3.85855,0.3953 13.5833,-0.0206 27.1665,0.0083 40.7453,-0.0165 2.1014,0.0083 4.1134,-1.2023 4.9898,-2.9524 0.7019,-1.3135 0.5007,-2.8124 0.5275,-4.2248 0.009,-6.0284 -0.0312,-12.0567 0.0179,-18.0851 -0.0357,-1.3548 1.3995,-2.4954 2.8481,-2.3183 1.4219,0.0865 2.486,1.3712 2.325,2.6601 0,6.7366 0.0313,13.4732 -0.0134,20.214 C 63.9036,54.498 59.1016,58.8917 53.696,58.974 39.384,59.0234 25.0675,58.9864 10.7555,58.9905 6.61521,59.0317 2.60462,56.6516 0.945834,53.1557 0.163389,51.6362 -0.0243975,49.9356 0.00242916,48.272 0.0381981,37.01 -0.0243977,25.7397 0.0337268,14.4777 0.114207,10.1664 3.70004,6.22985 8.24717,5.28688 Z"
         id="path111"
         style="fill:url(#linearGradient2);fill-opacity:1;stroke:url(#linearGradient30);stroke-width:0;stroke-dasharray:none" /></g><g
       style="fill:none"
       id="g2"
       transform="matrix(1.71431,0,0,1.71431,10.299224,12.892802)"><path
         d="M 6.3536,1.63539 C 6.5465,1.1786 7.04835,0.916457 7.5054,1.02405 c 2.20855,0.40398 4.4162,0.80991 6.6238,1.21877 0.5577,0.08119 0.9681,0.70622 0.8502,1.29604 -0.3821,2.38864 -0.7633,4.77824 -1.1555,7.16494 -0.1115,0.6612 -0.809,1.0133 -1.3849,0.8265 -9e-4,-0.3658 -9e-4,-0.7316 9e-4,-1.0975 0.1975,-0.0704 0.4297,-0.177 0.4398,-0.4382 0.3345,-2.0101 0.6462,-4.02505 0.978,-6.03611 C 13.8934,3.74426 13.9218,3.46746 13.717,3.33737 13.5296,3.24247 13.3175,3.22683 13.1164,3.18477 11.3658,2.86785 9.61615,2.54213 7.86555,2.21935 7.6718,2.1812 7.42315,2.15185 7.30065,2.35726 7.17905,2.62234 7.1736,2.92752 7.11415,3.21119 6.81705,3.26008 6.52,3.30998 6.22565,3.37355 6.1616,3.37552 6.03275,3.38138 5.96875,3.38333 6.2192,2.84242 6.1406,2.19391 6.3536,1.63539 Z"
         fill="url(#paint0_linear_448_458)"
         id="path1"
         style="fill:url(#paint0_linear_448_458)" /><path
         fill-rule="evenodd"
         clip-rule="evenodd"
         d="M 7.74495,3.10464 C 7.5351,3.14306 7.3253,3.18146 7.11445,3.211 6.81735,3.25989 6.52025,3.30979 6.2259,3.37336 5.0034,3.56542 3.78091,3.77483 2.55951,3.98404 l -4.9e-4,9e-5 C 2.33114,4.02315 2.10331,4.06218 1.87552,4.10109 1.31332,4.17934 0.901046,4.80928 1.0208,5.40202 c 0.21802,1.48515 0.43861,2.9699 0.65921,4.4547 0.1281,0.86228 0.25621,1.72458 0.38382,2.58698 0.04388,0.4284 0.33183,0.8118 0.71851,0.937 0.21372,0.0801 0.43787,0.0445 0.65703,0.0097 0.04047,-0.0064 0.08087,-0.0128 0.1209,-0.0185 0.00232,0.0776 0.00143,0.1565 5.5e-4,0.2358 -0.00297,0.2648 -0.00601,0.5343 0.11008,0.7737 0.16362,0.358 0.5183,0.6084 0.89311,0.6123 0.67554,0.0088 1.35109,0.0069 2.02664,10e-4 0.2331,0.0137 0.4653,-0.1526 0.52195,-0.3981 C 7.21405,14.2845 6.9874,13.9099 6.6784,13.8874 6.3895,13.8693 6.0999,13.8732 5.8103,13.8771 5.5208,13.8811 5.23125,13.885 4.94245,13.8669 4.70569,13.8405 4.57954,13.5695 4.60879,13.3367 4.61036,12.4405 4.6099,11.544 4.60947,10.6476 4.60885,9.45227 4.60826,8.25697 4.61244,7.06192 4.59599,6.82232 4.80076,6.60517 5.0247,6.62372 c 1.98645,-0.0049 3.9738,-0.00585 5.9602,0 0.2194,-0.01365 0.4178,0.2015 0.4032,0.4353 0.0041,1.1961 0.0036,2.39225 0.0029,3.58838 -4e-4,0.8971 -9e-4,1.7942 7e-4,2.6913 0.0302,0.2357 -0.1024,0.5096 -0.3428,0.5292 -0.2631,0.0166 -0.5271,0.0129 -0.7911,0.0092 -0.27895,-0.0039 -0.55805,-0.0078 -0.8361,0.0123 -0.2788,0.0205 -0.48995,0.3277 -0.447,0.6191 0.02195,0.2769 0.2651,0.4999 0.5247,0.4852 0.6463,0.0078 1.2926,0.0088 1.9389,-0.001 0.5266,0 0.9946,-0.5018 0.9955,-1.0642 0.0067,-0.4495 0.0056,-0.8991 0.0045,-1.3488 -9e-4,-0.3498 -0.0018,-0.6996 10e-4,-1.0496 -9e-4,-0.3658 -9e-4,-0.7316 9e-4,-1.0975 -0.0034,-0.67098 -0.0029,-1.34193 -0.0024,-2.01293 5e-4,-0.582 9e-4,-1.16405 -0.0012,-1.74605 0.0192,-0.40885 -0.1774,-0.81675 -0.511,-1.0212 -0.2465,-0.161 -0.5363,-0.15675 -0.8191,-0.15255 -0.078,0.00115 -0.1554,0.0023 -0.2313,0 C 10.5329,5.51122 10.1909,5.49952 9.8488,5.48777 9.57335,5.47832 9.2979,5.46887 9.02225,5.47147 L 8.9729,5.45192 c 0.22705,-0.044 0.45845,-0.0271 0.68945,-0.01025 0.10285,0.0075 0.2056,0.015 0.30785,0.0171 C 9.9409,5.26577 9.91355,5.07242 9.88625,4.8791 9.83785,4.53647 9.7894,4.19376 9.7298,3.85362 9.64935,3.33424 9.17675,2.92342 8.6831,2.96254 8.36795,2.99059 8.0564,3.04762 7.74495,3.10464 Z M 2.12234,5.70817 C 2.04189,5.44407 2.20827,5.14382 2.47336,5.12912 3.5445,4.94322 4.61653,4.76235 5.68845,4.58153 6.50005,4.44462 7.3117,4.30768 8.12275,4.1686 8.3394,4.11772 8.631,4.10991 8.7334,4.36911 8.8321,4.74374 8.87965,5.13402 8.8888,5.52332 8.0181,5.49247 7.14635,5.49677 6.27465,5.50112 5.73695,5.50377 5.19925,5.50642 4.66181,5.50082 4.09962,5.45292 3.56211,5.96837 3.56668,6.57577 3.5603,7.52422 3.56143,8.47287 3.56257,9.42167 3.56371,10.3712 3.56485,11.3209 3.55844,12.2706 3.32626,12.2706 3.0511,12.161 3.03648,11.8725 2.72658,9.81837 2.42309,7.76327 2.12234,5.70817 Z M 6.11425,7.99622 C 5.97155,7.99757 5.82455,7.99892 5.7049,8.08902 5.427,8.26997 5.38955,8.73262 5.63265,8.96347 c 0.13045,0.1479 0.323,0.14875 0.5017,0.1495 0.03045,1.5e-4 0.0605,2.5e-4 0.08975,0.0011 C 6.81385,9.11002 7.4036,9.11097 7.99335,9.11187 8.6816,9.11297 9.3698,9.11407 10.058,9.10722 10.4027,9.11702 10.655,8.68662 10.5179,8.35407 10.4374,8.11147 10.1943,7.97747 9.96205,7.99707 9.38955,7.99527 8.81725,7.99572 8.2451,7.99617 7.56825,7.99672 6.89165,7.99732 6.215,7.99412 6.18195,7.99562 6.1482,7.99592 6.11425,7.99622 Z m -0.414,1.85445 c 0.1206,-0.09315 0.26875,-0.0936 0.4121,-0.0941 0.03585,-10e-5 0.07145,-2e-4 0.1062,-0.0018 0.57105,0.00395 1.1421,0.003 1.71305,0.00205 0.7077,-0.00115 1.41535,-0.00235 2.1227,0.0058 0.3702,-0.01075 0.6244,0.47538 0.4397,0.81188 -0.096,0.2093 -0.3154,0.314 -0.52655,0.2973 -0.53555,0.0013 -1.0711,9e-4 -1.6067,6e-4 -0.7142,-5e-4 -1.4285,-0.001 -2.1431,0.0024 -0.02535,-7e-4 -0.0512,-8e-4 -0.0774,-0.001 C 5.9585,10.8727 5.76155,10.8714 5.62895,10.7193 5.39035,10.4894 5.4269,10.0326 5.70025,9.85067 Z m 1.24,1.66013 C 6.5898,11.5074 6.2394,11.504 5.8904,11.5281 c -0.298,0.048 -0.5,0.4167 -0.3958,0.719 0.06675,0.2406 0.2962,0.4 0.52835,0.3834 0.13485,5e-4 0.2697,0.0014 0.40455,0.0023 0.4502,0.0031 0.9004,0.0061 1.3506,-0.0082 0.3666,-0.0039 0.60245,-0.4998 0.4068,-0.8275 -0.1106,-0.2308 -0.36655,-0.3022 -0.59145,-0.2866 -0.21755,0.0045 -0.4354,0.0024 -0.6532,3e-4 z"
         fill="url(#paint1_linear_448_458)"
         id="path2"
         style="fill:url(#paint1_linear_448_458)" /></g></g><defs
     id="defs1"><linearGradient
       id="paint0_linear_448_458"
       x1="5.96875"
       y1="11.5801"
       x2="17.3593"
       y2="7.3424"
       gradientUnits="userSpaceOnUse"><stop
         stop-color="#0357D1"
         id="stop2" /><stop
         offset="1"
         stop-color="#27CDFC"
         id="stop3" /></linearGradient><linearGradient
       id="paint1_linear_448_458"
       x1="11.9219"
       y1="3.16689"
       x2="0.90294"
       y2="14.174"
       gradientUnits="userSpaceOnUse"><stop
         stop-color="#D800BD"
         id="stop4" /><stop
         offset="0.408098"
         stop-color="#F92D7A"
         id="stop5" /><stop
         offset="0.590073"
         stop-color="#FF4A52"
         id="stop6" /><stop
         offset="1"
         stop-color="#FFB243"
         id="stop7" /></linearGradient><linearGradient
       inkscape:collect="always"
       xlink:href="#paint1_linear_448_458"
       id="linearGradient2"
       gradientUnits="userSpaceOnUse"
       x1="64.000031"
       y1="5.000001"
       x2="0.94583398"
       y2="53.155701" /></defs><metadata
     id="metadata1"><rdf:RDF><cc:Work
         rdf:about=""><dc:title>folder-</dc:title><dc:date>26-07-2025</dc:date><dc:description>Beautyline style * folder icon</dc:description><cc:license
           rdf:resource="http://creativecommons.org/licenses/by-nc-sa/4.0/" /></cc:Work><cc:License
         rdf:about="http://creativecommons.org/licenses/by-nc-sa/4.0/"><cc:permits
           rdf:resource="http://creativecommons.org/ns#Reproduction" /><cc:permits
           rdf:resource="http://creativecommons.org/ns#Distribution" /><cc:requires
           rdf:resource="http://creativecommons.org/ns#Notice" /><cc:requires
           rdf:resource="http://creativecommons.org/ns#Attribution" /><cc:prohibits
           rdf:resource="http://creativecommons.org/ns#CommercialUse" /><cc:permits
           rdf:resource="http://creativecommons.org/ns#DerivativeWorks" /><cc:requires
           rdf:resource="http://creativecommons.org/ns#ShareAlike" /></cc:License></rdf:RDF></metadata></svg>
