<?xml version="1.0" encoding="UTF-8" standalone="no"?>
<svg
   width="48"
   height="48"
   viewBox="0 0 48 48"
   fill="none"
   version="2"
   id="svg1"
   sodipodi:docname="folder-android.svg"
   inkscape:version="1.4.2 (ebf0e940d0, 2025-05-08)"
   xml:space="preserve"
   xmlns:inkscape="http://www.inkscape.org/namespaces/inkscape"
   xmlns:sodipodi="http://sodipodi.sourceforge.net/DTD/sodipodi-0.dtd"
   xmlns:xlink="http://www.w3.org/1999/xlink"
   xmlns="http://www.w3.org/2000/svg"
   xmlns:svg="http://www.w3.org/2000/svg"
   xmlns:rdf="http://www.w3.org/1999/02/22-rdf-syntax-ns#"
   xmlns:cc="http://creativecommons.org/ns#"
   xmlns:dc="http://purl.org/dc/elements/1.1/"><title
     id="title1">folder-</title><sodipodi:namedview
     id="namedview1"
     pagecolor="#3f4354"
     bordercolor="#000000"
     borderopacity="0.5"
     inkscape:showpageshadow="1"
     inkscape:pageopacity="0"
     inkscape:pagecheckerboard="1"
     inkscape:deskcolor="#2b2f40"
     showgrid="false"
     inkscape:zoom="17.6875"
     inkscape:cx="23.971731"
     inkscape:cy="24"
     inkscape:window-width="1920"
     inkscape:window-height="1048"
     inkscape:window-x="0"
     inkscape:window-y="0"
     inkscape:window-maximized="1"
     inkscape:current-layer="g11" /><g
     id="g1"><g
       id="g11"
       transform="matrix(0.74999965,0,0,0.74999965,3.7743922e-7,1.908614e-5)"
       style="fill:url(#linearGradient3)"><path
         d="M 8.24717,5.28688 C 10.8404,4.80099 13.5052,5.09747 16.1297,5.01923 18.8839,5.09747 21.902,4.61569 24.37,6.03631 c 2.3518,1.37121 3.8988,3.59891 6.0002,5.24599 0.7735,0.5518 1.7751,0.7577 2.7453,0.7412 9.4028,0 18.8055,0.0124 28.2083,0.0659 1.6185,-0.1277 3.018,1.4165 2.6022,2.8577 -0.2281,1.1159 -1.404,1.9436 -2.6291,1.8695 C 51.7466,16.8289 42.1963,16.7836 32.646,16.7754 30.4597,16.763 28.2778,16.0177 26.6547,14.663 24.6696,13.1765 23.3506,10.8953 21.0033,9.87817 17.7483,9.63934 14.462,9.84523 11.1981,9.77522 8.9536,9.63934 6.7091,10.8252 5.75228,12.7029 c -0.65725,1.1901 -0.541,2.5572 -0.54994,3.846 0.02235,10.8503 -0.00895,21.7005 0.01341,32.5549 -0.03577,2.0342 1.4084,3.9777 3.4517,4.7354 1.21614,0.4777 2.56645,0.3871 3.85855,0.3953 13.5833,-0.0206 27.1665,0.0083 40.7453,-0.0165 2.1014,0.0083 4.1134,-1.2023 4.9898,-2.9524 0.7019,-1.3135 0.5007,-2.8124 0.5275,-4.2248 0.009,-6.0284 -0.0312,-12.0567 0.0179,-18.0851 -0.0357,-1.3548 1.3995,-2.4954 2.8481,-2.3183 1.4219,0.0865 2.486,1.3712 2.325,2.6601 0,6.7366 0.0313,13.4732 -0.0134,20.214 C 63.9036,54.498 59.1016,58.8917 53.696,58.974 39.384,59.0234 25.0675,58.9864 10.7555,58.9905 6.61521,59.0317 2.60462,56.6516 0.945834,53.1557 0.163389,51.6362 -0.0243975,49.9356 0.00242916,48.272 0.0381981,37.01 -0.0243977,25.7397 0.0337268,14.4777 0.114207,10.1664 3.70004,6.22985 8.24717,5.28688 Z"
         id="path111"
         style="fill:url(#linearGradient2);fill-opacity:1;stroke:url(#linearGradient30);stroke-width:0;stroke-dasharray:none" /></g><g
       style="fill:none"
       id="g2"
       transform="matrix(0.38710302,0,0,0.38710302,11.626345,14.220006)"><path
         fill-rule="evenodd"
         clip-rule="evenodd"
         d="m 6.2549323,15.158016 c 1.2233949,-0.734068 2.8104142,-0.337429 3.5444823,0.886121 l 4.8173214,8.029025 c 4.966121,-3.333686 10.949798,-5.27968 17.390408,-5.27968 6.435341,0 12.414368,1.942429 17.377853,5.270535 l 4.811897,-8.01988 c 0.734223,-1.22355 2.321086,-1.620189 3.544637,-0.886121 1.223396,0.734069 1.620189,2.320933 0.886121,3.544483 l -5.169631,8.616154 c 5.256895,4.97294 8.770843,11.754545 9.53591,19.343222 0.157169,3.132808 -3.08042,3.133584 -3.08042,3.133584 H 4.0101033 c 0,0 -3.14737897,0.0017 -3.0049361,-2.982151 C 1.7386152,39.169606 5.259848,32.335303 10.545262,27.330124 L 5.3688116,18.702499 c -0.7342232,-1.22355 -0.33743,-2.810414 0.8861207,-3.544483 z m 10.2439387,19.13661 c 0.508858,0 1.012753,0.100283 1.483016,0.294959 0.470108,0.194832 0.89728,0.480183 1.257184,0.840087 0.35975,0.35975 0.645255,0.787077 0.840087,1.257185 0.194677,0.470108 0.294961,0.974158 0.294961,1.483017 0,0.508856 -0.100284,1.012753 -0.294961,1.483014 -0.194832,0.470108 -0.480337,0.897282 -0.840087,1.257186 -0.359904,0.359904 -0.787076,0.645253 -1.257184,0.840086 -0.470263,0.194677 -0.974158,0.29496 -1.483016,0.29496 -0.509012,0 -1.012909,-0.100283 -1.483016,-0.29496 -0.470262,-0.194833 -0.897436,-0.480182 -1.257185,-0.840086 -0.359904,-0.359904 -0.645409,-0.787078 -0.840086,-1.257186 -0.194832,-0.470261 -0.29496,-0.974158 -0.29496,-1.483014 0,-0.508859 0.100128,-1.012909 0.29496,-1.483017 0.194677,-0.470108 0.480182,-0.897435 0.840086,-1.257185 0.359749,-0.359904 0.786923,-0.645255 1.257185,-0.840087 0.470107,-0.194676 0.974004,-0.294959 1.483016,-0.294959 z m 32.484837,0.294959 c -0.470106,-0.194676 -0.974004,-0.294959 -1.483015,-0.294959 -0.508857,0 -1.012754,0.100283 -1.483017,0.294959 -0.470108,0.194832 -0.89728,0.480183 -1.257184,0.840087 -0.359749,0.35975 -0.645255,0.787077 -0.839932,1.257185 -0.194832,0.470108 -0.295115,0.974158 -0.295115,1.483017 0,0.508856 0.100283,1.012753 0.295115,1.483014 0.194677,0.470108 0.480183,0.897282 0.839932,1.257186 0.359904,0.359904 0.787076,0.645253 1.257184,0.840086 0.470263,0.194677 0.97416,0.29496 1.483017,0.29496 0.509011,0 1.012909,-0.100283 1.483015,-0.29496 0.470262,-0.194833 0.897436,-0.480182 1.257185,-0.840086 0.359905,-0.359904 0.645409,-0.787078 0.840086,-1.257186 0.194832,-0.470261 0.294961,-0.974158 0.294961,-1.483014 0,-0.508859 -0.100129,-1.012909 -0.294961,-1.483017 -0.194677,-0.470108 -0.480181,-0.897435 -0.840086,-1.257185 -0.359749,-0.359904 -0.786923,-0.645255 -1.257185,-0.840087 z"
         fill="url(#paint1_linear)"
         id="path2"
         style="fill:url(#paint1_linear);stroke-width:1.54997" /></g></g><defs
     id="defs1"><linearGradient
       id="paint0_linear-3"
       x1="31.9995"
       y1="59.999"
       x2="31.9995"
       y2="4"
       gradientUnits="userSpaceOnUse"><stop
         stop-color="#00B59C"
         id="stop2" /><stop
         offset="1"
         stop-color="#9CFFAC"
         id="stop3" /></linearGradient><linearGradient
       id="paint1_linear"
       x1="32"
       y1="43.5849"
       x2="32"
       y2="21"
       gradientUnits="userSpaceOnUse"
       gradientTransform="matrix(1.5499748,0,0,1.5499748,-17.599181,-17.760039)"><stop
         stop-color="#02AA93"
         id="stop4" /><stop
         offset="1"
         stop-color="#67FF80"
         id="stop5" /></linearGradient><linearGradient
       inkscape:collect="always"
       xlink:href="#paint1_linear"
       id="linearGradient2"
       gradientUnits="userSpaceOnUse"
       x1="32.000015"
       y1="58.999977"
       x2="32.000015"
       y2="5.000001" /></defs><metadata
     id="metadata1"><rdf:RDF><cc:Work
         rdf:about=""><dc:title>folder-</dc:title><dc:date>26-07-2025</dc:date><dc:description>Beautyline style * folder icon</dc:description><cc:license
           rdf:resource="http://creativecommons.org/licenses/by-nc-sa/4.0/" /></cc:Work><cc:License
         rdf:about="http://creativecommons.org/licenses/by-nc-sa/4.0/"><cc:permits
           rdf:resource="http://creativecommons.org/ns#Reproduction" /><cc:permits
           rdf:resource="http://creativecommons.org/ns#Distribution" /><cc:requires
           rdf:resource="http://creativecommons.org/ns#Notice" /><cc:requires
           rdf:resource="http://creativecommons.org/ns#Attribution" /><cc:prohibits
           rdf:resource="http://creativecommons.org/ns#CommercialUse" /><cc:permits
           rdf:resource="http://creativecommons.org/ns#DerivativeWorks" /><cc:requires
           rdf:resource="http://creativecommons.org/ns#ShareAlike" /></cc:License></rdf:RDF></metadata></svg>
