<?xml version="1.0" encoding="UTF-8" standalone="no"?>
<svg
   width="48"
   height="48"
   viewBox="0 0 48 48"
   fill="none"
   version="2"
   id="svg1"
   sodipodi:docname="folder-image-people.svg"
   inkscape:version="1.4.2 (ebf0e940d0, 2025-05-08)"
   xml:space="preserve"
   xmlns:inkscape="http://www.inkscape.org/namespaces/inkscape"
   xmlns:sodipodi="http://sodipodi.sourceforge.net/DTD/sodipodi-0.dtd"
   xmlns:xlink="http://www.w3.org/1999/xlink"
   xmlns="http://www.w3.org/2000/svg"
   xmlns:svg="http://www.w3.org/2000/svg"
   xmlns:rdf="http://www.w3.org/1999/02/22-rdf-syntax-ns#"
   xmlns:cc="http://creativecommons.org/ns#"
   xmlns:dc="http://purl.org/dc/elements/1.1/"><title
     id="title1">folder-image-people</title><sodipodi:namedview
     id="namedview1"
     pagecolor="#3f4354"
     bordercolor="#000000"
     borderopacity="0.5"
     inkscape:showpageshadow="1"
     inkscape:pageopacity="0"
     inkscape:pagecheckerboard="1"
     inkscape:deskcolor="#2b2f40"
     showgrid="false"
     inkscape:zoom="17.3125"
     inkscape:cx="24"
     inkscape:cy="24"
     inkscape:window-width="1920"
     inkscape:window-height="1048"
     inkscape:window-x="0"
     inkscape:window-y="0"
     inkscape:window-maximized="1"
     inkscape:current-layer="g11" /><g
     id="g1"><g
       id="g11"
       transform="matrix(0.74999965,0,0,0.74999965,3.7743922e-7,1.908614e-5)"><path
         d="M 8.24717,5.28688 C 10.8404,4.80099 13.5052,5.09747 16.1297,5.01923 18.8839,5.09747 21.902,4.61569 24.37,6.03631 c 2.3518,1.37121 3.8988,3.59891 6.0002,5.24599 0.7735,0.5518 1.7751,0.7577 2.7453,0.7412 9.4028,0 18.8055,0.0124 28.2083,0.0659 1.6185,-0.1277 3.018,1.4165 2.6022,2.8577 -0.2281,1.1159 -1.404,1.9436 -2.6291,1.8695 C 51.7466,16.8289 42.1963,16.7836 32.646,16.7754 30.4597,16.763 28.2778,16.0177 26.6547,14.663 24.6696,13.1765 23.3506,10.8953 21.0033,9.87817 17.7483,9.63934 14.462,9.84523 11.1981,9.77522 8.9536,9.63934 6.7091,10.8252 5.75228,12.7029 c -0.65725,1.1901 -0.541,2.5572 -0.54994,3.846 0.02235,10.8503 -0.00895,21.7005 0.01341,32.5549 -0.03577,2.0342 1.4084,3.9777 3.4517,4.7354 1.21614,0.4777 2.56645,0.3871 3.85855,0.3953 13.5833,-0.0206 27.1665,0.0083 40.7453,-0.0165 2.1014,0.0083 4.1134,-1.2023 4.9898,-2.9524 0.7019,-1.3135 0.5007,-2.8124 0.5275,-4.2248 0.009,-6.0284 -0.0312,-12.0567 0.0179,-18.0851 -0.0357,-1.3548 1.3995,-2.4954 2.8481,-2.3183 1.4219,0.0865 2.486,1.3712 2.325,2.6601 0,6.7366 0.0313,13.4732 -0.0134,20.214 C 63.9036,54.498 59.1016,58.8917 53.696,58.974 39.384,59.0234 25.0675,58.9864 10.7555,58.9905 6.61521,59.0317 2.60462,56.6516 0.945834,53.1557 0.163389,51.6362 -0.0243975,49.9356 0.00242916,48.272 0.0381981,37.01 -0.0243977,25.7397 0.0337268,14.4777 0.114207,10.1664 3.70004,6.22985 8.24717,5.28688 Z"
         id="path111"
         style="fill:url(#linearGradient30);fill-opacity:1;stroke:url(#linearGradient30);stroke-width:0;stroke-dasharray:none" /></g><g
       style="fill:none"
       id="g12"
       transform="matrix(1.5714286,0,0,1.5714286,11.442019,13.272597)"><path
         fill-rule="evenodd"
         clip-rule="evenodd"
         d="m 4.40658,6.1328 c 0.09332,0 0.18667,0 0.27999,-0.04668 v -0.28 c 0,-0.23332 1e-5,-0.46667 0.04668,-0.65332 C 4.6399,5.19945 4.4999,5.19945 4.40658,5.19945 c -0.60668,0 -1.12003,-0.51333 -1.12003,-1.11998 0,-0.60667 0.51335,-1.12 1.12003,-1.12 0.46667,0 0.88667,0.28 1.07332,0.7 C 5.66657,3.42615 5.94658,3.1928 6.1799,3.00615 5.57325,2.02614 4.31325,1.69947 3.33323,2.30614 2.35322,2.91281 2.02656,4.1728 2.63322,5.1528 c 0.37333,0.60665 1.02668,0.98 1.77336,0.98 z M 10.52,3.65955 c 0.2333,-0.56 0.8867,-0.84001 1.4933,-0.60668 0.56,0.23333 0.84,0.88668 0.6067,1.49333 -0.1867,0.41997 -0.6067,0.69997 -1.0267,0.69997 -0.0933,0 -0.2333,0 -0.3266,-0.04665 0.0466,0.23333 0.0466,0.46665 0.0466,0.65333 v 0.28 c 0.0467,0 0.0934,0.01168 0.14,0.02333 0.0467,0.01167 0.0934,0.02334 0.14,0.02334 1.1667,0 2.1,-0.93335 2.1,-2.05332 0,-1.16666 -0.9333,-2.1 -2.0533,-2.1 -0.7467,0 -1.4,0.37334 -1.77332,1.02667 0.23332,0.14 0.46662,0.32668 0.65332,0.60668 z m -0.3267,2.14657 c 0,1.26 -0.97998,2.28668 -2.23998,2.28668 -1.26,0 -2.28664,-1.02668 -2.28664,-2.28668 0,-1.21335 0.97999,-2.24 2.23999,-2.24 1.26,0 2.28663,0.98 2.28663,2.24 z M 9.26,5.8528 C 9.26,5.10612 8.65332,4.49945 7.90667,4.49945 7.20667,4.49945 6.6,5.10612 6.6,5.8528 c 0,0.7 0.56,1.30665 1.30667,1.30665 0.74665,0 1.35333,-0.56 1.35333,-1.30665 z m 2.3333,0.79323 c 1.2134,-0.04668 2.38,0.37332 3.2667,1.16667 L 15,7.9527 V 11.686 H 14.0667 V 8.32603 C 13.3667,7.8127 12.48,7.5327 11.5933,7.57935 c -0.28,0 -0.5133,0 -0.7933,0.04668 0.1867,-0.28 0.3267,-0.60668 0.42,-0.98 z M 4.78,6.69275 c 0.09333,0.37332 0.23332,0.7 0.42,0.98 C 4.96667,7.62607 4.68667,7.5794 4.40667,7.5794 3.52,7.53275 2.68,7.81275 1.93333,8.32608 V 11.6861 H 1 V 7.95275 l 0.14,-0.14 c 0.88667,-0.74668 2.05332,-1.16668 3.26667,-1.12 z m 6.9067,3.77995 0.0933,0.1401 h 0.0467 v 3.5466 c 0,0.42 -0.3734,0.7934 -0.7934,0.7934 H 5.06 c -0.46668,0 -0.79333,-0.3734 -0.79333,-0.7934 V 10.6128 L 4.36,10.4727 C 5.29333,9.44607 6.64667,8.8394 8.04667,8.88608 9.44667,8.8394 10.7533,9.44607 11.6867,10.4727 Z M 5.2,14.0194 h 5.6467 v -3.08 C 10.1,10.1927 9.07332,9.77275 8.04667,9.8194 c -1.07335,0 -2.1,0.3733 -2.84667,1.12 z"
         fill="url(#paint0_linear_448_521)"
         id="path1"
         style="fill:url(#paint0_linear_448_521)" /><path
         d="M 4.74471,6.13737 4.79962,6.2472 4.86751,6.21326 V 6.13737 Z M 4.79056,5.22042 4.90968,5.25018 4.97445,4.99116 4.73562,5.11055 Z M 5.52411,3.75329 5.41189,3.80317 5.4939,3.98765 5.62002,3.82999 Z M 6.21183,3.11143 6.28856,3.20731 6.37354,3.13933 6.31627,3.04678 Z M 2.72738,5.22042 2.83196,5.15604 2.83179,5.15577 Z M 11.9429,3.15733 11.9902,3.04392 11.987,3.0427 Z m -1.4671,0.59603 -0.1022,0.06811 0.1273,0.19094 0.0882,-0.21182 z m 2.0631,0.8711 0.1123,0.04988 0.0012,-0.00287 0.0012,-0.00293 z m -1.3295,0.64186 0.0549,-0.10986 -0.2246,-0.11227 0.0492,0.2462 z m 0.0458,0.91695 h -0.1228 v 0.12281 h 0.1228 z M 9.83393,3.15733 9.72728,3.0964 9.66765,3.20078 9.77073,3.26263 Z M 14.7396,7.83365 14.8265,7.7468 14.8241,7.74439 14.8215,7.74211 Z M 11.5303,6.68744 v 0.12281 h 0.0023 l 0.0024,-10e-5 z m 3.3469,1.28375 H 15 V 7.92033 L 14.964,7.88434 Z m 0,3.66781 v 0.1228 H 15 V 11.639 Z m -0.917,0 h -0.1228 v 0.1228 h 0.1228 z m 0,-3.30103 H 14.083 V 8.27573 L 14.0328,8.23894 Z M 11.5303,7.60439 V 7.7272 h 0.0032 l 0.0032,-1.7e-4 z M 10.7509,7.65025 10.6487,7.58212 10.4915,7.81798 10.7711,7.77139 Z M 11.1635,6.68744 V 6.56464 H 11.0676 L 11.0444,6.65765 Z M 5.24912,7.69616 5.22503,7.81658 5.51576,7.87472 5.3513,7.62802 Z M 4.83649,6.73335 4.95564,6.70356 4.93238,6.61054 H 4.83649 Z M 4.46972,7.60444 4.46326,7.72708 4.46647,7.72725 H 4.46972 Z M 2.03977,8.33802 1.97019,8.23683 1.91696,8.27342 v 0.0646 z m 0,3.30108 v 0.1228 h 0.1228 v -0.1228 z m -0.91696,0 H 1 v 0.1228 h 0.12281 z m 0,-3.66786 L 1.03597,7.88439 1,7.92038 V 7.97124 Z M 1.26035,7.8337 1.18125,7.73975 1.17723,7.74314 1.17351,7.74685 Z m 3.20937,-1.10035 -0.00474,0.12271 0.00238,10e-5 h 0.00236 z m 7.24398,3.85125 -0.1022,0.0681 0.0365,0.0547 h 0.0657 z M 11.622,10.447 11.7242,10.3789 11.7191,10.3712 11.7128,10.3644 Z m 0.1375,0.1376 h 0.1228 v -0.1228 h -0.1228 z m -7.42733,0 -0.1022,-0.0682 -0.02061,0.031 v 0.0372 z M 4.42386,10.447 4.33298,10.3644 4.32679,10.3712 4.32168,10.3789 Z m 3.622,-1.55881 -0.00411,0.12274 0.00411,1.4e-4 0.00407,-1.4e-4 z m 2.75084,5.04331 v 0.1228 h 0.1228 v -0.1228 z m -5.54758,0 h -0.1228 v 0.1228 h 0.1228 z m 5.54758,-3.026 h 0.1228 V 10.8546 L 10.8836,10.8187 Z M 8.04586,9.80514 v 0.12281 h 0.00277 l 0.0028,-1.2e-4 z M 5.24912,10.9055 5.16227,10.8187 5.12632,10.8546 v 0.0509 z M 4.68979,6.02753 C 4.6276,6.05862 4.5644,6.06041 4.46962,6.06041 v 0.24562 c 0.08859,0 0.20879,0.00179 0.33,-0.05883 z M 4.6219,5.86228 V 6.13737 H 4.86751 V 5.86228 Z M 4.67141,5.19062 C 4.62114,5.39176 4.6219,5.63779 4.6219,5.86228 h 0.24561 c 0,-0.234 7.6e-4,-0.44645 0.04217,-0.6121 z M 4.46962,5.38905 c 0.04517,0 0.10839,10e-5 0.17269,-0.00633 C 4.70526,5.37643 4.77993,5.36302 4.84548,5.33025 L 4.73562,5.11055 C 4.70948,5.12364 4.66952,5.13315 4.61787,5.13833 4.56754,5.14337 4.51614,5.14344 4.46962,5.14344 Z M 3.24644,4.16592 c 0,0.66382 0.55931,1.22313 1.22318,1.22313 V 5.14344 C 3.9414,5.14344 3.49205,4.69409 3.49205,4.16592 Z M 4.46962,2.94276 c -0.66387,0 -1.22318,0.55931 -1.22318,1.22316 h 0.24561 c 0,-0.52819 0.44935,-0.97754 0.97757,-0.97754 z M 5.63633,3.7034 C 5.4336,3.24723 4.9775,2.94276 4.46962,2.94276 v 0.24562 c 0.40907,0 0.77825,0.24571 0.94227,0.61479 z M 6.13513,3.01552 C 5.90666,3.19827 5.62125,3.43527 5.42822,3.67658 l 0.1918,0.15341 C 5.79375,3.61282 6.05852,3.39133 6.28856,3.20731 Z M 3.47974,2.52812 C 4.38218,1.96947 5.54538,2.26817 6.10742,3.17605 L 6.31627,3.04678 C 5.68624,2.02906 4.37366,1.68588 3.35045,2.31928 Z M 2.83179,5.15577 C 2.27316,4.25336 2.57185,3.09015 3.47974,2.52812 L 3.35045,2.31928 C 2.33274,2.9493 1.98956,4.26188 2.62297,5.28504 Z m 1.63783,0.90464 c -0.69109,0 -1.29331,-0.34479 -1.63766,-0.90437 L 2.6228,5.28477 C 3.012,5.91725 3.69355,6.30603 4.46962,6.30603 Z M 11.987,3.0427 C 11.3316,2.79064 10.6184,3.09189 10.3624,3.70611 l 0.2267,0.09448 c 0.2026,-0.48614 0.7731,-0.73506 1.3097,-0.52863 z m 0.6666,1.62584 c 0.252,-0.65537 -0.0492,-1.3687 -0.6634,-1.62462 l -0.0945,0.22676 c 0.4861,0.20256 0.735,0.77302 0.5286,1.30969 z m -1.1233,0.76642 c 0.4648,0 0.9193,-0.30712 1.1209,-0.76062 L 12.4267,4.57457 c -0.1652,0.37174 -0.536,0.61477 -0.8964,0.61477 z m -0.3759,-0.0588 c 0.0656,0.03276 0.1402,0.04617 0.2032,0.05246 0.0643,0.00644 0.1275,0.00634 0.1727,0.00634 V 5.18934 c -0.0465,0 -0.0979,-7e-5 -0.1482,-0.0051 C 11.3304,5.17905 11.2904,5.16955 11.2643,5.15646 Z m 0.2236,0.53202 c 0,-0.18212 3e-4,-0.42309 -0.0482,-0.66595 l -0.2409,0.04816 c 0.0431,0.2156 0.0435,0.43314 0.0435,0.61779 z m 0,0.27509 V 5.90818 H 11.1324 V 6.18327 Z M 11.4225,6.08706 C 11.3796,6.07631 11.3188,6.06046 11.2552,6.06046 v 0.24562 c 0.0281,0 0.059,0.00707 0.1078,0.01925 z m 0.1078,0.01926 c -0.0281,0 -0.059,-0.00707 -0.1078,-0.01926 L 11.363,6.32533 c 0.0429,0.01074 0.1037,0.0266 0.1673,0.0266 z m 1.9403,-1.89449 c 0,1.03071 -0.8601,1.89449 -1.9403,1.89449 v 0.24561 c 1.2122,0 2.1859,-0.97015 2.1859,-2.1401 z M 11.5761,2.27148 c 1.0308,0 1.8945,0.86018 1.8945,1.94035 h 0.2456 c 0,-1.21222 -0.9701,-2.18596 -2.1401,-2.18596 z M 9.94055,3.21827 C 10.2852,2.61507 10.8862,2.27148 11.5761,2.27148 V 2.02587 c -0.7771,0 -1.4599,0.38997 -1.84882,1.07053 z M 10.578,3.68523 C 10.3817,3.39091 10.137,3.19599 9.8971,3.05202 L 9.77073,3.26263 C 9.98928,3.39376 10.203,3.56564 10.3736,3.82147 Z M 7.95414,8.23164 c 1.309,0 2.32356,-1.06697 2.32356,-2.36936 H 10.032 c 0,1.17339 -0.91107,2.12375 -2.07786,2.12375 z M 5.5848,5.86228 c 0,1.30571 1.06363,2.36936 2.36934,2.36936 V 7.98603 c -1.17005,0 -2.12372,-0.9537 -2.12372,-2.12375 z M 7.90831,3.53877 c -1.30738,0 -2.32351,1.0653 -2.32351,2.32351 h 0.24562 c 0,-1.1259 0.90948,-2.0779 2.07789,-2.0779 z m 2.36939,2.32351 c 0,-1.30903 -1.06702,-2.32351 -2.36939,-2.32351 v 0.24561 c 1.1734,0 2.12369,0.91111 2.12369,2.0779 z M 7.90831,4.70133 c 0.66574,0 1.20678,0.54104 1.20678,1.2068 H 9.3607 c 0,-0.80139 -0.651,-1.45241 -1.45239,-1.45241 z m -1.16094,1.2068 c 0,-0.66856 0.54381,-1.2068 1.16094,-1.2068 V 4.45572 c -0.75833,0 -1.40656,0.65382 -1.40656,1.45241 z M 7.90831,7.06905 C 7.2454,7.06905 6.74737,6.53089 6.74737,5.90813 H 6.50175 c 0,0.75266 0.60232,1.40654 1.40656,1.40654 z M 9.11509,5.90813 c 0,0.66017 -0.53532,1.16092 -1.20678,1.16092 v 0.24562 c 0.79567,0 1.45239,-0.59957 1.45239,-1.40654 z M 14.8215,7.74211 C 13.9264,6.94124 12.7491,6.51767 11.5256,6.56473 l 0.0094,0.24542 c 1.1606,-0.04463 2.2757,0.35708 3.1228,1.11502 z M 14.964,7.88434 14.8265,7.7468 14.6528,7.92047 14.7903,8.05802 Z M 15,11.639 V 7.97119 H 14.7544 V 11.639 Z m -1.0398,0.1228 h 0.917 v -0.2456 h -0.917 z M 13.8374,8.33797 V 11.639 H 14.083 V 8.33797 Z M 11.5367,7.72703 C 12.3785,7.68274 13.2218,7.94877 13.8876,8.437 L 14.0328,8.23894 C 13.3232,7.71853 12.4243,7.43438 11.5238,7.48176 Z M 10.7711,7.77139 C 11.0348,7.72742 11.2545,7.7272 11.5303,7.7272 V 7.48159 c -0.2744,0 -0.5132,-2.2e-4 -0.7996,0.04752 z m 0.2733,-1.11374 c -0.0888,0.35506 -0.2212,0.66264 -0.3957,0.92447 l 0.2044,0.13624 C 11.0453,7.43003 11.188,7.09573 11.2827,6.71724 Z m 0.4859,-0.09301 h -0.3668 v 0.24561 h 0.3668 z M 5.3513,7.62802 C 5.17676,7.3662 5.0444,7.05861 4.95564,6.70356 L 4.71734,6.76312 C 4.81198,7.14163 4.95471,7.47591 5.14695,7.76426 Z M 4.46972,7.72725 c 0.26268,0 0.52821,0.04389 0.75531,0.08933 L 5.27322,7.57573 C 5.04182,7.52946 4.75718,7.48164 4.46972,7.48164 Z M 2.10934,8.43921 C 2.8244,7.94761 3.6234,7.68289 4.46326,7.72708 L 4.47615,7.48181 C 3.57379,7.43433 2.72227,7.71978 1.97019,8.23683 Z M 2.16257,11.6391 V 8.33802 H 1.91696 V 11.6391 Z M 1.12281,11.7619 H 2.03977 V 11.5163 H 1.12281 Z M 1,7.97124 V 11.6391 H 1.24561 V 7.97124 Z M 1.17351,7.74685 1.03597,7.88439 1.20964,8.05807 1.34719,7.92052 Z M 4.47443,6.61061 C 3.2512,6.56358 2.07526,6.9869 1.18125,7.73975 L 1.33946,7.92762 C 2.18767,7.21335 3.30413,6.8114 4.46498,6.85606 Z m 0.36206,-7e-5 H 4.46972 v 0.24562 h 0.36677 z m 6.97941,3.90586 -0.0917,-0.1375 -0.2044,0.1362 0.0917,0.1376 z m -0.0564,-0.0546 h -0.0458 v 0.2456 h 0.0458 z m 0.1228,3.6072 v -3.4844 h -0.2456 v 3.4844 z m -0.9022,0.9022 c 0.4805,0 0.9022,-0.4217 0.9022,-0.9022 h -0.2456 c 0,0.3448 -0.3118,0.6566 -0.6566,0.6566 z m -5.86852,0 H 10.9801 V 14.7256 H 5.11158 Z M 4.20936,14.069 c 0,0.4757 0.37123,0.9022 0.90222,0.9022 v -0.2456 c -0.38598,0 -0.6566,-0.307 -0.6566,-0.6566 z m 0,-3.4844 v 3.4844 h 0.24562 v -3.4844 z m 0.11232,-0.2057 -0.09171,0.1375 0.20438,0.1363 0.09169,-0.1376 z M 8.04993,8.76546 C 6.6366,8.71835 5.27287,9.33054 4.33298,10.3644 l 0.18176,0.1652 C 5.40875,9.54619 6.70421,8.96635 8.04175,9.01093 Z M 11.7128,10.3644 C 10.7738,9.33148 9.45629,8.7183 8.04175,8.76546 L 8.04993,9.01093 C 9.38627,8.96637 10.6362,9.54526 11.5311,10.5296 Z m -0.9161,3.4443 H 5.24912 v 0.2456 h 5.54758 z m -0.1228,-2.9032 v 3.026 h 0.2456 v -3.026 z M 8.05143,9.92783 C 9.02338,9.88364 9.9991,10.2816 10.7099,10.9923 l 0.1737,-0.1736 C 10.1272,10.0623 9.08561,9.63496 8.04028,9.68246 Z M 5.33597,10.9923 C 6.04349,10.2848 7.01941,9.92795 8.04586,9.92795 V 9.68234 c -1.08257,0 -2.12398,0.37676 -2.88359,1.13636 z m 0.03596,2.9392 v -3.026 H 5.12632 v 3.026 z"
         fill="url(#paint1_linear_448_521)"
         id="path2"
         style="fill:url(#paint1_linear_448_521)" /></g><rect
       style="fill:none;fill-opacity:1;fill-rule:evenodd;stroke:none;stroke-width:3.9;stroke-linejoin:round;stroke-dasharray:none;stroke-opacity:0.5;paint-order:fill markers stroke"
       id="rect1"
       width="44.075188"
       height="31.645638"
       x="1.9758538"
       y="10.78429" /></g><defs
     id="defs1"><linearGradient
       inkscape:collect="always"
       xlink:href="#paint1_linear_448_521"
       id="linearGradient30"
       gradientUnits="userSpaceOnUse"
       gradientTransform="matrix(1.421128,-0.01199146,0.01198687,1.4216711,-101.30678,-100.47471)"
       x1="78.176018"
       y1="99.452347"
       x2="104.73837"
       y2="94.607552" /><linearGradient
       id="paint0_linear_448_521"
       x1="4.80665"
       y1="11.9182"
       x2="10.9012"
       y2="11.0792"
       gradientUnits="userSpaceOnUse"><stop
         stop-color="#8D01A2"
         id="stop2" /><stop
         offset="1"
         stop-color="#FF00D2"
         id="stop3" /></linearGradient><linearGradient
       id="paint1_linear_448_521"
       x1="4.86267"
       y1="11.8671"
       x2="10.8503"
       y2="11.0429"
       gradientUnits="userSpaceOnUse"><stop
         stop-color="#8D01A2"
         id="stop4" /><stop
         offset="1"
         stop-color="#FF00D2"
         id="stop5-3" /></linearGradient></defs><metadata
     id="metadata1"><rdf:RDF><cc:Work
         rdf:about=""><dc:title>folder-image-people</dc:title><dc:date>25-07-2025</dc:date><dc:description>Beautyline style image people folder icon</dc:description><cc:license
           rdf:resource="http://creativecommons.org/licenses/by-nc-sa/4.0/" /></cc:Work><cc:License
         rdf:about="http://creativecommons.org/licenses/by-nc-sa/4.0/"><cc:permits
           rdf:resource="http://creativecommons.org/ns#Reproduction" /><cc:permits
           rdf:resource="http://creativecommons.org/ns#Distribution" /><cc:requires
           rdf:resource="http://creativecommons.org/ns#Notice" /><cc:requires
           rdf:resource="http://creativecommons.org/ns#Attribution" /><cc:prohibits
           rdf:resource="http://creativecommons.org/ns#CommercialUse" /><cc:permits
           rdf:resource="http://creativecommons.org/ns#DerivativeWorks" /><cc:requires
           rdf:resource="http://creativecommons.org/ns#ShareAlike" /></cc:License></rdf:RDF></metadata></svg>
