<?xml version="1.0" encoding="UTF-8" standalone="no"?>
<svg
   width="48"
   height="48"
   viewBox="0 0 48 48"
   fill="none"
   version="1.1"
   id="svg3291"
   sodipodi:docname="folder-backup.svg"
   inkscape:version="1.4.2 (ebf0e940d0, 2025-05-08)"
   xmlns:inkscape="http://www.inkscape.org/namespaces/inkscape"
   xmlns:sodipodi="http://sodipodi.sourceforge.net/DTD/sodipodi-0.dtd"
   xmlns="http://www.w3.org/2000/svg"
   xmlns:svg="http://www.w3.org/2000/svg">
  <sodipodi:namedview
     id="namedview3293"
     pagecolor="#505050"
     bordercolor="#ffffff"
     borderopacity="1"
     inkscape:showpageshadow="0"
     inkscape:pageopacity="0"
     inkscape:pagecheckerboard="1"
     inkscape:deskcolor="#505050"
     showgrid="false"
     inkscape:zoom="14.189088"
     inkscape:cx="23.85636"
     inkscape:cy="24.420174"
     inkscape:window-width="1920"
     inkscape:window-height="1048"
     inkscape:window-x="0"
     inkscape:window-y="0"
     inkscape:window-maximized="1"
     inkscape:current-layer="g3269" />
  <g
     clip-path="url(#clip0)"
     id="g3269">
    <g
       id="g10548"
       transform="matrix(0.74999965,0,0,0.74999965,-2.2560796e-8,1.908614e-5)">
      <path
         d="M 8.24717,5.28688 C 10.8404,4.80099 13.5052,5.09747 16.1297,5.01923 18.8839,5.09747 21.902,4.61569 24.37,6.03631 c 2.3518,1.37121 3.8988,3.59891 6.0002,5.24599 0.7735,0.5518 1.7751,0.7577 2.7453,0.7412 9.4028,0 18.8055,0.0124 28.2083,0.0659 1.6185,-0.1277 3.018,1.4165 2.6022,2.8577 -0.2281,1.1159 -1.404,1.9436 -2.6291,1.8695 C 51.7466,16.8289 42.1963,16.7836 32.646,16.7754 30.4597,16.763 28.2778,16.0177 26.6547,14.663 24.6696,13.1765 23.3506,10.8953 21.0033,9.87817 17.7483,9.63934 14.462,9.84523 11.1981,9.77522 8.9536,9.63934 6.7091,10.8252 5.75228,12.7029 c -0.65725,1.1901 -0.541,2.5572 -0.54994,3.846 0.02235,10.8503 -0.00895,21.7005 0.01341,32.5549 -0.03577,2.0342 1.4084,3.9777 3.4517,4.7354 1.21614,0.4777 2.56645,0.3871 3.85855,0.3953 13.5833,-0.0206 27.1665,0.0083 40.7453,-0.0165 2.1014,0.0083 4.1134,-1.2023 4.9898,-2.9524 0.7019,-1.3135 0.5007,-2.8124 0.5275,-4.2248 0.009,-6.0284 -0.0312,-12.0567 0.0179,-18.0851 -0.0357,-1.3548 1.3995,-2.4954 2.8481,-2.3183 1.4219,0.0865 2.486,1.3712 2.325,2.6601 0,6.7366 0.0313,13.4732 -0.0134,20.214 C 63.9036,54.498 59.1016,58.8917 53.696,58.974 39.384,59.0234 25.0675,58.9864 10.7555,58.9905 6.61521,59.0317 2.60462,56.6516 0.945834,53.1557 0.163389,51.6362 -0.0243975,49.9356 0.00242916,48.272 0.0381981,37.01 -0.0243977,25.7397 0.0337268,14.4777 0.114207,10.1664 3.70004,6.22985 8.24717,5.28688 Z"
         fill="url(#paint0_linear)"
         id="path3263"
         style="fill:url(#paint0_linear)" />
      <g
         id="g1"
         transform="matrix(1.0079698,0,0,1.0079698,-0.25526253,-0.28306911)">
        <path
           d="m 31.965364,20.96707 c -3.559259,0.01046 -6.991979,1.321444 -9.652056,3.686214 l -1.616376,-1.616355 c -0.169583,-0.169531 -0.385619,-0.284975 -0.6208,-0.33174 -0.235181,-0.04677 -0.478947,-0.02276 -0.700487,0.069 -0.221535,0.09175 -0.410891,0.247134 -0.544134,0.446494 -0.133243,0.199355 -0.204386,0.433746 -0.204438,0.673531 v 5.560855 c 0,0.32157 0.12775,0.629993 0.355152,0.8574 0.227402,0.227407 0.535825,0.355141 0.857416,0.355141 H 25.4005 c 0.239775,-5.2e-5 0.474146,-0.07119 0.673542,-0.204437 0.199345,-0.133243 0.354726,-0.322558 0.446447,-0.544093 0.09177,-0.221586 0.115782,-0.46531 0.06901,-0.700512 -0.04677,-0.235202 -0.162188,-0.451228 -0.331704,-0.620796 l -1.376289,-1.376289 c 1.606034,-1.371976 3.575732,-2.248344 5.670099,-2.522885 2.094366,-0.274488 4.223395,0.0647 6.128758,0.976457 1.905363,0.911706 3.505213,2.356799 4.605403,4.159943 1.100189,1.803093 1.65348,3.886806 1.59273,5.998165 -0.078,2.728154 -1.175437,5.328002 -3.075759,7.286891 -1.900375,1.958941 -4.465768,3.13469 -7.190232,3.295423 -2.724516,0.160733 -5.410317,-0.705241 -7.527861,-2.42711 -2.117492,-1.721868 -3.512956,-4.174702 -3.911178,-6.874689 -0.05685,-0.439016 -0.270851,-0.84259 -0.602353,-1.135943 -0.331501,-0.293405 -0.758071,-0.456736 -1.200739,-0.459802 v 0 c -0.256862,-0.0033 -0.511479,0.04817 -0.746836,0.151119 -0.235358,0.102946 -0.446042,0.254949 -0.617974,0.445824 -0.171927,0.190874 -0.301153,0.416202 -0.37903,0.661017 -0.07788,0.244816 -0.10263,0.503403 -0.07259,0.758508 0.504686,3.572199 2.316478,6.830206 5.084776,9.143612 2.768324,2.313355 6.296351,3.517686 9.901393,3.379818 3.647083,-0.1757 7.097991,-1.70342 9.679858,-4.285287 2.581867,-2.581867 4.109587,-6.032775 4.285287,-9.679858 0.0752,-1.957226 -0.245127,-3.909464 -0.941794,-5.739995 C 44.866848,28.522109 43.808181,26.850856 42.450859,25.438814 41.093486,24.026808 39.465314,22.90302 37.663677,22.134675 35.862039,21.36633 33.923989,20.969216 31.96536,20.967069 Z"
           fill="url(#paint0_linear_906_20)"
           id="path2"
           style="fill:url(#paint0_linear_906_20-7);stroke-width:0.519668" />
        <path
           d="m 31.150121,28.552429 c -0.558599,0 -1.094272,0.221923 -1.489256,0.616908 -0.394985,0.394924 -0.616908,0.930657 -0.616908,1.489195 v 6.02773 c 1.8e-4,0.744718 0.296178,1.458867 0.822825,1.985394 l 2.517516,2.517516 c 0.397211,0.383612 0.929213,0.595907 1.481433,0.591092 0.552221,-0.0047 1.080491,-0.226255 1.470964,-0.616786 0.39047,-0.390472 0.611973,-0.918684 0.616787,-1.470903 0.0049,-0.552221 -0.207482,-1.084223 -0.591153,-1.481494 l -2.106104,-2.106103 v -5.446446 c 0,-0.558538 -0.221923,-1.094271 -0.616848,-1.489195 -0.394985,-0.394985 -0.930717,-0.616908 -1.489256,-0.616908 z"
           fill="url(#paint1_linear_906_20)"
           id="path4"
           style="fill:url(#paint1_linear_906_20-5);stroke-width:0.601744" />
      </g>
    </g>
    <rect
       style="fill:none;fill-opacity:1;fill-rule:evenodd;stroke:#8d8d8d;stroke-width:3.90684;stroke-linejoin:round;stroke-dasharray:none;stroke-opacity:0;paint-order:fill markers stroke"
       id="rect1"
       width="44.136299"
       height="31.316442"
       x="1.9534224"
       y="10.980118" />
  </g>
  <defs
     id="defs3289">
    <linearGradient
       id="paint0_linear"
       x1="32"
       y1="59"
       x2="32"
       y2="5"
       gradientUnits="userSpaceOnUse">
      <stop
         stop-color="#FDA700"
         id="stop3271" />
      <stop
         offset="1"
         stop-color="#FFDE00"
         id="stop3273" />
    </linearGradient>
    <linearGradient
       id="paint1_linear"
       x1="32.0033"
       y1="48.837502"
       x2="32.0033"
       y2="21.307899"
       gradientUnits="userSpaceOnUse">
      <stop
         stop-color="#FDA700"
         id="stop3276" />
      <stop
         offset="1"
         stop-color="#FFDE00"
         id="stop3278" />
    </linearGradient>
    <linearGradient
       id="paint2_linear"
       x1="29.4149"
       y1="40.232201"
       x2="29.4149"
       y2="27.852501"
       gradientUnits="userSpaceOnUse">
      <stop
         stop-color="#FDA700"
         id="stop3281" />
      <stop
         offset="1"
         stop-color="#FFDE00"
         id="stop3283" />
    </linearGradient>
    <clipPath
       id="clip0">
      <rect
         width="64"
         height="64"
         fill="#ffffff"
         id="rect3286"
         x="0"
         y="0" />
    </clipPath>
    <linearGradient
       id="paint0_linear_906_20"
       x1="31.8778"
       y1="60"
       x2="31.8778"
       y2="4"
       gradientUnits="userSpaceOnUse">
      <stop
         stop-color="#FDA700"
         id="stop6" />
      <stop
         offset="1"
         stop-color="#FFDE00"
         id="stop8" />
    </linearGradient>
    <linearGradient
       id="paint1_linear_906_20"
       x1="32.8311"
       y1="42.315201"
       x2="32.8311"
       y2="20.3325"
       gradientUnits="userSpaceOnUse">
      <stop
         stop-color="#FDA700"
         id="stop11" />
      <stop
         offset="1"
         stop-color="#FFDE00"
         id="stop13" />
    </linearGradient>
    <linearGradient
       id="paint0_linear_906_20-7"
       x1="31.8778"
       y1="60"
       x2="31.8778"
       y2="4"
       gradientUnits="userSpaceOnUse"
       gradientTransform="matrix(0.51966812,0,0,0.51966812,15.462887,18.888398)">
      <stop
         stop-color="#FDA700"
         id="stop6-5" />
      <stop
         offset="1"
         stop-color="#FFDE00"
         id="stop8-3" />
    </linearGradient>
    <linearGradient
       id="paint1_linear_906_20-5"
       x1="32.8311"
       y1="42.315201"
       x2="32.8311"
       y2="20.3325"
       gradientUnits="userSpaceOnUse"
       gradientTransform="matrix(0.60174393,0,0,0.60174393,12.742834,16.31747)">
      <stop
         stop-color="#FDA700"
         id="stop11-6" />
      <stop
         offset="1"
         stop-color="#FFDE00"
         id="stop13-2" />
    </linearGradient>
  </defs>
</svg>
