<?xml version="1.0" encoding="UTF-8" standalone="no"?>
<svg
   width="48"
   height="48"
   viewBox="0 0 48 48"
   fill="none"
   version="2"
   id="svg1"
   sodipodi:docname="folder-flatpak.svg"
   inkscape:version="1.4.2 (ebf0e940d0, 2025-05-08)"
   xml:space="preserve"
   xmlns:inkscape="http://www.inkscape.org/namespaces/inkscape"
   xmlns:sodipodi="http://sodipodi.sourceforge.net/DTD/sodipodi-0.dtd"
   xmlns:xlink="http://www.w3.org/1999/xlink"
   xmlns="http://www.w3.org/2000/svg"
   xmlns:svg="http://www.w3.org/2000/svg"
   xmlns:rdf="http://www.w3.org/1999/02/22-rdf-syntax-ns#"
   xmlns:cc="http://creativecommons.org/ns#"
   xmlns:dc="http://purl.org/dc/elements/1.1/"><title
     id="title1">folder-blender</title><sodipodi:namedview
     id="namedview1"
     pagecolor="#3f4354"
     bordercolor="#000000"
     borderopacity="0.5"
     inkscape:showpageshadow="1"
     inkscape:pageopacity="0"
     inkscape:pagecheckerboard="1"
     inkscape:deskcolor="#2b2f40"
     showgrid="false"
     inkscape:zoom="15.229167"
     inkscape:cx="24"
     inkscape:cy="24"
     inkscape:window-width="1920"
     inkscape:window-height="1048"
     inkscape:window-x="0"
     inkscape:window-y="0"
     inkscape:window-maximized="1"
     inkscape:current-layer="g11" /><g
     id="g1"><g
       style="fill:none"
       id="g12"
       transform="matrix(0.36638545,0,0,0.36638545,12.289113,14.891806)"><path
         d="M 7.01084,20.7231 C 7.00454,20.8297 7.00094,20.9364 7,21.0431 V 42.817 c 6.5e-4,2.2743 1.20941,4.3756 3.1711,5.5125 l 18.6578,10.8172 c 1.9622,1.1377 4.38,1.1377 6.3422,0 L 53.8289,48.3295 C 55.7914,47.1921 57.0003,45.0896 57,42.8143 V 21.0431 c -0.003,-0.0803 -0.0076,-0.1605 -0.0136,-0.2407"
         stroke="url(#paint0_linear)"
         stroke-width="4"
         id="path1"
         style="stroke:url(#paint0_linear-3)" /><path
         d="M 32.1484,4 V 4.00391 C 32.0989,4.00462 32.0495,4.00592 32,4.00781 V 37.9844 c 1.1122,0.0045 2.206,-0.2878 3.1719,-0.8477 L 53.8438,26.1914 C 54.748,25.6605 55.5092,24.9113 56.0597,24.0101 56.6103,23.1089 56.9333,22.0837 57,21.0254 56.9417,19.9579 56.6227,18.922 56.0717,18.011 55.5207,17.0999 54.755,16.3424 53.8438,15.8066 L 35.1719,4.86133 C 34.251,4.3216 33.2114,4.02543 32.1484,4 Z"
         fill="url(#paint1_linear)"
         id="path2"
         style="fill:url(#paint1_linear-7)" /><path
         d="M 5.01266,21 C 5.00818,21.0697 5.00618,21.1397 5.00422,21.2094 5.01072,21.1395 5.01846,21.0697 5.02742,21 Z M 5.00211,21.2657 C 5.00179,21.2831 5.00017,21.3006 5,21.318 v 21.6193 c 7e-4,2.2582 1.30699,4.3458 3.42563,5.4747 L 28.5744,59.1518 c 1.0904,0.5813 2.2087,0.8644 3.4256,0.8475 V 38.1492 c -1.2028,0.0019 -2.385,-0.2917 -3.4277,-0.8513 L 8.40664,26.43 C 7.4258,25.8992 6.60135,25.1496 6.00718,24.2483 5.41301,23.347 5.06767,22.3222 5.00211,21.2657 Z"
         fill="url(#paint2_linear)"
         id="path3"
         style="fill:url(#paint2_linear)" /><path
         d="M 32.1493,4 V 4.00278 C 30.9852,3.97375 29.8356,4.27049 28.8265,4.86051 L 10.1545,15.8064 C 9.25064,16.3375 8.48982,17.0868 7.93954,17.9879 7.38927,18.8891 7.06654,19.9141 7,20.9722 c 0.05819,1.0673 0.37698,2.103 0.92767,3.014 0.55068,0.911 1.31595,1.6685 2.22683,2.2044 l 18.672,10.9459 C 29.7913,37.7022 30.8858,38 32,38 c 1.1142,0 2.2087,-0.2978 3.1735,-0.8635 l 18.672,-10.9459 c 0.9039,-0.531 1.6647,-1.2804 2.215,-2.1815 0.5502,-0.9011 0.873,-1.9262 0.9395,-2.9843 -0.0582,-1.0672 -0.377,-2.103 -0.9277,-3.0139 -0.5506,-0.911 -1.3159,-1.6686 -2.2268,-2.2045 L 35.1735,4.86051 C 34.2524,4.32094 33.2125,4.02505 32.1493,4 Z"
         stroke="url(#paint3_linear)"
         stroke-width="4"
         id="path4"
         style="stroke:url(#paint3_linear)" /></g><g
       id="g11"
       transform="matrix(0.74999965,0,0,0.74999965,3.7743922e-7,1.908614e-5)"><path
         d="M 8.24717,5.28688 C 10.8404,4.80099 13.5052,5.09747 16.1297,5.01923 18.8839,5.09747 21.902,4.61569 24.37,6.03631 c 2.3518,1.37121 3.8988,3.59891 6.0002,5.24599 0.7735,0.5518 1.7751,0.7577 2.7453,0.7412 9.4028,0 18.8055,0.0124 28.2083,0.0659 1.6185,-0.1277 3.018,1.4165 2.6022,2.8577 -0.2281,1.1159 -1.404,1.9436 -2.6291,1.8695 C 51.7466,16.8289 42.1963,16.7836 32.646,16.7754 30.4597,16.763 28.2778,16.0177 26.6547,14.663 24.6696,13.1765 23.3506,10.8953 21.0033,9.87817 17.7483,9.63934 14.462,9.84523 11.1981,9.77522 8.9536,9.63934 6.7091,10.8252 5.75228,12.7029 c -0.65725,1.1901 -0.541,2.5572 -0.54994,3.846 0.02235,10.8503 -0.00895,21.7005 0.01341,32.5549 -0.03577,2.0342 1.4084,3.9777 3.4517,4.7354 1.21614,0.4777 2.56645,0.3871 3.85855,0.3953 13.5833,-0.0206 27.1665,0.0083 40.7453,-0.0165 2.1014,0.0083 4.1134,-1.2023 4.9898,-2.9524 0.7019,-1.3135 0.5007,-2.8124 0.5275,-4.2248 0.009,-6.0284 -0.0312,-12.0567 0.0179,-18.0851 -0.0357,-1.3548 1.3995,-2.4954 2.8481,-2.3183 1.4219,0.0865 2.486,1.3712 2.325,2.6601 0,6.7366 0.0313,13.4732 -0.0134,20.214 C 63.9036,54.498 59.1016,58.8917 53.696,58.974 39.384,59.0234 25.0675,58.9864 10.7555,58.9905 6.61521,59.0317 2.60462,56.6516 0.945834,53.1557 0.163389,51.6362 -0.0243975,49.9356 0.00242916,48.272 0.0381981,37.01 -0.0243977,25.7397 0.0337268,14.4777 0.114207,10.1664 3.70004,6.22985 8.24717,5.28688 Z"
         id="path111"
         style="fill:url(#linearGradient30);fill-opacity:1;stroke:url(#linearGradient30);stroke-width:0;stroke-dasharray:none" /></g><rect
       style="fill:none;fill-opacity:1;fill-rule:evenodd;stroke:none;stroke-width:3.9;stroke-linejoin:round;stroke-dasharray:none;stroke-opacity:0.50196809;paint-order:fill markers stroke"
       id="rect1"
       width="44.075188"
       height="31.645638"
       x="1.9758538"
       y="10.78429" /></g><defs
     id="defs1"><linearGradient
       inkscape:collect="always"
       xlink:href="#paint0_linear-3"
       id="linearGradient30"
       gradientUnits="userSpaceOnUse"
       gradientTransform="matrix(1.421128,-0.01199146,0.01198687,1.4216711,-101.30678,-100.47471)"
       x1="92.850746"
       y1="112.95728"
       x2="93.171104"
       y2="74.976532" /><linearGradient
       id="paint1_linear"
       x1="4.5768099"
       y1="45.678902"
       x2="42.3731"
       y2="4.1876402"
       gradientUnits="userSpaceOnUse"
       gradientTransform="matrix(1.4285714,0,0,1.4285714,-8.757358,-11.86756)"><stop
         stop-color="#FF5508"
         id="stop4-7" /><stop
         offset="1"
         stop-color="#FFA208"
         id="stop5-8" /></linearGradient><linearGradient
       id="paint0_linear"
       x1="4.5768099"
       y1="45.678799"
       x2="42.3731"
       y2="4.1875501"
       gradientUnits="userSpaceOnUse"
       gradientTransform="matrix(1.4285714,0,0,1.4285714,-8.757358,-11.86756)"><stop
         stop-color="#FF5508"
         id="stop2-4" /><stop
         offset="1"
         stop-color="#FFA208"
         id="stop3-5" /></linearGradient><linearGradient
       id="paint0_linear-3"
       x1="32"
       y1="60"
       x2="32"
       y2="20.7231"
       gradientUnits="userSpaceOnUse"><stop
         stop-color="#FDA700"
         id="stop4" /><stop
         offset="1"
         stop-color="#FFDE00"
         id="stop5-6" /></linearGradient><linearGradient
       id="paint1_linear-7"
       x1="44.5"
       y1="37.9844"
       x2="44.5"
       y2="4"
       gradientUnits="userSpaceOnUse"><stop
         stop-color="#FDA700"
         id="stop6-5" /><stop
         offset="1"
         stop-color="#FFDE00"
         id="stop7" /></linearGradient><linearGradient
       id="paint2_linear"
       x1="18.5"
       y1="60"
       x2="18.5"
       y2="21"
       gradientUnits="userSpaceOnUse"><stop
         stop-color="#FDA700"
         id="stop8" /><stop
         offset="1"
         stop-color="#FFDE00"
         id="stop9" /></linearGradient><linearGradient
       id="paint3_linear"
       x1="32"
       y1="38"
       x2="32"
       y2="4"
       gradientUnits="userSpaceOnUse"><stop
         stop-color="#FDA700"
         id="stop10" /><stop
         offset="1"
         stop-color="#FFDE00"
         id="stop11" /></linearGradient></defs><metadata
     id="metadata1"><rdf:RDF><cc:Work
         rdf:about=""><dc:title>folder-blender</dc:title><dc:date>23-07-2025</dc:date><dc:description>Beautyline style Blender folder icon</dc:description><cc:license
           rdf:resource="http://creativecommons.org/licenses/by-nc-sa/4.0/" /></cc:Work><cc:License
         rdf:about="http://creativecommons.org/licenses/by-nc-sa/4.0/"><cc:permits
           rdf:resource="http://creativecommons.org/ns#Reproduction" /><cc:permits
           rdf:resource="http://creativecommons.org/ns#Distribution" /><cc:requires
           rdf:resource="http://creativecommons.org/ns#Notice" /><cc:requires
           rdf:resource="http://creativecommons.org/ns#Attribution" /><cc:prohibits
           rdf:resource="http://creativecommons.org/ns#CommercialUse" /><cc:permits
           rdf:resource="http://creativecommons.org/ns#DerivativeWorks" /><cc:requires
           rdf:resource="http://creativecommons.org/ns#ShareAlike" /></cc:License></rdf:RDF></metadata></svg>
