<?xml version="1.0" encoding="UTF-8" standalone="no"?>
<svg
   width="48"
   height="48"
   viewBox="0 0 48 48"
   fill="none"
   version="2"
   id="svg1"
   sodipodi:docname="folder-text_application-text-template-alt.svg"
   inkscape:version="1.4.2 (ebf0e940d0, 2025-05-08)"
   xml:space="preserve"
   xmlns:inkscape="http://www.inkscape.org/namespaces/inkscape"
   xmlns:sodipodi="http://sodipodi.sourceforge.net/DTD/sodipodi-0.dtd"
   xmlns:xlink="http://www.w3.org/1999/xlink"
   xmlns="http://www.w3.org/2000/svg"
   xmlns:svg="http://www.w3.org/2000/svg"
   xmlns:rdf="http://www.w3.org/1999/02/22-rdf-syntax-ns#"
   xmlns:cc="http://creativecommons.org/ns#"
   xmlns:dc="http://purl.org/dc/elements/1.1/"><title
     id="title1">folder-</title><sodipodi:namedview
     id="namedview1"
     pagecolor="#3f4354"
     bordercolor="#000000"
     borderopacity="0.5"
     inkscape:showpageshadow="1"
     inkscape:pageopacity="0"
     inkscape:pagecheckerboard="1"
     inkscape:deskcolor="#2b2f40"
     showgrid="false"
     inkscape:zoom="10.933098"
     inkscape:cx="21.951693"
     inkscape:cy="25.838972"
     inkscape:window-width="1920"
     inkscape:window-height="1048"
     inkscape:window-x="0"
     inkscape:window-y="0"
     inkscape:window-maximized="1"
     inkscape:current-layer="g22" /><g
     id="g1"><g
       id="g11"
       transform="matrix(0.74999965,0,0,0.74999965,3.7743922e-7,1.908614e-5)"
       style="fill:url(#linearGradient3)"><path
         d="M 8.24717,5.28688 C 10.8404,4.80099 13.5052,5.09747 16.1297,5.01923 18.8839,5.09747 21.902,4.61569 24.37,6.03631 c 2.3518,1.37121 3.8988,3.59891 6.0002,5.24599 0.7735,0.5518 1.7751,0.7577 2.7453,0.7412 9.4028,0 18.8055,0.0124 28.2083,0.0659 1.6185,-0.1277 3.018,1.4165 2.6022,2.8577 -0.2281,1.1159 -1.404,1.9436 -2.6291,1.8695 C 51.7466,16.8289 42.1963,16.7836 32.646,16.7754 30.4597,16.763 28.2778,16.0177 26.6547,14.663 24.6696,13.1765 23.3506,10.8953 21.0033,9.87817 17.7483,9.63934 14.462,9.84523 11.1981,9.77522 8.9536,9.63934 6.7091,10.8252 5.75228,12.7029 c -0.65725,1.1901 -0.541,2.5572 -0.54994,3.846 0.02235,10.8503 -0.00895,21.7005 0.01341,32.5549 -0.03577,2.0342 1.4084,3.9777 3.4517,4.7354 1.21614,0.4777 2.56645,0.3871 3.85855,0.3953 13.5833,-0.0206 27.1665,0.0083 40.7453,-0.0165 2.1014,0.0083 4.1134,-1.2023 4.9898,-2.9524 0.7019,-1.3135 0.5007,-2.8124 0.5275,-4.2248 0.009,-6.0284 -0.0312,-12.0567 0.0179,-18.0851 -0.0357,-1.3548 1.3995,-2.4954 2.8481,-2.3183 1.4219,0.0865 2.486,1.3712 2.325,2.6601 0,6.7366 0.0313,13.4732 -0.0134,20.214 C 63.9036,54.498 59.1016,58.8917 53.696,58.974 39.384,59.0234 25.0675,58.9864 10.7555,58.9905 6.61521,59.0317 2.60462,56.6516 0.945834,53.1557 0.163389,51.6362 -0.0243975,49.9356 0.00242916,48.272 0.0381981,37.01 -0.0243977,25.7397 0.0337268,14.4777 0.114207,10.1664 3.70004,6.22985 8.24717,5.28688 Z"
         id="path111"
         style="fill:url(#linearGradient12);fill-opacity:1;stroke:url(#linearGradient30);stroke-width:0;stroke-dasharray:none" /></g><g
       id="g22"
       transform="matrix(0.44681705,0,0,0.44681705,29.8299,16.656289)"><path
         style="fill:url(#linearGradient22)"
         d="m -19.89204,34.747102 c 1.875633,-6.72393 2.201378,-7.047291 3.685061,-8.520108 L 3.061452,7.0996603 C 4.076247,6.0922978 6.343731,6.1006306 7.351094,7.1154213 l 3.297475,3.3217977 c 1.007362,1.014793 0.999029,3.282279 -0.01576,4.289642 L -8.635626,33.854193 c -1.487269,1.476378 -1.809428,1.796179 -8.566314,3.602847 -2.463643,0.658734 -3.365457,-0.288852 -2.690097,-2.709941 z m 8.621801,-3.91377 L 6.620956,13.298078 C 7.278089,12.654071 5.333103,10.694734 4.676337,11.339112 L -13.20556,28.883734 c -0.898792,0.881783 -1.565105,3.437842 -1.565105,3.437842 0,0 2.594933,-0.600763 3.500426,-1.488244 z"
         id="path20"
         sodipodi:nodetypes="ssssssssssssscs" /><path
         style="opacity:1;fill:url(#linearGradient15);fill-opacity:0.913201;fill-rule:evenodd;stroke:none;stroke-width:0.453;stroke-linejoin:round;paint-order:fill markers stroke"
         d="m 1.659296,-4.5861734 c 1.622436,0 3.43883,1.8221439 3.43883,3.4445797 v 3.0872345 c 0,2.3536502 -3.864654,2.3536502 -3.864654,0 V 0 c 0,-0.29409217 -0.307277,-0.64557506 -0.601369,-0.64557506 h -32.466477 c -0.781208,0 -1.562294,0.96573414 -1.562294,1.74694166 V 42.394377 c 0,0.99731 0.794731,2.39588 1.792041,2.39588 h 23.397478 c 1.365104,0 0.778933,0.01176 5.109777,-4.726765 4.330844,-4.738521 4.330844,-5.036425 4.330844,-6.069392 v -6.23742 c 0,-2.254427 3.864654,-2.252358 3.864654,0 v 6.653776 c 0,2.652566 -2.0075812,4.651213 -4.67235617,8.019472 -2.74204603,3.465928 -4.70950583,6.697158 -7.80020683,6.697158 h -24.23019 c -2.959624,0 -5.829445,-3.737534 -5.829445,-6.697158 V 1.1013666 c 0,-2.6605081 2.93919,-5.68754 5.599698,-5.68754 z"
         id="path4"
         sodipodi:nodetypes="ssssssssssszsssssssssss" /><path
         style="fill:url(#linearGradient18);fill-rule:nonzero;stroke:none"
         d="M -27.547085,4.8918635 H -7.09955 c 2.76084,0 2.76084,3.9546373 0,3.9546373 h -20.447535 c -2.355473,0 -2.355473,-3.9546373 0,-3.9546373 z"
         id="path15"
         sodipodi:nodetypes="sssss" /><path
         style="fill:url(#linearGradient19);fill-rule:nonzero;stroke:none"
         d="m -27.547085,14.152801 h 13.205169 c 2.76084,0 2.76084,3.954638 0,3.954638 h -13.205169 c -2.355473,0 -2.355473,-3.954638 0,-3.954638 z"
         id="path18"
         sodipodi:nodetypes="sssss" /><path
         style="fill:url(#linearGradient20);fill-rule:nonzero;stroke:none"
         d="m -27.547085,23.618579 h 7.06271 c 2.76084,0 2.76084,3.954638 0,3.954638 h -7.06271 c -2.355473,0 -2.355473,-3.954638 0,-3.954638 z"
         id="path19"
         sodipodi:nodetypes="sssss" /></g></g><defs
     id="defs1"><linearGradient
       id="linearGradient21"
       inkscape:collect="always"><stop
         style="stop-color:#ff4975;stop-opacity:1;"
         offset="0"
         id="stop21" /><stop
         style="stop-color:#ff4b89;stop-opacity:1;"
         offset="1"
         id="stop22" /></linearGradient><linearGradient
       id="linearGradient13"
       inkscape:collect="always"><stop
         style="stop-color:#a751ec;stop-opacity:1;"
         offset="0"
         id="stop13" /><stop
         style="stop-color:#d960f2;stop-opacity:1;"
         offset="1"
         id="stop15" /></linearGradient><linearGradient
       inkscape:collect="always"
       xlink:href="#linearGradient13"
       id="linearGradient12"
       gradientUnits="userSpaceOnUse"
       x1="12.526"
       y1="54.234501"
       x2="61.296902"
       y2="16.816601" /><linearGradient
       inkscape:collect="always"
       xlink:href="#linearGradient13"
       id="linearGradient15"
       x1="8.3953733"
       y1="44.790257"
       x2="40.632103"
       y2="-0.64557505"
       gradientUnits="userSpaceOnUse"
       gradientTransform="translate(-40)" /><linearGradient
       inkscape:collect="always"
       xlink:href="#linearGradient13"
       id="linearGradient18"
       x1="-51.604626"
       y1="44.790257"
       x2="-19.367897"
       y2="-0.64557505"
       gradientUnits="userSpaceOnUse"
       gradientTransform="translate(20)" /><linearGradient
       inkscape:collect="always"
       xlink:href="#linearGradient13"
       id="linearGradient19"
       gradientUnits="userSpaceOnUse"
       x1="-51.604626"
       y1="35.52932"
       x2="-19.367897"
       y2="-9.9065123"
       gradientTransform="translate(20,9.2609374)" /><linearGradient
       inkscape:collect="always"
       xlink:href="#linearGradient13"
       id="linearGradient20"
       gradientUnits="userSpaceOnUse"
       gradientTransform="translate(20,18.726715)"
       x1="-51.604626"
       y1="26.063541"
       x2="-19.367897"
       y2="-19.37229" /><linearGradient
       inkscape:collect="always"
       xlink:href="#linearGradient21"
       id="linearGradient22"
       x1="-18.533745"
       y1="36.396461"
       x2="8.9998312"
       y2="8.7763205"
       gradientUnits="userSpaceOnUse" /></defs><metadata
     id="metadata1"><rdf:RDF><cc:Work
         rdf:about=""><dc:title>folder-</dc:title><dc:date>26-07-2025</dc:date><dc:description>Beautyline style * folder icon</dc:description><cc:license
           rdf:resource="http://creativecommons.org/licenses/by-nc-sa/4.0/" /></cc:Work><cc:License
         rdf:about="http://creativecommons.org/licenses/by-nc-sa/4.0/"><cc:permits
           rdf:resource="http://creativecommons.org/ns#Reproduction" /><cc:permits
           rdf:resource="http://creativecommons.org/ns#Distribution" /><cc:requires
           rdf:resource="http://creativecommons.org/ns#Notice" /><cc:requires
           rdf:resource="http://creativecommons.org/ns#Attribution" /><cc:prohibits
           rdf:resource="http://creativecommons.org/ns#CommercialUse" /><cc:permits
           rdf:resource="http://creativecommons.org/ns#DerivativeWorks" /><cc:requires
           rdf:resource="http://creativecommons.org/ns#ShareAlike" /></cc:License></rdf:RDF></metadata></svg>
