<?xml version="1.0" encoding="UTF-8" standalone="no"?>
<svg
   width="48"
   height="48"
   viewBox="0 0 48 48"
   fill="none"
   version="1.1"
   id="svg282"
   sodipodi:docname="folder-config.svg"
   inkscape:version="1.4.2 (ebf0e940d0, 2025-05-08)"
   xmlns:inkscape="http://www.inkscape.org/namespaces/inkscape"
   xmlns:sodipodi="http://sodipodi.sourceforge.net/DTD/sodipodi-0.dtd"
   xmlns:xlink="http://www.w3.org/1999/xlink"
   xmlns="http://www.w3.org/2000/svg"
   xmlns:svg="http://www.w3.org/2000/svg">
  <sodipodi:namedview
     id="namedview284"
     pagecolor="#3f4354"
     bordercolor="#000000"
     borderopacity="0.5"
     inkscape:showpageshadow="1"
     inkscape:pageopacity="0"
     inkscape:pagecheckerboard="1"
     inkscape:deskcolor="#2b2f40"
     showgrid="false"
     inkscape:zoom="17.6875"
     inkscape:cx="23.971731"
     inkscape:cy="24"
     inkscape:window-width="1920"
     inkscape:window-height="1048"
     inkscape:window-x="0"
     inkscape:window-y="0"
     inkscape:window-maximized="1"
     inkscape:current-layer="g12" />
  <g
     id="g1">
    <g
       id="g12"
       transform="matrix(0.7,0,0,0.7,-1.3713734,1.9476039)"
       style="fill:url(#linearGradient1831);fill-opacity:1;stroke:url(#linearGradient1823);stroke-width:2;stroke-dasharray:none">
      <path
         fill-rule="evenodd"
         clip-rule="evenodd"
         d="m 36.26403,31.748181 c -1.921788,0 -3.479697,1.557904 -3.479697,3.479683 0,1.92178 1.557909,3.479684 3.479697,3.479684 1.921788,0 3.479698,-1.557904 3.479698,-3.479684 0,-1.921779 -1.55791,-3.479683 -3.479698,-3.479683 z m -7.142857,3.479683 c 0,-3.944737 3.198103,-7.142827 7.142857,-7.142827 3.944754,0 7.142857,3.19809 7.142857,7.142827 0,3.944738 -3.198103,7.142828 -7.142857,7.142828 -3.944754,0 -7.142857,-3.19809 -7.142857,-7.142828 z"
         style="fill:url(#linearGradient20);fill-opacity:1;stroke:url(#linearGradient20);stroke-width:0;stroke-dasharray:none"
         id="path121" />
      <path
         d="m 33.21979,19.558052 c 1.741819,-0.106927 3.48827,0.01742 5.234772,-0.0197 1.064008,-0.133129 1.982367,0.742001 2.248327,1.652031 0.356187,0.966791 0.358721,2.027405 0.756315,2.978921 0.691764,0.543402 1.501307,0.938411 2.278742,1.366148 1.022276,-0.336083 2.012276,-0.766004 3.064795,-1.016963 0.895205,-0.229156 1.975441,0.08513 2.445009,0.870754 0.765611,1.18938 1.466669,2.418049 2.146779,3.655441 0.367681,0.776904 0.874248,1.741511 0.275087,2.533713 -0.728596,0.997353 -1.910555,1.595303 -2.731753,2.514087 -0.18976,0.69616 -0.120468,1.440354 -0.115737,2.156092 0.698526,1.241723 2.336193,1.780797 2.951587,3.092431 0.340141,0.593658 0.231324,1.329152 -0.143285,1.883388 -0.84453,1.388163 -1.679415,2.782677 -2.583915,4.135584 -0.601537,0.883912 -1.901432,1.008236 -2.833644,0.543454 -0.807342,-0.384089 -1.86206,-0.447261 -2.412737,-1.20028 -0.599001,-0.752851 0.134335,-1.972843 1.126698,-1.87463 0.767976,0.07196 1.445547,0.464787 2.153368,0.724549 0.747188,-1.099879 1.406682,-2.249959 2.114501,-3.371739 -1.103548,-1.041085 -2.724995,-1.876817 -2.977268,-3.461189 -0.07857,-1.060678 -0.06472,-2.134411 0.05559,-3.188485 0.437298,-1.394533 1.899067,-2.09725 2.902922,-3.085845 -0.638204,-1.145732 -1.334532,-2.258751 -1.95905,-3.411004 -1.561459,0.375347 -3.182905,1.538532 -4.802154,0.698337 -1.269986,-0.807483 -2.991125,-1.32469 -3.541631,-2.810865 -0.259033,-0.931874 -0.439495,-1.885545 -0.693794,-2.81961 -1.307025,0.0087 -2.61395,0.01306 -3.920906,-0.0021 -0.131851,1.027897 -0.335409,2.077608 -0.858181,3.000755 -0.506579,0.905676 -1.498925,1.398879 -2.38256,1.927019 -0.629194,0.355721 -1.263008,0.79874 -2.024036,0.833662 -1.293083,0.08077 -2.419579,-0.683072 -3.624747,-0.944964 -0.70784,1.093359 -1.357836,2.217261 -2.07493,3.304065 0.758731,0.661257 1.572968,1.270144 2.26923,1.990328 0.698574,0.728895 0.823497,1.75243 0.767975,2.695202 -0.05315,0.962367 0.120309,2.04927 -0.562101,2.863272 -0.680055,0.846848 -1.630773,1.455499 -2.458901,2.167075 0.636125,1.174003 1.36015,2.304541 1.991644,3.483092 1.350891,-0.364384 2.632399,-1.265814 4.101265,-0.97572 0.867428,0.211755 1.568338,0.774746 2.336309,1.18074 0.83506,0.425527 1.637719,1.043106 1.90373,1.940159 0.24056,0.907833 0.471885,1.820044 0.638441,2.745401 1.320813,0.01099 2.643957,0 3.967049,0.0044 0.185028,-0.783515 0.04178,-1.86149 0.888275,-2.326442 0.828131,-0.510775 2.068037,0.209567 1.954658,1.139132 0,1.464426 -0.416337,3.391447 -2.172121,3.793053 -1.945364,0.06315 -3.895339,-0.0391 -5.843034,0.01336 -0.356227,-0.251236 -0.814238,-0.456423 -0.985405,-0.873191 -0.483459,-1.239532 -0.673131,-2.553355 -0.996979,-3.834496 -0.76566,-0.473543 -1.533633,-0.949275 -2.340925,-1.357455 -1.040946,0.362359 -2.061057,0.787889 -3.138974,1.049847 -0.91834,0.213776 -1.956955,-0.187666 -2.410337,-0.977914 -0.74947,-1.1959 -1.454991,-2.417914 -2.130441,-3.653065 -0.393228,-0.801031 -0.76566,-1.809268 -0.13648,-2.596988 0.807312,-0.916594 1.908362,-1.560282 2.738802,-2.461713 -0.02313,-0.72893 0.09484,-1.462205 -0.01387,-2.184563 -0.876673,-1.204662 -2.576872,-1.811355 -3.032563,-3.288805 -0.261385,-0.744191 0.173492,-1.470913 0.559786,-2.097249 0.758719,-1.18502 1.452665,-2.407132 2.248418,-3.570336 0.508889,-0.735448 1.53363,-1.051884 2.40569,-0.739811 0.964585,0.364452 1.931507,0.71363 2.907669,1.045348 0.714768,-0.44083 1.48505,-0.80747 2.141994,-1.326878 0.693943,-0.755076 0.492721,-1.846262 0.818865,-2.74321 0.249805,-0.715809 0.594471,-1.647678 1.508185,-1.765528 z"
         style="fill:url(#linearGradient35);stroke:url(#linearGradient36);stroke-width:0;stroke-dasharray:none"
         id="path122"
         inkscape:label="path122" />
    </g>
    <g
       id="g11"
       transform="matrix(0.74999965,0,0,0.74999965,3.7743922e-7,1.908614e-5)">
      <path
         d="M 8.24717,5.28688 C 10.8404,4.80099 13.5052,5.09747 16.1297,5.01923 18.8839,5.09747 21.902,4.61569 24.37,6.03631 c 2.3518,1.37121 3.8988,3.59891 6.0002,5.24599 0.7735,0.5518 1.7751,0.7577 2.7453,0.7412 9.4028,0 18.8055,0.0124 28.2083,0.0659 1.6185,-0.1277 3.018,1.4165 2.6022,2.8577 -0.2281,1.1159 -1.404,1.9436 -2.6291,1.8695 C 51.7466,16.8289 42.1963,16.7836 32.646,16.7754 30.4597,16.763 28.2778,16.0177 26.6547,14.663 24.6696,13.1765 23.3506,10.8953 21.0033,9.87817 17.7483,9.63934 14.462,9.84523 11.1981,9.77522 8.9536,9.63934 6.7091,10.8252 5.75228,12.7029 c -0.65725,1.1901 -0.541,2.5572 -0.54994,3.846 0.02235,10.8503 -0.00895,21.7005 0.01341,32.5549 -0.03577,2.0342 1.4084,3.9777 3.4517,4.7354 1.21614,0.4777 2.56645,0.3871 3.85855,0.3953 13.5833,-0.0206 27.1665,0.0083 40.7453,-0.0165 2.1014,0.0083 4.1134,-1.2023 4.9898,-2.9524 0.7019,-1.3135 0.5007,-2.8124 0.5275,-4.2248 0.009,-6.0284 -0.0312,-12.0567 0.0179,-18.0851 -0.0357,-1.3548 1.3995,-2.4954 2.8481,-2.3183 1.4219,0.0865 2.486,1.3712 2.325,2.6601 0,6.7366 0.0313,13.4732 -0.0134,20.214 C 63.9036,54.498 59.1016,58.8917 53.696,58.974 39.384,59.0234 25.0675,58.9864 10.7555,58.9905 6.61521,59.0317 2.60462,56.6516 0.945834,53.1557 0.163389,51.6362 -0.0243975,49.9356 0.00242916,48.272 0.0381981,37.01 -0.0243977,25.7397 0.0337268,14.4777 0.114207,10.1664 3.70004,6.22985 8.24717,5.28688 Z"
         id="path111"
         style="fill:url(#linearGradient30);fill-opacity:1;stroke:url(#linearGradient30);stroke-width:0;stroke-dasharray:none" />
    </g>
    <rect
       style="fill:none;fill-opacity:1;fill-rule:evenodd;stroke:#000000;stroke-width:3.9;stroke-linejoin:round;stroke-dasharray:none;stroke-opacity:0;paint-order:fill markers stroke"
       id="rect1"
       width="44.075188"
       height="31.645638"
       x="1.9758538"
       y="10.78429" />
  </g>
  <defs
     id="defs1">
    <linearGradient
       id="linearGradient18"
       inkscape:collect="always"
       inkscape:label="1">
      <stop
         style="stop-color:#0072ff;stop-opacity:1;"
         offset="0"
         id="stop18" />
      <stop
         style="stop-color:#00e5a1;stop-opacity:1;"
         offset="1"
         id="stop19" />
    </linearGradient>
    <linearGradient
       inkscape:collect="always"
       xlink:href="#linearGradient18"
       id="linearGradient20"
       gradientUnits="userSpaceOnUse"
       x1="85.95649"
       y1="103.59542"
       x2="105.96986"
       y2="88.83329"
       gradientTransform="matrix(1.421128,-0.01199146,0.01198687,1.4216711,-101.30678,-100.47471)" />
    <linearGradient
       inkscape:collect="always"
       xlink:href="#linearGradient18"
       id="linearGradient30"
       gradientUnits="userSpaceOnUse"
       gradientTransform="matrix(1.421128,-0.01199146,0.01198687,1.4216711,-101.30678,-100.47471)"
       x1="76.464188"
       y1="109.18899"
       x2="115.57574"
       y2="82.162277" />
    <linearGradient
       inkscape:collect="always"
       xlink:href="#linearGradient18"
       id="linearGradient35"
       gradientUnits="userSpaceOnUse"
       gradientTransform="matrix(1.309477,-0.01104512,0.01104512,1.3094767,-90.498522,-89.765437)"
       x1="85.95649"
       y1="103.59542"
       x2="105.96986"
       y2="88.83329" />
    <linearGradient
       inkscape:collect="always"
       xlink:href="#linearGradient18"
       id="linearGradient36"
       gradientUnits="userSpaceOnUse"
       gradientTransform="matrix(1.309477,-0.01104512,0.01104512,1.3094767,-90.498522,-89.765437)"
       x1="85.95649"
       y1="103.59542"
       x2="105.96986"
       y2="88.83329" />
  </defs>
</svg>
