<?xml version="1.0" encoding="UTF-8" standalone="no"?>
<svg
   width="48"
   height="48"
   viewBox="0 0 48 48"
   fill="none"
   version="2"
   id="svg1"
   sodipodi:docname="folder-presentation_draw-alt.svg"
   inkscape:version="1.4.2 (ebf0e940d0, 2025-05-08)"
   xml:space="preserve"
   xmlns:inkscape="http://www.inkscape.org/namespaces/inkscape"
   xmlns:sodipodi="http://sodipodi.sourceforge.net/DTD/sodipodi-0.dtd"
   xmlns:xlink="http://www.w3.org/1999/xlink"
   xmlns="http://www.w3.org/2000/svg"
   xmlns:svg="http://www.w3.org/2000/svg"
   xmlns:rdf="http://www.w3.org/1999/02/22-rdf-syntax-ns#"
   xmlns:cc="http://creativecommons.org/ns#"
   xmlns:dc="http://purl.org/dc/elements/1.1/"><title
     id="title1">folder-</title><sodipodi:namedview
     id="namedview1"
     pagecolor="#3f4354"
     bordercolor="#000000"
     borderopacity="0.5"
     inkscape:showpageshadow="1"
     inkscape:pageopacity="0"
     inkscape:pagecheckerboard="1"
     inkscape:deskcolor="#2b2f40"
     showgrid="false"
     inkscape:zoom="17.3125"
     inkscape:cx="24.115523"
     inkscape:cy="24"
     inkscape:window-width="1920"
     inkscape:window-height="1048"
     inkscape:window-x="0"
     inkscape:window-y="0"
     inkscape:window-maximized="1"
     inkscape:current-layer="g11" /><g
     id="g1"><g
       id="g11"
       transform="matrix(0.74999965,0,0,0.74999965,3.7743922e-7,1.908614e-5)"
       style="fill:url(#linearGradient3)"><path
         d="M 8.24717,5.28688 C 10.8404,4.80099 13.5052,5.09747 16.1297,5.01923 18.8839,5.09747 21.902,4.61569 24.37,6.03631 c 2.3518,1.37121 3.8988,3.59891 6.0002,5.24599 0.7735,0.5518 1.7751,0.7577 2.7453,0.7412 9.4028,0 18.8055,0.0124 28.2083,0.0659 1.6185,-0.1277 3.018,1.4165 2.6022,2.8577 -0.2281,1.1159 -1.404,1.9436 -2.6291,1.8695 C 51.7466,16.8289 42.1963,16.7836 32.646,16.7754 30.4597,16.763 28.2778,16.0177 26.6547,14.663 24.6696,13.1765 23.3506,10.8953 21.0033,9.87817 17.7483,9.63934 14.462,9.84523 11.1981,9.77522 8.9536,9.63934 6.7091,10.8252 5.75228,12.7029 c -0.65725,1.1901 -0.541,2.5572 -0.54994,3.846 0.02235,10.8503 -0.00895,21.7005 0.01341,32.5549 -0.03577,2.0342 1.4084,3.9777 3.4517,4.7354 1.21614,0.4777 2.56645,0.3871 3.85855,0.3953 13.5833,-0.0206 27.1665,0.0083 40.7453,-0.0165 2.1014,0.0083 4.1134,-1.2023 4.9898,-2.9524 0.7019,-1.3135 0.5007,-2.8124 0.5275,-4.2248 0.009,-6.0284 -0.0312,-12.0567 0.0179,-18.0851 -0.0357,-1.3548 1.3995,-2.4954 2.8481,-2.3183 1.4219,0.0865 2.486,1.3712 2.325,2.6601 0,6.7366 0.0313,13.4732 -0.0134,20.214 C 63.9036,54.498 59.1016,58.8917 53.696,58.974 39.384,59.0234 25.0675,58.9864 10.7555,58.9905 6.61521,59.0317 2.60462,56.6516 0.945834,53.1557 0.163389,51.6362 -0.0243975,49.9356 0.00242916,48.272 0.0381981,37.01 -0.0243977,25.7397 0.0337268,14.4777 0.114207,10.1664 3.70004,6.22985 8.24717,5.28688 Z"
         id="path111"
         style="fill:url(#linearGradient2);fill-opacity:1;stroke:url(#linearGradient30);stroke-width:0;stroke-dasharray:none" /></g><g
       style="fill:none"
       id="g2"
       transform="matrix(0.21052632,0,0,0.21052632,10.539763,13.133425)"><path
         d="m 83.6875,86.9688 h 13.125 c 1.8139,0 3.2815,-1.4676 3.2815,-3.2813 v -39.375 c 0,-1.8137 -1.4676,-3.2813 -3.2815,-3.2813 h -13.125 c -1.8137,0 -3.2813,1.4676 -3.2813,3.2813 v 39.375 c 0,1.8137 1.4676,3.2813 3.2813,3.2813 z m 3.2813,-39.375 h 6.5624 V 80.4062 H 86.9688 Z M 116.719,14.7812 H 67.2812 v -3.5 C 67.2812,9.46759 65.8137,8 64,8 62.1863,8 60.7188,9.46759 60.7188,11.2812 v 3.5 H 11.2812 C 9.46759,14.7812 8,16.2488 8,18.0625 v 13.125 c 0,1.8137 1.46759,3.2813 3.2812,3.2813 h 3.2813 v 62.5624 c 0,1.8139 1.4676,3.2808 3.2813,3.2808 H 46.3237 L 41.949,113.438 H 37.75 c -1.8137,0 -3.2812,1.467 -3.2812,3.281 0,1.814 1.4675,3.281 3.2812,3.281 h 6.5625 c 1.2064,0 2.5875,-0.878 3.0572,-2.17 0.3129,-0.86 5.6978,-16.926 5.8717,-17.518 h 7.4774 v 16.407 c 0,1.814 1.4675,3.281 3.2812,3.281 1.8137,0 3.2812,-1.467 3.2812,-3.281 v -16.407 h 7.4802 c 0.6,1.792 -2.1718,-6.4889 5.8688,17.518 0.4673,1.285 1.8466,2.17 3.0573,2.17 H 90.25 c 1.8137,0 3.2812,-1.467 3.2812,-3.281 0,-1.814 -1.4675,-3.281 -3.2812,-3.281 h -4.1989 l -4.3748,-13.126 h 28.4797 c 1.814,0 3.282,-1.4669 3.282,-3.2808 V 34.4688 h 3.281 c 1.814,0 3.281,-1.4676 3.281,-3.2813 v -13.125 c 0,-1.8137 -1.467,-3.2813 -3.281,-3.2813 z M 106.875,93.75 H 21.125 V 34.4688 h 85.75 z m 6.563,-65.8438 H 14.5625 V 21.3438 H 113.438 Z M 57.4375,86.9688 h 13.125 c 1.8137,0 3.2813,-1.4676 3.2813,-3.2813 v -26.25 c 0,-1.8137 -1.4676,-3.2813 -3.2813,-3.2813 h -13.125 c -1.8137,0 -3.2813,1.4676 -3.2813,3.2813 v 26.25 c 0,1.8137 1.4676,3.2813 3.2813,3.2813 z m 3.2813,-26.25 h 6.5624 v 19.6874 h -6.5624 z m -29.5313,26.25 h 13.125 c 1.8137,0 3.2813,-1.4676 3.2813,-3.2813 v -13.125 c 0,-1.8137 -1.4676,-3.2813 -3.2813,-3.2813 h -13.125 c -1.8137,0 -3.2813,1.4676 -3.2813,3.2813 v 13.125 c 0,1.8137 1.4676,3.2813 3.2813,3.2813 z m 3.2813,-13.125 h 6.5624 v 6.5624 h -6.5624 z"
         fill="url(#paint0_linear_618_150)"
         stroke="url(#paint1_linear_618_150)"
         stroke-width="2"
         id="path1"
         style="fill:url(#paint0_linear_618_150);stroke:url(#paint0_linear_618_150)" /></g></g><defs
     id="defs1"><linearGradient
       id="paint0_linear"
       x1="94.0831"
       y1="102.397"
       x2="94.0831"
       y2="5"
       gradientUnits="userSpaceOnUse"
       gradientTransform="matrix(1.0455138,0,0,1.0223426,-7.6008048,-2.552391)"><stop
         stop-color="#FD2E00"
         id="stop14" /><stop
         offset="1"
         stop-color="#FF9900"
         id="stop16" /></linearGradient><linearGradient
       inkscape:collect="always"
       xlink:href="#paint0_linear"
       id="linearGradient3"
       x1="32.000015"
       y1="58.999977"
       x2="32.000015"
       y2="5.000001"
       gradientUnits="userSpaceOnUse" /><linearGradient
       id="paint0_linear_618_150"
       x1="64"
       y1="120"
       x2="64"
       y2="8"
       gradientUnits="userSpaceOnUse"><stop
         stop-color="#FF00B8"
         id="stop1" /><stop
         offset="1"
         stop-color="#FAFF00"
         id="stop2" /></linearGradient><linearGradient
       inkscape:collect="always"
       xlink:href="#paint0_linear_618_150"
       id="linearGradient2"
       gradientUnits="userSpaceOnUse"
       x1="32.000015"
       y1="58.999977"
       x2="32.000015"
       y2="5.000001" /></defs><metadata
     id="metadata1"><rdf:RDF><cc:Work
         rdf:about=""><dc:title>folder-</dc:title><dc:date>26-07-2025</dc:date><dc:description>Beautyline style * folder icon</dc:description><cc:license
           rdf:resource="http://creativecommons.org/licenses/by-nc-sa/4.0/" /></cc:Work><cc:License
         rdf:about="http://creativecommons.org/licenses/by-nc-sa/4.0/"><cc:permits
           rdf:resource="http://creativecommons.org/ns#Reproduction" /><cc:permits
           rdf:resource="http://creativecommons.org/ns#Distribution" /><cc:requires
           rdf:resource="http://creativecommons.org/ns#Notice" /><cc:requires
           rdf:resource="http://creativecommons.org/ns#Attribution" /><cc:prohibits
           rdf:resource="http://creativecommons.org/ns#CommercialUse" /><cc:permits
           rdf:resource="http://creativecommons.org/ns#DerivativeWorks" /><cc:requires
           rdf:resource="http://creativecommons.org/ns#ShareAlike" /></cc:License></rdf:RDF></metadata></svg>
