<?xml version="1.0" encoding="UTF-8" standalone="no"?>
<svg
   width="48"
   height="48"
   viewBox="0 0 48 48"
   fill="none"
   version="2"
   id="svg1"
   sodipodi:docname="folder-notes_standard-notes_alt.svg"
   inkscape:version="1.4.2 (ebf0e940d0, 2025-05-08)"
   xml:space="preserve"
   xmlns:inkscape="http://www.inkscape.org/namespaces/inkscape"
   xmlns:sodipodi="http://sodipodi.sourceforge.net/DTD/sodipodi-0.dtd"
   xmlns:xlink="http://www.w3.org/1999/xlink"
   xmlns="http://www.w3.org/2000/svg"
   xmlns:svg="http://www.w3.org/2000/svg"
   xmlns:rdf="http://www.w3.org/1999/02/22-rdf-syntax-ns#"
   xmlns:cc="http://creativecommons.org/ns#"
   xmlns:dc="http://purl.org/dc/elements/1.1/"><title
     id="title1">folder-notes_standard-notes_alt</title><sodipodi:namedview
     id="namedview1"
     pagecolor="#3f4354"
     bordercolor="#000000"
     borderopacity="0.5"
     inkscape:showpageshadow="1"
     inkscape:pageopacity="0"
     inkscape:pagecheckerboard="1"
     inkscape:deskcolor="#2b2f40"
     showgrid="false"
     inkscape:zoom="17.6875"
     inkscape:cx="24"
     inkscape:cy="24"
     inkscape:window-width="1920"
     inkscape:window-height="1048"
     inkscape:window-x="0"
     inkscape:window-y="0"
     inkscape:window-maximized="1"
     inkscape:current-layer="g1" /><g
     id="g1"><g
       id="g1-1"
       transform="matrix(0.74999965,0,0,0.74999965,3.7743922e-7,1.908614e-5)"
       style="fill:url(#linearGradient3)"><path
         d="M 8.24717,5.28688 C 10.8404,4.80099 13.5052,5.09747 16.1297,5.01923 18.8839,5.09747 21.902,4.61569 24.37,6.03631 c 2.3518,1.37121 3.8988,3.59891 6.0002,5.24599 0.7735,0.5518 1.7751,0.7577 2.7453,0.7412 9.4028,0 18.8055,0.0124 28.2083,0.0659 1.6185,-0.1277 3.018,1.4165 2.6022,2.8577 -0.2281,1.1159 -1.404,1.9436 -2.6291,1.8695 C 51.7466,16.8289 42.1963,16.7836 32.646,16.7754 30.4597,16.763 28.2778,16.0177 26.6547,14.663 24.6696,13.1765 23.3506,10.8953 21.0033,9.87817 17.7483,9.63934 14.462,9.84523 11.1981,9.77522 8.9536,9.63934 6.7091,10.8252 5.75228,12.7029 c -0.65725,1.1901 -0.541,2.5572 -0.54994,3.846 0.02235,10.8503 -0.00895,21.7005 0.01341,32.5549 -0.03577,2.0342 1.4084,3.9777 3.4517,4.7354 1.21614,0.4777 2.56645,0.3871 3.85855,0.3953 13.5833,-0.0206 27.1665,0.0083 40.7453,-0.0165 2.1014,0.0083 4.1134,-1.2023 4.9898,-2.9524 0.7019,-1.3135 0.5007,-2.8124 0.5275,-4.2248 0.009,-6.0284 -0.0312,-12.0567 0.0179,-18.0851 -0.0357,-1.3548 1.3995,-2.4954 2.8481,-2.3183 1.4219,0.0865 2.486,1.3712 2.325,2.6601 0,6.7366 0.0313,13.4732 -0.0134,20.214 C 63.9036,54.498 59.1016,58.8917 53.696,58.974 39.384,59.0234 25.0675,58.9864 10.7555,58.9905 6.61521,59.0317 2.60462,56.6516 0.945834,53.1557 0.163389,51.6362 -0.0243975,49.9356 0.00242916,48.272 0.0381981,37.01 -0.0243977,25.7397 0.0337268,14.4777 0.114207,10.1664 3.70004,6.22985 8.24717,5.28688 Z"
         id="path1-1-1"
         style="fill:url(#linearGradient2);fill-opacity:1;stroke:url(#linearGradient30);stroke-width:0;stroke-dasharray:none" /></g><g
       style="fill:none"
       id="g1-2"
       transform="matrix(0.97345133,0,0,0.97345133,12.332032,14.925693)"><path
         d="M 16.191,2 H 7.81 C 4.77,2 3,3.78 3,6.83 V 17.16 C 3,20.26 4.77,22 7.81,22 h 8.381 C 19.28,22 21,20.26 21,17.16 V 6.83 C 21,3.78 19.28,2 16.191,2 Z"
         stroke="url(#paint0_linear_1005_495)"
         stroke-width="2.6"
         id="path1-2-1"
         style="stroke:url(#paint0_linear_1005_495)" /><path
         fill-rule="evenodd"
         clip-rule="evenodd"
         d="M 16.7526,7.7171 H 6.973 C 6.43537,7.7171 6.00002,7.3321 6.00002,6.8591 6.00002,6.3861 6.43537,6 6.973,6 h 9.7796 c 0.5364,0 0.973,0.3861 0.973,0.8591 0,0.473 -0.4366,0.858 -0.973,0.858 z m 0,5.5 H 6.97297 C 6.43534,13.2171 6,12.8321 6,12.3591 6,11.8861 6.43534,11.5 6.97297,11.5 h 9.77963 c 0.5364,0 0.973,0.3861 0.973,0.8591 0,0.473 -0.4366,0.858 -0.973,0.858 z M 7.34722,18.441 H 17.1268 C 17.6245,18.397 18,18.0219 18,17.583 18,17.132 17.6245,16.758 17.1268,16.714 H 7.34722 C 6.973,16.681 6.61125,16.835 6.41166,17.121 c -0.19958,0.275 -0.19958,0.638 0,0.924 0.19959,0.275 0.56134,0.44 0.93556,0.396 z"
         fill="url(#paint1_linear_1005_495)"
         id="path1-2-2"
         style="fill:url(#paint1_linear_1005_495)" /></g></g><defs
     id="defs1"><linearGradient
       id="paint0_linear_1005_495"
       x1="12"
       y1="22"
       x2="12"
       y2="2"
       gradientUnits="userSpaceOnUse"><stop
         stop-color="#5570FF"
         id="stop2" /><stop
         offset="1"
         stop-color="#4DD3FF"
         id="stop3" /></linearGradient><linearGradient
       id="paint1_linear_1005_495"
       x1="12"
       y1="18.4481"
       x2="12"
       y2="6"
       gradientUnits="userSpaceOnUse"><stop
         stop-color="#5570FF"
         id="stop4" /><stop
         offset="1"
         stop-color="#4DD3FF"
         id="stop5" /></linearGradient><linearGradient
       inkscape:collect="always"
       xlink:href="#paint0_linear_1005_495"
       id="linearGradient2"
       gradientUnits="userSpaceOnUse"
       x1="32.000015"
       y1="58.999977"
       x2="32.000015"
       y2="5.000001" /></defs><metadata
     id="metadata1"><rdf:RDF><cc:Work
         rdf:about=""><dc:title>folder-notes_standard-notes_alt</dc:title><dc:date>27-07-2025</dc:date><dc:description>Beautyline style notes folder icon. standard-notes style</dc:description><cc:license
           rdf:resource="http://creativecommons.org/licenses/by-nc-sa/4.0/" /></cc:Work><cc:License
         rdf:about="http://creativecommons.org/licenses/by-nc-sa/4.0/"><cc:permits
           rdf:resource="http://creativecommons.org/ns#Reproduction" /><cc:permits
           rdf:resource="http://creativecommons.org/ns#Distribution" /><cc:requires
           rdf:resource="http://creativecommons.org/ns#Notice" /><cc:requires
           rdf:resource="http://creativecommons.org/ns#Attribution" /><cc:prohibits
           rdf:resource="http://creativecommons.org/ns#CommercialUse" /><cc:permits
           rdf:resource="http://creativecommons.org/ns#DerivativeWorks" /><cc:requires
           rdf:resource="http://creativecommons.org/ns#ShareAlike" /></cc:License></rdf:RDF></metadata></svg>
