<?xml version="1.0" encoding="UTF-8" standalone="no"?>
<svg
   width="48"
   height="48"
   viewBox="0 0 48 48"
   fill="none"
   version="2"
   id="svg1"
   sodipodi:docname="folder-presentation_libreoffice-impress-alt.svg"
   inkscape:version="1.4.2 (ebf0e940d0, 2025-05-08)"
   xml:space="preserve"
   xmlns:inkscape="http://www.inkscape.org/namespaces/inkscape"
   xmlns:sodipodi="http://sodipodi.sourceforge.net/DTD/sodipodi-0.dtd"
   xmlns:xlink="http://www.w3.org/1999/xlink"
   xmlns="http://www.w3.org/2000/svg"
   xmlns:svg="http://www.w3.org/2000/svg"
   xmlns:rdf="http://www.w3.org/1999/02/22-rdf-syntax-ns#"
   xmlns:cc="http://creativecommons.org/ns#"
   xmlns:dc="http://purl.org/dc/elements/1.1/"><title
     id="title1">folder-</title><sodipodi:namedview
     id="namedview1"
     pagecolor="#3f4354"
     bordercolor="#000000"
     borderopacity="0.5"
     inkscape:showpageshadow="1"
     inkscape:pageopacity="0"
     inkscape:pagecheckerboard="1"
     inkscape:deskcolor="#2b2f40"
     showgrid="false"
     inkscape:zoom="7.2666611"
     inkscape:cx="-0.8944961"
     inkscape:cy="49.3349"
     inkscape:window-width="1920"
     inkscape:window-height="1048"
     inkscape:window-x="0"
     inkscape:window-y="0"
     inkscape:window-maximized="1"
     inkscape:current-layer="g2" /><g
     id="g1"><g
       id="g11"
       transform="matrix(0.74999965,0,0,0.74999965,3.7743922e-7,1.908614e-5)"
       style="fill:url(#linearGradient3)"><path
         d="M 8.24717,5.28688 C 10.8404,4.80099 13.5052,5.09747 16.1297,5.01923 18.8839,5.09747 21.902,4.61569 24.37,6.03631 c 2.3518,1.37121 3.8988,3.59891 6.0002,5.24599 0.7735,0.5518 1.7751,0.7577 2.7453,0.7412 9.4028,0 18.8055,0.0124 28.2083,0.0659 1.6185,-0.1277 3.018,1.4165 2.6022,2.8577 -0.2281,1.1159 -1.404,1.9436 -2.6291,1.8695 C 51.7466,16.8289 42.1963,16.7836 32.646,16.7754 30.4597,16.763 28.2778,16.0177 26.6547,14.663 24.6696,13.1765 23.3506,10.8953 21.0033,9.87817 17.7483,9.63934 14.462,9.84523 11.1981,9.77522 8.9536,9.63934 6.7091,10.8252 5.75228,12.7029 c -0.65725,1.1901 -0.541,2.5572 -0.54994,3.846 0.02235,10.8503 -0.00895,21.7005 0.01341,32.5549 -0.03577,2.0342 1.4084,3.9777 3.4517,4.7354 1.21614,0.4777 2.56645,0.3871 3.85855,0.3953 13.5833,-0.0206 27.1665,0.0083 40.7453,-0.0165 2.1014,0.0083 4.1134,-1.2023 4.9898,-2.9524 0.7019,-1.3135 0.5007,-2.8124 0.5275,-4.2248 0.009,-6.0284 -0.0312,-12.0567 0.0179,-18.0851 -0.0357,-1.3548 1.3995,-2.4954 2.8481,-2.3183 1.4219,0.0865 2.486,1.3712 2.325,2.6601 0,6.7366 0.0313,13.4732 -0.0134,20.214 C 63.9036,54.498 59.1016,58.8917 53.696,58.974 39.384,59.0234 25.0675,58.9864 10.7555,58.9905 6.61521,59.0317 2.60462,56.6516 0.945834,53.1557 0.163389,51.6362 -0.0243975,49.9356 0.00242916,48.272 0.0381981,37.01 -0.0243977,25.7397 0.0337268,14.4777 0.114207,10.1664 3.70004,6.22985 8.24717,5.28688 Z"
         id="path111"
         style="fill:url(#linearGradient12);fill-opacity:1;stroke:url(#linearGradient30);stroke-width:0;stroke-dasharray:none" /></g><g
       style="fill:none"
       id="g2"
       transform="matrix(0.22641125,0,0,0.22641125,9.5229389,12.006559)"><path
         d="M 108.028,68.3225 C 106.64959,79.804243 100.99316,89.489367 92.1238,96.7961 81.6757,104.926 67.1193,107.256 54.6143,102.961 45.823407,99.985212 39.627691,94.490586 36.2284,90.0322 c 5.7064,-0.0872 8.4185,0.0755 14.1248,-0.0756 3.905,-0.0872 7.2928,-2.58 9.3731,-5.7528 0.4997,-1.2726 1.1447,-1.1448 1.31905,-11.8427 0,0 0,-12.687413 -0.17435,-23.7086 -0.03203,-2.023808 -2.516556,-8.071084 -8.6291,-9.3846 -1.66691,-0.310233 -8.1163,-0.310233 -8.1163,-0.310233 l -7.8157,-0.02565 C 43.6026,29.739117 56.1198,24.1479 67.7939,23.8573 67.714781,37.905836 67.929126,51.952297 68,66 c 0.0226,1 1.636,2.1308 3.0248,2.2702 12.334217,0.064 37.0032,0.0523 37.0032,0.0523 z M 22.4683,46.2701 c 2.812097,-0.811669 22.656868,-0.579477 28.6637,-0.1104 1.4236,0.4474 2.3534,1.7374 2.8183,3.103 0.215,9.71 0.058,19.4317 0.0813,29.1476 0.1975,2.3941 -1.7491,4.7301 -4.213,4.6487 -9.7274,0.0988 -16.4666,0.0523 -26.1941,0.0291 -1.598,-0.2731 -2.8995,-1.4527 -3.562,-2.8939 -0.2963,-9.5124 -0.0348,-19.0424 -0.1452,-28.5607 -0.1569,-2.0745 0.4648,-4.4744 2.551,-5.3634 z m 52.2581,12.9584 c 0,0 1.0252,2.0365 2.184,2.0861 0.599048,0.0256 5.70725,0.0281 7.3076,0.0205 9.094983,-0.008 18.18998,0.001 27.285,0.0144 1.546,-0.0698 3.039,1.0518 3.376,2.5684 0.20372,7.154408 -1.18972,18.710285 -9.965,29.932 -5.5789,6.9151 -12.9646,12.4061 -21.3672,15.3701 -10.2911,3.713 -21.849,3.643 -32.1343,-0.064 -9.6868,-3.585 -18.2463,-10.3145 -23.7202,-19.1122 -3.1495,0.0116 -6.623429,0.216421 -9.2974,-1.691 -1.526494,-1.088893 -2.766,-2.2895 -3.8411,-3.7132 -1.112352,-1.5515 -1.5225,-4.4454 -1.5515,-6.8511 0.0348,-9.2916 -0.0291,-18.5833 0.029,-27.875 0.0233,-5.4274 4.5674,-10.4248 10.0006,-10.8316 0,0 2.937774,-0.21786 4.716713,-0.15544 C 35.726193,25.6296 51.18,17.1864 66.7591,17.0062 c 7.3508,-0.122 14.6726,1.5516 21.3145,4.6836 4.2536,2.1558 8.2631,4.8172 11.7322,8.1004 5.84679,5.435367 9.56138,11.655338 11.9052,17.47 0.626,1.5614 1.357,3.3827 0.286,4.9021 -1.284,2.1791 -4.928,2.0222 -5.927,-0.3312 -1.354,-3.3238 -2.737,-6.6709 -4.811,-9.6345 -1.5985,-2.5045 -3.5161,-4.794 -5.6487,-6.8569 -3.5272,-3.3936 -7.6413,-6.1654 -12.1332,-8.112 -3.1088,-1.354 -5.4036,-2.2198 -8.7391,-2.8125 -0.0141,11.604451 -0.0116,34.8133 -0.0116,34.8133 z"
         stroke="url(#paint6_linear_614_153)"
         stroke-width="4"
         id="path7"
         style="fill:url(#linearGradient19);fill-rule:evenodd;stroke:url(#linearGradient20)"
         sodipodi:nodetypes="cccccccscccccccccccccccccsccccccccccccccccsccccccc" /><path
         d="m 34.6849,60.5074 c 0,-2.405642 0,-3.9569 3.9906,-3.9569 3.917943,0 3.9179,1.680097 3.9179,3.9569 0,3.192614 -1e-6,5.444412 -3.9179,5.461313 -3.9906,0.01721 -3.9906,-2.19578 -3.9906,-5.461313 z m 0.822251,15.960723 c 0.104138,-4.792461 0.09525,-4.798261 1.6783,-4.792461 2.9733,0.0163 4.71319,0.391685 8.227882,-1.010315 3.524496,-1.6562 3.493232,-4.995547 3.604616,-9.597054 0.0017,-4.385093 -1.620597,-10.21515 -6.235858,-10.21515 0,0 -4.106591,0 -11.08598,0 -2.798744,0 -3.722909,2.090522 -3.765809,4.007822 0.02924,6.81821 0.02456,14.788584 0,21.607158 0,3.059287 1.686853,3.059287 3.765809,3.059287 2.009807,0 3.744555,3.67e-4 3.81104,-3.059287 z"
         fill="url(#paint7_linear_614_153)"
         id="path13"
         style="fill:url(#linearGradient9);stroke-width:2.00078;stroke-dasharray:none"
         sodipodi:nodetypes="sssssscccssccss" /></g></g><defs
     id="defs1"><linearGradient
       id="paint6_linear_614_153"
       x1="31.4873"
       y1="100.759"
       x2="100.975"
       y2="27.8596"
       gradientUnits="userSpaceOnUse"><stop
         offset="0.184158"
         stop-color="#FF5C00"
         id="stop22" /><stop
         offset="1"
         stop-color="#FEE502"
         id="stop23" /></linearGradient><linearGradient
       id="paint7_linear_614_153"
       x1="32.394"
       y1="75.3498"
       x2="54.3121"
       y2="61.7912"
       gradientUnits="userSpaceOnUse"><stop
         stop-color="#FE0844"
         id="stop24" /><stop
         offset="1"
         stop-color="#FEB302"
         id="stop25" /></linearGradient><linearGradient
       inkscape:collect="always"
       xlink:href="#paint7_linear_614_153"
       id="linearGradient9"
       gradientUnits="userSpaceOnUse"
       x1="32.394"
       y1="75.3498"
       x2="54.3121"
       y2="61.7912" /><linearGradient
       inkscape:collect="always"
       xlink:href="#paint6_linear_614_153"
       id="linearGradient12"
       gradientUnits="userSpaceOnUse"
       x1="8.66745"
       y1="53.839199"
       x2="61.323799"
       y2="12.0894" /><linearGradient
       inkscape:collect="always"
       xlink:href="#paint6_linear_614_153"
       id="linearGradient19"
       x1="31.487301"
       y1="100.759"
       x2="100.975"
       y2="27.8596"
       gradientUnits="userSpaceOnUse" /><linearGradient
       inkscape:collect="always"
       xlink:href="#paint6_linear_614_153"
       id="linearGradient20"
       gradientUnits="userSpaceOnUse"
       x1="31.487301"
       y1="100.759"
       x2="100.975"
       y2="27.8596" /></defs><metadata
     id="metadata1"><rdf:RDF><cc:Work
         rdf:about=""><dc:title>folder-</dc:title><dc:date>26-07-2025</dc:date><dc:description>Beautyline style * folder icon</dc:description><cc:license
           rdf:resource="http://creativecommons.org/licenses/by-nc-sa/4.0/" /></cc:Work><cc:License
         rdf:about="http://creativecommons.org/licenses/by-nc-sa/4.0/"><cc:permits
           rdf:resource="http://creativecommons.org/ns#Reproduction" /><cc:permits
           rdf:resource="http://creativecommons.org/ns#Distribution" /><cc:requires
           rdf:resource="http://creativecommons.org/ns#Notice" /><cc:requires
           rdf:resource="http://creativecommons.org/ns#Attribution" /><cc:prohibits
           rdf:resource="http://creativecommons.org/ns#CommercialUse" /><cc:permits
           rdf:resource="http://creativecommons.org/ns#DerivativeWorks" /><cc:requires
           rdf:resource="http://creativecommons.org/ns#ShareAlike" /></cc:License></rdf:RDF></metadata></svg>
